{
    "format": 0, 
    "instruments": [
        0, 
        34, 
        100, 
        106, 
        75, 
        108, 
        116, 
        118, 
        88, 
        26, 
        90, 
        30
    ], 
    "resolution": 480, 
    "channels": [
        0, 
        1, 
        2, 
        3, 
        4, 
        5, 
        6, 
        7, 
        8, 
        9, 
        10, 
        11, 
        12
    ], 
    "tracks": [
        {
            "trackName": "Track1", 
            "seq": [
                [
                    0, 
                    [
                        {
                            "bpm": 70.00007000007, 
                            "type": "tempo", 
                            "mpqn": 857142, 
                            "t0": 0
                        }
                    ]
                ], 
                [
                    1935, 
                    [
                        {
                            "instrument": 75, 
                            "type": "programChange", 
                            "t0": 1935, 
                            "channel": 0
                        }
                    ]
                ], 
                [
                    2035, 
                    [
                        {
                            "instrument": 106, 
                            "type": "programChange", 
                            "t0": 2035, 
                            "channel": 1
                        }
                    ]
                ], 
                [
                    2135, 
                    [
                        {
                            "instrument": 90, 
                            "type": "programChange", 
                            "t0": 2135, 
                            "channel": 2
                        }
                    ]
                ], 
                [
                    2235, 
                    [
                        {
                            "instrument": 30, 
                            "type": "programChange", 
                            "t0": 2235, 
                            "channel": 3
                        }
                    ]
                ], 
                [
                    2335, 
                    [
                        {
                            "instrument": 26, 
                            "type": "programChange", 
                            "t0": 2335, 
                            "channel": 4
                        }
                    ]
                ], 
                [
                    2435, 
                    [
                        {
                            "instrument": 88, 
                            "type": "programChange", 
                            "t0": 2435, 
                            "channel": 5
                        }
                    ]
                ], 
                [
                    2535, 
                    [
                        {
                            "instrument": 34, 
                            "type": "programChange", 
                            "t0": 2535, 
                            "channel": 6
                        }
                    ]
                ], 
                [
                    2635, 
                    [
                        {
                            "instrument": 116, 
                            "type": "programChange", 
                            "t0": 2635, 
                            "channel": 7
                        }
                    ]
                ], 
                [
                    2735, 
                    [
                        {
                            "instrument": 100, 
                            "type": "programChange", 
                            "t0": 2735, 
                            "channel": 8
                        }
                    ]
                ], 
                [
                    2830, 
                    [
                        {
                            "instrument": 0, 
                            "type": "programChange", 
                            "t0": 2830, 
                            "channel": 9
                        }
                    ]
                ], 
                [
                    2935, 
                    [
                        {
                            "instrument": 75, 
                            "type": "programChange", 
                            "t0": 2935, 
                            "channel": 10
                        }
                    ]
                ], 
                [
                    3035, 
                    [
                        {
                            "instrument": 108, 
                            "type": "programChange", 
                            "t0": 3035, 
                            "channel": 11
                        }
                    ]
                ], 
                [
                    3135, 
                    [
                        {
                            "instrument": 118, 
                            "type": "programChange", 
                            "t0": 3135, 
                            "channel": 12
                        }
                    ]
                ], 
                [
                    3840, 
                    [
                        {
                            "bpm": 35.00001458333941, 
                            "type": "tempo", 
                            "mpqn": 1714285, 
                            "t0": 3840
                        }, 
                        {
                            "pitch": 47, 
                            "t0": 3840, 
                            "v": 40, 
                            "dur": 36, 
                            "type": "note", 
                            "channel": 7
                        }
                    ]
                ], 
                [
                    3880, 
                    [
                        {
                            "pitch": 47, 
                            "t0": 3880, 
                            "v": 40, 
                            "dur": 36, 
                            "type": "note", 
                            "channel": 7
                        }
                    ]
                ], 
                [
                    3920, 
                    [
                        {
                            "pitch": 47, 
                            "t0": 3920, 
                            "v": 40, 
                            "dur": 36, 
                            "type": "note", 
                            "channel": 7
                        }
                    ]
                ], 
                [
                    3960, 
                    [
                        {
                            "pitch": 47, 
                            "t0": 3960, 
                            "v": 40, 
                            "dur": 36, 
                            "type": "note", 
                            "channel": 7
                        }
                    ]
                ], 
                [
                    4000, 
                    [
                        {
                            "pitch": 47, 
                            "t0": 4000, 
                            "v": 40, 
                            "dur": 36, 
                            "type": "note", 
                            "channel": 7
                        }
                    ]
                ], 
                [
                    4040, 
                    [
                        {
                            "pitch": 47, 
                            "t0": 4040, 
                            "v": 40, 
                            "dur": 36, 
                            "type": "note", 
                            "channel": 7
                        }
                    ]
                ], 
                [
                    4080, 
                    [
                        {
                            "pitch": 47, 
                            "t0": 4080, 
                            "v": 40, 
                            "dur": 36, 
                            "type": "note", 
                            "channel": 7
                        }
                    ]
                ], 
                [
                    4120, 
                    [
                        {
                            "pitch": 47, 
                            "t0": 4120, 
                            "v": 40, 
                            "dur": 36, 
                            "type": "note", 
                            "channel": 7
                        }
                    ]
                ], 
                [
                    4160, 
                    [
                        {
                            "pitch": 47, 
                            "t0": 4160, 
                            "v": 40, 
                            "dur": 36, 
                            "type": "note", 
                            "channel": 7
                        }
                    ]
                ], 
                [
                    4200, 
                    [
                        {
                            "pitch": 47, 
                            "t0": 4200, 
                            "v": 40, 
                            "dur": 36, 
                            "type": "note", 
                            "channel": 7
                        }
                    ]
                ], 
                [
                    4240, 
                    [
                        {
                            "pitch": 47, 
                            "t0": 4240, 
                            "v": 40, 
                            "dur": 36, 
                            "type": "note", 
                            "channel": 7
                        }
                    ]
                ], 
                [
                    4280, 
                    [
                        {
                            "pitch": 47, 
                            "t0": 4280, 
                            "v": 40, 
                            "dur": 36, 
                            "type": "note", 
                            "channel": 7
                        }
                    ]
                ], 
                [
                    4320, 
                    [
                        {
                            "pitch": 47, 
                            "t0": 4320, 
                            "v": 40, 
                            "dur": 36, 
                            "type": "note", 
                            "channel": 7
                        }
                    ]
                ], 
                [
                    4360, 
                    [
                        {
                            "pitch": 47, 
                            "t0": 4360, 
                            "v": 40, 
                            "dur": 36, 
                            "type": "note", 
                            "channel": 7
                        }
                    ]
                ], 
                [
                    4400, 
                    [
                        {
                            "pitch": 47, 
                            "t0": 4400, 
                            "v": 40, 
                            "dur": 36, 
                            "type": "note", 
                            "channel": 7
                        }
                    ]
                ], 
                [
                    4440, 
                    [
                        {
                            "pitch": 47, 
                            "t0": 4440, 
                            "v": 40, 
                            "dur": 36, 
                            "type": "note", 
                            "channel": 7
                        }
                    ]
                ], 
                [
                    4480, 
                    [
                        {
                            "pitch": 47, 
                            "t0": 4480, 
                            "v": 40, 
                            "dur": 36, 
                            "type": "note", 
                            "channel": 7
                        }
                    ]
                ], 
                [
                    4520, 
                    [
                        {
                            "pitch": 47, 
                            "t0": 4520, 
                            "v": 40, 
                            "dur": 36, 
                            "type": "note", 
                            "channel": 7
                        }
                    ]
                ], 
                [
                    4560, 
                    [
                        {
                            "pitch": 47, 
                            "t0": 4560, 
                            "v": 40, 
                            "dur": 36, 
                            "type": "note", 
                            "channel": 7
                        }
                    ]
                ], 
                [
                    4600, 
                    [
                        {
                            "pitch": 47, 
                            "t0": 4600, 
                            "v": 40, 
                            "dur": 36, 
                            "type": "note", 
                            "channel": 7
                        }
                    ]
                ], 
                [
                    4640, 
                    [
                        {
                            "pitch": 47, 
                            "t0": 4640, 
                            "v": 40, 
                            "dur": 36, 
                            "type": "note", 
                            "channel": 7
                        }
                    ]
                ], 
                [
                    4680, 
                    [
                        {
                            "pitch": 47, 
                            "t0": 4680, 
                            "v": 40, 
                            "dur": 36, 
                            "type": "note", 
                            "channel": 7
                        }
                    ]
                ], 
                [
                    4720, 
                    [
                        {
                            "pitch": 47, 
                            "t0": 4720, 
                            "v": 40, 
                            "dur": 36, 
                            "type": "note", 
                            "channel": 7
                        }
                    ]
                ], 
                [
                    4760, 
                    [
                        {
                            "pitch": 47, 
                            "t0": 4760, 
                            "v": 40, 
                            "dur": 36, 
                            "type": "note", 
                            "channel": 7
                        }
                    ]
                ], 
                [
                    4800, 
                    [
                        {
                            "pitch": 47, 
                            "t0": 4800, 
                            "v": 40, 
                            "dur": 36, 
                            "type": "note", 
                            "channel": 7
                        }
                    ]
                ], 
                [
                    4840, 
                    [
                        {
                            "pitch": 47, 
                            "t0": 4840, 
                            "v": 40, 
                            "dur": 36, 
                            "type": "note", 
                            "channel": 7
                        }
                    ]
                ], 
                [
                    4880, 
                    [
                        {
                            "pitch": 47, 
                            "t0": 4880, 
                            "v": 40, 
                            "dur": 36, 
                            "type": "note", 
                            "channel": 7
                        }
                    ]
                ], 
                [
                    4920, 
                    [
                        {
                            "pitch": 47, 
                            "t0": 4920, 
                            "v": 40, 
                            "dur": 36, 
                            "type": "note", 
                            "channel": 7
                        }
                    ]
                ], 
                [
                    4960, 
                    [
                        {
                            "pitch": 47, 
                            "t0": 4960, 
                            "v": 40, 
                            "dur": 36, 
                            "type": "note", 
                            "channel": 7
                        }
                    ]
                ], 
                [
                    5000, 
                    [
                        {
                            "pitch": 47, 
                            "t0": 5000, 
                            "v": 40, 
                            "dur": 36, 
                            "type": "note", 
                            "channel": 7
                        }
                    ]
                ], 
                [
                    5040, 
                    [
                        {
                            "pitch": 47, 
                            "t0": 5040, 
                            "v": 40, 
                            "dur": 36, 
                            "type": "note", 
                            "channel": 7
                        }
                    ]
                ], 
                [
                    5080, 
                    [
                        {
                            "pitch": 47, 
                            "t0": 5080, 
                            "v": 40, 
                            "dur": 36, 
                            "type": "note", 
                            "channel": 7
                        }
                    ]
                ], 
                [
                    5120, 
                    [
                        {
                            "pitch": 47, 
                            "t0": 5120, 
                            "v": 40, 
                            "dur": 36, 
                            "type": "note", 
                            "channel": 7
                        }
                    ]
                ], 
                [
                    5160, 
                    [
                        {
                            "pitch": 47, 
                            "t0": 5160, 
                            "v": 40, 
                            "dur": 36, 
                            "type": "note", 
                            "channel": 7
                        }
                    ]
                ], 
                [
                    5200, 
                    [
                        {
                            "pitch": 47, 
                            "t0": 5200, 
                            "v": 40, 
                            "dur": 36, 
                            "type": "note", 
                            "channel": 7
                        }
                    ]
                ], 
                [
                    5240, 
                    [
                        {
                            "pitch": 47, 
                            "t0": 5240, 
                            "v": 40, 
                            "dur": 36, 
                            "type": "note", 
                            "channel": 7
                        }
                    ]
                ], 
                [
                    5280, 
                    [
                        {
                            "pitch": 47, 
                            "t0": 5280, 
                            "v": 40, 
                            "dur": 36, 
                            "type": "note", 
                            "channel": 7
                        }, 
                        {
                            "pitch": 71, 
                            "t0": 5280, 
                            "v": 120, 
                            "dur": 216, 
                            "type": "note", 
                            "channel": 3
                        }
                    ]
                ], 
                [
                    5320, 
                    [
                        {
                            "pitch": 47, 
                            "t0": 5320, 
                            "v": 40, 
                            "dur": 36, 
                            "type": "note", 
                            "channel": 7
                        }
                    ]
                ], 
                [
                    5360, 
                    [
                        {
                            "pitch": 47, 
                            "t0": 5360, 
                            "v": 40, 
                            "dur": 36, 
                            "type": "note", 
                            "channel": 7
                        }
                    ]
                ], 
                [
                    5400, 
                    [
                        {
                            "pitch": 47, 
                            "t0": 5400, 
                            "v": 40, 
                            "dur": 36, 
                            "type": "note", 
                            "channel": 7
                        }
                    ]
                ], 
                [
                    5440, 
                    [
                        {
                            "pitch": 47, 
                            "t0": 5440, 
                            "v": 40, 
                            "dur": 36, 
                            "type": "note", 
                            "channel": 7
                        }
                    ]
                ], 
                [
                    5480, 
                    [
                        {
                            "pitch": 47, 
                            "t0": 5480, 
                            "v": 40, 
                            "dur": 36, 
                            "type": "note", 
                            "channel": 7
                        }
                    ]
                ], 
                [
                    5520, 
                    [
                        {
                            "pitch": 47, 
                            "t0": 5520, 
                            "v": 40, 
                            "dur": 36, 
                            "type": "note", 
                            "channel": 7
                        }, 
                        {
                            "pitch": 75, 
                            "t0": 5520, 
                            "v": 120, 
                            "dur": 216, 
                            "type": "note", 
                            "channel": 3
                        }
                    ]
                ], 
                [
                    5560, 
                    [
                        {
                            "pitch": 47, 
                            "t0": 5560, 
                            "v": 40, 
                            "dur": 36, 
                            "type": "note", 
                            "channel": 7
                        }
                    ]
                ], 
                [
                    5600, 
                    [
                        {
                            "pitch": 47, 
                            "t0": 5600, 
                            "v": 40, 
                            "dur": 36, 
                            "type": "note", 
                            "channel": 7
                        }
                    ]
                ], 
                [
                    5640, 
                    [
                        {
                            "pitch": 47, 
                            "t0": 5640, 
                            "v": 40, 
                            "dur": 36, 
                            "type": "note", 
                            "channel": 7
                        }
                    ]
                ], 
                [
                    5680, 
                    [
                        {
                            "pitch": 47, 
                            "t0": 5680, 
                            "v": 40, 
                            "dur": 36, 
                            "type": "note", 
                            "channel": 7
                        }
                    ]
                ], 
                [
                    5720, 
                    [
                        {
                            "pitch": 47, 
                            "t0": 5720, 
                            "v": 40, 
                            "dur": 76, 
                            "type": "note", 
                            "channel": 7
                        }
                    ]
                ], 
                [
                    5760, 
                    [
                        {
                            "bpm": 70.00007000007, 
                            "type": "tempo", 
                            "mpqn": 857142, 
                            "t0": 5760
                        }, 
                        {
                            "pitch": 76, 
                            "t0": 5760, 
                            "v": 120, 
                            "dur": 648, 
                            "type": "note", 
                            "channel": 3
                        }, 
                        {
                            "pitch": 40, 
                            "t0": 5760, 
                            "v": 104, 
                            "dur": 13248, 
                            "type": "note", 
                            "channel": 6
                        }
                    ]
                ], 
                [
                    5800, 
                    [
                        {
                            "pitch": 47, 
                            "t0": 5800, 
                            "v": 40, 
                            "dur": 36, 
                            "type": "note", 
                            "channel": 7
                        }
                    ]
                ], 
                [
                    5840, 
                    [
                        {
                            "pitch": 47, 
                            "t0": 5840, 
                            "v": 40, 
                            "dur": 36, 
                            "type": "note", 
                            "channel": 7
                        }
                    ]
                ], 
                [
                    5880, 
                    [
                        {
                            "pitch": 47, 
                            "t0": 5880, 
                            "v": 40, 
                            "dur": 36, 
                            "type": "note", 
                            "channel": 7
                        }
                    ]
                ], 
                [
                    5920, 
                    [
                        {
                            "pitch": 47, 
                            "t0": 5920, 
                            "v": 40, 
                            "dur": 36, 
                            "type": "note", 
                            "channel": 7
                        }
                    ]
                ], 
                [
                    5960, 
                    [
                        {
                            "pitch": 47, 
                            "t0": 5960, 
                            "v": 40, 
                            "dur": 36, 
                            "type": "note", 
                            "channel": 7
                        }
                    ]
                ], 
                [
                    6000, 
                    [
                        {
                            "pitch": 47, 
                            "t0": 6000, 
                            "v": 40, 
                            "dur": 36, 
                            "type": "note", 
                            "channel": 7
                        }
                    ]
                ], 
                [
                    6040, 
                    [
                        {
                            "pitch": 47, 
                            "t0": 6040, 
                            "v": 40, 
                            "dur": 36, 
                            "type": "note", 
                            "channel": 7
                        }
                    ]
                ], 
                [
                    6080, 
                    [
                        {
                            "pitch": 47, 
                            "t0": 6080, 
                            "v": 40, 
                            "dur": 36, 
                            "type": "note", 
                            "channel": 7
                        }
                    ]
                ], 
                [
                    6120, 
                    [
                        {
                            "pitch": 47, 
                            "t0": 6120, 
                            "v": 40, 
                            "dur": 36, 
                            "type": "note", 
                            "channel": 7
                        }
                    ]
                ], 
                [
                    6160, 
                    [
                        {
                            "pitch": 47, 
                            "t0": 6160, 
                            "v": 40, 
                            "dur": 36, 
                            "type": "note", 
                            "channel": 7
                        }
                    ]
                ], 
                [
                    6200, 
                    [
                        {
                            "pitch": 47, 
                            "t0": 6200, 
                            "v": 40, 
                            "dur": 36, 
                            "type": "note", 
                            "channel": 7
                        }
                    ]
                ], 
                [
                    6240, 
                    [
                        {
                            "pitch": 47, 
                            "t0": 6240, 
                            "v": 40, 
                            "dur": 36, 
                            "type": "note", 
                            "channel": 7
                        }
                    ]
                ], 
                [
                    6280, 
                    [
                        {
                            "pitch": 47, 
                            "t0": 6280, 
                            "v": 40, 
                            "dur": 36, 
                            "type": "note", 
                            "channel": 7
                        }
                    ]
                ], 
                [
                    6320, 
                    [
                        {
                            "pitch": 47, 
                            "t0": 6320, 
                            "v": 40, 
                            "dur": 36, 
                            "type": "note", 
                            "channel": 7
                        }
                    ]
                ], 
                [
                    6360, 
                    [
                        {
                            "pitch": 47, 
                            "t0": 6360, 
                            "v": 40, 
                            "dur": 36, 
                            "type": "note", 
                            "channel": 7
                        }
                    ]
                ], 
                [
                    6400, 
                    [
                        {
                            "pitch": 47, 
                            "t0": 6400, 
                            "v": 40, 
                            "dur": 36, 
                            "type": "note", 
                            "channel": 7
                        }
                    ]
                ], 
                [
                    6440, 
                    [
                        {
                            "pitch": 47, 
                            "t0": 6440, 
                            "v": 40, 
                            "dur": 36, 
                            "type": "note", 
                            "channel": 7
                        }
                    ]
                ], 
                [
                    6480, 
                    [
                        {
                            "pitch": 47, 
                            "t0": 6480, 
                            "v": 40, 
                            "dur": 36, 
                            "type": "note", 
                            "channel": 7
                        }, 
                        {
                            "pitch": 80, 
                            "t0": 6480, 
                            "v": 120, 
                            "dur": 216, 
                            "type": "note", 
                            "channel": 3
                        }
                    ]
                ], 
                [
                    6520, 
                    [
                        {
                            "pitch": 47, 
                            "t0": 6520, 
                            "v": 40, 
                            "dur": 36, 
                            "type": "note", 
                            "channel": 7
                        }
                    ]
                ], 
                [
                    6560, 
                    [
                        {
                            "pitch": 47, 
                            "t0": 6560, 
                            "v": 40, 
                            "dur": 36, 
                            "type": "note", 
                            "channel": 7
                        }
                    ]
                ], 
                [
                    6600, 
                    [
                        {
                            "pitch": 47, 
                            "t0": 6600, 
                            "v": 40, 
                            "dur": 36, 
                            "type": "note", 
                            "channel": 7
                        }
                    ]
                ], 
                [
                    6640, 
                    [
                        {
                            "pitch": 47, 
                            "t0": 6640, 
                            "v": 40, 
                            "dur": 36, 
                            "type": "note", 
                            "channel": 7
                        }
                    ]
                ], 
                [
                    6680, 
                    [
                        {
                            "pitch": 47, 
                            "t0": 6680, 
                            "v": 40, 
                            "dur": 36, 
                            "type": "note", 
                            "channel": 7
                        }
                    ]
                ], 
                [
                    6720, 
                    [
                        {
                            "pitch": 47, 
                            "t0": 6720, 
                            "v": 40, 
                            "dur": 36, 
                            "type": "note", 
                            "channel": 7
                        }, 
                        {
                            "pitch": 81, 
                            "t0": 6720, 
                            "v": 120, 
                            "dur": 216, 
                            "type": "note", 
                            "channel": 3
                        }
                    ]
                ], 
                [
                    6760, 
                    [
                        {
                            "pitch": 47, 
                            "t0": 6760, 
                            "v": 40, 
                            "dur": 36, 
                            "type": "note", 
                            "channel": 7
                        }
                    ]
                ], 
                [
                    6800, 
                    [
                        {
                            "pitch": 47, 
                            "t0": 6800, 
                            "v": 40, 
                            "dur": 36, 
                            "type": "note", 
                            "channel": 7
                        }
                    ]
                ], 
                [
                    6840, 
                    [
                        {
                            "pitch": 47, 
                            "t0": 6840, 
                            "v": 40, 
                            "dur": 36, 
                            "type": "note", 
                            "channel": 7
                        }
                    ]
                ], 
                [
                    6880, 
                    [
                        {
                            "pitch": 47, 
                            "t0": 6880, 
                            "v": 40, 
                            "dur": 36, 
                            "type": "note", 
                            "channel": 7
                        }
                    ]
                ], 
                [
                    6920, 
                    [
                        {
                            "pitch": 47, 
                            "t0": 6920, 
                            "v": 40, 
                            "dur": 36, 
                            "type": "note", 
                            "channel": 7
                        }
                    ]
                ], 
                [
                    6960, 
                    [
                        {
                            "pitch": 47, 
                            "t0": 6960, 
                            "v": 40, 
                            "dur": 36, 
                            "type": "note", 
                            "channel": 7
                        }, 
                        {
                            "pitch": 83, 
                            "t0": 6960, 
                            "v": 120, 
                            "dur": 216, 
                            "type": "note", 
                            "channel": 3
                        }
                    ]
                ], 
                [
                    7000, 
                    [
                        {
                            "pitch": 47, 
                            "t0": 7000, 
                            "v": 40, 
                            "dur": 36, 
                            "type": "note", 
                            "channel": 7
                        }
                    ]
                ], 
                [
                    7040, 
                    [
                        {
                            "pitch": 47, 
                            "t0": 7040, 
                            "v": 40, 
                            "dur": 36, 
                            "type": "note", 
                            "channel": 7
                        }
                    ]
                ], 
                [
                    7080, 
                    [
                        {
                            "pitch": 47, 
                            "t0": 7080, 
                            "v": 40, 
                            "dur": 36, 
                            "type": "note", 
                            "channel": 7
                        }
                    ]
                ], 
                [
                    7120, 
                    [
                        {
                            "pitch": 47, 
                            "t0": 7120, 
                            "v": 40, 
                            "dur": 36, 
                            "type": "note", 
                            "channel": 7
                        }
                    ]
                ], 
                [
                    7160, 
                    [
                        {
                            "pitch": 47, 
                            "t0": 7160, 
                            "v": 40, 
                            "dur": 36, 
                            "type": "note", 
                            "channel": 7
                        }
                    ]
                ], 
                [
                    7200, 
                    [
                        {
                            "pitch": 47, 
                            "t0": 7200, 
                            "v": 40, 
                            "dur": 36, 
                            "type": "note", 
                            "channel": 7
                        }, 
                        {
                            "pitch": 87, 
                            "t0": 7200, 
                            "v": 120, 
                            "dur": 216, 
                            "type": "note", 
                            "channel": 3
                        }
                    ]
                ], 
                [
                    7240, 
                    [
                        {
                            "pitch": 47, 
                            "t0": 7240, 
                            "v": 40, 
                            "dur": 36, 
                            "type": "note", 
                            "channel": 7
                        }
                    ]
                ], 
                [
                    7280, 
                    [
                        {
                            "pitch": 47, 
                            "t0": 7280, 
                            "v": 40, 
                            "dur": 36, 
                            "type": "note", 
                            "channel": 7
                        }
                    ]
                ], 
                [
                    7320, 
                    [
                        {
                            "pitch": 47, 
                            "t0": 7320, 
                            "v": 40, 
                            "dur": 36, 
                            "type": "note", 
                            "channel": 7
                        }
                    ]
                ], 
                [
                    7360, 
                    [
                        {
                            "pitch": 47, 
                            "t0": 7360, 
                            "v": 40, 
                            "dur": 36, 
                            "type": "note", 
                            "channel": 7
                        }
                    ]
                ], 
                [
                    7400, 
                    [
                        {
                            "pitch": 47, 
                            "t0": 7400, 
                            "v": 40, 
                            "dur": 36, 
                            "type": "note", 
                            "channel": 7
                        }
                    ]
                ], 
                [
                    7440, 
                    [
                        {
                            "pitch": 47, 
                            "t0": 7440, 
                            "v": 40, 
                            "dur": 36, 
                            "type": "note", 
                            "channel": 7
                        }, 
                        {
                            "pitch": 88, 
                            "t0": 7440, 
                            "v": 120, 
                            "dur": 216, 
                            "type": "note", 
                            "channel": 3
                        }
                    ]
                ], 
                [
                    7480, 
                    [
                        {
                            "pitch": 47, 
                            "t0": 7480, 
                            "v": 40, 
                            "dur": 36, 
                            "type": "note", 
                            "channel": 7
                        }
                    ]
                ], 
                [
                    7520, 
                    [
                        {
                            "pitch": 47, 
                            "t0": 7520, 
                            "v": 40, 
                            "dur": 36, 
                            "type": "note", 
                            "channel": 7
                        }
                    ]
                ], 
                [
                    7560, 
                    [
                        {
                            "pitch": 47, 
                            "t0": 7560, 
                            "v": 40, 
                            "dur": 36, 
                            "type": "note", 
                            "channel": 7
                        }
                    ]
                ], 
                [
                    7600, 
                    [
                        {
                            "pitch": 47, 
                            "t0": 7600, 
                            "v": 40, 
                            "dur": 36, 
                            "type": "note", 
                            "channel": 7
                        }
                    ]
                ], 
                [
                    7640, 
                    [
                        {
                            "pitch": 47, 
                            "t0": 7640, 
                            "v": 40, 
                            "dur": 76, 
                            "type": "note", 
                            "channel": 7
                        }
                    ]
                ], 
                [
                    7680, 
                    [
                        {
                            "pitch": 83, 
                            "t0": 7680, 
                            "v": 120, 
                            "dur": 432, 
                            "type": "note", 
                            "channel": 3
                        }
                    ]
                ], 
                [
                    7720, 
                    [
                        {
                            "pitch": 47, 
                            "t0": 7720, 
                            "v": 40, 
                            "dur": 36, 
                            "type": "note", 
                            "channel": 7
                        }
                    ]
                ], 
                [
                    7760, 
                    [
                        {
                            "pitch": 47, 
                            "t0": 7760, 
                            "v": 40, 
                            "dur": 36, 
                            "type": "note", 
                            "channel": 7
                        }
                    ]
                ], 
                [
                    7800, 
                    [
                        {
                            "pitch": 47, 
                            "t0": 7800, 
                            "v": 40, 
                            "dur": 36, 
                            "type": "note", 
                            "channel": 7
                        }
                    ]
                ], 
                [
                    7840, 
                    [
                        {
                            "pitch": 47, 
                            "t0": 7840, 
                            "v": 40, 
                            "dur": 36, 
                            "type": "note", 
                            "channel": 7
                        }
                    ]
                ], 
                [
                    7880, 
                    [
                        {
                            "pitch": 47, 
                            "t0": 7880, 
                            "v": 40, 
                            "dur": 36, 
                            "type": "note", 
                            "channel": 7
                        }
                    ]
                ], 
                [
                    7920, 
                    [
                        {
                            "pitch": 47, 
                            "t0": 7920, 
                            "v": 40, 
                            "dur": 36, 
                            "type": "note", 
                            "channel": 7
                        }
                    ]
                ], 
                [
                    7960, 
                    [
                        {
                            "pitch": 47, 
                            "t0": 7960, 
                            "v": 40, 
                            "dur": 36, 
                            "type": "note", 
                            "channel": 7
                        }
                    ]
                ], 
                [
                    8000, 
                    [
                        {
                            "pitch": 47, 
                            "t0": 8000, 
                            "v": 40, 
                            "dur": 36, 
                            "type": "note", 
                            "channel": 7
                        }
                    ]
                ], 
                [
                    8040, 
                    [
                        {
                            "pitch": 47, 
                            "t0": 8040, 
                            "v": 40, 
                            "dur": 36, 
                            "type": "note", 
                            "channel": 7
                        }
                    ]
                ], 
                [
                    8080, 
                    [
                        {
                            "pitch": 47, 
                            "t0": 8080, 
                            "v": 40, 
                            "dur": 36, 
                            "type": "note", 
                            "channel": 7
                        }
                    ]
                ], 
                [
                    8120, 
                    [
                        {
                            "pitch": 47, 
                            "t0": 8120, 
                            "v": 40, 
                            "dur": 36, 
                            "type": "note", 
                            "channel": 7
                        }
                    ]
                ], 
                [
                    8160, 
                    [
                        {
                            "pitch": 47, 
                            "t0": 8160, 
                            "v": 40, 
                            "dur": 36, 
                            "type": "note", 
                            "channel": 7
                        }, 
                        {
                            "pitch": 87, 
                            "t0": 8160, 
                            "v": 120, 
                            "dur": 216, 
                            "type": "note", 
                            "channel": 3
                        }
                    ]
                ], 
                [
                    8200, 
                    [
                        {
                            "pitch": 47, 
                            "t0": 8200, 
                            "v": 40, 
                            "dur": 36, 
                            "type": "note", 
                            "channel": 7
                        }
                    ]
                ], 
                [
                    8240, 
                    [
                        {
                            "pitch": 47, 
                            "t0": 8240, 
                            "v": 40, 
                            "dur": 36, 
                            "type": "note", 
                            "channel": 7
                        }
                    ]
                ], 
                [
                    8280, 
                    [
                        {
                            "pitch": 47, 
                            "t0": 8280, 
                            "v": 40, 
                            "dur": 36, 
                            "type": "note", 
                            "channel": 7
                        }
                    ]
                ], 
                [
                    8320, 
                    [
                        {
                            "pitch": 47, 
                            "t0": 8320, 
                            "v": 40, 
                            "dur": 36, 
                            "type": "note", 
                            "channel": 7
                        }
                    ]
                ], 
                [
                    8360, 
                    [
                        {
                            "pitch": 47, 
                            "t0": 8360, 
                            "v": 40, 
                            "dur": 36, 
                            "type": "note", 
                            "channel": 7
                        }
                    ]
                ], 
                [
                    8400, 
                    [
                        {
                            "pitch": 47, 
                            "t0": 8400, 
                            "v": 40, 
                            "dur": 36, 
                            "type": "note", 
                            "channel": 7
                        }, 
                        {
                            "pitch": 88, 
                            "t0": 8400, 
                            "v": 120, 
                            "dur": 216, 
                            "type": "note", 
                            "channel": 3
                        }
                    ]
                ], 
                [
                    8440, 
                    [
                        {
                            "pitch": 47, 
                            "t0": 8440, 
                            "v": 40, 
                            "dur": 36, 
                            "type": "note", 
                            "channel": 7
                        }
                    ]
                ], 
                [
                    8480, 
                    [
                        {
                            "pitch": 47, 
                            "t0": 8480, 
                            "v": 40, 
                            "dur": 36, 
                            "type": "note", 
                            "channel": 7
                        }
                    ]
                ], 
                [
                    8520, 
                    [
                        {
                            "pitch": 47, 
                            "t0": 8520, 
                            "v": 40, 
                            "dur": 36, 
                            "type": "note", 
                            "channel": 7
                        }
                    ]
                ], 
                [
                    8560, 
                    [
                        {
                            "pitch": 47, 
                            "t0": 8560, 
                            "v": 40, 
                            "dur": 36, 
                            "type": "note", 
                            "channel": 7
                        }
                    ]
                ], 
                [
                    8600, 
                    [
                        {
                            "pitch": 47, 
                            "t0": 8600, 
                            "v": 40, 
                            "dur": 36, 
                            "type": "note", 
                            "channel": 7
                        }
                    ]
                ], 
                [
                    8640, 
                    [
                        {
                            "pitch": 47, 
                            "t0": 8640, 
                            "v": 40, 
                            "dur": 36, 
                            "type": "note", 
                            "channel": 7
                        }, 
                        {
                            "pitch": 81, 
                            "t0": 8640, 
                            "v": 120, 
                            "dur": 432, 
                            "type": "note", 
                            "channel": 3
                        }
                    ]
                ], 
                [
                    8680, 
                    [
                        {
                            "pitch": 47, 
                            "t0": 8680, 
                            "v": 40, 
                            "dur": 36, 
                            "type": "note", 
                            "channel": 7
                        }
                    ]
                ], 
                [
                    8720, 
                    [
                        {
                            "pitch": 47, 
                            "t0": 8720, 
                            "v": 40, 
                            "dur": 36, 
                            "type": "note", 
                            "channel": 7
                        }
                    ]
                ], 
                [
                    8760, 
                    [
                        {
                            "pitch": 47, 
                            "t0": 8760, 
                            "v": 40, 
                            "dur": 36, 
                            "type": "note", 
                            "channel": 7
                        }
                    ]
                ], 
                [
                    8800, 
                    [
                        {
                            "pitch": 47, 
                            "t0": 8800, 
                            "v": 40, 
                            "dur": 36, 
                            "type": "note", 
                            "channel": 7
                        }
                    ]
                ], 
                [
                    8840, 
                    [
                        {
                            "pitch": 47, 
                            "t0": 8840, 
                            "v": 40, 
                            "dur": 36, 
                            "type": "note", 
                            "channel": 7
                        }
                    ]
                ], 
                [
                    8880, 
                    [
                        {
                            "pitch": 47, 
                            "t0": 8880, 
                            "v": 40, 
                            "dur": 36, 
                            "type": "note", 
                            "channel": 7
                        }
                    ]
                ], 
                [
                    8920, 
                    [
                        {
                            "pitch": 47, 
                            "t0": 8920, 
                            "v": 40, 
                            "dur": 36, 
                            "type": "note", 
                            "channel": 7
                        }
                    ]
                ], 
                [
                    8960, 
                    [
                        {
                            "pitch": 47, 
                            "t0": 8960, 
                            "v": 40, 
                            "dur": 36, 
                            "type": "note", 
                            "channel": 7
                        }
                    ]
                ], 
                [
                    9000, 
                    [
                        {
                            "pitch": 47, 
                            "t0": 9000, 
                            "v": 40, 
                            "dur": 36, 
                            "type": "note", 
                            "channel": 7
                        }
                    ]
                ], 
                [
                    9040, 
                    [
                        {
                            "pitch": 47, 
                            "t0": 9040, 
                            "v": 40, 
                            "dur": 36, 
                            "type": "note", 
                            "channel": 7
                        }
                    ]
                ], 
                [
                    9080, 
                    [
                        {
                            "pitch": 47, 
                            "t0": 9080, 
                            "v": 40, 
                            "dur": 36, 
                            "type": "note", 
                            "channel": 7
                        }
                    ]
                ], 
                [
                    9120, 
                    [
                        {
                            "pitch": 47, 
                            "t0": 9120, 
                            "v": 40, 
                            "dur": 36, 
                            "type": "note", 
                            "channel": 7
                        }, 
                        {
                            "pitch": 80, 
                            "t0": 9120, 
                            "v": 120, 
                            "dur": 216, 
                            "type": "note", 
                            "channel": 3
                        }
                    ]
                ], 
                [
                    9160, 
                    [
                        {
                            "pitch": 47, 
                            "t0": 9160, 
                            "v": 40, 
                            "dur": 36, 
                            "type": "note", 
                            "channel": 7
                        }
                    ]
                ], 
                [
                    9200, 
                    [
                        {
                            "pitch": 47, 
                            "t0": 9200, 
                            "v": 40, 
                            "dur": 36, 
                            "type": "note", 
                            "channel": 7
                        }
                    ]
                ], 
                [
                    9240, 
                    [
                        {
                            "pitch": 47, 
                            "t0": 9240, 
                            "v": 40, 
                            "dur": 36, 
                            "type": "note", 
                            "channel": 7
                        }
                    ]
                ], 
                [
                    9280, 
                    [
                        {
                            "pitch": 47, 
                            "t0": 9280, 
                            "v": 40, 
                            "dur": 36, 
                            "type": "note", 
                            "channel": 7
                        }
                    ]
                ], 
                [
                    9320, 
                    [
                        {
                            "pitch": 47, 
                            "t0": 9320, 
                            "v": 40, 
                            "dur": 36, 
                            "type": "note", 
                            "channel": 7
                        }
                    ]
                ], 
                [
                    9360, 
                    [
                        {
                            "pitch": 47, 
                            "t0": 9360, 
                            "v": 40, 
                            "dur": 36, 
                            "type": "note", 
                            "channel": 7
                        }, 
                        {
                            "pitch": 81, 
                            "t0": 9360, 
                            "v": 120, 
                            "dur": 216, 
                            "type": "note", 
                            "channel": 3
                        }
                    ]
                ], 
                [
                    9400, 
                    [
                        {
                            "pitch": 47, 
                            "t0": 9400, 
                            "v": 40, 
                            "dur": 36, 
                            "type": "note", 
                            "channel": 7
                        }
                    ]
                ], 
                [
                    9440, 
                    [
                        {
                            "pitch": 47, 
                            "t0": 9440, 
                            "v": 40, 
                            "dur": 36, 
                            "type": "note", 
                            "channel": 7
                        }
                    ]
                ], 
                [
                    9480, 
                    [
                        {
                            "pitch": 47, 
                            "t0": 9480, 
                            "v": 40, 
                            "dur": 36, 
                            "type": "note", 
                            "channel": 7
                        }
                    ]
                ], 
                [
                    9520, 
                    [
                        {
                            "pitch": 47, 
                            "t0": 9520, 
                            "v": 40, 
                            "dur": 36, 
                            "type": "note", 
                            "channel": 7
                        }
                    ]
                ], 
                [
                    9560, 
                    [
                        {
                            "pitch": 47, 
                            "t0": 9560, 
                            "v": 40, 
                            "dur": 76, 
                            "type": "note", 
                            "channel": 7
                        }
                    ]
                ], 
                [
                    9600, 
                    [
                        {
                            "pitch": 78, 
                            "t0": 9600, 
                            "v": 120, 
                            "dur": 216, 
                            "type": "note", 
                            "channel": 3
                        }
                    ]
                ], 
                [
                    9640, 
                    [
                        {
                            "pitch": 47, 
                            "t0": 9640, 
                            "v": 40, 
                            "dur": 36, 
                            "type": "note", 
                            "channel": 7
                        }
                    ]
                ], 
                [
                    9680, 
                    [
                        {
                            "pitch": 47, 
                            "t0": 9680, 
                            "v": 40, 
                            "dur": 36, 
                            "type": "note", 
                            "channel": 7
                        }
                    ]
                ], 
                [
                    9720, 
                    [
                        {
                            "pitch": 47, 
                            "t0": 9720, 
                            "v": 40, 
                            "dur": 36, 
                            "type": "note", 
                            "channel": 7
                        }
                    ]
                ], 
                [
                    9760, 
                    [
                        {
                            "pitch": 47, 
                            "t0": 9760, 
                            "v": 40, 
                            "dur": 36, 
                            "type": "note", 
                            "channel": 7
                        }
                    ]
                ], 
                [
                    9800, 
                    [
                        {
                            "pitch": 47, 
                            "t0": 9800, 
                            "v": 40, 
                            "dur": 36, 
                            "type": "note", 
                            "channel": 7
                        }
                    ]
                ], 
                [
                    9840, 
                    [
                        {
                            "pitch": 47, 
                            "t0": 9840, 
                            "v": 40, 
                            "dur": 36, 
                            "type": "note", 
                            "channel": 7
                        }, 
                        {
                            "pitch": 76, 
                            "t0": 9840, 
                            "v": 120, 
                            "dur": 216, 
                            "type": "note", 
                            "channel": 3
                        }
                    ]
                ], 
                [
                    9880, 
                    [
                        {
                            "pitch": 47, 
                            "t0": 9880, 
                            "v": 40, 
                            "dur": 36, 
                            "type": "note", 
                            "channel": 7
                        }
                    ]
                ], 
                [
                    9920, 
                    [
                        {
                            "pitch": 47, 
                            "t0": 9920, 
                            "v": 40, 
                            "dur": 36, 
                            "type": "note", 
                            "channel": 7
                        }
                    ]
                ], 
                [
                    9960, 
                    [
                        {
                            "pitch": 47, 
                            "t0": 9960, 
                            "v": 40, 
                            "dur": 36, 
                            "type": "note", 
                            "channel": 7
                        }
                    ]
                ], 
                [
                    10000, 
                    [
                        {
                            "pitch": 47, 
                            "t0": 10000, 
                            "v": 40, 
                            "dur": 36, 
                            "type": "note", 
                            "channel": 7
                        }
                    ]
                ], 
                [
                    10040, 
                    [
                        {
                            "pitch": 47, 
                            "t0": 10040, 
                            "v": 40, 
                            "dur": 36, 
                            "type": "note", 
                            "channel": 7
                        }
                    ]
                ], 
                [
                    10080, 
                    [
                        {
                            "pitch": 47, 
                            "t0": 10080, 
                            "v": 40, 
                            "dur": 36, 
                            "type": "note", 
                            "channel": 7
                        }, 
                        {
                            "pitch": 75, 
                            "t0": 10080, 
                            "v": 120, 
                            "dur": 216, 
                            "type": "note", 
                            "channel": 3
                        }
                    ]
                ], 
                [
                    10120, 
                    [
                        {
                            "pitch": 47, 
                            "t0": 10120, 
                            "v": 40, 
                            "dur": 36, 
                            "type": "note", 
                            "channel": 7
                        }
                    ]
                ], 
                [
                    10160, 
                    [
                        {
                            "pitch": 47, 
                            "t0": 10160, 
                            "v": 40, 
                            "dur": 36, 
                            "type": "note", 
                            "channel": 7
                        }
                    ]
                ], 
                [
                    10200, 
                    [
                        {
                            "pitch": 47, 
                            "t0": 10200, 
                            "v": 40, 
                            "dur": 36, 
                            "type": "note", 
                            "channel": 7
                        }
                    ]
                ], 
                [
                    10240, 
                    [
                        {
                            "pitch": 47, 
                            "t0": 10240, 
                            "v": 40, 
                            "dur": 36, 
                            "type": "note", 
                            "channel": 7
                        }
                    ]
                ], 
                [
                    10280, 
                    [
                        {
                            "pitch": 47, 
                            "t0": 10280, 
                            "v": 40, 
                            "dur": 36, 
                            "type": "note", 
                            "channel": 7
                        }
                    ]
                ], 
                [
                    10320, 
                    [
                        {
                            "pitch": 47, 
                            "t0": 10320, 
                            "v": 40, 
                            "dur": 36, 
                            "type": "note", 
                            "channel": 7
                        }, 
                        {
                            "pitch": 78, 
                            "t0": 10320, 
                            "v": 120, 
                            "dur": 216, 
                            "type": "note", 
                            "channel": 3
                        }
                    ]
                ], 
                [
                    10360, 
                    [
                        {
                            "pitch": 47, 
                            "t0": 10360, 
                            "v": 40, 
                            "dur": 36, 
                            "type": "note", 
                            "channel": 7
                        }
                    ]
                ], 
                [
                    10400, 
                    [
                        {
                            "pitch": 47, 
                            "t0": 10400, 
                            "v": 40, 
                            "dur": 36, 
                            "type": "note", 
                            "channel": 7
                        }
                    ]
                ], 
                [
                    10440, 
                    [
                        {
                            "pitch": 47, 
                            "t0": 10440, 
                            "v": 40, 
                            "dur": 36, 
                            "type": "note", 
                            "channel": 7
                        }
                    ]
                ], 
                [
                    10480, 
                    [
                        {
                            "pitch": 47, 
                            "t0": 10480, 
                            "v": 40, 
                            "dur": 80, 
                            "type": "note", 
                            "channel": 7
                        }
                    ]
                ], 
                [
                    10560, 
                    [
                        {
                            "pitch": 47, 
                            "t0": 10560, 
                            "v": 40, 
                            "dur": 76, 
                            "type": "note", 
                            "channel": 7
                        }, 
                        {
                            "pitch": 76, 
                            "t0": 10560, 
                            "v": 120, 
                            "dur": 5568, 
                            "type": "note", 
                            "channel": 3
                        }
                    ]
                ], 
                [
                    10640, 
                    [
                        {
                            "pitch": 47, 
                            "t0": 10640, 
                            "v": 40, 
                            "dur": 36, 
                            "type": "note", 
                            "channel": 7
                        }
                    ]
                ], 
                [
                    10680, 
                    [
                        {
                            "pitch": 47, 
                            "t0": 10680, 
                            "v": 40, 
                            "dur": 36, 
                            "type": "note", 
                            "channel": 7
                        }
                    ]
                ], 
                [
                    10720, 
                    [
                        {
                            "pitch": 47, 
                            "t0": 10720, 
                            "v": 40, 
                            "dur": 36, 
                            "type": "note", 
                            "channel": 7
                        }
                    ]
                ], 
                [
                    10760, 
                    [
                        {
                            "pitch": 47, 
                            "t0": 10760, 
                            "v": 40, 
                            "dur": 36, 
                            "type": "note", 
                            "channel": 7
                        }
                    ]
                ], 
                [
                    10800, 
                    [
                        {
                            "pitch": 47, 
                            "t0": 10800, 
                            "v": 40, 
                            "dur": 36, 
                            "type": "note", 
                            "channel": 7
                        }
                    ]
                ], 
                [
                    10840, 
                    [
                        {
                            "pitch": 47, 
                            "t0": 10840, 
                            "v": 40, 
                            "dur": 36, 
                            "type": "note", 
                            "channel": 7
                        }
                    ]
                ], 
                [
                    10880, 
                    [
                        {
                            "pitch": 47, 
                            "t0": 10880, 
                            "v": 40, 
                            "dur": 36, 
                            "type": "note", 
                            "channel": 7
                        }
                    ]
                ], 
                [
                    10920, 
                    [
                        {
                            "pitch": 47, 
                            "t0": 10920, 
                            "v": 40, 
                            "dur": 36, 
                            "type": "note", 
                            "channel": 7
                        }
                    ]
                ], 
                [
                    10960, 
                    [
                        {
                            "pitch": 47, 
                            "t0": 10960, 
                            "v": 40, 
                            "dur": 36, 
                            "type": "note", 
                            "channel": 7
                        }
                    ]
                ], 
                [
                    11000, 
                    [
                        {
                            "pitch": 47, 
                            "t0": 11000, 
                            "v": 40, 
                            "dur": 36, 
                            "type": "note", 
                            "channel": 7
                        }
                    ]
                ], 
                [
                    11040, 
                    [
                        {
                            "pitch": 47, 
                            "t0": 11040, 
                            "v": 40, 
                            "dur": 36, 
                            "type": "note", 
                            "channel": 7
                        }, 
                        {
                            "pitch": 59, 
                            "t0": 11040, 
                            "v": 120, 
                            "dur": 216, 
                            "type": "note", 
                            "channel": 1
                        }
                    ]
                ], 
                [
                    11080, 
                    [
                        {
                            "pitch": 47, 
                            "t0": 11080, 
                            "v": 40, 
                            "dur": 36, 
                            "type": "note", 
                            "channel": 7
                        }
                    ]
                ], 
                [
                    11120, 
                    [
                        {
                            "pitch": 47, 
                            "t0": 11120, 
                            "v": 40, 
                            "dur": 36, 
                            "type": "note", 
                            "channel": 7
                        }
                    ]
                ], 
                [
                    11160, 
                    [
                        {
                            "pitch": 47, 
                            "t0": 11160, 
                            "v": 40, 
                            "dur": 36, 
                            "type": "note", 
                            "channel": 7
                        }
                    ]
                ], 
                [
                    11200, 
                    [
                        {
                            "pitch": 47, 
                            "t0": 11200, 
                            "v": 40, 
                            "dur": 36, 
                            "type": "note", 
                            "channel": 7
                        }
                    ]
                ], 
                [
                    11240, 
                    [
                        {
                            "pitch": 47, 
                            "t0": 11240, 
                            "v": 40, 
                            "dur": 36, 
                            "type": "note", 
                            "channel": 7
                        }
                    ]
                ], 
                [
                    11280, 
                    [
                        {
                            "pitch": 47, 
                            "t0": 11280, 
                            "v": 40, 
                            "dur": 36, 
                            "type": "note", 
                            "channel": 7
                        }, 
                        {
                            "pitch": 56, 
                            "t0": 11280, 
                            "v": 120, 
                            "dur": 216, 
                            "type": "note", 
                            "channel": 1
                        }
                    ]
                ], 
                [
                    11320, 
                    [
                        {
                            "pitch": 47, 
                            "t0": 11320, 
                            "v": 40, 
                            "dur": 36, 
                            "type": "note", 
                            "channel": 7
                        }
                    ]
                ], 
                [
                    11360, 
                    [
                        {
                            "pitch": 47, 
                            "t0": 11360, 
                            "v": 40, 
                            "dur": 36, 
                            "type": "note", 
                            "channel": 7
                        }
                    ]
                ], 
                [
                    11400, 
                    [
                        {
                            "pitch": 47, 
                            "t0": 11400, 
                            "v": 40, 
                            "dur": 36, 
                            "type": "note", 
                            "channel": 7
                        }
                    ]
                ], 
                [
                    11440, 
                    [
                        {
                            "pitch": 47, 
                            "t0": 11440, 
                            "v": 40, 
                            "dur": 36, 
                            "type": "note", 
                            "channel": 7
                        }
                    ]
                ], 
                [
                    11480, 
                    [
                        {
                            "pitch": 47, 
                            "t0": 11480, 
                            "v": 40, 
                            "dur": 36, 
                            "type": "note", 
                            "channel": 7
                        }
                    ]
                ], 
                [
                    11520, 
                    [
                        {
                            "pitch": 47, 
                            "t0": 11520, 
                            "v": 40, 
                            "dur": 36, 
                            "type": "note", 
                            "channel": 7
                        }, 
                        {
                            "pitch": 57, 
                            "t0": 11520, 
                            "v": 120, 
                            "dur": 216, 
                            "type": "note", 
                            "channel": 1
                        }
                    ]
                ], 
                [
                    11560, 
                    [
                        {
                            "pitch": 47, 
                            "t0": 11560, 
                            "v": 40, 
                            "dur": 36, 
                            "type": "note", 
                            "channel": 7
                        }
                    ]
                ], 
                [
                    11600, 
                    [
                        {
                            "pitch": 47, 
                            "t0": 11600, 
                            "v": 40, 
                            "dur": 36, 
                            "type": "note", 
                            "channel": 7
                        }
                    ]
                ], 
                [
                    11640, 
                    [
                        {
                            "pitch": 47, 
                            "t0": 11640, 
                            "v": 40, 
                            "dur": 36, 
                            "type": "note", 
                            "channel": 7
                        }
                    ]
                ], 
                [
                    11680, 
                    [
                        {
                            "pitch": 47, 
                            "t0": 11680, 
                            "v": 40, 
                            "dur": 36, 
                            "type": "note", 
                            "channel": 7
                        }
                    ]
                ], 
                [
                    11720, 
                    [
                        {
                            "pitch": 47, 
                            "t0": 11720, 
                            "v": 40, 
                            "dur": 36, 
                            "type": "note", 
                            "channel": 7
                        }
                    ]
                ], 
                [
                    11760, 
                    [
                        {
                            "pitch": 47, 
                            "t0": 11760, 
                            "parts": [
                                [
                                    11760, 
                                    120
                                ], 
                                [
                                    11760, 
                                    40
                                ], 
                                [
                                    11796, 
                                    0
                                ]
                            ], 
                            "v": 120, 
                            "dur": 36, 
                            "type": "note", 
                            "channel": 1
                        }
                    ]
                ], 
                [
                    11800, 
                    [
                        {
                            "pitch": 47, 
                            "t0": 11800, 
                            "v": 40, 
                            "dur": 36, 
                            "type": "note", 
                            "channel": 7
                        }
                    ]
                ], 
                [
                    11840, 
                    [
                        {
                            "pitch": 47, 
                            "t0": 11840, 
                            "v": 40, 
                            "dur": 36, 
                            "type": "note", 
                            "channel": 7
                        }
                    ]
                ], 
                [
                    11880, 
                    [
                        {
                            "pitch": 47, 
                            "t0": 11880, 
                            "v": 40, 
                            "dur": 36, 
                            "type": "note", 
                            "channel": 7
                        }
                    ]
                ], 
                [
                    11920, 
                    [
                        {
                            "pitch": 47, 
                            "t0": 11920, 
                            "v": 40, 
                            "dur": 36, 
                            "type": "note", 
                            "channel": 7
                        }
                    ]
                ], 
                [
                    11960, 
                    [
                        {
                            "pitch": 47, 
                            "t0": 11960, 
                            "v": 40, 
                            "dur": 16, 
                            "type": "note", 
                            "channel": 7
                        }
                    ]
                ], 
                [
                    12000, 
                    [
                        {
                            "pitch": 47, 
                            "t0": 12000, 
                            "v": 40, 
                            "dur": 36, 
                            "type": "note", 
                            "channel": 7
                        }, 
                        {
                            "pitch": 59, 
                            "t0": 12000, 
                            "v": 120, 
                            "dur": 216, 
                            "type": "note", 
                            "channel": 1
                        }
                    ]
                ], 
                [
                    12040, 
                    [
                        {
                            "pitch": 47, 
                            "t0": 12040, 
                            "v": 40, 
                            "dur": 36, 
                            "type": "note", 
                            "channel": 7
                        }
                    ]
                ], 
                [
                    12080, 
                    [
                        {
                            "pitch": 47, 
                            "t0": 12080, 
                            "v": 40, 
                            "dur": 36, 
                            "type": "note", 
                            "channel": 7
                        }
                    ]
                ], 
                [
                    12120, 
                    [
                        {
                            "pitch": 47, 
                            "t0": 12120, 
                            "v": 40, 
                            "dur": 36, 
                            "type": "note", 
                            "channel": 7
                        }
                    ]
                ], 
                [
                    12160, 
                    [
                        {
                            "pitch": 47, 
                            "t0": 12160, 
                            "v": 40, 
                            "dur": 36, 
                            "type": "note", 
                            "channel": 7
                        }
                    ]
                ], 
                [
                    12200, 
                    [
                        {
                            "pitch": 47, 
                            "t0": 12200, 
                            "v": 40, 
                            "dur": 36, 
                            "type": "note", 
                            "channel": 7
                        }
                    ]
                ], 
                [
                    12240, 
                    [
                        {
                            "pitch": 47, 
                            "t0": 12240, 
                            "v": 40, 
                            "dur": 36, 
                            "type": "note", 
                            "channel": 7
                        }, 
                        {
                            "pitch": 63, 
                            "t0": 12240, 
                            "v": 120, 
                            "dur": 216, 
                            "type": "note", 
                            "channel": 1
                        }
                    ]
                ], 
                [
                    12280, 
                    [
                        {
                            "pitch": 47, 
                            "t0": 12280, 
                            "v": 40, 
                            "dur": 36, 
                            "type": "note", 
                            "channel": 7
                        }
                    ]
                ], 
                [
                    12320, 
                    [
                        {
                            "pitch": 47, 
                            "t0": 12320, 
                            "v": 40, 
                            "dur": 36, 
                            "type": "note", 
                            "channel": 7
                        }
                    ]
                ], 
                [
                    12360, 
                    [
                        {
                            "pitch": 47, 
                            "t0": 12360, 
                            "v": 40, 
                            "dur": 36, 
                            "type": "note", 
                            "channel": 7
                        }
                    ]
                ], 
                [
                    12400, 
                    [
                        {
                            "pitch": 47, 
                            "t0": 12400, 
                            "v": 40, 
                            "dur": 36, 
                            "type": "note", 
                            "channel": 7
                        }
                    ]
                ], 
                [
                    12440, 
                    [
                        {
                            "pitch": 47, 
                            "t0": 12440, 
                            "v": 40, 
                            "dur": 40, 
                            "type": "note", 
                            "channel": 7
                        }
                    ]
                ], 
                [
                    12480, 
                    [
                        {
                            "pitch": 47, 
                            "t0": 12480, 
                            "v": 40, 
                            "dur": 36, 
                            "type": "note", 
                            "channel": 7
                        }, 
                        {
                            "pitch": 64, 
                            "t0": 12480, 
                            "v": 120, 
                            "dur": 216, 
                            "type": "note", 
                            "channel": 1
                        }
                    ]
                ], 
                [
                    12520, 
                    [
                        {
                            "pitch": 47, 
                            "t0": 12520, 
                            "v": 40, 
                            "dur": 36, 
                            "type": "note", 
                            "channel": 7
                        }
                    ]
                ], 
                [
                    12560, 
                    [
                        {
                            "pitch": 47, 
                            "t0": 12560, 
                            "v": 40, 
                            "dur": 36, 
                            "type": "note", 
                            "channel": 7
                        }
                    ]
                ], 
                [
                    12600, 
                    [
                        {
                            "pitch": 47, 
                            "t0": 12600, 
                            "v": 40, 
                            "dur": 36, 
                            "type": "note", 
                            "channel": 7
                        }
                    ]
                ], 
                [
                    12640, 
                    [
                        {
                            "pitch": 47, 
                            "t0": 12640, 
                            "v": 40, 
                            "dur": 36, 
                            "type": "note", 
                            "channel": 7
                        }
                    ]
                ], 
                [
                    12680, 
                    [
                        {
                            "pitch": 47, 
                            "t0": 12680, 
                            "v": 40, 
                            "dur": 36, 
                            "type": "note", 
                            "channel": 7
                        }
                    ]
                ], 
                [
                    12720, 
                    [
                        {
                            "pitch": 47, 
                            "t0": 12720, 
                            "parts": [
                                [
                                    12720, 
                                    120
                                ], 
                                [
                                    12720, 
                                    40
                                ], 
                                [
                                    12756, 
                                    0
                                ]
                            ], 
                            "v": 120, 
                            "dur": 36, 
                            "type": "note", 
                            "channel": 1
                        }
                    ]
                ], 
                [
                    12760, 
                    [
                        {
                            "pitch": 47, 
                            "t0": 12760, 
                            "v": 40, 
                            "dur": 36, 
                            "type": "note", 
                            "channel": 7
                        }
                    ]
                ], 
                [
                    12800, 
                    [
                        {
                            "pitch": 47, 
                            "t0": 12800, 
                            "v": 40, 
                            "dur": 36, 
                            "type": "note", 
                            "channel": 7
                        }
                    ]
                ], 
                [
                    12840, 
                    [
                        {
                            "pitch": 47, 
                            "t0": 12840, 
                            "v": 40, 
                            "dur": 36, 
                            "type": "note", 
                            "channel": 7
                        }
                    ]
                ], 
                [
                    12880, 
                    [
                        {
                            "pitch": 47, 
                            "t0": 12880, 
                            "v": 40, 
                            "dur": 36, 
                            "type": "note", 
                            "channel": 7
                        }
                    ]
                ], 
                [
                    12920, 
                    [
                        {
                            "pitch": 47, 
                            "t0": 12920, 
                            "v": 40, 
                            "dur": 16, 
                            "type": "note", 
                            "channel": 7
                        }
                    ]
                ], 
                [
                    12960, 
                    [
                        {
                            "pitch": 47, 
                            "t0": 12960, 
                            "v": 40, 
                            "dur": 36, 
                            "type": "note", 
                            "channel": 7
                        }, 
                        {
                            "pitch": 64, 
                            "t0": 12960, 
                            "v": 120, 
                            "dur": 216, 
                            "type": "note", 
                            "channel": 1
                        }
                    ]
                ], 
                [
                    13000, 
                    [
                        {
                            "pitch": 47, 
                            "t0": 13000, 
                            "v": 40, 
                            "dur": 36, 
                            "type": "note", 
                            "channel": 7
                        }
                    ]
                ], 
                [
                    13040, 
                    [
                        {
                            "pitch": 47, 
                            "t0": 13040, 
                            "v": 40, 
                            "dur": 36, 
                            "type": "note", 
                            "channel": 7
                        }
                    ]
                ], 
                [
                    13080, 
                    [
                        {
                            "pitch": 47, 
                            "t0": 13080, 
                            "v": 40, 
                            "dur": 36, 
                            "type": "note", 
                            "channel": 7
                        }
                    ]
                ], 
                [
                    13120, 
                    [
                        {
                            "pitch": 47, 
                            "t0": 13120, 
                            "v": 40, 
                            "dur": 36, 
                            "type": "note", 
                            "channel": 7
                        }
                    ]
                ], 
                [
                    13160, 
                    [
                        {
                            "pitch": 47, 
                            "t0": 13160, 
                            "v": 40, 
                            "dur": 36, 
                            "type": "note", 
                            "channel": 7
                        }
                    ]
                ], 
                [
                    13200, 
                    [
                        {
                            "pitch": 47, 
                            "t0": 13200, 
                            "v": 40, 
                            "dur": 36, 
                            "type": "note", 
                            "channel": 7
                        }, 
                        {
                            "pitch": 63, 
                            "t0": 13200, 
                            "v": 120, 
                            "dur": 216, 
                            "type": "note", 
                            "channel": 1
                        }
                    ]
                ], 
                [
                    13240, 
                    [
                        {
                            "pitch": 47, 
                            "t0": 13240, 
                            "v": 40, 
                            "dur": 36, 
                            "type": "note", 
                            "channel": 7
                        }
                    ]
                ], 
                [
                    13280, 
                    [
                        {
                            "pitch": 47, 
                            "t0": 13280, 
                            "v": 40, 
                            "dur": 36, 
                            "type": "note", 
                            "channel": 7
                        }
                    ]
                ], 
                [
                    13320, 
                    [
                        {
                            "pitch": 47, 
                            "t0": 13320, 
                            "v": 40, 
                            "dur": 36, 
                            "type": "note", 
                            "channel": 7
                        }
                    ]
                ], 
                [
                    13360, 
                    [
                        {
                            "pitch": 47, 
                            "t0": 13360, 
                            "v": 40, 
                            "dur": 36, 
                            "type": "note", 
                            "channel": 7
                        }
                    ]
                ], 
                [
                    13400, 
                    [
                        {
                            "pitch": 47, 
                            "t0": 13400, 
                            "v": 40, 
                            "dur": 36, 
                            "type": "note", 
                            "channel": 7
                        }
                    ]
                ], 
                [
                    13440, 
                    [
                        {
                            "pitch": 47, 
                            "t0": 13440, 
                            "v": 40, 
                            "dur": 36, 
                            "type": "note", 
                            "channel": 7
                        }, 
                        {
                            "pitch": 59, 
                            "t0": 13440, 
                            "v": 120, 
                            "dur": 216, 
                            "type": "note", 
                            "channel": 1
                        }
                    ]
                ], 
                [
                    13480, 
                    [
                        {
                            "pitch": 47, 
                            "t0": 13480, 
                            "v": 40, 
                            "dur": 36, 
                            "type": "note", 
                            "channel": 7
                        }
                    ]
                ], 
                [
                    13520, 
                    [
                        {
                            "pitch": 47, 
                            "t0": 13520, 
                            "v": 40, 
                            "dur": 36, 
                            "type": "note", 
                            "channel": 7
                        }
                    ]
                ], 
                [
                    13560, 
                    [
                        {
                            "pitch": 47, 
                            "t0": 13560, 
                            "v": 40, 
                            "dur": 36, 
                            "type": "note", 
                            "channel": 7
                        }
                    ]
                ], 
                [
                    13600, 
                    [
                        {
                            "pitch": 47, 
                            "t0": 13600, 
                            "v": 40, 
                            "dur": 36, 
                            "type": "note", 
                            "channel": 7
                        }
                    ]
                ], 
                [
                    13640, 
                    [
                        {
                            "pitch": 47, 
                            "t0": 13640, 
                            "v": 40, 
                            "dur": 36, 
                            "type": "note", 
                            "channel": 7
                        }
                    ]
                ], 
                [
                    13680, 
                    [
                        {
                            "pitch": 47, 
                            "t0": 13680, 
                            "parts": [
                                [
                                    13680, 
                                    120
                                ], 
                                [
                                    13680, 
                                    40
                                ], 
                                [
                                    13716, 
                                    0
                                ]
                            ], 
                            "v": 120, 
                            "dur": 36, 
                            "type": "note", 
                            "channel": 1
                        }
                    ]
                ], 
                [
                    13720, 
                    [
                        {
                            "pitch": 47, 
                            "t0": 13720, 
                            "v": 40, 
                            "dur": 36, 
                            "type": "note", 
                            "channel": 7
                        }
                    ]
                ], 
                [
                    13760, 
                    [
                        {
                            "pitch": 47, 
                            "t0": 13760, 
                            "v": 40, 
                            "dur": 36, 
                            "type": "note", 
                            "channel": 7
                        }
                    ]
                ], 
                [
                    13800, 
                    [
                        {
                            "pitch": 47, 
                            "t0": 13800, 
                            "v": 40, 
                            "dur": 36, 
                            "type": "note", 
                            "channel": 7
                        }
                    ]
                ], 
                [
                    13840, 
                    [
                        {
                            "pitch": 47, 
                            "t0": 13840, 
                            "v": 40, 
                            "dur": 36, 
                            "type": "note", 
                            "channel": 7
                        }
                    ]
                ], 
                [
                    13880, 
                    [
                        {
                            "pitch": 47, 
                            "t0": 13880, 
                            "v": 40, 
                            "dur": 16, 
                            "type": "note", 
                            "channel": 7
                        }
                    ]
                ], 
                [
                    13920, 
                    [
                        {
                            "pitch": 47, 
                            "t0": 13920, 
                            "v": 40, 
                            "dur": 36, 
                            "type": "note", 
                            "channel": 7
                        }, 
                        {
                            "pitch": 63, 
                            "t0": 13920, 
                            "v": 120, 
                            "dur": 216, 
                            "type": "note", 
                            "channel": 1
                        }
                    ]
                ], 
                [
                    13960, 
                    [
                        {
                            "pitch": 47, 
                            "t0": 13960, 
                            "v": 40, 
                            "dur": 36, 
                            "type": "note", 
                            "channel": 7
                        }
                    ]
                ], 
                [
                    14000, 
                    [
                        {
                            "pitch": 47, 
                            "t0": 14000, 
                            "v": 40, 
                            "dur": 36, 
                            "type": "note", 
                            "channel": 7
                        }
                    ]
                ], 
                [
                    14040, 
                    [
                        {
                            "pitch": 47, 
                            "t0": 14040, 
                            "v": 40, 
                            "dur": 36, 
                            "type": "note", 
                            "channel": 7
                        }
                    ]
                ], 
                [
                    14080, 
                    [
                        {
                            "pitch": 47, 
                            "t0": 14080, 
                            "v": 40, 
                            "dur": 36, 
                            "type": "note", 
                            "channel": 7
                        }
                    ]
                ], 
                [
                    14120, 
                    [
                        {
                            "pitch": 47, 
                            "t0": 14120, 
                            "v": 40, 
                            "dur": 36, 
                            "type": "note", 
                            "channel": 7
                        }
                    ]
                ], 
                [
                    14160, 
                    [
                        {
                            "pitch": 47, 
                            "t0": 14160, 
                            "v": 40, 
                            "dur": 36, 
                            "type": "note", 
                            "channel": 7
                        }, 
                        {
                            "pitch": 56, 
                            "t0": 14160, 
                            "v": 120, 
                            "dur": 216, 
                            "type": "note", 
                            "channel": 1
                        }
                    ]
                ], 
                [
                    14200, 
                    [
                        {
                            "pitch": 47, 
                            "t0": 14200, 
                            "v": 40, 
                            "dur": 36, 
                            "type": "note", 
                            "channel": 7
                        }
                    ]
                ], 
                [
                    14240, 
                    [
                        {
                            "pitch": 47, 
                            "t0": 14240, 
                            "v": 40, 
                            "dur": 36, 
                            "type": "note", 
                            "channel": 7
                        }
                    ]
                ], 
                [
                    14280, 
                    [
                        {
                            "pitch": 47, 
                            "t0": 14280, 
                            "v": 40, 
                            "dur": 36, 
                            "type": "note", 
                            "channel": 7
                        }
                    ]
                ], 
                [
                    14320, 
                    [
                        {
                            "pitch": 47, 
                            "t0": 14320, 
                            "v": 40, 
                            "dur": 36, 
                            "type": "note", 
                            "channel": 7
                        }
                    ]
                ], 
                [
                    14360, 
                    [
                        {
                            "pitch": 47, 
                            "t0": 14360, 
                            "v": 40, 
                            "dur": 76, 
                            "type": "note", 
                            "channel": 7
                        }
                    ]
                ], 
                [
                    14400, 
                    [
                        {
                            "pitch": 57, 
                            "t0": 14400, 
                            "v": 120, 
                            "dur": 216, 
                            "type": "note", 
                            "channel": 1
                        }, 
                        {
                            "pitch": 83, 
                            "t0": 14400, 
                            "v": 104, 
                            "dur": 4704, 
                            "type": "note", 
                            "channel": 2
                        }, 
                        {
                            "pitch": 75, 
                            "t0": 14400, 
                            "v": 104, 
                            "dur": 4704, 
                            "type": "note", 
                            "channel": 2
                        }
                    ]
                ], 
                [
                    14440, 
                    [
                        {
                            "pitch": 47, 
                            "t0": 14440, 
                            "v": 40, 
                            "dur": 36, 
                            "type": "note", 
                            "channel": 7
                        }
                    ]
                ], 
                [
                    14480, 
                    [
                        {
                            "pitch": 47, 
                            "t0": 14480, 
                            "v": 40, 
                            "dur": 36, 
                            "type": "note", 
                            "channel": 7
                        }
                    ]
                ], 
                [
                    14520, 
                    [
                        {
                            "pitch": 47, 
                            "t0": 14520, 
                            "v": 40, 
                            "dur": 36, 
                            "type": "note", 
                            "channel": 7
                        }
                    ]
                ], 
                [
                    14560, 
                    [
                        {
                            "pitch": 47, 
                            "t0": 14560, 
                            "v": 40, 
                            "dur": 36, 
                            "type": "note", 
                            "channel": 7
                        }
                    ]
                ], 
                [
                    14600, 
                    [
                        {
                            "pitch": 47, 
                            "t0": 14600, 
                            "v": 40, 
                            "dur": 36, 
                            "type": "note", 
                            "channel": 7
                        }
                    ]
                ], 
                [
                    14640, 
                    [
                        {
                            "pitch": 47, 
                            "t0": 14640, 
                            "parts": [
                                [
                                    14640, 
                                    120
                                ], 
                                [
                                    14640, 
                                    40
                                ], 
                                [
                                    14676, 
                                    0
                                ]
                            ], 
                            "v": 120, 
                            "dur": 36, 
                            "type": "note", 
                            "channel": 1
                        }
                    ]
                ], 
                [
                    14680, 
                    [
                        {
                            "pitch": 47, 
                            "t0": 14680, 
                            "v": 40, 
                            "dur": 36, 
                            "type": "note", 
                            "channel": 7
                        }
                    ]
                ], 
                [
                    14720, 
                    [
                        {
                            "pitch": 47, 
                            "t0": 14720, 
                            "v": 40, 
                            "dur": 36, 
                            "type": "note", 
                            "channel": 7
                        }
                    ]
                ], 
                [
                    14760, 
                    [
                        {
                            "pitch": 47, 
                            "t0": 14760, 
                            "v": 40, 
                            "dur": 36, 
                            "type": "note", 
                            "channel": 7
                        }
                    ]
                ], 
                [
                    14800, 
                    [
                        {
                            "pitch": 47, 
                            "t0": 14800, 
                            "v": 40, 
                            "dur": 36, 
                            "type": "note", 
                            "channel": 7
                        }
                    ]
                ], 
                [
                    14840, 
                    [
                        {
                            "pitch": 47, 
                            "t0": 14840, 
                            "v": 40, 
                            "dur": 16, 
                            "type": "note", 
                            "channel": 7
                        }
                    ]
                ], 
                [
                    14880, 
                    [
                        {
                            "pitch": 47, 
                            "t0": 14880, 
                            "v": 40, 
                            "dur": 36, 
                            "type": "note", 
                            "channel": 7
                        }, 
                        {
                            "pitch": 59, 
                            "t0": 14880, 
                            "v": 120, 
                            "dur": 216, 
                            "type": "note", 
                            "channel": 1
                        }
                    ]
                ], 
                [
                    14920, 
                    [
                        {
                            "pitch": 47, 
                            "t0": 14920, 
                            "v": 40, 
                            "dur": 36, 
                            "type": "note", 
                            "channel": 7
                        }
                    ]
                ], 
                [
                    14960, 
                    [
                        {
                            "pitch": 47, 
                            "t0": 14960, 
                            "v": 40, 
                            "dur": 36, 
                            "type": "note", 
                            "channel": 7
                        }
                    ]
                ], 
                [
                    15000, 
                    [
                        {
                            "pitch": 47, 
                            "t0": 15000, 
                            "v": 40, 
                            "dur": 36, 
                            "type": "note", 
                            "channel": 7
                        }
                    ]
                ], 
                [
                    15040, 
                    [
                        {
                            "pitch": 47, 
                            "t0": 15040, 
                            "v": 40, 
                            "dur": 36, 
                            "type": "note", 
                            "channel": 7
                        }
                    ]
                ], 
                [
                    15080, 
                    [
                        {
                            "pitch": 47, 
                            "t0": 15080, 
                            "v": 40, 
                            "dur": 36, 
                            "type": "note", 
                            "channel": 7
                        }
                    ]
                ], 
                [
                    15120, 
                    [
                        {
                            "pitch": 47, 
                            "t0": 15120, 
                            "parts": [
                                [
                                    15120, 
                                    120
                                ], 
                                [
                                    15120, 
                                    40
                                ], 
                                [
                                    15156, 
                                    0
                                ]
                            ], 
                            "v": 120, 
                            "dur": 36, 
                            "type": "note", 
                            "channel": 1
                        }
                    ]
                ], 
                [
                    15160, 
                    [
                        {
                            "pitch": 47, 
                            "t0": 15160, 
                            "v": 40, 
                            "dur": 36, 
                            "type": "note", 
                            "channel": 7
                        }
                    ]
                ], 
                [
                    15200, 
                    [
                        {
                            "pitch": 47, 
                            "t0": 15200, 
                            "v": 40, 
                            "dur": 36, 
                            "type": "note", 
                            "channel": 7
                        }
                    ]
                ], 
                [
                    15240, 
                    [
                        {
                            "pitch": 47, 
                            "t0": 15240, 
                            "v": 40, 
                            "dur": 36, 
                            "type": "note", 
                            "channel": 7
                        }
                    ]
                ], 
                [
                    15280, 
                    [
                        {
                            "pitch": 47, 
                            "t0": 15280, 
                            "v": 40, 
                            "dur": 36, 
                            "type": "note", 
                            "channel": 7
                        }
                    ]
                ], 
                [
                    15320, 
                    [
                        {
                            "pitch": 47, 
                            "t0": 15320, 
                            "v": 40, 
                            "dur": 16, 
                            "type": "note", 
                            "channel": 7
                        }
                    ]
                ], 
                [
                    15360, 
                    [
                        {
                            "pitch": 47, 
                            "t0": 15360, 
                            "v": 40, 
                            "dur": 36, 
                            "type": "note", 
                            "channel": 7
                        }, 
                        {
                            "pitch": 56, 
                            "t0": 15360, 
                            "v": 120, 
                            "dur": 216, 
                            "type": "note", 
                            "channel": 1
                        }, 
                        {
                            "pitch": 68, 
                            "t0": 15360, 
                            "v": 88, 
                            "dur": 1824, 
                            "type": "note", 
                            "channel": 8
                        }
                    ]
                ], 
                [
                    15400, 
                    [
                        {
                            "pitch": 47, 
                            "t0": 15400, 
                            "v": 40, 
                            "dur": 36, 
                            "type": "note", 
                            "channel": 7
                        }
                    ]
                ], 
                [
                    15440, 
                    [
                        {
                            "pitch": 47, 
                            "t0": 15440, 
                            "v": 40, 
                            "dur": 36, 
                            "type": "note", 
                            "channel": 7
                        }
                    ]
                ], 
                [
                    15480, 
                    [
                        {
                            "pitch": 47, 
                            "t0": 15480, 
                            "v": 40, 
                            "dur": 36, 
                            "type": "note", 
                            "channel": 7
                        }
                    ]
                ], 
                [
                    15520, 
                    [
                        {
                            "pitch": 47, 
                            "t0": 15520, 
                            "v": 40, 
                            "dur": 36, 
                            "type": "note", 
                            "channel": 7
                        }
                    ]
                ], 
                [
                    15560, 
                    [
                        {
                            "pitch": 47, 
                            "t0": 15560, 
                            "v": 40, 
                            "dur": 36, 
                            "type": "note", 
                            "channel": 7
                        }
                    ]
                ], 
                [
                    15600, 
                    [
                        {
                            "pitch": 47, 
                            "t0": 15600, 
                            "parts": [
                                [
                                    15600, 
                                    120
                                ], 
                                [
                                    15600, 
                                    40
                                ], 
                                [
                                    15636, 
                                    0
                                ]
                            ], 
                            "v": 120, 
                            "dur": 36, 
                            "type": "note", 
                            "channel": 1
                        }
                    ]
                ], 
                [
                    15640, 
                    [
                        {
                            "pitch": 47, 
                            "t0": 15640, 
                            "v": 40, 
                            "dur": 36, 
                            "type": "note", 
                            "channel": 7
                        }
                    ]
                ], 
                [
                    15680, 
                    [
                        {
                            "pitch": 47, 
                            "t0": 15680, 
                            "v": 40, 
                            "dur": 36, 
                            "type": "note", 
                            "channel": 7
                        }
                    ]
                ], 
                [
                    15720, 
                    [
                        {
                            "pitch": 47, 
                            "t0": 15720, 
                            "v": 40, 
                            "dur": 36, 
                            "type": "note", 
                            "channel": 7
                        }
                    ]
                ], 
                [
                    15760, 
                    [
                        {
                            "pitch": 47, 
                            "t0": 15760, 
                            "v": 40, 
                            "dur": 36, 
                            "type": "note", 
                            "channel": 7
                        }
                    ]
                ], 
                [
                    15800, 
                    [
                        {
                            "pitch": 47, 
                            "t0": 15800, 
                            "v": 40, 
                            "dur": 16, 
                            "type": "note", 
                            "channel": 7
                        }
                    ]
                ], 
                [
                    15840, 
                    [
                        {
                            "pitch": 47, 
                            "t0": 15840, 
                            "v": 40, 
                            "dur": 36, 
                            "type": "note", 
                            "channel": 7
                        }, 
                        {
                            "pitch": 56, 
                            "t0": 15840, 
                            "v": 120, 
                            "dur": 216, 
                            "type": "note", 
                            "channel": 1
                        }
                    ]
                ], 
                [
                    15880, 
                    [
                        {
                            "pitch": 47, 
                            "t0": 15880, 
                            "v": 40, 
                            "dur": 36, 
                            "type": "note", 
                            "channel": 7
                        }
                    ]
                ], 
                [
                    15920, 
                    [
                        {
                            "pitch": 47, 
                            "t0": 15920, 
                            "v": 40, 
                            "dur": 36, 
                            "type": "note", 
                            "channel": 7
                        }
                    ]
                ], 
                [
                    15960, 
                    [
                        {
                            "pitch": 47, 
                            "t0": 15960, 
                            "v": 40, 
                            "dur": 36, 
                            "type": "note", 
                            "channel": 7
                        }
                    ]
                ], 
                [
                    16000, 
                    [
                        {
                            "pitch": 47, 
                            "t0": 16000, 
                            "v": 40, 
                            "dur": 36, 
                            "type": "note", 
                            "channel": 7
                        }
                    ]
                ], 
                [
                    16040, 
                    [
                        {
                            "pitch": 47, 
                            "t0": 16040, 
                            "v": 40, 
                            "dur": 36, 
                            "type": "note", 
                            "channel": 7
                        }
                    ]
                ], 
                [
                    16080, 
                    [
                        {
                            "pitch": 47, 
                            "t0": 16080, 
                            "v": 40, 
                            "dur": 36, 
                            "type": "note", 
                            "channel": 7
                        }, 
                        {
                            "pitch": 59, 
                            "t0": 16080, 
                            "v": 120, 
                            "dur": 216, 
                            "type": "note", 
                            "channel": 1
                        }
                    ]
                ], 
                [
                    16120, 
                    [
                        {
                            "pitch": 47, 
                            "t0": 16120, 
                            "v": 40, 
                            "dur": 36, 
                            "type": "note", 
                            "channel": 7
                        }
                    ]
                ], 
                [
                    16160, 
                    [
                        {
                            "pitch": 47, 
                            "t0": 16160, 
                            "v": 40, 
                            "dur": 36, 
                            "type": "note", 
                            "channel": 7
                        }
                    ]
                ], 
                [
                    16200, 
                    [
                        {
                            "pitch": 47, 
                            "t0": 16200, 
                            "v": 40, 
                            "dur": 36, 
                            "type": "note", 
                            "channel": 7
                        }
                    ]
                ], 
                [
                    16240, 
                    [
                        {
                            "pitch": 47, 
                            "t0": 16240, 
                            "v": 40, 
                            "dur": 36, 
                            "type": "note", 
                            "channel": 7
                        }
                    ]
                ], 
                [
                    16280, 
                    [
                        {
                            "pitch": 47, 
                            "t0": 16280, 
                            "v": 40, 
                            "dur": 76, 
                            "type": "note", 
                            "channel": 7
                        }
                    ]
                ], 
                [
                    16320, 
                    [
                        {
                            "pitch": 57, 
                            "t0": 16320, 
                            "v": 120, 
                            "dur": 216, 
                            "type": "note", 
                            "channel": 1
                        }
                    ]
                ], 
                [
                    16360, 
                    [
                        {
                            "pitch": 47, 
                            "t0": 16360, 
                            "v": 40, 
                            "dur": 36, 
                            "type": "note", 
                            "channel": 7
                        }
                    ]
                ], 
                [
                    16400, 
                    [
                        {
                            "pitch": 47, 
                            "t0": 16400, 
                            "v": 40, 
                            "dur": 36, 
                            "type": "note", 
                            "channel": 7
                        }
                    ]
                ], 
                [
                    16440, 
                    [
                        {
                            "pitch": 47, 
                            "t0": 16440, 
                            "v": 40, 
                            "dur": 36, 
                            "type": "note", 
                            "channel": 7
                        }
                    ]
                ], 
                [
                    16480, 
                    [
                        {
                            "pitch": 47, 
                            "t0": 16480, 
                            "v": 40, 
                            "dur": 36, 
                            "type": "note", 
                            "channel": 7
                        }
                    ]
                ], 
                [
                    16520, 
                    [
                        {
                            "pitch": 47, 
                            "t0": 16520, 
                            "v": 40, 
                            "dur": 36, 
                            "type": "note", 
                            "channel": 7
                        }
                    ]
                ], 
                [
                    16560, 
                    [
                        {
                            "pitch": 47, 
                            "t0": 16560, 
                            "v": 40, 
                            "dur": 36, 
                            "type": "note", 
                            "channel": 7
                        }, 
                        {
                            "pitch": 56, 
                            "t0": 16560, 
                            "v": 120, 
                            "dur": 216, 
                            "type": "note", 
                            "channel": 1
                        }
                    ]
                ], 
                [
                    16600, 
                    [
                        {
                            "pitch": 47, 
                            "t0": 16600, 
                            "v": 40, 
                            "dur": 36, 
                            "type": "note", 
                            "channel": 7
                        }
                    ]
                ], 
                [
                    16640, 
                    [
                        {
                            "pitch": 47, 
                            "t0": 16640, 
                            "v": 40, 
                            "dur": 36, 
                            "type": "note", 
                            "channel": 7
                        }
                    ]
                ], 
                [
                    16680, 
                    [
                        {
                            "pitch": 47, 
                            "t0": 16680, 
                            "v": 40, 
                            "dur": 36, 
                            "type": "note", 
                            "channel": 7
                        }
                    ]
                ], 
                [
                    16720, 
                    [
                        {
                            "pitch": 47, 
                            "t0": 16720, 
                            "v": 40, 
                            "dur": 36, 
                            "type": "note", 
                            "channel": 7
                        }
                    ]
                ], 
                [
                    16760, 
                    [
                        {
                            "pitch": 47, 
                            "t0": 16760, 
                            "v": 40, 
                            "dur": 36, 
                            "type": "note", 
                            "channel": 7
                        }
                    ]
                ], 
                [
                    16800, 
                    [
                        {
                            "pitch": 47, 
                            "t0": 16800, 
                            "v": 40, 
                            "dur": 36, 
                            "type": "note", 
                            "channel": 7
                        }, 
                        {
                            "pitch": 54, 
                            "t0": 16800, 
                            "v": 120, 
                            "dur": 216, 
                            "type": "note", 
                            "channel": 1
                        }
                    ]
                ], 
                [
                    16840, 
                    [
                        {
                            "pitch": 47, 
                            "t0": 16840, 
                            "v": 40, 
                            "dur": 36, 
                            "type": "note", 
                            "channel": 7
                        }
                    ]
                ], 
                [
                    16880, 
                    [
                        {
                            "pitch": 47, 
                            "t0": 16880, 
                            "v": 40, 
                            "dur": 36, 
                            "type": "note", 
                            "channel": 7
                        }
                    ]
                ], 
                [
                    16920, 
                    [
                        {
                            "pitch": 47, 
                            "t0": 16920, 
                            "v": 40, 
                            "dur": 36, 
                            "type": "note", 
                            "channel": 7
                        }
                    ]
                ], 
                [
                    16960, 
                    [
                        {
                            "pitch": 47, 
                            "t0": 16960, 
                            "v": 40, 
                            "dur": 36, 
                            "type": "note", 
                            "channel": 7
                        }
                    ]
                ], 
                [
                    17000, 
                    [
                        {
                            "pitch": 47, 
                            "t0": 17000, 
                            "v": 40, 
                            "dur": 36, 
                            "type": "note", 
                            "channel": 7
                        }
                    ]
                ], 
                [
                    17040, 
                    [
                        {
                            "pitch": 47, 
                            "t0": 17040, 
                            "v": 40, 
                            "dur": 36, 
                            "type": "note", 
                            "channel": 7
                        }, 
                        {
                            "pitch": 51, 
                            "t0": 17040, 
                            "v": 120, 
                            "dur": 216, 
                            "type": "note", 
                            "channel": 1
                        }
                    ]
                ], 
                [
                    17080, 
                    [
                        {
                            "pitch": 47, 
                            "t0": 17080, 
                            "v": 40, 
                            "dur": 36, 
                            "type": "note", 
                            "channel": 7
                        }
                    ]
                ], 
                [
                    17120, 
                    [
                        {
                            "pitch": 47, 
                            "t0": 17120, 
                            "v": 40, 
                            "dur": 36, 
                            "type": "note", 
                            "channel": 7
                        }
                    ]
                ], 
                [
                    17160, 
                    [
                        {
                            "pitch": 47, 
                            "t0": 17160, 
                            "v": 40, 
                            "dur": 36, 
                            "type": "note", 
                            "channel": 7
                        }
                    ]
                ], 
                [
                    17200, 
                    [
                        {
                            "pitch": 47, 
                            "t0": 17200, 
                            "v": 40, 
                            "dur": 36, 
                            "type": "note", 
                            "channel": 7
                        }
                    ]
                ], 
                [
                    17240, 
                    [
                        {
                            "pitch": 47, 
                            "t0": 17240, 
                            "v": 40, 
                            "dur": 76, 
                            "type": "note", 
                            "channel": 7
                        }
                    ]
                ], 
                [
                    17280, 
                    [
                        {
                            "pitch": 54, 
                            "t0": 17280, 
                            "v": 120, 
                            "dur": 216, 
                            "type": "note", 
                            "channel": 1
                        }
                    ]
                ], 
                [
                    17320, 
                    [
                        {
                            "pitch": 47, 
                            "t0": 17320, 
                            "v": 40, 
                            "dur": 36, 
                            "type": "note", 
                            "channel": 7
                        }
                    ]
                ], 
                [
                    17360, 
                    [
                        {
                            "pitch": 47, 
                            "t0": 17360, 
                            "v": 40, 
                            "dur": 36, 
                            "type": "note", 
                            "channel": 7
                        }
                    ]
                ], 
                [
                    17400, 
                    [
                        {
                            "pitch": 47, 
                            "t0": 17400, 
                            "v": 40, 
                            "dur": 36, 
                            "type": "note", 
                            "channel": 7
                        }
                    ]
                ], 
                [
                    17440, 
                    [
                        {
                            "pitch": 47, 
                            "t0": 17440, 
                            "v": 40, 
                            "dur": 36, 
                            "type": "note", 
                            "channel": 7
                        }
                    ]
                ], 
                [
                    17480, 
                    [
                        {
                            "pitch": 47, 
                            "t0": 17480, 
                            "v": 40, 
                            "dur": 36, 
                            "type": "note", 
                            "channel": 7
                        }
                    ]
                ], 
                [
                    17520, 
                    [
                        {
                            "pitch": 47, 
                            "t0": 17520, 
                            "v": 40, 
                            "dur": 36, 
                            "type": "note", 
                            "channel": 7
                        }, 
                        {
                            "pitch": 58, 
                            "t0": 17520, 
                            "v": 120, 
                            "dur": 216, 
                            "type": "note", 
                            "channel": 1
                        }
                    ]
                ], 
                [
                    17560, 
                    [
                        {
                            "pitch": 47, 
                            "t0": 17560, 
                            "v": 40, 
                            "dur": 36, 
                            "type": "note", 
                            "channel": 7
                        }
                    ]
                ], 
                [
                    17600, 
                    [
                        {
                            "pitch": 47, 
                            "t0": 17600, 
                            "v": 40, 
                            "dur": 36, 
                            "type": "note", 
                            "channel": 7
                        }
                    ]
                ], 
                [
                    17640, 
                    [
                        {
                            "pitch": 47, 
                            "t0": 17640, 
                            "v": 40, 
                            "dur": 36, 
                            "type": "note", 
                            "channel": 7
                        }
                    ]
                ], 
                [
                    17680, 
                    [
                        {
                            "pitch": 47, 
                            "t0": 17680, 
                            "v": 40, 
                            "dur": 36, 
                            "type": "note", 
                            "channel": 7
                        }
                    ]
                ], 
                [
                    17720, 
                    [
                        {
                            "pitch": 47, 
                            "t0": 17720, 
                            "v": 40, 
                            "dur": 36, 
                            "type": "note", 
                            "channel": 7
                        }
                    ]
                ], 
                [
                    17760, 
                    [
                        {
                            "pitch": 47, 
                            "t0": 17760, 
                            "v": 40, 
                            "dur": 36, 
                            "type": "note", 
                            "channel": 7
                        }, 
                        {
                            "pitch": 51, 
                            "t0": 17760, 
                            "v": 120, 
                            "dur": 216, 
                            "type": "note", 
                            "channel": 1
                        }
                    ]
                ], 
                [
                    17800, 
                    [
                        {
                            "pitch": 47, 
                            "t0": 17800, 
                            "v": 40, 
                            "dur": 36, 
                            "type": "note", 
                            "channel": 7
                        }
                    ]
                ], 
                [
                    17840, 
                    [
                        {
                            "pitch": 47, 
                            "t0": 17840, 
                            "v": 40, 
                            "dur": 36, 
                            "type": "note", 
                            "channel": 7
                        }
                    ]
                ], 
                [
                    17880, 
                    [
                        {
                            "pitch": 47, 
                            "t0": 17880, 
                            "v": 40, 
                            "dur": 36, 
                            "type": "note", 
                            "channel": 7
                        }
                    ]
                ], 
                [
                    17920, 
                    [
                        {
                            "pitch": 47, 
                            "t0": 17920, 
                            "v": 40, 
                            "dur": 36, 
                            "type": "note", 
                            "channel": 7
                        }
                    ]
                ], 
                [
                    17960, 
                    [
                        {
                            "pitch": 47, 
                            "t0": 17960, 
                            "v": 40, 
                            "dur": 36, 
                            "type": "note", 
                            "channel": 7
                        }
                    ]
                ], 
                [
                    18000, 
                    [
                        {
                            "pitch": 47, 
                            "t0": 18000, 
                            "v": 40, 
                            "dur": 36, 
                            "type": "note", 
                            "channel": 7
                        }, 
                        {
                            "pitch": 54, 
                            "t0": 18000, 
                            "v": 120, 
                            "dur": 216, 
                            "type": "note", 
                            "channel": 1
                        }
                    ]
                ], 
                [
                    18040, 
                    [
                        {
                            "pitch": 47, 
                            "t0": 18040, 
                            "v": 40, 
                            "dur": 36, 
                            "type": "note", 
                            "channel": 7
                        }
                    ]
                ], 
                [
                    18080, 
                    [
                        {
                            "pitch": 47, 
                            "t0": 18080, 
                            "v": 40, 
                            "dur": 36, 
                            "type": "note", 
                            "channel": 7
                        }
                    ]
                ], 
                [
                    18120, 
                    [
                        {
                            "pitch": 47, 
                            "t0": 18120, 
                            "v": 40, 
                            "dur": 36, 
                            "type": "note", 
                            "channel": 7
                        }
                    ]
                ], 
                [
                    18160, 
                    [
                        {
                            "pitch": 47, 
                            "t0": 18160, 
                            "v": 40, 
                            "dur": 36, 
                            "type": "note", 
                            "channel": 7
                        }
                    ]
                ], 
                [
                    18200, 
                    [
                        {
                            "pitch": 47, 
                            "t0": 18200, 
                            "v": 40, 
                            "dur": 36, 
                            "type": "note", 
                            "channel": 7
                        }
                    ]
                ], 
                [
                    18240, 
                    [
                        {
                            "pitch": 47, 
                            "t0": 18240, 
                            "v": 40, 
                            "dur": 36, 
                            "type": "note", 
                            "channel": 7
                        }, 
                        {
                            "pitch": 52, 
                            "t0": 18240, 
                            "v": 120, 
                            "dur": 432, 
                            "type": "note", 
                            "channel": 1
                        }
                    ]
                ], 
                [
                    18280, 
                    [
                        {
                            "pitch": 47, 
                            "t0": 18280, 
                            "v": 40, 
                            "dur": 36, 
                            "type": "note", 
                            "channel": 7
                        }
                    ]
                ], 
                [
                    18320, 
                    [
                        {
                            "pitch": 47, 
                            "t0": 18320, 
                            "v": 40, 
                            "dur": 36, 
                            "type": "note", 
                            "channel": 7
                        }
                    ]
                ], 
                [
                    18360, 
                    [
                        {
                            "pitch": 47, 
                            "t0": 18360, 
                            "v": 40, 
                            "dur": 36, 
                            "type": "note", 
                            "channel": 7
                        }
                    ]
                ], 
                [
                    18400, 
                    [
                        {
                            "pitch": 47, 
                            "t0": 18400, 
                            "v": 40, 
                            "dur": 36, 
                            "type": "note", 
                            "channel": 7
                        }
                    ]
                ], 
                [
                    18440, 
                    [
                        {
                            "pitch": 47, 
                            "t0": 18440, 
                            "v": 40, 
                            "dur": 36, 
                            "type": "note", 
                            "channel": 7
                        }
                    ]
                ], 
                [
                    18480, 
                    [
                        {
                            "pitch": 47, 
                            "t0": 18480, 
                            "v": 40, 
                            "dur": 36, 
                            "type": "note", 
                            "channel": 7
                        }
                    ]
                ], 
                [
                    18520, 
                    [
                        {
                            "pitch": 47, 
                            "t0": 18520, 
                            "v": 40, 
                            "dur": 36, 
                            "type": "note", 
                            "channel": 7
                        }
                    ]
                ], 
                [
                    18560, 
                    [
                        {
                            "pitch": 47, 
                            "t0": 18560, 
                            "v": 40, 
                            "dur": 36, 
                            "type": "note", 
                            "channel": 7
                        }
                    ]
                ], 
                [
                    18600, 
                    [
                        {
                            "pitch": 47, 
                            "t0": 18600, 
                            "v": 40, 
                            "dur": 36, 
                            "type": "note", 
                            "channel": 7
                        }
                    ]
                ], 
                [
                    18640, 
                    [
                        {
                            "pitch": 47, 
                            "t0": 18640, 
                            "v": 40, 
                            "dur": 36, 
                            "type": "note", 
                            "channel": 7
                        }
                    ]
                ], 
                [
                    18680, 
                    [
                        {
                            "pitch": 47, 
                            "t0": 18680, 
                            "v": 40, 
                            "dur": 36, 
                            "type": "note", 
                            "channel": 7
                        }
                    ]
                ], 
                [
                    18720, 
                    [
                        {
                            "pitch": 47, 
                            "t0": 18720, 
                            "parts": [
                                [
                                    18720, 
                                    120
                                ], 
                                [
                                    18720, 
                                    40
                                ], 
                                [
                                    18756, 
                                    0
                                ]
                            ], 
                            "v": 120, 
                            "dur": 36, 
                            "type": "note", 
                            "channel": 1
                        }, 
                        {
                            "pitch": 59, 
                            "t0": 18720, 
                            "parts": [
                                [
                                    18720, 
                                    120
                                ], 
                                [
                                    18720, 
                                    104
                                ], 
                                [
                                    18948, 
                                    0
                                ]
                            ], 
                            "v": 120, 
                            "dur": 228, 
                            "type": "note", 
                            "channel": 0
                        }
                    ]
                ], 
                [
                    18760, 
                    [
                        {
                            "pitch": 47, 
                            "t0": 18760, 
                            "v": 40, 
                            "dur": 36, 
                            "type": "note", 
                            "channel": 7
                        }
                    ]
                ], 
                [
                    18800, 
                    [
                        {
                            "pitch": 47, 
                            "t0": 18800, 
                            "v": 40, 
                            "dur": 36, 
                            "type": "note", 
                            "channel": 7
                        }
                    ]
                ], 
                [
                    18840, 
                    [
                        {
                            "pitch": 47, 
                            "t0": 18840, 
                            "v": 40, 
                            "dur": 36, 
                            "type": "note", 
                            "channel": 7
                        }
                    ]
                ], 
                [
                    18880, 
                    [
                        {
                            "pitch": 47, 
                            "t0": 18880, 
                            "v": 40, 
                            "dur": 36, 
                            "type": "note", 
                            "channel": 7
                        }
                    ]
                ], 
                [
                    18920, 
                    [
                        {
                            "pitch": 47, 
                            "t0": 18920, 
                            "v": 40, 
                            "dur": 16, 
                            "type": "note", 
                            "channel": 7
                        }
                    ]
                ], 
                [
                    18960, 
                    [
                        {
                            "pitch": 47, 
                            "t0": 18960, 
                            "v": 40, 
                            "dur": 36, 
                            "type": "note", 
                            "channel": 7
                        }, 
                        {
                            "pitch": 51, 
                            "t0": 18960, 
                            "v": 120, 
                            "dur": 216, 
                            "type": "note", 
                            "channel": 1
                        }, 
                        {
                            "pitch": 63, 
                            "t0": 18960, 
                            "parts": [
                                [
                                    18960, 
                                    120
                                ], 
                                [
                                    18960, 
                                    104
                                ], 
                                [
                                    19188, 
                                    0
                                ]
                            ], 
                            "v": 120, 
                            "dur": 228, 
                            "type": "note", 
                            "channel": 0
                        }
                    ]
                ], 
                [
                    19000, 
                    [
                        {
                            "pitch": 47, 
                            "t0": 19000, 
                            "v": 40, 
                            "dur": 36, 
                            "type": "note", 
                            "channel": 7
                        }
                    ]
                ], 
                [
                    19040, 
                    [
                        {
                            "pitch": 47, 
                            "t0": 19040, 
                            "v": 40, 
                            "dur": 36, 
                            "type": "note", 
                            "channel": 7
                        }
                    ]
                ], 
                [
                    19080, 
                    [
                        {
                            "pitch": 47, 
                            "t0": 19080, 
                            "v": 40, 
                            "dur": 36, 
                            "type": "note", 
                            "channel": 7
                        }
                    ]
                ], 
                [
                    19120, 
                    [
                        {
                            "pitch": 47, 
                            "t0": 19120, 
                            "v": 40, 
                            "dur": 36, 
                            "type": "note", 
                            "channel": 7
                        }
                    ]
                ], 
                [
                    19160, 
                    [
                        {
                            "pitch": 47, 
                            "t0": 19160, 
                            "v": 40, 
                            "dur": 76, 
                            "type": "note", 
                            "channel": 7
                        }
                    ]
                ], 
                [
                    19200, 
                    [
                        {
                            "pitch": 52, 
                            "t0": 19200, 
                            "v": 120, 
                            "dur": 432, 
                            "type": "note", 
                            "channel": 1
                        }, 
                        {
                            "pitch": 64, 
                            "t0": 19200, 
                            "parts": [
                                [
                                    19200, 
                                    120
                                ], 
                                [
                                    19200, 
                                    104
                                ], 
                                [
                                    19884, 
                                    0
                                ]
                            ], 
                            "v": 120, 
                            "dur": 684, 
                            "type": "note", 
                            "channel": 0
                        }
                    ]
                ], 
                [
                    19240, 
                    [
                        {
                            "pitch": 47, 
                            "t0": 19240, 
                            "v": 40, 
                            "dur": 36, 
                            "type": "note", 
                            "channel": 7
                        }
                    ]
                ], 
                [
                    19280, 
                    [
                        {
                            "pitch": 47, 
                            "t0": 19280, 
                            "v": 40, 
                            "dur": 36, 
                            "type": "note", 
                            "channel": 7
                        }
                    ]
                ], 
                [
                    19320, 
                    [
                        {
                            "pitch": 47, 
                            "t0": 19320, 
                            "v": 40, 
                            "dur": 36, 
                            "type": "note", 
                            "channel": 7
                        }
                    ]
                ], 
                [
                    19360, 
                    [
                        {
                            "pitch": 47, 
                            "t0": 19360, 
                            "v": 40, 
                            "dur": 36, 
                            "type": "note", 
                            "channel": 7
                        }
                    ]
                ], 
                [
                    19400, 
                    [
                        {
                            "pitch": 47, 
                            "t0": 19400, 
                            "v": 40, 
                            "dur": 36, 
                            "type": "note", 
                            "channel": 7
                        }
                    ]
                ], 
                [
                    19440, 
                    [
                        {
                            "pitch": 47, 
                            "t0": 19440, 
                            "v": 40, 
                            "dur": 36, 
                            "type": "note", 
                            "channel": 7
                        }
                    ]
                ], 
                [
                    19480, 
                    [
                        {
                            "pitch": 47, 
                            "t0": 19480, 
                            "v": 40, 
                            "dur": 36, 
                            "type": "note", 
                            "channel": 7
                        }
                    ]
                ], 
                [
                    19520, 
                    [
                        {
                            "pitch": 47, 
                            "t0": 19520, 
                            "v": 40, 
                            "dur": 36, 
                            "type": "note", 
                            "channel": 7
                        }
                    ]
                ], 
                [
                    19560, 
                    [
                        {
                            "pitch": 47, 
                            "t0": 19560, 
                            "v": 40, 
                            "dur": 36, 
                            "type": "note", 
                            "channel": 7
                        }
                    ]
                ], 
                [
                    19600, 
                    [
                        {
                            "pitch": 47, 
                            "t0": 19600, 
                            "v": 40, 
                            "dur": 36, 
                            "type": "note", 
                            "channel": 7
                        }
                    ]
                ], 
                [
                    19640, 
                    [
                        {
                            "pitch": 47, 
                            "t0": 19640, 
                            "v": 40, 
                            "dur": 36, 
                            "type": "note", 
                            "channel": 7
                        }
                    ]
                ], 
                [
                    19680, 
                    [
                        {
                            "pitch": 47, 
                            "t0": 19680, 
                            "parts": [
                                [
                                    19680, 
                                    120
                                ], 
                                [
                                    19680, 
                                    40
                                ], 
                                [
                                    19716, 
                                    0
                                ]
                            ], 
                            "v": 120, 
                            "dur": 36, 
                            "type": "note", 
                            "channel": 1
                        }
                    ]
                ], 
                [
                    19720, 
                    [
                        {
                            "pitch": 47, 
                            "t0": 19720, 
                            "v": 40, 
                            "dur": 36, 
                            "type": "note", 
                            "channel": 7
                        }
                    ]
                ], 
                [
                    19760, 
                    [
                        {
                            "pitch": 47, 
                            "t0": 19760, 
                            "v": 40, 
                            "dur": 36, 
                            "type": "note", 
                            "channel": 7
                        }
                    ]
                ], 
                [
                    19800, 
                    [
                        {
                            "pitch": 47, 
                            "t0": 19800, 
                            "v": 40, 
                            "dur": 36, 
                            "type": "note", 
                            "channel": 7
                        }
                    ]
                ], 
                [
                    19840, 
                    [
                        {
                            "pitch": 47, 
                            "t0": 19840, 
                            "v": 40, 
                            "dur": 36, 
                            "type": "note", 
                            "channel": 7
                        }
                    ]
                ], 
                [
                    19880, 
                    [
                        {
                            "pitch": 47, 
                            "t0": 19880, 
                            "v": 40, 
                            "dur": 16, 
                            "type": "note", 
                            "channel": 7
                        }
                    ]
                ], 
                [
                    19920, 
                    [
                        {
                            "pitch": 47, 
                            "t0": 19920, 
                            "v": 40, 
                            "dur": 36, 
                            "type": "note", 
                            "channel": 7
                        }, 
                        {
                            "pitch": 56, 
                            "t0": 19920, 
                            "v": 120, 
                            "dur": 216, 
                            "type": "note", 
                            "channel": 1
                        }, 
                        {
                            "pitch": 68, 
                            "t0": 19920, 
                            "parts": [
                                [
                                    19920, 
                                    120
                                ], 
                                [
                                    19920, 
                                    104
                                ], 
                                [
                                    20148, 
                                    0
                                ]
                            ], 
                            "v": 120, 
                            "dur": 228, 
                            "type": "note", 
                            "channel": 0
                        }
                    ]
                ], 
                [
                    19960, 
                    [
                        {
                            "pitch": 47, 
                            "t0": 19960, 
                            "v": 40, 
                            "dur": 36, 
                            "type": "note", 
                            "channel": 7
                        }
                    ]
                ], 
                [
                    20000, 
                    [
                        {
                            "pitch": 47, 
                            "t0": 20000, 
                            "v": 40, 
                            "dur": 36, 
                            "type": "note", 
                            "channel": 7
                        }
                    ]
                ], 
                [
                    20040, 
                    [
                        {
                            "pitch": 47, 
                            "t0": 20040, 
                            "v": 40, 
                            "dur": 36, 
                            "type": "note", 
                            "channel": 7
                        }
                    ]
                ], 
                [
                    20080, 
                    [
                        {
                            "pitch": 47, 
                            "t0": 20080, 
                            "v": 40, 
                            "dur": 36, 
                            "type": "note", 
                            "channel": 7
                        }
                    ]
                ], 
                [
                    20120, 
                    [
                        {
                            "pitch": 47, 
                            "t0": 20120, 
                            "v": 40, 
                            "dur": 36, 
                            "type": "note", 
                            "channel": 7
                        }
                    ]
                ], 
                [
                    20160, 
                    [
                        {
                            "pitch": 47, 
                            "t0": 20160, 
                            "v": 40, 
                            "dur": 36, 
                            "type": "note", 
                            "channel": 7
                        }, 
                        {
                            "pitch": 57, 
                            "t0": 20160, 
                            "v": 120, 
                            "dur": 216, 
                            "type": "note", 
                            "channel": 1
                        }, 
                        {
                            "pitch": 69, 
                            "t0": 20160, 
                            "parts": [
                                [
                                    20160, 
                                    120
                                ], 
                                [
                                    20160, 
                                    104
                                ], 
                                [
                                    20388, 
                                    0
                                ]
                            ], 
                            "v": 120, 
                            "dur": 228, 
                            "type": "note", 
                            "channel": 0
                        }
                    ]
                ], 
                [
                    20200, 
                    [
                        {
                            "pitch": 47, 
                            "t0": 20200, 
                            "v": 40, 
                            "dur": 36, 
                            "type": "note", 
                            "channel": 7
                        }
                    ]
                ], 
                [
                    20240, 
                    [
                        {
                            "pitch": 47, 
                            "t0": 20240, 
                            "v": 40, 
                            "dur": 36, 
                            "type": "note", 
                            "channel": 7
                        }
                    ]
                ], 
                [
                    20280, 
                    [
                        {
                            "pitch": 47, 
                            "t0": 20280, 
                            "v": 40, 
                            "dur": 36, 
                            "type": "note", 
                            "channel": 7
                        }
                    ]
                ], 
                [
                    20320, 
                    [
                        {
                            "pitch": 47, 
                            "t0": 20320, 
                            "v": 40, 
                            "dur": 36, 
                            "type": "note", 
                            "channel": 7
                        }
                    ]
                ], 
                [
                    20360, 
                    [
                        {
                            "pitch": 47, 
                            "t0": 20360, 
                            "v": 40, 
                            "dur": 36, 
                            "type": "note", 
                            "channel": 7
                        }
                    ]
                ], 
                [
                    20400, 
                    [
                        {
                            "pitch": 47, 
                            "t0": 20400, 
                            "parts": [
                                [
                                    20400, 
                                    120
                                ], 
                                [
                                    20400, 
                                    40
                                ], 
                                [
                                    20436, 
                                    0
                                ]
                            ], 
                            "v": 120, 
                            "dur": 36, 
                            "type": "note", 
                            "channel": 1
                        }, 
                        {
                            "pitch": 71, 
                            "t0": 20400, 
                            "parts": [
                                [
                                    20400, 
                                    120
                                ], 
                                [
                                    20400, 
                                    104
                                ], 
                                [
                                    20628, 
                                    0
                                ]
                            ], 
                            "v": 120, 
                            "dur": 228, 
                            "type": "note", 
                            "channel": 0
                        }
                    ]
                ], 
                [
                    20440, 
                    [
                        {
                            "pitch": 47, 
                            "t0": 20440, 
                            "v": 40, 
                            "dur": 36, 
                            "type": "note", 
                            "channel": 7
                        }
                    ]
                ], 
                [
                    20480, 
                    [
                        {
                            "pitch": 47, 
                            "t0": 20480, 
                            "v": 40, 
                            "dur": 36, 
                            "type": "note", 
                            "channel": 7
                        }
                    ]
                ], 
                [
                    20520, 
                    [
                        {
                            "pitch": 47, 
                            "t0": 20520, 
                            "v": 40, 
                            "dur": 36, 
                            "type": "note", 
                            "channel": 7
                        }
                    ]
                ], 
                [
                    20560, 
                    [
                        {
                            "pitch": 47, 
                            "t0": 20560, 
                            "v": 40, 
                            "dur": 36, 
                            "type": "note", 
                            "channel": 7
                        }
                    ]
                ], 
                [
                    20600, 
                    [
                        {
                            "pitch": 47, 
                            "t0": 20600, 
                            "v": 40, 
                            "dur": 16, 
                            "type": "note", 
                            "channel": 7
                        }
                    ]
                ], 
                [
                    20640, 
                    [
                        {
                            "pitch": 47, 
                            "t0": 20640, 
                            "v": 40, 
                            "dur": 36, 
                            "type": "note", 
                            "channel": 7
                        }, 
                        {
                            "pitch": 59, 
                            "t0": 20640, 
                            "v": 120, 
                            "dur": 216, 
                            "type": "note", 
                            "channel": 1
                        }, 
                        {
                            "pitch": 75, 
                            "t0": 20640, 
                            "parts": [
                                [
                                    20640, 
                                    120
                                ], 
                                [
                                    20640, 
                                    104
                                ], 
                                [
                                    20868, 
                                    0
                                ]
                            ], 
                            "v": 120, 
                            "dur": 228, 
                            "type": "note", 
                            "channel": 0
                        }
                    ]
                ], 
                [
                    20680, 
                    [
                        {
                            "pitch": 47, 
                            "t0": 20680, 
                            "v": 40, 
                            "dur": 36, 
                            "type": "note", 
                            "channel": 7
                        }
                    ]
                ], 
                [
                    20720, 
                    [
                        {
                            "pitch": 47, 
                            "t0": 20720, 
                            "v": 40, 
                            "dur": 36, 
                            "type": "note", 
                            "channel": 7
                        }
                    ]
                ], 
                [
                    20760, 
                    [
                        {
                            "pitch": 47, 
                            "t0": 20760, 
                            "v": 40, 
                            "dur": 36, 
                            "type": "note", 
                            "channel": 7
                        }
                    ]
                ], 
                [
                    20800, 
                    [
                        {
                            "pitch": 47, 
                            "t0": 20800, 
                            "v": 40, 
                            "dur": 36, 
                            "type": "note", 
                            "channel": 7
                        }
                    ]
                ], 
                [
                    20840, 
                    [
                        {
                            "pitch": 47, 
                            "t0": 20840, 
                            "v": 40, 
                            "dur": 36, 
                            "type": "note", 
                            "channel": 7
                        }
                    ]
                ], 
                [
                    20880, 
                    [
                        {
                            "pitch": 47, 
                            "t0": 20880, 
                            "parts": [
                                [
                                    20880, 
                                    120
                                ], 
                                [
                                    20880, 
                                    40
                                ], 
                                [
                                    20916, 
                                    0
                                ]
                            ], 
                            "v": 120, 
                            "dur": 36, 
                            "type": "note", 
                            "channel": 1
                        }, 
                        {
                            "pitch": 76, 
                            "t0": 20880, 
                            "parts": [
                                [
                                    20880, 
                                    120
                                ], 
                                [
                                    20880, 
                                    104
                                ], 
                                [
                                    21108, 
                                    0
                                ]
                            ], 
                            "v": 120, 
                            "dur": 228, 
                            "type": "note", 
                            "channel": 0
                        }
                    ]
                ], 
                [
                    20920, 
                    [
                        {
                            "pitch": 47, 
                            "t0": 20920, 
                            "v": 40, 
                            "dur": 36, 
                            "type": "note", 
                            "channel": 7
                        }
                    ]
                ], 
                [
                    20960, 
                    [
                        {
                            "pitch": 47, 
                            "t0": 20960, 
                            "v": 40, 
                            "dur": 36, 
                            "type": "note", 
                            "channel": 7
                        }
                    ]
                ], 
                [
                    21000, 
                    [
                        {
                            "pitch": 47, 
                            "t0": 21000, 
                            "v": 40, 
                            "dur": 36, 
                            "type": "note", 
                            "channel": 7
                        }
                    ]
                ], 
                [
                    21040, 
                    [
                        {
                            "pitch": 47, 
                            "t0": 21040, 
                            "v": 40, 
                            "dur": 36, 
                            "type": "note", 
                            "channel": 7
                        }
                    ]
                ], 
                [
                    21080, 
                    [
                        {
                            "pitch": 47, 
                            "t0": 21080, 
                            "v": 40, 
                            "dur": 16, 
                            "type": "note", 
                            "channel": 7
                        }
                    ]
                ], 
                [
                    21120, 
                    [
                        {
                            "pitch": 59, 
                            "t0": 21120, 
                            "v": 120, 
                            "dur": 216, 
                            "type": "note", 
                            "channel": 1
                        }, 
                        {
                            "pitch": 71, 
                            "t0": 21120, 
                            "parts": [
                                [
                                    21120, 
                                    120
                                ], 
                                [
                                    21120, 
                                    104
                                ], 
                                [
                                    21576, 
                                    0
                                ]
                            ], 
                            "v": 120, 
                            "dur": 456, 
                            "type": "note", 
                            "channel": 0
                        }
                    ]
                ], 
                [
                    21160, 
                    [
                        {
                            "pitch": 47, 
                            "t0": 21160, 
                            "v": 40, 
                            "dur": 36, 
                            "type": "note", 
                            "channel": 7
                        }
                    ]
                ], 
                [
                    21200, 
                    [
                        {
                            "pitch": 47, 
                            "t0": 21200, 
                            "v": 40, 
                            "dur": 36, 
                            "type": "note", 
                            "channel": 7
                        }
                    ]
                ], 
                [
                    21240, 
                    [
                        {
                            "pitch": 47, 
                            "t0": 21240, 
                            "v": 40, 
                            "dur": 36, 
                            "type": "note", 
                            "channel": 7
                        }
                    ]
                ], 
                [
                    21280, 
                    [
                        {
                            "pitch": 47, 
                            "t0": 21280, 
                            "v": 40, 
                            "dur": 36, 
                            "type": "note", 
                            "channel": 7
                        }
                    ]
                ], 
                [
                    21320, 
                    [
                        {
                            "pitch": 47, 
                            "t0": 21320, 
                            "v": 40, 
                            "dur": 36, 
                            "type": "note", 
                            "channel": 7
                        }
                    ]
                ], 
                [
                    21360, 
                    [
                        {
                            "pitch": 47, 
                            "t0": 21360, 
                            "parts": [
                                [
                                    21360, 
                                    120
                                ], 
                                [
                                    21360, 
                                    40
                                ], 
                                [
                                    21396, 
                                    0
                                ]
                            ], 
                            "v": 120, 
                            "dur": 36, 
                            "type": "note", 
                            "channel": 1
                        }
                    ]
                ], 
                [
                    21400, 
                    [
                        {
                            "pitch": 47, 
                            "t0": 21400, 
                            "v": 40, 
                            "dur": 36, 
                            "type": "note", 
                            "channel": 7
                        }
                    ]
                ], 
                [
                    21440, 
                    [
                        {
                            "pitch": 47, 
                            "t0": 21440, 
                            "v": 40, 
                            "dur": 36, 
                            "type": "note", 
                            "channel": 7
                        }
                    ]
                ], 
                [
                    21480, 
                    [
                        {
                            "pitch": 47, 
                            "t0": 21480, 
                            "v": 40, 
                            "dur": 36, 
                            "type": "note", 
                            "channel": 7
                        }
                    ]
                ], 
                [
                    21520, 
                    [
                        {
                            "pitch": 47, 
                            "t0": 21520, 
                            "v": 40, 
                            "dur": 36, 
                            "type": "note", 
                            "channel": 7
                        }
                    ]
                ], 
                [
                    21560, 
                    [
                        {
                            "pitch": 47, 
                            "t0": 21560, 
                            "v": 40, 
                            "dur": 16, 
                            "type": "note", 
                            "channel": 7
                        }
                    ]
                ], 
                [
                    21600, 
                    [
                        {
                            "pitch": 47, 
                            "t0": 21600, 
                            "v": 40, 
                            "dur": 36, 
                            "type": "note", 
                            "channel": 7
                        }, 
                        {
                            "pitch": 63, 
                            "t0": 21600, 
                            "v": 120, 
                            "dur": 216, 
                            "type": "note", 
                            "channel": 1
                        }, 
                        {
                            "pitch": 75, 
                            "t0": 21600, 
                            "parts": [
                                [
                                    21600, 
                                    120
                                ], 
                                [
                                    21600, 
                                    104
                                ], 
                                [
                                    21828, 
                                    0
                                ]
                            ], 
                            "v": 120, 
                            "dur": 228, 
                            "type": "note", 
                            "channel": 0
                        }
                    ]
                ], 
                [
                    21640, 
                    [
                        {
                            "pitch": 47, 
                            "t0": 21640, 
                            "v": 40, 
                            "dur": 36, 
                            "type": "note", 
                            "channel": 7
                        }
                    ]
                ], 
                [
                    21680, 
                    [
                        {
                            "pitch": 47, 
                            "t0": 21680, 
                            "v": 40, 
                            "dur": 36, 
                            "type": "note", 
                            "channel": 7
                        }
                    ]
                ], 
                [
                    21720, 
                    [
                        {
                            "pitch": 47, 
                            "t0": 21720, 
                            "v": 40, 
                            "dur": 36, 
                            "type": "note", 
                            "channel": 7
                        }
                    ]
                ], 
                [
                    21760, 
                    [
                        {
                            "pitch": 47, 
                            "t0": 21760, 
                            "v": 40, 
                            "dur": 36, 
                            "type": "note", 
                            "channel": 7
                        }
                    ]
                ], 
                [
                    21800, 
                    [
                        {
                            "pitch": 47, 
                            "t0": 21800, 
                            "v": 40, 
                            "dur": 36, 
                            "type": "note", 
                            "channel": 7
                        }
                    ]
                ], 
                [
                    21840, 
                    [
                        {
                            "pitch": 47, 
                            "t0": 21840, 
                            "v": 40, 
                            "dur": 36, 
                            "type": "note", 
                            "channel": 7
                        }, 
                        {
                            "pitch": 51, 
                            "t0": 21840, 
                            "v": 120, 
                            "dur": 216, 
                            "type": "note", 
                            "channel": 1
                        }, 
                        {
                            "pitch": 76, 
                            "t0": 21840, 
                            "parts": [
                                [
                                    21840, 
                                    120
                                ], 
                                [
                                    21840, 
                                    104
                                ], 
                                [
                                    22068, 
                                    0
                                ]
                            ], 
                            "v": 120, 
                            "dur": 228, 
                            "type": "note", 
                            "channel": 0
                        }
                    ]
                ], 
                [
                    21880, 
                    [
                        {
                            "pitch": 47, 
                            "t0": 21880, 
                            "v": 40, 
                            "dur": 36, 
                            "type": "note", 
                            "channel": 7
                        }
                    ]
                ], 
                [
                    21920, 
                    [
                        {
                            "pitch": 47, 
                            "t0": 21920, 
                            "v": 40, 
                            "dur": 36, 
                            "type": "note", 
                            "channel": 7
                        }
                    ]
                ], 
                [
                    21960, 
                    [
                        {
                            "pitch": 47, 
                            "t0": 21960, 
                            "v": 40, 
                            "dur": 36, 
                            "type": "note", 
                            "channel": 7
                        }
                    ]
                ], 
                [
                    22000, 
                    [
                        {
                            "pitch": 47, 
                            "t0": 22000, 
                            "v": 40, 
                            "dur": 36, 
                            "type": "note", 
                            "channel": 7
                        }
                    ]
                ], 
                [
                    22040, 
                    [
                        {
                            "pitch": 47, 
                            "t0": 22040, 
                            "v": 40, 
                            "dur": 36, 
                            "type": "note", 
                            "channel": 7
                        }
                    ]
                ], 
                [
                    22080, 
                    [
                        {
                            "pitch": 47, 
                            "t0": 22080, 
                            "v": 40, 
                            "dur": 36, 
                            "type": "note", 
                            "channel": 7
                        }, 
                        {
                            "pitch": 57, 
                            "t0": 22080, 
                            "v": 120, 
                            "dur": 216, 
                            "type": "note", 
                            "channel": 1
                        }, 
                        {
                            "pitch": 69, 
                            "t0": 22080, 
                            "parts": [
                                [
                                    22080, 
                                    120
                                ], 
                                [
                                    22080, 
                                    104
                                ], 
                                [
                                    22308, 
                                    0
                                ]
                            ], 
                            "v": 120, 
                            "dur": 228, 
                            "type": "note", 
                            "channel": 0
                        }
                    ]
                ], 
                [
                    22120, 
                    [
                        {
                            "pitch": 47, 
                            "t0": 22120, 
                            "v": 40, 
                            "dur": 36, 
                            "type": "note", 
                            "channel": 7
                        }
                    ]
                ], 
                [
                    22160, 
                    [
                        {
                            "pitch": 47, 
                            "t0": 22160, 
                            "v": 40, 
                            "dur": 36, 
                            "type": "note", 
                            "channel": 7
                        }
                    ]
                ], 
                [
                    22200, 
                    [
                        {
                            "pitch": 47, 
                            "t0": 22200, 
                            "v": 40, 
                            "dur": 36, 
                            "type": "note", 
                            "channel": 7
                        }
                    ]
                ], 
                [
                    22240, 
                    [
                        {
                            "pitch": 47, 
                            "t0": 22240, 
                            "v": 40, 
                            "dur": 36, 
                            "type": "note", 
                            "channel": 7
                        }
                    ]
                ], 
                [
                    22280, 
                    [
                        {
                            "pitch": 47, 
                            "t0": 22280, 
                            "v": 40, 
                            "dur": 36, 
                            "type": "note", 
                            "channel": 7
                        }
                    ]
                ], 
                [
                    22320, 
                    [
                        {
                            "pitch": 47, 
                            "t0": 22320, 
                            "parts": [
                                [
                                    22320, 
                                    120
                                ], 
                                [
                                    22320, 
                                    40
                                ], 
                                [
                                    22356, 
                                    0
                                ]
                            ], 
                            "v": 120, 
                            "dur": 36, 
                            "type": "note", 
                            "channel": 1
                        }, 
                        {
                            "pitch": 69, 
                            "t0": 22320, 
                            "parts": [
                                [
                                    22320, 
                                    120
                                ], 
                                [
                                    22320, 
                                    104
                                ], 
                                [
                                    22548, 
                                    0
                                ]
                            ], 
                            "v": 120, 
                            "dur": 228, 
                            "type": "note", 
                            "channel": 0
                        }
                    ]
                ], 
                [
                    22360, 
                    [
                        {
                            "pitch": 47, 
                            "t0": 22360, 
                            "v": 40, 
                            "dur": 36, 
                            "type": "note", 
                            "channel": 7
                        }
                    ]
                ], 
                [
                    22400, 
                    [
                        {
                            "pitch": 47, 
                            "t0": 22400, 
                            "v": 40, 
                            "dur": 36, 
                            "type": "note", 
                            "channel": 7
                        }
                    ]
                ], 
                [
                    22440, 
                    [
                        {
                            "pitch": 47, 
                            "t0": 22440, 
                            "v": 40, 
                            "dur": 36, 
                            "type": "note", 
                            "channel": 7
                        }
                    ]
                ], 
                [
                    22480, 
                    [
                        {
                            "pitch": 47, 
                            "t0": 22480, 
                            "v": 40, 
                            "dur": 36, 
                            "type": "note", 
                            "channel": 7
                        }
                    ]
                ], 
                [
                    22520, 
                    [
                        {
                            "pitch": 47, 
                            "t0": 22520, 
                            "v": 40, 
                            "dur": 16, 
                            "type": "note", 
                            "channel": 7
                        }
                    ]
                ], 
                [
                    22560, 
                    [
                        {
                            "pitch": 47, 
                            "t0": 22560, 
                            "v": 40, 
                            "dur": 36, 
                            "type": "note", 
                            "channel": 7
                        }, 
                        {
                            "pitch": 56, 
                            "t0": 22560, 
                            "v": 120, 
                            "dur": 216, 
                            "type": "note", 
                            "channel": 1
                        }, 
                        {
                            "pitch": 68, 
                            "t0": 22560, 
                            "parts": [
                                [
                                    22560, 
                                    120
                                ], 
                                [
                                    22560, 
                                    104
                                ], 
                                [
                                    22788, 
                                    0
                                ]
                            ], 
                            "v": 120, 
                            "dur": 228, 
                            "type": "note", 
                            "channel": 0
                        }
                    ]
                ], 
                [
                    22600, 
                    [
                        {
                            "pitch": 47, 
                            "t0": 22600, 
                            "v": 40, 
                            "dur": 36, 
                            "type": "note", 
                            "channel": 7
                        }
                    ]
                ], 
                [
                    22640, 
                    [
                        {
                            "pitch": 47, 
                            "t0": 22640, 
                            "v": 40, 
                            "dur": 36, 
                            "type": "note", 
                            "channel": 7
                        }
                    ]
                ], 
                [
                    22680, 
                    [
                        {
                            "pitch": 47, 
                            "t0": 22680, 
                            "v": 40, 
                            "dur": 36, 
                            "type": "note", 
                            "channel": 7
                        }
                    ]
                ], 
                [
                    22720, 
                    [
                        {
                            "pitch": 47, 
                            "t0": 22720, 
                            "v": 40, 
                            "dur": 36, 
                            "type": "note", 
                            "channel": 7
                        }
                    ]
                ], 
                [
                    22760, 
                    [
                        {
                            "pitch": 47, 
                            "t0": 22760, 
                            "v": 40, 
                            "dur": 36, 
                            "type": "note", 
                            "channel": 7
                        }
                    ]
                ], 
                [
                    22800, 
                    [
                        {
                            "pitch": 47, 
                            "t0": 22800, 
                            "v": 40, 
                            "dur": 36, 
                            "type": "note", 
                            "channel": 7
                        }, 
                        {
                            "pitch": 57, 
                            "t0": 22800, 
                            "v": 120, 
                            "dur": 216, 
                            "type": "note", 
                            "channel": 1
                        }, 
                        {
                            "pitch": 69, 
                            "t0": 22800, 
                            "parts": [
                                [
                                    22800, 
                                    120
                                ], 
                                [
                                    22800, 
                                    104
                                ], 
                                [
                                    23028, 
                                    0
                                ]
                            ], 
                            "v": 120, 
                            "dur": 228, 
                            "type": "note", 
                            "channel": 0
                        }
                    ]
                ], 
                [
                    22840, 
                    [
                        {
                            "pitch": 47, 
                            "t0": 22840, 
                            "v": 40, 
                            "dur": 36, 
                            "type": "note", 
                            "channel": 7
                        }
                    ]
                ], 
                [
                    22880, 
                    [
                        {
                            "pitch": 47, 
                            "t0": 22880, 
                            "v": 40, 
                            "dur": 36, 
                            "type": "note", 
                            "channel": 7
                        }
                    ]
                ], 
                [
                    22920, 
                    [
                        {
                            "pitch": 47, 
                            "t0": 22920, 
                            "v": 40, 
                            "dur": 36, 
                            "type": "note", 
                            "channel": 7
                        }
                    ]
                ], 
                [
                    22960, 
                    [
                        {
                            "pitch": 47, 
                            "t0": 22960, 
                            "v": 40, 
                            "dur": 36, 
                            "type": "note", 
                            "channel": 7
                        }
                    ]
                ], 
                [
                    23000, 
                    [
                        {
                            "pitch": 47, 
                            "t0": 23000, 
                            "v": 40, 
                            "dur": 76, 
                            "type": "note", 
                            "channel": 7
                        }
                    ]
                ], 
                [
                    23040, 
                    [
                        {
                            "pitch": 54, 
                            "t0": 23040, 
                            "v": 120, 
                            "dur": 216, 
                            "type": "note", 
                            "channel": 1
                        }, 
                        {
                            "pitch": 66, 
                            "t0": 23040, 
                            "parts": [
                                [
                                    23040, 
                                    120
                                ], 
                                [
                                    23040, 
                                    104
                                ], 
                                [
                                    23268, 
                                    0
                                ]
                            ], 
                            "v": 120, 
                            "dur": 228, 
                            "type": "note", 
                            "channel": 0
                        }
                    ]
                ], 
                [
                    23080, 
                    [
                        {
                            "pitch": 47, 
                            "t0": 23080, 
                            "v": 40, 
                            "dur": 36, 
                            "type": "note", 
                            "channel": 7
                        }
                    ]
                ], 
                [
                    23120, 
                    [
                        {
                            "pitch": 47, 
                            "t0": 23120, 
                            "v": 40, 
                            "dur": 36, 
                            "type": "note", 
                            "channel": 7
                        }
                    ]
                ], 
                [
                    23160, 
                    [
                        {
                            "pitch": 47, 
                            "t0": 23160, 
                            "v": 40, 
                            "dur": 36, 
                            "type": "note", 
                            "channel": 7
                        }
                    ]
                ], 
                [
                    23200, 
                    [
                        {
                            "pitch": 47, 
                            "t0": 23200, 
                            "v": 40, 
                            "dur": 36, 
                            "type": "note", 
                            "channel": 7
                        }
                    ]
                ], 
                [
                    23240, 
                    [
                        {
                            "pitch": 47, 
                            "t0": 23240, 
                            "v": 40, 
                            "dur": 36, 
                            "type": "note", 
                            "channel": 7
                        }
                    ]
                ], 
                [
                    23280, 
                    [
                        {
                            "pitch": 47, 
                            "t0": 23280, 
                            "v": 40, 
                            "dur": 36, 
                            "type": "note", 
                            "channel": 7
                        }, 
                        {
                            "pitch": 59, 
                            "t0": 23280, 
                            "v": 120, 
                            "dur": 216, 
                            "type": "note", 
                            "channel": 1
                        }, 
                        {
                            "pitch": 64, 
                            "t0": 23280, 
                            "parts": [
                                [
                                    23280, 
                                    120
                                ], 
                                [
                                    23280, 
                                    104
                                ], 
                                [
                                    23508, 
                                    0
                                ]
                            ], 
                            "v": 120, 
                            "dur": 228, 
                            "type": "note", 
                            "channel": 0
                        }
                    ]
                ], 
                [
                    23320, 
                    [
                        {
                            "pitch": 47, 
                            "t0": 23320, 
                            "v": 40, 
                            "dur": 36, 
                            "type": "note", 
                            "channel": 7
                        }
                    ]
                ], 
                [
                    23360, 
                    [
                        {
                            "pitch": 47, 
                            "t0": 23360, 
                            "v": 40, 
                            "dur": 36, 
                            "type": "note", 
                            "channel": 7
                        }
                    ]
                ], 
                [
                    23400, 
                    [
                        {
                            "pitch": 47, 
                            "t0": 23400, 
                            "v": 40, 
                            "dur": 36, 
                            "type": "note", 
                            "channel": 7
                        }
                    ]
                ], 
                [
                    23440, 
                    [
                        {
                            "pitch": 47, 
                            "t0": 23440, 
                            "v": 40, 
                            "dur": 36, 
                            "type": "note", 
                            "channel": 7
                        }
                    ]
                ], 
                [
                    23480, 
                    [
                        {
                            "pitch": 47, 
                            "t0": 23480, 
                            "v": 40, 
                            "dur": 36, 
                            "type": "note", 
                            "channel": 7
                        }
                    ]
                ], 
                [
                    23520, 
                    [
                        {
                            "pitch": 47, 
                            "t0": 23520, 
                            "v": 40, 
                            "dur": 36, 
                            "type": "note", 
                            "channel": 7
                        }, 
                        {
                            "pitch": 51, 
                            "t0": 23520, 
                            "v": 120, 
                            "dur": 216, 
                            "type": "note", 
                            "channel": 1
                        }, 
                        {
                            "pitch": 63, 
                            "t0": 23520, 
                            "parts": [
                                [
                                    23520, 
                                    120
                                ], 
                                [
                                    23520, 
                                    104
                                ], 
                                [
                                    23748, 
                                    0
                                ]
                            ], 
                            "v": 120, 
                            "dur": 228, 
                            "type": "note", 
                            "channel": 0
                        }
                    ]
                ], 
                [
                    23560, 
                    [
                        {
                            "pitch": 47, 
                            "t0": 23560, 
                            "v": 40, 
                            "dur": 36, 
                            "type": "note", 
                            "channel": 7
                        }
                    ]
                ], 
                [
                    23600, 
                    [
                        {
                            "pitch": 47, 
                            "t0": 23600, 
                            "v": 40, 
                            "dur": 36, 
                            "type": "note", 
                            "channel": 7
                        }
                    ]
                ], 
                [
                    23640, 
                    [
                        {
                            "pitch": 47, 
                            "t0": 23640, 
                            "v": 40, 
                            "dur": 36, 
                            "type": "note", 
                            "channel": 7
                        }
                    ]
                ], 
                [
                    23680, 
                    [
                        {
                            "pitch": 47, 
                            "t0": 23680, 
                            "v": 40, 
                            "dur": 36, 
                            "type": "note", 
                            "channel": 7
                        }
                    ]
                ], 
                [
                    23720, 
                    [
                        {
                            "pitch": 47, 
                            "t0": 23720, 
                            "v": 40, 
                            "dur": 36, 
                            "type": "note", 
                            "channel": 7
                        }
                    ]
                ], 
                [
                    23760, 
                    [
                        {
                            "pitch": 47, 
                            "t0": 23760, 
                            "v": 40, 
                            "dur": 36, 
                            "type": "note", 
                            "channel": 7
                        }, 
                        {
                            "pitch": 54, 
                            "t0": 23760, 
                            "v": 120, 
                            "dur": 216, 
                            "type": "note", 
                            "channel": 1
                        }, 
                        {
                            "pitch": 66, 
                            "t0": 23760, 
                            "parts": [
                                [
                                    23760, 
                                    120
                                ], 
                                [
                                    23760, 
                                    104
                                ], 
                                [
                                    23988, 
                                    0
                                ]
                            ], 
                            "v": 120, 
                            "dur": 228, 
                            "type": "note", 
                            "channel": 0
                        }
                    ]
                ], 
                [
                    23800, 
                    [
                        {
                            "pitch": 47, 
                            "t0": 23800, 
                            "v": 40, 
                            "dur": 36, 
                            "type": "note", 
                            "channel": 7
                        }
                    ]
                ], 
                [
                    23840, 
                    [
                        {
                            "pitch": 47, 
                            "t0": 23840, 
                            "v": 40, 
                            "dur": 36, 
                            "type": "note", 
                            "channel": 7
                        }
                    ]
                ], 
                [
                    23880, 
                    [
                        {
                            "pitch": 47, 
                            "t0": 23880, 
                            "v": 40, 
                            "dur": 36, 
                            "type": "note", 
                            "channel": 7
                        }
                    ]
                ], 
                [
                    23920, 
                    [
                        {
                            "pitch": 47, 
                            "t0": 23920, 
                            "v": 40, 
                            "dur": 36, 
                            "type": "note", 
                            "channel": 7
                        }
                    ]
                ], 
                [
                    23960, 
                    [
                        {
                            "pitch": 47, 
                            "t0": 23960, 
                            "v": 40, 
                            "dur": 76, 
                            "type": "note", 
                            "channel": 7
                        }
                    ]
                ], 
                [
                    24000, 
                    [
                        {
                            "pitch": 52, 
                            "t0": 24000, 
                            "v": 120, 
                            "dur": 216, 
                            "type": "note", 
                            "channel": 1
                        }, 
                        {
                            "pitch": 64, 
                            "t0": 24000, 
                            "parts": [
                                [
                                    24000, 
                                    120
                                ], 
                                [
                                    24000, 
                                    104
                                ], 
                                [
                                    24912, 
                                    0
                                ]
                            ], 
                            "v": 120, 
                            "dur": 912, 
                            "type": "note", 
                            "channel": 0
                        }, 
                        {
                            "pitch": 76, 
                            "t0": 24000, 
                            "v": 104, 
                            "dur": 912, 
                            "type": "note", 
                            "channel": 2
                        }, 
                        {
                            "pitch": 80, 
                            "t0": 24000, 
                            "v": 104, 
                            "dur": 912, 
                            "type": "note", 
                            "channel": 2
                        }
                    ]
                ], 
                [
                    24040, 
                    [
                        {
                            "pitch": 47, 
                            "t0": 24040, 
                            "v": 40, 
                            "dur": 36, 
                            "type": "note", 
                            "channel": 7
                        }
                    ]
                ], 
                [
                    24080, 
                    [
                        {
                            "pitch": 47, 
                            "t0": 24080, 
                            "v": 40, 
                            "dur": 36, 
                            "type": "note", 
                            "channel": 7
                        }
                    ]
                ], 
                [
                    24120, 
                    [
                        {
                            "pitch": 47, 
                            "t0": 24120, 
                            "v": 40, 
                            "dur": 36, 
                            "type": "note", 
                            "channel": 7
                        }
                    ]
                ], 
                [
                    24160, 
                    [
                        {
                            "pitch": 47, 
                            "t0": 24160, 
                            "v": 40, 
                            "dur": 36, 
                            "type": "note", 
                            "channel": 7
                        }
                    ]
                ], 
                [
                    24200, 
                    [
                        {
                            "pitch": 47, 
                            "t0": 24200, 
                            "v": 40, 
                            "dur": 36, 
                            "type": "note", 
                            "channel": 7
                        }
                    ]
                ], 
                [
                    24240, 
                    [
                        {
                            "pitch": 47, 
                            "t0": 24240, 
                            "parts": [
                                [
                                    24240, 
                                    120
                                ], 
                                [
                                    24240, 
                                    40
                                ], 
                                [
                                    24276, 
                                    0
                                ]
                            ], 
                            "v": 120, 
                            "dur": 36, 
                            "type": "note", 
                            "channel": 1
                        }
                    ]
                ], 
                [
                    24280, 
                    [
                        {
                            "pitch": 47, 
                            "t0": 24280, 
                            "v": 40, 
                            "dur": 36, 
                            "type": "note", 
                            "channel": 7
                        }
                    ]
                ], 
                [
                    24320, 
                    [
                        {
                            "pitch": 47, 
                            "t0": 24320, 
                            "v": 40, 
                            "dur": 36, 
                            "type": "note", 
                            "channel": 7
                        }
                    ]
                ], 
                [
                    24360, 
                    [
                        {
                            "pitch": 47, 
                            "t0": 24360, 
                            "v": 40, 
                            "dur": 36, 
                            "type": "note", 
                            "channel": 7
                        }
                    ]
                ], 
                [
                    24400, 
                    [
                        {
                            "pitch": 47, 
                            "t0": 24400, 
                            "v": 40, 
                            "dur": 36, 
                            "type": "note", 
                            "channel": 7
                        }
                    ]
                ], 
                [
                    24440, 
                    [
                        {
                            "pitch": 47, 
                            "t0": 24440, 
                            "v": 40, 
                            "dur": 16, 
                            "type": "note", 
                            "channel": 7
                        }
                    ]
                ], 
                [
                    24480, 
                    [
                        {
                            "pitch": 47, 
                            "t0": 24480, 
                            "v": 40, 
                            "dur": 36, 
                            "type": "note", 
                            "channel": 7
                        }, 
                        {
                            "pitch": 59, 
                            "t0": 24480, 
                            "v": 120, 
                            "dur": 216, 
                            "type": "note", 
                            "channel": 1
                        }
                    ]
                ], 
                [
                    24520, 
                    [
                        {
                            "pitch": 47, 
                            "t0": 24520, 
                            "v": 40, 
                            "dur": 36, 
                            "type": "note", 
                            "channel": 7
                        }
                    ]
                ], 
                [
                    24560, 
                    [
                        {
                            "pitch": 47, 
                            "t0": 24560, 
                            "v": 40, 
                            "dur": 36, 
                            "type": "note", 
                            "channel": 7
                        }
                    ]
                ], 
                [
                    24600, 
                    [
                        {
                            "pitch": 47, 
                            "t0": 24600, 
                            "v": 40, 
                            "dur": 36, 
                            "type": "note", 
                            "channel": 7
                        }
                    ]
                ], 
                [
                    24640, 
                    [
                        {
                            "pitch": 47, 
                            "t0": 24640, 
                            "v": 40, 
                            "dur": 36, 
                            "type": "note", 
                            "channel": 7
                        }
                    ]
                ], 
                [
                    24680, 
                    [
                        {
                            "pitch": 47, 
                            "t0": 24680, 
                            "v": 40, 
                            "dur": 36, 
                            "type": "note", 
                            "channel": 7
                        }
                    ]
                ], 
                [
                    24720, 
                    [
                        {
                            "pitch": 47, 
                            "t0": 24720, 
                            "v": 40, 
                            "dur": 36, 
                            "type": "note", 
                            "channel": 7
                        }, 
                        {
                            "pitch": 56, 
                            "t0": 24720, 
                            "v": 120, 
                            "dur": 216, 
                            "type": "note", 
                            "channel": 1
                        }
                    ]
                ], 
                [
                    24760, 
                    [
                        {
                            "pitch": 47, 
                            "t0": 24760, 
                            "v": 40, 
                            "dur": 36, 
                            "type": "note", 
                            "channel": 7
                        }
                    ]
                ], 
                [
                    24800, 
                    [
                        {
                            "pitch": 47, 
                            "t0": 24800, 
                            "v": 40, 
                            "dur": 36, 
                            "type": "note", 
                            "channel": 7
                        }
                    ]
                ], 
                [
                    24840, 
                    [
                        {
                            "pitch": 47, 
                            "t0": 24840, 
                            "v": 40, 
                            "dur": 36, 
                            "type": "note", 
                            "channel": 7
                        }
                    ]
                ], 
                [
                    24880, 
                    [
                        {
                            "pitch": 47, 
                            "t0": 24880, 
                            "v": 40, 
                            "dur": 36, 
                            "type": "note", 
                            "channel": 7
                        }
                    ]
                ], 
                [
                    24920, 
                    [
                        {
                            "pitch": 47, 
                            "t0": 24920, 
                            "v": 40, 
                            "dur": 36, 
                            "type": "note", 
                            "channel": 7
                        }
                    ]
                ], 
                [
                    24960, 
                    [
                        {
                            "pitch": 47, 
                            "t0": 24960, 
                            "v": 40, 
                            "dur": 36, 
                            "type": "note", 
                            "channel": 7
                        }, 
                        {
                            "pitch": 57, 
                            "t0": 24960, 
                            "v": 120, 
                            "dur": 216, 
                            "type": "note", 
                            "channel": 1
                        }, 
                        {
                            "pitch": 76, 
                            "t0": 24960, 
                            "parts": [
                                [
                                    24960, 
                                    104
                                ], 
                                [
                                    25200, 
                                    88
                                ], 
                                [
                                    25872, 
                                    0
                                ]
                            ], 
                            "v": 104, 
                            "dur": 912, 
                            "type": "note", 
                            "channel": 2
                        }, 
                        {
                            "pitch": 81, 
                            "t0": 24960, 
                            "parts": [
                                [
                                    24960, 
                                    104
                                ], 
                                [
                                    25120, 
                                    88
                                ], 
                                [
                                    25872, 
                                    0
                                ]
                            ], 
                            "v": 104, 
                            "dur": 912, 
                            "type": "note", 
                            "channel": 2
                        }, 
                        {
                            "pitch": 88, 
                            "t0": 24960, 
                            "v": 88, 
                            "dur": 2784, 
                            "type": "note", 
                            "channel": 4
                        }
                    ]
                ], 
                [
                    25000, 
                    [
                        {
                            "pitch": 47, 
                            "t0": 25000, 
                            "v": 40, 
                            "dur": 36, 
                            "type": "note", 
                            "channel": 7
                        }
                    ]
                ], 
                [
                    25040, 
                    [
                        {
                            "pitch": 47, 
                            "t0": 25040, 
                            "v": 40, 
                            "dur": 36, 
                            "type": "note", 
                            "channel": 7
                        }, 
                        {
                            "pitch": 83, 
                            "t0": 25040, 
                            "v": 88, 
                            "dur": 2784, 
                            "type": "note", 
                            "channel": 4
                        }
                    ]
                ], 
                [
                    25080, 
                    [
                        {
                            "pitch": 47, 
                            "t0": 25080, 
                            "v": 40, 
                            "dur": 36, 
                            "type": "note", 
                            "channel": 7
                        }
                    ]
                ], 
                [
                    25120, 
                    [
                        {
                            "pitch": 47, 
                            "t0": 25120, 
                            "v": 40, 
                            "dur": 36, 
                            "type": "note", 
                            "channel": 7
                        }
                    ]
                ], 
                [
                    25160, 
                    [
                        {
                            "pitch": 47, 
                            "t0": 25160, 
                            "v": 40, 
                            "dur": 36, 
                            "type": "note", 
                            "channel": 7
                        }
                    ]
                ], 
                [
                    25200, 
                    [
                        {
                            "pitch": 47, 
                            "t0": 25200, 
                            "v": 40, 
                            "dur": 36, 
                            "type": "note", 
                            "channel": 7
                        }, 
                        {
                            "pitch": 59, 
                            "t0": 25200, 
                            "v": 120, 
                            "dur": 216, 
                            "type": "note", 
                            "channel": 1
                        }
                    ]
                ], 
                [
                    25240, 
                    [
                        {
                            "pitch": 47, 
                            "t0": 25240, 
                            "v": 40, 
                            "dur": 36, 
                            "type": "note", 
                            "channel": 7
                        }
                    ]
                ], 
                [
                    25280, 
                    [
                        {
                            "pitch": 47, 
                            "t0": 25280, 
                            "v": 40, 
                            "dur": 36, 
                            "type": "note", 
                            "channel": 7
                        }
                    ]
                ], 
                [
                    25320, 
                    [
                        {
                            "pitch": 47, 
                            "t0": 25320, 
                            "v": 40, 
                            "dur": 36, 
                            "type": "note", 
                            "channel": 7
                        }
                    ]
                ], 
                [
                    25360, 
                    [
                        {
                            "pitch": 47, 
                            "t0": 25360, 
                            "v": 40, 
                            "dur": 36, 
                            "type": "note", 
                            "channel": 7
                        }
                    ]
                ], 
                [
                    25400, 
                    [
                        {
                            "pitch": 47, 
                            "t0": 25400, 
                            "v": 40, 
                            "dur": 36, 
                            "type": "note", 
                            "channel": 7
                        }
                    ]
                ], 
                [
                    25440, 
                    [
                        {
                            "pitch": 47, 
                            "t0": 25440, 
                            "v": 40, 
                            "dur": 36, 
                            "type": "note", 
                            "channel": 7
                        }, 
                        {
                            "pitch": 63, 
                            "t0": 25440, 
                            "v": 120, 
                            "dur": 216, 
                            "type": "note", 
                            "channel": 1
                        }
                    ]
                ], 
                [
                    25480, 
                    [
                        {
                            "pitch": 47, 
                            "t0": 25480, 
                            "v": 40, 
                            "dur": 36, 
                            "type": "note", 
                            "channel": 7
                        }
                    ]
                ], 
                [
                    25520, 
                    [
                        {
                            "pitch": 47, 
                            "t0": 25520, 
                            "v": 40, 
                            "dur": 36, 
                            "type": "note", 
                            "channel": 7
                        }
                    ]
                ], 
                [
                    25560, 
                    [
                        {
                            "pitch": 47, 
                            "t0": 25560, 
                            "v": 40, 
                            "dur": 36, 
                            "type": "note", 
                            "channel": 7
                        }
                    ]
                ], 
                [
                    25600, 
                    [
                        {
                            "pitch": 47, 
                            "t0": 25600, 
                            "v": 40, 
                            "dur": 36, 
                            "type": "note", 
                            "channel": 7
                        }
                    ]
                ], 
                [
                    25640, 
                    [
                        {
                            "pitch": 47, 
                            "t0": 25640, 
                            "v": 40, 
                            "dur": 36, 
                            "type": "note", 
                            "channel": 7
                        }
                    ]
                ], 
                [
                    25680, 
                    [
                        {
                            "pitch": 47, 
                            "t0": 25680, 
                            "v": 40, 
                            "dur": 36, 
                            "type": "note", 
                            "channel": 7
                        }, 
                        {
                            "pitch": 66, 
                            "t0": 25680, 
                            "v": 120, 
                            "dur": 216, 
                            "type": "note", 
                            "channel": 1
                        }
                    ]
                ], 
                [
                    25720, 
                    [
                        {
                            "pitch": 47, 
                            "t0": 25720, 
                            "v": 40, 
                            "dur": 36, 
                            "type": "note", 
                            "channel": 7
                        }
                    ]
                ], 
                [
                    25760, 
                    [
                        {
                            "pitch": 47, 
                            "t0": 25760, 
                            "v": 40, 
                            "dur": 36, 
                            "type": "note", 
                            "channel": 7
                        }
                    ]
                ], 
                [
                    25800, 
                    [
                        {
                            "pitch": 47, 
                            "t0": 25800, 
                            "v": 40, 
                            "dur": 36, 
                            "type": "note", 
                            "channel": 7
                        }
                    ]
                ], 
                [
                    25840, 
                    [
                        {
                            "pitch": 47, 
                            "t0": 25840, 
                            "v": 40, 
                            "dur": 36, 
                            "type": "note", 
                            "channel": 7
                        }
                    ]
                ], 
                [
                    25880, 
                    [
                        {
                            "pitch": 47, 
                            "t0": 25880, 
                            "v": 40, 
                            "dur": 76, 
                            "type": "note", 
                            "channel": 7
                        }
                    ]
                ], 
                [
                    25920, 
                    [
                        {
                            "pitch": 64, 
                            "t0": 25920, 
                            "v": 120, 
                            "dur": 216, 
                            "type": "note", 
                            "channel": 1
                        }, 
                        {
                            "pitch": 40, 
                            "t0": 25920, 
                            "v": 104, 
                            "dur": 1728, 
                            "type": "note", 
                            "channel": 6
                        }, 
                        {
                            "pitch": 76, 
                            "t0": 25920, 
                            "v": 104, 
                            "dur": 1824, 
                            "type": "note", 
                            "channel": 2
                        }, 
                        {
                            "pitch": 80, 
                            "t0": 25920, 
                            "v": 104, 
                            "dur": 1824, 
                            "type": "note", 
                            "channel": 2
                        }
                    ]
                ], 
                [
                    25960, 
                    [
                        {
                            "pitch": 47, 
                            "t0": 25960, 
                            "v": 40, 
                            "dur": 36, 
                            "type": "note", 
                            "channel": 7
                        }
                    ]
                ], 
                [
                    26000, 
                    [
                        {
                            "pitch": 47, 
                            "t0": 26000, 
                            "v": 40, 
                            "dur": 36, 
                            "type": "note", 
                            "channel": 7
                        }
                    ]
                ], 
                [
                    26040, 
                    [
                        {
                            "pitch": 47, 
                            "t0": 26040, 
                            "v": 40, 
                            "dur": 36, 
                            "type": "note", 
                            "channel": 7
                        }
                    ]
                ], 
                [
                    26080, 
                    [
                        {
                            "pitch": 47, 
                            "t0": 26080, 
                            "v": 40, 
                            "dur": 36, 
                            "type": "note", 
                            "channel": 7
                        }
                    ]
                ], 
                [
                    26120, 
                    [
                        {
                            "pitch": 47, 
                            "t0": 26120, 
                            "v": 40, 
                            "dur": 36, 
                            "type": "note", 
                            "channel": 7
                        }
                    ]
                ], 
                [
                    26160, 
                    [
                        {
                            "pitch": 47, 
                            "t0": 26160, 
                            "parts": [
                                [
                                    26160, 
                                    120
                                ], 
                                [
                                    26160, 
                                    40
                                ], 
                                [
                                    26196, 
                                    0
                                ]
                            ], 
                            "v": 120, 
                            "dur": 36, 
                            "type": "note", 
                            "channel": 1
                        }
                    ]
                ], 
                [
                    26200, 
                    [
                        {
                            "pitch": 47, 
                            "t0": 26200, 
                            "v": 40, 
                            "dur": 36, 
                            "type": "note", 
                            "channel": 7
                        }
                    ]
                ], 
                [
                    26240, 
                    [
                        {
                            "pitch": 47, 
                            "t0": 26240, 
                            "v": 40, 
                            "dur": 36, 
                            "type": "note", 
                            "channel": 7
                        }
                    ]
                ], 
                [
                    26280, 
                    [
                        {
                            "pitch": 47, 
                            "t0": 26280, 
                            "v": 40, 
                            "dur": 36, 
                            "type": "note", 
                            "channel": 7
                        }
                    ]
                ], 
                [
                    26320, 
                    [
                        {
                            "pitch": 47, 
                            "t0": 26320, 
                            "v": 40, 
                            "dur": 36, 
                            "type": "note", 
                            "channel": 7
                        }
                    ]
                ], 
                [
                    26360, 
                    [
                        {
                            "pitch": 47, 
                            "t0": 26360, 
                            "v": 40, 
                            "dur": 16, 
                            "type": "note", 
                            "channel": 7
                        }
                    ]
                ], 
                [
                    26400, 
                    [
                        {
                            "pitch": 47, 
                            "t0": 26400, 
                            "v": 40, 
                            "dur": 36, 
                            "type": "note", 
                            "channel": 7
                        }, 
                        {
                            "pitch": 64, 
                            "t0": 26400, 
                            "v": 120, 
                            "dur": 216, 
                            "type": "note", 
                            "channel": 1
                        }
                    ]
                ], 
                [
                    26440, 
                    [
                        {
                            "pitch": 47, 
                            "t0": 26440, 
                            "v": 40, 
                            "dur": 36, 
                            "type": "note", 
                            "channel": 7
                        }
                    ]
                ], 
                [
                    26480, 
                    [
                        {
                            "pitch": 47, 
                            "t0": 26480, 
                            "v": 40, 
                            "dur": 36, 
                            "type": "note", 
                            "channel": 7
                        }
                    ]
                ], 
                [
                    26520, 
                    [
                        {
                            "pitch": 47, 
                            "t0": 26520, 
                            "v": 40, 
                            "dur": 36, 
                            "type": "note", 
                            "channel": 7
                        }
                    ]
                ], 
                [
                    26560, 
                    [
                        {
                            "pitch": 47, 
                            "t0": 26560, 
                            "v": 40, 
                            "dur": 36, 
                            "type": "note", 
                            "channel": 7
                        }
                    ]
                ], 
                [
                    26600, 
                    [
                        {
                            "pitch": 47, 
                            "t0": 26600, 
                            "v": 40, 
                            "dur": 36, 
                            "type": "note", 
                            "channel": 7
                        }
                    ]
                ], 
                [
                    26640, 
                    [
                        {
                            "pitch": 47, 
                            "t0": 26640, 
                            "v": 40, 
                            "dur": 36, 
                            "type": "note", 
                            "channel": 7
                        }, 
                        {
                            "pitch": 63, 
                            "t0": 26640, 
                            "v": 120, 
                            "dur": 216, 
                            "type": "note", 
                            "channel": 1
                        }
                    ]
                ], 
                [
                    26680, 
                    [
                        {
                            "pitch": 47, 
                            "t0": 26680, 
                            "v": 40, 
                            "dur": 36, 
                            "type": "note", 
                            "channel": 7
                        }
                    ]
                ], 
                [
                    26720, 
                    [
                        {
                            "pitch": 47, 
                            "t0": 26720, 
                            "v": 40, 
                            "dur": 36, 
                            "type": "note", 
                            "channel": 7
                        }
                    ]
                ], 
                [
                    26760, 
                    [
                        {
                            "pitch": 47, 
                            "t0": 26760, 
                            "v": 40, 
                            "dur": 36, 
                            "type": "note", 
                            "channel": 7
                        }
                    ]
                ], 
                [
                    26800, 
                    [
                        {
                            "pitch": 47, 
                            "t0": 26800, 
                            "v": 40, 
                            "dur": 36, 
                            "type": "note", 
                            "channel": 7
                        }
                    ]
                ], 
                [
                    26840, 
                    [
                        {
                            "pitch": 47, 
                            "t0": 26840, 
                            "v": 40, 
                            "dur": 36, 
                            "type": "note", 
                            "channel": 7
                        }
                    ]
                ], 
                [
                    26880, 
                    [
                        {
                            "pitch": 47, 
                            "t0": 26880, 
                            "v": 40, 
                            "dur": 36, 
                            "type": "note", 
                            "channel": 7
                        }, 
                        {
                            "pitch": 59, 
                            "t0": 26880, 
                            "v": 120, 
                            "dur": 216, 
                            "type": "note", 
                            "channel": 1
                        }
                    ]
                ], 
                [
                    26920, 
                    [
                        {
                            "pitch": 47, 
                            "t0": 26920, 
                            "v": 40, 
                            "dur": 36, 
                            "type": "note", 
                            "channel": 7
                        }
                    ]
                ], 
                [
                    26960, 
                    [
                        {
                            "pitch": 47, 
                            "t0": 26960, 
                            "v": 40, 
                            "dur": 36, 
                            "type": "note", 
                            "channel": 7
                        }
                    ]
                ], 
                [
                    27000, 
                    [
                        {
                            "pitch": 47, 
                            "t0": 27000, 
                            "v": 40, 
                            "dur": 36, 
                            "type": "note", 
                            "channel": 7
                        }
                    ]
                ], 
                [
                    27040, 
                    [
                        {
                            "pitch": 47, 
                            "t0": 27040, 
                            "v": 40, 
                            "dur": 36, 
                            "type": "note", 
                            "channel": 7
                        }
                    ]
                ], 
                [
                    27080, 
                    [
                        {
                            "pitch": 47, 
                            "t0": 27080, 
                            "v": 40, 
                            "dur": 36, 
                            "type": "note", 
                            "channel": 7
                        }
                    ]
                ], 
                [
                    27120, 
                    [
                        {
                            "pitch": 47, 
                            "t0": 27120, 
                            "parts": [
                                [
                                    27120, 
                                    120
                                ], 
                                [
                                    27120, 
                                    40
                                ], 
                                [
                                    27156, 
                                    0
                                ]
                            ], 
                            "v": 120, 
                            "dur": 36, 
                            "type": "note", 
                            "channel": 1
                        }
                    ]
                ], 
                [
                    27160, 
                    [
                        {
                            "pitch": 47, 
                            "t0": 27160, 
                            "v": 40, 
                            "dur": 36, 
                            "type": "note", 
                            "channel": 7
                        }
                    ]
                ], 
                [
                    27200, 
                    [
                        {
                            "pitch": 47, 
                            "t0": 27200, 
                            "v": 40, 
                            "dur": 36, 
                            "type": "note", 
                            "channel": 7
                        }
                    ]
                ], 
                [
                    27240, 
                    [
                        {
                            "pitch": 47, 
                            "t0": 27240, 
                            "v": 40, 
                            "dur": 36, 
                            "type": "note", 
                            "channel": 7
                        }
                    ]
                ], 
                [
                    27280, 
                    [
                        {
                            "pitch": 47, 
                            "t0": 27280, 
                            "v": 40, 
                            "dur": 36, 
                            "type": "note", 
                            "channel": 7
                        }
                    ]
                ], 
                [
                    27320, 
                    [
                        {
                            "pitch": 47, 
                            "t0": 27320, 
                            "v": 40, 
                            "dur": 16, 
                            "type": "note", 
                            "channel": 7
                        }
                    ]
                ], 
                [
                    27360, 
                    [
                        {
                            "pitch": 47, 
                            "t0": 27360, 
                            "v": 40, 
                            "dur": 36, 
                            "type": "note", 
                            "channel": 7
                        }, 
                        {
                            "pitch": 59, 
                            "t0": 27360, 
                            "v": 120, 
                            "dur": 216, 
                            "type": "note", 
                            "channel": 1
                        }
                    ]
                ], 
                [
                    27400, 
                    [
                        {
                            "pitch": 47, 
                            "t0": 27400, 
                            "v": 40, 
                            "dur": 36, 
                            "type": "note", 
                            "channel": 7
                        }
                    ]
                ], 
                [
                    27440, 
                    [
                        {
                            "pitch": 47, 
                            "t0": 27440, 
                            "v": 40, 
                            "dur": 36, 
                            "type": "note", 
                            "channel": 7
                        }
                    ]
                ], 
                [
                    27480, 
                    [
                        {
                            "pitch": 47, 
                            "t0": 27480, 
                            "v": 40, 
                            "dur": 36, 
                            "type": "note", 
                            "channel": 7
                        }
                    ]
                ], 
                [
                    27520, 
                    [
                        {
                            "pitch": 47, 
                            "t0": 27520, 
                            "v": 40, 
                            "dur": 36, 
                            "type": "note", 
                            "channel": 7
                        }
                    ]
                ], 
                [
                    27560, 
                    [
                        {
                            "pitch": 47, 
                            "t0": 27560, 
                            "v": 40, 
                            "dur": 36, 
                            "type": "note", 
                            "channel": 7
                        }
                    ]
                ], 
                [
                    27600, 
                    [
                        {
                            "pitch": 47, 
                            "t0": 27600, 
                            "v": 40, 
                            "dur": 36, 
                            "type": "note", 
                            "channel": 7
                        }, 
                        {
                            "pitch": 56, 
                            "t0": 27600, 
                            "v": 120, 
                            "dur": 216, 
                            "type": "note", 
                            "channel": 1
                        }
                    ]
                ], 
                [
                    27640, 
                    [
                        {
                            "pitch": 47, 
                            "t0": 27640, 
                            "v": 40, 
                            "dur": 36, 
                            "type": "note", 
                            "channel": 7
                        }
                    ]
                ], 
                [
                    27680, 
                    [
                        {
                            "pitch": 47, 
                            "t0": 27680, 
                            "v": 40, 
                            "dur": 36, 
                            "type": "note", 
                            "channel": 7
                        }
                    ]
                ], 
                [
                    27720, 
                    [
                        {
                            "pitch": 47, 
                            "t0": 27720, 
                            "v": 40, 
                            "dur": 36, 
                            "type": "note", 
                            "channel": 7
                        }
                    ]
                ], 
                [
                    27760, 
                    [
                        {
                            "pitch": 47, 
                            "t0": 27760, 
                            "v": 40, 
                            "dur": 36, 
                            "type": "note", 
                            "channel": 7
                        }
                    ]
                ], 
                [
                    27800, 
                    [
                        {
                            "pitch": 47, 
                            "t0": 27800, 
                            "v": 40, 
                            "dur": 76, 
                            "type": "note", 
                            "channel": 7
                        }
                    ]
                ], 
                [
                    27840, 
                    [
                        {
                            "pitch": 81, 
                            "t0": 27840, 
                            "v": 104, 
                            "dur": 64, 
                            "type": "note", 
                            "channel": 2
                        }, 
                        {
                            "pitch": 76, 
                            "t0": 27840, 
                            "v": 104, 
                            "dur": 144, 
                            "type": "note", 
                            "channel": 2
                        }, 
                        {
                            "pitch": 57, 
                            "t0": 27840, 
                            "v": 120, 
                            "dur": 216, 
                            "type": "note", 
                            "channel": 1
                        }, 
                        {
                            "pitch": 45, 
                            "t0": 27840, 
                            "v": 104, 
                            "dur": 864, 
                            "type": "note", 
                            "channel": 6
                        }
                    ]
                ], 
                [
                    27880, 
                    [
                        {
                            "pitch": 47, 
                            "t0": 27880, 
                            "v": 40, 
                            "dur": 36, 
                            "type": "note", 
                            "channel": 7
                        }
                    ]
                ], 
                [
                    27920, 
                    [
                        {
                            "pitch": 47, 
                            "t0": 27920, 
                            "v": 40, 
                            "dur": 36, 
                            "type": "note", 
                            "channel": 7
                        }
                    ]
                ], 
                [
                    27960, 
                    [
                        {
                            "pitch": 47, 
                            "t0": 27960, 
                            "v": 40, 
                            "dur": 36, 
                            "type": "note", 
                            "channel": 7
                        }
                    ]
                ], 
                [
                    28000, 
                    [
                        {
                            "pitch": 47, 
                            "t0": 28000, 
                            "v": 40, 
                            "dur": 36, 
                            "type": "note", 
                            "channel": 7
                        }
                    ]
                ], 
                [
                    28040, 
                    [
                        {
                            "pitch": 47, 
                            "t0": 28040, 
                            "v": 40, 
                            "dur": 36, 
                            "type": "note", 
                            "channel": 7
                        }
                    ]
                ], 
                [
                    28080, 
                    [
                        {
                            "pitch": 47, 
                            "t0": 28080, 
                            "parts": [
                                [
                                    28080, 
                                    120
                                ], 
                                [
                                    28080, 
                                    40
                                ], 
                                [
                                    28116, 
                                    0
                                ]
                            ], 
                            "v": 120, 
                            "dur": 36, 
                            "type": "note", 
                            "channel": 1
                        }, 
                        {
                            "pitch": 68, 
                            "t0": 28080, 
                            "v": 88, 
                            "dur": 1632, 
                            "type": "note", 
                            "channel": 8
                        }
                    ]
                ], 
                [
                    28120, 
                    [
                        {
                            "pitch": 47, 
                            "t0": 28120, 
                            "v": 40, 
                            "dur": 36, 
                            "type": "note", 
                            "channel": 7
                        }
                    ]
                ], 
                [
                    28160, 
                    [
                        {
                            "pitch": 47, 
                            "t0": 28160, 
                            "v": 40, 
                            "dur": 36, 
                            "type": "note", 
                            "channel": 7
                        }
                    ]
                ], 
                [
                    28200, 
                    [
                        {
                            "pitch": 47, 
                            "t0": 28200, 
                            "v": 40, 
                            "dur": 36, 
                            "type": "note", 
                            "channel": 7
                        }
                    ]
                ], 
                [
                    28240, 
                    [
                        {
                            "pitch": 47, 
                            "t0": 28240, 
                            "v": 40, 
                            "dur": 36, 
                            "type": "note", 
                            "channel": 7
                        }
                    ]
                ], 
                [
                    28280, 
                    [
                        {
                            "pitch": 47, 
                            "t0": 28280, 
                            "v": 40, 
                            "dur": 16, 
                            "type": "note", 
                            "channel": 7
                        }
                    ]
                ], 
                [
                    28320, 
                    [
                        {
                            "pitch": 47, 
                            "t0": 28320, 
                            "v": 40, 
                            "dur": 36, 
                            "type": "note", 
                            "channel": 7
                        }, 
                        {
                            "pitch": 59, 
                            "t0": 28320, 
                            "v": 120, 
                            "dur": 216, 
                            "type": "note", 
                            "channel": 1
                        }
                    ]
                ], 
                [
                    28360, 
                    [
                        {
                            "pitch": 47, 
                            "t0": 28360, 
                            "v": 40, 
                            "dur": 36, 
                            "type": "note", 
                            "channel": 7
                        }
                    ]
                ], 
                [
                    28400, 
                    [
                        {
                            "pitch": 47, 
                            "t0": 28400, 
                            "v": 40, 
                            "dur": 36, 
                            "type": "note", 
                            "channel": 7
                        }
                    ]
                ], 
                [
                    28440, 
                    [
                        {
                            "pitch": 47, 
                            "t0": 28440, 
                            "v": 40, 
                            "dur": 36, 
                            "type": "note", 
                            "channel": 7
                        }
                    ]
                ], 
                [
                    28480, 
                    [
                        {
                            "pitch": 47, 
                            "t0": 28480, 
                            "v": 40, 
                            "dur": 36, 
                            "type": "note", 
                            "channel": 7
                        }
                    ]
                ], 
                [
                    28520, 
                    [
                        {
                            "pitch": 47, 
                            "t0": 28520, 
                            "v": 40, 
                            "dur": 36, 
                            "type": "note", 
                            "channel": 7
                        }
                    ]
                ], 
                [
                    28560, 
                    [
                        {
                            "pitch": 47, 
                            "t0": 28560, 
                            "parts": [
                                [
                                    28560, 
                                    120
                                ], 
                                [
                                    28560, 
                                    40
                                ], 
                                [
                                    28596, 
                                    0
                                ]
                            ], 
                            "v": 120, 
                            "dur": 36, 
                            "type": "note", 
                            "channel": 1
                        }
                    ]
                ], 
                [
                    28600, 
                    [
                        {
                            "pitch": 47, 
                            "t0": 28600, 
                            "v": 40, 
                            "dur": 36, 
                            "type": "note", 
                            "channel": 7
                        }
                    ]
                ], 
                [
                    28640, 
                    [
                        {
                            "pitch": 47, 
                            "t0": 28640, 
                            "v": 40, 
                            "dur": 36, 
                            "type": "note", 
                            "channel": 7
                        }
                    ]
                ], 
                [
                    28680, 
                    [
                        {
                            "pitch": 47, 
                            "t0": 28680, 
                            "v": 40, 
                            "dur": 36, 
                            "type": "note", 
                            "channel": 7
                        }
                    ]
                ], 
                [
                    28720, 
                    [
                        {
                            "pitch": 47, 
                            "t0": 28720, 
                            "v": 40, 
                            "dur": 36, 
                            "type": "note", 
                            "channel": 7
                        }
                    ]
                ], 
                [
                    28760, 
                    [
                        {
                            "pitch": 47, 
                            "t0": 28760, 
                            "v": 40, 
                            "dur": 16, 
                            "type": "note", 
                            "channel": 7
                        }
                    ]
                ], 
                [
                    28800, 
                    [
                        {
                            "pitch": 47, 
                            "t0": 28800, 
                            "v": 40, 
                            "dur": 36, 
                            "type": "note", 
                            "channel": 7
                        }, 
                        {
                            "pitch": 59, 
                            "t0": 28800, 
                            "v": 120, 
                            "dur": 216, 
                            "type": "note", 
                            "channel": 1
                        }, 
                        {
                            "pitch": 40, 
                            "t0": 28800, 
                            "v": 104, 
                            "dur": 1728, 
                            "type": "note", 
                            "channel": 6
                        }, 
                        {
                            "pitch": 64, 
                            "t0": 28800, 
                            "parts": [
                                [
                                    28800, 
                                    104
                                ], 
                                [
                                    29040, 
                                    88
                                ], 
                                [
                                    30624, 
                                    0
                                ]
                            ], 
                            "v": 104, 
                            "dur": 1824, 
                            "type": "note", 
                            "channel": 2
                        }, 
                        {
                            "pitch": 83, 
                            "t0": 28800, 
                            "v": 104, 
                            "dur": 1824, 
                            "type": "note", 
                            "channel": 2
                        }, 
                        {
                            "pitch": 76, 
                            "t0": 28800, 
                            "v": 88, 
                            "dur": 1872, 
                            "type": "note", 
                            "channel": 4
                        }
                    ]
                ], 
                [
                    28840, 
                    [
                        {
                            "pitch": 47, 
                            "t0": 28840, 
                            "v": 40, 
                            "dur": 36, 
                            "type": "note", 
                            "channel": 7
                        }
                    ]
                ], 
                [
                    28880, 
                    [
                        {
                            "pitch": 47, 
                            "t0": 28880, 
                            "v": 40, 
                            "dur": 36, 
                            "type": "note", 
                            "channel": 7
                        }, 
                        {
                            "pitch": 71, 
                            "t0": 28880, 
                            "v": 88, 
                            "dur": 1872, 
                            "type": "note", 
                            "channel": 4
                        }
                    ]
                ], 
                [
                    28920, 
                    [
                        {
                            "pitch": 47, 
                            "t0": 28920, 
                            "v": 40, 
                            "dur": 36, 
                            "type": "note", 
                            "channel": 7
                        }
                    ]
                ], 
                [
                    28960, 
                    [
                        {
                            "pitch": 47, 
                            "t0": 28960, 
                            "v": 40, 
                            "dur": 36, 
                            "type": "note", 
                            "channel": 7
                        }, 
                        {
                            "pitch": 69, 
                            "t0": 28960, 
                            "v": 88, 
                            "dur": 1872, 
                            "type": "note", 
                            "channel": 4
                        }
                    ]
                ], 
                [
                    29000, 
                    [
                        {
                            "pitch": 47, 
                            "t0": 29000, 
                            "v": 40, 
                            "dur": 36, 
                            "type": "note", 
                            "channel": 7
                        }
                    ]
                ], 
                [
                    29040, 
                    [
                        {
                            "pitch": 47, 
                            "t0": 29040, 
                            "parts": [
                                [
                                    29040, 
                                    120
                                ], 
                                [
                                    29040, 
                                    40
                                ], 
                                [
                                    29076, 
                                    0
                                ]
                            ], 
                            "v": 120, 
                            "dur": 36, 
                            "type": "note", 
                            "channel": 1
                        }
                    ]
                ], 
                [
                    29080, 
                    [
                        {
                            "pitch": 47, 
                            "t0": 29080, 
                            "v": 40, 
                            "dur": 36, 
                            "type": "note", 
                            "channel": 7
                        }
                    ]
                ], 
                [
                    29120, 
                    [
                        {
                            "pitch": 47, 
                            "t0": 29120, 
                            "v": 40, 
                            "dur": 36, 
                            "type": "note", 
                            "channel": 7
                        }
                    ]
                ], 
                [
                    29160, 
                    [
                        {
                            "pitch": 47, 
                            "t0": 29160, 
                            "v": 40, 
                            "dur": 36, 
                            "type": "note", 
                            "channel": 7
                        }
                    ]
                ], 
                [
                    29200, 
                    [
                        {
                            "pitch": 47, 
                            "t0": 29200, 
                            "v": 40, 
                            "dur": 36, 
                            "type": "note", 
                            "channel": 7
                        }
                    ]
                ], 
                [
                    29240, 
                    [
                        {
                            "pitch": 47, 
                            "t0": 29240, 
                            "v": 40, 
                            "dur": 16, 
                            "type": "note", 
                            "channel": 7
                        }
                    ]
                ], 
                [
                    29280, 
                    [
                        {
                            "pitch": 47, 
                            "t0": 29280, 
                            "v": 40, 
                            "dur": 36, 
                            "type": "note", 
                            "channel": 7
                        }, 
                        {
                            "pitch": 56, 
                            "t0": 29280, 
                            "v": 120, 
                            "dur": 216, 
                            "type": "note", 
                            "channel": 1
                        }
                    ]
                ], 
                [
                    29320, 
                    [
                        {
                            "pitch": 47, 
                            "t0": 29320, 
                            "v": 40, 
                            "dur": 36, 
                            "type": "note", 
                            "channel": 7
                        }
                    ]
                ], 
                [
                    29360, 
                    [
                        {
                            "pitch": 47, 
                            "t0": 29360, 
                            "v": 40, 
                            "dur": 36, 
                            "type": "note", 
                            "channel": 7
                        }
                    ]
                ], 
                [
                    29400, 
                    [
                        {
                            "pitch": 47, 
                            "t0": 29400, 
                            "v": 40, 
                            "dur": 36, 
                            "type": "note", 
                            "channel": 7
                        }
                    ]
                ], 
                [
                    29440, 
                    [
                        {
                            "pitch": 47, 
                            "t0": 29440, 
                            "v": 40, 
                            "dur": 36, 
                            "type": "note", 
                            "channel": 7
                        }
                    ]
                ], 
                [
                    29480, 
                    [
                        {
                            "pitch": 47, 
                            "t0": 29480, 
                            "v": 40, 
                            "dur": 36, 
                            "type": "note", 
                            "channel": 7
                        }
                    ]
                ], 
                [
                    29520, 
                    [
                        {
                            "pitch": 47, 
                            "t0": 29520, 
                            "v": 40, 
                            "dur": 36, 
                            "type": "note", 
                            "channel": 7
                        }, 
                        {
                            "pitch": 59, 
                            "t0": 29520, 
                            "v": 120, 
                            "dur": 216, 
                            "type": "note", 
                            "channel": 1
                        }
                    ]
                ], 
                [
                    29560, 
                    [
                        {
                            "pitch": 47, 
                            "t0": 29560, 
                            "v": 40, 
                            "dur": 36, 
                            "type": "note", 
                            "channel": 7
                        }
                    ]
                ], 
                [
                    29600, 
                    [
                        {
                            "pitch": 47, 
                            "t0": 29600, 
                            "v": 40, 
                            "dur": 36, 
                            "type": "note", 
                            "channel": 7
                        }
                    ]
                ], 
                [
                    29640, 
                    [
                        {
                            "pitch": 47, 
                            "t0": 29640, 
                            "v": 40, 
                            "dur": 36, 
                            "type": "note", 
                            "channel": 7
                        }
                    ]
                ], 
                [
                    29680, 
                    [
                        {
                            "pitch": 47, 
                            "t0": 29680, 
                            "v": 40, 
                            "dur": 36, 
                            "type": "note", 
                            "channel": 7
                        }
                    ]
                ], 
                [
                    29720, 
                    [
                        {
                            "pitch": 47, 
                            "t0": 29720, 
                            "v": 40, 
                            "dur": 76, 
                            "type": "note", 
                            "channel": 7
                        }
                    ]
                ], 
                [
                    29760, 
                    [
                        {
                            "pitch": 57, 
                            "t0": 29760, 
                            "v": 120, 
                            "dur": 216, 
                            "type": "note", 
                            "channel": 1
                        }
                    ]
                ], 
                [
                    29800, 
                    [
                        {
                            "pitch": 47, 
                            "t0": 29800, 
                            "v": 40, 
                            "dur": 36, 
                            "type": "note", 
                            "channel": 7
                        }
                    ]
                ], 
                [
                    29840, 
                    [
                        {
                            "pitch": 47, 
                            "t0": 29840, 
                            "v": 40, 
                            "dur": 36, 
                            "type": "note", 
                            "channel": 7
                        }
                    ]
                ], 
                [
                    29880, 
                    [
                        {
                            "pitch": 47, 
                            "t0": 29880, 
                            "v": 40, 
                            "dur": 36, 
                            "type": "note", 
                            "channel": 7
                        }
                    ]
                ], 
                [
                    29920, 
                    [
                        {
                            "pitch": 47, 
                            "t0": 29920, 
                            "v": 40, 
                            "dur": 36, 
                            "type": "note", 
                            "channel": 7
                        }
                    ]
                ], 
                [
                    29960, 
                    [
                        {
                            "pitch": 47, 
                            "t0": 29960, 
                            "v": 40, 
                            "dur": 36, 
                            "type": "note", 
                            "channel": 7
                        }
                    ]
                ], 
                [
                    30000, 
                    [
                        {
                            "pitch": 47, 
                            "t0": 30000, 
                            "v": 40, 
                            "dur": 36, 
                            "type": "note", 
                            "channel": 7
                        }, 
                        {
                            "pitch": 56, 
                            "t0": 30000, 
                            "v": 120, 
                            "dur": 216, 
                            "type": "note", 
                            "channel": 1
                        }
                    ]
                ], 
                [
                    30040, 
                    [
                        {
                            "pitch": 47, 
                            "t0": 30040, 
                            "v": 40, 
                            "dur": 36, 
                            "type": "note", 
                            "channel": 7
                        }
                    ]
                ], 
                [
                    30080, 
                    [
                        {
                            "pitch": 47, 
                            "t0": 30080, 
                            "v": 40, 
                            "dur": 36, 
                            "type": "note", 
                            "channel": 7
                        }
                    ]
                ], 
                [
                    30120, 
                    [
                        {
                            "pitch": 47, 
                            "t0": 30120, 
                            "v": 40, 
                            "dur": 36, 
                            "type": "note", 
                            "channel": 7
                        }
                    ]
                ], 
                [
                    30160, 
                    [
                        {
                            "pitch": 47, 
                            "t0": 30160, 
                            "v": 40, 
                            "dur": 36, 
                            "type": "note", 
                            "channel": 7
                        }
                    ]
                ], 
                [
                    30200, 
                    [
                        {
                            "pitch": 47, 
                            "t0": 30200, 
                            "v": 40, 
                            "dur": 36, 
                            "type": "note", 
                            "channel": 7
                        }
                    ]
                ], 
                [
                    30240, 
                    [
                        {
                            "pitch": 47, 
                            "t0": 30240, 
                            "v": 40, 
                            "dur": 36, 
                            "type": "note", 
                            "channel": 7
                        }, 
                        {
                            "pitch": 54, 
                            "t0": 30240, 
                            "v": 120, 
                            "dur": 216, 
                            "type": "note", 
                            "channel": 1
                        }
                    ]
                ], 
                [
                    30280, 
                    [
                        {
                            "pitch": 47, 
                            "t0": 30280, 
                            "v": 40, 
                            "dur": 36, 
                            "type": "note", 
                            "channel": 7
                        }
                    ]
                ], 
                [
                    30320, 
                    [
                        {
                            "pitch": 47, 
                            "t0": 30320, 
                            "v": 40, 
                            "dur": 36, 
                            "type": "note", 
                            "channel": 7
                        }
                    ]
                ], 
                [
                    30360, 
                    [
                        {
                            "pitch": 47, 
                            "t0": 30360, 
                            "v": 40, 
                            "dur": 36, 
                            "type": "note", 
                            "channel": 7
                        }
                    ]
                ], 
                [
                    30400, 
                    [
                        {
                            "pitch": 47, 
                            "t0": 30400, 
                            "v": 40, 
                            "dur": 36, 
                            "type": "note", 
                            "channel": 7
                        }
                    ]
                ], 
                [
                    30440, 
                    [
                        {
                            "pitch": 47, 
                            "t0": 30440, 
                            "v": 40, 
                            "dur": 36, 
                            "type": "note", 
                            "channel": 7
                        }
                    ]
                ], 
                [
                    30480, 
                    [
                        {
                            "pitch": 47, 
                            "t0": 30480, 
                            "v": 40, 
                            "dur": 36, 
                            "type": "note", 
                            "channel": 7
                        }, 
                        {
                            "pitch": 51, 
                            "t0": 30480, 
                            "v": 120, 
                            "dur": 216, 
                            "type": "note", 
                            "channel": 1
                        }
                    ]
                ], 
                [
                    30520, 
                    [
                        {
                            "pitch": 47, 
                            "t0": 30520, 
                            "v": 40, 
                            "dur": 36, 
                            "type": "note", 
                            "channel": 7
                        }
                    ]
                ], 
                [
                    30560, 
                    [
                        {
                            "pitch": 47, 
                            "t0": 30560, 
                            "v": 40, 
                            "dur": 36, 
                            "type": "note", 
                            "channel": 7
                        }
                    ]
                ], 
                [
                    30600, 
                    [
                        {
                            "pitch": 47, 
                            "t0": 30600, 
                            "v": 40, 
                            "dur": 36, 
                            "type": "note", 
                            "channel": 7
                        }
                    ]
                ], 
                [
                    30640, 
                    [
                        {
                            "pitch": 47, 
                            "t0": 30640, 
                            "v": 40, 
                            "dur": 36, 
                            "type": "note", 
                            "channel": 7
                        }
                    ]
                ], 
                [
                    30680, 
                    [
                        {
                            "pitch": 47, 
                            "t0": 30680, 
                            "parts": [
                                [
                                    30680, 
                                    40
                                ], 
                                [
                                    30720, 
                                    104
                                ], 
                                [
                                    30756, 
                                    0
                                ]
                            ], 
                            "v": 40, 
                            "dur": 76, 
                            "type": "note", 
                            "channel": 7
                        }
                    ]
                ], 
                [
                    30720, 
                    [
                        {
                            "pitch": 54, 
                            "t0": 30720, 
                            "v": 120, 
                            "dur": 216, 
                            "type": "note", 
                            "channel": 1
                        }, 
                        {
                            "pitch": 75, 
                            "t0": 30720, 
                            "v": 104, 
                            "dur": 912, 
                            "type": "note", 
                            "channel": 2
                        }, 
                        {
                            "pitch": 78, 
                            "t0": 30720, 
                            "v": 104, 
                            "dur": 912, 
                            "type": "note", 
                            "channel": 2
                        }
                    ]
                ], 
                [
                    30760, 
                    [
                        {
                            "pitch": 47, 
                            "t0": 30760, 
                            "v": 40, 
                            "dur": 36, 
                            "type": "note", 
                            "channel": 7
                        }
                    ]
                ], 
                [
                    30800, 
                    [
                        {
                            "pitch": 47, 
                            "t0": 30800, 
                            "v": 40, 
                            "dur": 36, 
                            "type": "note", 
                            "channel": 7
                        }
                    ]
                ], 
                [
                    30840, 
                    [
                        {
                            "pitch": 47, 
                            "t0": 30840, 
                            "v": 40, 
                            "dur": 36, 
                            "type": "note", 
                            "channel": 7
                        }
                    ]
                ], 
                [
                    30880, 
                    [
                        {
                            "pitch": 47, 
                            "t0": 30880, 
                            "v": 40, 
                            "dur": 36, 
                            "type": "note", 
                            "channel": 7
                        }
                    ]
                ], 
                [
                    30920, 
                    [
                        {
                            "pitch": 47, 
                            "t0": 30920, 
                            "v": 40, 
                            "dur": 36, 
                            "type": "note", 
                            "channel": 7
                        }
                    ]
                ], 
                [
                    30960, 
                    [
                        {
                            "pitch": 47, 
                            "t0": 30960, 
                            "v": 40, 
                            "dur": 36, 
                            "type": "note", 
                            "channel": 7
                        }, 
                        {
                            "pitch": 58, 
                            "t0": 30960, 
                            "v": 120, 
                            "dur": 216, 
                            "type": "note", 
                            "channel": 1
                        }
                    ]
                ], 
                [
                    31000, 
                    [
                        {
                            "pitch": 47, 
                            "t0": 31000, 
                            "v": 40, 
                            "dur": 36, 
                            "type": "note", 
                            "channel": 7
                        }
                    ]
                ], 
                [
                    31040, 
                    [
                        {
                            "pitch": 47, 
                            "t0": 31040, 
                            "v": 40, 
                            "dur": 36, 
                            "type": "note", 
                            "channel": 7
                        }
                    ]
                ], 
                [
                    31080, 
                    [
                        {
                            "pitch": 47, 
                            "t0": 31080, 
                            "v": 40, 
                            "dur": 36, 
                            "type": "note", 
                            "channel": 7
                        }
                    ]
                ], 
                [
                    31120, 
                    [
                        {
                            "pitch": 47, 
                            "t0": 31120, 
                            "v": 40, 
                            "dur": 36, 
                            "type": "note", 
                            "channel": 7
                        }
                    ]
                ], 
                [
                    31160, 
                    [
                        {
                            "pitch": 47, 
                            "t0": 31160, 
                            "v": 40, 
                            "dur": 36, 
                            "type": "note", 
                            "channel": 7
                        }
                    ]
                ], 
                [
                    31200, 
                    [
                        {
                            "pitch": 47, 
                            "t0": 31200, 
                            "v": 40, 
                            "dur": 36, 
                            "type": "note", 
                            "channel": 7
                        }, 
                        {
                            "pitch": 51, 
                            "t0": 31200, 
                            "v": 120, 
                            "dur": 216, 
                            "type": "note", 
                            "channel": 1
                        }
                    ]
                ], 
                [
                    31240, 
                    [
                        {
                            "pitch": 47, 
                            "t0": 31240, 
                            "v": 40, 
                            "dur": 36, 
                            "type": "note", 
                            "channel": 7
                        }
                    ]
                ], 
                [
                    31280, 
                    [
                        {
                            "pitch": 47, 
                            "t0": 31280, 
                            "v": 40, 
                            "dur": 36, 
                            "type": "note", 
                            "channel": 7
                        }
                    ]
                ], 
                [
                    31320, 
                    [
                        {
                            "pitch": 47, 
                            "t0": 31320, 
                            "v": 40, 
                            "dur": 36, 
                            "type": "note", 
                            "channel": 7
                        }
                    ]
                ], 
                [
                    31360, 
                    [
                        {
                            "pitch": 47, 
                            "t0": 31360, 
                            "v": 40, 
                            "dur": 36, 
                            "type": "note", 
                            "channel": 7
                        }
                    ]
                ], 
                [
                    31400, 
                    [
                        {
                            "pitch": 47, 
                            "t0": 31400, 
                            "v": 40, 
                            "dur": 36, 
                            "type": "note", 
                            "channel": 7
                        }
                    ]
                ], 
                [
                    31440, 
                    [
                        {
                            "pitch": 47, 
                            "t0": 31440, 
                            "v": 40, 
                            "dur": 36, 
                            "type": "note", 
                            "channel": 7
                        }, 
                        {
                            "pitch": 54, 
                            "t0": 31440, 
                            "v": 120, 
                            "dur": 216, 
                            "type": "note", 
                            "channel": 1
                        }
                    ]
                ], 
                [
                    31480, 
                    [
                        {
                            "pitch": 47, 
                            "t0": 31480, 
                            "v": 40, 
                            "dur": 36, 
                            "type": "note", 
                            "channel": 7
                        }
                    ]
                ], 
                [
                    31520, 
                    [
                        {
                            "pitch": 47, 
                            "t0": 31520, 
                            "v": 40, 
                            "dur": 36, 
                            "type": "note", 
                            "channel": 7
                        }
                    ]
                ], 
                [
                    31560, 
                    [
                        {
                            "pitch": 47, 
                            "t0": 31560, 
                            "v": 40, 
                            "dur": 24, 
                            "type": "note", 
                            "channel": 7
                        }
                    ]
                ], 
                [
                    31600, 
                    [
                        {
                            "pitch": 47, 
                            "t0": 31600, 
                            "v": 40, 
                            "dur": 36, 
                            "type": "note", 
                            "channel": 7
                        }
                    ]
                ], 
                [
                    31640, 
                    [
                        {
                            "pitch": 47, 
                            "t0": 31640, 
                            "v": 40, 
                            "dur": 36, 
                            "type": "note", 
                            "channel": 7
                        }
                    ]
                ], 
                [
                    31680, 
                    [
                        {
                            "pitch": 47, 
                            "t0": 31680, 
                            "v": 40, 
                            "dur": 36, 
                            "type": "note", 
                            "channel": 7
                        }, 
                        {
                            "pitch": 52, 
                            "t0": 31680, 
                            "v": 120, 
                            "dur": 432, 
                            "type": "note", 
                            "channel": 1
                        }, 
                        {
                            "pitch": 40, 
                            "t0": 31680, 
                            "v": 104, 
                            "dur": 864, 
                            "type": "note", 
                            "channel": 6
                        }, 
                        {
                            "pitch": 76, 
                            "t0": 31680, 
                            "v": 104, 
                            "dur": 912, 
                            "type": "note", 
                            "channel": 2
                        }, 
                        {
                            "pitch": 80, 
                            "t0": 31680, 
                            "v": 104, 
                            "dur": 912, 
                            "type": "note", 
                            "channel": 2
                        }
                    ]
                ], 
                [
                    31720, 
                    [
                        {
                            "pitch": 47, 
                            "t0": 31720, 
                            "v": 40, 
                            "dur": 36, 
                            "type": "note", 
                            "channel": 7
                        }
                    ]
                ], 
                [
                    31760, 
                    [
                        {
                            "pitch": 47, 
                            "t0": 31760, 
                            "v": 40, 
                            "dur": 36, 
                            "type": "note", 
                            "channel": 7
                        }
                    ]
                ], 
                [
                    31800, 
                    [
                        {
                            "pitch": 47, 
                            "t0": 31800, 
                            "v": 40, 
                            "dur": 36, 
                            "type": "note", 
                            "channel": 7
                        }
                    ]
                ], 
                [
                    31840, 
                    [
                        {
                            "pitch": 47, 
                            "t0": 31840, 
                            "v": 40, 
                            "dur": 36, 
                            "type": "note", 
                            "channel": 7
                        }
                    ]
                ], 
                [
                    31880, 
                    [
                        {
                            "pitch": 47, 
                            "t0": 31880, 
                            "v": 40, 
                            "dur": 36, 
                            "type": "note", 
                            "channel": 7
                        }
                    ]
                ], 
                [
                    31920, 
                    [
                        {
                            "pitch": 47, 
                            "t0": 31920, 
                            "v": 40, 
                            "dur": 36, 
                            "type": "note", 
                            "channel": 7
                        }
                    ]
                ], 
                [
                    31960, 
                    [
                        {
                            "pitch": 47, 
                            "t0": 31960, 
                            "v": 40, 
                            "dur": 36, 
                            "type": "note", 
                            "channel": 7
                        }
                    ]
                ], 
                [
                    32000, 
                    [
                        {
                            "pitch": 47, 
                            "t0": 32000, 
                            "v": 40, 
                            "dur": 36, 
                            "type": "note", 
                            "channel": 7
                        }
                    ]
                ], 
                [
                    32040, 
                    [
                        {
                            "pitch": 47, 
                            "t0": 32040, 
                            "v": 40, 
                            "dur": 36, 
                            "type": "note", 
                            "channel": 7
                        }
                    ]
                ], 
                [
                    32080, 
                    [
                        {
                            "pitch": 47, 
                            "t0": 32080, 
                            "v": 40, 
                            "dur": 36, 
                            "type": "note", 
                            "channel": 7
                        }
                    ]
                ], 
                [
                    32120, 
                    [
                        {
                            "pitch": 47, 
                            "t0": 32120, 
                            "v": 40, 
                            "dur": 36, 
                            "type": "note", 
                            "channel": 7
                        }
                    ]
                ], 
                [
                    32160, 
                    [
                        {
                            "pitch": 47, 
                            "t0": 32160, 
                            "parts": [
                                [
                                    32160, 
                                    120
                                ], 
                                [
                                    32160, 
                                    40
                                ], 
                                [
                                    32196, 
                                    0
                                ]
                            ], 
                            "v": 120, 
                            "dur": 36, 
                            "type": "note", 
                            "channel": 1
                        }, 
                        {
                            "pitch": 59, 
                            "t0": 32160, 
                            "parts": [
                                [
                                    32160, 
                                    120
                                ], 
                                [
                                    32160, 
                                    104
                                ], 
                                [
                                    32388, 
                                    0
                                ]
                            ], 
                            "v": 120, 
                            "dur": 228, 
                            "type": "note", 
                            "channel": 0
                        }
                    ]
                ], 
                [
                    32200, 
                    [
                        {
                            "pitch": 47, 
                            "t0": 32200, 
                            "v": 40, 
                            "dur": 36, 
                            "type": "note", 
                            "channel": 7
                        }
                    ]
                ], 
                [
                    32240, 
                    [
                        {
                            "pitch": 47, 
                            "t0": 32240, 
                            "v": 40, 
                            "dur": 36, 
                            "type": "note", 
                            "channel": 7
                        }
                    ]
                ], 
                [
                    32280, 
                    [
                        {
                            "pitch": 47, 
                            "t0": 32280, 
                            "v": 40, 
                            "dur": 36, 
                            "type": "note", 
                            "channel": 7
                        }
                    ]
                ], 
                [
                    32320, 
                    [
                        {
                            "pitch": 47, 
                            "t0": 32320, 
                            "v": 40, 
                            "dur": 36, 
                            "type": "note", 
                            "channel": 7
                        }
                    ]
                ], 
                [
                    32360, 
                    [
                        {
                            "pitch": 47, 
                            "t0": 32360, 
                            "v": 40, 
                            "dur": 16, 
                            "type": "note", 
                            "channel": 7
                        }
                    ]
                ], 
                [
                    32400, 
                    [
                        {
                            "pitch": 47, 
                            "t0": 32400, 
                            "v": 40, 
                            "dur": 36, 
                            "type": "note", 
                            "channel": 7
                        }, 
                        {
                            "pitch": 51, 
                            "t0": 32400, 
                            "v": 120, 
                            "dur": 216, 
                            "type": "note", 
                            "channel": 1
                        }, 
                        {
                            "pitch": 63, 
                            "t0": 32400, 
                            "parts": [
                                [
                                    32400, 
                                    120
                                ], 
                                [
                                    32400, 
                                    104
                                ], 
                                [
                                    32628, 
                                    0
                                ]
                            ], 
                            "v": 120, 
                            "dur": 228, 
                            "type": "note", 
                            "channel": 0
                        }
                    ]
                ], 
                [
                    32440, 
                    [
                        {
                            "pitch": 47, 
                            "t0": 32440, 
                            "v": 40, 
                            "dur": 36, 
                            "type": "note", 
                            "channel": 7
                        }
                    ]
                ], 
                [
                    32480, 
                    [
                        {
                            "pitch": 47, 
                            "t0": 32480, 
                            "v": 40, 
                            "dur": 36, 
                            "type": "note", 
                            "channel": 7
                        }
                    ]
                ], 
                [
                    32520, 
                    [
                        {
                            "pitch": 47, 
                            "t0": 32520, 
                            "v": 40, 
                            "dur": 36, 
                            "type": "note", 
                            "channel": 7
                        }
                    ]
                ], 
                [
                    32560, 
                    [
                        {
                            "pitch": 47, 
                            "t0": 32560, 
                            "v": 40, 
                            "dur": 36, 
                            "type": "note", 
                            "channel": 7
                        }
                    ]
                ], 
                [
                    32600, 
                    [
                        {
                            "pitch": 47, 
                            "t0": 32600, 
                            "v": 40, 
                            "dur": 36, 
                            "type": "note", 
                            "channel": 7
                        }
                    ]
                ], 
                [
                    32640, 
                    [
                        {
                            "pitch": 49, 
                            "t0": 32640, 
                            "v": 120, 
                            "dur": 57, 
                            "type": "note", 
                            "channel": 9
                        }, 
                        {
                            "pitch": 36, 
                            "t0": 32640, 
                            "v": 120, 
                            "dur": 57, 
                            "type": "note", 
                            "channel": 9
                        }, 
                        {
                            "pitch": 40, 
                            "t0": 32640, 
                            "v": 104, 
                            "dur": 216, 
                            "type": "note", 
                            "channel": 6
                        }, 
                        {
                            "pitch": 64, 
                            "t0": 32640, 
                            "parts": [
                                [
                                    32640, 
                                    120
                                ], 
                                [
                                    32640, 
                                    88
                                ], 
                                [
                                    32640, 
                                    104
                                ], 
                                [
                                    33072, 
                                    0
                                ]
                            ], 
                            "v": 120, 
                            "dur": 432, 
                            "type": "note", 
                            "channel": 0
                        }, 
                        {
                            "pitch": 59, 
                            "t0": 32640, 
                            "parts": [
                                [
                                    32640, 
                                    88
                                ], 
                                [
                                    33120, 
                                    120
                                ], 
                                [
                                    33336, 
                                    0
                                ]
                            ], 
                            "v": 88, 
                            "dur": 696, 
                            "type": "note", 
                            "channel": 4
                        }, 
                        {
                            "pitch": 68, 
                            "t0": 32640, 
                            "parts": [
                                [
                                    32640, 
                                    88
                                ], 
                                [
                                    33360, 
                                    120
                                ], 
                                [
                                    33360, 
                                    104
                                ], 
                                [
                                    33576, 
                                    0
                                ]
                            ], 
                            "v": 88, 
                            "dur": 936, 
                            "type": "note", 
                            "channel": 4
                        }, 
                        {
                            "pitch": 71, 
                            "t0": 32640, 
                            "parts": [
                                [
                                    32640, 
                                    88
                                ], 
                                [
                                    33840, 
                                    120
                                ], 
                                [
                                    33840, 
                                    104
                                ], 
                                [
                                    34068, 
                                    0
                                ]
                            ], 
                            "v": 88, 
                            "dur": 1428, 
                            "type": "note", 
                            "channel": 4
                        }, 
                        {
                            "pitch": 76, 
                            "t0": 32640, 
                            "parts": [
                                [
                                    32640, 
                                    88
                                ], 
                                [
                                    34320, 
                                    120
                                ], 
                                [
                                    34320, 
                                    104
                                ], 
                                [
                                    34464, 
                                    0
                                ]
                            ], 
                            "v": 88, 
                            "dur": 1824, 
                            "type": "note", 
                            "channel": 4
                        }, 
                        {
                            "pitch": 54, 
                            "t0": 32640, 
                            "v": 88, 
                            "dur": 1824, 
                            "type": "note", 
                            "channel": 4
                        }
                    ]
                ], 
                [
                    32760, 
                    [
                        {
                            "pitch": 44, 
                            "t0": 32760, 
                            "v": 104, 
                            "dur": 57, 
                            "type": "note", 
                            "channel": 9
                        }
                    ]
                ], 
                [
                    32880, 
                    [
                        {
                            "pitch": 44, 
                            "t0": 32880, 
                            "v": 88, 
                            "dur": 57, 
                            "type": "note", 
                            "channel": 9
                        }
                    ]
                ], 
                [
                    33000, 
                    [
                        {
                            "pitch": 44, 
                            "t0": 33000, 
                            "v": 104, 
                            "dur": 57, 
                            "type": "note", 
                            "channel": 9
                        }, 
                        {
                            "pitch": 36, 
                            "t0": 33000, 
                            "v": 104, 
                            "dur": 57, 
                            "type": "note", 
                            "channel": 9
                        }, 
                        {
                            "pitch": 40, 
                            "t0": 33000, 
                            "v": 104, 
                            "dur": 108, 
                            "type": "note", 
                            "channel": 6
                        }
                    ]
                ], 
                [
                    33120, 
                    [
                        {
                            "pitch": 44, 
                            "t0": 33120, 
                            "v": 104, 
                            "dur": 57, 
                            "type": "note", 
                            "channel": 9
                        }
                    ]
                ], 
                [
                    33240, 
                    [
                        {
                            "pitch": 44, 
                            "t0": 33240, 
                            "v": 104, 
                            "dur": 57, 
                            "type": "note", 
                            "channel": 9
                        }
                    ]
                ], 
                [
                    33360, 
                    [
                        {
                            "pitch": 44, 
                            "t0": 33360, 
                            "v": 88, 
                            "dur": 57, 
                            "type": "note", 
                            "channel": 9
                        }
                    ]
                ], 
                [
                    33480, 
                    [
                        {
                            "pitch": 37, 
                            "t0": 33480, 
                            "v": 104, 
                            "dur": 57, 
                            "type": "note", 
                            "channel": 9
                        }, 
                        {
                            "pitch": 44, 
                            "t0": 33480, 
                            "v": 104, 
                            "dur": 57, 
                            "type": "note", 
                            "channel": 9
                        }
                    ]
                ], 
                [
                    33600, 
                    [
                        {
                            "pitch": 44, 
                            "t0": 33600, 
                            "v": 104, 
                            "dur": 57, 
                            "type": "note", 
                            "channel": 9
                        }, 
                        {
                            "pitch": 36, 
                            "t0": 33600, 
                            "v": 120, 
                            "dur": 57, 
                            "type": "note", 
                            "channel": 9
                        }, 
                        {
                            "pitch": 40, 
                            "t0": 33600, 
                            "v": 104, 
                            "dur": 108, 
                            "type": "note", 
                            "channel": 6
                        }, 
                        {
                            "pitch": 69, 
                            "t0": 33600, 
                            "parts": [
                                [
                                    33600, 
                                    120
                                ], 
                                [
                                    33600, 
                                    104
                                ], 
                                [
                                    33816, 
                                    0
                                ]
                            ], 
                            "v": 120, 
                            "dur": 216, 
                            "type": "note", 
                            "channel": 0
                        }
                    ]
                ], 
                [
                    33720, 
                    [
                        {
                            "pitch": 44, 
                            "t0": 33720, 
                            "v": 104, 
                            "dur": 57, 
                            "type": "note", 
                            "channel": 9
                        }, 
                        {
                            "pitch": 36, 
                            "t0": 33720, 
                            "v": 104, 
                            "dur": 57, 
                            "type": "note", 
                            "channel": 9
                        }, 
                        {
                            "pitch": 40, 
                            "t0": 33720, 
                            "v": 104, 
                            "dur": 108, 
                            "type": "note", 
                            "channel": 6
                        }
                    ]
                ], 
                [
                    33840, 
                    [
                        {
                            "pitch": 44, 
                            "t0": 33840, 
                            "v": 88, 
                            "dur": 57, 
                            "type": "note", 
                            "channel": 9
                        }, 
                        {
                            "pitch": 59, 
                            "t0": 33840, 
                            "v": 120, 
                            "dur": 216, 
                            "type": "note", 
                            "channel": 1
                        }
                    ]
                ], 
                [
                    33960, 
                    [
                        {
                            "pitch": 44, 
                            "t0": 33960, 
                            "v": 104, 
                            "dur": 57, 
                            "type": "note", 
                            "channel": 9
                        }, 
                        {
                            "pitch": 36, 
                            "t0": 33960, 
                            "v": 104, 
                            "dur": 57, 
                            "type": "note", 
                            "channel": 9
                        }, 
                        {
                            "pitch": 40, 
                            "t0": 33960, 
                            "v": 104, 
                            "dur": 108, 
                            "type": "note", 
                            "channel": 6
                        }
                    ]
                ], 
                [
                    34080, 
                    [
                        {
                            "pitch": 38, 
                            "t0": 34080, 
                            "v": 120, 
                            "dur": 57, 
                            "type": "note", 
                            "channel": 9
                        }, 
                        {
                            "pitch": 44, 
                            "t0": 34080, 
                            "v": 104, 
                            "dur": 57, 
                            "type": "note", 
                            "channel": 9
                        }, 
                        {
                            "pitch": 75, 
                            "t0": 34080, 
                            "parts": [
                                [
                                    34080, 
                                    120
                                ], 
                                [
                                    34080, 
                                    104
                                ], 
                                [
                                    34296, 
                                    0
                                ]
                            ], 
                            "v": 120, 
                            "dur": 216, 
                            "type": "note", 
                            "channel": 0
                        }
                    ]
                ], 
                [
                    34200, 
                    [
                        {
                            "pitch": 44, 
                            "t0": 34200, 
                            "v": 104, 
                            "dur": 57, 
                            "type": "note", 
                            "channel": 9
                        }
                    ]
                ], 
                [
                    34320, 
                    [
                        {
                            "pitch": 44, 
                            "t0": 34320, 
                            "v": 88, 
                            "dur": 57, 
                            "type": "note", 
                            "channel": 9
                        }, 
                        {
                            "pitch": 59, 
                            "t0": 34320, 
                            "v": 120, 
                            "dur": 144, 
                            "type": "note", 
                            "channel": 1
                        }
                    ]
                ], 
                [
                    34440, 
                    [
                        {
                            "pitch": 44, 
                            "t0": 34440, 
                            "v": 104, 
                            "dur": 57, 
                            "type": "note", 
                            "channel": 9
                        }
                    ]
                ], 
                [
                    34560, 
                    [
                        {
                            "pitch": 44, 
                            "t0": 34560, 
                            "v": 104, 
                            "dur": 57, 
                            "type": "note", 
                            "channel": 9
                        }, 
                        {
                            "pitch": 36, 
                            "t0": 34560, 
                            "v": 120, 
                            "dur": 57, 
                            "type": "note", 
                            "channel": 9
                        }, 
                        {
                            "pitch": 40, 
                            "t0": 34560, 
                            "v": 104, 
                            "dur": 216, 
                            "type": "note", 
                            "channel": 6
                        }, 
                        {
                            "pitch": 71, 
                            "t0": 34560, 
                            "parts": [
                                [
                                    34560, 
                                    120
                                ], 
                                [
                                    34560, 
                                    88
                                ], 
                                [
                                    34560, 
                                    104
                                ], 
                                [
                                    34992, 
                                    0
                                ]
                            ], 
                            "v": 120, 
                            "dur": 432, 
                            "type": "note", 
                            "channel": 0
                        }, 
                        {
                            "pitch": 64, 
                            "t0": 34560, 
                            "v": 88, 
                            "dur": 912, 
                            "type": "note", 
                            "channel": 4
                        }, 
                        {
                            "pitch": 54, 
                            "t0": 34560, 
                            "v": 88, 
                            "dur": 912, 
                            "type": "note", 
                            "channel": 4
                        }, 
                        {
                            "pitch": 76, 
                            "t0": 34560, 
                            "parts": [
                                [
                                    34560, 
                                    88
                                ], 
                                [
                                    35280, 
                                    120
                                ], 
                                [
                                    35280, 
                                    104
                                ], 
                                [
                                    35472, 
                                    0
                                ]
                            ], 
                            "v": 88, 
                            "dur": 912, 
                            "type": "note", 
                            "channel": 4
                        }, 
                        {
                            "pitch": 68, 
                            "t0": 34560, 
                            "v": 88, 
                            "dur": 912, 
                            "type": "note", 
                            "channel": 4
                        }, 
                        {
                            "pitch": 59, 
                            "t0": 34560, 
                            "parts": [
                                [
                                    34560, 
                                    88
                                ], 
                                [
                                    35280, 
                                    120
                                ], 
                                [
                                    35472, 
                                    0
                                ]
                            ], 
                            "v": 88, 
                            "dur": 912, 
                            "type": "note", 
                            "channel": 4
                        }
                    ]
                ], 
                [
                    34680, 
                    [
                        {
                            "pitch": 44, 
                            "t0": 34680, 
                            "v": 104, 
                            "dur": 57, 
                            "type": "note", 
                            "channel": 9
                        }
                    ]
                ], 
                [
                    34800, 
                    [
                        {
                            "pitch": 44, 
                            "t0": 34800, 
                            "v": 88, 
                            "dur": 57, 
                            "type": "note", 
                            "channel": 9
                        }
                    ]
                ], 
                [
                    34920, 
                    [
                        {
                            "pitch": 44, 
                            "t0": 34920, 
                            "v": 104, 
                            "dur": 57, 
                            "type": "note", 
                            "channel": 9
                        }, 
                        {
                            "pitch": 36, 
                            "t0": 34920, 
                            "v": 104, 
                            "dur": 57, 
                            "type": "note", 
                            "channel": 9
                        }, 
                        {
                            "pitch": 40, 
                            "t0": 34920, 
                            "v": 104, 
                            "dur": 108, 
                            "type": "note", 
                            "channel": 6
                        }
                    ]
                ], 
                [
                    35040, 
                    [
                        {
                            "pitch": 44, 
                            "t0": 35040, 
                            "v": 104, 
                            "dur": 57, 
                            "type": "note", 
                            "channel": 9
                        }, 
                        {
                            "pitch": 75, 
                            "t0": 35040, 
                            "parts": [
                                [
                                    35040, 
                                    120
                                ], 
                                [
                                    35040, 
                                    104
                                ], 
                                [
                                    35256, 
                                    0
                                ]
                            ], 
                            "v": 120, 
                            "dur": 216, 
                            "type": "note", 
                            "channel": 0
                        }
                    ]
                ], 
                [
                    35160, 
                    [
                        {
                            "pitch": 44, 
                            "t0": 35160, 
                            "v": 104, 
                            "dur": 57, 
                            "type": "note", 
                            "channel": 9
                        }
                    ]
                ], 
                [
                    35280, 
                    [
                        {
                            "pitch": 44, 
                            "t0": 35280, 
                            "v": 88, 
                            "dur": 57, 
                            "type": "note", 
                            "channel": 9
                        }
                    ]
                ], 
                [
                    35400, 
                    [
                        {
                            "pitch": 37, 
                            "t0": 35400, 
                            "v": 104, 
                            "dur": 57, 
                            "type": "note", 
                            "channel": 9
                        }, 
                        {
                            "pitch": 44, 
                            "t0": 35400, 
                            "v": 104, 
                            "dur": 57, 
                            "type": "note", 
                            "channel": 9
                        }
                    ]
                ], 
                [
                    35520, 
                    [
                        {
                            "pitch": 44, 
                            "t0": 35520, 
                            "v": 104, 
                            "dur": 57, 
                            "type": "note", 
                            "channel": 9
                        }, 
                        {
                            "pitch": 36, 
                            "t0": 35520, 
                            "v": 120, 
                            "dur": 57, 
                            "type": "note", 
                            "channel": 9
                        }, 
                        {
                            "pitch": 48, 
                            "t0": 35520, 
                            "v": 104, 
                            "dur": 108, 
                            "type": "note", 
                            "channel": 6
                        }, 
                        {
                            "pitch": 69, 
                            "t0": 35520, 
                            "parts": [
                                [
                                    35520, 
                                    120
                                ], 
                                [
                                    35520, 
                                    88
                                ], 
                                [
                                    35520, 
                                    104
                                ], 
                                [
                                    35748, 
                                    0
                                ]
                            ], 
                            "v": 120, 
                            "dur": 228, 
                            "type": "note", 
                            "channel": 0
                        }, 
                        {
                            "pitch": 76, 
                            "t0": 35520, 
                            "v": 88, 
                            "dur": 912, 
                            "type": "note", 
                            "channel": 4
                        }, 
                        {
                            "pitch": 60, 
                            "t0": 35520, 
                            "v": 88, 
                            "dur": 912, 
                            "type": "note", 
                            "channel": 4
                        }, 
                        {
                            "pitch": 64, 
                            "t0": 35520, 
                            "v": 88, 
                            "dur": 912, 
                            "type": "note", 
                            "channel": 4
                        }, 
                        {
                            "pitch": 71, 
                            "t0": 35520, 
                            "v": 88, 
                            "dur": 912, 
                            "type": "note", 
                            "channel": 4
                        }
                    ]
                ], 
                [
                    35640, 
                    [
                        {
                            "pitch": 44, 
                            "t0": 35640, 
                            "v": 104, 
                            "dur": 57, 
                            "type": "note", 
                            "channel": 9
                        }, 
                        {
                            "pitch": 36, 
                            "t0": 35640, 
                            "v": 104, 
                            "dur": 57, 
                            "type": "note", 
                            "channel": 9
                        }, 
                        {
                            "pitch": 48, 
                            "t0": 35640, 
                            "v": 104, 
                            "dur": 108, 
                            "type": "note", 
                            "channel": 6
                        }
                    ]
                ], 
                [
                    35760, 
                    [
                        {
                            "pitch": 44, 
                            "t0": 35760, 
                            "v": 88, 
                            "dur": 57, 
                            "type": "note", 
                            "channel": 9
                        }, 
                        {
                            "pitch": 69, 
                            "t0": 35760, 
                            "parts": [
                                [
                                    35760, 
                                    120
                                ], 
                                [
                                    35760, 
                                    104
                                ], 
                                [
                                    35952, 
                                    0
                                ]
                            ], 
                            "v": 120, 
                            "dur": 192, 
                            "type": "note", 
                            "channel": 0
                        }
                    ]
                ], 
                [
                    35880, 
                    [
                        {
                            "pitch": 44, 
                            "t0": 35880, 
                            "v": 104, 
                            "dur": 57, 
                            "type": "note", 
                            "channel": 9
                        }, 
                        {
                            "pitch": 36, 
                            "t0": 35880, 
                            "v": 104, 
                            "dur": 57, 
                            "type": "note", 
                            "channel": 9
                        }, 
                        {
                            "pitch": 48, 
                            "t0": 35880, 
                            "v": 104, 
                            "dur": 108, 
                            "type": "note", 
                            "channel": 6
                        }
                    ]
                ], 
                [
                    36000, 
                    [
                        {
                            "pitch": 38, 
                            "t0": 36000, 
                            "v": 120, 
                            "dur": 57, 
                            "type": "note", 
                            "channel": 9
                        }, 
                        {
                            "pitch": 44, 
                            "t0": 36000, 
                            "v": 104, 
                            "dur": 57, 
                            "type": "note", 
                            "channel": 9
                        }, 
                        {
                            "pitch": 68, 
                            "t0": 36000, 
                            "parts": [
                                [
                                    36000, 
                                    120
                                ], 
                                [
                                    36000, 
                                    104
                                ], 
                                [
                                    36216, 
                                    0
                                ]
                            ], 
                            "v": 120, 
                            "dur": 216, 
                            "type": "note", 
                            "channel": 0
                        }
                    ]
                ], 
                [
                    36120, 
                    [
                        {
                            "pitch": 44, 
                            "t0": 36120, 
                            "v": 104, 
                            "dur": 57, 
                            "type": "note", 
                            "channel": 9
                        }
                    ]
                ], 
                [
                    36240, 
                    [
                        {
                            "pitch": 44, 
                            "t0": 36240, 
                            "v": 88, 
                            "dur": 57, 
                            "type": "note", 
                            "channel": 9
                        }, 
                        {
                            "pitch": 69, 
                            "t0": 36240, 
                            "parts": [
                                [
                                    36240, 
                                    120
                                ], 
                                [
                                    36240, 
                                    104
                                ], 
                                [
                                    36432, 
                                    0
                                ]
                            ], 
                            "v": 120, 
                            "dur": 192, 
                            "type": "note", 
                            "channel": 0
                        }
                    ]
                ], 
                [
                    36360, 
                    [
                        {
                            "pitch": 44, 
                            "t0": 36360, 
                            "v": 104, 
                            "dur": 57, 
                            "type": "note", 
                            "channel": 9
                        }
                    ]
                ], 
                [
                    36480, 
                    [
                        {
                            "pitch": 44, 
                            "t0": 36480, 
                            "v": 104, 
                            "dur": 57, 
                            "type": "note", 
                            "channel": 9
                        }, 
                        {
                            "pitch": 36, 
                            "t0": 36480, 
                            "v": 120, 
                            "dur": 57, 
                            "type": "note", 
                            "channel": 9
                        }, 
                        {
                            "pitch": 47, 
                            "t0": 36480, 
                            "v": 104, 
                            "dur": 108, 
                            "type": "note", 
                            "channel": 6
                        }, 
                        {
                            "pitch": 66, 
                            "t0": 36480, 
                            "parts": [
                                [
                                    36480, 
                                    120
                                ], 
                                [
                                    36480, 
                                    88
                                ], 
                                [
                                    36480, 
                                    104
                                ], 
                                [
                                    36696, 
                                    0
                                ]
                            ], 
                            "v": 120, 
                            "dur": 216, 
                            "type": "note", 
                            "channel": 0
                        }, 
                        {
                            "pitch": 71, 
                            "t0": 36480, 
                            "parts": [
                                [
                                    36480, 
                                    88
                                ], 
                                [
                                    36720, 
                                    120
                                ], 
                                [
                                    36936, 
                                    0
                                ]
                            ], 
                            "v": 88, 
                            "dur": 456, 
                            "type": "note", 
                            "channel": 4
                        }, 
                        {
                            "pitch": 78, 
                            "t0": 36480, 
                            "v": 88, 
                            "dur": 912, 
                            "type": "note", 
                            "channel": 4
                        }, 
                        {
                            "pitch": 73, 
                            "t0": 36480, 
                            "v": 88, 
                            "dur": 912, 
                            "type": "note", 
                            "channel": 4
                        }
                    ]
                ], 
                [
                    36600, 
                    [
                        {
                            "pitch": 44, 
                            "t0": 36600, 
                            "v": 104, 
                            "dur": 57, 
                            "type": "note", 
                            "channel": 9
                        }, 
                        {
                            "pitch": 36, 
                            "t0": 36600, 
                            "v": 104, 
                            "dur": 57, 
                            "type": "note", 
                            "channel": 9
                        }, 
                        {
                            "pitch": 47, 
                            "t0": 36600, 
                            "v": 104, 
                            "dur": 108, 
                            "type": "note", 
                            "channel": 6
                        }
                    ]
                ], 
                [
                    36720, 
                    [
                        {
                            "pitch": 44, 
                            "t0": 36720, 
                            "v": 88, 
                            "dur": 57, 
                            "type": "note", 
                            "channel": 9
                        }, 
                        {
                            "pitch": 64, 
                            "t0": 36720, 
                            "parts": [
                                [
                                    36720, 
                                    120
                                ], 
                                [
                                    36720, 
                                    104
                                ], 
                                [
                                    36948, 
                                    0
                                ]
                            ], 
                            "v": 120, 
                            "dur": 228, 
                            "type": "note", 
                            "channel": 0
                        }
                    ]
                ], 
                [
                    36840, 
                    [
                        {
                            "pitch": 44, 
                            "t0": 36840, 
                            "v": 104, 
                            "dur": 57, 
                            "type": "note", 
                            "channel": 9
                        }, 
                        {
                            "pitch": 36, 
                            "t0": 36840, 
                            "v": 104, 
                            "dur": 57, 
                            "type": "note", 
                            "channel": 9
                        }, 
                        {
                            "pitch": 47, 
                            "t0": 36840, 
                            "v": 104, 
                            "dur": 108, 
                            "type": "note", 
                            "channel": 6
                        }
                    ]
                ], 
                [
                    36960, 
                    [
                        {
                            "pitch": 38, 
                            "t0": 36960, 
                            "v": 120, 
                            "dur": 57, 
                            "type": "note", 
                            "channel": 9
                        }, 
                        {
                            "pitch": 44, 
                            "t0": 36960, 
                            "v": 104, 
                            "dur": 57, 
                            "type": "note", 
                            "channel": 9
                        }, 
                        {
                            "pitch": 63, 
                            "t0": 36960, 
                            "parts": [
                                [
                                    36960, 
                                    120
                                ], 
                                [
                                    36960, 
                                    104
                                ], 
                                [
                                    37176, 
                                    0
                                ]
                            ], 
                            "v": 120, 
                            "dur": 216, 
                            "type": "note", 
                            "channel": 0
                        }
                    ]
                ], 
                [
                    37080, 
                    [
                        {
                            "pitch": 44, 
                            "t0": 37080, 
                            "v": 104, 
                            "dur": 57, 
                            "type": "note", 
                            "channel": 9
                        }
                    ]
                ], 
                [
                    37200, 
                    [
                        {
                            "pitch": 44, 
                            "t0": 37200, 
                            "v": 88, 
                            "dur": 57, 
                            "type": "note", 
                            "channel": 9
                        }, 
                        {
                            "pitch": 66, 
                            "t0": 37200, 
                            "parts": [
                                [
                                    37200, 
                                    120
                                ], 
                                [
                                    37200, 
                                    104
                                ], 
                                [
                                    37392, 
                                    0
                                ]
                            ], 
                            "v": 120, 
                            "dur": 192, 
                            "type": "note", 
                            "channel": 0
                        }
                    ]
                ], 
                [
                    37320, 
                    [
                        {
                            "pitch": 44, 
                            "t0": 37320, 
                            "v": 104, 
                            "dur": 57, 
                            "type": "note", 
                            "channel": 9
                        }
                    ]
                ], 
                [
                    37440, 
                    [
                        {
                            "pitch": 44, 
                            "t0": 37440, 
                            "v": 104, 
                            "dur": 57, 
                            "type": "note", 
                            "channel": 9
                        }, 
                        {
                            "pitch": 36, 
                            "t0": 37440, 
                            "v": 120, 
                            "dur": 57, 
                            "type": "note", 
                            "channel": 9
                        }, 
                        {
                            "pitch": 40, 
                            "t0": 37440, 
                            "v": 104, 
                            "dur": 216, 
                            "type": "note", 
                            "channel": 6
                        }, 
                        {
                            "pitch": 64, 
                            "t0": 37440, 
                            "parts": [
                                [
                                    37440, 
                                    120
                                ], 
                                [
                                    37440, 
                                    88
                                ], 
                                [
                                    37440, 
                                    104
                                ], 
                                [
                                    37872, 
                                    0
                                ]
                            ], 
                            "v": 120, 
                            "dur": 432, 
                            "type": "note", 
                            "channel": 0
                        }, 
                        {
                            "pitch": 59, 
                            "t0": 37440, 
                            "parts": [
                                [
                                    37440, 
                                    88
                                ], 
                                [
                                    37920, 
                                    120
                                ], 
                                [
                                    38352, 
                                    0
                                ]
                            ], 
                            "v": 88, 
                            "dur": 912, 
                            "type": "note", 
                            "channel": 4
                        }, 
                        {
                            "pitch": 54, 
                            "t0": 37440, 
                            "v": 88, 
                            "dur": 1824, 
                            "type": "note", 
                            "channel": 4
                        }, 
                        {
                            "pitch": 76, 
                            "t0": 37440, 
                            "v": 88, 
                            "dur": 1824, 
                            "type": "note", 
                            "channel": 4
                        }, 
                        {
                            "pitch": 68, 
                            "t0": 37440, 
                            "v": 88, 
                            "dur": 1824, 
                            "type": "note", 
                            "channel": 4
                        }, 
                        {
                            "pitch": 71, 
                            "t0": 37440, 
                            "v": 88, 
                            "dur": 1824, 
                            "type": "note", 
                            "channel": 4
                        }
                    ]
                ], 
                [
                    37560, 
                    [
                        {
                            "pitch": 44, 
                            "t0": 37560, 
                            "v": 104, 
                            "dur": 57, 
                            "type": "note", 
                            "channel": 9
                        }
                    ]
                ], 
                [
                    37680, 
                    [
                        {
                            "pitch": 44, 
                            "t0": 37680, 
                            "v": 88, 
                            "dur": 57, 
                            "type": "note", 
                            "channel": 9
                        }
                    ]
                ], 
                [
                    37800, 
                    [
                        {
                            "pitch": 44, 
                            "t0": 37800, 
                            "v": 104, 
                            "dur": 57, 
                            "type": "note", 
                            "channel": 9
                        }, 
                        {
                            "pitch": 36, 
                            "t0": 37800, 
                            "v": 104, 
                            "dur": 57, 
                            "type": "note", 
                            "channel": 9
                        }, 
                        {
                            "pitch": 40, 
                            "t0": 37800, 
                            "v": 104, 
                            "dur": 108, 
                            "type": "note", 
                            "channel": 6
                        }
                    ]
                ], 
                [
                    37920, 
                    [
                        {
                            "pitch": 44, 
                            "t0": 37920, 
                            "v": 104, 
                            "dur": 57, 
                            "type": "note", 
                            "channel": 9
                        }
                    ]
                ], 
                [
                    38040, 
                    [
                        {
                            "pitch": 44, 
                            "t0": 38040, 
                            "v": 104, 
                            "dur": 57, 
                            "type": "note", 
                            "channel": 9
                        }
                    ]
                ], 
                [
                    38160, 
                    [
                        {
                            "pitch": 44, 
                            "t0": 38160, 
                            "v": 88, 
                            "dur": 57, 
                            "type": "note", 
                            "channel": 9
                        }
                    ]
                ], 
                [
                    38280, 
                    [
                        {
                            "pitch": 37, 
                            "t0": 38280, 
                            "v": 104, 
                            "dur": 57, 
                            "type": "note", 
                            "channel": 9
                        }, 
                        {
                            "pitch": 44, 
                            "t0": 38280, 
                            "v": 104, 
                            "dur": 57, 
                            "type": "note", 
                            "channel": 9
                        }
                    ]
                ], 
                [
                    38400, 
                    [
                        {
                            "pitch": 44, 
                            "t0": 38400, 
                            "v": 104, 
                            "dur": 57, 
                            "type": "note", 
                            "channel": 9
                        }, 
                        {
                            "pitch": 36, 
                            "t0": 38400, 
                            "v": 120, 
                            "dur": 57, 
                            "type": "note", 
                            "channel": 9
                        }, 
                        {
                            "pitch": 40, 
                            "t0": 38400, 
                            "v": 104, 
                            "dur": 108, 
                            "type": "note", 
                            "channel": 6
                        }, 
                        {
                            "pitch": 64, 
                            "t0": 38400, 
                            "v": 120, 
                            "dur": 432, 
                            "type": "note", 
                            "channel": 1
                        }
                    ]
                ], 
                [
                    38520, 
                    [
                        {
                            "pitch": 44, 
                            "t0": 38520, 
                            "v": 104, 
                            "dur": 57, 
                            "type": "note", 
                            "channel": 9
                        }, 
                        {
                            "pitch": 36, 
                            "t0": 38520, 
                            "v": 104, 
                            "dur": 57, 
                            "type": "note", 
                            "channel": 9
                        }, 
                        {
                            "pitch": 40, 
                            "t0": 38520, 
                            "v": 104, 
                            "dur": 108, 
                            "type": "note", 
                            "channel": 6
                        }
                    ]
                ], 
                [
                    38640, 
                    [
                        {
                            "pitch": 44, 
                            "t0": 38640, 
                            "v": 88, 
                            "dur": 57, 
                            "type": "note", 
                            "channel": 9
                        }
                    ]
                ], 
                [
                    38760, 
                    [
                        {
                            "pitch": 44, 
                            "t0": 38760, 
                            "v": 104, 
                            "dur": 57, 
                            "type": "note", 
                            "channel": 9
                        }, 
                        {
                            "pitch": 36, 
                            "t0": 38760, 
                            "v": 104, 
                            "dur": 57, 
                            "type": "note", 
                            "channel": 9
                        }, 
                        {
                            "pitch": 40, 
                            "t0": 38760, 
                            "v": 104, 
                            "dur": 108, 
                            "type": "note", 
                            "channel": 6
                        }
                    ]
                ], 
                [
                    38880, 
                    [
                        {
                            "pitch": 38, 
                            "t0": 38880, 
                            "v": 120, 
                            "dur": 57, 
                            "type": "note", 
                            "channel": 9
                        }, 
                        {
                            "pitch": 44, 
                            "t0": 38880, 
                            "v": 104, 
                            "dur": 57, 
                            "type": "note", 
                            "channel": 9
                        }, 
                        {
                            "pitch": 59, 
                            "t0": 38880, 
                            "parts": [
                                [
                                    38880, 
                                    120
                                ], 
                                [
                                    38880, 
                                    104
                                ], 
                                [
                                    39096, 
                                    0
                                ]
                            ], 
                            "v": 120, 
                            "dur": 216, 
                            "type": "note", 
                            "channel": 0
                        }
                    ]
                ], 
                [
                    39000, 
                    [
                        {
                            "pitch": 44, 
                            "t0": 39000, 
                            "v": 104, 
                            "dur": 57, 
                            "type": "note", 
                            "channel": 9
                        }
                    ]
                ], 
                [
                    39120, 
                    [
                        {
                            "pitch": 44, 
                            "t0": 39120, 
                            "v": 88, 
                            "dur": 57, 
                            "type": "note", 
                            "channel": 9
                        }, 
                        {
                            "pitch": 63, 
                            "t0": 39120, 
                            "parts": [
                                [
                                    39120, 
                                    120
                                ], 
                                [
                                    39120, 
                                    104
                                ], 
                                [
                                    39336, 
                                    0
                                ]
                            ], 
                            "v": 120, 
                            "dur": 216, 
                            "type": "note", 
                            "channel": 0
                        }
                    ]
                ], 
                [
                    39240, 
                    [
                        {
                            "pitch": 44, 
                            "t0": 39240, 
                            "v": 104, 
                            "dur": 57, 
                            "type": "note", 
                            "channel": 9
                        }
                    ]
                ], 
                [
                    39360, 
                    [
                        {
                            "pitch": 49, 
                            "t0": 39360, 
                            "v": 120, 
                            "dur": 57, 
                            "type": "note", 
                            "channel": 9
                        }, 
                        {
                            "pitch": 36, 
                            "t0": 39360, 
                            "v": 120, 
                            "dur": 57, 
                            "type": "note", 
                            "channel": 9
                        }, 
                        {
                            "pitch": 40, 
                            "t0": 39360, 
                            "v": 104, 
                            "dur": 216, 
                            "type": "note", 
                            "channel": 6
                        }, 
                        {
                            "pitch": 64, 
                            "t0": 39360, 
                            "parts": [
                                [
                                    39360, 
                                    120
                                ], 
                                [
                                    39360, 
                                    88
                                ], 
                                [
                                    39360, 
                                    104
                                ], 
                                [
                                    39792, 
                                    0
                                ]
                            ], 
                            "v": 120, 
                            "dur": 432, 
                            "type": "note", 
                            "channel": 0
                        }, 
                        {
                            "pitch": 59, 
                            "t0": 39360, 
                            "parts": [
                                [
                                    39360, 
                                    88
                                ], 
                                [
                                    39840, 
                                    120
                                ], 
                                [
                                    40056, 
                                    0
                                ]
                            ], 
                            "v": 88, 
                            "dur": 696, 
                            "type": "note", 
                            "channel": 4
                        }, 
                        {
                            "pitch": 68, 
                            "t0": 39360, 
                            "parts": [
                                [
                                    39360, 
                                    88
                                ], 
                                [
                                    40080, 
                                    120
                                ], 
                                [
                                    40080, 
                                    104
                                ], 
                                [
                                    40296, 
                                    0
                                ]
                            ], 
                            "v": 88, 
                            "dur": 936, 
                            "type": "note", 
                            "channel": 4
                        }, 
                        {
                            "pitch": 71, 
                            "t0": 39360, 
                            "parts": [
                                [
                                    39360, 
                                    88
                                ], 
                                [
                                    40560, 
                                    120
                                ], 
                                [
                                    40560, 
                                    104
                                ], 
                                [
                                    40788, 
                                    0
                                ]
                            ], 
                            "v": 88, 
                            "dur": 1428, 
                            "type": "note", 
                            "channel": 4
                        }, 
                        {
                            "pitch": 76, 
                            "t0": 39360, 
                            "parts": [
                                [
                                    39360, 
                                    88
                                ], 
                                [
                                    41040, 
                                    120
                                ], 
                                [
                                    41040, 
                                    104
                                ], 
                                [
                                    41184, 
                                    0
                                ]
                            ], 
                            "v": 88, 
                            "dur": 1824, 
                            "type": "note", 
                            "channel": 4
                        }, 
                        {
                            "pitch": 54, 
                            "t0": 39360, 
                            "v": 88, 
                            "dur": 1824, 
                            "type": "note", 
                            "channel": 4
                        }
                    ]
                ], 
                [
                    39480, 
                    [
                        {
                            "pitch": 44, 
                            "t0": 39480, 
                            "v": 104, 
                            "dur": 57, 
                            "type": "note", 
                            "channel": 9
                        }
                    ]
                ], 
                [
                    39600, 
                    [
                        {
                            "pitch": 44, 
                            "t0": 39600, 
                            "v": 88, 
                            "dur": 57, 
                            "type": "note", 
                            "channel": 9
                        }
                    ]
                ], 
                [
                    39720, 
                    [
                        {
                            "pitch": 44, 
                            "t0": 39720, 
                            "v": 104, 
                            "dur": 57, 
                            "type": "note", 
                            "channel": 9
                        }, 
                        {
                            "pitch": 36, 
                            "t0": 39720, 
                            "v": 104, 
                            "dur": 57, 
                            "type": "note", 
                            "channel": 9
                        }, 
                        {
                            "pitch": 40, 
                            "t0": 39720, 
                            "v": 104, 
                            "dur": 108, 
                            "type": "note", 
                            "channel": 6
                        }
                    ]
                ], 
                [
                    39840, 
                    [
                        {
                            "pitch": 44, 
                            "t0": 39840, 
                            "v": 104, 
                            "dur": 57, 
                            "type": "note", 
                            "channel": 9
                        }, 
                        {
                            "pitch": 64, 
                            "t0": 39840, 
                            "parts": [
                                [
                                    39840, 
                                    120
                                ], 
                                [
                                    39840, 
                                    104
                                ], 
                                [
                                    40068, 
                                    0
                                ]
                            ], 
                            "v": 120, 
                            "dur": 228, 
                            "type": "note", 
                            "channel": 0
                        }
                    ]
                ], 
                [
                    39960, 
                    [
                        {
                            "pitch": 44, 
                            "t0": 39960, 
                            "v": 104, 
                            "dur": 57, 
                            "type": "note", 
                            "channel": 9
                        }
                    ]
                ], 
                [
                    40080, 
                    [
                        {
                            "pitch": 44, 
                            "t0": 40080, 
                            "v": 88, 
                            "dur": 57, 
                            "type": "note", 
                            "channel": 9
                        }
                    ]
                ], 
                [
                    40200, 
                    [
                        {
                            "pitch": 37, 
                            "t0": 40200, 
                            "v": 104, 
                            "dur": 57, 
                            "type": "note", 
                            "channel": 9
                        }, 
                        {
                            "pitch": 44, 
                            "t0": 40200, 
                            "v": 104, 
                            "dur": 57, 
                            "type": "note", 
                            "channel": 9
                        }
                    ]
                ], 
                [
                    40320, 
                    [
                        {
                            "pitch": 44, 
                            "t0": 40320, 
                            "v": 104, 
                            "dur": 57, 
                            "type": "note", 
                            "channel": 9
                        }, 
                        {
                            "pitch": 36, 
                            "t0": 40320, 
                            "v": 120, 
                            "dur": 57, 
                            "type": "note", 
                            "channel": 9
                        }, 
                        {
                            "pitch": 40, 
                            "t0": 40320, 
                            "v": 104, 
                            "dur": 108, 
                            "type": "note", 
                            "channel": 6
                        }, 
                        {
                            "pitch": 69, 
                            "t0": 40320, 
                            "parts": [
                                [
                                    40320, 
                                    120
                                ], 
                                [
                                    40320, 
                                    104
                                ], 
                                [
                                    40536, 
                                    0
                                ]
                            ], 
                            "v": 120, 
                            "dur": 216, 
                            "type": "note", 
                            "channel": 0
                        }
                    ]
                ], 
                [
                    40440, 
                    [
                        {
                            "pitch": 44, 
                            "t0": 40440, 
                            "v": 104, 
                            "dur": 57, 
                            "type": "note", 
                            "channel": 9
                        }, 
                        {
                            "pitch": 36, 
                            "t0": 40440, 
                            "v": 104, 
                            "dur": 57, 
                            "type": "note", 
                            "channel": 9
                        }, 
                        {
                            "pitch": 40, 
                            "t0": 40440, 
                            "v": 104, 
                            "dur": 108, 
                            "type": "note", 
                            "channel": 6
                        }
                    ]
                ], 
                [
                    40560, 
                    [
                        {
                            "pitch": 44, 
                            "t0": 40560, 
                            "v": 88, 
                            "dur": 57, 
                            "type": "note", 
                            "channel": 9
                        }, 
                        {
                            "pitch": 59, 
                            "t0": 40560, 
                            "v": 120, 
                            "dur": 216, 
                            "type": "note", 
                            "channel": 1
                        }
                    ]
                ], 
                [
                    40680, 
                    [
                        {
                            "pitch": 44, 
                            "t0": 40680, 
                            "v": 104, 
                            "dur": 57, 
                            "type": "note", 
                            "channel": 9
                        }, 
                        {
                            "pitch": 36, 
                            "t0": 40680, 
                            "v": 104, 
                            "dur": 57, 
                            "type": "note", 
                            "channel": 9
                        }, 
                        {
                            "pitch": 40, 
                            "t0": 40680, 
                            "v": 104, 
                            "dur": 108, 
                            "type": "note", 
                            "channel": 6
                        }
                    ]
                ], 
                [
                    40800, 
                    [
                        {
                            "pitch": 38, 
                            "t0": 40800, 
                            "v": 120, 
                            "dur": 57, 
                            "type": "note", 
                            "channel": 9
                        }, 
                        {
                            "pitch": 44, 
                            "t0": 40800, 
                            "v": 104, 
                            "dur": 57, 
                            "type": "note", 
                            "channel": 9
                        }, 
                        {
                            "pitch": 75, 
                            "t0": 40800, 
                            "parts": [
                                [
                                    40800, 
                                    120
                                ], 
                                [
                                    40800, 
                                    104
                                ], 
                                [
                                    41016, 
                                    0
                                ]
                            ], 
                            "v": 120, 
                            "dur": 216, 
                            "type": "note", 
                            "channel": 0
                        }
                    ]
                ], 
                [
                    40920, 
                    [
                        {
                            "pitch": 44, 
                            "t0": 40920, 
                            "v": 104, 
                            "dur": 57, 
                            "type": "note", 
                            "channel": 9
                        }
                    ]
                ], 
                [
                    41040, 
                    [
                        {
                            "pitch": 44, 
                            "t0": 41040, 
                            "v": 88, 
                            "dur": 57, 
                            "type": "note", 
                            "channel": 9
                        }, 
                        {
                            "pitch": 59, 
                            "t0": 41040, 
                            "v": 120, 
                            "dur": 144, 
                            "type": "note", 
                            "channel": 1
                        }
                    ]
                ], 
                [
                    41160, 
                    [
                        {
                            "pitch": 44, 
                            "t0": 41160, 
                            "v": 104, 
                            "dur": 57, 
                            "type": "note", 
                            "channel": 9
                        }
                    ]
                ], 
                [
                    41280, 
                    [
                        {
                            "pitch": 44, 
                            "t0": 41280, 
                            "v": 104, 
                            "dur": 57, 
                            "type": "note", 
                            "channel": 9
                        }, 
                        {
                            "pitch": 36, 
                            "t0": 41280, 
                            "v": 120, 
                            "dur": 57, 
                            "type": "note", 
                            "channel": 9
                        }, 
                        {
                            "pitch": 40, 
                            "t0": 41280, 
                            "v": 104, 
                            "dur": 216, 
                            "type": "note", 
                            "channel": 6
                        }, 
                        {
                            "pitch": 71, 
                            "t0": 41280, 
                            "parts": [
                                [
                                    41280, 
                                    120
                                ], 
                                [
                                    41280, 
                                    88
                                ], 
                                [
                                    41280, 
                                    104
                                ], 
                                [
                                    41712, 
                                    0
                                ]
                            ], 
                            "v": 120, 
                            "dur": 432, 
                            "type": "note", 
                            "channel": 0
                        }, 
                        {
                            "pitch": 76, 
                            "t0": 41280, 
                            "parts": [
                                [
                                    41280, 
                                    88
                                ], 
                                [
                                    42000, 
                                    120
                                ], 
                                [
                                    42000, 
                                    104
                                ], 
                                [
                                    42192, 
                                    0
                                ]
                            ], 
                            "v": 88, 
                            "dur": 912, 
                            "type": "note", 
                            "channel": 4
                        }, 
                        {
                            "pitch": 54, 
                            "t0": 41280, 
                            "v": 88, 
                            "dur": 912, 
                            "type": "note", 
                            "channel": 4
                        }, 
                        {
                            "pitch": 64, 
                            "t0": 41280, 
                            "v": 88, 
                            "dur": 912, 
                            "type": "note", 
                            "channel": 4
                        }, 
                        {
                            "pitch": 68, 
                            "t0": 41280, 
                            "v": 88, 
                            "dur": 912, 
                            "type": "note", 
                            "channel": 4
                        }, 
                        {
                            "pitch": 59, 
                            "t0": 41280, 
                            "parts": [
                                [
                                    41280, 
                                    88
                                ], 
                                [
                                    42000, 
                                    120
                                ], 
                                [
                                    42192, 
                                    0
                                ]
                            ], 
                            "v": 88, 
                            "dur": 912, 
                            "type": "note", 
                            "channel": 4
                        }
                    ]
                ], 
                [
                    41400, 
                    [
                        {
                            "pitch": 44, 
                            "t0": 41400, 
                            "v": 104, 
                            "dur": 57, 
                            "type": "note", 
                            "channel": 9
                        }
                    ]
                ], 
                [
                    41520, 
                    [
                        {
                            "pitch": 44, 
                            "t0": 41520, 
                            "v": 88, 
                            "dur": 57, 
                            "type": "note", 
                            "channel": 9
                        }
                    ]
                ], 
                [
                    41640, 
                    [
                        {
                            "pitch": 44, 
                            "t0": 41640, 
                            "v": 104, 
                            "dur": 57, 
                            "type": "note", 
                            "channel": 9
                        }, 
                        {
                            "pitch": 36, 
                            "t0": 41640, 
                            "v": 104, 
                            "dur": 57, 
                            "type": "note", 
                            "channel": 9
                        }, 
                        {
                            "pitch": 40, 
                            "t0": 41640, 
                            "v": 104, 
                            "dur": 108, 
                            "type": "note", 
                            "channel": 6
                        }
                    ]
                ], 
                [
                    41760, 
                    [
                        {
                            "pitch": 44, 
                            "t0": 41760, 
                            "v": 104, 
                            "dur": 57, 
                            "type": "note", 
                            "channel": 9
                        }, 
                        {
                            "pitch": 75, 
                            "t0": 41760, 
                            "parts": [
                                [
                                    41760, 
                                    120
                                ], 
                                [
                                    41760, 
                                    104
                                ], 
                                [
                                    41976, 
                                    0
                                ]
                            ], 
                            "v": 120, 
                            "dur": 216, 
                            "type": "note", 
                            "channel": 0
                        }
                    ]
                ], 
                [
                    41880, 
                    [
                        {
                            "pitch": 44, 
                            "t0": 41880, 
                            "v": 104, 
                            "dur": 57, 
                            "type": "note", 
                            "channel": 9
                        }
                    ]
                ], 
                [
                    42000, 
                    [
                        {
                            "pitch": 44, 
                            "t0": 42000, 
                            "v": 88, 
                            "dur": 57, 
                            "type": "note", 
                            "channel": 9
                        }
                    ]
                ], 
                [
                    42120, 
                    [
                        {
                            "pitch": 37, 
                            "t0": 42120, 
                            "v": 104, 
                            "dur": 57, 
                            "type": "note", 
                            "channel": 9
                        }, 
                        {
                            "pitch": 44, 
                            "t0": 42120, 
                            "v": 104, 
                            "dur": 57, 
                            "type": "note", 
                            "channel": 9
                        }
                    ]
                ], 
                [
                    42240, 
                    [
                        {
                            "pitch": 44, 
                            "t0": 42240, 
                            "v": 104, 
                            "dur": 57, 
                            "type": "note", 
                            "channel": 9
                        }, 
                        {
                            "pitch": 36, 
                            "t0": 42240, 
                            "v": 120, 
                            "dur": 57, 
                            "type": "note", 
                            "channel": 9
                        }, 
                        {
                            "pitch": 48, 
                            "t0": 42240, 
                            "v": 104, 
                            "dur": 108, 
                            "type": "note", 
                            "channel": 6
                        }, 
                        {
                            "pitch": 69, 
                            "t0": 42240, 
                            "parts": [
                                [
                                    42240, 
                                    120
                                ], 
                                [
                                    42240, 
                                    88
                                ], 
                                [
                                    42240, 
                                    104
                                ], 
                                [
                                    42672, 
                                    0
                                ]
                            ], 
                            "v": 120, 
                            "dur": 432, 
                            "type": "note", 
                            "channel": 0
                        }, 
                        {
                            "pitch": 76, 
                            "t0": 42240, 
                            "v": 88, 
                            "dur": 912, 
                            "type": "note", 
                            "channel": 4
                        }, 
                        {
                            "pitch": 71, 
                            "t0": 42240, 
                            "v": 88, 
                            "dur": 912, 
                            "type": "note", 
                            "channel": 4
                        }, 
                        {
                            "pitch": 60, 
                            "t0": 42240, 
                            "v": 88, 
                            "dur": 912, 
                            "type": "note", 
                            "channel": 4
                        }, 
                        {
                            "pitch": 64, 
                            "t0": 42240, 
                            "v": 88, 
                            "dur": 912, 
                            "type": "note", 
                            "channel": 4
                        }
                    ]
                ], 
                [
                    42360, 
                    [
                        {
                            "pitch": 44, 
                            "t0": 42360, 
                            "v": 104, 
                            "dur": 57, 
                            "type": "note", 
                            "channel": 9
                        }, 
                        {
                            "pitch": 36, 
                            "t0": 42360, 
                            "v": 104, 
                            "dur": 57, 
                            "type": "note", 
                            "channel": 9
                        }, 
                        {
                            "pitch": 48, 
                            "t0": 42360, 
                            "v": 104, 
                            "dur": 108, 
                            "type": "note", 
                            "channel": 6
                        }
                    ]
                ], 
                [
                    42480, 
                    [
                        {
                            "pitch": 44, 
                            "t0": 42480, 
                            "v": 88, 
                            "dur": 57, 
                            "type": "note", 
                            "channel": 9
                        }
                    ]
                ], 
                [
                    42600, 
                    [
                        {
                            "pitch": 44, 
                            "t0": 42600, 
                            "v": 104, 
                            "dur": 57, 
                            "type": "note", 
                            "channel": 9
                        }, 
                        {
                            "pitch": 36, 
                            "t0": 42600, 
                            "v": 104, 
                            "dur": 57, 
                            "type": "note", 
                            "channel": 9
                        }, 
                        {
                            "pitch": 48, 
                            "t0": 42600, 
                            "v": 104, 
                            "dur": 108, 
                            "type": "note", 
                            "channel": 6
                        }
                    ]
                ], 
                [
                    42720, 
                    [
                        {
                            "pitch": 38, 
                            "t0": 42720, 
                            "v": 120, 
                            "dur": 57, 
                            "type": "note", 
                            "channel": 9
                        }, 
                        {
                            "pitch": 44, 
                            "t0": 42720, 
                            "v": 104, 
                            "dur": 57, 
                            "type": "note", 
                            "channel": 9
                        }, 
                        {
                            "pitch": 68, 
                            "t0": 42720, 
                            "parts": [
                                [
                                    42720, 
                                    120
                                ], 
                                [
                                    42720, 
                                    104
                                ], 
                                [
                                    42936, 
                                    0
                                ]
                            ], 
                            "v": 120, 
                            "dur": 216, 
                            "type": "note", 
                            "channel": 0
                        }
                    ]
                ], 
                [
                    42840, 
                    [
                        {
                            "pitch": 44, 
                            "t0": 42840, 
                            "v": 104, 
                            "dur": 57, 
                            "type": "note", 
                            "channel": 9
                        }
                    ]
                ], 
                [
                    42960, 
                    [
                        {
                            "pitch": 44, 
                            "t0": 42960, 
                            "v": 88, 
                            "dur": 57, 
                            "type": "note", 
                            "channel": 9
                        }, 
                        {
                            "pitch": 69, 
                            "t0": 42960, 
                            "parts": [
                                [
                                    42960, 
                                    120
                                ], 
                                [
                                    42960, 
                                    104
                                ], 
                                [
                                    43152, 
                                    0
                                ]
                            ], 
                            "v": 120, 
                            "dur": 192, 
                            "type": "note", 
                            "channel": 0
                        }
                    ]
                ], 
                [
                    43080, 
                    [
                        {
                            "pitch": 44, 
                            "t0": 43080, 
                            "v": 104, 
                            "dur": 57, 
                            "type": "note", 
                            "channel": 9
                        }
                    ]
                ], 
                [
                    43200, 
                    [
                        {
                            "pitch": 44, 
                            "t0": 43200, 
                            "v": 104, 
                            "dur": 57, 
                            "type": "note", 
                            "channel": 9
                        }, 
                        {
                            "pitch": 36, 
                            "t0": 43200, 
                            "v": 120, 
                            "dur": 57, 
                            "type": "note", 
                            "channel": 9
                        }, 
                        {
                            "pitch": 47, 
                            "t0": 43200, 
                            "v": 104, 
                            "dur": 108, 
                            "type": "note", 
                            "channel": 6
                        }, 
                        {
                            "pitch": 66, 
                            "t0": 43200, 
                            "parts": [
                                [
                                    43200, 
                                    120
                                ], 
                                [
                                    43200, 
                                    88
                                ], 
                                [
                                    43200, 
                                    104
                                ], 
                                [
                                    43416, 
                                    0
                                ]
                            ], 
                            "v": 120, 
                            "dur": 216, 
                            "type": "note", 
                            "channel": 0
                        }, 
                        {
                            "pitch": 71, 
                            "t0": 43200, 
                            "parts": [
                                [
                                    43200, 
                                    88
                                ], 
                                [
                                    43440, 
                                    120
                                ], 
                                [
                                    43656, 
                                    0
                                ]
                            ], 
                            "v": 88, 
                            "dur": 456, 
                            "type": "note", 
                            "channel": 4
                        }, 
                        {
                            "pitch": 78, 
                            "t0": 43200, 
                            "v": 88, 
                            "dur": 912, 
                            "type": "note", 
                            "channel": 4
                        }, 
                        {
                            "pitch": 73, 
                            "t0": 43200, 
                            "v": 88, 
                            "dur": 912, 
                            "type": "note", 
                            "channel": 4
                        }
                    ]
                ], 
                [
                    43320, 
                    [
                        {
                            "pitch": 44, 
                            "t0": 43320, 
                            "v": 104, 
                            "dur": 57, 
                            "type": "note", 
                            "channel": 9
                        }, 
                        {
                            "pitch": 36, 
                            "t0": 43320, 
                            "v": 104, 
                            "dur": 57, 
                            "type": "note", 
                            "channel": 9
                        }, 
                        {
                            "pitch": 47, 
                            "t0": 43320, 
                            "v": 104, 
                            "dur": 108, 
                            "type": "note", 
                            "channel": 6
                        }
                    ]
                ], 
                [
                    43440, 
                    [
                        {
                            "pitch": 44, 
                            "t0": 43440, 
                            "v": 88, 
                            "dur": 57, 
                            "type": "note", 
                            "channel": 9
                        }, 
                        {
                            "pitch": 64, 
                            "t0": 43440, 
                            "parts": [
                                [
                                    43440, 
                                    120
                                ], 
                                [
                                    43440, 
                                    104
                                ], 
                                [
                                    43668, 
                                    0
                                ]
                            ], 
                            "v": 120, 
                            "dur": 228, 
                            "type": "note", 
                            "channel": 0
                        }
                    ]
                ], 
                [
                    43560, 
                    [
                        {
                            "pitch": 44, 
                            "t0": 43560, 
                            "v": 104, 
                            "dur": 57, 
                            "type": "note", 
                            "channel": 9
                        }, 
                        {
                            "pitch": 36, 
                            "t0": 43560, 
                            "v": 104, 
                            "dur": 57, 
                            "type": "note", 
                            "channel": 9
                        }, 
                        {
                            "pitch": 47, 
                            "t0": 43560, 
                            "v": 104, 
                            "dur": 108, 
                            "type": "note", 
                            "channel": 6
                        }
                    ]
                ], 
                [
                    43680, 
                    [
                        {
                            "pitch": 38, 
                            "t0": 43680, 
                            "v": 120, 
                            "dur": 57, 
                            "type": "note", 
                            "channel": 9
                        }, 
                        {
                            "pitch": 44, 
                            "t0": 43680, 
                            "v": 104, 
                            "dur": 57, 
                            "type": "note", 
                            "channel": 9
                        }, 
                        {
                            "pitch": 63, 
                            "t0": 43680, 
                            "parts": [
                                [
                                    43680, 
                                    120
                                ], 
                                [
                                    43680, 
                                    104
                                ], 
                                [
                                    43896, 
                                    0
                                ]
                            ], 
                            "v": 120, 
                            "dur": 216, 
                            "type": "note", 
                            "channel": 0
                        }
                    ]
                ], 
                [
                    43800, 
                    [
                        {
                            "pitch": 44, 
                            "t0": 43800, 
                            "v": 104, 
                            "dur": 57, 
                            "type": "note", 
                            "channel": 9
                        }
                    ]
                ], 
                [
                    43920, 
                    [
                        {
                            "pitch": 44, 
                            "t0": 43920, 
                            "v": 88, 
                            "dur": 57, 
                            "type": "note", 
                            "channel": 9
                        }, 
                        {
                            "pitch": 66, 
                            "t0": 43920, 
                            "parts": [
                                [
                                    43920, 
                                    120
                                ], 
                                [
                                    43920, 
                                    104
                                ], 
                                [
                                    44112, 
                                    0
                                ]
                            ], 
                            "v": 120, 
                            "dur": 192, 
                            "type": "note", 
                            "channel": 0
                        }
                    ]
                ], 
                [
                    44040, 
                    [
                        {
                            "pitch": 44, 
                            "t0": 44040, 
                            "v": 104, 
                            "dur": 57, 
                            "type": "note", 
                            "channel": 9
                        }
                    ]
                ], 
                [
                    44160, 
                    [
                        {
                            "pitch": 44, 
                            "t0": 44160, 
                            "v": 104, 
                            "dur": 57, 
                            "type": "note", 
                            "channel": 9
                        }, 
                        {
                            "pitch": 36, 
                            "t0": 44160, 
                            "v": 120, 
                            "dur": 57, 
                            "type": "note", 
                            "channel": 9
                        }, 
                        {
                            "pitch": 40, 
                            "t0": 44160, 
                            "v": 104, 
                            "dur": 216, 
                            "type": "note", 
                            "channel": 6
                        }, 
                        {
                            "pitch": 54, 
                            "t0": 44160, 
                            "v": 88, 
                            "dur": 312, 
                            "type": "note", 
                            "channel": 4
                        }, 
                        {
                            "pitch": 76, 
                            "t0": 44160, 
                            "v": 88, 
                            "dur": 312, 
                            "type": "note", 
                            "channel": 4
                        }, 
                        {
                            "pitch": 64, 
                            "t0": 44160, 
                            "parts": [
                                [
                                    44160, 
                                    120
                                ], 
                                [
                                    44160, 
                                    88
                                ], 
                                [
                                    44160, 
                                    104
                                ], 
                                [
                                    44472, 
                                    0
                                ]
                            ], 
                            "v": 120, 
                            "dur": 312, 
                            "type": "note", 
                            "channel": 0
                        }, 
                        {
                            "pitch": 59, 
                            "t0": 44160, 
                            "v": 88, 
                            "dur": 312, 
                            "type": "note", 
                            "channel": 4
                        }, 
                        {
                            "pitch": 68, 
                            "t0": 44160, 
                            "v": 88, 
                            "dur": 312, 
                            "type": "note", 
                            "channel": 4
                        }, 
                        {
                            "pitch": 71, 
                            "t0": 44160, 
                            "v": 88, 
                            "dur": 312, 
                            "type": "note", 
                            "channel": 4
                        }
                    ]
                ], 
                [
                    44280, 
                    [
                        {
                            "pitch": 44, 
                            "t0": 44280, 
                            "v": 104, 
                            "dur": 57, 
                            "type": "note", 
                            "channel": 9
                        }
                    ]
                ], 
                [
                    44400, 
                    [
                        {
                            "pitch": 44, 
                            "t0": 44400, 
                            "v": 88, 
                            "dur": 57, 
                            "type": "note", 
                            "channel": 9
                        }
                    ]
                ], 
                [
                    44520, 
                    [
                        {
                            "pitch": 44, 
                            "t0": 44520, 
                            "v": 104, 
                            "dur": 57, 
                            "type": "note", 
                            "channel": 9
                        }, 
                        {
                            "pitch": 36, 
                            "t0": 44520, 
                            "v": 104, 
                            "dur": 57, 
                            "type": "note", 
                            "channel": 9
                        }, 
                        {
                            "pitch": 64, 
                            "t0": 44520, 
                            "v": 88, 
                            "dur": 72, 
                            "type": "note", 
                            "channel": 4
                        }, 
                        {
                            "pitch": 40, 
                            "t0": 44520, 
                            "v": 104, 
                            "dur": 108, 
                            "type": "note", 
                            "channel": 6
                        }, 
                        {
                            "pitch": 54, 
                            "t0": 44520, 
                            "v": 88, 
                            "dur": 176, 
                            "type": "note", 
                            "channel": 4
                        }, 
                        {
                            "pitch": 76, 
                            "t0": 44520, 
                            "v": 88, 
                            "dur": 176, 
                            "type": "note", 
                            "channel": 4
                        }, 
                        {
                            "pitch": 68, 
                            "t0": 44520, 
                            "v": 88, 
                            "dur": 176, 
                            "type": "note", 
                            "channel": 4
                        }, 
                        {
                            "pitch": 71, 
                            "t0": 44520, 
                            "v": 88, 
                            "dur": 176, 
                            "type": "note", 
                            "channel": 4
                        }, 
                        {
                            "pitch": 59, 
                            "t0": 44520, 
                            "parts": [
                                [
                                    44520, 
                                    88
                                ], 
                                [
                                    44640, 
                                    120
                                ], 
                                [
                                    44696, 
                                    0
                                ]
                            ], 
                            "v": 88, 
                            "dur": 176, 
                            "type": "note", 
                            "channel": 4
                        }
                    ]
                ], 
                [
                    44640, 
                    [
                        {
                            "pitch": 44, 
                            "t0": 44640, 
                            "v": 104, 
                            "dur": 57, 
                            "type": "note", 
                            "channel": 9
                        }
                    ]
                ], 
                [
                    44760, 
                    [
                        {
                            "pitch": 44, 
                            "t0": 44760, 
                            "v": 104, 
                            "dur": 57, 
                            "type": "note", 
                            "channel": 9
                        }, 
                        {
                            "pitch": 54, 
                            "t0": 44760, 
                            "v": 88, 
                            "dur": 80, 
                            "type": "note", 
                            "channel": 4
                        }, 
                        {
                            "pitch": 64, 
                            "t0": 44760, 
                            "v": 88, 
                            "dur": 80, 
                            "type": "note", 
                            "channel": 4
                        }, 
                        {
                            "pitch": 76, 
                            "t0": 44760, 
                            "v": 88, 
                            "dur": 80, 
                            "type": "note", 
                            "channel": 4
                        }, 
                        {
                            "pitch": 68, 
                            "t0": 44760, 
                            "v": 88, 
                            "dur": 80, 
                            "type": "note", 
                            "channel": 4
                        }, 
                        {
                            "pitch": 71, 
                            "t0": 44760, 
                            "v": 88, 
                            "dur": 80, 
                            "type": "note", 
                            "channel": 4
                        }, 
                        {
                            "pitch": 59, 
                            "t0": 44760, 
                            "v": 88, 
                            "dur": 80, 
                            "type": "note", 
                            "channel": 4
                        }
                    ]
                ], 
                [
                    44880, 
                    [
                        {
                            "pitch": 44, 
                            "t0": 44880, 
                            "v": 88, 
                            "dur": 57, 
                            "type": "note", 
                            "channel": 9
                        }, 
                        {
                            "pitch": 59, 
                            "t0": 44880, 
                            "v": 88, 
                            "dur": 192, 
                            "type": "note", 
                            "channel": 4
                        }, 
                        {
                            "pitch": 64, 
                            "t0": 44880, 
                            "v": 88, 
                            "dur": 192, 
                            "type": "note", 
                            "channel": 4
                        }, 
                        {
                            "pitch": 76, 
                            "t0": 44880, 
                            "v": 88, 
                            "dur": 312, 
                            "type": "note", 
                            "channel": 4
                        }, 
                        {
                            "pitch": 54, 
                            "t0": 44880, 
                            "v": 88, 
                            "dur": 312, 
                            "type": "note", 
                            "channel": 4
                        }, 
                        {
                            "pitch": 68, 
                            "t0": 44880, 
                            "v": 88, 
                            "dur": 312, 
                            "type": "note", 
                            "channel": 4
                        }, 
                        {
                            "pitch": 71, 
                            "t0": 44880, 
                            "v": 88, 
                            "dur": 312, 
                            "type": "note", 
                            "channel": 4
                        }
                    ]
                ], 
                [
                    45000, 
                    [
                        {
                            "pitch": 37, 
                            "t0": 45000, 
                            "v": 104, 
                            "dur": 57, 
                            "type": "note", 
                            "channel": 9
                        }, 
                        {
                            "pitch": 44, 
                            "t0": 45000, 
                            "v": 104, 
                            "dur": 57, 
                            "type": "note", 
                            "channel": 9
                        }
                    ]
                ], 
                [
                    45120, 
                    [
                        {
                            "pitch": 44, 
                            "t0": 45120, 
                            "v": 104, 
                            "dur": 57, 
                            "type": "note", 
                            "channel": 9
                        }, 
                        {
                            "pitch": 36, 
                            "t0": 45120, 
                            "v": 120, 
                            "dur": 57, 
                            "type": "note", 
                            "channel": 9
                        }, 
                        {
                            "pitch": 64, 
                            "t0": 45120, 
                            "v": 120, 
                            "dur": 72, 
                            "type": "note", 
                            "channel": 1
                        }, 
                        {
                            "pitch": 40, 
                            "t0": 45120, 
                            "v": 104, 
                            "dur": 108, 
                            "type": "note", 
                            "channel": 6
                        }
                    ]
                ], 
                [
                    45240, 
                    [
                        {
                            "pitch": 44, 
                            "t0": 45240, 
                            "v": 104, 
                            "dur": 57, 
                            "type": "note", 
                            "channel": 9
                        }, 
                        {
                            "pitch": 36, 
                            "t0": 45240, 
                            "v": 104, 
                            "dur": 57, 
                            "type": "note", 
                            "channel": 9
                        }, 
                        {
                            "pitch": 40, 
                            "t0": 45240, 
                            "v": 104, 
                            "dur": 108, 
                            "type": "note", 
                            "channel": 6
                        }, 
                        {
                            "pitch": 54, 
                            "t0": 45240, 
                            "v": 88, 
                            "dur": 192, 
                            "type": "note", 
                            "channel": 4
                        }, 
                        {
                            "pitch": 76, 
                            "t0": 45240, 
                            "v": 88, 
                            "dur": 192, 
                            "type": "note", 
                            "channel": 4
                        }, 
                        {
                            "pitch": 68, 
                            "t0": 45240, 
                            "v": 88, 
                            "dur": 192, 
                            "type": "note", 
                            "channel": 4
                        }, 
                        {
                            "pitch": 64, 
                            "t0": 45240, 
                            "v": 88, 
                            "dur": 192, 
                            "type": "note", 
                            "channel": 4
                        }, 
                        {
                            "pitch": 71, 
                            "t0": 45240, 
                            "v": 88, 
                            "dur": 192, 
                            "type": "note", 
                            "channel": 4
                        }, 
                        {
                            "pitch": 59, 
                            "t0": 45240, 
                            "v": 88, 
                            "dur": 192, 
                            "type": "note", 
                            "channel": 4
                        }
                    ]
                ], 
                [
                    45360, 
                    [
                        {
                            "pitch": 44, 
                            "t0": 45360, 
                            "v": 88, 
                            "dur": 57, 
                            "type": "note", 
                            "channel": 9
                        }
                    ]
                ], 
                [
                    45480, 
                    [
                        {
                            "pitch": 44, 
                            "t0": 45480, 
                            "v": 104, 
                            "dur": 57, 
                            "type": "note", 
                            "channel": 9
                        }, 
                        {
                            "pitch": 36, 
                            "t0": 45480, 
                            "v": 104, 
                            "dur": 57, 
                            "type": "note", 
                            "channel": 9
                        }, 
                        {
                            "pitch": 64, 
                            "t0": 45480, 
                            "v": 88, 
                            "dur": 72, 
                            "type": "note", 
                            "channel": 4
                        }, 
                        {
                            "pitch": 59, 
                            "t0": 45480, 
                            "v": 88, 
                            "dur": 80, 
                            "type": "note", 
                            "channel": 4
                        }, 
                        {
                            "pitch": 54, 
                            "t0": 45480, 
                            "v": 88, 
                            "dur": 80, 
                            "type": "note", 
                            "channel": 4
                        }, 
                        {
                            "pitch": 76, 
                            "t0": 45480, 
                            "v": 88, 
                            "dur": 80, 
                            "type": "note", 
                            "channel": 4
                        }, 
                        {
                            "pitch": 68, 
                            "t0": 45480, 
                            "v": 88, 
                            "dur": 80, 
                            "type": "note", 
                            "channel": 4
                        }, 
                        {
                            "pitch": 71, 
                            "t0": 45480, 
                            "v": 88, 
                            "dur": 80, 
                            "type": "note", 
                            "channel": 4
                        }, 
                        {
                            "pitch": 40, 
                            "t0": 45480, 
                            "v": 104, 
                            "dur": 108, 
                            "type": "note", 
                            "channel": 6
                        }
                    ]
                ], 
                [
                    45600, 
                    [
                        {
                            "pitch": 38, 
                            "t0": 45600, 
                            "v": 120, 
                            "dur": 57, 
                            "type": "note", 
                            "channel": 9
                        }, 
                        {
                            "pitch": 64, 
                            "t0": 45600, 
                            "parts": [
                                [
                                    45600, 
                                    120
                                ], 
                                [
                                    45600, 
                                    88
                                ], 
                                [
                                    45600, 
                                    104
                                ], 
                                [
                                    45828, 
                                    0
                                ]
                            ], 
                            "v": 120, 
                            "dur": 228, 
                            "type": "note", 
                            "channel": 0
                        }, 
                        {
                            "pitch": 54, 
                            "t0": 45600, 
                            "v": 88, 
                            "dur": 456, 
                            "type": "note", 
                            "channel": 4
                        }, 
                        {
                            "pitch": 76, 
                            "t0": 45600, 
                            "v": 88, 
                            "dur": 456, 
                            "type": "note", 
                            "channel": 4
                        }, 
                        {
                            "pitch": 71, 
                            "t0": 45600, 
                            "v": 88, 
                            "dur": 456, 
                            "type": "note", 
                            "channel": 4
                        }, 
                        {
                            "pitch": 68, 
                            "t0": 45600, 
                            "v": 88, 
                            "dur": 456, 
                            "type": "note", 
                            "channel": 4
                        }, 
                        {
                            "pitch": 59, 
                            "t0": 45600, 
                            "v": 88, 
                            "dur": 456, 
                            "type": "note", 
                            "channel": 4
                        }
                    ]
                ], 
                [
                    45720, 
                    [
                        {
                            "pitch": 38, 
                            "t0": 45720, 
                            "v": 104, 
                            "dur": 57, 
                            "type": "note", 
                            "channel": 9
                        }
                    ]
                ], 
                [
                    45840, 
                    [
                        {
                            "pitch": 38, 
                            "t0": 45840, 
                            "v": 120, 
                            "dur": 57, 
                            "type": "note", 
                            "channel": 9
                        }, 
                        {
                            "pitch": 63, 
                            "t0": 45840, 
                            "parts": [
                                [
                                    45840, 
                                    120
                                ], 
                                [
                                    45840, 
                                    104
                                ], 
                                [
                                    46068, 
                                    0
                                ]
                            ], 
                            "v": 120, 
                            "dur": 228, 
                            "type": "note", 
                            "channel": 0
                        }
                    ]
                ], 
                [
                    46080, 
                    [
                        {
                            "pitch": 49, 
                            "t0": 46080, 
                            "parts": [
                                [
                                    46080, 
                                    104
                                ], 
                                [
                                    46080, 
                                    120
                                ], 
                                [
                                    46137, 
                                    0
                                ]
                            ], 
                            "v": 104, 
                            "dur": 57, 
                            "type": "note", 
                            "channel": 6
                        }, 
                        {
                            "pitch": 36, 
                            "t0": 46080, 
                            "v": 120, 
                            "dur": 57, 
                            "type": "note", 
                            "channel": 9
                        }, 
                        {
                            "pitch": 76, 
                            "t0": 46080, 
                            "v": 104, 
                            "dur": 220, 
                            "type": "note", 
                            "channel": 4
                        }, 
                        {
                            "pitch": 61, 
                            "t0": 46080, 
                            "parts": [
                                [
                                    46080, 
                                    120
                                ], 
                                [
                                    46080, 
                                    104
                                ], 
                                [
                                    46303, 
                                    0
                                ]
                            ], 
                            "v": 120, 
                            "dur": 223, 
                            "type": "note", 
                            "channel": 0
                        }
                    ]
                ], 
                [
                    46320, 
                    [
                        {
                            "pitch": 44, 
                            "t0": 46320, 
                            "v": 88, 
                            "dur": 57, 
                            "type": "note", 
                            "channel": 9
                        }, 
                        {
                            "pitch": 76, 
                            "t0": 46320, 
                            "v": 88, 
                            "dur": 90, 
                            "type": "note", 
                            "channel": 3
                        }, 
                        {
                            "pitch": 80, 
                            "t0": 46320, 
                            "v": 88, 
                            "dur": 90, 
                            "type": "note", 
                            "channel": 3
                        }, 
                        {
                            "pitch": 73, 
                            "t0": 46320, 
                            "v": 104, 
                            "dur": 110, 
                            "type": "note", 
                            "channel": 4
                        }, 
                        {
                            "pitch": 64, 
                            "t0": 46320, 
                            "parts": [
                                [
                                    46320, 
                                    120
                                ], 
                                [
                                    46320, 
                                    104
                                ], 
                                [
                                    46543, 
                                    0
                                ]
                            ], 
                            "v": 120, 
                            "dur": 223, 
                            "type": "note", 
                            "channel": 0
                        }
                    ]
                ], 
                [
                    46440, 
                    [
                        {
                            "pitch": 36, 
                            "t0": 46440, 
                            "v": 104, 
                            "dur": 57, 
                            "type": "note", 
                            "channel": 9
                        }, 
                        {
                            "pitch": 76, 
                            "t0": 46440, 
                            "v": 88, 
                            "dur": 90, 
                            "type": "note", 
                            "channel": 3
                        }, 
                        {
                            "pitch": 80, 
                            "t0": 46440, 
                            "v": 88, 
                            "dur": 90, 
                            "type": "note", 
                            "channel": 3
                        }, 
                        {
                            "pitch": 49, 
                            "t0": 46440, 
                            "v": 104, 
                            "dur": 108, 
                            "type": "note", 
                            "channel": 6
                        }, 
                        {
                            "pitch": 68, 
                            "t0": 46440, 
                            "parts": [
                                [
                                    46440, 
                                    104
                                ], 
                                [
                                    46560, 
                                    120
                                ], 
                                [
                                    46560, 
                                    104
                                ], 
                                [
                                    46783, 
                                    0
                                ]
                            ], 
                            "v": 104, 
                            "dur": 343, 
                            "type": "note", 
                            "channel": 4
                        }
                    ]
                ], 
                [
                    46560, 
                    [
                        {
                            "pitch": 38, 
                            "t0": 46560, 
                            "v": 120, 
                            "dur": 57, 
                            "type": "note", 
                            "channel": 9
                        }, 
                        {
                            "pitch": 52, 
                            "t0": 46560, 
                            "v": 104, 
                            "dur": 108, 
                            "type": "note", 
                            "channel": 6
                        }
                    ]
                ], 
                [
                    46680, 
                    [
                        {
                            "pitch": 51, 
                            "t0": 46680, 
                            "v": 104, 
                            "dur": 108, 
                            "type": "note", 
                            "channel": 6
                        }
                    ]
                ], 
                [
                    46800, 
                    [
                        {
                            "pitch": 44, 
                            "t0": 46800, 
                            "v": 88, 
                            "dur": 57, 
                            "type": "note", 
                            "channel": 9
                        }, 
                        {
                            "pitch": 36, 
                            "t0": 46800, 
                            "v": 104, 
                            "dur": 57, 
                            "type": "note", 
                            "channel": 9
                        }, 
                        {
                            "pitch": 76, 
                            "t0": 46800, 
                            "v": 88, 
                            "dur": 90, 
                            "type": "note", 
                            "channel": 3
                        }, 
                        {
                            "pitch": 80, 
                            "t0": 46800, 
                            "v": 88, 
                            "dur": 90, 
                            "type": "note", 
                            "channel": 3
                        }, 
                        {
                            "pitch": 49, 
                            "t0": 46800, 
                            "v": 104, 
                            "dur": 108, 
                            "type": "note", 
                            "channel": 6
                        }, 
                        {
                            "pitch": 71, 
                            "t0": 46800, 
                            "parts": [
                                [
                                    46800, 
                                    120
                                ], 
                                [
                                    46800, 
                                    104
                                ], 
                                [
                                    47023, 
                                    0
                                ]
                            ], 
                            "v": 120, 
                            "dur": 223, 
                            "type": "note", 
                            "channel": 0
                        }
                    ]
                ], 
                [
                    46920, 
                    [
                        {
                            "pitch": 76, 
                            "t0": 46920, 
                            "v": 88, 
                            "dur": 90, 
                            "type": "note", 
                            "channel": 3
                        }, 
                        {
                            "pitch": 80, 
                            "t0": 46920, 
                            "v": 88, 
                            "dur": 90, 
                            "type": "note", 
                            "channel": 3
                        }, 
                        {
                            "pitch": 52, 
                            "t0": 46920, 
                            "v": 104, 
                            "dur": 108, 
                            "type": "note", 
                            "channel": 6
                        }
                    ]
                ], 
                [
                    47040, 
                    [
                        {
                            "pitch": 44, 
                            "t0": 47040, 
                            "v": 104, 
                            "dur": 108, 
                            "type": "note", 
                            "channel": 6
                        }, 
                        {
                            "pitch": 68, 
                            "t0": 47040, 
                            "parts": [
                                [
                                    47040, 
                                    120
                                ], 
                                [
                                    47040, 
                                    104
                                ], 
                                [
                                    47150, 
                                    0
                                ]
                            ], 
                            "v": 120, 
                            "dur": 110, 
                            "type": "note", 
                            "channel": 0
                        }
                    ]
                ], 
                [
                    47160, 
                    [
                        {
                            "pitch": 36, 
                            "t0": 47160, 
                            "v": 104, 
                            "dur": 57, 
                            "type": "note", 
                            "channel": 9
                        }, 
                        {
                            "pitch": 44, 
                            "t0": 47160, 
                            "v": 104, 
                            "dur": 108, 
                            "type": "note", 
                            "channel": 6
                        }, 
                        {
                            "pitch": 83, 
                            "t0": 47160, 
                            "v": 104, 
                            "dur": 110, 
                            "type": "note", 
                            "channel": 4
                        }
                    ]
                ], 
                [
                    47280, 
                    [
                        {
                            "pitch": 44, 
                            "t0": 47280, 
                            "parts": [
                                [
                                    47280, 
                                    104
                                ], 
                                [
                                    47280, 
                                    88
                                ], 
                                [
                                    47337, 
                                    0
                                ]
                            ], 
                            "v": 104, 
                            "dur": 57, 
                            "type": "note", 
                            "channel": 6
                        }, 
                        {
                            "pitch": 80, 
                            "t0": 47280, 
                            "parts": [
                                [
                                    47280, 
                                    88
                                ], 
                                [
                                    47280, 
                                    104
                                ], 
                                [
                                    47370, 
                                    0
                                ]
                            ], 
                            "v": 88, 
                            "dur": 90, 
                            "type": "note", 
                            "channel": 3
                        }, 
                        {
                            "pitch": 75, 
                            "t0": 47280, 
                            "v": 88, 
                            "dur": 90, 
                            "type": "note", 
                            "channel": 3
                        }
                    ]
                ], 
                [
                    47400, 
                    [
                        {
                            "pitch": 36, 
                            "t0": 47400, 
                            "v": 104, 
                            "dur": 57, 
                            "type": "note", 
                            "channel": 9
                        }, 
                        {
                            "pitch": 80, 
                            "t0": 47400, 
                            "v": 88, 
                            "dur": 90, 
                            "type": "note", 
                            "channel": 3
                        }, 
                        {
                            "pitch": 75, 
                            "t0": 47400, 
                            "v": 88, 
                            "dur": 90, 
                            "type": "note", 
                            "channel": 3
                        }, 
                        {
                            "pitch": 44, 
                            "t0": 47400, 
                            "v": 104, 
                            "dur": 108, 
                            "type": "note", 
                            "channel": 6
                        }, 
                        {
                            "pitch": 87, 
                            "t0": 47400, 
                            "v": 104, 
                            "dur": 561, 
                            "type": "note", 
                            "channel": 4
                        }
                    ]
                ], 
                [
                    47520, 
                    [
                        {
                            "pitch": 38, 
                            "t0": 47520, 
                            "v": 120, 
                            "dur": 57, 
                            "type": "note", 
                            "channel": 9
                        }, 
                        {
                            "pitch": 68, 
                            "t0": 47520, 
                            "parts": [
                                [
                                    47520, 
                                    120
                                ], 
                                [
                                    47520, 
                                    104
                                ], 
                                [
                                    47743, 
                                    0
                                ]
                            ], 
                            "v": 120, 
                            "dur": 223, 
                            "type": "note", 
                            "channel": 0
                        }, 
                        {
                            "pitch": 47, 
                            "t0": 47520, 
                            "v": 104, 
                            "dur": 432, 
                            "type": "note", 
                            "channel": 6
                        }
                    ]
                ], 
                [
                    47760, 
                    [
                        {
                            "pitch": 51, 
                            "t0": 47760, 
                            "v": 88, 
                            "dur": 57, 
                            "type": "note", 
                            "channel": 9
                        }, 
                        {
                            "pitch": 80, 
                            "t0": 47760, 
                            "v": 88, 
                            "dur": 90, 
                            "type": "note", 
                            "channel": 3
                        }, 
                        {
                            "pitch": 75, 
                            "t0": 47760, 
                            "v": 88, 
                            "dur": 90, 
                            "type": "note", 
                            "channel": 3
                        }, 
                        {
                            "pitch": 66, 
                            "t0": 47760, 
                            "parts": [
                                [
                                    47760, 
                                    120
                                ], 
                                [
                                    47760, 
                                    104
                                ], 
                                [
                                    47983, 
                                    0
                                ]
                            ], 
                            "v": 120, 
                            "dur": 223, 
                            "type": "note", 
                            "channel": 0
                        }
                    ]
                ], 
                [
                    47880, 
                    [
                        {
                            "pitch": 80, 
                            "t0": 47880, 
                            "v": 88, 
                            "dur": 90, 
                            "type": "note", 
                            "channel": 3
                        }, 
                        {
                            "pitch": 75, 
                            "t0": 47880, 
                            "v": 88, 
                            "dur": 90, 
                            "type": "note", 
                            "channel": 3
                        }
                    ]
                ], 
                [
                    48000, 
                    [
                        {
                            "pitch": 49, 
                            "t0": 48000, 
                            "v": 120, 
                            "dur": 57, 
                            "type": "note", 
                            "channel": 9
                        }, 
                        {
                            "pitch": 36, 
                            "t0": 48000, 
                            "v": 120, 
                            "dur": 57, 
                            "type": "note", 
                            "channel": 9
                        }, 
                        {
                            "pitch": 66, 
                            "t0": 48000, 
                            "v": 104, 
                            "dur": 110, 
                            "type": "note", 
                            "channel": 4
                        }, 
                        {
                            "pitch": 42, 
                            "t0": 48000, 
                            "v": 104, 
                            "dur": 216, 
                            "type": "note", 
                            "channel": 6
                        }, 
                        {
                            "pitch": 64, 
                            "t0": 48000, 
                            "parts": [
                                [
                                    48000, 
                                    120
                                ], 
                                [
                                    48000, 
                                    104
                                ], 
                                [
                                    48223, 
                                    0
                                ]
                            ], 
                            "v": 120, 
                            "dur": 223, 
                            "type": "note", 
                            "channel": 0
                        }
                    ]
                ], 
                [
                    48120, 
                    [
                        {
                            "pitch": 81, 
                            "t0": 48120, 
                            "v": 104, 
                            "dur": 110, 
                            "type": "note", 
                            "channel": 4
                        }
                    ]
                ], 
                [
                    48240, 
                    [
                        {
                            "pitch": 44, 
                            "t0": 48240, 
                            "v": 88, 
                            "dur": 57, 
                            "type": "note", 
                            "channel": 9
                        }, 
                        {
                            "pitch": 73, 
                            "t0": 48240, 
                            "v": 88, 
                            "dur": 90, 
                            "type": "note", 
                            "channel": 3
                        }, 
                        {
                            "pitch": 78, 
                            "t0": 48240, 
                            "parts": [
                                [
                                    48240, 
                                    88
                                ], 
                                [
                                    48240, 
                                    104
                                ], 
                                [
                                    48330, 
                                    0
                                ]
                            ], 
                            "v": 88, 
                            "dur": 90, 
                            "type": "note", 
                            "channel": 3
                        }, 
                        {
                            "pitch": 66, 
                            "t0": 48240, 
                            "parts": [
                                [
                                    48240, 
                                    120
                                ], 
                                [
                                    48240, 
                                    104
                                ], 
                                [
                                    48351, 
                                    0
                                ]
                            ], 
                            "v": 120, 
                            "dur": 111, 
                            "type": "note", 
                            "channel": 0
                        }
                    ]
                ], 
                [
                    48360, 
                    [
                        {
                            "pitch": 36, 
                            "t0": 48360, 
                            "v": 104, 
                            "dur": 57, 
                            "type": "note", 
                            "channel": 9
                        }, 
                        {
                            "pitch": 78, 
                            "t0": 48360, 
                            "v": 88, 
                            "dur": 90, 
                            "type": "note", 
                            "channel": 3
                        }, 
                        {
                            "pitch": 73, 
                            "t0": 48360, 
                            "parts": [
                                [
                                    48360, 
                                    88
                                ], 
                                [
                                    48360, 
                                    104
                                ], 
                                [
                                    48450, 
                                    0
                                ]
                            ], 
                            "v": 88, 
                            "dur": 90, 
                            "type": "note", 
                            "channel": 3
                        }, 
                        {
                            "pitch": 42, 
                            "t0": 48360, 
                            "v": 104, 
                            "dur": 108, 
                            "type": "note", 
                            "channel": 6
                        }, 
                        {
                            "pitch": 64, 
                            "t0": 48360, 
                            "parts": [
                                [
                                    48360, 
                                    120
                                ], 
                                [
                                    48360, 
                                    104
                                ], 
                                [
                                    48471, 
                                    0
                                ]
                            ], 
                            "v": 120, 
                            "dur": 111, 
                            "type": "note", 
                            "channel": 0
                        }
                    ]
                ], 
                [
                    48480, 
                    [
                        {
                            "pitch": 38, 
                            "t0": 48480, 
                            "v": 120, 
                            "dur": 57, 
                            "type": "note", 
                            "channel": 9
                        }, 
                        {
                            "pitch": 49, 
                            "t0": 48480, 
                            "v": 104, 
                            "dur": 216, 
                            "type": "note", 
                            "channel": 6
                        }, 
                        {
                            "pitch": 61, 
                            "t0": 48480, 
                            "parts": [
                                [
                                    48480, 
                                    120
                                ], 
                                [
                                    48480, 
                                    104
                                ], 
                                [
                                    48703, 
                                    0
                                ]
                            ], 
                            "v": 120, 
                            "dur": 223, 
                            "type": "note", 
                            "channel": 0
                        }
                    ]
                ], 
                [
                    48720, 
                    [
                        {
                            "pitch": 44, 
                            "t0": 48720, 
                            "v": 88, 
                            "dur": 57, 
                            "type": "note", 
                            "channel": 9
                        }, 
                        {
                            "pitch": 36, 
                            "t0": 48720, 
                            "v": 104, 
                            "dur": 57, 
                            "type": "note", 
                            "channel": 9
                        }, 
                        {
                            "pitch": 78, 
                            "t0": 48720, 
                            "v": 88, 
                            "dur": 90, 
                            "type": "note", 
                            "channel": 3
                        }, 
                        {
                            "pitch": 73, 
                            "t0": 48720, 
                            "v": 88, 
                            "dur": 90, 
                            "type": "note", 
                            "channel": 3
                        }, 
                        {
                            "pitch": 40, 
                            "t0": 48720, 
                            "v": 104, 
                            "dur": 108, 
                            "type": "note", 
                            "channel": 6
                        }, 
                        {
                            "pitch": 59, 
                            "t0": 48720, 
                            "parts": [
                                [
                                    48720, 
                                    120
                                ], 
                                [
                                    48720, 
                                    104
                                ], 
                                [
                                    48943, 
                                    0
                                ]
                            ], 
                            "v": 120, 
                            "dur": 223, 
                            "type": "note", 
                            "channel": 0
                        }
                    ]
                ], 
                [
                    48840, 
                    [
                        {
                            "pitch": 73, 
                            "t0": 48840, 
                            "v": 88, 
                            "dur": 81, 
                            "type": "note", 
                            "channel": 3
                        }, 
                        {
                            "pitch": 78, 
                            "t0": 48840, 
                            "v": 88, 
                            "dur": 90, 
                            "type": "note", 
                            "channel": 3
                        }, 
                        {
                            "pitch": 42, 
                            "t0": 48840, 
                            "v": 104, 
                            "dur": 108, 
                            "type": "note", 
                            "channel": 6
                        }
                    ]
                ], 
                [
                    48960, 
                    [
                        {
                            "pitch": 61, 
                            "t0": 48960, 
                            "parts": [
                                [
                                    48960, 
                                    120
                                ], 
                                [
                                    48960, 
                                    104
                                ], 
                                [
                                    49070, 
                                    0
                                ]
                            ], 
                            "v": 120, 
                            "dur": 110, 
                            "type": "note", 
                            "channel": 0
                        }
                    ]
                ], 
                [
                    49080, 
                    [
                        {
                            "pitch": 36, 
                            "t0": 49080, 
                            "v": 104, 
                            "dur": 57, 
                            "type": "note", 
                            "channel": 9
                        }, 
                        {
                            "pitch": 76, 
                            "t0": 49080, 
                            "v": 104, 
                            "dur": 110, 
                            "type": "note", 
                            "channel": 4
                        }, 
                        {
                            "pitch": 49, 
                            "t0": 49080, 
                            "v": 104, 
                            "dur": 216, 
                            "type": "note", 
                            "channel": 6
                        }
                    ]
                ], 
                [
                    49200, 
                    [
                        {
                            "pitch": 44, 
                            "t0": 49200, 
                            "v": 88, 
                            "dur": 57, 
                            "type": "note", 
                            "channel": 9
                        }, 
                        {
                            "pitch": 76, 
                            "t0": 49200, 
                            "v": 88, 
                            "dur": 90, 
                            "type": "note", 
                            "channel": 3
                        }, 
                        {
                            "pitch": 80, 
                            "t0": 49200, 
                            "v": 88, 
                            "dur": 90, 
                            "type": "note", 
                            "channel": 3
                        }, 
                        {
                            "pitch": 73, 
                            "t0": 49200, 
                            "v": 104, 
                            "dur": 110, 
                            "type": "note", 
                            "channel": 4
                        }
                    ]
                ], 
                [
                    49320, 
                    [
                        {
                            "pitch": 36, 
                            "t0": 49320, 
                            "v": 104, 
                            "dur": 57, 
                            "type": "note", 
                            "channel": 9
                        }, 
                        {
                            "pitch": 76, 
                            "t0": 49320, 
                            "v": 88, 
                            "dur": 90, 
                            "type": "note", 
                            "channel": 3
                        }, 
                        {
                            "pitch": 80, 
                            "t0": 49320, 
                            "v": 88, 
                            "dur": 90, 
                            "type": "note", 
                            "channel": 3
                        }, 
                        {
                            "pitch": 49, 
                            "t0": 49320, 
                            "v": 104, 
                            "dur": 108, 
                            "type": "note", 
                            "channel": 6
                        }, 
                        {
                            "pitch": 68, 
                            "t0": 49320, 
                            "v": 104, 
                            "dur": 561, 
                            "type": "note", 
                            "channel": 4
                        }
                    ]
                ], 
                [
                    49440, 
                    [
                        {
                            "pitch": 38, 
                            "t0": 49440, 
                            "v": 120, 
                            "dur": 57, 
                            "type": "note", 
                            "channel": 9
                        }, 
                        {
                            "pitch": 49, 
                            "t0": 49440, 
                            "v": 104, 
                            "dur": 108, 
                            "type": "note", 
                            "channel": 6
                        }, 
                        {
                            "pitch": 64, 
                            "t0": 49440, 
                            "parts": [
                                [
                                    49440, 
                                    120
                                ], 
                                [
                                    49440, 
                                    104
                                ], 
                                [
                                    49663, 
                                    0
                                ]
                            ], 
                            "v": 120, 
                            "dur": 223, 
                            "type": "note", 
                            "channel": 0
                        }
                    ]
                ], 
                [
                    49560, 
                    [
                        {
                            "pitch": 47, 
                            "t0": 49560, 
                            "v": 104, 
                            "dur": 108, 
                            "type": "note", 
                            "channel": 6
                        }
                    ]
                ], 
                [
                    49680, 
                    [
                        {
                            "pitch": 51, 
                            "t0": 49680, 
                            "v": 88, 
                            "dur": 57, 
                            "type": "note", 
                            "channel": 9
                        }, 
                        {
                            "pitch": 76, 
                            "t0": 49680, 
                            "v": 88, 
                            "dur": 90, 
                            "type": "note", 
                            "channel": 3
                        }, 
                        {
                            "pitch": 80, 
                            "t0": 49680, 
                            "v": 88, 
                            "dur": 90, 
                            "type": "note", 
                            "channel": 3
                        }, 
                        {
                            "pitch": 44, 
                            "t0": 49680, 
                            "v": 104, 
                            "dur": 108, 
                            "type": "note", 
                            "channel": 6
                        }, 
                        {
                            "pitch": 66, 
                            "t0": 49680, 
                            "parts": [
                                [
                                    49680, 
                                    120
                                ], 
                                [
                                    49680, 
                                    104
                                ], 
                                [
                                    49903, 
                                    0
                                ]
                            ], 
                            "v": 120, 
                            "dur": 223, 
                            "type": "note", 
                            "channel": 0
                        }
                    ]
                ], 
                [
                    49800, 
                    [
                        {
                            "pitch": 76, 
                            "t0": 49800, 
                            "v": 88, 
                            "dur": 90, 
                            "type": "note", 
                            "channel": 3
                        }, 
                        {
                            "pitch": 80, 
                            "t0": 49800, 
                            "v": 88, 
                            "dur": 90, 
                            "type": "note", 
                            "channel": 3
                        }, 
                        {
                            "pitch": 42, 
                            "t0": 49800, 
                            "v": 104, 
                            "dur": 108, 
                            "type": "note", 
                            "channel": 6
                        }
                    ]
                ], 
                [
                    49920, 
                    [
                        {
                            "pitch": 49, 
                            "t0": 49920, 
                            "v": 120, 
                            "dur": 57, 
                            "type": "note", 
                            "channel": 9
                        }, 
                        {
                            "pitch": 36, 
                            "t0": 49920, 
                            "v": 120, 
                            "dur": 57, 
                            "type": "note", 
                            "channel": 9
                        }, 
                        {
                            "pitch": 64, 
                            "t0": 49920, 
                            "v": 104, 
                            "dur": 110, 
                            "type": "note", 
                            "channel": 4
                        }, 
                        {
                            "pitch": 68, 
                            "t0": 49920, 
                            "parts": [
                                [
                                    49920, 
                                    120
                                ], 
                                [
                                    49920, 
                                    104
                                ], 
                                [
                                    50143, 
                                    0
                                ]
                            ], 
                            "v": 120, 
                            "dur": 223, 
                            "type": "note", 
                            "channel": 0
                        }, 
                        {
                            "pitch": 40, 
                            "t0": 49920, 
                            "v": 104, 
                            "dur": 324, 
                            "type": "note", 
                            "channel": 6
                        }
                    ]
                ], 
                [
                    50040, 
                    [
                        {
                            "pitch": 71, 
                            "t0": 50040, 
                            "v": 104, 
                            "dur": 110, 
                            "type": "note", 
                            "channel": 4
                        }
                    ]
                ], 
                [
                    50160, 
                    [
                        {
                            "pitch": 44, 
                            "t0": 50160, 
                            "v": 88, 
                            "dur": 57, 
                            "type": "note", 
                            "channel": 9
                        }, 
                        {
                            "pitch": 76, 
                            "t0": 50160, 
                            "parts": [
                                [
                                    50160, 
                                    88
                                ], 
                                [
                                    50160, 
                                    104
                                ], 
                                [
                                    50250, 
                                    0
                                ]
                            ], 
                            "v": 88, 
                            "dur": 90, 
                            "type": "note", 
                            "channel": 3
                        }, 
                        {
                            "pitch": 80, 
                            "t0": 50160, 
                            "v": 88, 
                            "dur": 90, 
                            "type": "note", 
                            "channel": 3
                        }, 
                        {
                            "pitch": 68, 
                            "t0": 50160, 
                            "parts": [
                                [
                                    50160, 
                                    120
                                ], 
                                [
                                    50160, 
                                    104
                                ], 
                                [
                                    50383, 
                                    0
                                ]
                            ], 
                            "v": 120, 
                            "dur": 223, 
                            "type": "note", 
                            "channel": 0
                        }
                    ]
                ], 
                [
                    50280, 
                    [
                        {
                            "pitch": 36, 
                            "t0": 50280, 
                            "v": 104, 
                            "dur": 57, 
                            "type": "note", 
                            "channel": 9
                        }, 
                        {
                            "pitch": 76, 
                            "t0": 50280, 
                            "v": 88, 
                            "dur": 90, 
                            "type": "note", 
                            "channel": 3
                        }, 
                        {
                            "pitch": 80, 
                            "t0": 50280, 
                            "v": 88, 
                            "dur": 90, 
                            "type": "note", 
                            "channel": 3
                        }, 
                        {
                            "pitch": 40, 
                            "t0": 50280, 
                            "v": 104, 
                            "dur": 108, 
                            "type": "note", 
                            "channel": 6
                        }
                    ]
                ], 
                [
                    50400, 
                    [
                        {
                            "pitch": 38, 
                            "t0": 50400, 
                            "v": 120, 
                            "dur": 57, 
                            "type": "note", 
                            "channel": 9
                        }, 
                        {
                            "pitch": 40, 
                            "t0": 50400, 
                            "v": 104, 
                            "dur": 216, 
                            "type": "note", 
                            "channel": 6
                        }, 
                        {
                            "pitch": 71, 
                            "t0": 50400, 
                            "parts": [
                                [
                                    50400, 
                                    120
                                ], 
                                [
                                    50400, 
                                    104
                                ], 
                                [
                                    50520, 
                                    104
                                ], 
                                [
                                    50623, 
                                    0
                                ]
                            ], 
                            "v": 120, 
                            "dur": 223, 
                            "type": "note", 
                            "channel": 0
                        }
                    ]
                ], 
                [
                    50640, 
                    [
                        {
                            "pitch": 44, 
                            "t0": 50640, 
                            "v": 88, 
                            "dur": 57, 
                            "type": "note", 
                            "channel": 9
                        }, 
                        {
                            "pitch": 36, 
                            "t0": 50640, 
                            "v": 104, 
                            "dur": 57, 
                            "type": "note", 
                            "channel": 9
                        }, 
                        {
                            "pitch": 76, 
                            "t0": 50640, 
                            "parts": [
                                [
                                    50640, 
                                    88
                                ], 
                                [
                                    50640, 
                                    104
                                ], 
                                [
                                    50730, 
                                    0
                                ]
                            ], 
                            "v": 88, 
                            "dur": 90, 
                            "type": "note", 
                            "channel": 3
                        }, 
                        {
                            "pitch": 80, 
                            "t0": 50640, 
                            "v": 88, 
                            "dur": 90, 
                            "type": "note", 
                            "channel": 3
                        }, 
                        {
                            "pitch": 42, 
                            "t0": 50640, 
                            "v": 104, 
                            "dur": 216, 
                            "type": "note", 
                            "channel": 6
                        }, 
                        {
                            "pitch": 73, 
                            "t0": 50640, 
                            "parts": [
                                [
                                    50640, 
                                    120
                                ], 
                                [
                                    50640, 
                                    104
                                ], 
                                [
                                    50863, 
                                    0
                                ]
                            ], 
                            "v": 120, 
                            "dur": 223, 
                            "type": "note", 
                            "channel": 0
                        }
                    ]
                ], 
                [
                    50760, 
                    [
                        {
                            "pitch": 76, 
                            "t0": 50760, 
                            "v": 88, 
                            "dur": 90, 
                            "type": "note", 
                            "channel": 3
                        }, 
                        {
                            "pitch": 80, 
                            "t0": 50760, 
                            "v": 88, 
                            "dur": 90, 
                            "type": "note", 
                            "channel": 3
                        }
                    ]
                ], 
                [
                    50880, 
                    [
                        {
                            "pitch": 44, 
                            "t0": 50880, 
                            "v": 104, 
                            "dur": 108, 
                            "type": "note", 
                            "channel": 6
                        }, 
                        {
                            "pitch": 68, 
                            "t0": 50880, 
                            "v": 104, 
                            "dur": 110, 
                            "type": "note", 
                            "channel": 4
                        }, 
                        {
                            "pitch": 66, 
                            "t0": 50880, 
                            "parts": [
                                [
                                    50880, 
                                    120
                                ], 
                                [
                                    50880, 
                                    104
                                ], 
                                [
                                    51326, 
                                    0
                                ]
                            ], 
                            "v": 120, 
                            "dur": 446, 
                            "type": "note", 
                            "channel": 0
                        }
                    ]
                ], 
                [
                    51000, 
                    [
                        {
                            "pitch": 36, 
                            "t0": 51000, 
                            "v": 104, 
                            "dur": 57, 
                            "type": "note", 
                            "channel": 9
                        }, 
                        {
                            "pitch": 83, 
                            "t0": 51000, 
                            "v": 104, 
                            "dur": 110, 
                            "type": "note", 
                            "channel": 4
                        }, 
                        {
                            "pitch": 44, 
                            "t0": 51000, 
                            "parts": [
                                [
                                    51000, 
                                    104
                                ], 
                                [
                                    51120, 
                                    88
                                ], 
                                [
                                    51177, 
                                    0
                                ]
                            ], 
                            "v": 104, 
                            "dur": 177, 
                            "type": "note", 
                            "channel": 6
                        }
                    ]
                ], 
                [
                    51120, 
                    [
                        {
                            "pitch": 80, 
                            "t0": 51120, 
                            "parts": [
                                [
                                    51120, 
                                    88
                                ], 
                                [
                                    51120, 
                                    104
                                ], 
                                [
                                    51210, 
                                    0
                                ]
                            ], 
                            "v": 88, 
                            "dur": 90, 
                            "type": "note", 
                            "channel": 3
                        }, 
                        {
                            "pitch": 75, 
                            "t0": 51120, 
                            "v": 88, 
                            "dur": 90, 
                            "type": "note", 
                            "channel": 3
                        }
                    ]
                ], 
                [
                    51240, 
                    [
                        {
                            "pitch": 36, 
                            "t0": 51240, 
                            "v": 104, 
                            "dur": 57, 
                            "type": "note", 
                            "channel": 9
                        }, 
                        {
                            "pitch": 80, 
                            "t0": 51240, 
                            "v": 88, 
                            "dur": 90, 
                            "type": "note", 
                            "channel": 3
                        }, 
                        {
                            "pitch": 75, 
                            "t0": 51240, 
                            "v": 88, 
                            "dur": 90, 
                            "type": "note", 
                            "channel": 3
                        }, 
                        {
                            "pitch": 44, 
                            "t0": 51240, 
                            "v": 104, 
                            "dur": 108, 
                            "type": "note", 
                            "channel": 6
                        }, 
                        {
                            "pitch": 87, 
                            "t0": 51240, 
                            "v": 104, 
                            "dur": 220, 
                            "type": "note", 
                            "channel": 4
                        }
                    ]
                ], 
                [
                    51360, 
                    [
                        {
                            "pitch": 38, 
                            "t0": 51360, 
                            "v": 120, 
                            "dur": 57, 
                            "type": "note", 
                            "channel": 9
                        }, 
                        {
                            "pitch": 44, 
                            "t0": 51360, 
                            "v": 104, 
                            "dur": 216, 
                            "type": "note", 
                            "channel": 6
                        }, 
                        {
                            "pitch": 68, 
                            "t0": 51360, 
                            "parts": [
                                [
                                    51360, 
                                    120
                                ], 
                                [
                                    51360, 
                                    104
                                ], 
                                [
                                    51583, 
                                    0
                                ]
                            ], 
                            "v": 120, 
                            "dur": 223, 
                            "type": "note", 
                            "channel": 0
                        }
                    ]
                ], 
                [
                    51480, 
                    [
                        {
                            "pitch": 87, 
                            "t0": 51480, 
                            "v": 104, 
                            "dur": 110, 
                            "type": "note", 
                            "channel": 4
                        }
                    ]
                ], 
                [
                    51600, 
                    [
                        {
                            "pitch": 51, 
                            "t0": 51600, 
                            "v": 88, 
                            "dur": 57, 
                            "type": "note", 
                            "channel": 9
                        }, 
                        {
                            "pitch": 80, 
                            "t0": 51600, 
                            "parts": [
                                [
                                    51600, 
                                    88
                                ], 
                                [
                                    51600, 
                                    104
                                ], 
                                [
                                    51690, 
                                    0
                                ]
                            ], 
                            "v": 88, 
                            "dur": 90, 
                            "type": "note", 
                            "channel": 3
                        }, 
                        {
                            "pitch": 75, 
                            "t0": 51600, 
                            "v": 88, 
                            "dur": 90, 
                            "type": "note", 
                            "channel": 3
                        }, 
                        {
                            "pitch": 47, 
                            "t0": 51600, 
                            "v": 104, 
                            "dur": 216, 
                            "type": "note", 
                            "channel": 6
                        }, 
                        {
                            "pitch": 66, 
                            "t0": 51600, 
                            "parts": [
                                [
                                    51600, 
                                    120
                                ], 
                                [
                                    51600, 
                                    104
                                ], 
                                [
                                    51823, 
                                    0
                                ]
                            ], 
                            "v": 120, 
                            "dur": 223, 
                            "type": "note", 
                            "channel": 0
                        }
                    ]
                ], 
                [
                    51720, 
                    [
                        {
                            "pitch": 80, 
                            "t0": 51720, 
                            "v": 88, 
                            "dur": 90, 
                            "type": "note", 
                            "channel": 3
                        }, 
                        {
                            "pitch": 75, 
                            "t0": 51720, 
                            "v": 88, 
                            "dur": 90, 
                            "type": "note", 
                            "channel": 3
                        }
                    ]
                ], 
                [
                    51840, 
                    [
                        {
                            "pitch": 36, 
                            "t0": 51840, 
                            "v": 120, 
                            "dur": 57, 
                            "type": "note", 
                            "channel": 9
                        }, 
                        {
                            "pitch": 69, 
                            "t0": 51840, 
                            "parts": [
                                [
                                    51840, 
                                    104
                                ], 
                                [
                                    51860, 
                                    88
                                ], 
                                [
                                    51950, 
                                    0
                                ]
                            ], 
                            "v": 104, 
                            "dur": 110, 
                            "type": "note", 
                            "channel": 4
                        }, 
                        {
                            "pitch": 64, 
                            "t0": 51840, 
                            "parts": [
                                [
                                    51840, 
                                    120
                                ], 
                                [
                                    51840, 
                                    104
                                ], 
                                [
                                    52063, 
                                    0
                                ]
                            ], 
                            "v": 120, 
                            "dur": 223, 
                            "type": "note", 
                            "channel": 0
                        }, 
                        {
                            "pitch": 45, 
                            "t0": 51840, 
                            "v": 104, 
                            "dur": 324, 
                            "type": "note", 
                            "channel": 6
                        }, 
                        {
                            "pitch": 76, 
                            "t0": 51840, 
                            "parts": [
                                [
                                    51840, 
                                    88
                                ], 
                                [
                                    52200, 
                                    104
                                ], 
                                [
                                    52420, 
                                    0
                                ]
                            ], 
                            "v": 88, 
                            "dur": 580, 
                            "type": "note", 
                            "channel": 3
                        }
                    ]
                ], 
                [
                    51880, 
                    [
                        {
                            "pitch": 81, 
                            "t0": 51880, 
                            "parts": [
                                [
                                    51880, 
                                    88
                                ], 
                                [
                                    52080, 
                                    104
                                ], 
                                [
                                    52190, 
                                    0
                                ]
                            ], 
                            "v": 88, 
                            "dur": 310, 
                            "type": "note", 
                            "channel": 3
                        }
                    ]
                ], 
                [
                    51900, 
                    [
                        {
                            "pitch": 73, 
                            "t0": 51900, 
                            "v": 88, 
                            "dur": 648, 
                            "type": "note", 
                            "channel": 3
                        }
                    ]
                ], 
                [
                    51960, 
                    [
                        {
                            "pitch": 71, 
                            "t0": 51960, 
                            "v": 104, 
                            "dur": 110, 
                            "type": "note", 
                            "channel": 4
                        }
                    ]
                ], 
                [
                    52080, 
                    [
                        {
                            "pitch": 44, 
                            "t0": 52080, 
                            "v": 88, 
                            "dur": 57, 
                            "type": "note", 
                            "channel": 9
                        }, 
                        {
                            "pitch": 64, 
                            "t0": 52080, 
                            "parts": [
                                [
                                    52080, 
                                    120
                                ], 
                                [
                                    52080, 
                                    104
                                ], 
                                [
                                    52303, 
                                    0
                                ]
                            ], 
                            "v": 120, 
                            "dur": 223, 
                            "type": "note", 
                            "channel": 0
                        }
                    ]
                ], 
                [
                    52200, 
                    [
                        {
                            "pitch": 36, 
                            "t0": 52200, 
                            "v": 104, 
                            "dur": 57, 
                            "type": "note", 
                            "channel": 9
                        }, 
                        {
                            "pitch": 45, 
                            "t0": 52200, 
                            "v": 104, 
                            "dur": 108, 
                            "type": "note", 
                            "channel": 6
                        }
                    ]
                ], 
                [
                    52320, 
                    [
                        {
                            "pitch": 38, 
                            "t0": 52320, 
                            "v": 120, 
                            "dur": 57, 
                            "type": "note", 
                            "channel": 9
                        }, 
                        {
                            "pitch": 45, 
                            "t0": 52320, 
                            "v": 104, 
                            "dur": 216, 
                            "type": "note", 
                            "channel": 6
                        }, 
                        {
                            "pitch": 66, 
                            "t0": 52320, 
                            "parts": [
                                [
                                    52320, 
                                    120
                                ], 
                                [
                                    52320, 
                                    104
                                ], 
                                [
                                    52543, 
                                    0
                                ]
                            ], 
                            "v": 120, 
                            "dur": 223, 
                            "type": "note", 
                            "channel": 0
                        }
                    ]
                ], 
                [
                    52440, 
                    [
                        {
                            "pitch": 71, 
                            "t0": 52440, 
                            "v": 104, 
                            "dur": 110, 
                            "type": "note", 
                            "channel": 4
                        }
                    ]
                ], 
                [
                    52560, 
                    [
                        {
                            "pitch": 44, 
                            "t0": 52560, 
                            "parts": [
                                [
                                    52560, 
                                    104
                                ], 
                                [
                                    52560, 
                                    88
                                ], 
                                [
                                    52617, 
                                    0
                                ]
                            ], 
                            "v": 104, 
                            "dur": 57, 
                            "type": "note", 
                            "channel": 6
                        }, 
                        {
                            "pitch": 36, 
                            "t0": 52560, 
                            "v": 104, 
                            "dur": 57, 
                            "type": "note", 
                            "channel": 9
                        }, 
                        {
                            "pitch": 68, 
                            "t0": 52560, 
                            "parts": [
                                [
                                    52560, 
                                    120
                                ], 
                                [
                                    52560, 
                                    104
                                ], 
                                [
                                    52671, 
                                    0
                                ]
                            ], 
                            "v": 120, 
                            "dur": 111, 
                            "type": "note", 
                            "channel": 0
                        }, 
                        {
                            "pitch": 81, 
                            "t0": 52560, 
                            "v": 104, 
                            "dur": 220, 
                            "type": "note", 
                            "channel": 4
                        }
                    ]
                ], 
                [
                    52680, 
                    [
                        {
                            "pitch": 45, 
                            "t0": 52680, 
                            "v": 104, 
                            "dur": 108, 
                            "type": "note", 
                            "channel": 6
                        }, 
                        {
                            "pitch": 66, 
                            "t0": 52680, 
                            "parts": [
                                [
                                    52680, 
                                    120
                                ], 
                                [
                                    52680, 
                                    104
                                ], 
                                [
                                    52791, 
                                    0
                                ]
                            ], 
                            "v": 120, 
                            "dur": 111, 
                            "type": "note", 
                            "channel": 0
                        }
                    ]
                ], 
                [
                    52800, 
                    [
                        {
                            "pitch": 47, 
                            "t0": 52800, 
                            "v": 104, 
                            "dur": 54, 
                            "type": "note", 
                            "channel": 6
                        }, 
                        {
                            "pitch": 46, 
                            "t0": 52800, 
                            "v": 104, 
                            "dur": 57, 
                            "type": "note", 
                            "channel": 9
                        }, 
                        {
                            "pitch": 71, 
                            "t0": 52800, 
                            "parts": [
                                [
                                    52800, 
                                    95
                                ], 
                                [
                                    52800, 
                                    104
                                ], 
                                [
                                    52910, 
                                    0
                                ]
                            ], 
                            "v": 95, 
                            "dur": 110, 
                            "type": "note", 
                            "channel": 3
                        }, 
                        {
                            "pitch": 76, 
                            "t0": 52800, 
                            "parts": [
                                [
                                    52800, 
                                    95
                                ], 
                                [
                                    52920, 
                                    104
                                ], 
                                [
                                    53030, 
                                    0
                                ]
                            ], 
                            "v": 95, 
                            "dur": 230, 
                            "type": "note", 
                            "channel": 3
                        }, 
                        {
                            "pitch": 66, 
                            "t0": 52800, 
                            "parts": [
                                [
                                    52800, 
                                    120
                                ], 
                                [
                                    52800, 
                                    95
                                ], 
                                [
                                    52800, 
                                    104
                                ], 
                                [
                                    53664, 
                                    0
                                ]
                            ], 
                            "v": 120, 
                            "dur": 864, 
                            "type": "note", 
                            "channel": 0
                        }, 
                        {
                            "pitch": 59, 
                            "t0": 52800, 
                            "v": 95, 
                            "dur": 864, 
                            "type": "note", 
                            "channel": 3
                        }
                    ]
                ], 
                [
                    52860, 
                    [
                        {
                            "pitch": 47, 
                            "t0": 52860, 
                            "v": 104, 
                            "dur": 216, 
                            "type": "note", 
                            "channel": 6
                        }
                    ]
                ], 
                [
                    52920, 
                    [
                        {
                            "pitch": 36, 
                            "t0": 52920, 
                            "v": 104, 
                            "dur": 57, 
                            "type": "note", 
                            "channel": 9
                        }
                    ]
                ], 
                [
                    53040, 
                    [
                        {
                            "pitch": 46, 
                            "t0": 53040, 
                            "v": 88, 
                            "dur": 57, 
                            "type": "note", 
                            "channel": 9
                        }, 
                        {
                            "pitch": 83, 
                            "t0": 53040, 
                            "v": 104, 
                            "dur": 110, 
                            "type": "note", 
                            "channel": 4
                        }
                    ]
                ], 
                [
                    53100, 
                    [
                        {
                            "pitch": 47, 
                            "t0": 53100, 
                            "v": 104, 
                            "dur": 108, 
                            "type": "note", 
                            "channel": 6
                        }
                    ]
                ], 
                [
                    53160, 
                    [
                        {
                            "pitch": 36, 
                            "t0": 53160, 
                            "v": 104, 
                            "dur": 57, 
                            "type": "note", 
                            "channel": 9
                        }, 
                        {
                            "pitch": 71, 
                            "t0": 53160, 
                            "v": 104, 
                            "dur": 220, 
                            "type": "note", 
                            "channel": 4
                        }
                    ]
                ], 
                [
                    53280, 
                    [
                        {
                            "pitch": 46, 
                            "t0": 53280, 
                            "v": 104, 
                            "dur": 57, 
                            "type": "note", 
                            "channel": 9
                        }, 
                        {
                            "pitch": 38, 
                            "t0": 53280, 
                            "v": 120, 
                            "dur": 57, 
                            "type": "note", 
                            "channel": 9
                        }, 
                        {
                            "pitch": 47, 
                            "t0": 53280, 
                            "v": 104, 
                            "dur": 216, 
                            "type": "note", 
                            "channel": 6
                        }
                    ]
                ], 
                [
                    53400, 
                    [
                        {
                            "pitch": 76, 
                            "t0": 53400, 
                            "v": 104, 
                            "dur": 110, 
                            "type": "note", 
                            "channel": 4
                        }
                    ]
                ], 
                [
                    53520, 
                    [
                        {
                            "pitch": 46, 
                            "t0": 53520, 
                            "v": 88, 
                            "dur": 57, 
                            "type": "note", 
                            "channel": 9
                        }, 
                        {
                            "pitch": 78, 
                            "t0": 53520, 
                            "v": 104, 
                            "dur": 110, 
                            "type": "note", 
                            "channel": 4
                        }, 
                        {
                            "pitch": 42, 
                            "t0": 53520, 
                            "v": 104, 
                            "dur": 216, 
                            "type": "note", 
                            "channel": 6
                        }
                    ]
                ], 
                [
                    53640, 
                    [
                        {
                            "pitch": 83, 
                            "t0": 53640, 
                            "v": 104, 
                            "dur": 1003, 
                            "type": "note", 
                            "channel": 4
                        }
                    ]
                ], 
                [
                    53760, 
                    [
                        {
                            "pitch": 46, 
                            "t0": 53760, 
                            "v": 104, 
                            "dur": 57, 
                            "type": "note", 
                            "channel": 9
                        }, 
                        {
                            "pitch": 36, 
                            "t0": 53760, 
                            "v": 120, 
                            "dur": 57, 
                            "type": "note", 
                            "channel": 9
                        }, 
                        {
                            "pitch": 47, 
                            "t0": 53760, 
                            "v": 104, 
                            "dur": 108, 
                            "type": "note", 
                            "channel": 6
                        }, 
                        {
                            "pitch": 63, 
                            "t0": 53760, 
                            "v": 104, 
                            "dur": 108, 
                            "type": "note", 
                            "channel": 3
                        }
                    ]
                ], 
                [
                    53880, 
                    [
                        {
                            "pitch": 38, 
                            "t0": 53880, 
                            "v": 104, 
                            "dur": 57, 
                            "type": "note", 
                            "channel": 9
                        }, 
                        {
                            "pitch": 42, 
                            "t0": 53880, 
                            "v": 104, 
                            "dur": 108, 
                            "type": "note", 
                            "channel": 6
                        }, 
                        {
                            "pitch": 66, 
                            "t0": 53880, 
                            "v": 104, 
                            "dur": 108, 
                            "type": "note", 
                            "channel": 3
                        }
                    ]
                ], 
                [
                    54000, 
                    [
                        {
                            "pitch": 67, 
                            "t0": 54000, 
                            "v": 104, 
                            "dur": 108, 
                            "type": "note", 
                            "channel": 3
                        }, 
                        {
                            "pitch": 45, 
                            "t0": 54000, 
                            "v": 104, 
                            "dur": 324, 
                            "type": "note", 
                            "channel": 6
                        }
                    ]
                ], 
                [
                    54120, 
                    [
                        {
                            "pitch": 48, 
                            "t0": 54120, 
                            "v": 104, 
                            "dur": 57, 
                            "type": "note", 
                            "channel": 9
                        }, 
                        {
                            "pitch": 63, 
                            "t0": 54120, 
                            "v": 104, 
                            "dur": 108, 
                            "type": "note", 
                            "channel": 3
                        }
                    ]
                ], 
                [
                    54240, 
                    [
                        {
                            "pitch": 48, 
                            "t0": 54240, 
                            "v": 120, 
                            "dur": 57, 
                            "type": "note", 
                            "channel": 9
                        }, 
                        {
                            "pitch": 66, 
                            "t0": 54240, 
                            "v": 104, 
                            "dur": 108, 
                            "type": "note", 
                            "channel": 3
                        }, 
                        {
                            "pitch": 71, 
                            "t0": 54240, 
                            "parts": [
                                [
                                    54240, 
                                    120
                                ], 
                                [
                                    54240, 
                                    104
                                ], 
                                [
                                    54456, 
                                    0
                                ]
                            ], 
                            "v": 120, 
                            "dur": 216, 
                            "type": "note", 
                            "channel": 0
                        }
                    ]
                ], 
                [
                    54360, 
                    [
                        {
                            "pitch": 48, 
                            "t0": 54360, 
                            "v": 104, 
                            "dur": 57, 
                            "type": "note", 
                            "channel": 9
                        }, 
                        {
                            "pitch": 47, 
                            "t0": 54360, 
                            "v": 104, 
                            "dur": 108, 
                            "type": "note", 
                            "channel": 6
                        }, 
                        {
                            "pitch": 68, 
                            "t0": 54360, 
                            "v": 104, 
                            "dur": 108, 
                            "type": "note", 
                            "channel": 3
                        }
                    ]
                ], 
                [
                    54480, 
                    [
                        {
                            "pitch": 47, 
                            "t0": 54480, 
                            "v": 104, 
                            "dur": 57, 
                            "type": "note", 
                            "channel": 9
                        }, 
                        {
                            "pitch": 51, 
                            "t0": 54480, 
                            "v": 104, 
                            "dur": 216, 
                            "type": "note", 
                            "channel": 6
                        }, 
                        {
                            "pitch": 71, 
                            "t0": 54480, 
                            "parts": [
                                [
                                    54480, 
                                    120
                                ], 
                                [
                                    54480, 
                                    104
                                ], 
                                [
                                    54696, 
                                    0
                                ]
                            ], 
                            "v": 120, 
                            "dur": 216, 
                            "type": "note", 
                            "channel": 1
                        }, 
                        {
                            "pitch": 75, 
                            "t0": 54480, 
                            "parts": [
                                [
                                    54480, 
                                    120
                                ], 
                                [
                                    54480, 
                                    104
                                ], 
                                [
                                    54703, 
                                    0
                                ]
                            ], 
                            "v": 120, 
                            "dur": 223, 
                            "type": "note", 
                            "channel": 0
                        }
                    ]
                ], 
                [
                    54720, 
                    [
                        {
                            "pitch": 36, 
                            "t0": 54720, 
                            "v": 120, 
                            "dur": 57, 
                            "type": "note", 
                            "channel": 9
                        }, 
                        {
                            "pitch": 49, 
                            "t0": 54720, 
                            "v": 120, 
                            "dur": 57, 
                            "type": "note", 
                            "channel": 9
                        }, 
                        {
                            "pitch": 83, 
                            "t0": 54720, 
                            "v": 104, 
                            "dur": 110, 
                            "type": "note", 
                            "channel": 4
                        }, 
                        {
                            "pitch": 76, 
                            "t0": 54720, 
                            "parts": [
                                [
                                    54720, 
                                    120
                                ], 
                                [
                                    54720, 
                                    104
                                ], 
                                [
                                    54960, 
                                    104
                                ], 
                                [
                                    55070, 
                                    0
                                ]
                            ], 
                            "v": 120, 
                            "dur": 350, 
                            "type": "note", 
                            "channel": 0
                        }, 
                        {
                            "pitch": 40, 
                            "t0": 54720, 
                            "v": 104, 
                            "dur": 432, 
                            "type": "note", 
                            "channel": 6
                        }, 
                        {
                            "pitch": 59, 
                            "t0": 54720, 
                            "v": 104, 
                            "dur": 864, 
                            "type": "note", 
                            "channel": 3
                        }, 
                        {
                            "pitch": 52, 
                            "t0": 54720, 
                            "v": 104, 
                            "dur": 864, 
                            "type": "note", 
                            "channel": 3
                        }, 
                        {
                            "pitch": 68, 
                            "t0": 54720, 
                            "v": 104, 
                            "dur": 968, 
                            "type": "note", 
                            "channel": 5
                        }, 
                        {
                            "pitch": 64, 
                            "t0": 54720, 
                            "v": 104, 
                            "dur": 968, 
                            "type": "note", 
                            "channel": 5
                        }
                    ]
                ], 
                [
                    54840, 
                    [
                        {
                            "pitch": 80, 
                            "t0": 54840, 
                            "v": 104, 
                            "dur": 110, 
                            "type": "note", 
                            "channel": 4
                        }
                    ]
                ], 
                [
                    54960, 
                    [
                        {
                            "pitch": 46, 
                            "t0": 54960, 
                            "v": 88, 
                            "dur": 57, 
                            "type": "note", 
                            "channel": 9
                        }
                    ]
                ], 
                [
                    55080, 
                    [
                        {
                            "pitch": 83, 
                            "t0": 55080, 
                            "v": 104, 
                            "dur": 110, 
                            "type": "note", 
                            "channel": 4
                        }
                    ]
                ], 
                [
                    55200, 
                    [
                        {
                            "pitch": 38, 
                            "t0": 55200, 
                            "v": 120, 
                            "dur": 57, 
                            "type": "note", 
                            "channel": 9
                        }, 
                        {
                            "pitch": 46, 
                            "t0": 55200, 
                            "v": 104, 
                            "dur": 57, 
                            "type": "note", 
                            "channel": 9
                        }, 
                        {
                            "pitch": 80, 
                            "t0": 55200, 
                            "v": 104, 
                            "dur": 110, 
                            "type": "note", 
                            "channel": 4
                        }, 
                        {
                            "pitch": 40, 
                            "t0": 55200, 
                            "v": 104, 
                            "dur": 216, 
                            "type": "note", 
                            "channel": 6
                        }, 
                        {
                            "pitch": 76, 
                            "t0": 55200, 
                            "parts": [
                                [
                                    55200, 
                                    120
                                ], 
                                [
                                    55200, 
                                    104
                                ], 
                                [
                                    55320, 
                                    104
                                ], 
                                [
                                    55416, 
                                    0
                                ]
                            ], 
                            "v": 120, 
                            "dur": 216, 
                            "type": "note", 
                            "channel": 0
                        }
                    ]
                ], 
                [
                    55440, 
                    [
                        {
                            "pitch": 36, 
                            "t0": 55440, 
                            "v": 104, 
                            "dur": 57, 
                            "type": "note", 
                            "channel": 9
                        }, 
                        {
                            "pitch": 46, 
                            "t0": 55440, 
                            "v": 88, 
                            "dur": 57, 
                            "type": "note", 
                            "channel": 9
                        }, 
                        {
                            "pitch": 83, 
                            "t0": 55440, 
                            "v": 104, 
                            "dur": 110, 
                            "type": "note", 
                            "channel": 4
                        }, 
                        {
                            "pitch": 44, 
                            "t0": 55440, 
                            "v": 104, 
                            "dur": 216, 
                            "type": "note", 
                            "channel": 6
                        }, 
                        {
                            "pitch": 78, 
                            "t0": 55440, 
                            "parts": [
                                [
                                    55440, 
                                    120
                                ], 
                                [
                                    55440, 
                                    104
                                ], 
                                [
                                    55656, 
                                    0
                                ]
                            ], 
                            "v": 120, 
                            "dur": 216, 
                            "type": "note", 
                            "channel": 0
                        }
                    ]
                ], 
                [
                    55560, 
                    [
                        {
                            "pitch": 80, 
                            "t0": 55560, 
                            "v": 104, 
                            "dur": 110, 
                            "type": "note", 
                            "channel": 4
                        }
                    ]
                ], 
                [
                    55680, 
                    [
                        {
                            "pitch": 59, 
                            "t0": 55680, 
                            "v": 104, 
                            "dur": 8, 
                            "type": "note", 
                            "channel": 5
                        }, 
                        {
                            "pitch": 36, 
                            "t0": 55680, 
                            "v": 120, 
                            "dur": 57, 
                            "type": "note", 
                            "channel": 9
                        }, 
                        {
                            "pitch": 46, 
                            "t0": 55680, 
                            "v": 104, 
                            "dur": 57, 
                            "type": "note", 
                            "channel": 9
                        }, 
                        {
                            "pitch": 83, 
                            "t0": 55680, 
                            "v": 104, 
                            "dur": 110, 
                            "type": "note", 
                            "channel": 4
                        }, 
                        {
                            "pitch": 76, 
                            "t0": 55680, 
                            "parts": [
                                [
                                    55680, 
                                    120
                                ], 
                                [
                                    55680, 
                                    104
                                ], 
                                [
                                    55896, 
                                    0
                                ]
                            ], 
                            "v": 120, 
                            "dur": 216, 
                            "type": "note", 
                            "channel": 0
                        }, 
                        {
                            "pitch": 47, 
                            "t0": 55680, 
                            "v": 104, 
                            "dur": 324, 
                            "type": "note", 
                            "channel": 6
                        }, 
                        {
                            "pitch": 69, 
                            "t0": 55680, 
                            "v": 104, 
                            "dur": 864, 
                            "type": "note", 
                            "channel": 3
                        }, 
                        {
                            "pitch": 63, 
                            "t0": 55680, 
                            "v": 104, 
                            "dur": 864, 
                            "type": "note", 
                            "channel": 3
                        }, 
                        {
                            "pitch": 66, 
                            "t0": 55680, 
                            "v": 104, 
                            "dur": 960, 
                            "type": "note", 
                            "channel": 5
                        }
                    ]
                ], 
                [
                    55800, 
                    [
                        {
                            "pitch": 78, 
                            "t0": 55800, 
                            "v": 104, 
                            "dur": 110, 
                            "type": "note", 
                            "channel": 4
                        }
                    ]
                ], 
                [
                    55920, 
                    [
                        {
                            "pitch": 46, 
                            "t0": 55920, 
                            "v": 88, 
                            "dur": 57, 
                            "type": "note", 
                            "channel": 9
                        }, 
                        {
                            "pitch": 75, 
                            "t0": 55920, 
                            "parts": [
                                [
                                    55920, 
                                    120
                                ], 
                                [
                                    55920, 
                                    104
                                ], 
                                [
                                    56030, 
                                    0
                                ]
                            ], 
                            "v": 120, 
                            "dur": 110, 
                            "type": "note", 
                            "channel": 0
                        }
                    ]
                ], 
                [
                    56040, 
                    [
                        {
                            "pitch": 47, 
                            "t0": 56040, 
                            "v": 104, 
                            "dur": 108, 
                            "type": "note", 
                            "channel": 6
                        }, 
                        {
                            "pitch": 83, 
                            "t0": 56040, 
                            "v": 104, 
                            "dur": 110, 
                            "type": "note", 
                            "channel": 4
                        }
                    ]
                ], 
                [
                    56160, 
                    [
                        {
                            "pitch": 38, 
                            "t0": 56160, 
                            "v": 120, 
                            "dur": 57, 
                            "type": "note", 
                            "channel": 9
                        }, 
                        {
                            "pitch": 46, 
                            "t0": 56160, 
                            "v": 104, 
                            "dur": 57, 
                            "type": "note", 
                            "channel": 9
                        }, 
                        {
                            "pitch": 78, 
                            "t0": 56160, 
                            "v": 104, 
                            "dur": 110, 
                            "type": "note", 
                            "channel": 4
                        }, 
                        {
                            "pitch": 47, 
                            "t0": 56160, 
                            "v": 104, 
                            "dur": 216, 
                            "type": "note", 
                            "channel": 6
                        }, 
                        {
                            "pitch": 71, 
                            "t0": 56160, 
                            "parts": [
                                [
                                    56160, 
                                    120
                                ], 
                                [
                                    56160, 
                                    104
                                ], 
                                [
                                    56376, 
                                    0
                                ]
                            ], 
                            "v": 120, 
                            "dur": 216, 
                            "type": "note", 
                            "channel": 0
                        }
                    ]
                ], 
                [
                    56280, 
                    [
                        {
                            "pitch": 75, 
                            "t0": 56280, 
                            "v": 104, 
                            "dur": 110, 
                            "type": "note", 
                            "channel": 4
                        }
                    ]
                ], 
                [
                    56400, 
                    [
                        {
                            "pitch": 36, 
                            "t0": 56400, 
                            "v": 104, 
                            "dur": 57, 
                            "type": "note", 
                            "channel": 9
                        }, 
                        {
                            "pitch": 46, 
                            "t0": 56400, 
                            "v": 88, 
                            "dur": 57, 
                            "type": "note", 
                            "channel": 9
                        }, 
                        {
                            "pitch": 83, 
                            "t0": 56400, 
                            "v": 104, 
                            "dur": 110, 
                            "type": "note", 
                            "channel": 4
                        }, 
                        {
                            "pitch": 48, 
                            "t0": 56400, 
                            "v": 104, 
                            "dur": 216, 
                            "type": "note", 
                            "channel": 6
                        }, 
                        {
                            "pitch": 71, 
                            "t0": 56400, 
                            "v": 120, 
                            "dur": 216, 
                            "type": "note", 
                            "channel": 1
                        }, 
                        {
                            "pitch": 75, 
                            "t0": 56400, 
                            "parts": [
                                [
                                    56400, 
                                    120
                                ], 
                                [
                                    56400, 
                                    104
                                ], 
                                [
                                    56623, 
                                    0
                                ]
                            ], 
                            "v": 120, 
                            "dur": 223, 
                            "type": "note", 
                            "channel": 0
                        }
                    ]
                ], 
                [
                    56640, 
                    [
                        {
                            "pitch": 46, 
                            "t0": 56640, 
                            "v": 104, 
                            "dur": 57, 
                            "type": "note", 
                            "channel": 9
                        }, 
                        {
                            "pitch": 36, 
                            "t0": 56640, 
                            "v": 120, 
                            "dur": 57, 
                            "type": "note", 
                            "channel": 9
                        }, 
                        {
                            "pitch": 85, 
                            "t0": 56640, 
                            "v": 104, 
                            "dur": 110, 
                            "type": "note", 
                            "channel": 4
                        }, 
                        {
                            "pitch": 76, 
                            "t0": 56640, 
                            "parts": [
                                [
                                    56640, 
                                    120
                                ], 
                                [
                                    56640, 
                                    104
                                ], 
                                [
                                    56880, 
                                    104
                                ], 
                                [
                                    56990, 
                                    0
                                ]
                            ], 
                            "v": 120, 
                            "dur": 350, 
                            "type": "note", 
                            "channel": 0
                        }, 
                        {
                            "pitch": 49, 
                            "t0": 56640, 
                            "v": 104, 
                            "dur": 432, 
                            "type": "note", 
                            "channel": 6
                        }, 
                        {
                            "pitch": 68, 
                            "t0": 56640, 
                            "v": 104, 
                            "dur": 864, 
                            "type": "note", 
                            "channel": 3
                        }, 
                        {
                            "pitch": 61, 
                            "t0": 56640, 
                            "v": 104, 
                            "dur": 864, 
                            "type": "note", 
                            "channel": 3
                        }, 
                        {
                            "pitch": 64, 
                            "t0": 56640, 
                            "v": 104, 
                            "dur": 960, 
                            "type": "note", 
                            "channel": 5
                        }
                    ]
                ], 
                [
                    56760, 
                    [
                        {
                            "pitch": 80, 
                            "t0": 56760, 
                            "v": 104, 
                            "dur": 110, 
                            "type": "note", 
                            "channel": 4
                        }
                    ]
                ], 
                [
                    56880, 
                    [
                        {
                            "pitch": 46, 
                            "t0": 56880, 
                            "v": 88, 
                            "dur": 57, 
                            "type": "note", 
                            "channel": 9
                        }
                    ]
                ], 
                [
                    57000, 
                    [
                        {
                            "pitch": 85, 
                            "t0": 57000, 
                            "v": 104, 
                            "dur": 110, 
                            "type": "note", 
                            "channel": 4
                        }
                    ]
                ], 
                [
                    57120, 
                    [
                        {
                            "pitch": 38, 
                            "t0": 57120, 
                            "v": 120, 
                            "dur": 57, 
                            "type": "note", 
                            "channel": 9
                        }, 
                        {
                            "pitch": 46, 
                            "t0": 57120, 
                            "v": 104, 
                            "dur": 57, 
                            "type": "note", 
                            "channel": 9
                        }, 
                        {
                            "pitch": 80, 
                            "t0": 57120, 
                            "v": 104, 
                            "dur": 110, 
                            "type": "note", 
                            "channel": 4
                        }, 
                        {
                            "pitch": 49, 
                            "t0": 57120, 
                            "v": 104, 
                            "dur": 216, 
                            "type": "note", 
                            "channel": 6
                        }, 
                        {
                            "pitch": 76, 
                            "t0": 57120, 
                            "parts": [
                                [
                                    57120, 
                                    120
                                ], 
                                [
                                    57240, 
                                    104
                                ], 
                                [
                                    57336, 
                                    0
                                ]
                            ], 
                            "v": 120, 
                            "dur": 216, 
                            "type": "note", 
                            "channel": 1
                        }
                    ]
                ], 
                [
                    57360, 
                    [
                        {
                            "pitch": 36, 
                            "t0": 57360, 
                            "v": 104, 
                            "dur": 57, 
                            "type": "note", 
                            "channel": 9
                        }, 
                        {
                            "pitch": 46, 
                            "t0": 57360, 
                            "v": 88, 
                            "dur": 57, 
                            "type": "note", 
                            "channel": 9
                        }, 
                        {
                            "pitch": 85, 
                            "t0": 57360, 
                            "v": 104, 
                            "dur": 110, 
                            "type": "note", 
                            "channel": 4
                        }, 
                        {
                            "pitch": 56, 
                            "t0": 57360, 
                            "v": 104, 
                            "dur": 216, 
                            "type": "note", 
                            "channel": 6
                        }, 
                        {
                            "pitch": 78, 
                            "t0": 57360, 
                            "parts": [
                                [
                                    57360, 
                                    120
                                ], 
                                [
                                    57360, 
                                    104
                                ], 
                                [
                                    57576, 
                                    0
                                ]
                            ], 
                            "v": 120, 
                            "dur": 216, 
                            "type": "note", 
                            "channel": 0
                        }
                    ]
                ], 
                [
                    57480, 
                    [
                        {
                            "pitch": 80, 
                            "t0": 57480, 
                            "v": 104, 
                            "dur": 110, 
                            "type": "note", 
                            "channel": 4
                        }
                    ]
                ], 
                [
                    57600, 
                    [
                        {
                            "pitch": 36, 
                            "t0": 57600, 
                            "v": 120, 
                            "dur": 57, 
                            "type": "note", 
                            "channel": 9
                        }, 
                        {
                            "pitch": 46, 
                            "t0": 57600, 
                            "v": 104, 
                            "dur": 57, 
                            "type": "note", 
                            "channel": 9
                        }, 
                        {
                            "pitch": 75, 
                            "t0": 57600, 
                            "v": 104, 
                            "dur": 110, 
                            "type": "note", 
                            "channel": 4
                        }, 
                        {
                            "pitch": 76, 
                            "t0": 57600, 
                            "parts": [
                                [
                                    57600, 
                                    120
                                ], 
                                [
                                    57600, 
                                    104
                                ], 
                                [
                                    57816, 
                                    0
                                ]
                            ], 
                            "v": 120, 
                            "dur": 216, 
                            "type": "note", 
                            "channel": 0
                        }, 
                        {
                            "pitch": 68, 
                            "t0": 57600, 
                            "v": 104, 
                            "dur": 480, 
                            "type": "note", 
                            "channel": 5
                        }, 
                        {
                            "pitch": 59, 
                            "t0": 57600, 
                            "v": 104, 
                            "dur": 480, 
                            "type": "note", 
                            "channel": 5
                        }, 
                        {
                            "pitch": 63, 
                            "t0": 57600, 
                            "v": 104, 
                            "dur": 480, 
                            "type": "note", 
                            "channel": 3
                        }, 
                        {
                            "pitch": 44, 
                            "t0": 57600, 
                            "v": 104, 
                            "dur": 648, 
                            "type": "note", 
                            "channel": 6
                        }, 
                        {
                            "pitch": 56, 
                            "t0": 57600, 
                            "v": 104, 
                            "dur": 864, 
                            "type": "note", 
                            "channel": 3
                        }
                    ]
                ], 
                [
                    57720, 
                    [
                        {
                            "pitch": 71, 
                            "t0": 57720, 
                            "v": 104, 
                            "dur": 110, 
                            "type": "note", 
                            "channel": 4
                        }
                    ]
                ], 
                [
                    57840, 
                    [
                        {
                            "pitch": 46, 
                            "t0": 57840, 
                            "v": 88, 
                            "dur": 57, 
                            "type": "note", 
                            "channel": 9
                        }, 
                        {
                            "pitch": 80, 
                            "t0": 57840, 
                            "v": 104, 
                            "dur": 110, 
                            "type": "note", 
                            "channel": 4
                        }, 
                        {
                            "pitch": 75, 
                            "t0": 57840, 
                            "parts": [
                                [
                                    57840, 
                                    120
                                ], 
                                [
                                    57840, 
                                    104
                                ], 
                                [
                                    57960, 
                                    104
                                ], 
                                [
                                    58056, 
                                    0
                                ]
                            ], 
                            "v": 120, 
                            "dur": 216, 
                            "type": "note", 
                            "channel": 0
                        }
                    ]
                ], 
                [
                    58080, 
                    [
                        {
                            "pitch": 38, 
                            "t0": 58080, 
                            "v": 120, 
                            "dur": 57, 
                            "type": "note", 
                            "channel": 9
                        }, 
                        {
                            "pitch": 46, 
                            "t0": 58080, 
                            "v": 104, 
                            "dur": 57, 
                            "type": "note", 
                            "channel": 9
                        }, 
                        {
                            "pitch": 71, 
                            "t0": 58080, 
                            "parts": [
                                [
                                    58080, 
                                    120
                                ], 
                                [
                                    58080, 
                                    104
                                ], 
                                [
                                    58190, 
                                    0
                                ]
                            ], 
                            "v": 120, 
                            "dur": 110, 
                            "type": "note", 
                            "channel": 0
                        }, 
                        {
                            "pitch": 63, 
                            "t0": 58080, 
                            "v": 104, 
                            "dur": 384, 
                            "type": "note", 
                            "channel": 5
                        }, 
                        {
                            "pitch": 66, 
                            "t0": 58080, 
                            "v": 104, 
                            "dur": 480, 
                            "type": "note", 
                            "channel": 5
                        }, 
                        {
                            "pitch": 59, 
                            "t0": 58080, 
                            "v": 104, 
                            "dur": 480, 
                            "type": "note", 
                            "channel": 5
                        }
                    ]
                ], 
                [
                    58200, 
                    [
                        {
                            "pitch": 80, 
                            "t0": 58200, 
                            "v": 104, 
                            "dur": 110, 
                            "type": "note", 
                            "channel": 4
                        }
                    ]
                ], 
                [
                    58320, 
                    [
                        {
                            "pitch": 46, 
                            "t0": 58320, 
                            "v": 88, 
                            "dur": 57, 
                            "type": "note", 
                            "channel": 9
                        }, 
                        {
                            "pitch": 44, 
                            "t0": 58320, 
                            "v": 104, 
                            "dur": 216, 
                            "type": "note", 
                            "channel": 6
                        }, 
                        {
                            "pitch": 71, 
                            "t0": 58320, 
                            "parts": [
                                [
                                    58320, 
                                    120
                                ], 
                                [
                                    58320, 
                                    104
                                ], 
                                [
                                    58536, 
                                    0
                                ]
                            ], 
                            "v": 120, 
                            "dur": 216, 
                            "type": "note", 
                            "channel": 0
                        }
                    ]
                ], 
                [
                    58560, 
                    [
                        {
                            "pitch": 46, 
                            "t0": 58560, 
                            "v": 104, 
                            "dur": 57, 
                            "type": "note", 
                            "channel": 9
                        }, 
                        {
                            "pitch": 36, 
                            "t0": 58560, 
                            "v": 120, 
                            "dur": 57, 
                            "type": "note", 
                            "channel": 9
                        }, 
                        {
                            "pitch": 81, 
                            "t0": 58560, 
                            "v": 104, 
                            "dur": 110, 
                            "type": "note", 
                            "channel": 4
                        }, 
                        {
                            "pitch": 45, 
                            "t0": 58560, 
                            "v": 104, 
                            "dur": 432, 
                            "type": "note", 
                            "channel": 6
                        }, 
                        {
                            "pitch": 69, 
                            "t0": 58560, 
                            "parts": [
                                [
                                    58560, 
                                    120
                                ], 
                                [
                                    58560, 
                                    104
                                ], 
                                [
                                    58992, 
                                    0
                                ]
                            ], 
                            "v": 120, 
                            "dur": 432, 
                            "type": "note", 
                            "channel": 0
                        }, 
                        {
                            "pitch": 64, 
                            "t0": 58560, 
                            "v": 104, 
                            "dur": 864, 
                            "type": "note", 
                            "channel": 3
                        }, 
                        {
                            "pitch": 57, 
                            "t0": 58560, 
                            "v": 104, 
                            "dur": 864, 
                            "type": "note", 
                            "channel": 3
                        }, 
                        {
                            "pitch": 61, 
                            "t0": 58560, 
                            "v": 104, 
                            "dur": 952, 
                            "type": "note", 
                            "channel": 5
                        }
                    ]
                ], 
                [
                    58680, 
                    [
                        {
                            "pitch": 76, 
                            "t0": 58680, 
                            "v": 104, 
                            "dur": 110, 
                            "type": "note", 
                            "channel": 4
                        }
                    ]
                ], 
                [
                    58800, 
                    [
                        {
                            "pitch": 46, 
                            "t0": 58800, 
                            "v": 88, 
                            "dur": 57, 
                            "type": "note", 
                            "channel": 9
                        }, 
                        {
                            "pitch": 73, 
                            "t0": 58800, 
                            "v": 104, 
                            "dur": 110, 
                            "type": "note", 
                            "channel": 4
                        }
                    ]
                ], 
                [
                    58920, 
                    [
                        {
                            "pitch": 81, 
                            "t0": 58920, 
                            "v": 104, 
                            "dur": 110, 
                            "type": "note", 
                            "channel": 4
                        }
                    ]
                ], 
                [
                    59040, 
                    [
                        {
                            "pitch": 38, 
                            "t0": 59040, 
                            "v": 120, 
                            "dur": 57, 
                            "type": "note", 
                            "channel": 9
                        }, 
                        {
                            "pitch": 46, 
                            "t0": 59040, 
                            "v": 104, 
                            "dur": 57, 
                            "type": "note", 
                            "channel": 9
                        }, 
                        {
                            "pitch": 76, 
                            "t0": 59040, 
                            "v": 104, 
                            "dur": 110, 
                            "type": "note", 
                            "channel": 4
                        }, 
                        {
                            "pitch": 69, 
                            "t0": 59040, 
                            "v": 120, 
                            "dur": 189, 
                            "type": "note", 
                            "channel": 1
                        }, 
                        {
                            "pitch": 45, 
                            "t0": 59040, 
                            "v": 104, 
                            "dur": 216, 
                            "type": "note", 
                            "channel": 6
                        }
                    ]
                ], 
                [
                    59160, 
                    [
                        {
                            "pitch": 73, 
                            "t0": 59160, 
                            "v": 104, 
                            "dur": 110, 
                            "type": "note", 
                            "channel": 4
                        }
                    ]
                ], 
                [
                    59280, 
                    [
                        {
                            "pitch": 36, 
                            "t0": 59280, 
                            "v": 104, 
                            "dur": 57, 
                            "type": "note", 
                            "channel": 9
                        }, 
                        {
                            "pitch": 46, 
                            "t0": 59280, 
                            "v": 88, 
                            "dur": 57, 
                            "type": "note", 
                            "channel": 9
                        }, 
                        {
                            "pitch": 44, 
                            "t0": 59280, 
                            "v": 104, 
                            "dur": 108, 
                            "type": "note", 
                            "channel": 6
                        }, 
                        {
                            "pitch": 81, 
                            "t0": 59280, 
                            "v": 104, 
                            "dur": 110, 
                            "type": "note", 
                            "channel": 4
                        }, 
                        {
                            "pitch": 71, 
                            "t0": 59280, 
                            "parts": [
                                [
                                    59280, 
                                    120
                                ], 
                                [
                                    59280, 
                                    104
                                ], 
                                [
                                    59496, 
                                    0
                                ]
                            ], 
                            "v": 120, 
                            "dur": 216, 
                            "type": "note", 
                            "channel": 0
                        }
                    ]
                ], 
                [
                    59400, 
                    [
                        {
                            "pitch": 45, 
                            "t0": 59400, 
                            "v": 104, 
                            "dur": 108, 
                            "type": "note", 
                            "channel": 6
                        }, 
                        {
                            "pitch": 76, 
                            "t0": 59400, 
                            "v": 104, 
                            "dur": 110, 
                            "type": "note", 
                            "channel": 4
                        }
                    ]
                ], 
                [
                    59520, 
                    [
                        {
                            "pitch": 36, 
                            "t0": 59520, 
                            "v": 120, 
                            "dur": 57, 
                            "type": "note", 
                            "channel": 9
                        }, 
                        {
                            "pitch": 46, 
                            "t0": 59520, 
                            "v": 104, 
                            "dur": 57, 
                            "type": "note", 
                            "channel": 9
                        }, 
                        {
                            "pitch": 47, 
                            "t0": 59520, 
                            "v": 104, 
                            "dur": 108, 
                            "type": "note", 
                            "channel": 6
                        }, 
                        {
                            "pitch": 83, 
                            "t0": 59520, 
                            "v": 104, 
                            "dur": 110, 
                            "type": "note", 
                            "channel": 4
                        }, 
                        {
                            "pitch": 66, 
                            "t0": 59520, 
                            "parts": [
                                [
                                    59520, 
                                    120
                                ], 
                                [
                                    59520, 
                                    104
                                ], 
                                [
                                    59736, 
                                    0
                                ]
                            ], 
                            "v": 120, 
                            "dur": 216, 
                            "type": "note", 
                            "channel": 0
                        }, 
                        {
                            "pitch": 63, 
                            "t0": 59520, 
                            "parts": [
                                [
                                    59520, 
                                    104
                                ], 
                                [
                                    60000, 
                                    120
                                ], 
                                [
                                    60000, 
                                    104
                                ], 
                                [
                                    60216, 
                                    0
                                ]
                            ], 
                            "v": 104, 
                            "dur": 696, 
                            "type": "note", 
                            "channel": 5
                        }, 
                        {
                            "pitch": 59, 
                            "t0": 59520, 
                            "v": 104, 
                            "dur": 864, 
                            "type": "note", 
                            "channel": 3
                        }
                    ]
                ], 
                [
                    59640, 
                    [
                        {
                            "pitch": 78, 
                            "t0": 59640, 
                            "v": 104, 
                            "dur": 110, 
                            "type": "note", 
                            "channel": 4
                        }, 
                        {
                            "pitch": 47, 
                            "t0": 59640, 
                            "v": 104, 
                            "dur": 216, 
                            "type": "note", 
                            "channel": 6
                        }
                    ]
                ], 
                [
                    59760, 
                    [
                        {
                            "pitch": 46, 
                            "t0": 59760, 
                            "v": 88, 
                            "dur": 57, 
                            "type": "note", 
                            "channel": 9
                        }, 
                        {
                            "pitch": 75, 
                            "t0": 59760, 
                            "v": 104, 
                            "dur": 110, 
                            "type": "note", 
                            "channel": 4
                        }, 
                        {
                            "pitch": 71, 
                            "t0": 59760, 
                            "parts": [
                                [
                                    59760, 
                                    120
                                ], 
                                [
                                    59760, 
                                    104
                                ], 
                                [
                                    59976, 
                                    0
                                ]
                            ], 
                            "v": 120, 
                            "dur": 216, 
                            "type": "note", 
                            "channel": 0
                        }
                    ]
                ], 
                [
                    59880, 
                    [
                        {
                            "pitch": 47, 
                            "t0": 59880, 
                            "v": 104, 
                            "dur": 108, 
                            "type": "note", 
                            "channel": 6
                        }, 
                        {
                            "pitch": 83, 
                            "t0": 59880, 
                            "v": 104, 
                            "dur": 110, 
                            "type": "note", 
                            "channel": 4
                        }
                    ]
                ], 
                [
                    60000, 
                    [
                        {
                            "pitch": 38, 
                            "t0": 60000, 
                            "v": 120, 
                            "dur": 57, 
                            "type": "note", 
                            "channel": 9
                        }, 
                        {
                            "pitch": 46, 
                            "t0": 60000, 
                            "v": 104, 
                            "dur": 57, 
                            "type": "note", 
                            "channel": 9
                        }, 
                        {
                            "pitch": 78, 
                            "t0": 60000, 
                            "v": 104, 
                            "dur": 110, 
                            "type": "note", 
                            "channel": 4
                        }, 
                        {
                            "pitch": 47, 
                            "t0": 60000, 
                            "v": 104, 
                            "dur": 432, 
                            "type": "note", 
                            "channel": 6
                        }
                    ]
                ], 
                [
                    60120, 
                    [
                        {
                            "pitch": 75, 
                            "t0": 60120, 
                            "v": 104, 
                            "dur": 110, 
                            "type": "note", 
                            "channel": 4
                        }
                    ]
                ], 
                [
                    60240, 
                    [
                        {
                            "pitch": 46, 
                            "t0": 60240, 
                            "v": 88, 
                            "dur": 57, 
                            "type": "note", 
                            "channel": 9
                        }, 
                        {
                            "pitch": 66, 
                            "t0": 60240, 
                            "parts": [
                                [
                                    60240, 
                                    120
                                ], 
                                [
                                    60240, 
                                    104
                                ], 
                                [
                                    60384, 
                                    0
                                ]
                            ], 
                            "v": 120, 
                            "dur": 144, 
                            "type": "note", 
                            "channel": 0
                        }, 
                        {
                            "pitch": 83, 
                            "t0": 60240, 
                            "v": 104, 
                            "dur": 220, 
                            "type": "note", 
                            "channel": 4
                        }
                    ]
                ], 
                [
                    60480, 
                    [
                        {
                            "pitch": 46, 
                            "t0": 60480, 
                            "v": 104, 
                            "dur": 57, 
                            "type": "note", 
                            "channel": 9
                        }, 
                        {
                            "pitch": 36, 
                            "t0": 60480, 
                            "v": 120, 
                            "dur": 57, 
                            "type": "note", 
                            "channel": 9
                        }, 
                        {
                            "pitch": 83, 
                            "t0": 60480, 
                            "v": 104, 
                            "dur": 110, 
                            "type": "note", 
                            "channel": 4
                        }, 
                        {
                            "pitch": 40, 
                            "t0": 60480, 
                            "v": 104, 
                            "dur": 432, 
                            "type": "note", 
                            "channel": 6
                        }, 
                        {
                            "pitch": 64, 
                            "t0": 60480, 
                            "parts": [
                                [
                                    60480, 
                                    120
                                ], 
                                [
                                    60480, 
                                    104
                                ], 
                                [
                                    60912, 
                                    0
                                ]
                            ], 
                            "v": 120, 
                            "dur": 432, 
                            "type": "note", 
                            "channel": 0
                        }, 
                        {
                            "pitch": 71, 
                            "t0": 60480, 
                            "v": 104, 
                            "dur": 864, 
                            "type": "note", 
                            "channel": 3
                        }, 
                        {
                            "pitch": 68, 
                            "t0": 60480, 
                            "parts": [
                                [
                                    60480, 
                                    104
                                ], 
                                [
                                    60960, 
                                    120
                                ], 
                                [
                                    61392, 
                                    0
                                ]
                            ], 
                            "v": 104, 
                            "dur": 912, 
                            "type": "note", 
                            "channel": 5
                        }, 
                        {
                            "pitch": 59, 
                            "t0": 60480, 
                            "v": 104, 
                            "dur": 960, 
                            "type": "note", 
                            "channel": 5
                        }
                    ]
                ], 
                [
                    60600, 
                    [
                        {
                            "pitch": 80, 
                            "t0": 60600, 
                            "v": 104, 
                            "dur": 110, 
                            "type": "note", 
                            "channel": 4
                        }
                    ]
                ], 
                [
                    60720, 
                    [
                        {
                            "pitch": 46, 
                            "t0": 60720, 
                            "v": 88, 
                            "dur": 57, 
                            "type": "note", 
                            "channel": 9
                        }, 
                        {
                            "pitch": 76, 
                            "t0": 60720, 
                            "v": 104, 
                            "dur": 110, 
                            "type": "note", 
                            "channel": 4
                        }
                    ]
                ], 
                [
                    60840, 
                    [
                        {
                            "pitch": 83, 
                            "t0": 60840, 
                            "v": 104, 
                            "dur": 110, 
                            "type": "note", 
                            "channel": 4
                        }
                    ]
                ], 
                [
                    60960, 
                    [
                        {
                            "pitch": 46, 
                            "t0": 60960, 
                            "v": 104, 
                            "dur": 57, 
                            "type": "note", 
                            "channel": 9
                        }, 
                        {
                            "pitch": 38, 
                            "t0": 60960, 
                            "v": 120, 
                            "dur": 57, 
                            "type": "note", 
                            "channel": 9
                        }, 
                        {
                            "pitch": 40, 
                            "t0": 60960, 
                            "v": 104, 
                            "dur": 108, 
                            "type": "note", 
                            "channel": 6
                        }, 
                        {
                            "pitch": 80, 
                            "t0": 60960, 
                            "v": 104, 
                            "dur": 110, 
                            "type": "note", 
                            "channel": 4
                        }
                    ]
                ], 
                [
                    61080, 
                    [
                        {
                            "pitch": 76, 
                            "t0": 61080, 
                            "v": 104, 
                            "dur": 110, 
                            "type": "note", 
                            "channel": 4
                        }, 
                        {
                            "pitch": 44, 
                            "t0": 61080, 
                            "v": 104, 
                            "dur": 216, 
                            "type": "note", 
                            "channel": 6
                        }
                    ]
                ], 
                [
                    61200, 
                    [
                        {
                            "pitch": 46, 
                            "t0": 61200, 
                            "v": 88, 
                            "dur": 57, 
                            "type": "note", 
                            "channel": 9
                        }, 
                        {
                            "pitch": 36, 
                            "t0": 61200, 
                            "v": 104, 
                            "dur": 57, 
                            "type": "note", 
                            "channel": 9
                        }, 
                        {
                            "pitch": 83, 
                            "t0": 61200, 
                            "v": 104, 
                            "dur": 110, 
                            "type": "note", 
                            "channel": 4
                        }
                    ]
                ], 
                [
                    61320, 
                    [
                        {
                            "pitch": 45, 
                            "t0": 61320, 
                            "v": 104, 
                            "dur": 108, 
                            "type": "note", 
                            "channel": 6
                        }, 
                        {
                            "pitch": 80, 
                            "t0": 61320, 
                            "v": 104, 
                            "dur": 110, 
                            "type": "note", 
                            "channel": 4
                        }
                    ]
                ], 
                [
                    61440, 
                    [
                        {
                            "pitch": 46, 
                            "t0": 61440, 
                            "v": 104, 
                            "dur": 57, 
                            "type": "note", 
                            "channel": 9
                        }, 
                        {
                            "pitch": 36, 
                            "t0": 61440, 
                            "v": 120, 
                            "dur": 57, 
                            "type": "note", 
                            "channel": 9
                        }, 
                        {
                            "pitch": 83, 
                            "t0": 61440, 
                            "v": 104, 
                            "dur": 110, 
                            "type": "note", 
                            "channel": 4
                        }, 
                        {
                            "pitch": 47, 
                            "t0": 61440, 
                            "v": 104, 
                            "dur": 216, 
                            "type": "note", 
                            "channel": 6
                        }, 
                        {
                            "pitch": 69, 
                            "t0": 61440, 
                            "v": 120, 
                            "dur": 432, 
                            "type": "note", 
                            "channel": 1
                        }, 
                        {
                            "pitch": 66, 
                            "t0": 61440, 
                            "v": 104, 
                            "dur": 864, 
                            "type": "note", 
                            "channel": 3
                        }, 
                        {
                            "pitch": 59, 
                            "t0": 61440, 
                            "v": 104, 
                            "dur": 864, 
                            "type": "note", 
                            "channel": 3
                        }, 
                        {
                            "pitch": 63, 
                            "t0": 61440, 
                            "v": 104, 
                            "dur": 960, 
                            "type": "note", 
                            "channel": 5
                        }
                    ]
                ], 
                [
                    61560, 
                    [
                        {
                            "pitch": 78, 
                            "t0": 61560, 
                            "v": 104, 
                            "dur": 110, 
                            "type": "note", 
                            "channel": 4
                        }
                    ]
                ], 
                [
                    61680, 
                    [
                        {
                            "pitch": 46, 
                            "t0": 61680, 
                            "v": 88, 
                            "dur": 57, 
                            "type": "note", 
                            "channel": 9
                        }, 
                        {
                            "pitch": 75, 
                            "t0": 61680, 
                            "v": 104, 
                            "dur": 110, 
                            "type": "note", 
                            "channel": 4
                        }, 
                        {
                            "pitch": 47, 
                            "t0": 61680, 
                            "v": 104, 
                            "dur": 216, 
                            "type": "note", 
                            "channel": 6
                        }
                    ]
                ], 
                [
                    61800, 
                    [
                        {
                            "pitch": 83, 
                            "t0": 61800, 
                            "v": 104, 
                            "dur": 110, 
                            "type": "note", 
                            "channel": 4
                        }
                    ]
                ], 
                [
                    61920, 
                    [
                        {
                            "pitch": 46, 
                            "t0": 61920, 
                            "v": 104, 
                            "dur": 57, 
                            "type": "note", 
                            "channel": 9
                        }, 
                        {
                            "pitch": 38, 
                            "t0": 61920, 
                            "v": 120, 
                            "dur": 57, 
                            "type": "note", 
                            "channel": 9
                        }, 
                        {
                            "pitch": 51, 
                            "t0": 61920, 
                            "v": 104, 
                            "dur": 216, 
                            "type": "note", 
                            "channel": 6
                        }, 
                        {
                            "pitch": 71, 
                            "t0": 61920, 
                            "v": 120, 
                            "dur": 216, 
                            "type": "note", 
                            "channel": 0
                        }, 
                        {
                            "pitch": 75, 
                            "t0": 61920, 
                            "v": 104, 
                            "dur": 223, 
                            "type": "note", 
                            "channel": 10
                        }, 
                        {
                            "pitch": 78, 
                            "t0": 61920, 
                            "parts": [
                                [
                                    61920, 
                                    104
                                ], 
                                [
                                    62160, 
                                    104
                                ], 
                                [
                                    62361, 
                                    0
                                ]
                            ], 
                            "v": 104, 
                            "dur": 441, 
                            "type": "note", 
                            "channel": 4
                        }
                    ]
                ], 
                [
                    62160, 
                    [
                        {
                            "pitch": 49, 
                            "t0": 62160, 
                            "v": 120, 
                            "dur": 57, 
                            "type": "note", 
                            "channel": 9
                        }, 
                        {
                            "pitch": 36, 
                            "t0": 62160, 
                            "v": 104, 
                            "dur": 57, 
                            "type": "note", 
                            "channel": 9
                        }, 
                        {
                            "pitch": 54, 
                            "t0": 62160, 
                            "v": 104, 
                            "dur": 216, 
                            "type": "note", 
                            "channel": 6
                        }, 
                        {
                            "pitch": 71, 
                            "t0": 62160, 
                            "v": 120, 
                            "dur": 216, 
                            "type": "note", 
                            "channel": 1
                        }, 
                        {
                            "pitch": 75, 
                            "t0": 62160, 
                            "v": 120, 
                            "dur": 223, 
                            "type": "note", 
                            "channel": 0
                        }
                    ]
                ], 
                [
                    62400, 
                    [
                        {
                            "pitch": 36, 
                            "t0": 62400, 
                            "v": 120, 
                            "dur": 57, 
                            "type": "note", 
                            "channel": 9
                        }, 
                        {
                            "pitch": 49, 
                            "t0": 62400, 
                            "v": 120, 
                            "dur": 57, 
                            "type": "note", 
                            "channel": 9
                        }, 
                        {
                            "pitch": 83, 
                            "t0": 62400, 
                            "v": 104, 
                            "dur": 110, 
                            "type": "note", 
                            "channel": 4
                        }, 
                        {
                            "pitch": 80, 
                            "t0": 62400, 
                            "parts": [
                                [
                                    62400, 
                                    104
                                ], 
                                [
                                    62520, 
                                    104
                                ], 
                                [
                                    62630, 
                                    0
                                ]
                            ], 
                            "v": 104, 
                            "dur": 230, 
                            "type": "note", 
                            "channel": 10
                        }, 
                        {
                            "pitch": 76, 
                            "t0": 62400, 
                            "parts": [
                                [
                                    62400, 
                                    120
                                ], 
                                [
                                    62640, 
                                    104
                                ], 
                                [
                                    62750, 
                                    0
                                ]
                            ], 
                            "v": 120, 
                            "dur": 350, 
                            "type": "note", 
                            "channel": 0
                        }, 
                        {
                            "pitch": 40, 
                            "t0": 62400, 
                            "v": 104, 
                            "dur": 432, 
                            "type": "note", 
                            "channel": 6
                        }, 
                        {
                            "pitch": 59, 
                            "t0": 62400, 
                            "v": 104, 
                            "dur": 864, 
                            "type": "note", 
                            "channel": 3
                        }, 
                        {
                            "pitch": 52, 
                            "t0": 62400, 
                            "v": 104, 
                            "dur": 864, 
                            "type": "note", 
                            "channel": 3
                        }, 
                        {
                            "pitch": 68, 
                            "t0": 62400, 
                            "v": 104, 
                            "dur": 960, 
                            "type": "note", 
                            "channel": 5
                        }, 
                        {
                            "pitch": 64, 
                            "t0": 62400, 
                            "v": 104, 
                            "dur": 960, 
                            "type": "note", 
                            "channel": 5
                        }
                    ]
                ], 
                [
                    62640, 
                    [
                        {
                            "pitch": 46, 
                            "t0": 62640, 
                            "v": 88, 
                            "dur": 57, 
                            "type": "note", 
                            "channel": 9
                        }
                    ]
                ], 
                [
                    62760, 
                    [
                        {
                            "pitch": 83, 
                            "t0": 62760, 
                            "v": 104, 
                            "dur": 110, 
                            "type": "note", 
                            "channel": 4
                        }
                    ]
                ], 
                [
                    62880, 
                    [
                        {
                            "pitch": 46, 
                            "t0": 62880, 
                            "v": 104, 
                            "dur": 57, 
                            "type": "note", 
                            "channel": 9
                        }, 
                        {
                            "pitch": 38, 
                            "t0": 62880, 
                            "v": 120, 
                            "dur": 57, 
                            "type": "note", 
                            "channel": 9
                        }, 
                        {
                            "pitch": 80, 
                            "t0": 62880, 
                            "v": 104, 
                            "dur": 110, 
                            "type": "note", 
                            "channel": 4
                        }, 
                        {
                            "pitch": 40, 
                            "t0": 62880, 
                            "v": 104, 
                            "dur": 216, 
                            "type": "note", 
                            "channel": 6
                        }, 
                        {
                            "pitch": 76, 
                            "t0": 62880, 
                            "parts": [
                                [
                                    62880, 
                                    120
                                ], 
                                [
                                    63000, 
                                    104
                                ], 
                                [
                                    63096, 
                                    0
                                ]
                            ], 
                            "v": 120, 
                            "dur": 216, 
                            "type": "note", 
                            "channel": 0
                        }
                    ]
                ], 
                [
                    63120, 
                    [
                        {
                            "pitch": 46, 
                            "t0": 63120, 
                            "v": 88, 
                            "dur": 57, 
                            "type": "note", 
                            "channel": 9
                        }, 
                        {
                            "pitch": 36, 
                            "t0": 63120, 
                            "v": 104, 
                            "dur": 57, 
                            "type": "note", 
                            "channel": 9
                        }, 
                        {
                            "pitch": 83, 
                            "t0": 63120, 
                            "v": 104, 
                            "dur": 110, 
                            "type": "note", 
                            "channel": 4
                        }, 
                        {
                            "pitch": 44, 
                            "t0": 63120, 
                            "v": 104, 
                            "dur": 216, 
                            "type": "note", 
                            "channel": 6
                        }, 
                        {
                            "pitch": 78, 
                            "t0": 63120, 
                            "v": 120, 
                            "dur": 216, 
                            "type": "note", 
                            "channel": 0
                        }, 
                        {
                            "pitch": 81, 
                            "t0": 63120, 
                            "v": 104, 
                            "dur": 223, 
                            "type": "note", 
                            "channel": 10
                        }
                    ]
                ], 
                [
                    63240, 
                    [
                        {
                            "pitch": 80, 
                            "t0": 63240, 
                            "v": 104, 
                            "dur": 110, 
                            "type": "note", 
                            "channel": 4
                        }
                    ]
                ], 
                [
                    63360, 
                    [
                        {
                            "pitch": 46, 
                            "t0": 63360, 
                            "v": 104, 
                            "dur": 57, 
                            "type": "note", 
                            "channel": 9
                        }, 
                        {
                            "pitch": 36, 
                            "t0": 63360, 
                            "v": 120, 
                            "dur": 57, 
                            "type": "note", 
                            "channel": 9
                        }, 
                        {
                            "pitch": 47, 
                            "t0": 63360, 
                            "v": 104, 
                            "dur": 108, 
                            "type": "note", 
                            "channel": 6
                        }, 
                        {
                            "pitch": 83, 
                            "t0": 63360, 
                            "v": 104, 
                            "dur": 110, 
                            "type": "note", 
                            "channel": 4
                        }, 
                        {
                            "pitch": 76, 
                            "t0": 63360, 
                            "v": 120, 
                            "dur": 216, 
                            "type": "note", 
                            "channel": 0
                        }, 
                        {
                            "pitch": 80, 
                            "t0": 63360, 
                            "v": 104, 
                            "dur": 223, 
                            "type": "note", 
                            "channel": 10
                        }, 
                        {
                            "pitch": 59, 
                            "t0": 63360, 
                            "v": 104, 
                            "dur": 864, 
                            "type": "note", 
                            "channel": 3
                        }, 
                        {
                            "pitch": 66, 
                            "t0": 63360, 
                            "v": 104, 
                            "dur": 864, 
                            "type": "note", 
                            "channel": 3
                        }, 
                        {
                            "pitch": 63, 
                            "t0": 63360, 
                            "v": 104, 
                            "dur": 944, 
                            "type": "note", 
                            "channel": 5
                        }
                    ]
                ], 
                [
                    63480, 
                    [
                        {
                            "pitch": 78, 
                            "t0": 63480, 
                            "v": 104, 
                            "dur": 110, 
                            "type": "note", 
                            "channel": 4
                        }, 
                        {
                            "pitch": 47, 
                            "t0": 63480, 
                            "v": 104, 
                            "dur": 216, 
                            "type": "note", 
                            "channel": 6
                        }
                    ]
                ], 
                [
                    63600, 
                    [
                        {
                            "pitch": 46, 
                            "t0": 63600, 
                            "v": 88, 
                            "dur": 57, 
                            "type": "note", 
                            "channel": 9
                        }, 
                        {
                            "pitch": 75, 
                            "t0": 63600, 
                            "parts": [
                                [
                                    63600, 
                                    120
                                ], 
                                [
                                    63600, 
                                    104
                                ], 
                                [
                                    63710, 
                                    0
                                ]
                            ], 
                            "v": 120, 
                            "dur": 110, 
                            "type": "note", 
                            "channel": 0
                        }, 
                        {
                            "pitch": 78, 
                            "t0": 63600, 
                            "v": 104, 
                            "dur": 223, 
                            "type": "note", 
                            "channel": 10
                        }
                    ]
                ], 
                [
                    63720, 
                    [
                        {
                            "pitch": 47, 
                            "t0": 63720, 
                            "v": 104, 
                            "dur": 108, 
                            "type": "note", 
                            "channel": 6
                        }, 
                        {
                            "pitch": 83, 
                            "t0": 63720, 
                            "v": 104, 
                            "dur": 110, 
                            "type": "note", 
                            "channel": 4
                        }
                    ]
                ], 
                [
                    63840, 
                    [
                        {
                            "pitch": 46, 
                            "t0": 63840, 
                            "v": 104, 
                            "dur": 57, 
                            "type": "note", 
                            "channel": 9
                        }, 
                        {
                            "pitch": 38, 
                            "t0": 63840, 
                            "v": 120, 
                            "dur": 57, 
                            "type": "note", 
                            "channel": 9
                        }, 
                        {
                            "pitch": 78, 
                            "t0": 63840, 
                            "v": 104, 
                            "dur": 110, 
                            "type": "note", 
                            "channel": 4
                        }, 
                        {
                            "pitch": 47, 
                            "t0": 63840, 
                            "v": 104, 
                            "dur": 216, 
                            "type": "note", 
                            "channel": 6
                        }, 
                        {
                            "pitch": 71, 
                            "t0": 63840, 
                            "v": 120, 
                            "dur": 216, 
                            "type": "note", 
                            "channel": 0
                        }, 
                        {
                            "pitch": 75, 
                            "t0": 63840, 
                            "parts": [
                                [
                                    63840, 
                                    104
                                ], 
                                [
                                    63960, 
                                    104
                                ], 
                                [
                                    64063, 
                                    0
                                ]
                            ], 
                            "v": 104, 
                            "dur": 223, 
                            "type": "note", 
                            "channel": 10
                        }
                    ]
                ], 
                [
                    64080, 
                    [
                        {
                            "pitch": 46, 
                            "t0": 64080, 
                            "v": 88, 
                            "dur": 57, 
                            "type": "note", 
                            "channel": 9
                        }, 
                        {
                            "pitch": 36, 
                            "t0": 64080, 
                            "v": 104, 
                            "dur": 57, 
                            "type": "note", 
                            "channel": 9
                        }, 
                        {
                            "pitch": 83, 
                            "t0": 64080, 
                            "v": 104, 
                            "dur": 110, 
                            "type": "note", 
                            "channel": 4
                        }, 
                        {
                            "pitch": 48, 
                            "t0": 64080, 
                            "v": 104, 
                            "dur": 216, 
                            "type": "note", 
                            "channel": 6
                        }, 
                        {
                            "pitch": 75, 
                            "t0": 64080, 
                            "v": 120, 
                            "dur": 216, 
                            "type": "note", 
                            "channel": 0
                        }, 
                        {
                            "pitch": 78, 
                            "t0": 64080, 
                            "v": 104, 
                            "dur": 223, 
                            "type": "note", 
                            "channel": 10
                        }
                    ]
                ], 
                [
                    64200, 
                    [
                        {
                            "pitch": 85, 
                            "t0": 64200, 
                            "v": 104, 
                            "dur": 110, 
                            "type": "note", 
                            "channel": 4
                        }
                    ]
                ], 
                [
                    64320, 
                    [
                        {
                            "pitch": 46, 
                            "t0": 64320, 
                            "v": 104, 
                            "dur": 57, 
                            "type": "note", 
                            "channel": 9
                        }, 
                        {
                            "pitch": 36, 
                            "t0": 64320, 
                            "v": 120, 
                            "dur": 57, 
                            "type": "note", 
                            "channel": 9
                        }, 
                        {
                            "pitch": 80, 
                            "t0": 64320, 
                            "v": 104, 
                            "dur": 110, 
                            "type": "note", 
                            "channel": 4
                        }, 
                        {
                            "pitch": 76, 
                            "t0": 64320, 
                            "parts": [
                                [
                                    64320, 
                                    120
                                ], 
                                [
                                    64440, 
                                    104
                                ], 
                                [
                                    64550, 
                                    0
                                ]
                            ], 
                            "v": 120, 
                            "dur": 230, 
                            "type": "note", 
                            "channel": 0
                        }, 
                        {
                            "pitch": 49, 
                            "t0": 64320, 
                            "v": 104, 
                            "dur": 432, 
                            "type": "note", 
                            "channel": 6
                        }, 
                        {
                            "pitch": 68, 
                            "t0": 64320, 
                            "v": 104, 
                            "dur": 864, 
                            "type": "note", 
                            "channel": 3
                        }, 
                        {
                            "pitch": 61, 
                            "t0": 64320, 
                            "v": 104, 
                            "dur": 864, 
                            "type": "note", 
                            "channel": 3
                        }, 
                        {
                            "pitch": 64, 
                            "t0": 64320, 
                            "v": 104, 
                            "dur": 944, 
                            "type": "note", 
                            "channel": 5
                        }
                    ]
                ], 
                [
                    64560, 
                    [
                        {
                            "pitch": 46, 
                            "t0": 64560, 
                            "v": 88, 
                            "dur": 57, 
                            "type": "note", 
                            "channel": 9
                        }, 
                        {
                            "pitch": 85, 
                            "t0": 64560, 
                            "v": 104, 
                            "dur": 110, 
                            "type": "note", 
                            "channel": 4
                        }
                    ]
                ], 
                [
                    64680, 
                    [
                        {
                            "pitch": 80, 
                            "t0": 64680, 
                            "v": 104, 
                            "dur": 86, 
                            "type": "note", 
                            "channel": 4
                        }
                    ]
                ], 
                [
                    64800, 
                    [
                        {
                            "pitch": 38, 
                            "t0": 64800, 
                            "v": 120, 
                            "dur": 57, 
                            "type": "note", 
                            "channel": 9
                        }, 
                        {
                            "pitch": 46, 
                            "t0": 64800, 
                            "v": 104, 
                            "dur": 57, 
                            "type": "note", 
                            "channel": 9
                        }, 
                        {
                            "pitch": 76, 
                            "t0": 64800, 
                            "parts": [
                                [
                                    64800, 
                                    120
                                ], 
                                [
                                    64800, 
                                    104
                                ], 
                                [
                                    64910, 
                                    0
                                ]
                            ], 
                            "v": 120, 
                            "dur": 110, 
                            "type": "note", 
                            "channel": 0
                        }, 
                        {
                            "pitch": 49, 
                            "t0": 64800, 
                            "v": 104, 
                            "dur": 216, 
                            "type": "note", 
                            "channel": 6
                        }, 
                        {
                            "pitch": 80, 
                            "t0": 64800, 
                            "v": 104, 
                            "dur": 223, 
                            "type": "note", 
                            "channel": 10
                        }
                    ]
                ], 
                [
                    64920, 
                    [
                        {
                            "pitch": 85, 
                            "t0": 64920, 
                            "v": 104, 
                            "dur": 220, 
                            "type": "note", 
                            "channel": 4
                        }
                    ]
                ], 
                [
                    65040, 
                    [
                        {
                            "pitch": 36, 
                            "t0": 65040, 
                            "v": 104, 
                            "dur": 57, 
                            "type": "note", 
                            "channel": 9
                        }, 
                        {
                            "pitch": 46, 
                            "t0": 65040, 
                            "v": 88, 
                            "dur": 57, 
                            "type": "note", 
                            "channel": 9
                        }, 
                        {
                            "pitch": 56, 
                            "t0": 65040, 
                            "v": 104, 
                            "dur": 216, 
                            "type": "note", 
                            "channel": 6
                        }, 
                        {
                            "pitch": 78, 
                            "t0": 65040, 
                            "v": 120, 
                            "dur": 216, 
                            "type": "note", 
                            "channel": 0
                        }, 
                        {
                            "pitch": 81, 
                            "t0": 65040, 
                            "v": 104, 
                            "dur": 223, 
                            "type": "note", 
                            "channel": 10
                        }
                    ]
                ], 
                [
                    65160, 
                    [
                        {
                            "pitch": 80, 
                            "t0": 65160, 
                            "v": 104, 
                            "dur": 110, 
                            "type": "note", 
                            "channel": 4
                        }
                    ]
                ], 
                [
                    65280, 
                    [
                        {
                            "pitch": 36, 
                            "t0": 65280, 
                            "v": 120, 
                            "dur": 57, 
                            "type": "note", 
                            "channel": 9
                        }, 
                        {
                            "pitch": 46, 
                            "t0": 65280, 
                            "v": 104, 
                            "dur": 57, 
                            "type": "note", 
                            "channel": 9
                        }, 
                        {
                            "pitch": 44, 
                            "t0": 65280, 
                            "v": 104, 
                            "dur": 108, 
                            "type": "note", 
                            "channel": 6
                        }, 
                        {
                            "pitch": 75, 
                            "t0": 65280, 
                            "v": 104, 
                            "dur": 110, 
                            "type": "note", 
                            "channel": 4
                        }, 
                        {
                            "pitch": 76, 
                            "t0": 65280, 
                            "v": 120, 
                            "dur": 216, 
                            "type": "note", 
                            "channel": 0
                        }, 
                        {
                            "pitch": 80, 
                            "t0": 65280, 
                            "v": 104, 
                            "dur": 223, 
                            "type": "note", 
                            "channel": 10
                        }, 
                        {
                            "pitch": 68, 
                            "t0": 65280, 
                            "v": 104, 
                            "dur": 456, 
                            "type": "note", 
                            "channel": 5
                        }, 
                        {
                            "pitch": 59, 
                            "t0": 65280, 
                            "v": 104, 
                            "dur": 456, 
                            "type": "note", 
                            "channel": 5
                        }, 
                        {
                            "pitch": 63, 
                            "t0": 65280, 
                            "v": 104, 
                            "dur": 456, 
                            "type": "note", 
                            "channel": 3
                        }, 
                        {
                            "pitch": 56, 
                            "t0": 65280, 
                            "v": 104, 
                            "dur": 864, 
                            "type": "note", 
                            "channel": 3
                        }
                    ]
                ], 
                [
                    65400, 
                    [
                        {
                            "pitch": 71, 
                            "t0": 65400, 
                            "v": 104, 
                            "dur": 110, 
                            "type": "note", 
                            "channel": 4
                        }, 
                        {
                            "pitch": 44, 
                            "t0": 65400, 
                            "v": 104, 
                            "dur": 216, 
                            "type": "note", 
                            "channel": 6
                        }
                    ]
                ], 
                [
                    65520, 
                    [
                        {
                            "pitch": 46, 
                            "t0": 65520, 
                            "v": 88, 
                            "dur": 57, 
                            "type": "note", 
                            "channel": 9
                        }, 
                        {
                            "pitch": 80, 
                            "t0": 65520, 
                            "v": 104, 
                            "dur": 110, 
                            "type": "note", 
                            "channel": 4
                        }, 
                        {
                            "pitch": 75, 
                            "t0": 65520, 
                            "parts": [
                                [
                                    65520, 
                                    120
                                ], 
                                [
                                    65640, 
                                    104
                                ], 
                                [
                                    65736, 
                                    0
                                ]
                            ], 
                            "v": 120, 
                            "dur": 216, 
                            "type": "note", 
                            "channel": 0
                        }, 
                        {
                            "pitch": 78, 
                            "t0": 65520, 
                            "v": 104, 
                            "dur": 223, 
                            "type": "note", 
                            "channel": 10
                        }
                    ]
                ], 
                [
                    65640, 
                    [
                        {
                            "pitch": 44, 
                            "t0": 65640, 
                            "v": 104, 
                            "dur": 108, 
                            "type": "note", 
                            "channel": 6
                        }
                    ]
                ], 
                [
                    65760, 
                    [
                        {
                            "pitch": 38, 
                            "t0": 65760, 
                            "v": 120, 
                            "dur": 57, 
                            "type": "note", 
                            "channel": 9
                        }, 
                        {
                            "pitch": 46, 
                            "t0": 65760, 
                            "v": 104, 
                            "dur": 57, 
                            "type": "note", 
                            "channel": 9
                        }, 
                        {
                            "pitch": 71, 
                            "t0": 65760, 
                            "parts": [
                                [
                                    65760, 
                                    120
                                ], 
                                [
                                    65760, 
                                    104
                                ], 
                                [
                                    65870, 
                                    0
                                ]
                            ], 
                            "v": 120, 
                            "dur": 110, 
                            "type": "note", 
                            "channel": 0
                        }, 
                        {
                            "pitch": 44, 
                            "t0": 65760, 
                            "v": 104, 
                            "dur": 216, 
                            "type": "note", 
                            "channel": 6
                        }, 
                        {
                            "pitch": 75, 
                            "t0": 65760, 
                            "v": 104, 
                            "dur": 223, 
                            "type": "note", 
                            "channel": 10
                        }, 
                        {
                            "pitch": 63, 
                            "t0": 65760, 
                            "v": 104, 
                            "dur": 384, 
                            "type": "note", 
                            "channel": 5
                        }, 
                        {
                            "pitch": 66, 
                            "t0": 65760, 
                            "v": 104, 
                            "dur": 456, 
                            "type": "note", 
                            "channel": 5
                        }, 
                        {
                            "pitch": 59, 
                            "t0": 65760, 
                            "v": 104, 
                            "dur": 456, 
                            "type": "note", 
                            "channel": 5
                        }
                    ]
                ], 
                [
                    65880, 
                    [
                        {
                            "pitch": 80, 
                            "t0": 65880, 
                            "v": 104, 
                            "dur": 110, 
                            "type": "note", 
                            "channel": 4
                        }
                    ]
                ], 
                [
                    66000, 
                    [
                        {
                            "pitch": 46, 
                            "t0": 66000, 
                            "v": 88, 
                            "dur": 57, 
                            "type": "note", 
                            "channel": 9
                        }, 
                        {
                            "pitch": 44, 
                            "t0": 66000, 
                            "v": 104, 
                            "dur": 216, 
                            "type": "note", 
                            "channel": 6
                        }, 
                        {
                            "pitch": 71, 
                            "t0": 66000, 
                            "v": 120, 
                            "dur": 216, 
                            "type": "note", 
                            "channel": 0
                        }, 
                        {
                            "pitch": 75, 
                            "t0": 66000, 
                            "v": 104, 
                            "dur": 223, 
                            "type": "note", 
                            "channel": 10
                        }
                    ]
                ], 
                [
                    66240, 
                    [
                        {
                            "pitch": 46, 
                            "t0": 66240, 
                            "v": 104, 
                            "dur": 57, 
                            "type": "note", 
                            "channel": 9
                        }, 
                        {
                            "pitch": 36, 
                            "t0": 66240, 
                            "v": 120, 
                            "dur": 57, 
                            "type": "note", 
                            "channel": 9
                        }, 
                        {
                            "pitch": 81, 
                            "t0": 66240, 
                            "v": 104, 
                            "dur": 110, 
                            "type": "note", 
                            "channel": 4
                        }, 
                        {
                            "pitch": 73, 
                            "t0": 66240, 
                            "parts": [
                                [
                                    66240, 
                                    104
                                ], 
                                [
                                    66480, 
                                    104
                                ], 
                                [
                                    66590, 
                                    0
                                ]
                            ], 
                            "v": 104, 
                            "dur": 350, 
                            "type": "note", 
                            "channel": 10
                        }, 
                        {
                            "pitch": 45, 
                            "t0": 66240, 
                            "v": 104, 
                            "dur": 432, 
                            "type": "note", 
                            "channel": 6
                        }, 
                        {
                            "pitch": 69, 
                            "t0": 66240, 
                            "v": 120, 
                            "dur": 432, 
                            "type": "note", 
                            "channel": 0
                        }, 
                        {
                            "pitch": 57, 
                            "t0": 66240, 
                            "v": 104, 
                            "dur": 648, 
                            "type": "note", 
                            "channel": 3
                        }, 
                        {
                            "pitch": 64, 
                            "t0": 66240, 
                            "v": 104, 
                            "dur": 648, 
                            "type": "note", 
                            "channel": 3
                        }, 
                        {
                            "pitch": 61, 
                            "t0": 66240, 
                            "v": 104, 
                            "dur": 952, 
                            "type": "note", 
                            "channel": 5
                        }
                    ]
                ], 
                [
                    66360, 
                    [
                        {
                            "pitch": 76, 
                            "t0": 66360, 
                            "v": 104, 
                            "dur": 110, 
                            "type": "note", 
                            "channel": 4
                        }
                    ]
                ], 
                [
                    66480, 
                    [
                        {
                            "pitch": 46, 
                            "t0": 66480, 
                            "v": 88, 
                            "dur": 57, 
                            "type": "note", 
                            "channel": 9
                        }
                    ]
                ], 
                [
                    66600, 
                    [
                        {
                            "pitch": 81, 
                            "t0": 66600, 
                            "v": 104, 
                            "dur": 110, 
                            "type": "note", 
                            "channel": 4
                        }
                    ]
                ], 
                [
                    66720, 
                    [
                        {
                            "pitch": 38, 
                            "t0": 66720, 
                            "v": 120, 
                            "dur": 57, 
                            "type": "note", 
                            "channel": 9
                        }, 
                        {
                            "pitch": 46, 
                            "t0": 66720, 
                            "v": 104, 
                            "dur": 57, 
                            "type": "note", 
                            "channel": 9
                        }, 
                        {
                            "pitch": 76, 
                            "t0": 66720, 
                            "v": 104, 
                            "dur": 110, 
                            "type": "note", 
                            "channel": 4
                        }, 
                        {
                            "pitch": 45, 
                            "t0": 66720, 
                            "v": 104, 
                            "dur": 216, 
                            "type": "note", 
                            "channel": 6
                        }, 
                        {
                            "pitch": 69, 
                            "t0": 66720, 
                            "v": 120, 
                            "dur": 216, 
                            "type": "note", 
                            "channel": 0
                        }, 
                        {
                            "pitch": 73, 
                            "t0": 66720, 
                            "parts": [
                                [
                                    66720, 
                                    104
                                ], 
                                [
                                    66840, 
                                    104
                                ], 
                                [
                                    66943, 
                                    0
                                ]
                            ], 
                            "v": 104, 
                            "dur": 223, 
                            "type": "note", 
                            "channel": 10
                        }
                    ]
                ], 
                [
                    66960, 
                    [
                        {
                            "pitch": 36, 
                            "t0": 66960, 
                            "v": 104, 
                            "dur": 57, 
                            "type": "note", 
                            "channel": 9
                        }, 
                        {
                            "pitch": 46, 
                            "t0": 66960, 
                            "v": 88, 
                            "dur": 57, 
                            "type": "note", 
                            "channel": 9
                        }, 
                        {
                            "pitch": 44, 
                            "t0": 66960, 
                            "v": 104, 
                            "dur": 108, 
                            "type": "note", 
                            "channel": 6
                        }, 
                        {
                            "pitch": 63, 
                            "t0": 66960, 
                            "v": 104, 
                            "dur": 108, 
                            "type": "note", 
                            "channel": 3
                        }, 
                        {
                            "pitch": 56, 
                            "t0": 66960, 
                            "v": 104, 
                            "dur": 108, 
                            "type": "note", 
                            "channel": 3
                        }, 
                        {
                            "pitch": 81, 
                            "t0": 66960, 
                            "v": 104, 
                            "dur": 110, 
                            "type": "note", 
                            "channel": 4
                        }, 
                        {
                            "pitch": 71, 
                            "t0": 66960, 
                            "v": 120, 
                            "dur": 216, 
                            "type": "note", 
                            "channel": 0
                        }, 
                        {
                            "pitch": 75, 
                            "t0": 66960, 
                            "v": 104, 
                            "dur": 223, 
                            "type": "note", 
                            "channel": 10
                        }
                    ]
                ], 
                [
                    67080, 
                    [
                        {
                            "pitch": 45, 
                            "t0": 67080, 
                            "v": 104, 
                            "dur": 108, 
                            "type": "note", 
                            "channel": 6
                        }, 
                        {
                            "pitch": 64, 
                            "t0": 67080, 
                            "v": 104, 
                            "dur": 108, 
                            "type": "note", 
                            "channel": 3
                        }, 
                        {
                            "pitch": 57, 
                            "t0": 67080, 
                            "v": 104, 
                            "dur": 108, 
                            "type": "note", 
                            "channel": 3
                        }, 
                        {
                            "pitch": 76, 
                            "t0": 67080, 
                            "v": 104, 
                            "dur": 110, 
                            "type": "note", 
                            "channel": 4
                        }
                    ]
                ], 
                [
                    67200, 
                    [
                        {
                            "pitch": 36, 
                            "t0": 67200, 
                            "v": 120, 
                            "dur": 57, 
                            "type": "note", 
                            "channel": 9
                        }, 
                        {
                            "pitch": 46, 
                            "t0": 67200, 
                            "v": 104, 
                            "dur": 57, 
                            "type": "note", 
                            "channel": 9
                        }, 
                        {
                            "pitch": 83, 
                            "t0": 67200, 
                            "v": 104, 
                            "dur": 110, 
                            "type": "note", 
                            "channel": 4
                        }, 
                        {
                            "pitch": 66, 
                            "t0": 67200, 
                            "parts": [
                                [
                                    67200, 
                                    120
                                ], 
                                [
                                    67200, 
                                    104
                                ], 
                                [
                                    67416, 
                                    0
                                ]
                            ], 
                            "v": 120, 
                            "dur": 216, 
                            "type": "note", 
                            "channel": 0
                        }, 
                        {
                            "pitch": 71, 
                            "t0": 67200, 
                            "v": 104, 
                            "dur": 223, 
                            "type": "note", 
                            "channel": 10
                        }, 
                        {
                            "pitch": 47, 
                            "t0": 67200, 
                            "v": 104, 
                            "dur": 432, 
                            "type": "note", 
                            "channel": 6
                        }, 
                        {
                            "pitch": 59, 
                            "t0": 67200, 
                            "v": 104, 
                            "dur": 648, 
                            "type": "note", 
                            "channel": 3
                        }, 
                        {
                            "pitch": 63, 
                            "t0": 67200, 
                            "parts": [
                                [
                                    67200, 
                                    104
                                ], 
                                [
                                    67680, 
                                    120
                                ], 
                                [
                                    67896, 
                                    0
                                ]
                            ], 
                            "v": 104, 
                            "dur": 696, 
                            "type": "note", 
                            "channel": 5
                        }
                    ]
                ], 
                [
                    67320, 
                    [
                        {
                            "pitch": 78, 
                            "t0": 67320, 
                            "v": 104, 
                            "dur": 110, 
                            "type": "note", 
                            "channel": 4
                        }
                    ]
                ], 
                [
                    67440, 
                    [
                        {
                            "pitch": 46, 
                            "t0": 67440, 
                            "v": 88, 
                            "dur": 57, 
                            "type": "note", 
                            "channel": 9
                        }, 
                        {
                            "pitch": 75, 
                            "t0": 67440, 
                            "v": 104, 
                            "dur": 110, 
                            "type": "note", 
                            "channel": 4
                        }, 
                        {
                            "pitch": 71, 
                            "t0": 67440, 
                            "v": 120, 
                            "dur": 216, 
                            "type": "note", 
                            "channel": 0
                        }
                    ]
                ], 
                [
                    67560, 
                    [
                        {
                            "pitch": 83, 
                            "t0": 67560, 
                            "v": 104, 
                            "dur": 110, 
                            "type": "note", 
                            "channel": 4
                        }
                    ]
                ], 
                [
                    67680, 
                    [
                        {
                            "pitch": 38, 
                            "t0": 67680, 
                            "v": 120, 
                            "dur": 57, 
                            "type": "note", 
                            "channel": 9
                        }, 
                        {
                            "pitch": 46, 
                            "t0": 67680, 
                            "v": 104, 
                            "dur": 57, 
                            "type": "note", 
                            "channel": 9
                        }, 
                        {
                            "pitch": 78, 
                            "t0": 67680, 
                            "v": 104, 
                            "dur": 110, 
                            "type": "note", 
                            "channel": 4
                        }, 
                        {
                            "pitch": 49, 
                            "t0": 67680, 
                            "v": 104, 
                            "dur": 216, 
                            "type": "note", 
                            "channel": 6
                        }, 
                        {
                            "pitch": 68, 
                            "t0": 67680, 
                            "v": 104, 
                            "dur": 223, 
                            "type": "note", 
                            "channel": 10
                        }
                    ]
                ], 
                [
                    67800, 
                    [
                        {
                            "pitch": 75, 
                            "t0": 67800, 
                            "v": 104, 
                            "dur": 110, 
                            "type": "note", 
                            "channel": 4
                        }
                    ]
                ], 
                [
                    67920, 
                    [
                        {
                            "pitch": 46, 
                            "t0": 67920, 
                            "v": 88, 
                            "dur": 57, 
                            "type": "note", 
                            "channel": 9
                        }, 
                        {
                            "pitch": 83, 
                            "t0": 67920, 
                            "v": 104, 
                            "dur": 110, 
                            "type": "note", 
                            "channel": 4
                        }, 
                        {
                            "pitch": 51, 
                            "t0": 67920, 
                            "v": 104, 
                            "dur": 216, 
                            "type": "note", 
                            "channel": 6
                        }, 
                        {
                            "pitch": 66, 
                            "t0": 67920, 
                            "v": 120, 
                            "dur": 216, 
                            "type": "note", 
                            "channel": 0
                        }, 
                        {
                            "pitch": 71, 
                            "t0": 67920, 
                            "v": 104, 
                            "dur": 223, 
                            "type": "note", 
                            "channel": 10
                        }
                    ]
                ], 
                [
                    68040, 
                    [
                        {
                            "pitch": 78, 
                            "t0": 68040, 
                            "v": 104, 
                            "dur": 110, 
                            "type": "note", 
                            "channel": 4
                        }
                    ]
                ], 
                [
                    68160, 
                    [
                        {
                            "pitch": 46, 
                            "t0": 68160, 
                            "v": 104, 
                            "dur": 57, 
                            "type": "note", 
                            "channel": 9
                        }, 
                        {
                            "pitch": 36, 
                            "t0": 68160, 
                            "v": 120, 
                            "dur": 57, 
                            "type": "note", 
                            "channel": 9
                        }, 
                        {
                            "pitch": 83, 
                            "t0": 68160, 
                            "v": 104, 
                            "dur": 110, 
                            "type": "note", 
                            "channel": 4
                        }, 
                        {
                            "pitch": 64, 
                            "t0": 68160, 
                            "parts": [
                                [
                                    68160, 
                                    120
                                ], 
                                [
                                    68160, 
                                    104
                                ], 
                                [
                                    68592, 
                                    0
                                ]
                            ], 
                            "v": 120, 
                            "dur": 432, 
                            "type": "note", 
                            "channel": 0
                        }, 
                        {
                            "pitch": 52, 
                            "t0": 68160, 
                            "v": 104, 
                            "dur": 648, 
                            "type": "note", 
                            "channel": 3
                        }, 
                        {
                            "pitch": 68, 
                            "t0": 68160, 
                            "parts": [
                                [
                                    68160, 
                                    104
                                ], 
                                [
                                    68640, 
                                    120
                                ], 
                                [
                                    69052, 
                                    0
                                ]
                            ], 
                            "v": 104, 
                            "dur": 892, 
                            "type": "note", 
                            "channel": 5
                        }, 
                        {
                            "pitch": 59, 
                            "t0": 68160, 
                            "parts": [
                                [
                                    68160, 
                                    104
                                ], 
                                [
                                    69120, 
                                    104
                                ], 
                                [
                                    69552, 
                                    0
                                ]
                            ], 
                            "v": 104, 
                            "dur": 1392, 
                            "type": "note", 
                            "channel": 3
                        }
                    ]
                ], 
                [
                    68280, 
                    [
                        {
                            "pitch": 80, 
                            "t0": 68280, 
                            "v": 104, 
                            "dur": 110, 
                            "type": "note", 
                            "channel": 4
                        }
                    ]
                ], 
                [
                    68400, 
                    [
                        {
                            "pitch": 46, 
                            "t0": 68400, 
                            "v": 88, 
                            "dur": 57, 
                            "type": "note", 
                            "channel": 9
                        }, 
                        {
                            "pitch": 76, 
                            "t0": 68400, 
                            "v": 104, 
                            "dur": 110, 
                            "type": "note", 
                            "channel": 4
                        }
                    ]
                ], 
                [
                    68520, 
                    [
                        {
                            "pitch": 83, 
                            "t0": 68520, 
                            "v": 104, 
                            "dur": 110, 
                            "type": "note", 
                            "channel": 4
                        }
                    ]
                ], 
                [
                    68640, 
                    [
                        {
                            "pitch": 38, 
                            "t0": 68640, 
                            "v": 120, 
                            "dur": 57, 
                            "type": "note", 
                            "channel": 9
                        }, 
                        {
                            "pitch": 46, 
                            "t0": 68640, 
                            "v": 104, 
                            "dur": 57, 
                            "type": "note", 
                            "channel": 9
                        }, 
                        {
                            "pitch": 80, 
                            "t0": 68640, 
                            "v": 104, 
                            "dur": 110, 
                            "type": "note", 
                            "channel": 4
                        }
                    ]
                ], 
                [
                    68760, 
                    [
                        {
                            "pitch": 76, 
                            "t0": 68760, 
                            "v": 104, 
                            "dur": 110, 
                            "type": "note", 
                            "channel": 4
                        }
                    ]
                ], 
                [
                    68880, 
                    [
                        {
                            "pitch": 36, 
                            "t0": 68880, 
                            "v": 104, 
                            "dur": 57, 
                            "type": "note", 
                            "channel": 9
                        }, 
                        {
                            "pitch": 46, 
                            "t0": 68880, 
                            "v": 88, 
                            "dur": 57, 
                            "type": "note", 
                            "channel": 9
                        }, 
                        {
                            "pitch": 56, 
                            "t0": 68880, 
                            "v": 104, 
                            "dur": 108, 
                            "type": "note", 
                            "channel": 6
                        }, 
                        {
                            "pitch": 83, 
                            "t0": 68880, 
                            "v": 104, 
                            "dur": 110, 
                            "type": "note", 
                            "channel": 4
                        }
                    ]
                ], 
                [
                    69000, 
                    [
                        {
                            "pitch": 57, 
                            "t0": 69000, 
                            "v": 104, 
                            "dur": 108, 
                            "type": "note", 
                            "channel": 6
                        }, 
                        {
                            "pitch": 80, 
                            "t0": 69000, 
                            "v": 104, 
                            "dur": 110, 
                            "type": "note", 
                            "channel": 4
                        }
                    ]
                ], 
                [
                    69120, 
                    [
                        {
                            "pitch": 36, 
                            "t0": 69120, 
                            "v": 120, 
                            "dur": 57, 
                            "type": "note", 
                            "channel": 9
                        }, 
                        {
                            "pitch": 46, 
                            "t0": 69120, 
                            "v": 104, 
                            "dur": 57, 
                            "type": "note", 
                            "channel": 9
                        }, 
                        {
                            "pitch": 83, 
                            "t0": 69120, 
                            "v": 104, 
                            "dur": 110, 
                            "type": "note", 
                            "channel": 4
                        }, 
                        {
                            "pitch": 64, 
                            "t0": 69120, 
                            "v": 120, 
                            "dur": 432, 
                            "type": "note", 
                            "channel": 1
                        }
                    ]
                ], 
                [
                    69240, 
                    [
                        {
                            "pitch": 80, 
                            "t0": 69240, 
                            "v": 104, 
                            "dur": 110, 
                            "type": "note", 
                            "channel": 4
                        }
                    ]
                ], 
                [
                    69360, 
                    [
                        {
                            "pitch": 46, 
                            "t0": 69360, 
                            "v": 88, 
                            "dur": 57, 
                            "type": "note", 
                            "channel": 9
                        }, 
                        {
                            "pitch": 76, 
                            "t0": 69360, 
                            "v": 104, 
                            "dur": 110, 
                            "type": "note", 
                            "channel": 4
                        }
                    ]
                ], 
                [
                    69480, 
                    [
                        {
                            "pitch": 83, 
                            "t0": 69480, 
                            "v": 104, 
                            "dur": 110, 
                            "type": "note", 
                            "channel": 4
                        }
                    ]
                ], 
                [
                    69600, 
                    [
                        {
                            "pitch": 38, 
                            "t0": 69600, 
                            "v": 120, 
                            "dur": 57, 
                            "type": "note", 
                            "channel": 9
                        }, 
                        {
                            "pitch": 59, 
                            "t0": 69600, 
                            "parts": [
                                [
                                    69600, 
                                    120
                                ], 
                                [
                                    69600, 
                                    104
                                ], 
                                [
                                    69816, 
                                    0
                                ]
                            ], 
                            "v": 120, 
                            "dur": 216, 
                            "type": "note", 
                            "channel": 0
                        }, 
                        {
                            "pitch": 80, 
                            "t0": 69600, 
                            "v": 104, 
                            "dur": 441, 
                            "type": "note", 
                            "channel": 4
                        }
                    ]
                ], 
                [
                    69720, 
                    [
                        {
                            "pitch": 38, 
                            "t0": 69720, 
                            "v": 104, 
                            "dur": 57, 
                            "type": "note", 
                            "channel": 9
                        }
                    ]
                ], 
                [
                    69840, 
                    [
                        {
                            "pitch": 38, 
                            "t0": 69840, 
                            "v": 104, 
                            "dur": 57, 
                            "type": "note", 
                            "channel": 9
                        }, 
                        {
                            "pitch": 63, 
                            "t0": 69840, 
                            "parts": [
                                [
                                    69840, 
                                    120
                                ], 
                                [
                                    69840, 
                                    104
                                ], 
                                [
                                    70056, 
                                    0
                                ]
                            ], 
                            "v": 120, 
                            "dur": 216, 
                            "type": "note", 
                            "channel": 0
                        }
                    ]
                ], 
                [
                    70080, 
                    [
                        {
                            "pitch": 49, 
                            "t0": 70080, 
                            "v": 120, 
                            "dur": 57, 
                            "type": "note", 
                            "channel": 9
                        }, 
                        {
                            "pitch": 36, 
                            "t0": 70080, 
                            "v": 120, 
                            "dur": 57, 
                            "type": "note", 
                            "channel": 9
                        }, 
                        {
                            "pitch": 40, 
                            "t0": 70080, 
                            "v": 104, 
                            "dur": 216, 
                            "type": "note", 
                            "channel": 6
                        }, 
                        {
                            "pitch": 76, 
                            "t0": 70080, 
                            "parts": [
                                [
                                    70080, 
                                    88
                                ], 
                                [
                                    70320, 
                                    84
                                ], 
                                [
                                    70380, 
                                    0
                                ]
                            ], 
                            "v": 88, 
                            "dur": 300, 
                            "type": "note", 
                            "channel": 4
                        }, 
                        {
                            "pitch": 71, 
                            "t0": 70080, 
                            "parts": [
                                [
                                    70080, 
                                    88
                                ], 
                                [
                                    70440, 
                                    84
                                ], 
                                [
                                    70500, 
                                    0
                                ]
                            ], 
                            "v": 88, 
                            "dur": 420, 
                            "type": "note", 
                            "channel": 4
                        }, 
                        {
                            "pitch": 64, 
                            "t0": 70080, 
                            "parts": [
                                [
                                    70080, 
                                    120
                                ], 
                                [
                                    70080, 
                                    88
                                ], 
                                [
                                    70080, 
                                    104
                                ], 
                                [
                                    70512, 
                                    0
                                ]
                            ], 
                            "v": 120, 
                            "dur": 432, 
                            "type": "note", 
                            "channel": 0
                        }, 
                        {
                            "pitch": 59, 
                            "t0": 70080, 
                            "parts": [
                                [
                                    70080, 
                                    88
                                ], 
                                [
                                    70560, 
                                    120
                                ], 
                                [
                                    70776, 
                                    0
                                ]
                            ], 
                            "v": 88, 
                            "dur": 696, 
                            "type": "note", 
                            "channel": 4
                        }, 
                        {
                            "pitch": 68, 
                            "t0": 70080, 
                            "parts": [
                                [
                                    70080, 
                                    88
                                ], 
                                [
                                    70800, 
                                    120
                                ], 
                                [
                                    70800, 
                                    104
                                ], 
                                [
                                    71016, 
                                    0
                                ]
                            ], 
                            "v": 88, 
                            "dur": 936, 
                            "type": "note", 
                            "channel": 4
                        }, 
                        {
                            "pitch": 54, 
                            "t0": 70080, 
                            "v": 88, 
                            "dur": 1824, 
                            "type": "note", 
                            "channel": 4
                        }
                    ]
                ], 
                [
                    70200, 
                    [
                        {
                            "pitch": 44, 
                            "t0": 70200, 
                            "v": 104, 
                            "dur": 57, 
                            "type": "note", 
                            "channel": 9
                        }, 
                        {
                            "pitch": 78, 
                            "t0": 70200, 
                            "v": 84, 
                            "dur": 60, 
                            "type": "note", 
                            "channel": 3
                        }
                    ]
                ], 
                [
                    70320, 
                    [
                        {
                            "pitch": 44, 
                            "t0": 70320, 
                            "v": 88, 
                            "dur": 57, 
                            "type": "note", 
                            "channel": 9
                        }
                    ]
                ], 
                [
                    70440, 
                    [
                        {
                            "pitch": 44, 
                            "t0": 70440, 
                            "v": 104, 
                            "dur": 57, 
                            "type": "note", 
                            "channel": 9
                        }, 
                        {
                            "pitch": 36, 
                            "t0": 70440, 
                            "v": 104, 
                            "dur": 57, 
                            "type": "note", 
                            "channel": 9
                        }, 
                        {
                            "pitch": 40, 
                            "t0": 70440, 
                            "v": 104, 
                            "dur": 108, 
                            "type": "note", 
                            "channel": 6
                        }
                    ]
                ], 
                [
                    70560, 
                    [
                        {
                            "pitch": 44, 
                            "t0": 70560, 
                            "v": 104, 
                            "dur": 57, 
                            "type": "note", 
                            "channel": 9
                        }, 
                        {
                            "pitch": 78, 
                            "t0": 70560, 
                            "v": 84, 
                            "dur": 60, 
                            "type": "note", 
                            "channel": 3
                        }
                    ]
                ], 
                [
                    70680, 
                    [
                        {
                            "pitch": 44, 
                            "t0": 70680, 
                            "v": 104, 
                            "dur": 57, 
                            "type": "note", 
                            "channel": 9
                        }, 
                        {
                            "pitch": 76, 
                            "t0": 70680, 
                            "v": 84, 
                            "dur": 60, 
                            "type": "note", 
                            "channel": 3
                        }
                    ]
                ], 
                [
                    70800, 
                    [
                        {
                            "pitch": 44, 
                            "t0": 70800, 
                            "v": 88, 
                            "dur": 57, 
                            "type": "note", 
                            "channel": 9
                        }, 
                        {
                            "pitch": 71, 
                            "t0": 70800, 
                            "v": 84, 
                            "dur": 60, 
                            "type": "note", 
                            "channel": 3
                        }
                    ]
                ], 
                [
                    70920, 
                    [
                        {
                            "pitch": 37, 
                            "t0": 70920, 
                            "v": 104, 
                            "dur": 57, 
                            "type": "note", 
                            "channel": 9
                        }, 
                        {
                            "pitch": 44, 
                            "t0": 70920, 
                            "v": 104, 
                            "dur": 57, 
                            "type": "note", 
                            "channel": 9
                        }, 
                        {
                            "pitch": 78, 
                            "t0": 70920, 
                            "v": 84, 
                            "dur": 60, 
                            "type": "note", 
                            "channel": 3
                        }
                    ]
                ], 
                [
                    71040, 
                    [
                        {
                            "pitch": 44, 
                            "t0": 71040, 
                            "v": 104, 
                            "dur": 57, 
                            "type": "note", 
                            "channel": 9
                        }, 
                        {
                            "pitch": 36, 
                            "t0": 71040, 
                            "v": 120, 
                            "dur": 57, 
                            "type": "note", 
                            "channel": 9
                        }, 
                        {
                            "pitch": 40, 
                            "t0": 71040, 
                            "v": 104, 
                            "dur": 108, 
                            "type": "note", 
                            "channel": 6
                        }, 
                        {
                            "pitch": 69, 
                            "t0": 71040, 
                            "parts": [
                                [
                                    71040, 
                                    120
                                ], 
                                [
                                    71040, 
                                    104
                                ], 
                                [
                                    71256, 
                                    0
                                ]
                            ], 
                            "v": 120, 
                            "dur": 216, 
                            "type": "note", 
                            "channel": 0
                        }
                    ]
                ], 
                [
                    71160, 
                    [
                        {
                            "pitch": 44, 
                            "t0": 71160, 
                            "v": 104, 
                            "dur": 57, 
                            "type": "note", 
                            "channel": 9
                        }, 
                        {
                            "pitch": 36, 
                            "t0": 71160, 
                            "v": 104, 
                            "dur": 57, 
                            "type": "note", 
                            "channel": 9
                        }, 
                        {
                            "pitch": 78, 
                            "t0": 71160, 
                            "v": 84, 
                            "dur": 60, 
                            "type": "note", 
                            "channel": 3
                        }, 
                        {
                            "pitch": 40, 
                            "t0": 71160, 
                            "v": 104, 
                            "dur": 108, 
                            "type": "note", 
                            "channel": 6
                        }
                    ]
                ], 
                [
                    71280, 
                    [
                        {
                            "pitch": 44, 
                            "t0": 71280, 
                            "v": 88, 
                            "dur": 57, 
                            "type": "note", 
                            "channel": 9
                        }, 
                        {
                            "pitch": 76, 
                            "t0": 71280, 
                            "v": 84, 
                            "dur": 60, 
                            "type": "note", 
                            "channel": 3
                        }, 
                        {
                            "pitch": 71, 
                            "t0": 71280, 
                            "parts": [
                                [
                                    71280, 
                                    120
                                ], 
                                [
                                    71280, 
                                    104
                                ], 
                                [
                                    71400, 
                                    84
                                ], 
                                [
                                    71460, 
                                    0
                                ]
                            ], 
                            "v": 120, 
                            "dur": 180, 
                            "type": "note", 
                            "channel": 0
                        }, 
                        {
                            "pitch": 59, 
                            "t0": 71280, 
                            "v": 120, 
                            "dur": 216, 
                            "type": "note", 
                            "channel": 1
                        }
                    ]
                ], 
                [
                    71400, 
                    [
                        {
                            "pitch": 44, 
                            "t0": 71400, 
                            "v": 104, 
                            "dur": 57, 
                            "type": "note", 
                            "channel": 9
                        }, 
                        {
                            "pitch": 36, 
                            "t0": 71400, 
                            "v": 104, 
                            "dur": 57, 
                            "type": "note", 
                            "channel": 9
                        }, 
                        {
                            "pitch": 40, 
                            "t0": 71400, 
                            "v": 104, 
                            "dur": 108, 
                            "type": "note", 
                            "channel": 6
                        }
                    ]
                ], 
                [
                    71520, 
                    [
                        {
                            "pitch": 38, 
                            "t0": 71520, 
                            "v": 120, 
                            "dur": 57, 
                            "type": "note", 
                            "channel": 9
                        }, 
                        {
                            "pitch": 44, 
                            "t0": 71520, 
                            "v": 104, 
                            "dur": 57, 
                            "type": "note", 
                            "channel": 9
                        }, 
                        {
                            "pitch": 78, 
                            "t0": 71520, 
                            "v": 84, 
                            "dur": 60, 
                            "type": "note", 
                            "channel": 3
                        }, 
                        {
                            "pitch": 75, 
                            "t0": 71520, 
                            "parts": [
                                [
                                    71520, 
                                    120
                                ], 
                                [
                                    71520, 
                                    104
                                ], 
                                [
                                    71736, 
                                    0
                                ]
                            ], 
                            "v": 120, 
                            "dur": 216, 
                            "type": "note", 
                            "channel": 0
                        }
                    ]
                ], 
                [
                    71640, 
                    [
                        {
                            "pitch": 44, 
                            "t0": 71640, 
                            "v": 104, 
                            "dur": 57, 
                            "type": "note", 
                            "channel": 9
                        }, 
                        {
                            "pitch": 76, 
                            "t0": 71640, 
                            "v": 84, 
                            "dur": 60, 
                            "type": "note", 
                            "channel": 3
                        }
                    ]
                ], 
                [
                    71760, 
                    [
                        {
                            "pitch": 44, 
                            "t0": 71760, 
                            "v": 88, 
                            "dur": 57, 
                            "type": "note", 
                            "channel": 9
                        }, 
                        {
                            "pitch": 71, 
                            "t0": 71760, 
                            "v": 84, 
                            "dur": 60, 
                            "type": "note", 
                            "channel": 3
                        }, 
                        {
                            "pitch": 76, 
                            "t0": 71760, 
                            "parts": [
                                [
                                    71760, 
                                    120
                                ], 
                                [
                                    71760, 
                                    104
                                ], 
                                [
                                    71904, 
                                    0
                                ]
                            ], 
                            "v": 120, 
                            "dur": 144, 
                            "type": "note", 
                            "channel": 0
                        }, 
                        {
                            "pitch": 59, 
                            "t0": 71760, 
                            "v": 120, 
                            "dur": 144, 
                            "type": "note", 
                            "channel": 1
                        }
                    ]
                ], 
                [
                    71880, 
                    [
                        {
                            "pitch": 44, 
                            "t0": 71880, 
                            "v": 104, 
                            "dur": 57, 
                            "type": "note", 
                            "channel": 9
                        }, 
                        {
                            "pitch": 78, 
                            "t0": 71880, 
                            "v": 84, 
                            "dur": 60, 
                            "type": "note", 
                            "channel": 3
                        }
                    ]
                ], 
                [
                    72000, 
                    [
                        {
                            "pitch": 44, 
                            "t0": 72000, 
                            "v": 104, 
                            "dur": 57, 
                            "type": "note", 
                            "channel": 9
                        }, 
                        {
                            "pitch": 36, 
                            "t0": 72000, 
                            "v": 120, 
                            "dur": 57, 
                            "type": "note", 
                            "channel": 9
                        }, 
                        {
                            "pitch": 40, 
                            "t0": 72000, 
                            "v": 104, 
                            "dur": 216, 
                            "type": "note", 
                            "channel": 6
                        }, 
                        {
                            "pitch": 76, 
                            "t0": 72000, 
                            "parts": [
                                [
                                    72000, 
                                    88
                                ], 
                                [
                                    72240, 
                                    84
                                ], 
                                [
                                    72300, 
                                    0
                                ]
                            ], 
                            "v": 88, 
                            "dur": 300, 
                            "type": "note", 
                            "channel": 4
                        }, 
                        {
                            "pitch": 71, 
                            "t0": 72000, 
                            "parts": [
                                [
                                    72000, 
                                    120
                                ], 
                                [
                                    72000, 
                                    88
                                ], 
                                [
                                    72000, 
                                    104
                                ], 
                                [
                                    72360, 
                                    84
                                ], 
                                [
                                    72420, 
                                    0
                                ]
                            ], 
                            "v": 120, 
                            "dur": 420, 
                            "type": "note", 
                            "channel": 0
                        }, 
                        {
                            "pitch": 64, 
                            "t0": 72000, 
                            "v": 88, 
                            "dur": 912, 
                            "type": "note", 
                            "channel": 4
                        }, 
                        {
                            "pitch": 54, 
                            "t0": 72000, 
                            "v": 88, 
                            "dur": 912, 
                            "type": "note", 
                            "channel": 4
                        }, 
                        {
                            "pitch": 68, 
                            "t0": 72000, 
                            "v": 88, 
                            "dur": 912, 
                            "type": "note", 
                            "channel": 4
                        }, 
                        {
                            "pitch": 59, 
                            "t0": 72000, 
                            "parts": [
                                [
                                    72000, 
                                    88
                                ], 
                                [
                                    72720, 
                                    120
                                ], 
                                [
                                    72912, 
                                    0
                                ]
                            ], 
                            "v": 88, 
                            "dur": 912, 
                            "type": "note", 
                            "channel": 4
                        }
                    ]
                ], 
                [
                    72120, 
                    [
                        {
                            "pitch": 44, 
                            "t0": 72120, 
                            "v": 104, 
                            "dur": 57, 
                            "type": "note", 
                            "channel": 9
                        }, 
                        {
                            "pitch": 78, 
                            "t0": 72120, 
                            "v": 84, 
                            "dur": 60, 
                            "type": "note", 
                            "channel": 3
                        }
                    ]
                ], 
                [
                    72240, 
                    [
                        {
                            "pitch": 44, 
                            "t0": 72240, 
                            "v": 88, 
                            "dur": 57, 
                            "type": "note", 
                            "channel": 9
                        }
                    ]
                ], 
                [
                    72360, 
                    [
                        {
                            "pitch": 44, 
                            "t0": 72360, 
                            "v": 104, 
                            "dur": 57, 
                            "type": "note", 
                            "channel": 9
                        }, 
                        {
                            "pitch": 36, 
                            "t0": 72360, 
                            "v": 104, 
                            "dur": 57, 
                            "type": "note", 
                            "channel": 9
                        }, 
                        {
                            "pitch": 40, 
                            "t0": 72360, 
                            "v": 104, 
                            "dur": 108, 
                            "type": "note", 
                            "channel": 6
                        }
                    ]
                ], 
                [
                    72480, 
                    [
                        {
                            "pitch": 44, 
                            "t0": 72480, 
                            "v": 104, 
                            "dur": 57, 
                            "type": "note", 
                            "channel": 9
                        }, 
                        {
                            "pitch": 78, 
                            "t0": 72480, 
                            "v": 84, 
                            "dur": 60, 
                            "type": "note", 
                            "channel": 3
                        }, 
                        {
                            "pitch": 75, 
                            "t0": 72480, 
                            "parts": [
                                [
                                    72480, 
                                    120
                                ], 
                                [
                                    72480, 
                                    104
                                ], 
                                [
                                    72696, 
                                    0
                                ]
                            ], 
                            "v": 120, 
                            "dur": 216, 
                            "type": "note", 
                            "channel": 0
                        }
                    ]
                ], 
                [
                    72600, 
                    [
                        {
                            "pitch": 44, 
                            "t0": 72600, 
                            "v": 104, 
                            "dur": 57, 
                            "type": "note", 
                            "channel": 9
                        }, 
                        {
                            "pitch": 76, 
                            "t0": 72600, 
                            "v": 85, 
                            "dur": 60, 
                            "type": "note", 
                            "channel": 3
                        }
                    ]
                ], 
                [
                    72720, 
                    [
                        {
                            "pitch": 44, 
                            "t0": 72720, 
                            "v": 88, 
                            "dur": 57, 
                            "type": "note", 
                            "channel": 9
                        }, 
                        {
                            "pitch": 71, 
                            "t0": 72720, 
                            "v": 85, 
                            "dur": 60, 
                            "type": "note", 
                            "channel": 3
                        }, 
                        {
                            "pitch": 76, 
                            "t0": 72720, 
                            "parts": [
                                [
                                    72720, 
                                    120
                                ], 
                                [
                                    72720, 
                                    104
                                ], 
                                [
                                    72912, 
                                    0
                                ]
                            ], 
                            "v": 120, 
                            "dur": 192, 
                            "type": "note", 
                            "channel": 0
                        }
                    ]
                ], 
                [
                    72840, 
                    [
                        {
                            "pitch": 37, 
                            "t0": 72840, 
                            "v": 104, 
                            "dur": 57, 
                            "type": "note", 
                            "channel": 9
                        }, 
                        {
                            "pitch": 44, 
                            "t0": 72840, 
                            "v": 104, 
                            "dur": 57, 
                            "type": "note", 
                            "channel": 9
                        }, 
                        {
                            "pitch": 78, 
                            "t0": 72840, 
                            "v": 85, 
                            "dur": 60, 
                            "type": "note", 
                            "channel": 3
                        }
                    ]
                ], 
                [
                    72960, 
                    [
                        {
                            "pitch": 44, 
                            "t0": 72960, 
                            "v": 104, 
                            "dur": 57, 
                            "type": "note", 
                            "channel": 9
                        }, 
                        {
                            "pitch": 36, 
                            "t0": 72960, 
                            "v": 120, 
                            "dur": 57, 
                            "type": "note", 
                            "channel": 9
                        }, 
                        {
                            "pitch": 48, 
                            "t0": 72960, 
                            "v": 104, 
                            "dur": 108, 
                            "type": "note", 
                            "channel": 6
                        }, 
                        {
                            "pitch": 69, 
                            "t0": 72960, 
                            "parts": [
                                [
                                    72960, 
                                    120
                                ], 
                                [
                                    72960, 
                                    88
                                ], 
                                [
                                    72960, 
                                    104
                                ], 
                                [
                                    73188, 
                                    0
                                ]
                            ], 
                            "v": 120, 
                            "dur": 228, 
                            "type": "note", 
                            "channel": 0
                        }, 
                        {
                            "pitch": 76, 
                            "t0": 72960, 
                            "v": 88, 
                            "dur": 912, 
                            "type": "note", 
                            "channel": 4
                        }, 
                        {
                            "pitch": 60, 
                            "t0": 72960, 
                            "v": 88, 
                            "dur": 912, 
                            "type": "note", 
                            "channel": 4
                        }, 
                        {
                            "pitch": 64, 
                            "t0": 72960, 
                            "v": 88, 
                            "dur": 912, 
                            "type": "note", 
                            "channel": 4
                        }, 
                        {
                            "pitch": 71, 
                            "t0": 72960, 
                            "v": 88, 
                            "dur": 912, 
                            "type": "note", 
                            "channel": 4
                        }
                    ]
                ], 
                [
                    73080, 
                    [
                        {
                            "pitch": 44, 
                            "t0": 73080, 
                            "v": 104, 
                            "dur": 57, 
                            "type": "note", 
                            "channel": 9
                        }, 
                        {
                            "pitch": 36, 
                            "t0": 73080, 
                            "v": 104, 
                            "dur": 57, 
                            "type": "note", 
                            "channel": 9
                        }, 
                        {
                            "pitch": 81, 
                            "t0": 73080, 
                            "v": 85, 
                            "dur": 60, 
                            "type": "note", 
                            "channel": 3
                        }, 
                        {
                            "pitch": 48, 
                            "t0": 73080, 
                            "v": 104, 
                            "dur": 108, 
                            "type": "note", 
                            "channel": 6
                        }
                    ]
                ], 
                [
                    73200, 
                    [
                        {
                            "pitch": 44, 
                            "t0": 73200, 
                            "v": 88, 
                            "dur": 57, 
                            "type": "note", 
                            "channel": 9
                        }, 
                        {
                            "pitch": 80, 
                            "t0": 73200, 
                            "v": 85, 
                            "dur": 60, 
                            "type": "note", 
                            "channel": 3
                        }, 
                        {
                            "pitch": 69, 
                            "t0": 73200, 
                            "parts": [
                                [
                                    73200, 
                                    120
                                ], 
                                [
                                    73200, 
                                    104
                                ], 
                                [
                                    73392, 
                                    0
                                ]
                            ], 
                            "v": 120, 
                            "dur": 192, 
                            "type": "note", 
                            "channel": 0
                        }
                    ]
                ], 
                [
                    73320, 
                    [
                        {
                            "pitch": 44, 
                            "t0": 73320, 
                            "v": 104, 
                            "dur": 57, 
                            "type": "note", 
                            "channel": 9
                        }, 
                        {
                            "pitch": 36, 
                            "t0": 73320, 
                            "v": 104, 
                            "dur": 57, 
                            "type": "note", 
                            "channel": 9
                        }, 
                        {
                            "pitch": 72, 
                            "t0": 73320, 
                            "v": 85, 
                            "dur": 60, 
                            "type": "note", 
                            "channel": 3
                        }, 
                        {
                            "pitch": 48, 
                            "t0": 73320, 
                            "v": 104, 
                            "dur": 108, 
                            "type": "note", 
                            "channel": 6
                        }
                    ]
                ], 
                [
                    73440, 
                    [
                        {
                            "pitch": 38, 
                            "t0": 73440, 
                            "v": 120, 
                            "dur": 57, 
                            "type": "note", 
                            "channel": 9
                        }, 
                        {
                            "pitch": 44, 
                            "t0": 73440, 
                            "v": 104, 
                            "dur": 57, 
                            "type": "note", 
                            "channel": 9
                        }, 
                        {
                            "pitch": 81, 
                            "t0": 73440, 
                            "v": 85, 
                            "dur": 60, 
                            "type": "note", 
                            "channel": 3
                        }, 
                        {
                            "pitch": 68, 
                            "t0": 73440, 
                            "parts": [
                                [
                                    73440, 
                                    120
                                ], 
                                [
                                    73440, 
                                    104
                                ], 
                                [
                                    73656, 
                                    0
                                ]
                            ], 
                            "v": 120, 
                            "dur": 216, 
                            "type": "note", 
                            "channel": 0
                        }
                    ]
                ], 
                [
                    73560, 
                    [
                        {
                            "pitch": 44, 
                            "t0": 73560, 
                            "v": 104, 
                            "dur": 57, 
                            "type": "note", 
                            "channel": 9
                        }, 
                        {
                            "pitch": 80, 
                            "t0": 73560, 
                            "v": 85, 
                            "dur": 60, 
                            "type": "note", 
                            "channel": 3
                        }
                    ]
                ], 
                [
                    73680, 
                    [
                        {
                            "pitch": 44, 
                            "t0": 73680, 
                            "v": 88, 
                            "dur": 57, 
                            "type": "note", 
                            "channel": 9
                        }, 
                        {
                            "pitch": 72, 
                            "t0": 73680, 
                            "v": 85, 
                            "dur": 60, 
                            "type": "note", 
                            "channel": 3
                        }, 
                        {
                            "pitch": 69, 
                            "t0": 73680, 
                            "parts": [
                                [
                                    73680, 
                                    120
                                ], 
                                [
                                    73680, 
                                    104
                                ], 
                                [
                                    73872, 
                                    0
                                ]
                            ], 
                            "v": 120, 
                            "dur": 192, 
                            "type": "note", 
                            "channel": 0
                        }
                    ]
                ], 
                [
                    73800, 
                    [
                        {
                            "pitch": 44, 
                            "t0": 73800, 
                            "v": 104, 
                            "dur": 57, 
                            "type": "note", 
                            "channel": 9
                        }, 
                        {
                            "pitch": 81, 
                            "t0": 73800, 
                            "v": 85, 
                            "dur": 60, 
                            "type": "note", 
                            "channel": 3
                        }
                    ]
                ], 
                [
                    73920, 
                    [
                        {
                            "pitch": 44, 
                            "t0": 73920, 
                            "v": 104, 
                            "dur": 57, 
                            "type": "note", 
                            "channel": 9
                        }, 
                        {
                            "pitch": 36, 
                            "t0": 73920, 
                            "v": 120, 
                            "dur": 57, 
                            "type": "note", 
                            "channel": 9
                        }, 
                        {
                            "pitch": 47, 
                            "t0": 73920, 
                            "v": 104, 
                            "dur": 108, 
                            "type": "note", 
                            "channel": 6
                        }, 
                        {
                            "pitch": 66, 
                            "t0": 73920, 
                            "parts": [
                                [
                                    73920, 
                                    120
                                ], 
                                [
                                    73920, 
                                    88
                                ], 
                                [
                                    73920, 
                                    104
                                ], 
                                [
                                    74136, 
                                    0
                                ]
                            ], 
                            "v": 120, 
                            "dur": 216, 
                            "type": "note", 
                            "channel": 0
                        }, 
                        {
                            "pitch": 78, 
                            "t0": 73920, 
                            "parts": [
                                [
                                    73920, 
                                    88
                                ], 
                                [
                                    74160, 
                                    85
                                ], 
                                [
                                    74220, 
                                    0
                                ]
                            ], 
                            "v": 88, 
                            "dur": 300, 
                            "type": "note", 
                            "channel": 4
                        }, 
                        {
                            "pitch": 71, 
                            "t0": 73920, 
                            "parts": [
                                [
                                    73920, 
                                    88
                                ], 
                                [
                                    74160, 
                                    120
                                ], 
                                [
                                    74376, 
                                    0
                                ]
                            ], 
                            "v": 88, 
                            "dur": 456, 
                            "type": "note", 
                            "channel": 4
                        }, 
                        {
                            "pitch": 73, 
                            "t0": 73920, 
                            "v": 88, 
                            "dur": 912, 
                            "type": "note", 
                            "channel": 4
                        }
                    ]
                ], 
                [
                    74040, 
                    [
                        {
                            "pitch": 44, 
                            "t0": 74040, 
                            "v": 104, 
                            "dur": 57, 
                            "type": "note", 
                            "channel": 9
                        }, 
                        {
                            "pitch": 36, 
                            "t0": 74040, 
                            "v": 104, 
                            "dur": 57, 
                            "type": "note", 
                            "channel": 9
                        }, 
                        {
                            "pitch": 83, 
                            "t0": 74040, 
                            "v": 85, 
                            "dur": 60, 
                            "type": "note", 
                            "channel": 3
                        }, 
                        {
                            "pitch": 47, 
                            "t0": 74040, 
                            "v": 104, 
                            "dur": 108, 
                            "type": "note", 
                            "channel": 6
                        }
                    ]
                ], 
                [
                    74160, 
                    [
                        {
                            "pitch": 44, 
                            "t0": 74160, 
                            "v": 88, 
                            "dur": 57, 
                            "type": "note", 
                            "channel": 9
                        }, 
                        {
                            "pitch": 64, 
                            "t0": 74160, 
                            "parts": [
                                [
                                    74160, 
                                    120
                                ], 
                                [
                                    74160, 
                                    104
                                ], 
                                [
                                    74388, 
                                    0
                                ]
                            ], 
                            "v": 120, 
                            "dur": 228, 
                            "type": "note", 
                            "channel": 0
                        }
                    ]
                ], 
                [
                    74280, 
                    [
                        {
                            "pitch": 44, 
                            "t0": 74280, 
                            "v": 104, 
                            "dur": 57, 
                            "type": "note", 
                            "channel": 9
                        }, 
                        {
                            "pitch": 36, 
                            "t0": 74280, 
                            "v": 104, 
                            "dur": 57, 
                            "type": "note", 
                            "channel": 9
                        }, 
                        {
                            "pitch": 75, 
                            "t0": 74280, 
                            "v": 85, 
                            "dur": 60, 
                            "type": "note", 
                            "channel": 3
                        }, 
                        {
                            "pitch": 47, 
                            "t0": 74280, 
                            "v": 104, 
                            "dur": 108, 
                            "type": "note", 
                            "channel": 6
                        }
                    ]
                ], 
                [
                    74400, 
                    [
                        {
                            "pitch": 38, 
                            "t0": 74400, 
                            "v": 120, 
                            "dur": 57, 
                            "type": "note", 
                            "channel": 9
                        }, 
                        {
                            "pitch": 44, 
                            "t0": 74400, 
                            "v": 104, 
                            "dur": 57, 
                            "type": "note", 
                            "channel": 9
                        }, 
                        {
                            "pitch": 83, 
                            "t0": 74400, 
                            "v": 85, 
                            "dur": 60, 
                            "type": "note", 
                            "channel": 3
                        }, 
                        {
                            "pitch": 63, 
                            "t0": 74400, 
                            "parts": [
                                [
                                    74400, 
                                    120
                                ], 
                                [
                                    74400, 
                                    104
                                ], 
                                [
                                    74616, 
                                    0
                                ]
                            ], 
                            "v": 120, 
                            "dur": 216, 
                            "type": "note", 
                            "channel": 0
                        }
                    ]
                ], 
                [
                    74520, 
                    [
                        {
                            "pitch": 44, 
                            "t0": 74520, 
                            "v": 104, 
                            "dur": 57, 
                            "type": "note", 
                            "channel": 9
                        }, 
                        {
                            "pitch": 78, 
                            "t0": 74520, 
                            "v": 85, 
                            "dur": 60, 
                            "type": "note", 
                            "channel": 3
                        }
                    ]
                ], 
                [
                    74640, 
                    [
                        {
                            "pitch": 44, 
                            "t0": 74640, 
                            "v": 88, 
                            "dur": 57, 
                            "type": "note", 
                            "channel": 9
                        }, 
                        {
                            "pitch": 75, 
                            "t0": 74640, 
                            "v": 85, 
                            "dur": 60, 
                            "type": "note", 
                            "channel": 3
                        }, 
                        {
                            "pitch": 66, 
                            "t0": 74640, 
                            "parts": [
                                [
                                    74640, 
                                    120
                                ], 
                                [
                                    74640, 
                                    104
                                ], 
                                [
                                    74832, 
                                    0
                                ]
                            ], 
                            "v": 120, 
                            "dur": 192, 
                            "type": "note", 
                            "channel": 0
                        }
                    ]
                ], 
                [
                    74760, 
                    [
                        {
                            "pitch": 44, 
                            "t0": 74760, 
                            "v": 104, 
                            "dur": 57, 
                            "type": "note", 
                            "channel": 9
                        }, 
                        {
                            "pitch": 83, 
                            "t0": 74760, 
                            "v": 87, 
                            "dur": 60, 
                            "type": "note", 
                            "channel": 3
                        }
                    ]
                ], 
                [
                    74880, 
                    [
                        {
                            "pitch": 44, 
                            "t0": 74880, 
                            "v": 104, 
                            "dur": 57, 
                            "type": "note", 
                            "channel": 9
                        }, 
                        {
                            "pitch": 36, 
                            "t0": 74880, 
                            "v": 120, 
                            "dur": 57, 
                            "type": "note", 
                            "channel": 9
                        }, 
                        {
                            "pitch": 40, 
                            "t0": 74880, 
                            "v": 104, 
                            "dur": 216, 
                            "type": "note", 
                            "channel": 6
                        }, 
                        {
                            "pitch": 76, 
                            "t0": 74880, 
                            "parts": [
                                [
                                    74880, 
                                    88
                                ], 
                                [
                                    75120, 
                                    87
                                ], 
                                [
                                    75180, 
                                    0
                                ]
                            ], 
                            "v": 88, 
                            "dur": 300, 
                            "type": "note", 
                            "channel": 4
                        }, 
                        {
                            "pitch": 71, 
                            "t0": 74880, 
                            "parts": [
                                [
                                    74880, 
                                    88
                                ], 
                                [
                                    75240, 
                                    87
                                ], 
                                [
                                    75300, 
                                    0
                                ]
                            ], 
                            "v": 88, 
                            "dur": 420, 
                            "type": "note", 
                            "channel": 4
                        }, 
                        {
                            "pitch": 64, 
                            "t0": 74880, 
                            "parts": [
                                [
                                    74880, 
                                    120
                                ], 
                                [
                                    74880, 
                                    88
                                ], 
                                [
                                    74880, 
                                    104
                                ], 
                                [
                                    75312, 
                                    0
                                ]
                            ], 
                            "v": 120, 
                            "dur": 432, 
                            "type": "note", 
                            "channel": 0
                        }, 
                        {
                            "pitch": 59, 
                            "t0": 74880, 
                            "parts": [
                                [
                                    74880, 
                                    88
                                ], 
                                [
                                    75360, 
                                    120
                                ], 
                                [
                                    75792, 
                                    0
                                ]
                            ], 
                            "v": 88, 
                            "dur": 912, 
                            "type": "note", 
                            "channel": 4
                        }, 
                        {
                            "pitch": 54, 
                            "t0": 74880, 
                            "v": 88, 
                            "dur": 1824, 
                            "type": "note", 
                            "channel": 4
                        }, 
                        {
                            "pitch": 68, 
                            "t0": 74880, 
                            "v": 88, 
                            "dur": 1824, 
                            "type": "note", 
                            "channel": 4
                        }
                    ]
                ], 
                [
                    75000, 
                    [
                        {
                            "pitch": 44, 
                            "t0": 75000, 
                            "v": 104, 
                            "dur": 57, 
                            "type": "note", 
                            "channel": 9
                        }, 
                        {
                            "pitch": 78, 
                            "t0": 75000, 
                            "v": 87, 
                            "dur": 60, 
                            "type": "note", 
                            "channel": 3
                        }
                    ]
                ], 
                [
                    75120, 
                    [
                        {
                            "pitch": 44, 
                            "t0": 75120, 
                            "v": 88, 
                            "dur": 57, 
                            "type": "note", 
                            "channel": 9
                        }
                    ]
                ], 
                [
                    75240, 
                    [
                        {
                            "pitch": 44, 
                            "t0": 75240, 
                            "v": 104, 
                            "dur": 57, 
                            "type": "note", 
                            "channel": 9
                        }, 
                        {
                            "pitch": 36, 
                            "t0": 75240, 
                            "v": 104, 
                            "dur": 57, 
                            "type": "note", 
                            "channel": 9
                        }, 
                        {
                            "pitch": 40, 
                            "t0": 75240, 
                            "v": 104, 
                            "dur": 108, 
                            "type": "note", 
                            "channel": 6
                        }
                    ]
                ], 
                [
                    75360, 
                    [
                        {
                            "pitch": 44, 
                            "t0": 75360, 
                            "v": 104, 
                            "dur": 57, 
                            "type": "note", 
                            "channel": 9
                        }, 
                        {
                            "pitch": 78, 
                            "t0": 75360, 
                            "v": 87, 
                            "dur": 60, 
                            "type": "note", 
                            "channel": 3
                        }
                    ]
                ], 
                [
                    75480, 
                    [
                        {
                            "pitch": 44, 
                            "t0": 75480, 
                            "v": 104, 
                            "dur": 57, 
                            "type": "note", 
                            "channel": 9
                        }, 
                        {
                            "pitch": 76, 
                            "t0": 75480, 
                            "v": 87, 
                            "dur": 60, 
                            "type": "note", 
                            "channel": 3
                        }
                    ]
                ], 
                [
                    75600, 
                    [
                        {
                            "pitch": 44, 
                            "t0": 75600, 
                            "v": 88, 
                            "dur": 57, 
                            "type": "note", 
                            "channel": 9
                        }, 
                        {
                            "pitch": 71, 
                            "t0": 75600, 
                            "v": 87, 
                            "dur": 60, 
                            "type": "note", 
                            "channel": 3
                        }
                    ]
                ], 
                [
                    75720, 
                    [
                        {
                            "pitch": 37, 
                            "t0": 75720, 
                            "v": 104, 
                            "dur": 57, 
                            "type": "note", 
                            "channel": 9
                        }, 
                        {
                            "pitch": 44, 
                            "t0": 75720, 
                            "v": 104, 
                            "dur": 57, 
                            "type": "note", 
                            "channel": 9
                        }, 
                        {
                            "pitch": 78, 
                            "t0": 75720, 
                            "v": 87, 
                            "dur": 60, 
                            "type": "note", 
                            "channel": 3
                        }
                    ]
                ], 
                [
                    75840, 
                    [
                        {
                            "pitch": 44, 
                            "t0": 75840, 
                            "v": 104, 
                            "dur": 57, 
                            "type": "note", 
                            "channel": 9
                        }, 
                        {
                            "pitch": 36, 
                            "t0": 75840, 
                            "v": 120, 
                            "dur": 57, 
                            "type": "note", 
                            "channel": 9
                        }, 
                        {
                            "pitch": 40, 
                            "t0": 75840, 
                            "v": 104, 
                            "dur": 108, 
                            "type": "note", 
                            "channel": 6
                        }, 
                        {
                            "pitch": 64, 
                            "t0": 75840, 
                            "v": 120, 
                            "dur": 432, 
                            "type": "note", 
                            "channel": 1
                        }
                    ]
                ], 
                [
                    75960, 
                    [
                        {
                            "pitch": 44, 
                            "t0": 75960, 
                            "v": 104, 
                            "dur": 57, 
                            "type": "note", 
                            "channel": 9
                        }, 
                        {
                            "pitch": 36, 
                            "t0": 75960, 
                            "v": 104, 
                            "dur": 57, 
                            "type": "note", 
                            "channel": 9
                        }, 
                        {
                            "pitch": 78, 
                            "t0": 75960, 
                            "v": 87, 
                            "dur": 60, 
                            "type": "note", 
                            "channel": 3
                        }, 
                        {
                            "pitch": 40, 
                            "t0": 75960, 
                            "v": 104, 
                            "dur": 108, 
                            "type": "note", 
                            "channel": 6
                        }
                    ]
                ], 
                [
                    76080, 
                    [
                        {
                            "pitch": 44, 
                            "t0": 76080, 
                            "v": 88, 
                            "dur": 57, 
                            "type": "note", 
                            "channel": 9
                        }, 
                        {
                            "pitch": 76, 
                            "t0": 76080, 
                            "v": 87, 
                            "dur": 60, 
                            "type": "note", 
                            "channel": 3
                        }
                    ]
                ], 
                [
                    76200, 
                    [
                        {
                            "pitch": 44, 
                            "t0": 76200, 
                            "v": 104, 
                            "dur": 57, 
                            "type": "note", 
                            "channel": 9
                        }, 
                        {
                            "pitch": 36, 
                            "t0": 76200, 
                            "v": 104, 
                            "dur": 57, 
                            "type": "note", 
                            "channel": 9
                        }, 
                        {
                            "pitch": 71, 
                            "t0": 76200, 
                            "v": 87, 
                            "dur": 60, 
                            "type": "note", 
                            "channel": 3
                        }, 
                        {
                            "pitch": 40, 
                            "t0": 76200, 
                            "v": 104, 
                            "dur": 108, 
                            "type": "note", 
                            "channel": 6
                        }
                    ]
                ], 
                [
                    76320, 
                    [
                        {
                            "pitch": 38, 
                            "t0": 76320, 
                            "v": 120, 
                            "dur": 57, 
                            "type": "note", 
                            "channel": 9
                        }, 
                        {
                            "pitch": 44, 
                            "t0": 76320, 
                            "v": 104, 
                            "dur": 57, 
                            "type": "note", 
                            "channel": 9
                        }, 
                        {
                            "pitch": 78, 
                            "t0": 76320, 
                            "v": 87, 
                            "dur": 60, 
                            "type": "note", 
                            "channel": 3
                        }, 
                        {
                            "pitch": 59, 
                            "t0": 76320, 
                            "parts": [
                                [
                                    76320, 
                                    120
                                ], 
                                [
                                    76320, 
                                    104
                                ], 
                                [
                                    76536, 
                                    0
                                ]
                            ], 
                            "v": 120, 
                            "dur": 216, 
                            "type": "note", 
                            "channel": 0
                        }
                    ]
                ], 
                [
                    76440, 
                    [
                        {
                            "pitch": 44, 
                            "t0": 76440, 
                            "v": 104, 
                            "dur": 57, 
                            "type": "note", 
                            "channel": 9
                        }, 
                        {
                            "pitch": 76, 
                            "t0": 76440, 
                            "v": 87, 
                            "dur": 60, 
                            "type": "note", 
                            "channel": 3
                        }
                    ]
                ], 
                [
                    76560, 
                    [
                        {
                            "pitch": 44, 
                            "t0": 76560, 
                            "v": 88, 
                            "dur": 57, 
                            "type": "note", 
                            "channel": 9
                        }, 
                        {
                            "pitch": 71, 
                            "t0": 76560, 
                            "v": 87, 
                            "dur": 60, 
                            "type": "note", 
                            "channel": 3
                        }, 
                        {
                            "pitch": 63, 
                            "t0": 76560, 
                            "parts": [
                                [
                                    76560, 
                                    120
                                ], 
                                [
                                    76560, 
                                    104
                                ], 
                                [
                                    76776, 
                                    0
                                ]
                            ], 
                            "v": 120, 
                            "dur": 216, 
                            "type": "note", 
                            "channel": 0
                        }
                    ]
                ], 
                [
                    76680, 
                    [
                        {
                            "pitch": 44, 
                            "t0": 76680, 
                            "v": 104, 
                            "dur": 57, 
                            "type": "note", 
                            "channel": 9
                        }, 
                        {
                            "pitch": 78, 
                            "t0": 76680, 
                            "v": 87, 
                            "dur": 60, 
                            "type": "note", 
                            "channel": 3
                        }
                    ]
                ], 
                [
                    76800, 
                    [
                        {
                            "pitch": 49, 
                            "t0": 76800, 
                            "v": 120, 
                            "dur": 57, 
                            "type": "note", 
                            "channel": 9
                        }, 
                        {
                            "pitch": 36, 
                            "t0": 76800, 
                            "v": 120, 
                            "dur": 57, 
                            "type": "note", 
                            "channel": 9
                        }, 
                        {
                            "pitch": 40, 
                            "t0": 76800, 
                            "v": 104, 
                            "dur": 216, 
                            "type": "note", 
                            "channel": 6
                        }, 
                        {
                            "pitch": 76, 
                            "t0": 76800, 
                            "parts": [
                                [
                                    76800, 
                                    88
                                ], 
                                [
                                    77040, 
                                    84
                                ], 
                                [
                                    77100, 
                                    0
                                ]
                            ], 
                            "v": 88, 
                            "dur": 300, 
                            "type": "note", 
                            "channel": 4
                        }, 
                        {
                            "pitch": 71, 
                            "t0": 76800, 
                            "parts": [
                                [
                                    76800, 
                                    88
                                ], 
                                [
                                    77160, 
                                    84
                                ], 
                                [
                                    77220, 
                                    0
                                ]
                            ], 
                            "v": 88, 
                            "dur": 420, 
                            "type": "note", 
                            "channel": 4
                        }, 
                        {
                            "pitch": 64, 
                            "t0": 76800, 
                            "parts": [
                                [
                                    76800, 
                                    120
                                ], 
                                [
                                    76800, 
                                    88
                                ], 
                                [
                                    76800, 
                                    104
                                ], 
                                [
                                    77232, 
                                    0
                                ]
                            ], 
                            "v": 120, 
                            "dur": 432, 
                            "type": "note", 
                            "channel": 0
                        }, 
                        {
                            "pitch": 59, 
                            "t0": 76800, 
                            "parts": [
                                [
                                    76800, 
                                    88
                                ], 
                                [
                                    77280, 
                                    120
                                ], 
                                [
                                    77496, 
                                    0
                                ]
                            ], 
                            "v": 88, 
                            "dur": 696, 
                            "type": "note", 
                            "channel": 4
                        }, 
                        {
                            "pitch": 68, 
                            "t0": 76800, 
                            "parts": [
                                [
                                    76800, 
                                    88
                                ], 
                                [
                                    77520, 
                                    120
                                ], 
                                [
                                    77520, 
                                    104
                                ], 
                                [
                                    77736, 
                                    0
                                ]
                            ], 
                            "v": 88, 
                            "dur": 936, 
                            "type": "note", 
                            "channel": 4
                        }, 
                        {
                            "pitch": 54, 
                            "t0": 76800, 
                            "v": 88, 
                            "dur": 1824, 
                            "type": "note", 
                            "channel": 4
                        }
                    ]
                ], 
                [
                    76920, 
                    [
                        {
                            "pitch": 44, 
                            "t0": 76920, 
                            "v": 104, 
                            "dur": 57, 
                            "type": "note", 
                            "channel": 9
                        }, 
                        {
                            "pitch": 78, 
                            "t0": 76920, 
                            "v": 84, 
                            "dur": 60, 
                            "type": "note", 
                            "channel": 3
                        }
                    ]
                ], 
                [
                    77040, 
                    [
                        {
                            "pitch": 44, 
                            "t0": 77040, 
                            "v": 88, 
                            "dur": 57, 
                            "type": "note", 
                            "channel": 9
                        }
                    ]
                ], 
                [
                    77160, 
                    [
                        {
                            "pitch": 44, 
                            "t0": 77160, 
                            "v": 104, 
                            "dur": 57, 
                            "type": "note", 
                            "channel": 9
                        }, 
                        {
                            "pitch": 36, 
                            "t0": 77160, 
                            "v": 104, 
                            "dur": 57, 
                            "type": "note", 
                            "channel": 9
                        }, 
                        {
                            "pitch": 40, 
                            "t0": 77160, 
                            "v": 104, 
                            "dur": 108, 
                            "type": "note", 
                            "channel": 6
                        }
                    ]
                ], 
                [
                    77280, 
                    [
                        {
                            "pitch": 44, 
                            "t0": 77280, 
                            "v": 104, 
                            "dur": 57, 
                            "type": "note", 
                            "channel": 9
                        }, 
                        {
                            "pitch": 78, 
                            "t0": 77280, 
                            "v": 84, 
                            "dur": 60, 
                            "type": "note", 
                            "channel": 3
                        }, 
                        {
                            "pitch": 64, 
                            "t0": 77280, 
                            "parts": [
                                [
                                    77280, 
                                    120
                                ], 
                                [
                                    77280, 
                                    104
                                ], 
                                [
                                    77508, 
                                    0
                                ]
                            ], 
                            "v": 120, 
                            "dur": 228, 
                            "type": "note", 
                            "channel": 0
                        }
                    ]
                ], 
                [
                    77400, 
                    [
                        {
                            "pitch": 44, 
                            "t0": 77400, 
                            "v": 104, 
                            "dur": 57, 
                            "type": "note", 
                            "channel": 9
                        }, 
                        {
                            "pitch": 76, 
                            "t0": 77400, 
                            "v": 84, 
                            "dur": 60, 
                            "type": "note", 
                            "channel": 3
                        }
                    ]
                ], 
                [
                    77520, 
                    [
                        {
                            "pitch": 44, 
                            "t0": 77520, 
                            "v": 88, 
                            "dur": 57, 
                            "type": "note", 
                            "channel": 9
                        }, 
                        {
                            "pitch": 71, 
                            "t0": 77520, 
                            "v": 84, 
                            "dur": 60, 
                            "type": "note", 
                            "channel": 3
                        }
                    ]
                ], 
                [
                    77640, 
                    [
                        {
                            "pitch": 37, 
                            "t0": 77640, 
                            "v": 104, 
                            "dur": 57, 
                            "type": "note", 
                            "channel": 9
                        }, 
                        {
                            "pitch": 44, 
                            "t0": 77640, 
                            "v": 104, 
                            "dur": 57, 
                            "type": "note", 
                            "channel": 9
                        }, 
                        {
                            "pitch": 78, 
                            "t0": 77640, 
                            "v": 84, 
                            "dur": 60, 
                            "type": "note", 
                            "channel": 3
                        }
                    ]
                ], 
                [
                    77760, 
                    [
                        {
                            "pitch": 44, 
                            "t0": 77760, 
                            "v": 104, 
                            "dur": 57, 
                            "type": "note", 
                            "channel": 9
                        }, 
                        {
                            "pitch": 36, 
                            "t0": 77760, 
                            "v": 120, 
                            "dur": 57, 
                            "type": "note", 
                            "channel": 9
                        }, 
                        {
                            "pitch": 40, 
                            "t0": 77760, 
                            "v": 104, 
                            "dur": 108, 
                            "type": "note", 
                            "channel": 6
                        }, 
                        {
                            "pitch": 69, 
                            "t0": 77760, 
                            "parts": [
                                [
                                    77760, 
                                    120
                                ], 
                                [
                                    77760, 
                                    104
                                ], 
                                [
                                    77976, 
                                    0
                                ]
                            ], 
                            "v": 120, 
                            "dur": 216, 
                            "type": "note", 
                            "channel": 0
                        }
                    ]
                ], 
                [
                    77880, 
                    [
                        {
                            "pitch": 44, 
                            "t0": 77880, 
                            "v": 104, 
                            "dur": 57, 
                            "type": "note", 
                            "channel": 9
                        }, 
                        {
                            "pitch": 36, 
                            "t0": 77880, 
                            "v": 104, 
                            "dur": 57, 
                            "type": "note", 
                            "channel": 9
                        }, 
                        {
                            "pitch": 78, 
                            "t0": 77880, 
                            "v": 84, 
                            "dur": 60, 
                            "type": "note", 
                            "channel": 3
                        }, 
                        {
                            "pitch": 40, 
                            "t0": 77880, 
                            "v": 104, 
                            "dur": 108, 
                            "type": "note", 
                            "channel": 6
                        }
                    ]
                ], 
                [
                    78000, 
                    [
                        {
                            "pitch": 44, 
                            "t0": 78000, 
                            "v": 88, 
                            "dur": 57, 
                            "type": "note", 
                            "channel": 9
                        }, 
                        {
                            "pitch": 76, 
                            "t0": 78000, 
                            "v": 84, 
                            "dur": 60, 
                            "type": "note", 
                            "channel": 3
                        }, 
                        {
                            "pitch": 71, 
                            "t0": 78000, 
                            "parts": [
                                [
                                    78000, 
                                    120
                                ], 
                                [
                                    78000, 
                                    104
                                ], 
                                [
                                    78120, 
                                    84
                                ], 
                                [
                                    78180, 
                                    0
                                ]
                            ], 
                            "v": 120, 
                            "dur": 180, 
                            "type": "note", 
                            "channel": 0
                        }, 
                        {
                            "pitch": 59, 
                            "t0": 78000, 
                            "v": 120, 
                            "dur": 216, 
                            "type": "note", 
                            "channel": 1
                        }
                    ]
                ], 
                [
                    78120, 
                    [
                        {
                            "pitch": 44, 
                            "t0": 78120, 
                            "v": 104, 
                            "dur": 57, 
                            "type": "note", 
                            "channel": 9
                        }, 
                        {
                            "pitch": 36, 
                            "t0": 78120, 
                            "v": 104, 
                            "dur": 57, 
                            "type": "note", 
                            "channel": 9
                        }, 
                        {
                            "pitch": 40, 
                            "t0": 78120, 
                            "v": 104, 
                            "dur": 108, 
                            "type": "note", 
                            "channel": 6
                        }
                    ]
                ], 
                [
                    78240, 
                    [
                        {
                            "pitch": 38, 
                            "t0": 78240, 
                            "v": 120, 
                            "dur": 57, 
                            "type": "note", 
                            "channel": 9
                        }, 
                        {
                            "pitch": 44, 
                            "t0": 78240, 
                            "v": 104, 
                            "dur": 57, 
                            "type": "note", 
                            "channel": 9
                        }, 
                        {
                            "pitch": 78, 
                            "t0": 78240, 
                            "v": 84, 
                            "dur": 60, 
                            "type": "note", 
                            "channel": 3
                        }, 
                        {
                            "pitch": 75, 
                            "t0": 78240, 
                            "parts": [
                                [
                                    78240, 
                                    120
                                ], 
                                [
                                    78240, 
                                    104
                                ], 
                                [
                                    78456, 
                                    0
                                ]
                            ], 
                            "v": 120, 
                            "dur": 216, 
                            "type": "note", 
                            "channel": 0
                        }
                    ]
                ], 
                [
                    78360, 
                    [
                        {
                            "pitch": 44, 
                            "t0": 78360, 
                            "v": 104, 
                            "dur": 57, 
                            "type": "note", 
                            "channel": 9
                        }, 
                        {
                            "pitch": 76, 
                            "t0": 78360, 
                            "v": 84, 
                            "dur": 60, 
                            "type": "note", 
                            "channel": 3
                        }
                    ]
                ], 
                [
                    78480, 
                    [
                        {
                            "pitch": 44, 
                            "t0": 78480, 
                            "v": 88, 
                            "dur": 57, 
                            "type": "note", 
                            "channel": 9
                        }, 
                        {
                            "pitch": 71, 
                            "t0": 78480, 
                            "v": 84, 
                            "dur": 60, 
                            "type": "note", 
                            "channel": 3
                        }, 
                        {
                            "pitch": 76, 
                            "t0": 78480, 
                            "parts": [
                                [
                                    78480, 
                                    120
                                ], 
                                [
                                    78480, 
                                    104
                                ], 
                                [
                                    78624, 
                                    0
                                ]
                            ], 
                            "v": 120, 
                            "dur": 144, 
                            "type": "note", 
                            "channel": 0
                        }, 
                        {
                            "pitch": 59, 
                            "t0": 78480, 
                            "v": 120, 
                            "dur": 144, 
                            "type": "note", 
                            "channel": 1
                        }
                    ]
                ], 
                [
                    78600, 
                    [
                        {
                            "pitch": 44, 
                            "t0": 78600, 
                            "v": 104, 
                            "dur": 57, 
                            "type": "note", 
                            "channel": 9
                        }, 
                        {
                            "pitch": 78, 
                            "t0": 78600, 
                            "v": 84, 
                            "dur": 60, 
                            "type": "note", 
                            "channel": 3
                        }
                    ]
                ], 
                [
                    78720, 
                    [
                        {
                            "pitch": 44, 
                            "t0": 78720, 
                            "v": 104, 
                            "dur": 57, 
                            "type": "note", 
                            "channel": 9
                        }, 
                        {
                            "pitch": 36, 
                            "t0": 78720, 
                            "v": 120, 
                            "dur": 57, 
                            "type": "note", 
                            "channel": 9
                        }, 
                        {
                            "pitch": 40, 
                            "t0": 78720, 
                            "v": 104, 
                            "dur": 216, 
                            "type": "note", 
                            "channel": 6
                        }, 
                        {
                            "pitch": 76, 
                            "t0": 78720, 
                            "parts": [
                                [
                                    78720, 
                                    88
                                ], 
                                [
                                    78960, 
                                    84
                                ], 
                                [
                                    79020, 
                                    0
                                ]
                            ], 
                            "v": 88, 
                            "dur": 300, 
                            "type": "note", 
                            "channel": 4
                        }, 
                        {
                            "pitch": 71, 
                            "t0": 78720, 
                            "parts": [
                                [
                                    78720, 
                                    120
                                ], 
                                [
                                    78720, 
                                    88
                                ], 
                                [
                                    78720, 
                                    104
                                ], 
                                [
                                    79080, 
                                    84
                                ], 
                                [
                                    79140, 
                                    0
                                ]
                            ], 
                            "v": 120, 
                            "dur": 420, 
                            "type": "note", 
                            "channel": 0
                        }, 
                        {
                            "pitch": 54, 
                            "t0": 78720, 
                            "v": 88, 
                            "dur": 912, 
                            "type": "note", 
                            "channel": 4
                        }, 
                        {
                            "pitch": 64, 
                            "t0": 78720, 
                            "v": 88, 
                            "dur": 912, 
                            "type": "note", 
                            "channel": 4
                        }, 
                        {
                            "pitch": 68, 
                            "t0": 78720, 
                            "v": 88, 
                            "dur": 912, 
                            "type": "note", 
                            "channel": 4
                        }, 
                        {
                            "pitch": 59, 
                            "t0": 78720, 
                            "parts": [
                                [
                                    78720, 
                                    88
                                ], 
                                [
                                    79440, 
                                    120
                                ], 
                                [
                                    79632, 
                                    0
                                ]
                            ], 
                            "v": 88, 
                            "dur": 912, 
                            "type": "note", 
                            "channel": 4
                        }
                    ]
                ], 
                [
                    78840, 
                    [
                        {
                            "pitch": 44, 
                            "t0": 78840, 
                            "v": 104, 
                            "dur": 57, 
                            "type": "note", 
                            "channel": 9
                        }, 
                        {
                            "pitch": 78, 
                            "t0": 78840, 
                            "v": 84, 
                            "dur": 60, 
                            "type": "note", 
                            "channel": 3
                        }
                    ]
                ], 
                [
                    78960, 
                    [
                        {
                            "pitch": 44, 
                            "t0": 78960, 
                            "v": 88, 
                            "dur": 57, 
                            "type": "note", 
                            "channel": 9
                        }
                    ]
                ], 
                [
                    79080, 
                    [
                        {
                            "pitch": 44, 
                            "t0": 79080, 
                            "v": 104, 
                            "dur": 57, 
                            "type": "note", 
                            "channel": 9
                        }, 
                        {
                            "pitch": 36, 
                            "t0": 79080, 
                            "v": 104, 
                            "dur": 57, 
                            "type": "note", 
                            "channel": 9
                        }, 
                        {
                            "pitch": 40, 
                            "t0": 79080, 
                            "v": 104, 
                            "dur": 108, 
                            "type": "note", 
                            "channel": 6
                        }
                    ]
                ], 
                [
                    79200, 
                    [
                        {
                            "pitch": 44, 
                            "t0": 79200, 
                            "v": 104, 
                            "dur": 57, 
                            "type": "note", 
                            "channel": 9
                        }, 
                        {
                            "pitch": 78, 
                            "t0": 79200, 
                            "v": 84, 
                            "dur": 60, 
                            "type": "note", 
                            "channel": 3
                        }, 
                        {
                            "pitch": 75, 
                            "t0": 79200, 
                            "parts": [
                                [
                                    79200, 
                                    120
                                ], 
                                [
                                    79200, 
                                    104
                                ], 
                                [
                                    79416, 
                                    0
                                ]
                            ], 
                            "v": 120, 
                            "dur": 216, 
                            "type": "note", 
                            "channel": 0
                        }
                    ]
                ], 
                [
                    79320, 
                    [
                        {
                            "pitch": 44, 
                            "t0": 79320, 
                            "v": 104, 
                            "dur": 57, 
                            "type": "note", 
                            "channel": 9
                        }, 
                        {
                            "pitch": 76, 
                            "t0": 79320, 
                            "v": 85, 
                            "dur": 60, 
                            "type": "note", 
                            "channel": 3
                        }
                    ]
                ], 
                [
                    79440, 
                    [
                        {
                            "pitch": 44, 
                            "t0": 79440, 
                            "v": 88, 
                            "dur": 57, 
                            "type": "note", 
                            "channel": 9
                        }, 
                        {
                            "pitch": 71, 
                            "t0": 79440, 
                            "v": 85, 
                            "dur": 60, 
                            "type": "note", 
                            "channel": 3
                        }, 
                        {
                            "pitch": 76, 
                            "t0": 79440, 
                            "parts": [
                                [
                                    79440, 
                                    120
                                ], 
                                [
                                    79440, 
                                    104
                                ], 
                                [
                                    79632, 
                                    0
                                ]
                            ], 
                            "v": 120, 
                            "dur": 192, 
                            "type": "note", 
                            "channel": 0
                        }
                    ]
                ], 
                [
                    79560, 
                    [
                        {
                            "pitch": 37, 
                            "t0": 79560, 
                            "v": 104, 
                            "dur": 57, 
                            "type": "note", 
                            "channel": 9
                        }, 
                        {
                            "pitch": 44, 
                            "t0": 79560, 
                            "v": 104, 
                            "dur": 57, 
                            "type": "note", 
                            "channel": 9
                        }, 
                        {
                            "pitch": 78, 
                            "t0": 79560, 
                            "v": 85, 
                            "dur": 60, 
                            "type": "note", 
                            "channel": 3
                        }
                    ]
                ], 
                [
                    79680, 
                    [
                        {
                            "pitch": 44, 
                            "t0": 79680, 
                            "v": 104, 
                            "dur": 57, 
                            "type": "note", 
                            "channel": 9
                        }, 
                        {
                            "pitch": 36, 
                            "t0": 79680, 
                            "v": 120, 
                            "dur": 57, 
                            "type": "note", 
                            "channel": 9
                        }, 
                        {
                            "pitch": 48, 
                            "t0": 79680, 
                            "v": 104, 
                            "dur": 108, 
                            "type": "note", 
                            "channel": 6
                        }, 
                        {
                            "pitch": 69, 
                            "t0": 79680, 
                            "parts": [
                                [
                                    79680, 
                                    120
                                ], 
                                [
                                    79680, 
                                    88
                                ], 
                                [
                                    79680, 
                                    104
                                ], 
                                [
                                    80112, 
                                    0
                                ]
                            ], 
                            "v": 120, 
                            "dur": 432, 
                            "type": "note", 
                            "channel": 0
                        }, 
                        {
                            "pitch": 76, 
                            "t0": 79680, 
                            "v": 88, 
                            "dur": 912, 
                            "type": "note", 
                            "channel": 4
                        }, 
                        {
                            "pitch": 71, 
                            "t0": 79680, 
                            "v": 88, 
                            "dur": 912, 
                            "type": "note", 
                            "channel": 4
                        }, 
                        {
                            "pitch": 60, 
                            "t0": 79680, 
                            "v": 88, 
                            "dur": 912, 
                            "type": "note", 
                            "channel": 4
                        }, 
                        {
                            "pitch": 64, 
                            "t0": 79680, 
                            "v": 88, 
                            "dur": 912, 
                            "type": "note", 
                            "channel": 4
                        }
                    ]
                ], 
                [
                    79800, 
                    [
                        {
                            "pitch": 44, 
                            "t0": 79800, 
                            "v": 104, 
                            "dur": 57, 
                            "type": "note", 
                            "channel": 9
                        }, 
                        {
                            "pitch": 36, 
                            "t0": 79800, 
                            "v": 104, 
                            "dur": 57, 
                            "type": "note", 
                            "channel": 9
                        }, 
                        {
                            "pitch": 81, 
                            "t0": 79800, 
                            "v": 85, 
                            "dur": 60, 
                            "type": "note", 
                            "channel": 3
                        }, 
                        {
                            "pitch": 48, 
                            "t0": 79800, 
                            "v": 104, 
                            "dur": 108, 
                            "type": "note", 
                            "channel": 6
                        }
                    ]
                ], 
                [
                    79920, 
                    [
                        {
                            "pitch": 44, 
                            "t0": 79920, 
                            "v": 88, 
                            "dur": 57, 
                            "type": "note", 
                            "channel": 9
                        }, 
                        {
                            "pitch": 80, 
                            "t0": 79920, 
                            "v": 85, 
                            "dur": 60, 
                            "type": "note", 
                            "channel": 3
                        }
                    ]
                ], 
                [
                    80040, 
                    [
                        {
                            "pitch": 44, 
                            "t0": 80040, 
                            "v": 104, 
                            "dur": 57, 
                            "type": "note", 
                            "channel": 9
                        }, 
                        {
                            "pitch": 36, 
                            "t0": 80040, 
                            "v": 104, 
                            "dur": 57, 
                            "type": "note", 
                            "channel": 9
                        }, 
                        {
                            "pitch": 72, 
                            "t0": 80040, 
                            "v": 85, 
                            "dur": 60, 
                            "type": "note", 
                            "channel": 3
                        }, 
                        {
                            "pitch": 48, 
                            "t0": 80040, 
                            "v": 104, 
                            "dur": 108, 
                            "type": "note", 
                            "channel": 6
                        }
                    ]
                ], 
                [
                    80160, 
                    [
                        {
                            "pitch": 38, 
                            "t0": 80160, 
                            "v": 120, 
                            "dur": 57, 
                            "type": "note", 
                            "channel": 9
                        }, 
                        {
                            "pitch": 44, 
                            "t0": 80160, 
                            "v": 104, 
                            "dur": 57, 
                            "type": "note", 
                            "channel": 9
                        }, 
                        {
                            "pitch": 81, 
                            "t0": 80160, 
                            "v": 85, 
                            "dur": 60, 
                            "type": "note", 
                            "channel": 3
                        }, 
                        {
                            "pitch": 68, 
                            "t0": 80160, 
                            "parts": [
                                [
                                    80160, 
                                    120
                                ], 
                                [
                                    80160, 
                                    104
                                ], 
                                [
                                    80376, 
                                    0
                                ]
                            ], 
                            "v": 120, 
                            "dur": 216, 
                            "type": "note", 
                            "channel": 0
                        }
                    ]
                ], 
                [
                    80280, 
                    [
                        {
                            "pitch": 44, 
                            "t0": 80280, 
                            "v": 104, 
                            "dur": 57, 
                            "type": "note", 
                            "channel": 9
                        }, 
                        {
                            "pitch": 80, 
                            "t0": 80280, 
                            "v": 85, 
                            "dur": 60, 
                            "type": "note", 
                            "channel": 3
                        }
                    ]
                ], 
                [
                    80400, 
                    [
                        {
                            "pitch": 44, 
                            "t0": 80400, 
                            "v": 88, 
                            "dur": 57, 
                            "type": "note", 
                            "channel": 9
                        }, 
                        {
                            "pitch": 72, 
                            "t0": 80400, 
                            "v": 85, 
                            "dur": 60, 
                            "type": "note", 
                            "channel": 3
                        }, 
                        {
                            "pitch": 69, 
                            "t0": 80400, 
                            "parts": [
                                [
                                    80400, 
                                    120
                                ], 
                                [
                                    80400, 
                                    104
                                ], 
                                [
                                    80592, 
                                    0
                                ]
                            ], 
                            "v": 120, 
                            "dur": 192, 
                            "type": "note", 
                            "channel": 0
                        }
                    ]
                ], 
                [
                    80520, 
                    [
                        {
                            "pitch": 44, 
                            "t0": 80520, 
                            "v": 104, 
                            "dur": 57, 
                            "type": "note", 
                            "channel": 9
                        }, 
                        {
                            "pitch": 81, 
                            "t0": 80520, 
                            "v": 85, 
                            "dur": 60, 
                            "type": "note", 
                            "channel": 3
                        }
                    ]
                ], 
                [
                    80640, 
                    [
                        {
                            "pitch": 44, 
                            "t0": 80640, 
                            "v": 104, 
                            "dur": 57, 
                            "type": "note", 
                            "channel": 9
                        }, 
                        {
                            "pitch": 36, 
                            "t0": 80640, 
                            "v": 120, 
                            "dur": 57, 
                            "type": "note", 
                            "channel": 9
                        }, 
                        {
                            "pitch": 47, 
                            "t0": 80640, 
                            "v": 104, 
                            "dur": 108, 
                            "type": "note", 
                            "channel": 6
                        }, 
                        {
                            "pitch": 66, 
                            "t0": 80640, 
                            "parts": [
                                [
                                    80640, 
                                    120
                                ], 
                                [
                                    80640, 
                                    88
                                ], 
                                [
                                    80640, 
                                    104
                                ], 
                                [
                                    80856, 
                                    0
                                ]
                            ], 
                            "v": 120, 
                            "dur": 216, 
                            "type": "note", 
                            "channel": 0
                        }, 
                        {
                            "pitch": 78, 
                            "t0": 80640, 
                            "parts": [
                                [
                                    80640, 
                                    88
                                ], 
                                [
                                    80880, 
                                    85
                                ], 
                                [
                                    80940, 
                                    0
                                ]
                            ], 
                            "v": 88, 
                            "dur": 300, 
                            "type": "note", 
                            "channel": 4
                        }, 
                        {
                            "pitch": 71, 
                            "t0": 80640, 
                            "parts": [
                                [
                                    80640, 
                                    88
                                ], 
                                [
                                    80880, 
                                    120
                                ], 
                                [
                                    81096, 
                                    0
                                ]
                            ], 
                            "v": 88, 
                            "dur": 456, 
                            "type": "note", 
                            "channel": 4
                        }, 
                        {
                            "pitch": 73, 
                            "t0": 80640, 
                            "v": 88, 
                            "dur": 912, 
                            "type": "note", 
                            "channel": 4
                        }
                    ]
                ], 
                [
                    80760, 
                    [
                        {
                            "pitch": 44, 
                            "t0": 80760, 
                            "v": 104, 
                            "dur": 57, 
                            "type": "note", 
                            "channel": 9
                        }, 
                        {
                            "pitch": 36, 
                            "t0": 80760, 
                            "v": 104, 
                            "dur": 57, 
                            "type": "note", 
                            "channel": 9
                        }, 
                        {
                            "pitch": 83, 
                            "t0": 80760, 
                            "v": 85, 
                            "dur": 60, 
                            "type": "note", 
                            "channel": 3
                        }, 
                        {
                            "pitch": 47, 
                            "t0": 80760, 
                            "v": 104, 
                            "dur": 108, 
                            "type": "note", 
                            "channel": 6
                        }
                    ]
                ], 
                [
                    80880, 
                    [
                        {
                            "pitch": 44, 
                            "t0": 80880, 
                            "v": 88, 
                            "dur": 57, 
                            "type": "note", 
                            "channel": 9
                        }, 
                        {
                            "pitch": 64, 
                            "t0": 80880, 
                            "parts": [
                                [
                                    80880, 
                                    120
                                ], 
                                [
                                    80880, 
                                    104
                                ], 
                                [
                                    81108, 
                                    0
                                ]
                            ], 
                            "v": 120, 
                            "dur": 228, 
                            "type": "note", 
                            "channel": 0
                        }
                    ]
                ], 
                [
                    81000, 
                    [
                        {
                            "pitch": 44, 
                            "t0": 81000, 
                            "v": 104, 
                            "dur": 57, 
                            "type": "note", 
                            "channel": 9
                        }, 
                        {
                            "pitch": 36, 
                            "t0": 81000, 
                            "v": 104, 
                            "dur": 57, 
                            "type": "note", 
                            "channel": 9
                        }, 
                        {
                            "pitch": 75, 
                            "t0": 81000, 
                            "v": 85, 
                            "dur": 60, 
                            "type": "note", 
                            "channel": 3
                        }, 
                        {
                            "pitch": 47, 
                            "t0": 81000, 
                            "v": 104, 
                            "dur": 108, 
                            "type": "note", 
                            "channel": 6
                        }
                    ]
                ], 
                [
                    81120, 
                    [
                        {
                            "pitch": 38, 
                            "t0": 81120, 
                            "v": 120, 
                            "dur": 57, 
                            "type": "note", 
                            "channel": 9
                        }, 
                        {
                            "pitch": 44, 
                            "t0": 81120, 
                            "v": 104, 
                            "dur": 57, 
                            "type": "note", 
                            "channel": 9
                        }, 
                        {
                            "pitch": 83, 
                            "t0": 81120, 
                            "v": 85, 
                            "dur": 60, 
                            "type": "note", 
                            "channel": 3
                        }, 
                        {
                            "pitch": 63, 
                            "t0": 81120, 
                            "parts": [
                                [
                                    81120, 
                                    120
                                ], 
                                [
                                    81120, 
                                    104
                                ], 
                                [
                                    81336, 
                                    0
                                ]
                            ], 
                            "v": 120, 
                            "dur": 216, 
                            "type": "note", 
                            "channel": 0
                        }
                    ]
                ], 
                [
                    81240, 
                    [
                        {
                            "pitch": 44, 
                            "t0": 81240, 
                            "v": 104, 
                            "dur": 57, 
                            "type": "note", 
                            "channel": 9
                        }, 
                        {
                            "pitch": 78, 
                            "t0": 81240, 
                            "v": 85, 
                            "dur": 60, 
                            "type": "note", 
                            "channel": 3
                        }
                    ]
                ], 
                [
                    81360, 
                    [
                        {
                            "pitch": 44, 
                            "t0": 81360, 
                            "v": 88, 
                            "dur": 57, 
                            "type": "note", 
                            "channel": 9
                        }, 
                        {
                            "pitch": 75, 
                            "t0": 81360, 
                            "v": 85, 
                            "dur": 60, 
                            "type": "note", 
                            "channel": 3
                        }, 
                        {
                            "pitch": 66, 
                            "t0": 81360, 
                            "parts": [
                                [
                                    81360, 
                                    120
                                ], 
                                [
                                    81360, 
                                    104
                                ], 
                                [
                                    81552, 
                                    0
                                ]
                            ], 
                            "v": 120, 
                            "dur": 192, 
                            "type": "note", 
                            "channel": 0
                        }
                    ]
                ], 
                [
                    81480, 
                    [
                        {
                            "pitch": 44, 
                            "t0": 81480, 
                            "v": 104, 
                            "dur": 57, 
                            "type": "note", 
                            "channel": 9
                        }, 
                        {
                            "pitch": 83, 
                            "t0": 81480, 
                            "v": 87, 
                            "dur": 60, 
                            "type": "note", 
                            "channel": 3
                        }
                    ]
                ], 
                [
                    81600, 
                    [
                        {
                            "pitch": 44, 
                            "t0": 81600, 
                            "v": 104, 
                            "dur": 57, 
                            "type": "note", 
                            "channel": 9
                        }, 
                        {
                            "pitch": 36, 
                            "t0": 81600, 
                            "v": 120, 
                            "dur": 57, 
                            "type": "note", 
                            "channel": 9
                        }, 
                        {
                            "pitch": 40, 
                            "t0": 81600, 
                            "v": 104, 
                            "dur": 216, 
                            "type": "note", 
                            "channel": 6
                        }, 
                        {
                            "pitch": 76, 
                            "t0": 81600, 
                            "parts": [
                                [
                                    81600, 
                                    88
                                ], 
                                [
                                    81840, 
                                    87
                                ], 
                                [
                                    81900, 
                                    0
                                ]
                            ], 
                            "v": 88, 
                            "dur": 300, 
                            "type": "note", 
                            "channel": 4
                        }, 
                        {
                            "pitch": 54, 
                            "t0": 81600, 
                            "v": 88, 
                            "dur": 312, 
                            "type": "note", 
                            "channel": 4
                        }, 
                        {
                            "pitch": 64, 
                            "t0": 81600, 
                            "parts": [
                                [
                                    81600, 
                                    120
                                ], 
                                [
                                    81600, 
                                    88
                                ], 
                                [
                                    81600, 
                                    104
                                ], 
                                [
                                    81912, 
                                    0
                                ]
                            ], 
                            "v": 120, 
                            "dur": 312, 
                            "type": "note", 
                            "channel": 0
                        }, 
                        {
                            "pitch": 59, 
                            "t0": 81600, 
                            "v": 88, 
                            "dur": 312, 
                            "type": "note", 
                            "channel": 4
                        }, 
                        {
                            "pitch": 68, 
                            "t0": 81600, 
                            "v": 88, 
                            "dur": 312, 
                            "type": "note", 
                            "channel": 4
                        }, 
                        {
                            "pitch": 71, 
                            "t0": 81600, 
                            "v": 88, 
                            "dur": 312, 
                            "type": "note", 
                            "channel": 4
                        }
                    ]
                ], 
                [
                    81720, 
                    [
                        {
                            "pitch": 44, 
                            "t0": 81720, 
                            "v": 104, 
                            "dur": 57, 
                            "type": "note", 
                            "channel": 9
                        }, 
                        {
                            "pitch": 78, 
                            "t0": 81720, 
                            "v": 87, 
                            "dur": 60, 
                            "type": "note", 
                            "channel": 3
                        }
                    ]
                ], 
                [
                    81840, 
                    [
                        {
                            "pitch": 44, 
                            "t0": 81840, 
                            "v": 88, 
                            "dur": 57, 
                            "type": "note", 
                            "channel": 9
                        }
                    ]
                ], 
                [
                    81960, 
                    [
                        {
                            "pitch": 44, 
                            "t0": 81960, 
                            "v": 104, 
                            "dur": 57, 
                            "type": "note", 
                            "channel": 9
                        }, 
                        {
                            "pitch": 36, 
                            "t0": 81960, 
                            "v": 104, 
                            "dur": 57, 
                            "type": "note", 
                            "channel": 9
                        }, 
                        {
                            "pitch": 71, 
                            "t0": 81960, 
                            "parts": [
                                [
                                    81960, 
                                    87
                                ], 
                                [
                                    81960, 
                                    88
                                ], 
                                [
                                    82020, 
                                    0
                                ]
                            ], 
                            "v": 87, 
                            "dur": 60, 
                            "type": "note", 
                            "channel": 3
                        }, 
                        {
                            "pitch": 64, 
                            "t0": 81960, 
                            "v": 88, 
                            "dur": 72, 
                            "type": "note", 
                            "channel": 4
                        }, 
                        {
                            "pitch": 40, 
                            "t0": 81960, 
                            "v": 104, 
                            "dur": 108, 
                            "type": "note", 
                            "channel": 6
                        }, 
                        {
                            "pitch": 54, 
                            "t0": 81960, 
                            "v": 88, 
                            "dur": 176, 
                            "type": "note", 
                            "channel": 4
                        }, 
                        {
                            "pitch": 76, 
                            "t0": 81960, 
                            "v": 88, 
                            "dur": 176, 
                            "type": "note", 
                            "channel": 4
                        }, 
                        {
                            "pitch": 68, 
                            "t0": 81960, 
                            "v": 88, 
                            "dur": 176, 
                            "type": "note", 
                            "channel": 4
                        }, 
                        {
                            "pitch": 59, 
                            "t0": 81960, 
                            "parts": [
                                [
                                    81960, 
                                    88
                                ], 
                                [
                                    82080, 
                                    120
                                ], 
                                [
                                    82136, 
                                    0
                                ]
                            ], 
                            "v": 88, 
                            "dur": 176, 
                            "type": "note", 
                            "channel": 4
                        }
                    ]
                ], 
                [
                    82080, 
                    [
                        {
                            "pitch": 44, 
                            "t0": 82080, 
                            "v": 104, 
                            "dur": 57, 
                            "type": "note", 
                            "channel": 9
                        }, 
                        {
                            "pitch": 78, 
                            "t0": 82080, 
                            "v": 87, 
                            "dur": 60, 
                            "type": "note", 
                            "channel": 3
                        }
                    ]
                ], 
                [
                    82200, 
                    [
                        {
                            "pitch": 44, 
                            "t0": 82200, 
                            "v": 104, 
                            "dur": 57, 
                            "type": "note", 
                            "channel": 9
                        }, 
                        {
                            "pitch": 76, 
                            "t0": 82200, 
                            "parts": [
                                [
                                    82200, 
                                    87
                                ], 
                                [
                                    82200, 
                                    88
                                ], 
                                [
                                    82260, 
                                    0
                                ]
                            ], 
                            "v": 87, 
                            "dur": 60, 
                            "type": "note", 
                            "channel": 3
                        }, 
                        {
                            "pitch": 54, 
                            "t0": 82200, 
                            "v": 88, 
                            "dur": 80, 
                            "type": "note", 
                            "channel": 4
                        }, 
                        {
                            "pitch": 64, 
                            "t0": 82200, 
                            "v": 88, 
                            "dur": 80, 
                            "type": "note", 
                            "channel": 4
                        }, 
                        {
                            "pitch": 68, 
                            "t0": 82200, 
                            "v": 88, 
                            "dur": 80, 
                            "type": "note", 
                            "channel": 4
                        }, 
                        {
                            "pitch": 71, 
                            "t0": 82200, 
                            "v": 88, 
                            "dur": 80, 
                            "type": "note", 
                            "channel": 4
                        }, 
                        {
                            "pitch": 59, 
                            "t0": 82200, 
                            "v": 88, 
                            "dur": 80, 
                            "type": "note", 
                            "channel": 4
                        }
                    ]
                ], 
                [
                    82320, 
                    [
                        {
                            "pitch": 44, 
                            "t0": 82320, 
                            "v": 88, 
                            "dur": 57, 
                            "type": "note", 
                            "channel": 9
                        }, 
                        {
                            "pitch": 71, 
                            "t0": 82320, 
                            "parts": [
                                [
                                    82320, 
                                    87
                                ], 
                                [
                                    82320, 
                                    88
                                ], 
                                [
                                    82380, 
                                    0
                                ]
                            ], 
                            "v": 87, 
                            "dur": 60, 
                            "type": "note", 
                            "channel": 3
                        }, 
                        {
                            "pitch": 59, 
                            "t0": 82320, 
                            "v": 88, 
                            "dur": 192, 
                            "type": "note", 
                            "channel": 4
                        }, 
                        {
                            "pitch": 64, 
                            "t0": 82320, 
                            "v": 88, 
                            "dur": 192, 
                            "type": "note", 
                            "channel": 4
                        }, 
                        {
                            "pitch": 76, 
                            "t0": 82320, 
                            "v": 88, 
                            "dur": 312, 
                            "type": "note", 
                            "channel": 4
                        }, 
                        {
                            "pitch": 54, 
                            "t0": 82320, 
                            "v": 88, 
                            "dur": 312, 
                            "type": "note", 
                            "channel": 4
                        }, 
                        {
                            "pitch": 68, 
                            "t0": 82320, 
                            "v": 88, 
                            "dur": 312, 
                            "type": "note", 
                            "channel": 4
                        }
                    ]
                ], 
                [
                    82440, 
                    [
                        {
                            "pitch": 37, 
                            "t0": 82440, 
                            "v": 104, 
                            "dur": 57, 
                            "type": "note", 
                            "channel": 9
                        }, 
                        {
                            "pitch": 44, 
                            "t0": 82440, 
                            "v": 104, 
                            "dur": 57, 
                            "type": "note", 
                            "channel": 9
                        }, 
                        {
                            "pitch": 78, 
                            "t0": 82440, 
                            "v": 87, 
                            "dur": 60, 
                            "type": "note", 
                            "channel": 3
                        }
                    ]
                ], 
                [
                    82560, 
                    [
                        {
                            "pitch": 44, 
                            "t0": 82560, 
                            "v": 104, 
                            "dur": 57, 
                            "type": "note", 
                            "channel": 9
                        }, 
                        {
                            "pitch": 36, 
                            "t0": 82560, 
                            "v": 120, 
                            "dur": 57, 
                            "type": "note", 
                            "channel": 9
                        }, 
                        {
                            "pitch": 64, 
                            "t0": 82560, 
                            "v": 120, 
                            "dur": 72, 
                            "type": "note", 
                            "channel": 1
                        }, 
                        {
                            "pitch": 40, 
                            "t0": 82560, 
                            "v": 104, 
                            "dur": 108, 
                            "type": "note", 
                            "channel": 6
                        }
                    ]
                ], 
                [
                    82680, 
                    [
                        {
                            "pitch": 44, 
                            "t0": 82680, 
                            "v": 104, 
                            "dur": 57, 
                            "type": "note", 
                            "channel": 9
                        }, 
                        {
                            "pitch": 36, 
                            "t0": 82680, 
                            "v": 104, 
                            "dur": 57, 
                            "type": "note", 
                            "channel": 9
                        }, 
                        {
                            "pitch": 78, 
                            "t0": 82680, 
                            "v": 87, 
                            "dur": 60, 
                            "type": "note", 
                            "channel": 3
                        }, 
                        {
                            "pitch": 40, 
                            "t0": 82680, 
                            "v": 104, 
                            "dur": 108, 
                            "type": "note", 
                            "channel": 6
                        }, 
                        {
                            "pitch": 76, 
                            "t0": 82680, 
                            "parts": [
                                [
                                    82680, 
                                    88
                                ], 
                                [
                                    82800, 
                                    87
                                ], 
                                [
                                    82860, 
                                    0
                                ]
                            ], 
                            "v": 88, 
                            "dur": 180, 
                            "type": "note", 
                            "channel": 4
                        }, 
                        {
                            "pitch": 54, 
                            "t0": 82680, 
                            "v": 88, 
                            "dur": 192, 
                            "type": "note", 
                            "channel": 4
                        }, 
                        {
                            "pitch": 68, 
                            "t0": 82680, 
                            "v": 88, 
                            "dur": 192, 
                            "type": "note", 
                            "channel": 4
                        }, 
                        {
                            "pitch": 64, 
                            "t0": 82680, 
                            "v": 88, 
                            "dur": 192, 
                            "type": "note", 
                            "channel": 4
                        }, 
                        {
                            "pitch": 71, 
                            "t0": 82680, 
                            "v": 88, 
                            "dur": 192, 
                            "type": "note", 
                            "channel": 4
                        }, 
                        {
                            "pitch": 59, 
                            "t0": 82680, 
                            "v": 88, 
                            "dur": 192, 
                            "type": "note", 
                            "channel": 4
                        }
                    ]
                ], 
                [
                    82800, 
                    [
                        {
                            "pitch": 44, 
                            "t0": 82800, 
                            "v": 88, 
                            "dur": 57, 
                            "type": "note", 
                            "channel": 9
                        }
                    ]
                ], 
                [
                    82920, 
                    [
                        {
                            "pitch": 44, 
                            "t0": 82920, 
                            "v": 104, 
                            "dur": 57, 
                            "type": "note", 
                            "channel": 9
                        }, 
                        {
                            "pitch": 36, 
                            "t0": 82920, 
                            "v": 104, 
                            "dur": 57, 
                            "type": "note", 
                            "channel": 9
                        }, 
                        {
                            "pitch": 71, 
                            "t0": 82920, 
                            "parts": [
                                [
                                    82920, 
                                    87
                                ], 
                                [
                                    82920, 
                                    88
                                ], 
                                [
                                    82980, 
                                    0
                                ]
                            ], 
                            "v": 87, 
                            "dur": 60, 
                            "type": "note", 
                            "channel": 3
                        }, 
                        {
                            "pitch": 64, 
                            "t0": 82920, 
                            "v": 88, 
                            "dur": 72, 
                            "type": "note", 
                            "channel": 4
                        }, 
                        {
                            "pitch": 59, 
                            "t0": 82920, 
                            "v": 88, 
                            "dur": 80, 
                            "type": "note", 
                            "channel": 4
                        }, 
                        {
                            "pitch": 54, 
                            "t0": 82920, 
                            "v": 88, 
                            "dur": 80, 
                            "type": "note", 
                            "channel": 4
                        }, 
                        {
                            "pitch": 76, 
                            "t0": 82920, 
                            "v": 88, 
                            "dur": 80, 
                            "type": "note", 
                            "channel": 4
                        }, 
                        {
                            "pitch": 68, 
                            "t0": 82920, 
                            "v": 88, 
                            "dur": 80, 
                            "type": "note", 
                            "channel": 4
                        }, 
                        {
                            "pitch": 40, 
                            "t0": 82920, 
                            "v": 104, 
                            "dur": 108, 
                            "type": "note", 
                            "channel": 6
                        }
                    ]
                ], 
                [
                    83040, 
                    [
                        {
                            "pitch": 38, 
                            "t0": 83040, 
                            "v": 120, 
                            "dur": 57, 
                            "type": "note", 
                            "channel": 9
                        }, 
                        {
                            "pitch": 78, 
                            "t0": 83040, 
                            "v": 87, 
                            "dur": 60, 
                            "type": "note", 
                            "channel": 3
                        }, 
                        {
                            "pitch": 76, 
                            "t0": 83040, 
                            "parts": [
                                [
                                    83040, 
                                    88
                                ], 
                                [
                                    83160, 
                                    87
                                ], 
                                [
                                    83220, 
                                    0
                                ]
                            ], 
                            "v": 88, 
                            "dur": 180, 
                            "type": "note", 
                            "channel": 4
                        }, 
                        {
                            "pitch": 64, 
                            "t0": 83040, 
                            "parts": [
                                [
                                    83040, 
                                    120
                                ], 
                                [
                                    83040, 
                                    88
                                ], 
                                [
                                    83040, 
                                    104
                                ], 
                                [
                                    83268, 
                                    0
                                ]
                            ], 
                            "v": 120, 
                            "dur": 228, 
                            "type": "note", 
                            "channel": 0
                        }, 
                        {
                            "pitch": 71, 
                            "t0": 83040, 
                            "parts": [
                                [
                                    83040, 
                                    88
                                ], 
                                [
                                    83280, 
                                    87
                                ], 
                                [
                                    83340, 
                                    0
                                ]
                            ], 
                            "v": 88, 
                            "dur": 300, 
                            "type": "note", 
                            "channel": 4
                        }, 
                        {
                            "pitch": 54, 
                            "t0": 83040, 
                            "v": 88, 
                            "dur": 456, 
                            "type": "note", 
                            "channel": 4
                        }, 
                        {
                            "pitch": 68, 
                            "t0": 83040, 
                            "v": 88, 
                            "dur": 456, 
                            "type": "note", 
                            "channel": 4
                        }, 
                        {
                            "pitch": 59, 
                            "t0": 83040, 
                            "v": 88, 
                            "dur": 456, 
                            "type": "note", 
                            "channel": 4
                        }
                    ]
                ], 
                [
                    83160, 
                    [
                        {
                            "pitch": 38, 
                            "t0": 83160, 
                            "v": 104, 
                            "dur": 57, 
                            "type": "note", 
                            "channel": 9
                        }
                    ]
                ], 
                [
                    83280, 
                    [
                        {
                            "pitch": 38, 
                            "t0": 83280, 
                            "v": 120, 
                            "dur": 57, 
                            "type": "note", 
                            "channel": 9
                        }, 
                        {
                            "pitch": 63, 
                            "t0": 83280, 
                            "parts": [
                                [
                                    83280, 
                                    120
                                ], 
                                [
                                    83280, 
                                    104
                                ], 
                                [
                                    83508, 
                                    0
                                ]
                            ], 
                            "v": 120, 
                            "dur": 228, 
                            "type": "note", 
                            "channel": 0
                        }
                    ]
                ], 
                [
                    83400, 
                    [
                        {
                            "pitch": 78, 
                            "t0": 83400, 
                            "v": 87, 
                            "dur": 60, 
                            "type": "note", 
                            "channel": 3
                        }
                    ]
                ], 
                [
                    83520, 
                    [
                        {
                            "pitch": 49, 
                            "t0": 83520, 
                            "parts": [
                                [
                                    83520, 
                                    104
                                ], 
                                [
                                    83520, 
                                    120
                                ], 
                                [
                                    83577, 
                                    0
                                ]
                            ], 
                            "v": 104, 
                            "dur": 57, 
                            "type": "note", 
                            "channel": 6
                        }, 
                        {
                            "pitch": 36, 
                            "t0": 83520, 
                            "v": 120, 
                            "dur": 57, 
                            "type": "note", 
                            "channel": 9
                        }, 
                        {
                            "pitch": 76, 
                            "t0": 83520, 
                            "v": 104, 
                            "dur": 220, 
                            "type": "note", 
                            "channel": 4
                        }, 
                        {
                            "pitch": 61, 
                            "t0": 83520, 
                            "parts": [
                                [
                                    83520, 
                                    120
                                ], 
                                [
                                    83520, 
                                    104
                                ], 
                                [
                                    83743, 
                                    0
                                ]
                            ], 
                            "v": 120, 
                            "dur": 223, 
                            "type": "note", 
                            "channel": 0
                        }
                    ]
                ], 
                [
                    83760, 
                    [
                        {
                            "pitch": 44, 
                            "t0": 83760, 
                            "v": 88, 
                            "dur": 57, 
                            "type": "note", 
                            "channel": 9
                        }, 
                        {
                            "pitch": 76, 
                            "t0": 83760, 
                            "v": 88, 
                            "dur": 90, 
                            "type": "note", 
                            "channel": 3
                        }, 
                        {
                            "pitch": 80, 
                            "t0": 83760, 
                            "v": 88, 
                            "dur": 90, 
                            "type": "note", 
                            "channel": 3
                        }, 
                        {
                            "pitch": 73, 
                            "t0": 83760, 
                            "v": 104, 
                            "dur": 110, 
                            "type": "note", 
                            "channel": 4
                        }, 
                        {
                            "pitch": 64, 
                            "t0": 83760, 
                            "parts": [
                                [
                                    83760, 
                                    120
                                ], 
                                [
                                    83760, 
                                    104
                                ], 
                                [
                                    83983, 
                                    0
                                ]
                            ], 
                            "v": 120, 
                            "dur": 223, 
                            "type": "note", 
                            "channel": 0
                        }
                    ]
                ], 
                [
                    83880, 
                    [
                        {
                            "pitch": 36, 
                            "t0": 83880, 
                            "v": 104, 
                            "dur": 57, 
                            "type": "note", 
                            "channel": 9
                        }, 
                        {
                            "pitch": 76, 
                            "t0": 83880, 
                            "v": 88, 
                            "dur": 90, 
                            "type": "note", 
                            "channel": 3
                        }, 
                        {
                            "pitch": 80, 
                            "t0": 83880, 
                            "v": 88, 
                            "dur": 90, 
                            "type": "note", 
                            "channel": 3
                        }, 
                        {
                            "pitch": 49, 
                            "t0": 83880, 
                            "v": 104, 
                            "dur": 108, 
                            "type": "note", 
                            "channel": 6
                        }, 
                        {
                            "pitch": 68, 
                            "t0": 83880, 
                            "parts": [
                                [
                                    83880, 
                                    104
                                ], 
                                [
                                    84000, 
                                    120
                                ], 
                                [
                                    84000, 
                                    104
                                ], 
                                [
                                    84223, 
                                    0
                                ]
                            ], 
                            "v": 104, 
                            "dur": 343, 
                            "type": "note", 
                            "channel": 4
                        }
                    ]
                ], 
                [
                    84000, 
                    [
                        {
                            "pitch": 38, 
                            "t0": 84000, 
                            "v": 120, 
                            "dur": 57, 
                            "type": "note", 
                            "channel": 9
                        }, 
                        {
                            "pitch": 52, 
                            "t0": 84000, 
                            "v": 104, 
                            "dur": 108, 
                            "type": "note", 
                            "channel": 6
                        }
                    ]
                ], 
                [
                    84120, 
                    [
                        {
                            "pitch": 51, 
                            "t0": 84120, 
                            "v": 104, 
                            "dur": 108, 
                            "type": "note", 
                            "channel": 6
                        }
                    ]
                ], 
                [
                    84240, 
                    [
                        {
                            "pitch": 44, 
                            "t0": 84240, 
                            "v": 88, 
                            "dur": 57, 
                            "type": "note", 
                            "channel": 9
                        }, 
                        {
                            "pitch": 36, 
                            "t0": 84240, 
                            "v": 104, 
                            "dur": 57, 
                            "type": "note", 
                            "channel": 9
                        }, 
                        {
                            "pitch": 76, 
                            "t0": 84240, 
                            "v": 88, 
                            "dur": 90, 
                            "type": "note", 
                            "channel": 3
                        }, 
                        {
                            "pitch": 80, 
                            "t0": 84240, 
                            "v": 88, 
                            "dur": 90, 
                            "type": "note", 
                            "channel": 3
                        }, 
                        {
                            "pitch": 49, 
                            "t0": 84240, 
                            "v": 104, 
                            "dur": 108, 
                            "type": "note", 
                            "channel": 6
                        }, 
                        {
                            "pitch": 71, 
                            "t0": 84240, 
                            "parts": [
                                [
                                    84240, 
                                    120
                                ], 
                                [
                                    84240, 
                                    104
                                ], 
                                [
                                    84463, 
                                    0
                                ]
                            ], 
                            "v": 120, 
                            "dur": 223, 
                            "type": "note", 
                            "channel": 0
                        }
                    ]
                ], 
                [
                    84360, 
                    [
                        {
                            "pitch": 76, 
                            "t0": 84360, 
                            "v": 88, 
                            "dur": 90, 
                            "type": "note", 
                            "channel": 3
                        }, 
                        {
                            "pitch": 80, 
                            "t0": 84360, 
                            "v": 88, 
                            "dur": 90, 
                            "type": "note", 
                            "channel": 3
                        }, 
                        {
                            "pitch": 52, 
                            "t0": 84360, 
                            "v": 104, 
                            "dur": 108, 
                            "type": "note", 
                            "channel": 6
                        }
                    ]
                ], 
                [
                    84480, 
                    [
                        {
                            "pitch": 44, 
                            "t0": 84480, 
                            "v": 104, 
                            "dur": 108, 
                            "type": "note", 
                            "channel": 6
                        }, 
                        {
                            "pitch": 68, 
                            "t0": 84480, 
                            "parts": [
                                [
                                    84480, 
                                    120
                                ], 
                                [
                                    84480, 
                                    104
                                ], 
                                [
                                    84590, 
                                    0
                                ]
                            ], 
                            "v": 120, 
                            "dur": 110, 
                            "type": "note", 
                            "channel": 0
                        }
                    ]
                ], 
                [
                    84600, 
                    [
                        {
                            "pitch": 36, 
                            "t0": 84600, 
                            "v": 104, 
                            "dur": 57, 
                            "type": "note", 
                            "channel": 9
                        }, 
                        {
                            "pitch": 44, 
                            "t0": 84600, 
                            "v": 104, 
                            "dur": 108, 
                            "type": "note", 
                            "channel": 6
                        }, 
                        {
                            "pitch": 83, 
                            "t0": 84600, 
                            "v": 104, 
                            "dur": 110, 
                            "type": "note", 
                            "channel": 4
                        }
                    ]
                ], 
                [
                    84720, 
                    [
                        {
                            "pitch": 44, 
                            "t0": 84720, 
                            "parts": [
                                [
                                    84720, 
                                    104
                                ], 
                                [
                                    84720, 
                                    88
                                ], 
                                [
                                    84777, 
                                    0
                                ]
                            ], 
                            "v": 104, 
                            "dur": 57, 
                            "type": "note", 
                            "channel": 6
                        }, 
                        {
                            "pitch": 80, 
                            "t0": 84720, 
                            "parts": [
                                [
                                    84720, 
                                    88
                                ], 
                                [
                                    84720, 
                                    104
                                ], 
                                [
                                    84810, 
                                    0
                                ]
                            ], 
                            "v": 88, 
                            "dur": 90, 
                            "type": "note", 
                            "channel": 3
                        }, 
                        {
                            "pitch": 75, 
                            "t0": 84720, 
                            "v": 88, 
                            "dur": 90, 
                            "type": "note", 
                            "channel": 3
                        }
                    ]
                ], 
                [
                    84840, 
                    [
                        {
                            "pitch": 36, 
                            "t0": 84840, 
                            "v": 104, 
                            "dur": 57, 
                            "type": "note", 
                            "channel": 9
                        }, 
                        {
                            "pitch": 80, 
                            "t0": 84840, 
                            "v": 88, 
                            "dur": 90, 
                            "type": "note", 
                            "channel": 3
                        }, 
                        {
                            "pitch": 75, 
                            "t0": 84840, 
                            "v": 88, 
                            "dur": 90, 
                            "type": "note", 
                            "channel": 3
                        }, 
                        {
                            "pitch": 44, 
                            "t0": 84840, 
                            "v": 104, 
                            "dur": 108, 
                            "type": "note", 
                            "channel": 6
                        }, 
                        {
                            "pitch": 87, 
                            "t0": 84840, 
                            "v": 104, 
                            "dur": 561, 
                            "type": "note", 
                            "channel": 4
                        }
                    ]
                ], 
                [
                    84960, 
                    [
                        {
                            "pitch": 38, 
                            "t0": 84960, 
                            "v": 120, 
                            "dur": 57, 
                            "type": "note", 
                            "channel": 9
                        }, 
                        {
                            "pitch": 68, 
                            "t0": 84960, 
                            "parts": [
                                [
                                    84960, 
                                    120
                                ], 
                                [
                                    84960, 
                                    104
                                ], 
                                [
                                    85183, 
                                    0
                                ]
                            ], 
                            "v": 120, 
                            "dur": 223, 
                            "type": "note", 
                            "channel": 0
                        }, 
                        {
                            "pitch": 47, 
                            "t0": 84960, 
                            "v": 104, 
                            "dur": 432, 
                            "type": "note", 
                            "channel": 6
                        }
                    ]
                ], 
                [
                    85200, 
                    [
                        {
                            "pitch": 51, 
                            "t0": 85200, 
                            "v": 88, 
                            "dur": 57, 
                            "type": "note", 
                            "channel": 9
                        }, 
                        {
                            "pitch": 80, 
                            "t0": 85200, 
                            "v": 88, 
                            "dur": 90, 
                            "type": "note", 
                            "channel": 3
                        }, 
                        {
                            "pitch": 75, 
                            "t0": 85200, 
                            "v": 88, 
                            "dur": 90, 
                            "type": "note", 
                            "channel": 3
                        }, 
                        {
                            "pitch": 66, 
                            "t0": 85200, 
                            "parts": [
                                [
                                    85200, 
                                    120
                                ], 
                                [
                                    85200, 
                                    104
                                ], 
                                [
                                    85423, 
                                    0
                                ]
                            ], 
                            "v": 120, 
                            "dur": 223, 
                            "type": "note", 
                            "channel": 0
                        }
                    ]
                ], 
                [
                    85320, 
                    [
                        {
                            "pitch": 80, 
                            "t0": 85320, 
                            "v": 88, 
                            "dur": 90, 
                            "type": "note", 
                            "channel": 3
                        }, 
                        {
                            "pitch": 75, 
                            "t0": 85320, 
                            "v": 88, 
                            "dur": 90, 
                            "type": "note", 
                            "channel": 3
                        }
                    ]
                ], 
                [
                    85440, 
                    [
                        {
                            "pitch": 49, 
                            "t0": 85440, 
                            "v": 120, 
                            "dur": 57, 
                            "type": "note", 
                            "channel": 9
                        }, 
                        {
                            "pitch": 36, 
                            "t0": 85440, 
                            "v": 120, 
                            "dur": 57, 
                            "type": "note", 
                            "channel": 9
                        }, 
                        {
                            "pitch": 66, 
                            "t0": 85440, 
                            "v": 104, 
                            "dur": 110, 
                            "type": "note", 
                            "channel": 4
                        }, 
                        {
                            "pitch": 42, 
                            "t0": 85440, 
                            "v": 104, 
                            "dur": 216, 
                            "type": "note", 
                            "channel": 6
                        }, 
                        {
                            "pitch": 64, 
                            "t0": 85440, 
                            "parts": [
                                [
                                    85440, 
                                    120
                                ], 
                                [
                                    85440, 
                                    104
                                ], 
                                [
                                    85663, 
                                    0
                                ]
                            ], 
                            "v": 120, 
                            "dur": 223, 
                            "type": "note", 
                            "channel": 0
                        }
                    ]
                ], 
                [
                    85560, 
                    [
                        {
                            "pitch": 81, 
                            "t0": 85560, 
                            "v": 104, 
                            "dur": 110, 
                            "type": "note", 
                            "channel": 4
                        }
                    ]
                ], 
                [
                    85680, 
                    [
                        {
                            "pitch": 44, 
                            "t0": 85680, 
                            "v": 88, 
                            "dur": 57, 
                            "type": "note", 
                            "channel": 9
                        }, 
                        {
                            "pitch": 73, 
                            "t0": 85680, 
                            "v": 88, 
                            "dur": 90, 
                            "type": "note", 
                            "channel": 3
                        }, 
                        {
                            "pitch": 78, 
                            "t0": 85680, 
                            "parts": [
                                [
                                    85680, 
                                    88
                                ], 
                                [
                                    85680, 
                                    104
                                ], 
                                [
                                    85770, 
                                    0
                                ]
                            ], 
                            "v": 88, 
                            "dur": 90, 
                            "type": "note", 
                            "channel": 3
                        }, 
                        {
                            "pitch": 66, 
                            "t0": 85680, 
                            "parts": [
                                [
                                    85680, 
                                    120
                                ], 
                                [
                                    85680, 
                                    104
                                ], 
                                [
                                    85791, 
                                    0
                                ]
                            ], 
                            "v": 120, 
                            "dur": 111, 
                            "type": "note", 
                            "channel": 0
                        }
                    ]
                ], 
                [
                    85800, 
                    [
                        {
                            "pitch": 36, 
                            "t0": 85800, 
                            "v": 104, 
                            "dur": 57, 
                            "type": "note", 
                            "channel": 9
                        }, 
                        {
                            "pitch": 78, 
                            "t0": 85800, 
                            "v": 88, 
                            "dur": 90, 
                            "type": "note", 
                            "channel": 3
                        }, 
                        {
                            "pitch": 73, 
                            "t0": 85800, 
                            "parts": [
                                [
                                    85800, 
                                    88
                                ], 
                                [
                                    85800, 
                                    104
                                ], 
                                [
                                    85890, 
                                    0
                                ]
                            ], 
                            "v": 88, 
                            "dur": 90, 
                            "type": "note", 
                            "channel": 3
                        }, 
                        {
                            "pitch": 42, 
                            "t0": 85800, 
                            "v": 104, 
                            "dur": 108, 
                            "type": "note", 
                            "channel": 6
                        }, 
                        {
                            "pitch": 64, 
                            "t0": 85800, 
                            "parts": [
                                [
                                    85800, 
                                    120
                                ], 
                                [
                                    85800, 
                                    104
                                ], 
                                [
                                    85911, 
                                    0
                                ]
                            ], 
                            "v": 120, 
                            "dur": 111, 
                            "type": "note", 
                            "channel": 0
                        }
                    ]
                ], 
                [
                    85920, 
                    [
                        {
                            "pitch": 38, 
                            "t0": 85920, 
                            "v": 120, 
                            "dur": 57, 
                            "type": "note", 
                            "channel": 9
                        }, 
                        {
                            "pitch": 49, 
                            "t0": 85920, 
                            "v": 104, 
                            "dur": 216, 
                            "type": "note", 
                            "channel": 6
                        }, 
                        {
                            "pitch": 61, 
                            "t0": 85920, 
                            "parts": [
                                [
                                    85920, 
                                    120
                                ], 
                                [
                                    85920, 
                                    104
                                ], 
                                [
                                    86143, 
                                    0
                                ]
                            ], 
                            "v": 120, 
                            "dur": 223, 
                            "type": "note", 
                            "channel": 0
                        }
                    ]
                ], 
                [
                    86160, 
                    [
                        {
                            "pitch": 44, 
                            "t0": 86160, 
                            "v": 88, 
                            "dur": 57, 
                            "type": "note", 
                            "channel": 9
                        }, 
                        {
                            "pitch": 36, 
                            "t0": 86160, 
                            "v": 104, 
                            "dur": 57, 
                            "type": "note", 
                            "channel": 9
                        }, 
                        {
                            "pitch": 78, 
                            "t0": 86160, 
                            "v": 88, 
                            "dur": 90, 
                            "type": "note", 
                            "channel": 3
                        }, 
                        {
                            "pitch": 73, 
                            "t0": 86160, 
                            "v": 88, 
                            "dur": 90, 
                            "type": "note", 
                            "channel": 3
                        }, 
                        {
                            "pitch": 40, 
                            "t0": 86160, 
                            "v": 104, 
                            "dur": 108, 
                            "type": "note", 
                            "channel": 6
                        }, 
                        {
                            "pitch": 59, 
                            "t0": 86160, 
                            "parts": [
                                [
                                    86160, 
                                    120
                                ], 
                                [
                                    86160, 
                                    104
                                ], 
                                [
                                    86383, 
                                    0
                                ]
                            ], 
                            "v": 120, 
                            "dur": 223, 
                            "type": "note", 
                            "channel": 0
                        }
                    ]
                ], 
                [
                    86280, 
                    [
                        {
                            "pitch": 73, 
                            "t0": 86280, 
                            "v": 88, 
                            "dur": 81, 
                            "type": "note", 
                            "channel": 3
                        }, 
                        {
                            "pitch": 78, 
                            "t0": 86280, 
                            "v": 88, 
                            "dur": 90, 
                            "type": "note", 
                            "channel": 3
                        }, 
                        {
                            "pitch": 42, 
                            "t0": 86280, 
                            "v": 104, 
                            "dur": 108, 
                            "type": "note", 
                            "channel": 6
                        }
                    ]
                ], 
                [
                    86400, 
                    [
                        {
                            "pitch": 61, 
                            "t0": 86400, 
                            "parts": [
                                [
                                    86400, 
                                    120
                                ], 
                                [
                                    86400, 
                                    104
                                ], 
                                [
                                    86510, 
                                    0
                                ]
                            ], 
                            "v": 120, 
                            "dur": 110, 
                            "type": "note", 
                            "channel": 0
                        }
                    ]
                ], 
                [
                    86520, 
                    [
                        {
                            "pitch": 36, 
                            "t0": 86520, 
                            "v": 104, 
                            "dur": 57, 
                            "type": "note", 
                            "channel": 9
                        }, 
                        {
                            "pitch": 76, 
                            "t0": 86520, 
                            "v": 104, 
                            "dur": 110, 
                            "type": "note", 
                            "channel": 4
                        }, 
                        {
                            "pitch": 49, 
                            "t0": 86520, 
                            "v": 104, 
                            "dur": 216, 
                            "type": "note", 
                            "channel": 6
                        }
                    ]
                ], 
                [
                    86640, 
                    [
                        {
                            "pitch": 44, 
                            "t0": 86640, 
                            "v": 88, 
                            "dur": 57, 
                            "type": "note", 
                            "channel": 9
                        }, 
                        {
                            "pitch": 76, 
                            "t0": 86640, 
                            "v": 88, 
                            "dur": 90, 
                            "type": "note", 
                            "channel": 3
                        }, 
                        {
                            "pitch": 80, 
                            "t0": 86640, 
                            "v": 88, 
                            "dur": 90, 
                            "type": "note", 
                            "channel": 3
                        }, 
                        {
                            "pitch": 73, 
                            "t0": 86640, 
                            "v": 104, 
                            "dur": 110, 
                            "type": "note", 
                            "channel": 4
                        }
                    ]
                ], 
                [
                    86760, 
                    [
                        {
                            "pitch": 36, 
                            "t0": 86760, 
                            "v": 104, 
                            "dur": 57, 
                            "type": "note", 
                            "channel": 9
                        }, 
                        {
                            "pitch": 76, 
                            "t0": 86760, 
                            "v": 88, 
                            "dur": 90, 
                            "type": "note", 
                            "channel": 3
                        }, 
                        {
                            "pitch": 80, 
                            "t0": 86760, 
                            "v": 88, 
                            "dur": 90, 
                            "type": "note", 
                            "channel": 3
                        }, 
                        {
                            "pitch": 49, 
                            "t0": 86760, 
                            "v": 104, 
                            "dur": 108, 
                            "type": "note", 
                            "channel": 6
                        }, 
                        {
                            "pitch": 68, 
                            "t0": 86760, 
                            "v": 104, 
                            "dur": 561, 
                            "type": "note", 
                            "channel": 4
                        }
                    ]
                ], 
                [
                    86880, 
                    [
                        {
                            "pitch": 38, 
                            "t0": 86880, 
                            "v": 120, 
                            "dur": 57, 
                            "type": "note", 
                            "channel": 9
                        }, 
                        {
                            "pitch": 49, 
                            "t0": 86880, 
                            "v": 104, 
                            "dur": 108, 
                            "type": "note", 
                            "channel": 6
                        }, 
                        {
                            "pitch": 64, 
                            "t0": 86880, 
                            "parts": [
                                [
                                    86880, 
                                    120
                                ], 
                                [
                                    86880, 
                                    104
                                ], 
                                [
                                    87103, 
                                    0
                                ]
                            ], 
                            "v": 120, 
                            "dur": 223, 
                            "type": "note", 
                            "channel": 0
                        }
                    ]
                ], 
                [
                    87000, 
                    [
                        {
                            "pitch": 47, 
                            "t0": 87000, 
                            "v": 104, 
                            "dur": 108, 
                            "type": "note", 
                            "channel": 6
                        }
                    ]
                ], 
                [
                    87120, 
                    [
                        {
                            "pitch": 51, 
                            "t0": 87120, 
                            "v": 88, 
                            "dur": 57, 
                            "type": "note", 
                            "channel": 9
                        }, 
                        {
                            "pitch": 76, 
                            "t0": 87120, 
                            "v": 88, 
                            "dur": 90, 
                            "type": "note", 
                            "channel": 3
                        }, 
                        {
                            "pitch": 80, 
                            "t0": 87120, 
                            "v": 88, 
                            "dur": 90, 
                            "type": "note", 
                            "channel": 3
                        }, 
                        {
                            "pitch": 44, 
                            "t0": 87120, 
                            "v": 104, 
                            "dur": 108, 
                            "type": "note", 
                            "channel": 6
                        }, 
                        {
                            "pitch": 66, 
                            "t0": 87120, 
                            "parts": [
                                [
                                    87120, 
                                    120
                                ], 
                                [
                                    87120, 
                                    104
                                ], 
                                [
                                    87343, 
                                    0
                                ]
                            ], 
                            "v": 120, 
                            "dur": 223, 
                            "type": "note", 
                            "channel": 0
                        }
                    ]
                ], 
                [
                    87240, 
                    [
                        {
                            "pitch": 76, 
                            "t0": 87240, 
                            "v": 88, 
                            "dur": 90, 
                            "type": "note", 
                            "channel": 3
                        }, 
                        {
                            "pitch": 80, 
                            "t0": 87240, 
                            "v": 88, 
                            "dur": 90, 
                            "type": "note", 
                            "channel": 3
                        }, 
                        {
                            "pitch": 42, 
                            "t0": 87240, 
                            "v": 104, 
                            "dur": 108, 
                            "type": "note", 
                            "channel": 6
                        }
                    ]
                ], 
                [
                    87360, 
                    [
                        {
                            "pitch": 49, 
                            "t0": 87360, 
                            "v": 120, 
                            "dur": 57, 
                            "type": "note", 
                            "channel": 9
                        }, 
                        {
                            "pitch": 36, 
                            "t0": 87360, 
                            "v": 120, 
                            "dur": 57, 
                            "type": "note", 
                            "channel": 9
                        }, 
                        {
                            "pitch": 64, 
                            "t0": 87360, 
                            "v": 104, 
                            "dur": 110, 
                            "type": "note", 
                            "channel": 4
                        }, 
                        {
                            "pitch": 68, 
                            "t0": 87360, 
                            "parts": [
                                [
                                    87360, 
                                    120
                                ], 
                                [
                                    87360, 
                                    104
                                ], 
                                [
                                    87583, 
                                    0
                                ]
                            ], 
                            "v": 120, 
                            "dur": 223, 
                            "type": "note", 
                            "channel": 0
                        }, 
                        {
                            "pitch": 40, 
                            "t0": 87360, 
                            "v": 104, 
                            "dur": 324, 
                            "type": "note", 
                            "channel": 6
                        }
                    ]
                ], 
                [
                    87480, 
                    [
                        {
                            "pitch": 71, 
                            "t0": 87480, 
                            "v": 104, 
                            "dur": 110, 
                            "type": "note", 
                            "channel": 4
                        }
                    ]
                ], 
                [
                    87600, 
                    [
                        {
                            "pitch": 44, 
                            "t0": 87600, 
                            "v": 88, 
                            "dur": 57, 
                            "type": "note", 
                            "channel": 9
                        }, 
                        {
                            "pitch": 76, 
                            "t0": 87600, 
                            "parts": [
                                [
                                    87600, 
                                    88
                                ], 
                                [
                                    87600, 
                                    104
                                ], 
                                [
                                    87690, 
                                    0
                                ]
                            ], 
                            "v": 88, 
                            "dur": 90, 
                            "type": "note", 
                            "channel": 3
                        }, 
                        {
                            "pitch": 80, 
                            "t0": 87600, 
                            "v": 88, 
                            "dur": 90, 
                            "type": "note", 
                            "channel": 3
                        }, 
                        {
                            "pitch": 68, 
                            "t0": 87600, 
                            "parts": [
                                [
                                    87600, 
                                    120
                                ], 
                                [
                                    87600, 
                                    104
                                ], 
                                [
                                    87823, 
                                    0
                                ]
                            ], 
                            "v": 120, 
                            "dur": 223, 
                            "type": "note", 
                            "channel": 0
                        }
                    ]
                ], 
                [
                    87720, 
                    [
                        {
                            "pitch": 36, 
                            "t0": 87720, 
                            "v": 104, 
                            "dur": 57, 
                            "type": "note", 
                            "channel": 9
                        }, 
                        {
                            "pitch": 76, 
                            "t0": 87720, 
                            "v": 88, 
                            "dur": 90, 
                            "type": "note", 
                            "channel": 3
                        }, 
                        {
                            "pitch": 80, 
                            "t0": 87720, 
                            "v": 88, 
                            "dur": 90, 
                            "type": "note", 
                            "channel": 3
                        }, 
                        {
                            "pitch": 40, 
                            "t0": 87720, 
                            "v": 104, 
                            "dur": 108, 
                            "type": "note", 
                            "channel": 6
                        }
                    ]
                ], 
                [
                    87840, 
                    [
                        {
                            "pitch": 38, 
                            "t0": 87840, 
                            "v": 120, 
                            "dur": 57, 
                            "type": "note", 
                            "channel": 9
                        }, 
                        {
                            "pitch": 40, 
                            "t0": 87840, 
                            "v": 104, 
                            "dur": 216, 
                            "type": "note", 
                            "channel": 6
                        }, 
                        {
                            "pitch": 71, 
                            "t0": 87840, 
                            "parts": [
                                [
                                    87840, 
                                    120
                                ], 
                                [
                                    87840, 
                                    104
                                ], 
                                [
                                    87960, 
                                    104
                                ], 
                                [
                                    88063, 
                                    0
                                ]
                            ], 
                            "v": 120, 
                            "dur": 223, 
                            "type": "note", 
                            "channel": 0
                        }
                    ]
                ], 
                [
                    88080, 
                    [
                        {
                            "pitch": 44, 
                            "t0": 88080, 
                            "v": 88, 
                            "dur": 57, 
                            "type": "note", 
                            "channel": 9
                        }, 
                        {
                            "pitch": 36, 
                            "t0": 88080, 
                            "v": 104, 
                            "dur": 57, 
                            "type": "note", 
                            "channel": 9
                        }, 
                        {
                            "pitch": 76, 
                            "t0": 88080, 
                            "parts": [
                                [
                                    88080, 
                                    88
                                ], 
                                [
                                    88080, 
                                    104
                                ], 
                                [
                                    88170, 
                                    0
                                ]
                            ], 
                            "v": 88, 
                            "dur": 90, 
                            "type": "note", 
                            "channel": 3
                        }, 
                        {
                            "pitch": 80, 
                            "t0": 88080, 
                            "v": 88, 
                            "dur": 90, 
                            "type": "note", 
                            "channel": 3
                        }, 
                        {
                            "pitch": 42, 
                            "t0": 88080, 
                            "v": 104, 
                            "dur": 216, 
                            "type": "note", 
                            "channel": 6
                        }, 
                        {
                            "pitch": 73, 
                            "t0": 88080, 
                            "parts": [
                                [
                                    88080, 
                                    120
                                ], 
                                [
                                    88080, 
                                    104
                                ], 
                                [
                                    88303, 
                                    0
                                ]
                            ], 
                            "v": 120, 
                            "dur": 223, 
                            "type": "note", 
                            "channel": 0
                        }
                    ]
                ], 
                [
                    88200, 
                    [
                        {
                            "pitch": 76, 
                            "t0": 88200, 
                            "v": 88, 
                            "dur": 90, 
                            "type": "note", 
                            "channel": 3
                        }, 
                        {
                            "pitch": 80, 
                            "t0": 88200, 
                            "v": 88, 
                            "dur": 90, 
                            "type": "note", 
                            "channel": 3
                        }
                    ]
                ], 
                [
                    88320, 
                    [
                        {
                            "pitch": 44, 
                            "t0": 88320, 
                            "v": 104, 
                            "dur": 108, 
                            "type": "note", 
                            "channel": 6
                        }, 
                        {
                            "pitch": 68, 
                            "t0": 88320, 
                            "v": 104, 
                            "dur": 110, 
                            "type": "note", 
                            "channel": 4
                        }, 
                        {
                            "pitch": 66, 
                            "t0": 88320, 
                            "parts": [
                                [
                                    88320, 
                                    120
                                ], 
                                [
                                    88320, 
                                    104
                                ], 
                                [
                                    88766, 
                                    0
                                ]
                            ], 
                            "v": 120, 
                            "dur": 446, 
                            "type": "note", 
                            "channel": 0
                        }
                    ]
                ], 
                [
                    88440, 
                    [
                        {
                            "pitch": 36, 
                            "t0": 88440, 
                            "v": 104, 
                            "dur": 57, 
                            "type": "note", 
                            "channel": 9
                        }, 
                        {
                            "pitch": 83, 
                            "t0": 88440, 
                            "v": 104, 
                            "dur": 110, 
                            "type": "note", 
                            "channel": 4
                        }, 
                        {
                            "pitch": 44, 
                            "t0": 88440, 
                            "parts": [
                                [
                                    88440, 
                                    104
                                ], 
                                [
                                    88560, 
                                    88
                                ], 
                                [
                                    88617, 
                                    0
                                ]
                            ], 
                            "v": 104, 
                            "dur": 177, 
                            "type": "note", 
                            "channel": 6
                        }
                    ]
                ], 
                [
                    88560, 
                    [
                        {
                            "pitch": 80, 
                            "t0": 88560, 
                            "parts": [
                                [
                                    88560, 
                                    88
                                ], 
                                [
                                    88560, 
                                    104
                                ], 
                                [
                                    88650, 
                                    0
                                ]
                            ], 
                            "v": 88, 
                            "dur": 90, 
                            "type": "note", 
                            "channel": 3
                        }, 
                        {
                            "pitch": 75, 
                            "t0": 88560, 
                            "v": 88, 
                            "dur": 90, 
                            "type": "note", 
                            "channel": 3
                        }
                    ]
                ], 
                [
                    88680, 
                    [
                        {
                            "pitch": 36, 
                            "t0": 88680, 
                            "v": 104, 
                            "dur": 57, 
                            "type": "note", 
                            "channel": 9
                        }, 
                        {
                            "pitch": 80, 
                            "t0": 88680, 
                            "v": 88, 
                            "dur": 90, 
                            "type": "note", 
                            "channel": 3
                        }, 
                        {
                            "pitch": 75, 
                            "t0": 88680, 
                            "v": 88, 
                            "dur": 90, 
                            "type": "note", 
                            "channel": 3
                        }, 
                        {
                            "pitch": 44, 
                            "t0": 88680, 
                            "v": 104, 
                            "dur": 108, 
                            "type": "note", 
                            "channel": 6
                        }, 
                        {
                            "pitch": 87, 
                            "t0": 88680, 
                            "v": 104, 
                            "dur": 220, 
                            "type": "note", 
                            "channel": 4
                        }
                    ]
                ], 
                [
                    88800, 
                    [
                        {
                            "pitch": 38, 
                            "t0": 88800, 
                            "v": 120, 
                            "dur": 57, 
                            "type": "note", 
                            "channel": 9
                        }, 
                        {
                            "pitch": 44, 
                            "t0": 88800, 
                            "v": 104, 
                            "dur": 216, 
                            "type": "note", 
                            "channel": 6
                        }, 
                        {
                            "pitch": 68, 
                            "t0": 88800, 
                            "parts": [
                                [
                                    88800, 
                                    120
                                ], 
                                [
                                    88800, 
                                    104
                                ], 
                                [
                                    89023, 
                                    0
                                ]
                            ], 
                            "v": 120, 
                            "dur": 223, 
                            "type": "note", 
                            "channel": 0
                        }
                    ]
                ], 
                [
                    88920, 
                    [
                        {
                            "pitch": 87, 
                            "t0": 88920, 
                            "v": 104, 
                            "dur": 110, 
                            "type": "note", 
                            "channel": 4
                        }
                    ]
                ], 
                [
                    89040, 
                    [
                        {
                            "pitch": 51, 
                            "t0": 89040, 
                            "v": 88, 
                            "dur": 57, 
                            "type": "note", 
                            "channel": 9
                        }, 
                        {
                            "pitch": 80, 
                            "t0": 89040, 
                            "parts": [
                                [
                                    89040, 
                                    88
                                ], 
                                [
                                    89040, 
                                    104
                                ], 
                                [
                                    89130, 
                                    0
                                ]
                            ], 
                            "v": 88, 
                            "dur": 90, 
                            "type": "note", 
                            "channel": 3
                        }, 
                        {
                            "pitch": 75, 
                            "t0": 89040, 
                            "v": 88, 
                            "dur": 90, 
                            "type": "note", 
                            "channel": 3
                        }, 
                        {
                            "pitch": 47, 
                            "t0": 89040, 
                            "v": 104, 
                            "dur": 216, 
                            "type": "note", 
                            "channel": 6
                        }, 
                        {
                            "pitch": 66, 
                            "t0": 89040, 
                            "parts": [
                                [
                                    89040, 
                                    120
                                ], 
                                [
                                    89040, 
                                    104
                                ], 
                                [
                                    89263, 
                                    0
                                ]
                            ], 
                            "v": 120, 
                            "dur": 223, 
                            "type": "note", 
                            "channel": 0
                        }
                    ]
                ], 
                [
                    89160, 
                    [
                        {
                            "pitch": 80, 
                            "t0": 89160, 
                            "v": 88, 
                            "dur": 90, 
                            "type": "note", 
                            "channel": 3
                        }, 
                        {
                            "pitch": 75, 
                            "t0": 89160, 
                            "v": 88, 
                            "dur": 90, 
                            "type": "note", 
                            "channel": 3
                        }
                    ]
                ], 
                [
                    89280, 
                    [
                        {
                            "pitch": 36, 
                            "t0": 89280, 
                            "v": 120, 
                            "dur": 57, 
                            "type": "note", 
                            "channel": 9
                        }, 
                        {
                            "pitch": 69, 
                            "t0": 89280, 
                            "parts": [
                                [
                                    89280, 
                                    104
                                ], 
                                [
                                    89300, 
                                    88
                                ], 
                                [
                                    89390, 
                                    0
                                ]
                            ], 
                            "v": 104, 
                            "dur": 110, 
                            "type": "note", 
                            "channel": 4
                        }, 
                        {
                            "pitch": 64, 
                            "t0": 89280, 
                            "parts": [
                                [
                                    89280, 
                                    120
                                ], 
                                [
                                    89280, 
                                    104
                                ], 
                                [
                                    89503, 
                                    0
                                ]
                            ], 
                            "v": 120, 
                            "dur": 223, 
                            "type": "note", 
                            "channel": 0
                        }, 
                        {
                            "pitch": 45, 
                            "t0": 89280, 
                            "v": 104, 
                            "dur": 324, 
                            "type": "note", 
                            "channel": 6
                        }, 
                        {
                            "pitch": 76, 
                            "t0": 89280, 
                            "parts": [
                                [
                                    89280, 
                                    88
                                ], 
                                [
                                    89640, 
                                    104
                                ], 
                                [
                                    89860, 
                                    0
                                ]
                            ], 
                            "v": 88, 
                            "dur": 580, 
                            "type": "note", 
                            "channel": 3
                        }
                    ]
                ], 
                [
                    89320, 
                    [
                        {
                            "pitch": 81, 
                            "t0": 89320, 
                            "parts": [
                                [
                                    89320, 
                                    88
                                ], 
                                [
                                    89520, 
                                    104
                                ], 
                                [
                                    89630, 
                                    0
                                ]
                            ], 
                            "v": 88, 
                            "dur": 310, 
                            "type": "note", 
                            "channel": 3
                        }
                    ]
                ], 
                [
                    89340, 
                    [
                        {
                            "pitch": 73, 
                            "t0": 89340, 
                            "v": 88, 
                            "dur": 648, 
                            "type": "note", 
                            "channel": 3
                        }
                    ]
                ], 
                [
                    89400, 
                    [
                        {
                            "pitch": 71, 
                            "t0": 89400, 
                            "v": 104, 
                            "dur": 110, 
                            "type": "note", 
                            "channel": 4
                        }
                    ]
                ], 
                [
                    89520, 
                    [
                        {
                            "pitch": 44, 
                            "t0": 89520, 
                            "v": 88, 
                            "dur": 57, 
                            "type": "note", 
                            "channel": 9
                        }, 
                        {
                            "pitch": 64, 
                            "t0": 89520, 
                            "parts": [
                                [
                                    89520, 
                                    120
                                ], 
                                [
                                    89520, 
                                    104
                                ], 
                                [
                                    89743, 
                                    0
                                ]
                            ], 
                            "v": 120, 
                            "dur": 223, 
                            "type": "note", 
                            "channel": 0
                        }
                    ]
                ], 
                [
                    89640, 
                    [
                        {
                            "pitch": 36, 
                            "t0": 89640, 
                            "v": 104, 
                            "dur": 57, 
                            "type": "note", 
                            "channel": 9
                        }, 
                        {
                            "pitch": 45, 
                            "t0": 89640, 
                            "v": 104, 
                            "dur": 108, 
                            "type": "note", 
                            "channel": 6
                        }
                    ]
                ], 
                [
                    89760, 
                    [
                        {
                            "pitch": 38, 
                            "t0": 89760, 
                            "v": 120, 
                            "dur": 57, 
                            "type": "note", 
                            "channel": 9
                        }, 
                        {
                            "pitch": 45, 
                            "t0": 89760, 
                            "v": 104, 
                            "dur": 216, 
                            "type": "note", 
                            "channel": 6
                        }, 
                        {
                            "pitch": 66, 
                            "t0": 89760, 
                            "parts": [
                                [
                                    89760, 
                                    120
                                ], 
                                [
                                    89760, 
                                    104
                                ], 
                                [
                                    89983, 
                                    0
                                ]
                            ], 
                            "v": 120, 
                            "dur": 223, 
                            "type": "note", 
                            "channel": 0
                        }
                    ]
                ], 
                [
                    89880, 
                    [
                        {
                            "pitch": 71, 
                            "t0": 89880, 
                            "v": 104, 
                            "dur": 110, 
                            "type": "note", 
                            "channel": 4
                        }
                    ]
                ], 
                [
                    90000, 
                    [
                        {
                            "pitch": 44, 
                            "t0": 90000, 
                            "parts": [
                                [
                                    90000, 
                                    104
                                ], 
                                [
                                    90000, 
                                    88
                                ], 
                                [
                                    90057, 
                                    0
                                ]
                            ], 
                            "v": 104, 
                            "dur": 57, 
                            "type": "note", 
                            "channel": 6
                        }, 
                        {
                            "pitch": 36, 
                            "t0": 90000, 
                            "v": 104, 
                            "dur": 57, 
                            "type": "note", 
                            "channel": 9
                        }, 
                        {
                            "pitch": 68, 
                            "t0": 90000, 
                            "parts": [
                                [
                                    90000, 
                                    120
                                ], 
                                [
                                    90000, 
                                    104
                                ], 
                                [
                                    90111, 
                                    0
                                ]
                            ], 
                            "v": 120, 
                            "dur": 111, 
                            "type": "note", 
                            "channel": 0
                        }, 
                        {
                            "pitch": 81, 
                            "t0": 90000, 
                            "v": 104, 
                            "dur": 220, 
                            "type": "note", 
                            "channel": 4
                        }
                    ]
                ], 
                [
                    90120, 
                    [
                        {
                            "pitch": 45, 
                            "t0": 90120, 
                            "v": 104, 
                            "dur": 108, 
                            "type": "note", 
                            "channel": 6
                        }, 
                        {
                            "pitch": 66, 
                            "t0": 90120, 
                            "parts": [
                                [
                                    90120, 
                                    120
                                ], 
                                [
                                    90120, 
                                    104
                                ], 
                                [
                                    90231, 
                                    0
                                ]
                            ], 
                            "v": 120, 
                            "dur": 111, 
                            "type": "note", 
                            "channel": 0
                        }
                    ]
                ], 
                [
                    90240, 
                    [
                        {
                            "pitch": 47, 
                            "t0": 90240, 
                            "v": 104, 
                            "dur": 54, 
                            "type": "note", 
                            "channel": 6
                        }, 
                        {
                            "pitch": 46, 
                            "t0": 90240, 
                            "v": 104, 
                            "dur": 57, 
                            "type": "note", 
                            "channel": 9
                        }, 
                        {
                            "pitch": 71, 
                            "t0": 90240, 
                            "parts": [
                                [
                                    90240, 
                                    95
                                ], 
                                [
                                    90240, 
                                    104
                                ], 
                                [
                                    90350, 
                                    0
                                ]
                            ], 
                            "v": 95, 
                            "dur": 110, 
                            "type": "note", 
                            "channel": 3
                        }, 
                        {
                            "pitch": 76, 
                            "t0": 90240, 
                            "parts": [
                                [
                                    90240, 
                                    95
                                ], 
                                [
                                    90360, 
                                    104
                                ], 
                                [
                                    90470, 
                                    0
                                ]
                            ], 
                            "v": 95, 
                            "dur": 230, 
                            "type": "note", 
                            "channel": 3
                        }, 
                        {
                            "pitch": 66, 
                            "t0": 90240, 
                            "parts": [
                                [
                                    90240, 
                                    120
                                ], 
                                [
                                    90240, 
                                    95
                                ], 
                                [
                                    90240, 
                                    104
                                ], 
                                [
                                    91104, 
                                    0
                                ]
                            ], 
                            "v": 120, 
                            "dur": 864, 
                            "type": "note", 
                            "channel": 0
                        }, 
                        {
                            "pitch": 59, 
                            "t0": 90240, 
                            "v": 95, 
                            "dur": 864, 
                            "type": "note", 
                            "channel": 3
                        }
                    ]
                ], 
                [
                    90300, 
                    [
                        {
                            "pitch": 47, 
                            "t0": 90300, 
                            "v": 104, 
                            "dur": 216, 
                            "type": "note", 
                            "channel": 6
                        }
                    ]
                ], 
                [
                    90360, 
                    [
                        {
                            "pitch": 36, 
                            "t0": 90360, 
                            "v": 104, 
                            "dur": 57, 
                            "type": "note", 
                            "channel": 9
                        }
                    ]
                ], 
                [
                    90480, 
                    [
                        {
                            "pitch": 46, 
                            "t0": 90480, 
                            "v": 88, 
                            "dur": 57, 
                            "type": "note", 
                            "channel": 9
                        }, 
                        {
                            "pitch": 83, 
                            "t0": 90480, 
                            "v": 104, 
                            "dur": 110, 
                            "type": "note", 
                            "channel": 4
                        }
                    ]
                ], 
                [
                    90540, 
                    [
                        {
                            "pitch": 47, 
                            "t0": 90540, 
                            "v": 104, 
                            "dur": 108, 
                            "type": "note", 
                            "channel": 6
                        }
                    ]
                ], 
                [
                    90600, 
                    [
                        {
                            "pitch": 36, 
                            "t0": 90600, 
                            "v": 104, 
                            "dur": 57, 
                            "type": "note", 
                            "channel": 9
                        }, 
                        {
                            "pitch": 71, 
                            "t0": 90600, 
                            "v": 104, 
                            "dur": 220, 
                            "type": "note", 
                            "channel": 4
                        }
                    ]
                ], 
                [
                    90720, 
                    [
                        {
                            "pitch": 46, 
                            "t0": 90720, 
                            "v": 104, 
                            "dur": 57, 
                            "type": "note", 
                            "channel": 9
                        }, 
                        {
                            "pitch": 38, 
                            "t0": 90720, 
                            "v": 120, 
                            "dur": 57, 
                            "type": "note", 
                            "channel": 9
                        }, 
                        {
                            "pitch": 47, 
                            "t0": 90720, 
                            "v": 104, 
                            "dur": 216, 
                            "type": "note", 
                            "channel": 6
                        }
                    ]
                ], 
                [
                    90840, 
                    [
                        {
                            "pitch": 76, 
                            "t0": 90840, 
                            "v": 104, 
                            "dur": 110, 
                            "type": "note", 
                            "channel": 4
                        }
                    ]
                ], 
                [
                    90960, 
                    [
                        {
                            "pitch": 46, 
                            "t0": 90960, 
                            "v": 88, 
                            "dur": 57, 
                            "type": "note", 
                            "channel": 9
                        }, 
                        {
                            "pitch": 78, 
                            "t0": 90960, 
                            "v": 104, 
                            "dur": 110, 
                            "type": "note", 
                            "channel": 4
                        }, 
                        {
                            "pitch": 42, 
                            "t0": 90960, 
                            "v": 104, 
                            "dur": 216, 
                            "type": "note", 
                            "channel": 6
                        }
                    ]
                ], 
                [
                    91080, 
                    [
                        {
                            "pitch": 83, 
                            "t0": 91080, 
                            "v": 104, 
                            "dur": 1003, 
                            "type": "note", 
                            "channel": 4
                        }
                    ]
                ], 
                [
                    91200, 
                    [
                        {
                            "pitch": 46, 
                            "t0": 91200, 
                            "v": 104, 
                            "dur": 57, 
                            "type": "note", 
                            "channel": 9
                        }, 
                        {
                            "pitch": 36, 
                            "t0": 91200, 
                            "v": 120, 
                            "dur": 57, 
                            "type": "note", 
                            "channel": 9
                        }, 
                        {
                            "pitch": 47, 
                            "t0": 91200, 
                            "v": 104, 
                            "dur": 108, 
                            "type": "note", 
                            "channel": 6
                        }, 
                        {
                            "pitch": 63, 
                            "t0": 91200, 
                            "v": 104, 
                            "dur": 108, 
                            "type": "note", 
                            "channel": 3
                        }
                    ]
                ], 
                [
                    91320, 
                    [
                        {
                            "pitch": 38, 
                            "t0": 91320, 
                            "v": 104, 
                            "dur": 57, 
                            "type": "note", 
                            "channel": 9
                        }, 
                        {
                            "pitch": 42, 
                            "t0": 91320, 
                            "v": 104, 
                            "dur": 108, 
                            "type": "note", 
                            "channel": 6
                        }, 
                        {
                            "pitch": 66, 
                            "t0": 91320, 
                            "v": 104, 
                            "dur": 108, 
                            "type": "note", 
                            "channel": 3
                        }
                    ]
                ], 
                [
                    91440, 
                    [
                        {
                            "pitch": 67, 
                            "t0": 91440, 
                            "v": 104, 
                            "dur": 108, 
                            "type": "note", 
                            "channel": 3
                        }, 
                        {
                            "pitch": 45, 
                            "t0": 91440, 
                            "v": 104, 
                            "dur": 324, 
                            "type": "note", 
                            "channel": 6
                        }
                    ]
                ], 
                [
                    91560, 
                    [
                        {
                            "pitch": 48, 
                            "t0": 91560, 
                            "v": 104, 
                            "dur": 57, 
                            "type": "note", 
                            "channel": 9
                        }, 
                        {
                            "pitch": 63, 
                            "t0": 91560, 
                            "v": 104, 
                            "dur": 108, 
                            "type": "note", 
                            "channel": 3
                        }
                    ]
                ], 
                [
                    91680, 
                    [
                        {
                            "pitch": 48, 
                            "t0": 91680, 
                            "v": 120, 
                            "dur": 57, 
                            "type": "note", 
                            "channel": 9
                        }, 
                        {
                            "pitch": 66, 
                            "t0": 91680, 
                            "v": 104, 
                            "dur": 108, 
                            "type": "note", 
                            "channel": 3
                        }, 
                        {
                            "pitch": 71, 
                            "t0": 91680, 
                            "v": 120, 
                            "dur": 216, 
                            "type": "note", 
                            "channel": 0
                        }, 
                        {
                            "pitch": 75, 
                            "t0": 91680, 
                            "v": 104, 
                            "dur": 220, 
                            "type": "note", 
                            "channel": 10
                        }
                    ]
                ], 
                [
                    91800, 
                    [
                        {
                            "pitch": 48, 
                            "t0": 91800, 
                            "v": 104, 
                            "dur": 57, 
                            "type": "note", 
                            "channel": 9
                        }, 
                        {
                            "pitch": 47, 
                            "t0": 91800, 
                            "v": 104, 
                            "dur": 108, 
                            "type": "note", 
                            "channel": 6
                        }, 
                        {
                            "pitch": 68, 
                            "t0": 91800, 
                            "v": 104, 
                            "dur": 108, 
                            "type": "note", 
                            "channel": 3
                        }
                    ]
                ], 
                [
                    91920, 
                    [
                        {
                            "pitch": 47, 
                            "t0": 91920, 
                            "v": 104, 
                            "dur": 57, 
                            "type": "note", 
                            "channel": 9
                        }, 
                        {
                            "pitch": 51, 
                            "t0": 91920, 
                            "v": 104, 
                            "dur": 216, 
                            "type": "note", 
                            "channel": 6
                        }, 
                        {
                            "pitch": 71, 
                            "t0": 91920, 
                            "parts": [
                                [
                                    91920, 
                                    120
                                ], 
                                [
                                    91920, 
                                    104
                                ], 
                                [
                                    92136, 
                                    0
                                ]
                            ], 
                            "v": 120, 
                            "dur": 216, 
                            "type": "note", 
                            "channel": 1
                        }, 
                        {
                            "pitch": 78, 
                            "t0": 91920, 
                            "v": 104, 
                            "dur": 220, 
                            "type": "note", 
                            "channel": 10
                        }, 
                        {
                            "pitch": 75, 
                            "t0": 91920, 
                            "v": 120, 
                            "dur": 223, 
                            "type": "note", 
                            "channel": 0
                        }
                    ]
                ], 
                [
                    92160, 
                    [
                        {
                            "pitch": 36, 
                            "t0": 92160, 
                            "v": 120, 
                            "dur": 57, 
                            "type": "note", 
                            "channel": 9
                        }, 
                        {
                            "pitch": 49, 
                            "t0": 92160, 
                            "v": 120, 
                            "dur": 57, 
                            "type": "note", 
                            "channel": 9
                        }, 
                        {
                            "pitch": 83, 
                            "t0": 92160, 
                            "v": 104, 
                            "dur": 110, 
                            "type": "note", 
                            "channel": 4
                        }, 
                        {
                            "pitch": 80, 
                            "t0": 92160, 
                            "parts": [
                                [
                                    92160, 
                                    104
                                ], 
                                [
                                    92280, 
                                    104
                                ], 
                                [
                                    92390, 
                                    0
                                ]
                            ], 
                            "v": 104, 
                            "dur": 230, 
                            "type": "note", 
                            "channel": 10
                        }, 
                        {
                            "pitch": 76, 
                            "t0": 92160, 
                            "parts": [
                                [
                                    92160, 
                                    120
                                ], 
                                [
                                    92400, 
                                    104
                                ], 
                                [
                                    92510, 
                                    0
                                ]
                            ], 
                            "v": 120, 
                            "dur": 350, 
                            "type": "note", 
                            "channel": 0
                        }, 
                        {
                            "pitch": 40, 
                            "t0": 92160, 
                            "v": 104, 
                            "dur": 432, 
                            "type": "note", 
                            "channel": 6
                        }, 
                        {
                            "pitch": 59, 
                            "t0": 92160, 
                            "v": 104, 
                            "dur": 864, 
                            "type": "note", 
                            "channel": 3
                        }, 
                        {
                            "pitch": 52, 
                            "t0": 92160, 
                            "v": 104, 
                            "dur": 864, 
                            "type": "note", 
                            "channel": 3
                        }, 
                        {
                            "pitch": 68, 
                            "t0": 92160, 
                            "v": 104, 
                            "dur": 968, 
                            "type": "note", 
                            "channel": 5
                        }, 
                        {
                            "pitch": 64, 
                            "t0": 92160, 
                            "v": 104, 
                            "dur": 968, 
                            "type": "note", 
                            "channel": 5
                        }
                    ]
                ], 
                [
                    92400, 
                    [
                        {
                            "pitch": 46, 
                            "t0": 92400, 
                            "v": 88, 
                            "dur": 57, 
                            "type": "note", 
                            "channel": 9
                        }
                    ]
                ], 
                [
                    92520, 
                    [
                        {
                            "pitch": 83, 
                            "t0": 92520, 
                            "v": 104, 
                            "dur": 110, 
                            "type": "note", 
                            "channel": 4
                        }
                    ]
                ], 
                [
                    92640, 
                    [
                        {
                            "pitch": 38, 
                            "t0": 92640, 
                            "v": 120, 
                            "dur": 57, 
                            "type": "note", 
                            "channel": 9
                        }, 
                        {
                            "pitch": 46, 
                            "t0": 92640, 
                            "v": 104, 
                            "dur": 57, 
                            "type": "note", 
                            "channel": 9
                        }, 
                        {
                            "pitch": 80, 
                            "t0": 92640, 
                            "v": 104, 
                            "dur": 110, 
                            "type": "note", 
                            "channel": 4
                        }, 
                        {
                            "pitch": 40, 
                            "t0": 92640, 
                            "v": 104, 
                            "dur": 216, 
                            "type": "note", 
                            "channel": 6
                        }, 
                        {
                            "pitch": 76, 
                            "t0": 92640, 
                            "parts": [
                                [
                                    92640, 
                                    120
                                ], 
                                [
                                    92760, 
                                    104
                                ], 
                                [
                                    92856, 
                                    0
                                ]
                            ], 
                            "v": 120, 
                            "dur": 216, 
                            "type": "note", 
                            "channel": 0
                        }
                    ]
                ], 
                [
                    92880, 
                    [
                        {
                            "pitch": 36, 
                            "t0": 92880, 
                            "v": 104, 
                            "dur": 57, 
                            "type": "note", 
                            "channel": 9
                        }, 
                        {
                            "pitch": 46, 
                            "t0": 92880, 
                            "v": 88, 
                            "dur": 57, 
                            "type": "note", 
                            "channel": 9
                        }, 
                        {
                            "pitch": 83, 
                            "t0": 92880, 
                            "v": 104, 
                            "dur": 110, 
                            "type": "note", 
                            "channel": 4
                        }, 
                        {
                            "pitch": 44, 
                            "t0": 92880, 
                            "v": 104, 
                            "dur": 216, 
                            "type": "note", 
                            "channel": 6
                        }, 
                        {
                            "pitch": 78, 
                            "t0": 92880, 
                            "v": 120, 
                            "dur": 216, 
                            "type": "note", 
                            "channel": 0
                        }, 
                        {
                            "pitch": 81, 
                            "t0": 92880, 
                            "v": 104, 
                            "dur": 220, 
                            "type": "note", 
                            "channel": 10
                        }
                    ]
                ], 
                [
                    93000, 
                    [
                        {
                            "pitch": 80, 
                            "t0": 93000, 
                            "v": 104, 
                            "dur": 110, 
                            "type": "note", 
                            "channel": 4
                        }
                    ]
                ], 
                [
                    93120, 
                    [
                        {
                            "pitch": 59, 
                            "t0": 93120, 
                            "v": 104, 
                            "dur": 8, 
                            "type": "note", 
                            "channel": 5
                        }, 
                        {
                            "pitch": 36, 
                            "t0": 93120, 
                            "v": 120, 
                            "dur": 57, 
                            "type": "note", 
                            "channel": 9
                        }, 
                        {
                            "pitch": 46, 
                            "t0": 93120, 
                            "v": 104, 
                            "dur": 57, 
                            "type": "note", 
                            "channel": 9
                        }, 
                        {
                            "pitch": 83, 
                            "t0": 93120, 
                            "v": 104, 
                            "dur": 110, 
                            "type": "note", 
                            "channel": 4
                        }, 
                        {
                            "pitch": 76, 
                            "t0": 93120, 
                            "v": 120, 
                            "dur": 216, 
                            "type": "note", 
                            "channel": 0
                        }, 
                        {
                            "pitch": 80, 
                            "t0": 93120, 
                            "v": 104, 
                            "dur": 220, 
                            "type": "note", 
                            "channel": 10
                        }, 
                        {
                            "pitch": 47, 
                            "t0": 93120, 
                            "v": 104, 
                            "dur": 324, 
                            "type": "note", 
                            "channel": 6
                        }, 
                        {
                            "pitch": 69, 
                            "t0": 93120, 
                            "v": 104, 
                            "dur": 864, 
                            "type": "note", 
                            "channel": 3
                        }, 
                        {
                            "pitch": 63, 
                            "t0": 93120, 
                            "v": 104, 
                            "dur": 864, 
                            "type": "note", 
                            "channel": 3
                        }, 
                        {
                            "pitch": 66, 
                            "t0": 93120, 
                            "v": 104, 
                            "dur": 960, 
                            "type": "note", 
                            "channel": 5
                        }
                    ]
                ], 
                [
                    93240, 
                    [
                        {
                            "pitch": 78, 
                            "t0": 93240, 
                            "v": 104, 
                            "dur": 110, 
                            "type": "note", 
                            "channel": 4
                        }
                    ]
                ], 
                [
                    93360, 
                    [
                        {
                            "pitch": 46, 
                            "t0": 93360, 
                            "v": 88, 
                            "dur": 57, 
                            "type": "note", 
                            "channel": 9
                        }, 
                        {
                            "pitch": 75, 
                            "t0": 93360, 
                            "parts": [
                                [
                                    93360, 
                                    120
                                ], 
                                [
                                    93360, 
                                    104
                                ], 
                                [
                                    93470, 
                                    0
                                ]
                            ], 
                            "v": 120, 
                            "dur": 110, 
                            "type": "note", 
                            "channel": 0
                        }, 
                        {
                            "pitch": 78, 
                            "t0": 93360, 
                            "v": 104, 
                            "dur": 220, 
                            "type": "note", 
                            "channel": 10
                        }
                    ]
                ], 
                [
                    93480, 
                    [
                        {
                            "pitch": 47, 
                            "t0": 93480, 
                            "v": 104, 
                            "dur": 108, 
                            "type": "note", 
                            "channel": 6
                        }, 
                        {
                            "pitch": 83, 
                            "t0": 93480, 
                            "v": 104, 
                            "dur": 110, 
                            "type": "note", 
                            "channel": 4
                        }
                    ]
                ], 
                [
                    93600, 
                    [
                        {
                            "pitch": 38, 
                            "t0": 93600, 
                            "v": 120, 
                            "dur": 57, 
                            "type": "note", 
                            "channel": 9
                        }, 
                        {
                            "pitch": 46, 
                            "t0": 93600, 
                            "v": 104, 
                            "dur": 57, 
                            "type": "note", 
                            "channel": 9
                        }, 
                        {
                            "pitch": 78, 
                            "t0": 93600, 
                            "v": 104, 
                            "dur": 110, 
                            "type": "note", 
                            "channel": 4
                        }, 
                        {
                            "pitch": 47, 
                            "t0": 93600, 
                            "v": 104, 
                            "dur": 216, 
                            "type": "note", 
                            "channel": 6
                        }, 
                        {
                            "pitch": 71, 
                            "t0": 93600, 
                            "v": 120, 
                            "dur": 216, 
                            "type": "note", 
                            "channel": 0
                        }, 
                        {
                            "pitch": 75, 
                            "t0": 93600, 
                            "parts": [
                                [
                                    93600, 
                                    104
                                ], 
                                [
                                    93720, 
                                    104
                                ], 
                                [
                                    93820, 
                                    0
                                ]
                            ], 
                            "v": 104, 
                            "dur": 220, 
                            "type": "note", 
                            "channel": 10
                        }
                    ]
                ], 
                [
                    93840, 
                    [
                        {
                            "pitch": 36, 
                            "t0": 93840, 
                            "v": 104, 
                            "dur": 57, 
                            "type": "note", 
                            "channel": 9
                        }, 
                        {
                            "pitch": 46, 
                            "t0": 93840, 
                            "v": 88, 
                            "dur": 57, 
                            "type": "note", 
                            "channel": 9
                        }, 
                        {
                            "pitch": 83, 
                            "t0": 93840, 
                            "v": 104, 
                            "dur": 110, 
                            "type": "note", 
                            "channel": 4
                        }, 
                        {
                            "pitch": 48, 
                            "t0": 93840, 
                            "v": 104, 
                            "dur": 216, 
                            "type": "note", 
                            "channel": 6
                        }, 
                        {
                            "pitch": 71, 
                            "t0": 93840, 
                            "v": 120, 
                            "dur": 216, 
                            "type": "note", 
                            "channel": 1
                        }, 
                        {
                            "pitch": 78, 
                            "t0": 93840, 
                            "v": 104, 
                            "dur": 220, 
                            "type": "note", 
                            "channel": 10
                        }, 
                        {
                            "pitch": 75, 
                            "t0": 93840, 
                            "v": 120, 
                            "dur": 223, 
                            "type": "note", 
                            "channel": 0
                        }
                    ]
                ], 
                [
                    94080, 
                    [
                        {
                            "pitch": 46, 
                            "t0": 94080, 
                            "v": 104, 
                            "dur": 57, 
                            "type": "note", 
                            "channel": 9
                        }, 
                        {
                            "pitch": 36, 
                            "t0": 94080, 
                            "v": 120, 
                            "dur": 57, 
                            "type": "note", 
                            "channel": 9
                        }, 
                        {
                            "pitch": 85, 
                            "t0": 94080, 
                            "v": 104, 
                            "dur": 110, 
                            "type": "note", 
                            "channel": 4
                        }, 
                        {
                            "pitch": 80, 
                            "t0": 94080, 
                            "parts": [
                                [
                                    94080, 
                                    104
                                ], 
                                [
                                    94200, 
                                    104
                                ], 
                                [
                                    94310, 
                                    0
                                ]
                            ], 
                            "v": 104, 
                            "dur": 230, 
                            "type": "note", 
                            "channel": 10
                        }, 
                        {
                            "pitch": 76, 
                            "t0": 94080, 
                            "parts": [
                                [
                                    94080, 
                                    120
                                ], 
                                [
                                    94320, 
                                    104
                                ], 
                                [
                                    94430, 
                                    0
                                ]
                            ], 
                            "v": 120, 
                            "dur": 350, 
                            "type": "note", 
                            "channel": 0
                        }, 
                        {
                            "pitch": 49, 
                            "t0": 94080, 
                            "v": 104, 
                            "dur": 432, 
                            "type": "note", 
                            "channel": 6
                        }, 
                        {
                            "pitch": 68, 
                            "t0": 94080, 
                            "v": 104, 
                            "dur": 864, 
                            "type": "note", 
                            "channel": 3
                        }, 
                        {
                            "pitch": 61, 
                            "t0": 94080, 
                            "v": 104, 
                            "dur": 864, 
                            "type": "note", 
                            "channel": 3
                        }, 
                        {
                            "pitch": 64, 
                            "t0": 94080, 
                            "v": 104, 
                            "dur": 960, 
                            "type": "note", 
                            "channel": 5
                        }
                    ]
                ], 
                [
                    94320, 
                    [
                        {
                            "pitch": 46, 
                            "t0": 94320, 
                            "v": 88, 
                            "dur": 57, 
                            "type": "note", 
                            "channel": 9
                        }
                    ]
                ], 
                [
                    94440, 
                    [
                        {
                            "pitch": 85, 
                            "t0": 94440, 
                            "v": 104, 
                            "dur": 110, 
                            "type": "note", 
                            "channel": 4
                        }
                    ]
                ], 
                [
                    94560, 
                    [
                        {
                            "pitch": 38, 
                            "t0": 94560, 
                            "v": 120, 
                            "dur": 57, 
                            "type": "note", 
                            "channel": 9
                        }, 
                        {
                            "pitch": 46, 
                            "t0": 94560, 
                            "v": 104, 
                            "dur": 57, 
                            "type": "note", 
                            "channel": 9
                        }, 
                        {
                            "pitch": 80, 
                            "t0": 94560, 
                            "v": 104, 
                            "dur": 110, 
                            "type": "note", 
                            "channel": 4
                        }, 
                        {
                            "pitch": 49, 
                            "t0": 94560, 
                            "v": 104, 
                            "dur": 216, 
                            "type": "note", 
                            "channel": 6
                        }, 
                        {
                            "pitch": 76, 
                            "t0": 94560, 
                            "parts": [
                                [
                                    94560, 
                                    120
                                ], 
                                [
                                    94680, 
                                    104
                                ], 
                                [
                                    94776, 
                                    0
                                ]
                            ], 
                            "v": 120, 
                            "dur": 216, 
                            "type": "note", 
                            "channel": 1
                        }
                    ]
                ], 
                [
                    94800, 
                    [
                        {
                            "pitch": 36, 
                            "t0": 94800, 
                            "v": 104, 
                            "dur": 57, 
                            "type": "note", 
                            "channel": 9
                        }, 
                        {
                            "pitch": 46, 
                            "t0": 94800, 
                            "v": 88, 
                            "dur": 57, 
                            "type": "note", 
                            "channel": 9
                        }, 
                        {
                            "pitch": 85, 
                            "t0": 94800, 
                            "v": 104, 
                            "dur": 110, 
                            "type": "note", 
                            "channel": 4
                        }, 
                        {
                            "pitch": 56, 
                            "t0": 94800, 
                            "v": 104, 
                            "dur": 216, 
                            "type": "note", 
                            "channel": 6
                        }, 
                        {
                            "pitch": 78, 
                            "t0": 94800, 
                            "parts": [
                                [
                                    94800, 
                                    121
                                ], 
                                [
                                    94800, 
                                    120
                                ], 
                                [
                                    95016, 
                                    0
                                ]
                            ], 
                            "v": 121, 
                            "dur": 216, 
                            "type": "note", 
                            "channel": 0
                        }, 
                        {
                            "pitch": 81, 
                            "t0": 94800, 
                            "v": 104, 
                            "dur": 220, 
                            "type": "note", 
                            "channel": 10
                        }
                    ]
                ], 
                [
                    94920, 
                    [
                        {
                            "pitch": 80, 
                            "t0": 94920, 
                            "v": 104, 
                            "dur": 110, 
                            "type": "note", 
                            "channel": 4
                        }
                    ]
                ], 
                [
                    95040, 
                    [
                        {
                            "pitch": 36, 
                            "t0": 95040, 
                            "v": 120, 
                            "dur": 57, 
                            "type": "note", 
                            "channel": 9
                        }, 
                        {
                            "pitch": 46, 
                            "t0": 95040, 
                            "v": 104, 
                            "dur": 57, 
                            "type": "note", 
                            "channel": 9
                        }, 
                        {
                            "pitch": 75, 
                            "t0": 95040, 
                            "v": 104, 
                            "dur": 110, 
                            "type": "note", 
                            "channel": 4
                        }, 
                        {
                            "pitch": 76, 
                            "t0": 95040, 
                            "v": 120, 
                            "dur": 216, 
                            "type": "note", 
                            "channel": 0
                        }, 
                        {
                            "pitch": 80, 
                            "t0": 95040, 
                            "v": 104, 
                            "dur": 220, 
                            "type": "note", 
                            "channel": 10
                        }, 
                        {
                            "pitch": 68, 
                            "t0": 95040, 
                            "v": 104, 
                            "dur": 480, 
                            "type": "note", 
                            "channel": 5
                        }, 
                        {
                            "pitch": 59, 
                            "t0": 95040, 
                            "v": 104, 
                            "dur": 480, 
                            "type": "note", 
                            "channel": 5
                        }, 
                        {
                            "pitch": 63, 
                            "t0": 95040, 
                            "v": 104, 
                            "dur": 480, 
                            "type": "note", 
                            "channel": 3
                        }, 
                        {
                            "pitch": 44, 
                            "t0": 95040, 
                            "v": 104, 
                            "dur": 648, 
                            "type": "note", 
                            "channel": 6
                        }, 
                        {
                            "pitch": 56, 
                            "t0": 95040, 
                            "v": 104, 
                            "dur": 864, 
                            "type": "note", 
                            "channel": 3
                        }
                    ]
                ], 
                [
                    95160, 
                    [
                        {
                            "pitch": 71, 
                            "t0": 95160, 
                            "v": 104, 
                            "dur": 110, 
                            "type": "note", 
                            "channel": 4
                        }
                    ]
                ], 
                [
                    95280, 
                    [
                        {
                            "pitch": 46, 
                            "t0": 95280, 
                            "v": 88, 
                            "dur": 57, 
                            "type": "note", 
                            "channel": 9
                        }, 
                        {
                            "pitch": 80, 
                            "t0": 95280, 
                            "v": 104, 
                            "dur": 110, 
                            "type": "note", 
                            "channel": 4
                        }, 
                        {
                            "pitch": 75, 
                            "t0": 95280, 
                            "parts": [
                                [
                                    95280, 
                                    120
                                ], 
                                [
                                    95400, 
                                    104
                                ], 
                                [
                                    95496, 
                                    0
                                ]
                            ], 
                            "v": 120, 
                            "dur": 216, 
                            "type": "note", 
                            "channel": 0
                        }, 
                        {
                            "pitch": 78, 
                            "t0": 95280, 
                            "v": 104, 
                            "dur": 220, 
                            "type": "note", 
                            "channel": 10
                        }
                    ]
                ], 
                [
                    95520, 
                    [
                        {
                            "pitch": 38, 
                            "t0": 95520, 
                            "v": 120, 
                            "dur": 57, 
                            "type": "note", 
                            "channel": 9
                        }, 
                        {
                            "pitch": 46, 
                            "t0": 95520, 
                            "v": 104, 
                            "dur": 57, 
                            "type": "note", 
                            "channel": 9
                        }, 
                        {
                            "pitch": 71, 
                            "t0": 95520, 
                            "parts": [
                                [
                                    95520, 
                                    120
                                ], 
                                [
                                    95520, 
                                    104
                                ], 
                                [
                                    95630, 
                                    0
                                ]
                            ], 
                            "v": 120, 
                            "dur": 110, 
                            "type": "note", 
                            "channel": 0
                        }, 
                        {
                            "pitch": 75, 
                            "t0": 95520, 
                            "v": 104, 
                            "dur": 220, 
                            "type": "note", 
                            "channel": 10
                        }, 
                        {
                            "pitch": 63, 
                            "t0": 95520, 
                            "v": 104, 
                            "dur": 384, 
                            "type": "note", 
                            "channel": 5
                        }, 
                        {
                            "pitch": 66, 
                            "t0": 95520, 
                            "v": 104, 
                            "dur": 480, 
                            "type": "note", 
                            "channel": 5
                        }, 
                        {
                            "pitch": 59, 
                            "t0": 95520, 
                            "v": 104, 
                            "dur": 480, 
                            "type": "note", 
                            "channel": 5
                        }
                    ]
                ], 
                [
                    95640, 
                    [
                        {
                            "pitch": 80, 
                            "t0": 95640, 
                            "v": 104, 
                            "dur": 110, 
                            "type": "note", 
                            "channel": 4
                        }
                    ]
                ], 
                [
                    95760, 
                    [
                        {
                            "pitch": 46, 
                            "t0": 95760, 
                            "v": 88, 
                            "dur": 57, 
                            "type": "note", 
                            "channel": 9
                        }, 
                        {
                            "pitch": 44, 
                            "t0": 95760, 
                            "v": 104, 
                            "dur": 216, 
                            "type": "note", 
                            "channel": 6
                        }, 
                        {
                            "pitch": 71, 
                            "t0": 95760, 
                            "v": 120, 
                            "dur": 216, 
                            "type": "note", 
                            "channel": 0
                        }, 
                        {
                            "pitch": 75, 
                            "t0": 95760, 
                            "v": 104, 
                            "dur": 220, 
                            "type": "note", 
                            "channel": 10
                        }
                    ]
                ], 
                [
                    96000, 
                    [
                        {
                            "pitch": 46, 
                            "t0": 96000, 
                            "v": 104, 
                            "dur": 57, 
                            "type": "note", 
                            "channel": 9
                        }, 
                        {
                            "pitch": 36, 
                            "t0": 96000, 
                            "v": 120, 
                            "dur": 57, 
                            "type": "note", 
                            "channel": 9
                        }, 
                        {
                            "pitch": 81, 
                            "t0": 96000, 
                            "v": 104, 
                            "dur": 110, 
                            "type": "note", 
                            "channel": 4
                        }, 
                        {
                            "pitch": 73, 
                            "t0": 96000, 
                            "parts": [
                                [
                                    96000, 
                                    104
                                ], 
                                [
                                    96240, 
                                    104
                                ], 
                                [
                                    96350, 
                                    0
                                ]
                            ], 
                            "v": 104, 
                            "dur": 350, 
                            "type": "note", 
                            "channel": 10
                        }, 
                        {
                            "pitch": 45, 
                            "t0": 96000, 
                            "v": 104, 
                            "dur": 432, 
                            "type": "note", 
                            "channel": 6
                        }, 
                        {
                            "pitch": 69, 
                            "t0": 96000, 
                            "v": 120, 
                            "dur": 432, 
                            "type": "note", 
                            "channel": 0
                        }, 
                        {
                            "pitch": 64, 
                            "t0": 96000, 
                            "v": 104, 
                            "dur": 864, 
                            "type": "note", 
                            "channel": 3
                        }, 
                        {
                            "pitch": 57, 
                            "t0": 96000, 
                            "v": 104, 
                            "dur": 864, 
                            "type": "note", 
                            "channel": 3
                        }, 
                        {
                            "pitch": 61, 
                            "t0": 96000, 
                            "v": 104, 
                            "dur": 952, 
                            "type": "note", 
                            "channel": 5
                        }
                    ]
                ], 
                [
                    96120, 
                    [
                        {
                            "pitch": 76, 
                            "t0": 96120, 
                            "v": 104, 
                            "dur": 110, 
                            "type": "note", 
                            "channel": 4
                        }
                    ]
                ], 
                [
                    96240, 
                    [
                        {
                            "pitch": 46, 
                            "t0": 96240, 
                            "v": 88, 
                            "dur": 57, 
                            "type": "note", 
                            "channel": 9
                        }
                    ]
                ], 
                [
                    96360, 
                    [
                        {
                            "pitch": 81, 
                            "t0": 96360, 
                            "v": 104, 
                            "dur": 110, 
                            "type": "note", 
                            "channel": 4
                        }
                    ]
                ], 
                [
                    96480, 
                    [
                        {
                            "pitch": 38, 
                            "t0": 96480, 
                            "v": 120, 
                            "dur": 57, 
                            "type": "note", 
                            "channel": 9
                        }, 
                        {
                            "pitch": 46, 
                            "t0": 96480, 
                            "v": 104, 
                            "dur": 57, 
                            "type": "note", 
                            "channel": 9
                        }, 
                        {
                            "pitch": 76, 
                            "t0": 96480, 
                            "v": 104, 
                            "dur": 110, 
                            "type": "note", 
                            "channel": 4
                        }, 
                        {
                            "pitch": 69, 
                            "t0": 96480, 
                            "v": 120, 
                            "dur": 189, 
                            "type": "note", 
                            "channel": 1
                        }, 
                        {
                            "pitch": 45, 
                            "t0": 96480, 
                            "v": 104, 
                            "dur": 216, 
                            "type": "note", 
                            "channel": 6
                        }
                    ]
                ], 
                [
                    96600, 
                    [
                        {
                            "pitch": 73, 
                            "t0": 96600, 
                            "v": 104, 
                            "dur": 62, 
                            "type": "note", 
                            "channel": 4
                        }
                    ]
                ], 
                [
                    96720, 
                    [
                        {
                            "pitch": 36, 
                            "t0": 96720, 
                            "v": 104, 
                            "dur": 57, 
                            "type": "note", 
                            "channel": 9
                        }, 
                        {
                            "pitch": 46, 
                            "t0": 96720, 
                            "v": 88, 
                            "dur": 57, 
                            "type": "note", 
                            "channel": 9
                        }, 
                        {
                            "pitch": 44, 
                            "t0": 96720, 
                            "v": 104, 
                            "dur": 108, 
                            "type": "note", 
                            "channel": 6
                        }, 
                        {
                            "pitch": 81, 
                            "t0": 96720, 
                            "v": 104, 
                            "dur": 110, 
                            "type": "note", 
                            "channel": 4
                        }, 
                        {
                            "pitch": 71, 
                            "t0": 96720, 
                            "v": 120, 
                            "dur": 216, 
                            "type": "note", 
                            "channel": 0
                        }, 
                        {
                            "pitch": 75, 
                            "t0": 96720, 
                            "v": 104, 
                            "dur": 220, 
                            "type": "note", 
                            "channel": 10
                        }
                    ]
                ], 
                [
                    96840, 
                    [
                        {
                            "pitch": 45, 
                            "t0": 96840, 
                            "v": 104, 
                            "dur": 108, 
                            "type": "note", 
                            "channel": 6
                        }, 
                        {
                            "pitch": 76, 
                            "t0": 96840, 
                            "v": 104, 
                            "dur": 110, 
                            "type": "note", 
                            "channel": 4
                        }
                    ]
                ], 
                [
                    96960, 
                    [
                        {
                            "pitch": 36, 
                            "t0": 96960, 
                            "v": 120, 
                            "dur": 57, 
                            "type": "note", 
                            "channel": 9
                        }, 
                        {
                            "pitch": 46, 
                            "t0": 96960, 
                            "v": 104, 
                            "dur": 57, 
                            "type": "note", 
                            "channel": 9
                        }, 
                        {
                            "pitch": 47, 
                            "t0": 96960, 
                            "v": 104, 
                            "dur": 108, 
                            "type": "note", 
                            "channel": 6
                        }, 
                        {
                            "pitch": 83, 
                            "t0": 96960, 
                            "v": 104, 
                            "dur": 110, 
                            "type": "note", 
                            "channel": 4
                        }, 
                        {
                            "pitch": 66, 
                            "t0": 96960, 
                            "parts": [
                                [
                                    96960, 
                                    120
                                ], 
                                [
                                    96960, 
                                    104
                                ], 
                                [
                                    97176, 
                                    0
                                ]
                            ], 
                            "v": 120, 
                            "dur": 216, 
                            "type": "note", 
                            "channel": 0
                        }, 
                        {
                            "pitch": 71, 
                            "t0": 96960, 
                            "v": 104, 
                            "dur": 220, 
                            "type": "note", 
                            "channel": 10
                        }, 
                        {
                            "pitch": 63, 
                            "t0": 96960, 
                            "parts": [
                                [
                                    96960, 
                                    104
                                ], 
                                [
                                    97440, 
                                    120
                                ], 
                                [
                                    97656, 
                                    0
                                ]
                            ], 
                            "v": 104, 
                            "dur": 696, 
                            "type": "note", 
                            "channel": 5
                        }, 
                        {
                            "pitch": 59, 
                            "t0": 96960, 
                            "v": 104, 
                            "dur": 864, 
                            "type": "note", 
                            "channel": 3
                        }
                    ]
                ], 
                [
                    97080, 
                    [
                        {
                            "pitch": 78, 
                            "t0": 97080, 
                            "v": 104, 
                            "dur": 110, 
                            "type": "note", 
                            "channel": 4
                        }, 
                        {
                            "pitch": 47, 
                            "t0": 97080, 
                            "v": 104, 
                            "dur": 216, 
                            "type": "note", 
                            "channel": 6
                        }
                    ]
                ], 
                [
                    97200, 
                    [
                        {
                            "pitch": 46, 
                            "t0": 97200, 
                            "v": 88, 
                            "dur": 57, 
                            "type": "note", 
                            "channel": 9
                        }, 
                        {
                            "pitch": 75, 
                            "t0": 97200, 
                            "v": 104, 
                            "dur": 110, 
                            "type": "note", 
                            "channel": 4
                        }, 
                        {
                            "pitch": 71, 
                            "t0": 97200, 
                            "v": 120, 
                            "dur": 216, 
                            "type": "note", 
                            "channel": 0
                        }
                    ]
                ], 
                [
                    97320, 
                    [
                        {
                            "pitch": 47, 
                            "t0": 97320, 
                            "v": 104, 
                            "dur": 108, 
                            "type": "note", 
                            "channel": 6
                        }, 
                        {
                            "pitch": 83, 
                            "t0": 97320, 
                            "v": 104, 
                            "dur": 110, 
                            "type": "note", 
                            "channel": 4
                        }
                    ]
                ], 
                [
                    97440, 
                    [
                        {
                            "pitch": 38, 
                            "t0": 97440, 
                            "v": 120, 
                            "dur": 57, 
                            "type": "note", 
                            "channel": 9
                        }, 
                        {
                            "pitch": 46, 
                            "t0": 97440, 
                            "v": 104, 
                            "dur": 57, 
                            "type": "note", 
                            "channel": 9
                        }, 
                        {
                            "pitch": 78, 
                            "t0": 97440, 
                            "v": 104, 
                            "dur": 110, 
                            "type": "note", 
                            "channel": 4
                        }, 
                        {
                            "pitch": 68, 
                            "t0": 97440, 
                            "v": 104, 
                            "dur": 220, 
                            "type": "note", 
                            "channel": 10
                        }, 
                        {
                            "pitch": 47, 
                            "t0": 97440, 
                            "v": 104, 
                            "dur": 432, 
                            "type": "note", 
                            "channel": 6
                        }
                    ]
                ], 
                [
                    97560, 
                    [
                        {
                            "pitch": 75, 
                            "t0": 97560, 
                            "v": 104, 
                            "dur": 110, 
                            "type": "note", 
                            "channel": 4
                        }
                    ]
                ], 
                [
                    97680, 
                    [
                        {
                            "pitch": 46, 
                            "t0": 97680, 
                            "v": 88, 
                            "dur": 57, 
                            "type": "note", 
                            "channel": 9
                        }, 
                        {
                            "pitch": 66, 
                            "t0": 97680, 
                            "v": 120, 
                            "dur": 144, 
                            "type": "note", 
                            "channel": 0
                        }, 
                        {
                            "pitch": 71, 
                            "t0": 97680, 
                            "v": 104, 
                            "dur": 220, 
                            "type": "note", 
                            "channel": 10
                        }, 
                        {
                            "pitch": 83, 
                            "t0": 97680, 
                            "v": 104, 
                            "dur": 220, 
                            "type": "note", 
                            "channel": 4
                        }
                    ]
                ], 
                [
                    97920, 
                    [
                        {
                            "pitch": 46, 
                            "t0": 97920, 
                            "v": 104, 
                            "dur": 57, 
                            "type": "note", 
                            "channel": 9
                        }, 
                        {
                            "pitch": 36, 
                            "t0": 97920, 
                            "v": 120, 
                            "dur": 57, 
                            "type": "note", 
                            "channel": 9
                        }, 
                        {
                            "pitch": 83, 
                            "t0": 97920, 
                            "v": 104, 
                            "dur": 110, 
                            "type": "note", 
                            "channel": 4
                        }, 
                        {
                            "pitch": 40, 
                            "t0": 97920, 
                            "v": 104, 
                            "dur": 432, 
                            "type": "note", 
                            "channel": 6
                        }, 
                        {
                            "pitch": 64, 
                            "t0": 97920, 
                            "parts": [
                                [
                                    97920, 
                                    120
                                ], 
                                [
                                    97920, 
                                    104
                                ], 
                                [
                                    98352, 
                                    0
                                ]
                            ], 
                            "v": 120, 
                            "dur": 432, 
                            "type": "note", 
                            "channel": 0
                        }, 
                        {
                            "pitch": 71, 
                            "t0": 97920, 
                            "v": 104, 
                            "dur": 864, 
                            "type": "note", 
                            "channel": 3
                        }, 
                        {
                            "pitch": 68, 
                            "t0": 97920, 
                            "parts": [
                                [
                                    97920, 
                                    104
                                ], 
                                [
                                    98400, 
                                    120
                                ], 
                                [
                                    98803, 
                                    0
                                ]
                            ], 
                            "v": 104, 
                            "dur": 883, 
                            "type": "note", 
                            "channel": 5
                        }, 
                        {
                            "pitch": 59, 
                            "t0": 97920, 
                            "v": 104, 
                            "dur": 960, 
                            "type": "note", 
                            "channel": 5
                        }
                    ]
                ], 
                [
                    98040, 
                    [
                        {
                            "pitch": 80, 
                            "t0": 98040, 
                            "v": 104, 
                            "dur": 110, 
                            "type": "note", 
                            "channel": 4
                        }
                    ]
                ], 
                [
                    98160, 
                    [
                        {
                            "pitch": 46, 
                            "t0": 98160, 
                            "v": 88, 
                            "dur": 57, 
                            "type": "note", 
                            "channel": 9
                        }, 
                        {
                            "pitch": 76, 
                            "t0": 98160, 
                            "v": 104, 
                            "dur": 110, 
                            "type": "note", 
                            "channel": 4
                        }
                    ]
                ], 
                [
                    98280, 
                    [
                        {
                            "pitch": 83, 
                            "t0": 98280, 
                            "v": 104, 
                            "dur": 110, 
                            "type": "note", 
                            "channel": 4
                        }
                    ]
                ], 
                [
                    98400, 
                    [
                        {
                            "pitch": 46, 
                            "t0": 98400, 
                            "v": 104, 
                            "dur": 57, 
                            "type": "note", 
                            "channel": 9
                        }, 
                        {
                            "pitch": 38, 
                            "t0": 98400, 
                            "v": 120, 
                            "dur": 57, 
                            "type": "note", 
                            "channel": 9
                        }, 
                        {
                            "pitch": 40, 
                            "t0": 98400, 
                            "v": 104, 
                            "dur": 108, 
                            "type": "note", 
                            "channel": 6
                        }, 
                        {
                            "pitch": 80, 
                            "t0": 98400, 
                            "v": 104, 
                            "dur": 110, 
                            "type": "note", 
                            "channel": 4
                        }
                    ]
                ], 
                [
                    98520, 
                    [
                        {
                            "pitch": 76, 
                            "t0": 98520, 
                            "v": 104, 
                            "dur": 110, 
                            "type": "note", 
                            "channel": 4
                        }, 
                        {
                            "pitch": 44, 
                            "t0": 98520, 
                            "v": 104, 
                            "dur": 216, 
                            "type": "note", 
                            "channel": 6
                        }
                    ]
                ], 
                [
                    98640, 
                    [
                        {
                            "pitch": 46, 
                            "t0": 98640, 
                            "v": 88, 
                            "dur": 57, 
                            "type": "note", 
                            "channel": 9
                        }, 
                        {
                            "pitch": 36, 
                            "t0": 98640, 
                            "v": 104, 
                            "dur": 57, 
                            "type": "note", 
                            "channel": 9
                        }, 
                        {
                            "pitch": 83, 
                            "t0": 98640, 
                            "v": 104, 
                            "dur": 110, 
                            "type": "note", 
                            "channel": 4
                        }
                    ]
                ], 
                [
                    98760, 
                    [
                        {
                            "pitch": 45, 
                            "t0": 98760, 
                            "v": 104, 
                            "dur": 108, 
                            "type": "note", 
                            "channel": 6
                        }, 
                        {
                            "pitch": 80, 
                            "t0": 98760, 
                            "v": 104, 
                            "dur": 110, 
                            "type": "note", 
                            "channel": 4
                        }
                    ]
                ], 
                [
                    98880, 
                    [
                        {
                            "pitch": 46, 
                            "t0": 98880, 
                            "v": 104, 
                            "dur": 57, 
                            "type": "note", 
                            "channel": 9
                        }, 
                        {
                            "pitch": 36, 
                            "t0": 98880, 
                            "v": 120, 
                            "dur": 57, 
                            "type": "note", 
                            "channel": 9
                        }, 
                        {
                            "pitch": 83, 
                            "t0": 98880, 
                            "v": 104, 
                            "dur": 110, 
                            "type": "note", 
                            "channel": 4
                        }, 
                        {
                            "pitch": 47, 
                            "t0": 98880, 
                            "v": 104, 
                            "dur": 216, 
                            "type": "note", 
                            "channel": 6
                        }, 
                        {
                            "pitch": 69, 
                            "t0": 98880, 
                            "v": 120, 
                            "dur": 432, 
                            "type": "note", 
                            "channel": 1
                        }, 
                        {
                            "pitch": 66, 
                            "t0": 98880, 
                            "v": 104, 
                            "dur": 864, 
                            "type": "note", 
                            "channel": 3
                        }, 
                        {
                            "pitch": 59, 
                            "t0": 98880, 
                            "v": 104, 
                            "dur": 864, 
                            "type": "note", 
                            "channel": 3
                        }, 
                        {
                            "pitch": 63, 
                            "t0": 98880, 
                            "v": 104, 
                            "dur": 960, 
                            "type": "note", 
                            "channel": 5
                        }
                    ]
                ], 
                [
                    99000, 
                    [
                        {
                            "pitch": 78, 
                            "t0": 99000, 
                            "v": 104, 
                            "dur": 110, 
                            "type": "note", 
                            "channel": 4
                        }
                    ]
                ], 
                [
                    99120, 
                    [
                        {
                            "pitch": 46, 
                            "t0": 99120, 
                            "v": 88, 
                            "dur": 57, 
                            "type": "note", 
                            "channel": 9
                        }, 
                        {
                            "pitch": 75, 
                            "t0": 99120, 
                            "v": 104, 
                            "dur": 110, 
                            "type": "note", 
                            "channel": 4
                        }, 
                        {
                            "pitch": 47, 
                            "t0": 99120, 
                            "v": 104, 
                            "dur": 216, 
                            "type": "note", 
                            "channel": 6
                        }
                    ]
                ], 
                [
                    99240, 
                    [
                        {
                            "pitch": 83, 
                            "t0": 99240, 
                            "v": 104, 
                            "dur": 110, 
                            "type": "note", 
                            "channel": 4
                        }
                    ]
                ], 
                [
                    99360, 
                    [
                        {
                            "pitch": 46, 
                            "t0": 99360, 
                            "v": 104, 
                            "dur": 57, 
                            "type": "note", 
                            "channel": 9
                        }, 
                        {
                            "pitch": 38, 
                            "t0": 99360, 
                            "v": 120, 
                            "dur": 57, 
                            "type": "note", 
                            "channel": 9
                        }, 
                        {
                            "pitch": 51, 
                            "t0": 99360, 
                            "v": 104, 
                            "dur": 216, 
                            "type": "note", 
                            "channel": 6
                        }, 
                        {
                            "pitch": 71, 
                            "t0": 99360, 
                            "v": 120, 
                            "dur": 216, 
                            "type": "note", 
                            "channel": 0
                        }, 
                        {
                            "pitch": 75, 
                            "t0": 99360, 
                            "v": 104, 
                            "dur": 223, 
                            "type": "note", 
                            "channel": 10
                        }, 
                        {
                            "pitch": 78, 
                            "t0": 99360, 
                            "parts": [
                                [
                                    99360, 
                                    104
                                ], 
                                [
                                    99600, 
                                    104
                                ], 
                                [
                                    99801, 
                                    0
                                ]
                            ], 
                            "v": 104, 
                            "dur": 441, 
                            "type": "note", 
                            "channel": 4
                        }
                    ]
                ], 
                [
                    99600, 
                    [
                        {
                            "pitch": 49, 
                            "t0": 99600, 
                            "v": 120, 
                            "dur": 57, 
                            "type": "note", 
                            "channel": 9
                        }, 
                        {
                            "pitch": 36, 
                            "t0": 99600, 
                            "v": 104, 
                            "dur": 57, 
                            "type": "note", 
                            "channel": 9
                        }, 
                        {
                            "pitch": 54, 
                            "t0": 99600, 
                            "v": 104, 
                            "dur": 216, 
                            "type": "note", 
                            "channel": 6
                        }, 
                        {
                            "pitch": 71, 
                            "t0": 99600, 
                            "v": 120, 
                            "dur": 216, 
                            "type": "note", 
                            "channel": 1
                        }, 
                        {
                            "pitch": 75, 
                            "t0": 99600, 
                            "v": 120, 
                            "dur": 223, 
                            "type": "note", 
                            "channel": 0
                        }
                    ]
                ], 
                [
                    99840, 
                    [
                        {
                            "pitch": 36, 
                            "t0": 99840, 
                            "v": 120, 
                            "dur": 57, 
                            "type": "note", 
                            "channel": 9
                        }, 
                        {
                            "pitch": 49, 
                            "t0": 99840, 
                            "v": 120, 
                            "dur": 57, 
                            "type": "note", 
                            "channel": 9
                        }, 
                        {
                            "pitch": 83, 
                            "t0": 99840, 
                            "v": 104, 
                            "dur": 110, 
                            "type": "note", 
                            "channel": 4
                        }, 
                        {
                            "pitch": 80, 
                            "t0": 99840, 
                            "parts": [
                                [
                                    99840, 
                                    104
                                ], 
                                [
                                    99960, 
                                    104
                                ], 
                                [
                                    100070, 
                                    0
                                ]
                            ], 
                            "v": 104, 
                            "dur": 230, 
                            "type": "note", 
                            "channel": 10
                        }, 
                        {
                            "pitch": 76, 
                            "t0": 99840, 
                            "parts": [
                                [
                                    99840, 
                                    120
                                ], 
                                [
                                    100080, 
                                    104
                                ], 
                                [
                                    100190, 
                                    0
                                ]
                            ], 
                            "v": 120, 
                            "dur": 350, 
                            "type": "note", 
                            "channel": 0
                        }, 
                        {
                            "pitch": 40, 
                            "t0": 99840, 
                            "v": 104, 
                            "dur": 432, 
                            "type": "note", 
                            "channel": 6
                        }, 
                        {
                            "pitch": 59, 
                            "t0": 99840, 
                            "v": 104, 
                            "dur": 864, 
                            "type": "note", 
                            "channel": 3
                        }, 
                        {
                            "pitch": 52, 
                            "t0": 99840, 
                            "v": 104, 
                            "dur": 864, 
                            "type": "note", 
                            "channel": 3
                        }, 
                        {
                            "pitch": 68, 
                            "t0": 99840, 
                            "v": 104, 
                            "dur": 960, 
                            "type": "note", 
                            "channel": 5
                        }, 
                        {
                            "pitch": 64, 
                            "t0": 99840, 
                            "v": 104, 
                            "dur": 960, 
                            "type": "note", 
                            "channel": 5
                        }
                    ]
                ], 
                [
                    100080, 
                    [
                        {
                            "pitch": 46, 
                            "t0": 100080, 
                            "v": 88, 
                            "dur": 57, 
                            "type": "note", 
                            "channel": 9
                        }
                    ]
                ], 
                [
                    100200, 
                    [
                        {
                            "pitch": 83, 
                            "t0": 100200, 
                            "v": 104, 
                            "dur": 110, 
                            "type": "note", 
                            "channel": 4
                        }
                    ]
                ], 
                [
                    100320, 
                    [
                        {
                            "pitch": 46, 
                            "t0": 100320, 
                            "v": 104, 
                            "dur": 57, 
                            "type": "note", 
                            "channel": 9
                        }, 
                        {
                            "pitch": 38, 
                            "t0": 100320, 
                            "v": 120, 
                            "dur": 57, 
                            "type": "note", 
                            "channel": 9
                        }, 
                        {
                            "pitch": 80, 
                            "t0": 100320, 
                            "v": 104, 
                            "dur": 110, 
                            "type": "note", 
                            "channel": 4
                        }, 
                        {
                            "pitch": 40, 
                            "t0": 100320, 
                            "v": 104, 
                            "dur": 216, 
                            "type": "note", 
                            "channel": 6
                        }, 
                        {
                            "pitch": 76, 
                            "t0": 100320, 
                            "parts": [
                                [
                                    100320, 
                                    120
                                ], 
                                [
                                    100440, 
                                    104
                                ], 
                                [
                                    100536, 
                                    0
                                ]
                            ], 
                            "v": 120, 
                            "dur": 216, 
                            "type": "note", 
                            "channel": 0
                        }
                    ]
                ], 
                [
                    100560, 
                    [
                        {
                            "pitch": 46, 
                            "t0": 100560, 
                            "v": 88, 
                            "dur": 57, 
                            "type": "note", 
                            "channel": 9
                        }, 
                        {
                            "pitch": 36, 
                            "t0": 100560, 
                            "v": 104, 
                            "dur": 57, 
                            "type": "note", 
                            "channel": 9
                        }, 
                        {
                            "pitch": 83, 
                            "t0": 100560, 
                            "v": 104, 
                            "dur": 110, 
                            "type": "note", 
                            "channel": 4
                        }, 
                        {
                            "pitch": 44, 
                            "t0": 100560, 
                            "v": 104, 
                            "dur": 216, 
                            "type": "note", 
                            "channel": 6
                        }, 
                        {
                            "pitch": 78, 
                            "t0": 100560, 
                            "v": 120, 
                            "dur": 216, 
                            "type": "note", 
                            "channel": 0
                        }, 
                        {
                            "pitch": 81, 
                            "t0": 100560, 
                            "v": 104, 
                            "dur": 223, 
                            "type": "note", 
                            "channel": 10
                        }
                    ]
                ], 
                [
                    100680, 
                    [
                        {
                            "pitch": 80, 
                            "t0": 100680, 
                            "v": 104, 
                            "dur": 110, 
                            "type": "note", 
                            "channel": 4
                        }
                    ]
                ], 
                [
                    100800, 
                    [
                        {
                            "pitch": 46, 
                            "t0": 100800, 
                            "v": 104, 
                            "dur": 57, 
                            "type": "note", 
                            "channel": 9
                        }, 
                        {
                            "pitch": 36, 
                            "t0": 100800, 
                            "v": 120, 
                            "dur": 57, 
                            "type": "note", 
                            "channel": 9
                        }, 
                        {
                            "pitch": 47, 
                            "t0": 100800, 
                            "v": 104, 
                            "dur": 108, 
                            "type": "note", 
                            "channel": 6
                        }, 
                        {
                            "pitch": 83, 
                            "t0": 100800, 
                            "v": 104, 
                            "dur": 110, 
                            "type": "note", 
                            "channel": 4
                        }, 
                        {
                            "pitch": 76, 
                            "t0": 100800, 
                            "v": 120, 
                            "dur": 216, 
                            "type": "note", 
                            "channel": 0
                        }, 
                        {
                            "pitch": 80, 
                            "t0": 100800, 
                            "v": 104, 
                            "dur": 223, 
                            "type": "note", 
                            "channel": 10
                        }, 
                        {
                            "pitch": 59, 
                            "t0": 100800, 
                            "v": 104, 
                            "dur": 864, 
                            "type": "note", 
                            "channel": 3
                        }, 
                        {
                            "pitch": 66, 
                            "t0": 100800, 
                            "v": 104, 
                            "dur": 864, 
                            "type": "note", 
                            "channel": 3
                        }, 
                        {
                            "pitch": 63, 
                            "t0": 100800, 
                            "v": 104, 
                            "dur": 944, 
                            "type": "note", 
                            "channel": 5
                        }
                    ]
                ], 
                [
                    100920, 
                    [
                        {
                            "pitch": 78, 
                            "t0": 100920, 
                            "v": 104, 
                            "dur": 110, 
                            "type": "note", 
                            "channel": 4
                        }, 
                        {
                            "pitch": 47, 
                            "t0": 100920, 
                            "v": 104, 
                            "dur": 216, 
                            "type": "note", 
                            "channel": 6
                        }
                    ]
                ], 
                [
                    101040, 
                    [
                        {
                            "pitch": 46, 
                            "t0": 101040, 
                            "v": 88, 
                            "dur": 57, 
                            "type": "note", 
                            "channel": 9
                        }, 
                        {
                            "pitch": 75, 
                            "t0": 101040, 
                            "parts": [
                                [
                                    101040, 
                                    120
                                ], 
                                [
                                    101040, 
                                    104
                                ], 
                                [
                                    101150, 
                                    0
                                ]
                            ], 
                            "v": 120, 
                            "dur": 110, 
                            "type": "note", 
                            "channel": 0
                        }, 
                        {
                            "pitch": 78, 
                            "t0": 101040, 
                            "v": 104, 
                            "dur": 223, 
                            "type": "note", 
                            "channel": 10
                        }
                    ]
                ], 
                [
                    101160, 
                    [
                        {
                            "pitch": 47, 
                            "t0": 101160, 
                            "v": 104, 
                            "dur": 108, 
                            "type": "note", 
                            "channel": 6
                        }, 
                        {
                            "pitch": 83, 
                            "t0": 101160, 
                            "v": 104, 
                            "dur": 110, 
                            "type": "note", 
                            "channel": 4
                        }
                    ]
                ], 
                [
                    101280, 
                    [
                        {
                            "pitch": 46, 
                            "t0": 101280, 
                            "v": 104, 
                            "dur": 57, 
                            "type": "note", 
                            "channel": 9
                        }, 
                        {
                            "pitch": 38, 
                            "t0": 101280, 
                            "v": 120, 
                            "dur": 57, 
                            "type": "note", 
                            "channel": 9
                        }, 
                        {
                            "pitch": 78, 
                            "t0": 101280, 
                            "v": 104, 
                            "dur": 110, 
                            "type": "note", 
                            "channel": 4
                        }, 
                        {
                            "pitch": 47, 
                            "t0": 101280, 
                            "v": 104, 
                            "dur": 216, 
                            "type": "note", 
                            "channel": 6
                        }, 
                        {
                            "pitch": 71, 
                            "t0": 101280, 
                            "v": 120, 
                            "dur": 216, 
                            "type": "note", 
                            "channel": 0
                        }, 
                        {
                            "pitch": 75, 
                            "t0": 101280, 
                            "parts": [
                                [
                                    101280, 
                                    104
                                ], 
                                [
                                    101400, 
                                    104
                                ], 
                                [
                                    101503, 
                                    0
                                ]
                            ], 
                            "v": 104, 
                            "dur": 223, 
                            "type": "note", 
                            "channel": 10
                        }
                    ]
                ], 
                [
                    101520, 
                    [
                        {
                            "pitch": 46, 
                            "t0": 101520, 
                            "v": 88, 
                            "dur": 57, 
                            "type": "note", 
                            "channel": 9
                        }, 
                        {
                            "pitch": 36, 
                            "t0": 101520, 
                            "v": 104, 
                            "dur": 57, 
                            "type": "note", 
                            "channel": 9
                        }, 
                        {
                            "pitch": 83, 
                            "t0": 101520, 
                            "v": 104, 
                            "dur": 110, 
                            "type": "note", 
                            "channel": 4
                        }, 
                        {
                            "pitch": 48, 
                            "t0": 101520, 
                            "v": 104, 
                            "dur": 216, 
                            "type": "note", 
                            "channel": 6
                        }, 
                        {
                            "pitch": 75, 
                            "t0": 101520, 
                            "v": 120, 
                            "dur": 216, 
                            "type": "note", 
                            "channel": 0
                        }, 
                        {
                            "pitch": 78, 
                            "t0": 101520, 
                            "v": 104, 
                            "dur": 223, 
                            "type": "note", 
                            "channel": 10
                        }
                    ]
                ], 
                [
                    101640, 
                    [
                        {
                            "pitch": 85, 
                            "t0": 101640, 
                            "v": 104, 
                            "dur": 110, 
                            "type": "note", 
                            "channel": 4
                        }
                    ]
                ], 
                [
                    101760, 
                    [
                        {
                            "pitch": 46, 
                            "t0": 101760, 
                            "v": 104, 
                            "dur": 57, 
                            "type": "note", 
                            "channel": 9
                        }, 
                        {
                            "pitch": 36, 
                            "t0": 101760, 
                            "v": 120, 
                            "dur": 57, 
                            "type": "note", 
                            "channel": 9
                        }, 
                        {
                            "pitch": 80, 
                            "t0": 101760, 
                            "v": 104, 
                            "dur": 110, 
                            "type": "note", 
                            "channel": 4
                        }, 
                        {
                            "pitch": 76, 
                            "t0": 101760, 
                            "parts": [
                                [
                                    101760, 
                                    120
                                ], 
                                [
                                    101880, 
                                    104
                                ], 
                                [
                                    101990, 
                                    0
                                ]
                            ], 
                            "v": 120, 
                            "dur": 230, 
                            "type": "note", 
                            "channel": 0
                        }, 
                        {
                            "pitch": 49, 
                            "t0": 101760, 
                            "v": 104, 
                            "dur": 432, 
                            "type": "note", 
                            "channel": 6
                        }, 
                        {
                            "pitch": 68, 
                            "t0": 101760, 
                            "v": 104, 
                            "dur": 864, 
                            "type": "note", 
                            "channel": 3
                        }, 
                        {
                            "pitch": 61, 
                            "t0": 101760, 
                            "v": 104, 
                            "dur": 864, 
                            "type": "note", 
                            "channel": 3
                        }, 
                        {
                            "pitch": 64, 
                            "t0": 101760, 
                            "v": 104, 
                            "dur": 944, 
                            "type": "note", 
                            "channel": 5
                        }
                    ]
                ], 
                [
                    102000, 
                    [
                        {
                            "pitch": 46, 
                            "t0": 102000, 
                            "v": 88, 
                            "dur": 57, 
                            "type": "note", 
                            "channel": 9
                        }, 
                        {
                            "pitch": 85, 
                            "t0": 102000, 
                            "v": 104, 
                            "dur": 110, 
                            "type": "note", 
                            "channel": 4
                        }
                    ]
                ], 
                [
                    102120, 
                    [
                        {
                            "pitch": 80, 
                            "t0": 102120, 
                            "v": 104, 
                            "dur": 86, 
                            "type": "note", 
                            "channel": 4
                        }
                    ]
                ], 
                [
                    102240, 
                    [
                        {
                            "pitch": 38, 
                            "t0": 102240, 
                            "v": 120, 
                            "dur": 57, 
                            "type": "note", 
                            "channel": 9
                        }, 
                        {
                            "pitch": 46, 
                            "t0": 102240, 
                            "v": 104, 
                            "dur": 57, 
                            "type": "note", 
                            "channel": 9
                        }, 
                        {
                            "pitch": 76, 
                            "t0": 102240, 
                            "parts": [
                                [
                                    102240, 
                                    120
                                ], 
                                [
                                    102240, 
                                    104
                                ], 
                                [
                                    102350, 
                                    0
                                ]
                            ], 
                            "v": 120, 
                            "dur": 110, 
                            "type": "note", 
                            "channel": 0
                        }, 
                        {
                            "pitch": 49, 
                            "t0": 102240, 
                            "v": 104, 
                            "dur": 216, 
                            "type": "note", 
                            "channel": 6
                        }, 
                        {
                            "pitch": 80, 
                            "t0": 102240, 
                            "v": 104, 
                            "dur": 223, 
                            "type": "note", 
                            "channel": 10
                        }
                    ]
                ], 
                [
                    102360, 
                    [
                        {
                            "pitch": 85, 
                            "t0": 102360, 
                            "v": 104, 
                            "dur": 220, 
                            "type": "note", 
                            "channel": 4
                        }
                    ]
                ], 
                [
                    102480, 
                    [
                        {
                            "pitch": 36, 
                            "t0": 102480, 
                            "v": 104, 
                            "dur": 57, 
                            "type": "note", 
                            "channel": 9
                        }, 
                        {
                            "pitch": 46, 
                            "t0": 102480, 
                            "v": 88, 
                            "dur": 57, 
                            "type": "note", 
                            "channel": 9
                        }, 
                        {
                            "pitch": 56, 
                            "t0": 102480, 
                            "v": 104, 
                            "dur": 216, 
                            "type": "note", 
                            "channel": 6
                        }, 
                        {
                            "pitch": 78, 
                            "t0": 102480, 
                            "v": 120, 
                            "dur": 216, 
                            "type": "note", 
                            "channel": 0
                        }, 
                        {
                            "pitch": 81, 
                            "t0": 102480, 
                            "v": 104, 
                            "dur": 223, 
                            "type": "note", 
                            "channel": 10
                        }
                    ]
                ], 
                [
                    102600, 
                    [
                        {
                            "pitch": 80, 
                            "t0": 102600, 
                            "v": 104, 
                            "dur": 110, 
                            "type": "note", 
                            "channel": 4
                        }
                    ]
                ], 
                [
                    102720, 
                    [
                        {
                            "pitch": 36, 
                            "t0": 102720, 
                            "v": 120, 
                            "dur": 57, 
                            "type": "note", 
                            "channel": 9
                        }, 
                        {
                            "pitch": 46, 
                            "t0": 102720, 
                            "v": 104, 
                            "dur": 57, 
                            "type": "note", 
                            "channel": 9
                        }, 
                        {
                            "pitch": 44, 
                            "t0": 102720, 
                            "v": 104, 
                            "dur": 108, 
                            "type": "note", 
                            "channel": 6
                        }, 
                        {
                            "pitch": 75, 
                            "t0": 102720, 
                            "v": 104, 
                            "dur": 110, 
                            "type": "note", 
                            "channel": 4
                        }, 
                        {
                            "pitch": 76, 
                            "t0": 102720, 
                            "v": 120, 
                            "dur": 216, 
                            "type": "note", 
                            "channel": 0
                        }, 
                        {
                            "pitch": 80, 
                            "t0": 102720, 
                            "v": 104, 
                            "dur": 223, 
                            "type": "note", 
                            "channel": 10
                        }, 
                        {
                            "pitch": 68, 
                            "t0": 102720, 
                            "v": 104, 
                            "dur": 456, 
                            "type": "note", 
                            "channel": 5
                        }, 
                        {
                            "pitch": 59, 
                            "t0": 102720, 
                            "v": 104, 
                            "dur": 456, 
                            "type": "note", 
                            "channel": 5
                        }, 
                        {
                            "pitch": 63, 
                            "t0": 102720, 
                            "v": 104, 
                            "dur": 456, 
                            "type": "note", 
                            "channel": 3
                        }, 
                        {
                            "pitch": 56, 
                            "t0": 102720, 
                            "v": 104, 
                            "dur": 864, 
                            "type": "note", 
                            "channel": 3
                        }
                    ]
                ], 
                [
                    102840, 
                    [
                        {
                            "pitch": 71, 
                            "t0": 102840, 
                            "v": 104, 
                            "dur": 110, 
                            "type": "note", 
                            "channel": 4
                        }, 
                        {
                            "pitch": 44, 
                            "t0": 102840, 
                            "v": 104, 
                            "dur": 216, 
                            "type": "note", 
                            "channel": 6
                        }
                    ]
                ], 
                [
                    102960, 
                    [
                        {
                            "pitch": 46, 
                            "t0": 102960, 
                            "v": 88, 
                            "dur": 57, 
                            "type": "note", 
                            "channel": 9
                        }, 
                        {
                            "pitch": 80, 
                            "t0": 102960, 
                            "v": 104, 
                            "dur": 110, 
                            "type": "note", 
                            "channel": 4
                        }, 
                        {
                            "pitch": 75, 
                            "t0": 102960, 
                            "parts": [
                                [
                                    102960, 
                                    120
                                ], 
                                [
                                    103080, 
                                    104
                                ], 
                                [
                                    103176, 
                                    0
                                ]
                            ], 
                            "v": 120, 
                            "dur": 216, 
                            "type": "note", 
                            "channel": 0
                        }, 
                        {
                            "pitch": 78, 
                            "t0": 102960, 
                            "v": 104, 
                            "dur": 223, 
                            "type": "note", 
                            "channel": 10
                        }
                    ]
                ], 
                [
                    103080, 
                    [
                        {
                            "pitch": 44, 
                            "t0": 103080, 
                            "v": 104, 
                            "dur": 108, 
                            "type": "note", 
                            "channel": 6
                        }
                    ]
                ], 
                [
                    103200, 
                    [
                        {
                            "pitch": 38, 
                            "t0": 103200, 
                            "v": 120, 
                            "dur": 57, 
                            "type": "note", 
                            "channel": 9
                        }, 
                        {
                            "pitch": 46, 
                            "t0": 103200, 
                            "v": 104, 
                            "dur": 57, 
                            "type": "note", 
                            "channel": 9
                        }, 
                        {
                            "pitch": 71, 
                            "t0": 103200, 
                            "parts": [
                                [
                                    103200, 
                                    120
                                ], 
                                [
                                    103200, 
                                    104
                                ], 
                                [
                                    103310, 
                                    0
                                ]
                            ], 
                            "v": 120, 
                            "dur": 110, 
                            "type": "note", 
                            "channel": 0
                        }, 
                        {
                            "pitch": 44, 
                            "t0": 103200, 
                            "v": 104, 
                            "dur": 216, 
                            "type": "note", 
                            "channel": 6
                        }, 
                        {
                            "pitch": 75, 
                            "t0": 103200, 
                            "v": 104, 
                            "dur": 223, 
                            "type": "note", 
                            "channel": 10
                        }, 
                        {
                            "pitch": 63, 
                            "t0": 103200, 
                            "v": 104, 
                            "dur": 384, 
                            "type": "note", 
                            "channel": 5
                        }, 
                        {
                            "pitch": 66, 
                            "t0": 103200, 
                            "v": 104, 
                            "dur": 456, 
                            "type": "note", 
                            "channel": 5
                        }, 
                        {
                            "pitch": 59, 
                            "t0": 103200, 
                            "v": 104, 
                            "dur": 456, 
                            "type": "note", 
                            "channel": 5
                        }
                    ]
                ], 
                [
                    103320, 
                    [
                        {
                            "pitch": 80, 
                            "t0": 103320, 
                            "v": 104, 
                            "dur": 110, 
                            "type": "note", 
                            "channel": 4
                        }
                    ]
                ], 
                [
                    103440, 
                    [
                        {
                            "pitch": 46, 
                            "t0": 103440, 
                            "v": 88, 
                            "dur": 57, 
                            "type": "note", 
                            "channel": 9
                        }, 
                        {
                            "pitch": 44, 
                            "t0": 103440, 
                            "v": 104, 
                            "dur": 216, 
                            "type": "note", 
                            "channel": 6
                        }, 
                        {
                            "pitch": 71, 
                            "t0": 103440, 
                            "v": 120, 
                            "dur": 216, 
                            "type": "note", 
                            "channel": 0
                        }, 
                        {
                            "pitch": 75, 
                            "t0": 103440, 
                            "v": 104, 
                            "dur": 223, 
                            "type": "note", 
                            "channel": 10
                        }
                    ]
                ], 
                [
                    103680, 
                    [
                        {
                            "pitch": 46, 
                            "t0": 103680, 
                            "v": 104, 
                            "dur": 57, 
                            "type": "note", 
                            "channel": 9
                        }, 
                        {
                            "pitch": 36, 
                            "t0": 103680, 
                            "v": 120, 
                            "dur": 57, 
                            "type": "note", 
                            "channel": 9
                        }, 
                        {
                            "pitch": 81, 
                            "t0": 103680, 
                            "v": 104, 
                            "dur": 111, 
                            "type": "note", 
                            "channel": 4
                        }, 
                        {
                            "pitch": 73, 
                            "t0": 103680, 
                            "parts": [
                                [
                                    103680, 
                                    104
                                ], 
                                [
                                    103920, 
                                    104
                                ], 
                                [
                                    104031, 
                                    0
                                ]
                            ], 
                            "v": 104, 
                            "dur": 351, 
                            "type": "note", 
                            "channel": 10
                        }, 
                        {
                            "pitch": 45, 
                            "t0": 103680, 
                            "v": 104, 
                            "dur": 432, 
                            "type": "note", 
                            "channel": 6
                        }, 
                        {
                            "pitch": 69, 
                            "t0": 103680, 
                            "v": 120, 
                            "dur": 441, 
                            "type": "note", 
                            "channel": 0
                        }, 
                        {
                            "pitch": 61, 
                            "t0": 103680, 
                            "v": 104, 
                            "dur": 940, 
                            "type": "note", 
                            "channel": 5
                        }, 
                        {
                            "pitch": 57, 
                            "t0": 103680, 
                            "v": 104, 
                            "dur": 940, 
                            "type": "note", 
                            "channel": 5
                        }, 
                        {
                            "pitch": 64, 
                            "t0": 103680, 
                            "v": 104, 
                            "dur": 940, 
                            "type": "note", 
                            "channel": 5
                        }
                    ]
                ], 
                [
                    103800, 
                    [
                        {
                            "pitch": 76, 
                            "t0": 103800, 
                            "v": 104, 
                            "dur": 111, 
                            "type": "note", 
                            "channel": 4
                        }
                    ]
                ], 
                [
                    103920, 
                    [
                        {
                            "pitch": 46, 
                            "t0": 103920, 
                            "v": 88, 
                            "dur": 57, 
                            "type": "note", 
                            "channel": 9
                        }
                    ]
                ], 
                [
                    104040, 
                    [
                        {
                            "pitch": 81, 
                            "t0": 104040, 
                            "v": 104, 
                            "dur": 111, 
                            "type": "note", 
                            "channel": 4
                        }
                    ]
                ], 
                [
                    104160, 
                    [
                        {
                            "pitch": 38, 
                            "t0": 104160, 
                            "v": 120, 
                            "dur": 57, 
                            "type": "note", 
                            "channel": 9
                        }, 
                        {
                            "pitch": 46, 
                            "t0": 104160, 
                            "v": 104, 
                            "dur": 57, 
                            "type": "note", 
                            "channel": 9
                        }, 
                        {
                            "pitch": 76, 
                            "t0": 104160, 
                            "v": 104, 
                            "dur": 111, 
                            "type": "note", 
                            "channel": 4
                        }, 
                        {
                            "pitch": 45, 
                            "t0": 104160, 
                            "v": 104, 
                            "dur": 216, 
                            "type": "note", 
                            "channel": 6
                        }, 
                        {
                            "pitch": 69, 
                            "t0": 104160, 
                            "v": 120, 
                            "dur": 220, 
                            "type": "note", 
                            "channel": 0
                        }, 
                        {
                            "pitch": 73, 
                            "t0": 104160, 
                            "parts": [
                                [
                                    104160, 
                                    104
                                ], 
                                [
                                    104280, 
                                    104
                                ], 
                                [
                                    104390, 
                                    0
                                ]
                            ], 
                            "v": 104, 
                            "dur": 230, 
                            "type": "note", 
                            "channel": 10
                        }
                    ]
                ], 
                [
                    104400, 
                    [
                        {
                            "pitch": 36, 
                            "t0": 104400, 
                            "v": 104, 
                            "dur": 57, 
                            "type": "note", 
                            "channel": 9
                        }, 
                        {
                            "pitch": 46, 
                            "t0": 104400, 
                            "v": 88, 
                            "dur": 57, 
                            "type": "note", 
                            "channel": 9
                        }, 
                        {
                            "pitch": 44, 
                            "t0": 104400, 
                            "v": 104, 
                            "dur": 108, 
                            "type": "note", 
                            "channel": 6
                        }, 
                        {
                            "pitch": 81, 
                            "t0": 104400, 
                            "v": 104, 
                            "dur": 111, 
                            "type": "note", 
                            "channel": 4
                        }, 
                        {
                            "pitch": 71, 
                            "t0": 104400, 
                            "v": 120, 
                            "dur": 220, 
                            "type": "note", 
                            "channel": 0
                        }, 
                        {
                            "pitch": 75, 
                            "t0": 104400, 
                            "v": 104, 
                            "dur": 230, 
                            "type": "note", 
                            "channel": 10
                        }
                    ]
                ], 
                [
                    104520, 
                    [
                        {
                            "pitch": 45, 
                            "t0": 104520, 
                            "v": 104, 
                            "dur": 108, 
                            "type": "note", 
                            "channel": 6
                        }, 
                        {
                            "pitch": 76, 
                            "t0": 104520, 
                            "v": 104, 
                            "dur": 111, 
                            "type": "note", 
                            "channel": 4
                        }
                    ]
                ], 
                [
                    104640, 
                    [
                        {
                            "pitch": 36, 
                            "t0": 104640, 
                            "v": 120, 
                            "dur": 57, 
                            "type": "note", 
                            "channel": 9
                        }, 
                        {
                            "pitch": 46, 
                            "t0": 104640, 
                            "v": 104, 
                            "dur": 57, 
                            "type": "note", 
                            "channel": 9
                        }, 
                        {
                            "pitch": 83, 
                            "t0": 104640, 
                            "v": 104, 
                            "dur": 111, 
                            "type": "note", 
                            "channel": 4
                        }, 
                        {
                            "pitch": 66, 
                            "t0": 104640, 
                            "parts": [
                                [
                                    104640, 
                                    120
                                ], 
                                [
                                    104640, 
                                    104
                                ], 
                                [
                                    104860, 
                                    0
                                ]
                            ], 
                            "v": 120, 
                            "dur": 220, 
                            "type": "note", 
                            "channel": 0
                        }, 
                        {
                            "pitch": 71, 
                            "t0": 104640, 
                            "v": 104, 
                            "dur": 230, 
                            "type": "note", 
                            "channel": 10
                        }, 
                        {
                            "pitch": 47, 
                            "t0": 104640, 
                            "v": 104, 
                            "dur": 432, 
                            "type": "note", 
                            "channel": 6
                        }, 
                        {
                            "pitch": 63, 
                            "t0": 104640, 
                            "parts": [
                                [
                                    104640, 
                                    104
                                ], 
                                [
                                    105120, 
                                    120
                                ], 
                                [
                                    105340, 
                                    0
                                ]
                            ], 
                            "v": 104, 
                            "dur": 700, 
                            "type": "note", 
                            "channel": 5
                        }, 
                        {
                            "pitch": 59, 
                            "t0": 104640, 
                            "v": 104, 
                            "dur": 940, 
                            "type": "note", 
                            "channel": 5
                        }
                    ]
                ], 
                [
                    104760, 
                    [
                        {
                            "pitch": 78, 
                            "t0": 104760, 
                            "v": 104, 
                            "dur": 111, 
                            "type": "note", 
                            "channel": 4
                        }
                    ]
                ], 
                [
                    104880, 
                    [
                        {
                            "pitch": 46, 
                            "t0": 104880, 
                            "v": 88, 
                            "dur": 57, 
                            "type": "note", 
                            "channel": 9
                        }, 
                        {
                            "pitch": 75, 
                            "t0": 104880, 
                            "v": 104, 
                            "dur": 111, 
                            "type": "note", 
                            "channel": 4
                        }, 
                        {
                            "pitch": 71, 
                            "t0": 104880, 
                            "v": 120, 
                            "dur": 220, 
                            "type": "note", 
                            "channel": 0
                        }
                    ]
                ], 
                [
                    105000, 
                    [
                        {
                            "pitch": 83, 
                            "t0": 105000, 
                            "v": 104, 
                            "dur": 111, 
                            "type": "note", 
                            "channel": 4
                        }
                    ]
                ], 
                [
                    105120, 
                    [
                        {
                            "pitch": 38, 
                            "t0": 105120, 
                            "v": 120, 
                            "dur": 57, 
                            "type": "note", 
                            "channel": 9
                        }, 
                        {
                            "pitch": 78, 
                            "t0": 105120, 
                            "v": 104, 
                            "dur": 111, 
                            "type": "note", 
                            "channel": 4
                        }, 
                        {
                            "pitch": 68, 
                            "t0": 105120, 
                            "v": 104, 
                            "dur": 230, 
                            "type": "note", 
                            "channel": 10
                        }, 
                        {
                            "pitch": 47, 
                            "t0": 105120, 
                            "v": 104, 
                            "dur": 432, 
                            "type": "note", 
                            "channel": 6
                        }
                    ]
                ], 
                [
                    105240, 
                    [
                        {
                            "pitch": 38, 
                            "t0": 105240, 
                            "v": 104, 
                            "dur": 57, 
                            "type": "note", 
                            "channel": 9
                        }, 
                        {
                            "pitch": 75, 
                            "t0": 105240, 
                            "v": 104, 
                            "dur": 111, 
                            "type": "note", 
                            "channel": 4
                        }
                    ]
                ], 
                [
                    105360, 
                    [
                        {
                            "pitch": 38, 
                            "t0": 105360, 
                            "v": 104, 
                            "dur": 57, 
                            "type": "note", 
                            "channel": 9
                        }, 
                        {
                            "pitch": 66, 
                            "t0": 105360, 
                            "v": 120, 
                            "dur": 220, 
                            "type": "note", 
                            "channel": 0
                        }, 
                        {
                            "pitch": 83, 
                            "t0": 105360, 
                            "v": 104, 
                            "dur": 223, 
                            "type": "note", 
                            "channel": 4
                        }, 
                        {
                            "pitch": 71, 
                            "t0": 105360, 
                            "v": 104, 
                            "dur": 230, 
                            "type": "note", 
                            "channel": 10
                        }
                    ]
                ], 
                [
                    105600, 
                    [
                        {
                            "pitch": 49, 
                            "t0": 105600, 
                            "v": 120, 
                            "dur": 55, 
                            "type": "note", 
                            "channel": 9
                        }, 
                        {
                            "pitch": 36, 
                            "t0": 105600, 
                            "v": 120, 
                            "dur": 55, 
                            "type": "note", 
                            "channel": 9
                        }, 
                        {
                            "pitch": 80, 
                            "t0": 105600, 
                            "v": 94, 
                            "dur": 57, 
                            "type": "note", 
                            "channel": 11
                        }, 
                        {
                            "pitch": 40, 
                            "t0": 105600, 
                            "v": 104, 
                            "dur": 108, 
                            "type": "note", 
                            "channel": 6
                        }, 
                        {
                            "pitch": 52, 
                            "t0": 105600, 
                            "v": 104, 
                            "dur": 111, 
                            "type": "note", 
                            "channel": 4
                        }, 
                        {
                            "pitch": 68, 
                            "t0": 105600, 
                            "parts": [
                                [
                                    105600, 
                                    104
                                ], 
                                [
                                    105720, 
                                    88
                                ], 
                                [
                                    105828, 
                                    0
                                ]
                            ], 
                            "v": 104, 
                            "dur": 228, 
                            "type": "note", 
                            "channel": 10
                        }, 
                        {
                            "pitch": 64, 
                            "t0": 105600, 
                            "parts": [
                                [
                                    105600, 
                                    120
                                ], 
                                [
                                    106440, 
                                    104
                                ], 
                                [
                                    106551, 
                                    0
                                ]
                            ], 
                            "v": 120, 
                            "dur": 951, 
                            "type": "note", 
                            "channel": 0
                        }
                    ]
                ], 
                [
                    105660, 
                    [
                        {
                            "pitch": 44, 
                            "t0": 105660, 
                            "v": 88, 
                            "dur": 55, 
                            "type": "note", 
                            "channel": 9
                        }, 
                        {
                            "pitch": 80, 
                            "t0": 105660, 
                            "v": 94, 
                            "dur": 57, 
                            "type": "note", 
                            "channel": 11
                        }
                    ]
                ], 
                [
                    105720, 
                    [
                        {
                            "pitch": 44, 
                            "t0": 105720, 
                            "v": 88, 
                            "dur": 55, 
                            "type": "note", 
                            "channel": 9
                        }, 
                        {
                            "pitch": 80, 
                            "t0": 105720, 
                            "v": 94, 
                            "dur": 57, 
                            "type": "note", 
                            "channel": 11
                        }
                    ]
                ], 
                [
                    105780, 
                    [
                        {
                            "pitch": 44, 
                            "t0": 105780, 
                            "v": 88, 
                            "dur": 55, 
                            "type": "note", 
                            "channel": 9
                        }, 
                        {
                            "pitch": 80, 
                            "t0": 105780, 
                            "v": 94, 
                            "dur": 57, 
                            "type": "note", 
                            "channel": 11
                        }
                    ]
                ], 
                [
                    105840, 
                    [
                        {
                            "pitch": 44, 
                            "t0": 105840, 
                            "v": 104, 
                            "dur": 55, 
                            "type": "note", 
                            "channel": 9
                        }, 
                        {
                            "pitch": 80, 
                            "t0": 105840, 
                            "v": 94, 
                            "dur": 57, 
                            "type": "note", 
                            "channel": 11
                        }, 
                        {
                            "pitch": 68, 
                            "t0": 105840, 
                            "v": 88, 
                            "dur": 108, 
                            "type": "note", 
                            "channel": 12
                        }
                    ]
                ], 
                [
                    105900, 
                    [
                        {
                            "pitch": 80, 
                            "t0": 105900, 
                            "v": 94, 
                            "dur": 57, 
                            "type": "note", 
                            "channel": 11
                        }
                    ]
                ], 
                [
                    105960, 
                    [
                        {
                            "pitch": 38, 
                            "t0": 105960, 
                            "v": 104, 
                            "dur": 55, 
                            "type": "note", 
                            "channel": 9
                        }, 
                        {
                            "pitch": 80, 
                            "t0": 105960, 
                            "v": 94, 
                            "dur": 57, 
                            "type": "note", 
                            "channel": 11
                        }, 
                        {
                            "pitch": 68, 
                            "t0": 105960, 
                            "v": 88, 
                            "dur": 108, 
                            "type": "note", 
                            "channel": 12
                        }, 
                        {
                            "pitch": 55, 
                            "t0": 105960, 
                            "v": 104, 
                            "dur": 108, 
                            "type": "note", 
                            "channel": 6
                        }, 
                        {
                            "pitch": 67, 
                            "t0": 105960, 
                            "v": 104, 
                            "dur": 111, 
                            "type": "note", 
                            "channel": 4
                        }
                    ]
                ], 
                [
                    106020, 
                    [
                        {
                            "pitch": 80, 
                            "t0": 106020, 
                            "v": 94, 
                            "dur": 57, 
                            "type": "note", 
                            "channel": 11
                        }
                    ]
                ], 
                [
                    106080, 
                    [
                        {
                            "pitch": 44, 
                            "t0": 106080, 
                            "v": 104, 
                            "dur": 55, 
                            "type": "note", 
                            "channel": 9
                        }, 
                        {
                            "pitch": 80, 
                            "t0": 106080, 
                            "v": 94, 
                            "dur": 115, 
                            "type": "note", 
                            "channel": 11
                        }
                    ]
                ], 
                [
                    106140, 
                    [
                        {
                            "pitch": 44, 
                            "t0": 106140, 
                            "v": 88, 
                            "dur": 55, 
                            "type": "note", 
                            "channel": 9
                        }
                    ]
                ], 
                [
                    106200, 
                    [
                        {
                            "pitch": 44, 
                            "t0": 106200, 
                            "v": 88, 
                            "dur": 55, 
                            "type": "note", 
                            "channel": 9
                        }, 
                        {
                            "pitch": 68, 
                            "t0": 106200, 
                            "v": 88, 
                            "dur": 108, 
                            "type": "note", 
                            "channel": 12
                        }, 
                        {
                            "pitch": 80, 
                            "t0": 106200, 
                            "v": 94, 
                            "dur": 115, 
                            "type": "note", 
                            "channel": 11
                        }
                    ]
                ], 
                [
                    106260, 
                    [
                        {
                            "pitch": 44, 
                            "t0": 106260, 
                            "v": 88, 
                            "dur": 55, 
                            "type": "note", 
                            "channel": 9
                        }
                    ]
                ], 
                [
                    106320, 
                    [
                        {
                            "pitch": 44, 
                            "t0": 106320, 
                            "v": 104, 
                            "dur": 55, 
                            "type": "note", 
                            "channel": 9
                        }, 
                        {
                            "pitch": 36, 
                            "t0": 106320, 
                            "v": 104, 
                            "dur": 55, 
                            "type": "note", 
                            "channel": 9
                        }, 
                        {
                            "pitch": 80, 
                            "t0": 106320, 
                            "v": 94, 
                            "dur": 57, 
                            "type": "note", 
                            "channel": 11
                        }, 
                        {
                            "pitch": 68, 
                            "t0": 106320, 
                            "v": 88, 
                            "dur": 108, 
                            "type": "note", 
                            "channel": 12
                        }, 
                        {
                            "pitch": 50, 
                            "t0": 106320, 
                            "v": 104, 
                            "dur": 108, 
                            "type": "note", 
                            "channel": 6
                        }, 
                        {
                            "pitch": 62, 
                            "t0": 106320, 
                            "v": 104, 
                            "dur": 111, 
                            "type": "note", 
                            "channel": 4
                        }
                    ]
                ], 
                [
                    106380, 
                    [
                        {
                            "pitch": 80, 
                            "t0": 106380, 
                            "v": 94, 
                            "dur": 57, 
                            "type": "note", 
                            "channel": 11
                        }
                    ]
                ], 
                [
                    106440, 
                    [
                        {
                            "pitch": 44, 
                            "t0": 106440, 
                            "v": 88, 
                            "dur": 55, 
                            "type": "note", 
                            "channel": 9
                        }, 
                        {
                            "pitch": 68, 
                            "t0": 106440, 
                            "v": 88, 
                            "dur": 108, 
                            "type": "note", 
                            "channel": 12
                        }, 
                        {
                            "pitch": 52, 
                            "t0": 106440, 
                            "v": 104, 
                            "dur": 108, 
                            "type": "note", 
                            "channel": 6
                        }, 
                        {
                            "pitch": 80, 
                            "t0": 106440, 
                            "v": 94, 
                            "dur": 115, 
                            "type": "note", 
                            "channel": 11
                        }
                    ]
                ], 
                [
                    106560, 
                    [
                        {
                            "pitch": 44, 
                            "t0": 106560, 
                            "v": 104, 
                            "dur": 55, 
                            "type": "note", 
                            "channel": 9
                        }, 
                        {
                            "pitch": 68, 
                            "t0": 106560, 
                            "v": 88, 
                            "dur": 108, 
                            "type": "note", 
                            "channel": 12
                        }, 
                        {
                            "pitch": 80, 
                            "t0": 106560, 
                            "v": 94, 
                            "dur": 115, 
                            "type": "note", 
                            "channel": 11
                        }
                    ]
                ], 
                [
                    106680, 
                    [
                        {
                            "pitch": 38, 
                            "t0": 106680, 
                            "v": 104, 
                            "dur": 55, 
                            "type": "note", 
                            "channel": 9
                        }, 
                        {
                            "pitch": 68, 
                            "t0": 106680, 
                            "v": 88, 
                            "dur": 108, 
                            "type": "note", 
                            "channel": 12
                        }, 
                        {
                            "pitch": 80, 
                            "t0": 106680, 
                            "v": 94, 
                            "dur": 115, 
                            "type": "note", 
                            "channel": 11
                        }, 
                        {
                            "pitch": 49, 
                            "t0": 106680, 
                            "v": 104, 
                            "dur": 216, 
                            "type": "note", 
                            "channel": 6
                        }, 
                        {
                            "pitch": 61, 
                            "t0": 106680, 
                            "v": 104, 
                            "dur": 223, 
                            "type": "note", 
                            "channel": 4
                        }
                    ]
                ], 
                [
                    106800, 
                    [
                        {
                            "pitch": 38, 
                            "t0": 106800, 
                            "v": 104, 
                            "dur": 55, 
                            "type": "note", 
                            "channel": 9
                        }
                    ]
                ], 
                [
                    106920, 
                    [
                        {
                            "pitch": 38, 
                            "t0": 106920, 
                            "v": 104, 
                            "dur": 55, 
                            "type": "note", 
                            "channel": 9
                        }, 
                        {
                            "pitch": 49, 
                            "t0": 106920, 
                            "v": 104, 
                            "dur": 108, 
                            "type": "note", 
                            "channel": 6
                        }, 
                        {
                            "pitch": 61, 
                            "t0": 106920, 
                            "v": 104, 
                            "dur": 111, 
                            "type": "note", 
                            "channel": 4
                        }
                    ]
                ], 
                [
                    107040, 
                    [
                        {
                            "pitch": 38, 
                            "t0": 107040, 
                            "v": 120, 
                            "dur": 55, 
                            "type": "note", 
                            "channel": 9
                        }, 
                        {
                            "pitch": 50, 
                            "t0": 107040, 
                            "v": 104, 
                            "dur": 108, 
                            "type": "note", 
                            "channel": 6
                        }, 
                        {
                            "pitch": 62, 
                            "t0": 107040, 
                            "v": 104, 
                            "dur": 111, 
                            "type": "note", 
                            "channel": 4
                        }
                    ]
                ], 
                [
                    107160, 
                    [
                        {
                            "pitch": 48, 
                            "t0": 107160, 
                            "v": 104, 
                            "dur": 55, 
                            "type": "note", 
                            "channel": 9
                        }, 
                        {
                            "pitch": 68, 
                            "t0": 107160, 
                            "v": 88, 
                            "dur": 108, 
                            "type": "note", 
                            "channel": 12
                        }, 
                        {
                            "pitch": 49, 
                            "t0": 107160, 
                            "v": 104, 
                            "dur": 108, 
                            "type": "note", 
                            "channel": 6
                        }, 
                        {
                            "pitch": 61, 
                            "t0": 107160, 
                            "v": 104, 
                            "dur": 111, 
                            "type": "note", 
                            "channel": 4
                        }
                    ]
                ], 
                [
                    107280, 
                    [
                        {
                            "pitch": 47, 
                            "t0": 107280, 
                            "v": 104, 
                            "dur": 55, 
                            "type": "note", 
                            "channel": 9
                        }, 
                        {
                            "pitch": 50, 
                            "t0": 107280, 
                            "v": 104, 
                            "dur": 108, 
                            "type": "note", 
                            "channel": 6
                        }, 
                        {
                            "pitch": 62, 
                            "t0": 107280, 
                            "v": 104, 
                            "dur": 111, 
                            "type": "note", 
                            "channel": 4
                        }
                    ]
                ], 
                [
                    107400, 
                    [
                        {
                            "pitch": 51, 
                            "t0": 107400, 
                            "v": 104, 
                            "dur": 108, 
                            "type": "note", 
                            "channel": 6
                        }, 
                        {
                            "pitch": 63, 
                            "t0": 107400, 
                            "v": 104, 
                            "dur": 111, 
                            "type": "note", 
                            "channel": 4
                        }
                    ]
                ], 
                [
                    107520, 
                    [
                        {
                            "pitch": 44, 
                            "t0": 107520, 
                            "v": 104, 
                            "dur": 55, 
                            "type": "note", 
                            "channel": 9
                        }, 
                        {
                            "pitch": 36, 
                            "t0": 107520, 
                            "v": 120, 
                            "dur": 55, 
                            "type": "note", 
                            "channel": 9
                        }, 
                        {
                            "pitch": 40, 
                            "t0": 107520, 
                            "v": 104, 
                            "dur": 108, 
                            "type": "note", 
                            "channel": 6
                        }, 
                        {
                            "pitch": 52, 
                            "t0": 107520, 
                            "v": 104, 
                            "dur": 111, 
                            "type": "note", 
                            "channel": 4
                        }
                    ]
                ], 
                [
                    107580, 
                    [
                        {
                            "pitch": 44, 
                            "t0": 107580, 
                            "v": 88, 
                            "dur": 55, 
                            "type": "note", 
                            "channel": 9
                        }
                    ]
                ], 
                [
                    107640, 
                    [
                        {
                            "pitch": 44, 
                            "t0": 107640, 
                            "v": 88, 
                            "dur": 55, 
                            "type": "note", 
                            "channel": 9
                        }, 
                        {
                            "pitch": 68, 
                            "t0": 107640, 
                            "v": 88, 
                            "dur": 108, 
                            "type": "note", 
                            "channel": 12
                        }
                    ]
                ], 
                [
                    107700, 
                    [
                        {
                            "pitch": 44, 
                            "t0": 107700, 
                            "v": 88, 
                            "dur": 55, 
                            "type": "note", 
                            "channel": 9
                        }
                    ]
                ], 
                [
                    107760, 
                    [
                        {
                            "pitch": 44, 
                            "t0": 107760, 
                            "v": 104, 
                            "dur": 55, 
                            "type": "note", 
                            "channel": 9
                        }, 
                        {
                            "pitch": 68, 
                            "t0": 107760, 
                            "v": 88, 
                            "dur": 108, 
                            "type": "note", 
                            "channel": 12
                        }
                    ]
                ], 
                [
                    107880, 
                    [
                        {
                            "pitch": 38, 
                            "t0": 107880, 
                            "v": 88, 
                            "dur": 55, 
                            "type": "note", 
                            "channel": 9
                        }, 
                        {
                            "pitch": 68, 
                            "t0": 107880, 
                            "v": 88, 
                            "dur": 108, 
                            "type": "note", 
                            "channel": 12
                        }, 
                        {
                            "pitch": 55, 
                            "t0": 107880, 
                            "v": 104, 
                            "dur": 108, 
                            "type": "note", 
                            "channel": 6
                        }, 
                        {
                            "pitch": 67, 
                            "t0": 107880, 
                            "v": 104, 
                            "dur": 111, 
                            "type": "note", 
                            "channel": 4
                        }
                    ]
                ], 
                [
                    108000, 
                    [
                        {
                            "pitch": 44, 
                            "t0": 108000, 
                            "v": 104, 
                            "dur": 55, 
                            "type": "note", 
                            "channel": 9
                        }
                    ]
                ], 
                [
                    108060, 
                    [
                        {
                            "pitch": 44, 
                            "t0": 108060, 
                            "v": 88, 
                            "dur": 55, 
                            "type": "note", 
                            "channel": 9
                        }
                    ]
                ], 
                [
                    108120, 
                    [
                        {
                            "pitch": 44, 
                            "t0": 108120, 
                            "v": 88, 
                            "dur": 55, 
                            "type": "note", 
                            "channel": 9
                        }, 
                        {
                            "pitch": 68, 
                            "t0": 108120, 
                            "v": 88, 
                            "dur": 108, 
                            "type": "note", 
                            "channel": 12
                        }
                    ]
                ], 
                [
                    108180, 
                    [
                        {
                            "pitch": 44, 
                            "t0": 108180, 
                            "v": 88, 
                            "dur": 55, 
                            "type": "note", 
                            "channel": 9
                        }
                    ]
                ], 
                [
                    108240, 
                    [
                        {
                            "pitch": 38, 
                            "t0": 108240, 
                            "v": 104, 
                            "dur": 55, 
                            "type": "note", 
                            "channel": 9
                        }, 
                        {
                            "pitch": 44, 
                            "t0": 108240, 
                            "v": 104, 
                            "dur": 55, 
                            "type": "note", 
                            "channel": 9
                        }, 
                        {
                            "pitch": 68, 
                            "t0": 108240, 
                            "v": 88, 
                            "dur": 108, 
                            "type": "note", 
                            "channel": 12
                        }, 
                        {
                            "pitch": 50, 
                            "t0": 108240, 
                            "v": 104, 
                            "dur": 108, 
                            "type": "note", 
                            "channel": 6
                        }, 
                        {
                            "pitch": 62, 
                            "t0": 108240, 
                            "v": 104, 
                            "dur": 111, 
                            "type": "note", 
                            "channel": 4
                        }
                    ]
                ], 
                [
                    108360, 
                    [
                        {
                            "pitch": 46, 
                            "t0": 108360, 
                            "v": 88, 
                            "dur": 55, 
                            "type": "note", 
                            "channel": 9
                        }, 
                        {
                            "pitch": 36, 
                            "t0": 108360, 
                            "v": 104, 
                            "dur": 55, 
                            "type": "note", 
                            "channel": 9
                        }, 
                        {
                            "pitch": 68, 
                            "t0": 108360, 
                            "v": 88, 
                            "dur": 108, 
                            "type": "note", 
                            "channel": 12
                        }, 
                        {
                            "pitch": 52, 
                            "t0": 108360, 
                            "v": 104, 
                            "dur": 108, 
                            "type": "note", 
                            "channel": 6
                        }, 
                        {
                            "pitch": 64, 
                            "t0": 108360, 
                            "v": 104, 
                            "dur": 111, 
                            "type": "note", 
                            "channel": 4
                        }
                    ]
                ], 
                [
                    108480, 
                    [
                        {
                            "pitch": 42, 
                            "t0": 108480, 
                            "v": 104, 
                            "dur": 55, 
                            "type": "note", 
                            "channel": 9
                        }, 
                        {
                            "pitch": 68, 
                            "t0": 108480, 
                            "v": 88, 
                            "dur": 108, 
                            "type": "note", 
                            "channel": 12
                        }
                    ]
                ], 
                [
                    108600, 
                    [
                        {
                            "pitch": 38, 
                            "t0": 108600, 
                            "v": 88, 
                            "dur": 55, 
                            "type": "note", 
                            "channel": 9
                        }, 
                        {
                            "pitch": 68, 
                            "t0": 108600, 
                            "v": 88, 
                            "dur": 108, 
                            "type": "note", 
                            "channel": 12
                        }, 
                        {
                            "pitch": 49, 
                            "t0": 108600, 
                            "v": 104, 
                            "dur": 216, 
                            "type": "note", 
                            "channel": 6
                        }, 
                        {
                            "pitch": 61, 
                            "t0": 108600, 
                            "v": 104, 
                            "dur": 223, 
                            "type": "note", 
                            "channel": 4
                        }
                    ]
                ], 
                [
                    108660, 
                    [
                        {
                            "pitch": 38, 
                            "t0": 108660, 
                            "v": 88, 
                            "dur": 55, 
                            "type": "note", 
                            "channel": 9
                        }
                    ]
                ], 
                [
                    108720, 
                    [
                        {
                            "pitch": 38, 
                            "t0": 108720, 
                            "v": 88, 
                            "dur": 55, 
                            "type": "note", 
                            "channel": 9
                        }
                    ]
                ], 
                [
                    108840, 
                    [
                        {
                            "pitch": 38, 
                            "t0": 108840, 
                            "v": 88, 
                            "dur": 55, 
                            "type": "note", 
                            "channel": 9
                        }, 
                        {
                            "pitch": 49, 
                            "t0": 108840, 
                            "v": 104, 
                            "dur": 108, 
                            "type": "note", 
                            "channel": 6
                        }, 
                        {
                            "pitch": 61, 
                            "t0": 108840, 
                            "v": 104, 
                            "dur": 111, 
                            "type": "note", 
                            "channel": 4
                        }
                    ]
                ], 
                [
                    108960, 
                    [
                        {
                            "pitch": 38, 
                            "t0": 108960, 
                            "v": 120, 
                            "dur": 55, 
                            "type": "note", 
                            "channel": 9
                        }, 
                        {
                            "pitch": 50, 
                            "t0": 108960, 
                            "v": 104, 
                            "dur": 108, 
                            "type": "note", 
                            "channel": 6
                        }, 
                        {
                            "pitch": 62, 
                            "t0": 108960, 
                            "v": 104, 
                            "dur": 111, 
                            "type": "note", 
                            "channel": 4
                        }
                    ]
                ], 
                [
                    109080, 
                    [
                        {
                            "pitch": 38, 
                            "t0": 109080, 
                            "v": 104, 
                            "dur": 55, 
                            "type": "note", 
                            "channel": 9
                        }, 
                        {
                            "pitch": 68, 
                            "t0": 109080, 
                            "v": 88, 
                            "dur": 108, 
                            "type": "note", 
                            "channel": 12
                        }, 
                        {
                            "pitch": 49, 
                            "t0": 109080, 
                            "v": 104, 
                            "dur": 108, 
                            "type": "note", 
                            "channel": 6
                        }, 
                        {
                            "pitch": 61, 
                            "t0": 109080, 
                            "v": 104, 
                            "dur": 111, 
                            "type": "note", 
                            "channel": 4
                        }
                    ]
                ], 
                [
                    109200, 
                    [
                        {
                            "pitch": 47, 
                            "t0": 109200, 
                            "v": 104, 
                            "dur": 55, 
                            "type": "note", 
                            "channel": 9
                        }, 
                        {
                            "pitch": 50, 
                            "t0": 109200, 
                            "v": 104, 
                            "dur": 108, 
                            "type": "note", 
                            "channel": 6
                        }, 
                        {
                            "pitch": 62, 
                            "t0": 109200, 
                            "v": 104, 
                            "dur": 111, 
                            "type": "note", 
                            "channel": 4
                        }
                    ]
                ], 
                [
                    109320, 
                    [
                        {
                            "pitch": 46, 
                            "t0": 109320, 
                            "v": 88, 
                            "dur": 55, 
                            "type": "note", 
                            "channel": 9
                        }, 
                        {
                            "pitch": 36, 
                            "t0": 109320, 
                            "v": 104, 
                            "dur": 55, 
                            "type": "note", 
                            "channel": 9
                        }, 
                        {
                            "pitch": 51, 
                            "t0": 109320, 
                            "v": 104, 
                            "dur": 108, 
                            "type": "note", 
                            "channel": 6
                        }, 
                        {
                            "pitch": 63, 
                            "t0": 109320, 
                            "v": 104, 
                            "dur": 111, 
                            "type": "note", 
                            "channel": 4
                        }
                    ]
                ], 
                [
                    109440, 
                    [
                        {
                            "pitch": 42, 
                            "t0": 109440, 
                            "v": 104, 
                            "dur": 55, 
                            "type": "note", 
                            "channel": 9
                        }, 
                        {
                            "pitch": 36, 
                            "t0": 109440, 
                            "v": 120, 
                            "dur": 55, 
                            "type": "note", 
                            "channel": 9
                        }, 
                        {
                            "pitch": 80, 
                            "t0": 109440, 
                            "v": 94, 
                            "dur": 57, 
                            "type": "note", 
                            "channel": 11
                        }, 
                        {
                            "pitch": 40, 
                            "t0": 109440, 
                            "v": 104, 
                            "dur": 108, 
                            "type": "note", 
                            "channel": 6
                        }, 
                        {
                            "pitch": 71, 
                            "t0": 109440, 
                            "v": 104, 
                            "dur": 108, 
                            "type": "note", 
                            "channel": 3
                        }, 
                        {
                            "pitch": 52, 
                            "t0": 109440, 
                            "v": 104, 
                            "dur": 111, 
                            "type": "note", 
                            "channel": 4
                        }
                    ]
                ], 
                [
                    109500, 
                    [
                        {
                            "pitch": 44, 
                            "t0": 109500, 
                            "v": 88, 
                            "dur": 55, 
                            "type": "note", 
                            "channel": 9
                        }, 
                        {
                            "pitch": 80, 
                            "t0": 109500, 
                            "v": 94, 
                            "dur": 57, 
                            "type": "note", 
                            "channel": 11
                        }
                    ]
                ], 
                [
                    109560, 
                    [
                        {
                            "pitch": 44, 
                            "t0": 109560, 
                            "v": 88, 
                            "dur": 55, 
                            "type": "note", 
                            "channel": 9
                        }, 
                        {
                            "pitch": 80, 
                            "t0": 109560, 
                            "v": 94, 
                            "dur": 57, 
                            "type": "note", 
                            "channel": 11
                        }, 
                        {
                            "pitch": 68, 
                            "t0": 109560, 
                            "v": 88, 
                            "dur": 108, 
                            "type": "note", 
                            "channel": 12
                        }
                    ]
                ], 
                [
                    109620, 
                    [
                        {
                            "pitch": 44, 
                            "t0": 109620, 
                            "v": 88, 
                            "dur": 55, 
                            "type": "note", 
                            "channel": 9
                        }, 
                        {
                            "pitch": 80, 
                            "t0": 109620, 
                            "v": 94, 
                            "dur": 57, 
                            "type": "note", 
                            "channel": 11
                        }
                    ]
                ], 
                [
                    109680, 
                    [
                        {
                            "pitch": 44, 
                            "t0": 109680, 
                            "v": 104, 
                            "dur": 55, 
                            "type": "note", 
                            "channel": 9
                        }, 
                        {
                            "pitch": 80, 
                            "t0": 109680, 
                            "v": 94, 
                            "dur": 57, 
                            "type": "note", 
                            "channel": 11
                        }, 
                        {
                            "pitch": 68, 
                            "t0": 109680, 
                            "v": 88, 
                            "dur": 108, 
                            "type": "note", 
                            "channel": 12
                        }
                    ]
                ], 
                [
                    109740, 
                    [
                        {
                            "pitch": 80, 
                            "t0": 109740, 
                            "v": 94, 
                            "dur": 57, 
                            "type": "note", 
                            "channel": 11
                        }
                    ]
                ], 
                [
                    109800, 
                    [
                        {
                            "pitch": 38, 
                            "t0": 109800, 
                            "v": 104, 
                            "dur": 55, 
                            "type": "note", 
                            "channel": 9
                        }, 
                        {
                            "pitch": 80, 
                            "t0": 109800, 
                            "v": 94, 
                            "dur": 57, 
                            "type": "note", 
                            "channel": 11
                        }, 
                        {
                            "pitch": 68, 
                            "t0": 109800, 
                            "v": 88, 
                            "dur": 108, 
                            "type": "note", 
                            "channel": 12
                        }, 
                        {
                            "pitch": 55, 
                            "t0": 109800, 
                            "v": 104, 
                            "dur": 108, 
                            "type": "note", 
                            "channel": 6
                        }, 
                        {
                            "pitch": 74, 
                            "t0": 109800, 
                            "v": 104, 
                            "dur": 108, 
                            "type": "note", 
                            "channel": 3
                        }, 
                        {
                            "pitch": 67, 
                            "t0": 109800, 
                            "v": 104, 
                            "dur": 111, 
                            "type": "note", 
                            "channel": 4
                        }
                    ]
                ], 
                [
                    109860, 
                    [
                        {
                            "pitch": 80, 
                            "t0": 109860, 
                            "v": 94, 
                            "dur": 57, 
                            "type": "note", 
                            "channel": 11
                        }
                    ]
                ], 
                [
                    109920, 
                    [
                        {
                            "pitch": 44, 
                            "t0": 109920, 
                            "v": 104, 
                            "dur": 55, 
                            "type": "note", 
                            "channel": 9
                        }, 
                        {
                            "pitch": 80, 
                            "t0": 109920, 
                            "v": 94, 
                            "dur": 57, 
                            "type": "note", 
                            "channel": 11
                        }
                    ]
                ], 
                [
                    109980, 
                    [
                        {
                            "pitch": 44, 
                            "t0": 109980, 
                            "v": 88, 
                            "dur": 55, 
                            "type": "note", 
                            "channel": 9
                        }, 
                        {
                            "pitch": 80, 
                            "t0": 109980, 
                            "v": 94, 
                            "dur": 57, 
                            "type": "note", 
                            "channel": 11
                        }
                    ]
                ], 
                [
                    110040, 
                    [
                        {
                            "pitch": 44, 
                            "t0": 110040, 
                            "v": 88, 
                            "dur": 55, 
                            "type": "note", 
                            "channel": 9
                        }, 
                        {
                            "pitch": 80, 
                            "t0": 110040, 
                            "v": 94, 
                            "dur": 57, 
                            "type": "note", 
                            "channel": 11
                        }, 
                        {
                            "pitch": 68, 
                            "t0": 110040, 
                            "v": 88, 
                            "dur": 108, 
                            "type": "note", 
                            "channel": 12
                        }
                    ]
                ], 
                [
                    110100, 
                    [
                        {
                            "pitch": 44, 
                            "t0": 110100, 
                            "v": 88, 
                            "dur": 55, 
                            "type": "note", 
                            "channel": 9
                        }, 
                        {
                            "pitch": 80, 
                            "t0": 110100, 
                            "v": 94, 
                            "dur": 57, 
                            "type": "note", 
                            "channel": 11
                        }
                    ]
                ], 
                [
                    110160, 
                    [
                        {
                            "pitch": 38, 
                            "t0": 110160, 
                            "v": 104, 
                            "dur": 55, 
                            "type": "note", 
                            "channel": 9
                        }, 
                        {
                            "pitch": 46, 
                            "t0": 110160, 
                            "v": 104, 
                            "dur": 55, 
                            "type": "note", 
                            "channel": 9
                        }, 
                        {
                            "pitch": 80, 
                            "t0": 110160, 
                            "v": 94, 
                            "dur": 57, 
                            "type": "note", 
                            "channel": 11
                        }, 
                        {
                            "pitch": 68, 
                            "t0": 110160, 
                            "v": 88, 
                            "dur": 108, 
                            "type": "note", 
                            "channel": 12
                        }, 
                        {
                            "pitch": 50, 
                            "t0": 110160, 
                            "v": 104, 
                            "dur": 108, 
                            "type": "note", 
                            "channel": 6
                        }, 
                        {
                            "pitch": 71, 
                            "t0": 110160, 
                            "v": 104, 
                            "dur": 108, 
                            "type": "note", 
                            "channel": 3
                        }, 
                        {
                            "pitch": 62, 
                            "t0": 110160, 
                            "v": 104, 
                            "dur": 111, 
                            "type": "note", 
                            "channel": 4
                        }
                    ]
                ], 
                [
                    110220, 
                    [
                        {
                            "pitch": 80, 
                            "t0": 110220, 
                            "v": 94, 
                            "dur": 57, 
                            "type": "note", 
                            "channel": 11
                        }
                    ]
                ], 
                [
                    110280, 
                    [
                        {
                            "pitch": 36, 
                            "t0": 110280, 
                            "v": 104, 
                            "dur": 55, 
                            "type": "note", 
                            "channel": 9
                        }, 
                        {
                            "pitch": 80, 
                            "t0": 110280, 
                            "v": 94, 
                            "dur": 57, 
                            "type": "note", 
                            "channel": 11
                        }, 
                        {
                            "pitch": 68, 
                            "t0": 110280, 
                            "v": 88, 
                            "dur": 108, 
                            "type": "note", 
                            "channel": 12
                        }, 
                        {
                            "pitch": 52, 
                            "t0": 110280, 
                            "v": 104, 
                            "dur": 108, 
                            "type": "note", 
                            "channel": 6
                        }, 
                        {
                            "pitch": 73, 
                            "t0": 110280, 
                            "v": 104, 
                            "dur": 108, 
                            "type": "note", 
                            "channel": 3
                        }, 
                        {
                            "pitch": 64, 
                            "t0": 110280, 
                            "v": 104, 
                            "dur": 111, 
                            "type": "note", 
                            "channel": 4
                        }
                    ]
                ], 
                [
                    110340, 
                    [
                        {
                            "pitch": 80, 
                            "t0": 110340, 
                            "v": 94, 
                            "dur": 57, 
                            "type": "note", 
                            "channel": 11
                        }
                    ]
                ], 
                [
                    110400, 
                    [
                        {
                            "pitch": 42, 
                            "t0": 110400, 
                            "v": 104, 
                            "dur": 55, 
                            "type": "note", 
                            "channel": 9
                        }, 
                        {
                            "pitch": 68, 
                            "t0": 110400, 
                            "v": 88, 
                            "dur": 108, 
                            "type": "note", 
                            "channel": 12
                        }, 
                        {
                            "pitch": 80, 
                            "t0": 110400, 
                            "v": 94, 
                            "dur": 115, 
                            "type": "note", 
                            "channel": 11
                        }
                    ]
                ], 
                [
                    110520, 
                    [
                        {
                            "pitch": 38, 
                            "t0": 110520, 
                            "v": 104, 
                            "dur": 55, 
                            "type": "note", 
                            "channel": 9
                        }, 
                        {
                            "pitch": 68, 
                            "t0": 110520, 
                            "v": 88, 
                            "dur": 108, 
                            "type": "note", 
                            "channel": 12
                        }, 
                        {
                            "pitch": 80, 
                            "t0": 110520, 
                            "v": 94, 
                            "dur": 115, 
                            "type": "note", 
                            "channel": 11
                        }, 
                        {
                            "pitch": 49, 
                            "t0": 110520, 
                            "v": 104, 
                            "dur": 216, 
                            "type": "note", 
                            "channel": 6
                        }, 
                        {
                            "pitch": 73, 
                            "t0": 110520, 
                            "v": 104, 
                            "dur": 216, 
                            "type": "note", 
                            "channel": 3
                        }, 
                        {
                            "pitch": 61, 
                            "t0": 110520, 
                            "v": 104, 
                            "dur": 223, 
                            "type": "note", 
                            "channel": 4
                        }
                    ]
                ], 
                [
                    110640, 
                    [
                        {
                            "pitch": 38, 
                            "t0": 110640, 
                            "v": 104, 
                            "dur": 55, 
                            "type": "note", 
                            "channel": 9
                        }
                    ]
                ], 
                [
                    110760, 
                    [
                        {
                            "pitch": 38, 
                            "t0": 110760, 
                            "v": 104, 
                            "dur": 55, 
                            "type": "note", 
                            "channel": 9
                        }, 
                        {
                            "pitch": 49, 
                            "t0": 110760, 
                            "v": 104, 
                            "dur": 108, 
                            "type": "note", 
                            "channel": 6
                        }, 
                        {
                            "pitch": 73, 
                            "t0": 110760, 
                            "v": 104, 
                            "dur": 108, 
                            "type": "note", 
                            "channel": 3
                        }, 
                        {
                            "pitch": 61, 
                            "t0": 110760, 
                            "v": 104, 
                            "dur": 111, 
                            "type": "note", 
                            "channel": 4
                        }
                    ]
                ], 
                [
                    110880, 
                    [
                        {
                            "pitch": 38, 
                            "t0": 110880, 
                            "v": 120, 
                            "dur": 55, 
                            "type": "note", 
                            "channel": 9
                        }, 
                        {
                            "pitch": 50, 
                            "t0": 110880, 
                            "v": 104, 
                            "dur": 108, 
                            "type": "note", 
                            "channel": 6
                        }, 
                        {
                            "pitch": 74, 
                            "t0": 110880, 
                            "v": 104, 
                            "dur": 108, 
                            "type": "note", 
                            "channel": 3
                        }, 
                        {
                            "pitch": 62, 
                            "t0": 110880, 
                            "v": 104, 
                            "dur": 111, 
                            "type": "note", 
                            "channel": 4
                        }
                    ]
                ], 
                [
                    111000, 
                    [
                        {
                            "pitch": 48, 
                            "t0": 111000, 
                            "v": 104, 
                            "dur": 55, 
                            "type": "note", 
                            "channel": 9
                        }, 
                        {
                            "pitch": 68, 
                            "t0": 111000, 
                            "v": 88, 
                            "dur": 108, 
                            "type": "note", 
                            "channel": 12
                        }, 
                        {
                            "pitch": 49, 
                            "t0": 111000, 
                            "v": 104, 
                            "dur": 108, 
                            "type": "note", 
                            "channel": 6
                        }, 
                        {
                            "pitch": 73, 
                            "t0": 111000, 
                            "v": 104, 
                            "dur": 108, 
                            "type": "note", 
                            "channel": 3
                        }, 
                        {
                            "pitch": 61, 
                            "t0": 111000, 
                            "v": 104, 
                            "dur": 111, 
                            "type": "note", 
                            "channel": 4
                        }
                    ]
                ], 
                [
                    111120, 
                    [
                        {
                            "pitch": 47, 
                            "t0": 111120, 
                            "v": 104, 
                            "dur": 55, 
                            "type": "note", 
                            "channel": 9
                        }, 
                        {
                            "pitch": 50, 
                            "t0": 111120, 
                            "v": 104, 
                            "dur": 108, 
                            "type": "note", 
                            "channel": 6
                        }, 
                        {
                            "pitch": 67, 
                            "t0": 111120, 
                            "v": 104, 
                            "dur": 108, 
                            "type": "note", 
                            "channel": 3
                        }, 
                        {
                            "pitch": 62, 
                            "t0": 111120, 
                            "v": 104, 
                            "dur": 111, 
                            "type": "note", 
                            "channel": 4
                        }
                    ]
                ], 
                [
                    111240, 
                    [
                        {
                            "pitch": 43, 
                            "t0": 111240, 
                            "v": 104, 
                            "dur": 55, 
                            "type": "note", 
                            "channel": 9
                        }, 
                        {
                            "pitch": 51, 
                            "t0": 111240, 
                            "v": 104, 
                            "dur": 108, 
                            "type": "note", 
                            "channel": 6
                        }, 
                        {
                            "pitch": 69, 
                            "t0": 111240, 
                            "v": 104, 
                            "dur": 108, 
                            "type": "note", 
                            "channel": 3
                        }, 
                        {
                            "pitch": 63, 
                            "t0": 111240, 
                            "v": 104, 
                            "dur": 111, 
                            "type": "note", 
                            "channel": 4
                        }
                    ]
                ], 
                [
                    111360, 
                    [
                        {
                            "pitch": 44, 
                            "t0": 111360, 
                            "v": 104, 
                            "dur": 55, 
                            "type": "note", 
                            "channel": 9
                        }, 
                        {
                            "pitch": 36, 
                            "t0": 111360, 
                            "v": 120, 
                            "dur": 55, 
                            "type": "note", 
                            "channel": 9
                        }, 
                        {
                            "pitch": 71, 
                            "t0": 111360, 
                            "v": 104, 
                            "dur": 108, 
                            "type": "note", 
                            "channel": 3
                        }, 
                        {
                            "pitch": 52, 
                            "t0": 111360, 
                            "v": 104, 
                            "dur": 111, 
                            "type": "note", 
                            "channel": 4
                        }, 
                        {
                            "pitch": 40, 
                            "t0": 111360, 
                            "v": 104, 
                            "dur": 216, 
                            "type": "note", 
                            "channel": 6
                        }
                    ]
                ], 
                [
                    111420, 
                    [
                        {
                            "pitch": 44, 
                            "t0": 111420, 
                            "v": 88, 
                            "dur": 55, 
                            "type": "note", 
                            "channel": 9
                        }
                    ]
                ], 
                [
                    111480, 
                    [
                        {
                            "pitch": 44, 
                            "t0": 111480, 
                            "v": 88, 
                            "dur": 55, 
                            "type": "note", 
                            "channel": 9
                        }, 
                        {
                            "pitch": 68, 
                            "t0": 111480, 
                            "v": 88, 
                            "dur": 108, 
                            "type": "note", 
                            "channel": 12
                        }
                    ]
                ], 
                [
                    111540, 
                    [
                        {
                            "pitch": 44, 
                            "t0": 111540, 
                            "v": 88, 
                            "dur": 55, 
                            "type": "note", 
                            "channel": 9
                        }
                    ]
                ], 
                [
                    111600, 
                    [
                        {
                            "pitch": 44, 
                            "t0": 111600, 
                            "v": 104, 
                            "dur": 55, 
                            "type": "note", 
                            "channel": 9
                        }, 
                        {
                            "pitch": 68, 
                            "t0": 111600, 
                            "v": 88, 
                            "dur": 108, 
                            "type": "note", 
                            "channel": 12
                        }
                    ]
                ], 
                [
                    111720, 
                    [
                        {
                            "pitch": 38, 
                            "t0": 111720, 
                            "v": 88, 
                            "dur": 55, 
                            "type": "note", 
                            "channel": 9
                        }, 
                        {
                            "pitch": 68, 
                            "t0": 111720, 
                            "v": 88, 
                            "dur": 108, 
                            "type": "note", 
                            "channel": 12
                        }, 
                        {
                            "pitch": 55, 
                            "t0": 111720, 
                            "v": 104, 
                            "dur": 108, 
                            "type": "note", 
                            "channel": 6
                        }, 
                        {
                            "pitch": 74, 
                            "t0": 111720, 
                            "v": 104, 
                            "dur": 108, 
                            "type": "note", 
                            "channel": 3
                        }, 
                        {
                            "pitch": 67, 
                            "t0": 111720, 
                            "v": 104, 
                            "dur": 111, 
                            "type": "note", 
                            "channel": 4
                        }
                    ]
                ], 
                [
                    111840, 
                    [
                        {
                            "pitch": 44, 
                            "t0": 111840, 
                            "v": 104, 
                            "dur": 55, 
                            "type": "note", 
                            "channel": 9
                        }
                    ]
                ], 
                [
                    111900, 
                    [
                        {
                            "pitch": 44, 
                            "t0": 111900, 
                            "v": 88, 
                            "dur": 55, 
                            "type": "note", 
                            "channel": 9
                        }
                    ]
                ], 
                [
                    111960, 
                    [
                        {
                            "pitch": 44, 
                            "t0": 111960, 
                            "v": 88, 
                            "dur": 55, 
                            "type": "note", 
                            "channel": 9
                        }, 
                        {
                            "pitch": 68, 
                            "t0": 111960, 
                            "v": 88, 
                            "dur": 108, 
                            "type": "note", 
                            "channel": 12
                        }
                    ]
                ], 
                [
                    112020, 
                    [
                        {
                            "pitch": 44, 
                            "t0": 112020, 
                            "v": 88, 
                            "dur": 55, 
                            "type": "note", 
                            "channel": 9
                        }
                    ]
                ], 
                [
                    112080, 
                    [
                        {
                            "pitch": 38, 
                            "t0": 112080, 
                            "v": 104, 
                            "dur": 55, 
                            "type": "note", 
                            "channel": 9
                        }, 
                        {
                            "pitch": 44, 
                            "t0": 112080, 
                            "v": 104, 
                            "dur": 55, 
                            "type": "note", 
                            "channel": 9
                        }, 
                        {
                            "pitch": 68, 
                            "t0": 112080, 
                            "v": 88, 
                            "dur": 108, 
                            "type": "note", 
                            "channel": 12
                        }, 
                        {
                            "pitch": 50, 
                            "t0": 112080, 
                            "v": 104, 
                            "dur": 108, 
                            "type": "note", 
                            "channel": 6
                        }, 
                        {
                            "pitch": 71, 
                            "t0": 112080, 
                            "v": 104, 
                            "dur": 108, 
                            "type": "note", 
                            "channel": 3
                        }, 
                        {
                            "pitch": 62, 
                            "t0": 112080, 
                            "v": 104, 
                            "dur": 111, 
                            "type": "note", 
                            "channel": 4
                        }
                    ]
                ], 
                [
                    112200, 
                    [
                        {
                            "pitch": 46, 
                            "t0": 112200, 
                            "v": 88, 
                            "dur": 55, 
                            "type": "note", 
                            "channel": 9
                        }, 
                        {
                            "pitch": 36, 
                            "t0": 112200, 
                            "v": 104, 
                            "dur": 55, 
                            "type": "note", 
                            "channel": 9
                        }, 
                        {
                            "pitch": 68, 
                            "t0": 112200, 
                            "v": 88, 
                            "dur": 108, 
                            "type": "note", 
                            "channel": 12
                        }, 
                        {
                            "pitch": 52, 
                            "t0": 112200, 
                            "v": 104, 
                            "dur": 108, 
                            "type": "note", 
                            "channel": 6
                        }, 
                        {
                            "pitch": 73, 
                            "t0": 112200, 
                            "v": 104, 
                            "dur": 108, 
                            "type": "note", 
                            "channel": 3
                        }, 
                        {
                            "pitch": 64, 
                            "t0": 112200, 
                            "v": 104, 
                            "dur": 111, 
                            "type": "note", 
                            "channel": 4
                        }
                    ]
                ], 
                [
                    112320, 
                    [
                        {
                            "pitch": 42, 
                            "t0": 112320, 
                            "v": 104, 
                            "dur": 55, 
                            "type": "note", 
                            "channel": 9
                        }, 
                        {
                            "pitch": 68, 
                            "t0": 112320, 
                            "v": 88, 
                            "dur": 108, 
                            "type": "note", 
                            "channel": 12
                        }
                    ]
                ], 
                [
                    112440, 
                    [
                        {
                            "pitch": 44, 
                            "t0": 112440, 
                            "v": 88, 
                            "dur": 55, 
                            "type": "note", 
                            "channel": 9
                        }, 
                        {
                            "pitch": 68, 
                            "t0": 112440, 
                            "v": 88, 
                            "dur": 108, 
                            "type": "note", 
                            "channel": 12
                        }, 
                        {
                            "pitch": 47, 
                            "t0": 112440, 
                            "v": 104, 
                            "dur": 216, 
                            "type": "note", 
                            "channel": 6
                        }, 
                        {
                            "pitch": 83, 
                            "t0": 112440, 
                            "v": 104, 
                            "dur": 216, 
                            "type": "note", 
                            "channel": 4
                        }, 
                        {
                            "pitch": 71, 
                            "t0": 112440, 
                            "v": 104, 
                            "dur": 216, 
                            "type": "note", 
                            "channel": 4
                        }, 
                        {
                            "pitch": 75, 
                            "t0": 112440, 
                            "v": 104, 
                            "dur": 216, 
                            "type": "note", 
                            "channel": 4
                        }, 
                        {
                            "pitch": 78, 
                            "t0": 112440, 
                            "v": 104, 
                            "dur": 216, 
                            "type": "note", 
                            "channel": 4
                        }
                    ]
                ], 
                [
                    112560, 
                    [
                        {
                            "pitch": 44, 
                            "t0": 112560, 
                            "v": 88, 
                            "dur": 55, 
                            "type": "note", 
                            "channel": 9
                        }, 
                        {
                            "pitch": 36, 
                            "t0": 112560, 
                            "v": 104, 
                            "dur": 55, 
                            "type": "note", 
                            "channel": 9
                        }
                    ]
                ], 
                [
                    112680, 
                    [
                        {
                            "pitch": 44, 
                            "t0": 112680, 
                            "v": 88, 
                            "dur": 55, 
                            "type": "note", 
                            "channel": 9
                        }, 
                        {
                            "pitch": 36, 
                            "t0": 112680, 
                            "v": 88, 
                            "dur": 55, 
                            "type": "note", 
                            "channel": 9
                        }, 
                        {
                            "pitch": 47, 
                            "t0": 112680, 
                            "v": 104, 
                            "dur": 108, 
                            "type": "note", 
                            "channel": 6
                        }, 
                        {
                            "pitch": 83, 
                            "t0": 112680, 
                            "v": 104, 
                            "dur": 108, 
                            "type": "note", 
                            "channel": 4
                        }, 
                        {
                            "pitch": 78, 
                            "t0": 112680, 
                            "v": 104, 
                            "dur": 108, 
                            "type": "note", 
                            "channel": 4
                        }, 
                        {
                            "pitch": 71, 
                            "t0": 112680, 
                            "v": 104, 
                            "dur": 108, 
                            "type": "note", 
                            "channel": 4
                        }, 
                        {
                            "pitch": 75, 
                            "t0": 112680, 
                            "v": 104, 
                            "dur": 108, 
                            "type": "note", 
                            "channel": 4
                        }
                    ]
                ], 
                [
                    112800, 
                    [
                        {
                            "pitch": 38, 
                            "t0": 112800, 
                            "v": 120, 
                            "dur": 36, 
                            "type": "note", 
                            "channel": 9
                        }, 
                        {
                            "pitch": 49, 
                            "t0": 112800, 
                            "v": 120, 
                            "dur": 36, 
                            "type": "note", 
                            "channel": 9
                        }, 
                        {
                            "pitch": 71, 
                            "t0": 112800, 
                            "parts": [
                                [
                                    112800, 
                                    120
                                ], 
                                [
                                    112800, 
                                    104
                                ], 
                                [
                                    113020, 
                                    0
                                ]
                            ], 
                            "v": 120, 
                            "dur": 220, 
                            "type": "note", 
                            "channel": 0
                        }, 
                        {
                            "pitch": 47, 
                            "t0": 112800, 
                            "parts": [
                                [
                                    112800, 
                                    104
                                ], 
                                [
                                    113040, 
                                    104
                                ], 
                                [
                                    113095, 
                                    0
                                ]
                            ], 
                            "v": 104, 
                            "dur": 295, 
                            "type": "note", 
                            "channel": 6
                        }, 
                        {
                            "pitch": 83, 
                            "t0": 112800, 
                            "v": 104, 
                            "dur": 432, 
                            "type": "note", 
                            "channel": 4
                        }, 
                        {
                            "pitch": 78, 
                            "t0": 112800, 
                            "v": 104, 
                            "dur": 432, 
                            "type": "note", 
                            "channel": 4
                        }, 
                        {
                            "pitch": 75, 
                            "t0": 112800, 
                            "v": 104, 
                            "dur": 432, 
                            "type": "note", 
                            "channel": 4
                        }
                    ]
                ], 
                [
                    112920, 
                    [
                        {
                            "pitch": 68, 
                            "t0": 112920, 
                            "v": 88, 
                            "dur": 108, 
                            "type": "note", 
                            "channel": 12
                        }
                    ]
                ], 
                [
                    112960, 
                    [
                        {
                            "pitch": 38, 
                            "t0": 112960, 
                            "v": 120, 
                            "dur": 36, 
                            "type": "note", 
                            "channel": 9
                        }
                    ]
                ], 
                [
                    113040, 
                    [
                        {
                            "pitch": 70, 
                            "t0": 113040, 
                            "parts": [
                                [
                                    113040, 
                                    120
                                ], 
                                [
                                    113040, 
                                    104
                                ], 
                                [
                                    113260, 
                                    0
                                ]
                            ], 
                            "v": 120, 
                            "dur": 220, 
                            "type": "note", 
                            "channel": 0
                        }
                    ]
                ], 
                [
                    113120, 
                    [
                        {
                            "pitch": 38, 
                            "t0": 113120, 
                            "v": 120, 
                            "dur": 36, 
                            "type": "note", 
                            "channel": 9
                        }
                    ]
                ], 
                [
                    113280, 
                    [
                        {
                            "pitch": 45, 
                            "t0": 113280, 
                            "v": 120, 
                            "dur": 36, 
                            "type": "note", 
                            "channel": 9
                        }, 
                        {
                            "pitch": 36, 
                            "t0": 113280, 
                            "v": 120, 
                            "dur": 36, 
                            "type": "note", 
                            "channel": 9
                        }, 
                        {
                            "pitch": 69, 
                            "t0": 113280, 
                            "parts": [
                                [
                                    113280, 
                                    120
                                ], 
                                [
                                    113280, 
                                    104
                                ], 
                                [
                                    113500, 
                                    0
                                ]
                            ], 
                            "v": 120, 
                            "dur": 220, 
                            "type": "note", 
                            "channel": 0
                        }, 
                        {
                            "pitch": 81, 
                            "t0": 113280, 
                            "v": 104, 
                            "dur": 480, 
                            "type": "note", 
                            "channel": 4
                        }, 
                        {
                            "pitch": 57, 
                            "t0": 113280, 
                            "v": 104, 
                            "dur": 480, 
                            "type": "note", 
                            "channel": 4
                        }, 
                        {
                            "pitch": 64, 
                            "t0": 113280, 
                            "v": 104, 
                            "dur": 480, 
                            "type": "note", 
                            "channel": 4
                        }, 
                        {
                            "pitch": 76, 
                            "t0": 113280, 
                            "v": 104, 
                            "dur": 480, 
                            "type": "note", 
                            "channel": 4
                        }, 
                        {
                            "pitch": 73, 
                            "t0": 113280, 
                            "v": 104, 
                            "dur": 480, 
                            "type": "note", 
                            "channel": 4
                        }
                    ]
                ], 
                [
                    113520, 
                    [
                        {
                            "pitch": 71, 
                            "t0": 113520, 
                            "parts": [
                                [
                                    113520, 
                                    120
                                ], 
                                [
                                    113520, 
                                    104
                                ], 
                                [
                                    113740, 
                                    0
                                ]
                            ], 
                            "v": 120, 
                            "dur": 220, 
                            "type": "note", 
                            "channel": 0
                        }
                    ]
                ], 
                [
                    113640, 
                    [
                        {
                            "pitch": 45, 
                            "t0": 113640, 
                            "v": 104, 
                            "dur": 36, 
                            "type": "note", 
                            "channel": 9
                        }
                    ]
                ], 
                [
                    113760, 
                    [
                        {
                            "pitch": 75, 
                            "t0": 113760, 
                            "parts": [
                                [
                                    113760, 
                                    120
                                ], 
                                [
                                    113760, 
                                    104
                                ], 
                                [
                                    113980, 
                                    0
                                ]
                            ], 
                            "v": 120, 
                            "dur": 220, 
                            "type": "note", 
                            "channel": 0
                        }, 
                        {
                            "pitch": 81, 
                            "t0": 113760, 
                            "v": 104, 
                            "dur": 352, 
                            "type": "note", 
                            "channel": 4
                        }, 
                        {
                            "pitch": 64, 
                            "t0": 113760, 
                            "v": 104, 
                            "dur": 352, 
                            "type": "note", 
                            "channel": 4
                        }, 
                        {
                            "pitch": 57, 
                            "t0": 113760, 
                            "v": 104, 
                            "dur": 352, 
                            "type": "note", 
                            "channel": 4
                        }, 
                        {
                            "pitch": 73, 
                            "t0": 113760, 
                            "v": 104, 
                            "dur": 352, 
                            "type": "note", 
                            "channel": 4
                        }, 
                        {
                            "pitch": 69, 
                            "t0": 113760, 
                            "v": 104, 
                            "dur": 352, 
                            "type": "note", 
                            "channel": 4
                        }
                    ]
                ], 
                [
                    114000, 
                    [
                        {
                            "pitch": 45, 
                            "t0": 114000, 
                            "v": 104, 
                            "dur": 36, 
                            "type": "note", 
                            "channel": 9
                        }, 
                        {
                            "pitch": 78, 
                            "t0": 114000, 
                            "parts": [
                                [
                                    114000, 
                                    120
                                ], 
                                [
                                    114000, 
                                    104
                                ], 
                                [
                                    114220, 
                                    0
                                ]
                            ], 
                            "v": 120, 
                            "dur": 220, 
                            "type": "note", 
                            "channel": 0
                        }
                    ]
                ], 
                [
                    114120, 
                    [
                        {
                            "pitch": 81, 
                            "t0": 114120, 
                            "v": 104, 
                            "dur": 108, 
                            "type": "note", 
                            "channel": 4
                        }, 
                        {
                            "pitch": 73, 
                            "t0": 114120, 
                            "v": 104, 
                            "dur": 108, 
                            "type": "note", 
                            "channel": 4
                        }, 
                        {
                            "pitch": 64, 
                            "t0": 114120, 
                            "v": 104, 
                            "dur": 108, 
                            "type": "note", 
                            "channel": 4
                        }, 
                        {
                            "pitch": 69, 
                            "t0": 114120, 
                            "v": 104, 
                            "dur": 108, 
                            "type": "note", 
                            "channel": 4
                        }, 
                        {
                            "pitch": 57, 
                            "t0": 114120, 
                            "v": 104, 
                            "dur": 108, 
                            "type": "note", 
                            "channel": 4
                        }, 
                        {
                            "pitch": 76, 
                            "t0": 114120, 
                            "v": 104, 
                            "dur": 108, 
                            "type": "note", 
                            "channel": 4
                        }
                    ]
                ], 
                [
                    114240, 
                    [
                        {
                            "pitch": 76, 
                            "t0": 114240, 
                            "parts": [
                                [
                                    114240, 
                                    120
                                ], 
                                [
                                    114240, 
                                    104
                                ], 
                                [
                                    114681, 
                                    0
                                ]
                            ], 
                            "v": 120, 
                            "dur": 441, 
                            "type": "note", 
                            "channel": 0
                        }, 
                        {
                            "pitch": 64, 
                            "t0": 114240, 
                            "v": 104, 
                            "dur": 464, 
                            "type": "note", 
                            "channel": 4
                        }, 
                        {
                            "pitch": 83, 
                            "t0": 114240, 
                            "v": 104, 
                            "dur": 464, 
                            "type": "note", 
                            "channel": 4
                        }, 
                        {
                            "pitch": 71, 
                            "t0": 114240, 
                            "v": 104, 
                            "dur": 464, 
                            "type": "note", 
                            "channel": 4
                        }, 
                        {
                            "pitch": 78, 
                            "t0": 114240, 
                            "v": 104, 
                            "dur": 464, 
                            "type": "note", 
                            "channel": 4
                        }
                    ]
                ], 
                [
                    114360, 
                    [
                        {
                            "pitch": 45, 
                            "t0": 114360, 
                            "v": 104, 
                            "dur": 36, 
                            "type": "note", 
                            "channel": 9
                        }
                    ]
                ], 
                [
                    114720, 
                    [
                        {
                            "pitch": 45, 
                            "t0": 114720, 
                            "v": 120, 
                            "dur": 36, 
                            "type": "note", 
                            "channel": 9
                        }, 
                        {
                            "pitch": 76, 
                            "t0": 114720, 
                            "parts": [
                                [
                                    114720, 
                                    120
                                ], 
                                [
                                    114720, 
                                    104
                                ], 
                                [
                                    114940, 
                                    0
                                ]
                            ], 
                            "v": 120, 
                            "dur": 220, 
                            "type": "note", 
                            "channel": 0
                        }, 
                        {
                            "pitch": 83, 
                            "t0": 114720, 
                            "v": 104, 
                            "dur": 352, 
                            "type": "note", 
                            "channel": 4
                        }, 
                        {
                            "pitch": 64, 
                            "t0": 114720, 
                            "v": 104, 
                            "dur": 352, 
                            "type": "note", 
                            "channel": 4
                        }, 
                        {
                            "pitch": 71, 
                            "t0": 114720, 
                            "v": 104, 
                            "dur": 352, 
                            "type": "note", 
                            "channel": 4
                        }, 
                        {
                            "pitch": 78, 
                            "t0": 114720, 
                            "v": 104, 
                            "dur": 352, 
                            "type": "note", 
                            "channel": 4
                        }
                    ]
                ], 
                [
                    114960, 
                    [
                        {
                            "pitch": 46, 
                            "t0": 114960, 
                            "v": 104, 
                            "dur": 36, 
                            "type": "note", 
                            "channel": 9
                        }, 
                        {
                            "pitch": 75, 
                            "t0": 114960, 
                            "parts": [
                                [
                                    114960, 
                                    120
                                ], 
                                [
                                    114960, 
                                    104
                                ], 
                                [
                                    115180, 
                                    0
                                ]
                            ], 
                            "v": 120, 
                            "dur": 220, 
                            "type": "note", 
                            "channel": 0
                        }
                    ]
                ], 
                [
                    115080, 
                    [
                        {
                            "pitch": 83, 
                            "t0": 115080, 
                            "v": 104, 
                            "dur": 108, 
                            "type": "note", 
                            "channel": 4
                        }, 
                        {
                            "pitch": 64, 
                            "t0": 115080, 
                            "v": 104, 
                            "dur": 108, 
                            "type": "note", 
                            "channel": 4
                        }, 
                        {
                            "pitch": 76, 
                            "t0": 115080, 
                            "v": 104, 
                            "dur": 108, 
                            "type": "note", 
                            "channel": 4
                        }, 
                        {
                            "pitch": 78, 
                            "t0": 115080, 
                            "v": 104, 
                            "dur": 108, 
                            "type": "note", 
                            "channel": 4
                        }, 
                        {
                            "pitch": 71, 
                            "t0": 115080, 
                            "v": 104, 
                            "dur": 108, 
                            "type": "note", 
                            "channel": 4
                        }
                    ]
                ], 
                [
                    115200, 
                    [
                        {
                            "pitch": 45, 
                            "t0": 115200, 
                            "v": 120, 
                            "dur": 36, 
                            "type": "note", 
                            "channel": 9
                        }, 
                        {
                            "pitch": 71, 
                            "t0": 115200, 
                            "parts": [
                                [
                                    115200, 
                                    120
                                ], 
                                [
                                    115200, 
                                    104
                                ], 
                                [
                                    115420, 
                                    0
                                ]
                            ], 
                            "v": 120, 
                            "dur": 220, 
                            "type": "note", 
                            "channel": 0
                        }, 
                        {
                            "pitch": 76, 
                            "t0": 115200, 
                            "v": 104, 
                            "dur": 472, 
                            "type": "note", 
                            "channel": 4
                        }, 
                        {
                            "pitch": 83, 
                            "t0": 115200, 
                            "v": 104, 
                            "dur": 472, 
                            "type": "note", 
                            "channel": 4
                        }, 
                        {
                            "pitch": 64, 
                            "t0": 115200, 
                            "v": 104, 
                            "dur": 472, 
                            "type": "note", 
                            "channel": 4
                        }, 
                        {
                            "pitch": 78, 
                            "t0": 115200, 
                            "v": 104, 
                            "dur": 472, 
                            "type": "note", 
                            "channel": 4
                        }
                    ]
                ], 
                [
                    115440, 
                    [
                        {
                            "pitch": 59, 
                            "t0": 115440, 
                            "v": 120, 
                            "dur": 220, 
                            "type": "note", 
                            "channel": 1
                        }, 
                        {
                            "pitch": 71, 
                            "t0": 115440, 
                            "parts": [
                                [
                                    115440, 
                                    120
                                ], 
                                [
                                    115440, 
                                    104
                                ], 
                                [
                                    115670, 
                                    0
                                ]
                            ], 
                            "v": 120, 
                            "dur": 230, 
                            "type": "note", 
                            "channel": 0
                        }
                    ]
                ], 
                [
                    115560, 
                    [
                        {
                            "pitch": 45, 
                            "t0": 115560, 
                            "v": 104, 
                            "dur": 36, 
                            "type": "note", 
                            "channel": 9
                        }
                    ]
                ], 
                [
                    115680, 
                    [
                        {
                            "pitch": 75, 
                            "t0": 115680, 
                            "parts": [
                                [
                                    115680, 
                                    120
                                ], 
                                [
                                    115680, 
                                    104
                                ], 
                                [
                                    115900, 
                                    0
                                ]
                            ], 
                            "v": 120, 
                            "dur": 220, 
                            "type": "note", 
                            "channel": 0
                        }, 
                        {
                            "pitch": 76, 
                            "t0": 115680, 
                            "v": 104, 
                            "dur": 360, 
                            "type": "note", 
                            "channel": 4
                        }, 
                        {
                            "pitch": 83, 
                            "t0": 115680, 
                            "v": 104, 
                            "dur": 360, 
                            "type": "note", 
                            "channel": 4
                        }, 
                        {
                            "pitch": 71, 
                            "t0": 115680, 
                            "v": 104, 
                            "dur": 360, 
                            "type": "note", 
                            "channel": 4
                        }, 
                        {
                            "pitch": 78, 
                            "t0": 115680, 
                            "v": 104, 
                            "dur": 360, 
                            "type": "note", 
                            "channel": 4
                        }, 
                        {
                            "pitch": 64, 
                            "t0": 115680, 
                            "v": 104, 
                            "dur": 360, 
                            "type": "note", 
                            "channel": 4
                        }
                    ]
                ], 
                [
                    115920, 
                    [
                        {
                            "pitch": 45, 
                            "t0": 115920, 
                            "v": 104, 
                            "dur": 36, 
                            "type": "note", 
                            "channel": 9
                        }, 
                        {
                            "pitch": 68, 
                            "t0": 115920, 
                            "parts": [
                                [
                                    115920, 
                                    120
                                ], 
                                [
                                    115920, 
                                    104
                                ], 
                                [
                                    116140, 
                                    0
                                ]
                            ], 
                            "v": 120, 
                            "dur": 220, 
                            "type": "note", 
                            "channel": 0
                        }
                    ]
                ], 
                [
                    116040, 
                    [
                        {
                            "pitch": 83, 
                            "t0": 116040, 
                            "v": 104, 
                            "dur": 108, 
                            "type": "note", 
                            "channel": 4
                        }, 
                        {
                            "pitch": 76, 
                            "t0": 116040, 
                            "v": 104, 
                            "dur": 108, 
                            "type": "note", 
                            "channel": 4
                        }, 
                        {
                            "pitch": 78, 
                            "t0": 116040, 
                            "v": 104, 
                            "dur": 108, 
                            "type": "note", 
                            "channel": 4
                        }, 
                        {
                            "pitch": 71, 
                            "t0": 116040, 
                            "v": 104, 
                            "dur": 108, 
                            "type": "note", 
                            "channel": 4
                        }, 
                        {
                            "pitch": 64, 
                            "t0": 116040, 
                            "v": 104, 
                            "dur": 108, 
                            "type": "note", 
                            "channel": 4
                        }
                    ]
                ], 
                [
                    116160, 
                    [
                        {
                            "pitch": 69, 
                            "t0": 116160, 
                            "parts": [
                                [
                                    116160, 
                                    120
                                ], 
                                [
                                    116160, 
                                    104
                                ], 
                                [
                                    116380, 
                                    0
                                ]
                            ], 
                            "v": 120, 
                            "dur": 220, 
                            "type": "note", 
                            "channel": 0
                        }, 
                        {
                            "pitch": 81, 
                            "t0": 116160, 
                            "v": 104, 
                            "dur": 464, 
                            "type": "note", 
                            "channel": 4
                        }, 
                        {
                            "pitch": 73, 
                            "t0": 116160, 
                            "v": 104, 
                            "dur": 464, 
                            "type": "note", 
                            "channel": 4
                        }, 
                        {
                            "pitch": 57, 
                            "t0": 116160, 
                            "v": 104, 
                            "dur": 464, 
                            "type": "note", 
                            "channel": 4
                        }, 
                        {
                            "pitch": 64, 
                            "t0": 116160, 
                            "v": 104, 
                            "dur": 464, 
                            "type": "note", 
                            "channel": 4
                        }, 
                        {
                            "pitch": 76, 
                            "t0": 116160, 
                            "v": 104, 
                            "dur": 464, 
                            "type": "note", 
                            "channel": 4
                        }
                    ]
                ], 
                [
                    116280, 
                    [
                        {
                            "pitch": 45, 
                            "t0": 116280, 
                            "v": 104, 
                            "dur": 36, 
                            "type": "note", 
                            "channel": 9
                        }
                    ]
                ], 
                [
                    116400, 
                    [
                        {
                            "pitch": 59, 
                            "t0": 116400, 
                            "v": 120, 
                            "dur": 220, 
                            "type": "note", 
                            "channel": 1
                        }
                    ]
                ], 
                [
                    116640, 
                    [
                        {
                            "pitch": 45, 
                            "t0": 116640, 
                            "v": 120, 
                            "dur": 36, 
                            "type": "note", 
                            "channel": 9
                        }, 
                        {
                            "pitch": 81, 
                            "t0": 116640, 
                            "v": 104, 
                            "dur": 432, 
                            "type": "note", 
                            "channel": 4
                        }, 
                        {
                            "pitch": 57, 
                            "t0": 116640, 
                            "v": 104, 
                            "dur": 432, 
                            "type": "note", 
                            "channel": 4
                        }, 
                        {
                            "pitch": 69, 
                            "t0": 116640, 
                            "v": 104, 
                            "dur": 432, 
                            "type": "note", 
                            "channel": 4
                        }, 
                        {
                            "pitch": 76, 
                            "t0": 116640, 
                            "v": 104, 
                            "dur": 432, 
                            "type": "note", 
                            "channel": 4
                        }, 
                        {
                            "pitch": 64, 
                            "t0": 116640, 
                            "v": 104, 
                            "dur": 432, 
                            "type": "note", 
                            "channel": 4
                        }, 
                        {
                            "pitch": 73, 
                            "t0": 116640, 
                            "v": 104, 
                            "dur": 432, 
                            "type": "note", 
                            "channel": 4
                        }, 
                        {
                            "pitch": 71, 
                            "t0": 116640, 
                            "v": 120, 
                            "dur": 441, 
                            "type": "note", 
                            "channel": 1
                        }
                    ]
                ], 
                [
                    116880, 
                    [
                        {
                            "pitch": 49, 
                            "t0": 116880, 
                            "v": 120, 
                            "dur": 36, 
                            "type": "note", 
                            "channel": 9
                        }, 
                        {
                            "pitch": 38, 
                            "t0": 116880, 
                            "v": 120, 
                            "dur": 36, 
                            "type": "note", 
                            "channel": 9
                        }
                    ]
                ], 
                [
                    117120, 
                    [
                        {
                            "pitch": 36, 
                            "t0": 117120, 
                            "v": 120, 
                            "dur": 36, 
                            "type": "note", 
                            "channel": 9
                        }, 
                        {
                            "pitch": 49, 
                            "t0": 117120, 
                            "v": 120, 
                            "dur": 36, 
                            "type": "note", 
                            "channel": 9
                        }, 
                        {
                            "pitch": 44, 
                            "t0": 117120, 
                            "v": 104, 
                            "dur": 108, 
                            "type": "note", 
                            "channel": 6
                        }, 
                        {
                            "pitch": 68, 
                            "t0": 117120, 
                            "parts": [
                                [
                                    117120, 
                                    120
                                ], 
                                [
                                    117120, 
                                    104
                                ], 
                                [
                                    117350, 
                                    0
                                ]
                            ], 
                            "v": 120, 
                            "dur": 230, 
                            "type": "note", 
                            "channel": 0
                        }, 
                        {
                            "pitch": 71, 
                            "t0": 117120, 
                            "v": 104, 
                            "dur": 432, 
                            "type": "note", 
                            "channel": 4
                        }, 
                        {
                            "pitch": 80, 
                            "t0": 117120, 
                            "v": 104, 
                            "dur": 432, 
                            "type": "note", 
                            "channel": 4
                        }, 
                        {
                            "pitch": 56, 
                            "t0": 117120, 
                            "v": 104, 
                            "dur": 432, 
                            "type": "note", 
                            "channel": 4
                        }, 
                        {
                            "pitch": 75, 
                            "t0": 117120, 
                            "v": 104, 
                            "dur": 432, 
                            "type": "note", 
                            "channel": 4
                        }
                    ]
                ], 
                [
                    117240, 
                    [
                        {
                            "pitch": 36, 
                            "t0": 117240, 
                            "v": 104, 
                            "dur": 36, 
                            "type": "note", 
                            "channel": 9
                        }, 
                        {
                            "pitch": 44, 
                            "t0": 117240, 
                            "v": 104, 
                            "dur": 108, 
                            "type": "note", 
                            "channel": 6
                        }
                    ]
                ], 
                [
                    117360, 
                    [
                        {
                            "pitch": 44, 
                            "t0": 117360, 
                            "v": 88, 
                            "dur": 36, 
                            "type": "note", 
                            "channel": 9
                        }, 
                        {
                            "pitch": 68, 
                            "t0": 117360, 
                            "parts": [
                                [
                                    117360, 
                                    120
                                ], 
                                [
                                    117360, 
                                    104
                                ], 
                                [
                                    117451, 
                                    0
                                ]
                            ], 
                            "v": 120, 
                            "dur": 91, 
                            "type": "note", 
                            "channel": 0
                        }
                    ]
                ], 
                [
                    117480, 
                    [
                        {
                            "pitch": 36, 
                            "t0": 117480, 
                            "v": 104, 
                            "dur": 36, 
                            "type": "note", 
                            "channel": 9
                        }, 
                        {
                            "pitch": 68, 
                            "t0": 117480, 
                            "v": 120, 
                            "dur": 72, 
                            "type": "note", 
                            "channel": 1
                        }, 
                        {
                            "pitch": 44, 
                            "t0": 117480, 
                            "v": 104, 
                            "dur": 108, 
                            "type": "note", 
                            "channel": 6
                        }
                    ]
                ], 
                [
                    117600, 
                    [
                        {
                            "pitch": 38, 
                            "t0": 117600, 
                            "v": 120, 
                            "dur": 36, 
                            "type": "note", 
                            "channel": 9
                        }, 
                        {
                            "pitch": 44, 
                            "t0": 117600, 
                            "v": 104, 
                            "dur": 108, 
                            "type": "note", 
                            "channel": 6
                        }, 
                        {
                            "pitch": 73, 
                            "t0": 117600, 
                            "parts": [
                                [
                                    117600, 
                                    120
                                ], 
                                [
                                    117600, 
                                    104
                                ], 
                                [
                                    117820, 
                                    0
                                ]
                            ], 
                            "v": 120, 
                            "dur": 220, 
                            "type": "note", 
                            "channel": 0
                        }, 
                        {
                            "pitch": 68, 
                            "t0": 117600, 
                            "v": 104, 
                            "dur": 324, 
                            "type": "note", 
                            "channel": 4
                        }, 
                        {
                            "pitch": 56, 
                            "t0": 117600, 
                            "v": 104, 
                            "dur": 324, 
                            "type": "note", 
                            "channel": 4
                        }, 
                        {
                            "pitch": 80, 
                            "t0": 117600, 
                            "v": 104, 
                            "dur": 324, 
                            "type": "note", 
                            "channel": 4
                        }, 
                        {
                            "pitch": 71, 
                            "t0": 117600, 
                            "v": 104, 
                            "dur": 324, 
                            "type": "note", 
                            "channel": 4
                        }, 
                        {
                            "pitch": 75, 
                            "t0": 117600, 
                            "parts": [
                                [
                                    117600, 
                                    104
                                ], 
                                [
                                    117840, 
                                    120
                                ], 
                                [
                                    117840, 
                                    104
                                ], 
                                [
                                    117924, 
                                    0
                                ]
                            ], 
                            "v": 104, 
                            "dur": 324, 
                            "type": "note", 
                            "channel": 4
                        }
                    ]
                ], 
                [
                    117840, 
                    [
                        {
                            "pitch": 36, 
                            "t0": 117840, 
                            "v": 104, 
                            "dur": 36, 
                            "type": "note", 
                            "channel": 9
                        }, 
                        {
                            "pitch": 44, 
                            "t0": 117840, 
                            "parts": [
                                [
                                    117840, 
                                    104
                                ], 
                                [
                                    117840, 
                                    88
                                ], 
                                [
                                    117876, 
                                    0
                                ]
                            ], 
                            "v": 104, 
                            "dur": 36, 
                            "type": "note", 
                            "channel": 6
                        }
                    ]
                ], 
                [
                    117960, 
                    [
                        {
                            "pitch": 36, 
                            "t0": 117960, 
                            "v": 104, 
                            "dur": 36, 
                            "type": "note", 
                            "channel": 9
                        }, 
                        {
                            "pitch": 75, 
                            "t0": 117960, 
                            "v": 104, 
                            "dur": 100, 
                            "type": "note", 
                            "channel": 4
                        }, 
                        {
                            "pitch": 56, 
                            "t0": 117960, 
                            "v": 104, 
                            "dur": 108, 
                            "type": "note", 
                            "channel": 4
                        }, 
                        {
                            "pitch": 68, 
                            "t0": 117960, 
                            "v": 104, 
                            "dur": 108, 
                            "type": "note", 
                            "channel": 4
                        }, 
                        {
                            "pitch": 71, 
                            "t0": 117960, 
                            "v": 104, 
                            "dur": 108, 
                            "type": "note", 
                            "channel": 4
                        }, 
                        {
                            "pitch": 80, 
                            "t0": 117960, 
                            "v": 104, 
                            "dur": 108, 
                            "type": "note", 
                            "channel": 4
                        }
                    ]
                ], 
                [
                    118080, 
                    [
                        {
                            "pitch": 49, 
                            "t0": 118080, 
                            "v": 104, 
                            "dur": 108, 
                            "type": "note", 
                            "channel": 6
                        }, 
                        {
                            "pitch": 80, 
                            "t0": 118080, 
                            "v": 104, 
                            "dur": 432, 
                            "type": "note", 
                            "channel": 4
                        }, 
                        {
                            "pitch": 61, 
                            "t0": 118080, 
                            "v": 104, 
                            "dur": 432, 
                            "type": "note", 
                            "channel": 4
                        }, 
                        {
                            "pitch": 68, 
                            "t0": 118080, 
                            "v": 104, 
                            "dur": 432, 
                            "type": "note", 
                            "channel": 4
                        }, 
                        {
                            "pitch": 73, 
                            "t0": 118080, 
                            "v": 104, 
                            "dur": 432, 
                            "type": "note", 
                            "channel": 4
                        }, 
                        {
                            "pitch": 76, 
                            "t0": 118080, 
                            "parts": [
                                [
                                    118080, 
                                    120
                                ], 
                                [
                                    118080, 
                                    104
                                ], 
                                [
                                    118512, 
                                    0
                                ]
                            ], 
                            "v": 120, 
                            "dur": 432, 
                            "type": "note", 
                            "channel": 0
                        }
                    ]
                ], 
                [
                    118200, 
                    [
                        {
                            "pitch": 36, 
                            "t0": 118200, 
                            "v": 104, 
                            "dur": 36, 
                            "type": "note", 
                            "channel": 9
                        }, 
                        {
                            "pitch": 49, 
                            "t0": 118200, 
                            "v": 104, 
                            "dur": 108, 
                            "type": "note", 
                            "channel": 6
                        }
                    ]
                ], 
                [
                    118320, 
                    [
                        {
                            "pitch": 44, 
                            "t0": 118320, 
                            "v": 88, 
                            "dur": 36, 
                            "type": "note", 
                            "channel": 9
                        }
                    ]
                ], 
                [
                    118440, 
                    [
                        {
                            "pitch": 36, 
                            "t0": 118440, 
                            "v": 104, 
                            "dur": 36, 
                            "type": "note", 
                            "channel": 9
                        }, 
                        {
                            "pitch": 49, 
                            "t0": 118440, 
                            "v": 104, 
                            "dur": 108, 
                            "type": "note", 
                            "channel": 6
                        }
                    ]
                ], 
                [
                    118560, 
                    [
                        {
                            "pitch": 38, 
                            "t0": 118560, 
                            "v": 120, 
                            "dur": 36, 
                            "type": "note", 
                            "channel": 9
                        }, 
                        {
                            "pitch": 49, 
                            "t0": 118560, 
                            "v": 104, 
                            "dur": 108, 
                            "type": "note", 
                            "channel": 6
                        }, 
                        {
                            "pitch": 64, 
                            "t0": 118560, 
                            "parts": [
                                [
                                    118560, 
                                    120
                                ], 
                                [
                                    118560, 
                                    104
                                ], 
                                [
                                    118780, 
                                    0
                                ]
                            ], 
                            "v": 120, 
                            "dur": 220, 
                            "type": "note", 
                            "channel": 0
                        }, 
                        {
                            "pitch": 73, 
                            "t0": 118560, 
                            "v": 104, 
                            "dur": 324, 
                            "type": "note", 
                            "channel": 4
                        }, 
                        {
                            "pitch": 80, 
                            "t0": 118560, 
                            "v": 104, 
                            "dur": 324, 
                            "type": "note", 
                            "channel": 4
                        }, 
                        {
                            "pitch": 61, 
                            "t0": 118560, 
                            "v": 104, 
                            "dur": 324, 
                            "type": "note", 
                            "channel": 4
                        }, 
                        {
                            "pitch": 68, 
                            "t0": 118560, 
                            "v": 104, 
                            "dur": 324, 
                            "type": "note", 
                            "channel": 4
                        }, 
                        {
                            "pitch": 76, 
                            "t0": 118560, 
                            "v": 104, 
                            "dur": 324, 
                            "type": "note", 
                            "channel": 4
                        }
                    ]
                ], 
                [
                    118800, 
                    [
                        {
                            "pitch": 36, 
                            "t0": 118800, 
                            "v": 104, 
                            "dur": 36, 
                            "type": "note", 
                            "channel": 9
                        }, 
                        {
                            "pitch": 51, 
                            "t0": 118800, 
                            "v": 88, 
                            "dur": 36, 
                            "type": "note", 
                            "channel": 9
                        }, 
                        {
                            "pitch": 64, 
                            "t0": 118800, 
                            "v": 120, 
                            "dur": 105, 
                            "type": "note", 
                            "channel": 1
                        }, 
                        {
                            "pitch": 49, 
                            "t0": 118800, 
                            "v": 104, 
                            "dur": 216, 
                            "type": "note", 
                            "channel": 6
                        }
                    ]
                ], 
                [
                    118920, 
                    [
                        {
                            "pitch": 64, 
                            "t0": 118920, 
                            "parts": [
                                [
                                    118920, 
                                    120
                                ], 
                                [
                                    118920, 
                                    104
                                ], 
                                [
                                    119020, 
                                    0
                                ]
                            ], 
                            "v": 120, 
                            "dur": 100, 
                            "type": "note", 
                            "channel": 0
                        }, 
                        {
                            "pitch": 80, 
                            "t0": 118920, 
                            "v": 104, 
                            "dur": 108, 
                            "type": "note", 
                            "channel": 4
                        }, 
                        {
                            "pitch": 68, 
                            "t0": 118920, 
                            "v": 104, 
                            "dur": 108, 
                            "type": "note", 
                            "channel": 4
                        }, 
                        {
                            "pitch": 61, 
                            "t0": 118920, 
                            "v": 104, 
                            "dur": 108, 
                            "type": "note", 
                            "channel": 4
                        }, 
                        {
                            "pitch": 76, 
                            "t0": 118920, 
                            "v": 104, 
                            "dur": 108, 
                            "type": "note", 
                            "channel": 4
                        }, 
                        {
                            "pitch": 73, 
                            "t0": 118920, 
                            "v": 104, 
                            "dur": 108, 
                            "type": "note", 
                            "channel": 4
                        }
                    ]
                ], 
                [
                    119040, 
                    [
                        {
                            "pitch": 36, 
                            "t0": 119040, 
                            "v": 120, 
                            "dur": 36, 
                            "type": "note", 
                            "channel": 9
                        }, 
                        {
                            "pitch": 45, 
                            "t0": 119040, 
                            "v": 104, 
                            "dur": 108, 
                            "type": "note", 
                            "channel": 6
                        }, 
                        {
                            "pitch": 64, 
                            "t0": 119040, 
                            "parts": [
                                [
                                    119040, 
                                    120
                                ], 
                                [
                                    119040, 
                                    104
                                ], 
                                [
                                    119270, 
                                    0
                                ]
                            ], 
                            "v": 120, 
                            "dur": 230, 
                            "type": "note", 
                            "channel": 0
                        }, 
                        {
                            "pitch": 81, 
                            "t0": 119040, 
                            "v": 104, 
                            "dur": 432, 
                            "type": "note", 
                            "channel": 4
                        }, 
                        {
                            "pitch": 69, 
                            "t0": 119040, 
                            "v": 104, 
                            "dur": 432, 
                            "type": "note", 
                            "channel": 4
                        }, 
                        {
                            "pitch": 76, 
                            "t0": 119040, 
                            "v": 104, 
                            "dur": 432, 
                            "type": "note", 
                            "channel": 4
                        }, 
                        {
                            "pitch": 57, 
                            "t0": 119040, 
                            "v": 104, 
                            "dur": 432, 
                            "type": "note", 
                            "channel": 4
                        }, 
                        {
                            "pitch": 73, 
                            "t0": 119040, 
                            "v": 104, 
                            "dur": 432, 
                            "type": "note", 
                            "channel": 4
                        }
                    ]
                ], 
                [
                    119160, 
                    [
                        {
                            "pitch": 36, 
                            "t0": 119160, 
                            "v": 104, 
                            "dur": 36, 
                            "type": "note", 
                            "channel": 9
                        }, 
                        {
                            "pitch": 45, 
                            "t0": 119160, 
                            "v": 104, 
                            "dur": 108, 
                            "type": "note", 
                            "channel": 6
                        }
                    ]
                ], 
                [
                    119280, 
                    [
                        {
                            "pitch": 44, 
                            "t0": 119280, 
                            "v": 88, 
                            "dur": 36, 
                            "type": "note", 
                            "channel": 9
                        }, 
                        {
                            "pitch": 64, 
                            "t0": 119280, 
                            "parts": [
                                [
                                    119280, 
                                    120
                                ], 
                                [
                                    119280, 
                                    104
                                ], 
                                [
                                    119371, 
                                    0
                                ]
                            ], 
                            "v": 120, 
                            "dur": 91, 
                            "type": "note", 
                            "channel": 0
                        }
                    ]
                ], 
                [
                    119400, 
                    [
                        {
                            "pitch": 36, 
                            "t0": 119400, 
                            "v": 104, 
                            "dur": 36, 
                            "type": "note", 
                            "channel": 9
                        }, 
                        {
                            "pitch": 64, 
                            "t0": 119400, 
                            "v": 120, 
                            "dur": 72, 
                            "type": "note", 
                            "channel": 1
                        }, 
                        {
                            "pitch": 45, 
                            "t0": 119400, 
                            "v": 104, 
                            "dur": 108, 
                            "type": "note", 
                            "channel": 6
                        }
                    ]
                ], 
                [
                    119520, 
                    [
                        {
                            "pitch": 38, 
                            "t0": 119520, 
                            "v": 120, 
                            "dur": 36, 
                            "type": "note", 
                            "channel": 9
                        }, 
                        {
                            "pitch": 45, 
                            "t0": 119520, 
                            "v": 104, 
                            "dur": 108, 
                            "type": "note", 
                            "channel": 6
                        }, 
                        {
                            "pitch": 66, 
                            "t0": 119520, 
                            "parts": [
                                [
                                    119520, 
                                    120
                                ], 
                                [
                                    119520, 
                                    104
                                ], 
                                [
                                    119740, 
                                    0
                                ]
                            ], 
                            "v": 120, 
                            "dur": 220, 
                            "type": "note", 
                            "channel": 0
                        }, 
                        {
                            "pitch": 81, 
                            "t0": 119520, 
                            "v": 104, 
                            "dur": 324, 
                            "type": "note", 
                            "channel": 4
                        }, 
                        {
                            "pitch": 73, 
                            "t0": 119520, 
                            "v": 104, 
                            "dur": 324, 
                            "type": "note", 
                            "channel": 4
                        }, 
                        {
                            "pitch": 57, 
                            "t0": 119520, 
                            "v": 104, 
                            "dur": 324, 
                            "type": "note", 
                            "channel": 4
                        }, 
                        {
                            "pitch": 69, 
                            "t0": 119520, 
                            "v": 104, 
                            "dur": 324, 
                            "type": "note", 
                            "channel": 4
                        }, 
                        {
                            "pitch": 64, 
                            "t0": 119520, 
                            "v": 104, 
                            "dur": 324, 
                            "type": "note", 
                            "channel": 4
                        }
                    ]
                ], 
                [
                    119760, 
                    [
                        {
                            "pitch": 36, 
                            "t0": 119760, 
                            "v": 104, 
                            "dur": 36, 
                            "type": "note", 
                            "channel": 9
                        }, 
                        {
                            "pitch": 44, 
                            "t0": 119760, 
                            "v": 88, 
                            "dur": 36, 
                            "type": "note", 
                            "channel": 9
                        }, 
                        {
                            "pitch": 45, 
                            "t0": 119760, 
                            "v": 104, 
                            "dur": 216, 
                            "type": "note", 
                            "channel": 6
                        }, 
                        {
                            "pitch": 68, 
                            "t0": 119760, 
                            "parts": [
                                [
                                    119760, 
                                    120
                                ], 
                                [
                                    119760, 
                                    104
                                ], 
                                [
                                    119980, 
                                    0
                                ]
                            ], 
                            "v": 120, 
                            "dur": 220, 
                            "type": "note", 
                            "channel": 0
                        }
                    ]
                ], 
                [
                    119880, 
                    [
                        {
                            "pitch": 36, 
                            "t0": 119880, 
                            "v": 104, 
                            "dur": 36, 
                            "type": "note", 
                            "channel": 9
                        }, 
                        {
                            "pitch": 81, 
                            "t0": 119880, 
                            "v": 104, 
                            "dur": 108, 
                            "type": "note", 
                            "channel": 4
                        }, 
                        {
                            "pitch": 69, 
                            "t0": 119880, 
                            "v": 104, 
                            "dur": 108, 
                            "type": "note", 
                            "channel": 4
                        }, 
                        {
                            "pitch": 73, 
                            "t0": 119880, 
                            "v": 104, 
                            "dur": 108, 
                            "type": "note", 
                            "channel": 4
                        }, 
                        {
                            "pitch": 64, 
                            "t0": 119880, 
                            "v": 104, 
                            "dur": 108, 
                            "type": "note", 
                            "channel": 4
                        }, 
                        {
                            "pitch": 57, 
                            "t0": 119880, 
                            "v": 104, 
                            "dur": 108, 
                            "type": "note", 
                            "channel": 4
                        }
                    ]
                ], 
                [
                    120000, 
                    [
                        {
                            "pitch": 47, 
                            "t0": 120000, 
                            "v": 104, 
                            "dur": 108, 
                            "type": "note", 
                            "channel": 6
                        }, 
                        {
                            "pitch": 59, 
                            "t0": 120000, 
                            "v": 104, 
                            "dur": 324, 
                            "type": "note", 
                            "channel": 3
                        }, 
                        {
                            "pitch": 83, 
                            "t0": 120000, 
                            "v": 104, 
                            "dur": 324, 
                            "type": "note", 
                            "channel": 4
                        }, 
                        {
                            "pitch": 71, 
                            "t0": 120000, 
                            "v": 104, 
                            "dur": 324, 
                            "type": "note", 
                            "channel": 4
                        }, 
                        {
                            "pitch": 66, 
                            "t0": 120000, 
                            "parts": [
                                [
                                    120000, 
                                    120
                                ], 
                                [
                                    120000, 
                                    104
                                ], 
                                [
                                    120324, 
                                    0
                                ]
                            ], 
                            "v": 120, 
                            "dur": 324, 
                            "type": "note", 
                            "channel": 0
                        }, 
                        {
                            "pitch": 78, 
                            "t0": 120000, 
                            "v": 104, 
                            "dur": 324, 
                            "type": "note", 
                            "channel": 4
                        }, 
                        {
                            "pitch": 75, 
                            "t0": 120000, 
                            "v": 104, 
                            "dur": 324, 
                            "type": "note", 
                            "channel": 4
                        }
                    ]
                ], 
                [
                    120120, 
                    [
                        {
                            "pitch": 36, 
                            "t0": 120120, 
                            "v": 104, 
                            "dur": 36, 
                            "type": "note", 
                            "channel": 9
                        }, 
                        {
                            "pitch": 47, 
                            "t0": 120120, 
                            "v": 104, 
                            "dur": 108, 
                            "type": "note", 
                            "channel": 6
                        }
                    ]
                ], 
                [
                    120240, 
                    [
                        {
                            "pitch": 44, 
                            "t0": 120240, 
                            "v": 88, 
                            "dur": 36, 
                            "type": "note", 
                            "channel": 9
                        }
                    ]
                ], 
                [
                    120360, 
                    [
                        {
                            "pitch": 36, 
                            "t0": 120360, 
                            "v": 104, 
                            "dur": 36, 
                            "type": "note", 
                            "channel": 9
                        }, 
                        {
                            "pitch": 47, 
                            "t0": 120360, 
                            "v": 104, 
                            "dur": 108, 
                            "type": "note", 
                            "channel": 6
                        }, 
                        {
                            "pitch": 59, 
                            "t0": 120360, 
                            "v": 104, 
                            "dur": 108, 
                            "type": "note", 
                            "channel": 4
                        }, 
                        {
                            "pitch": 71, 
                            "t0": 120360, 
                            "v": 104, 
                            "dur": 108, 
                            "type": "note", 
                            "channel": 4
                        }, 
                        {
                            "pitch": 66, 
                            "t0": 120360, 
                            "v": 104, 
                            "dur": 108, 
                            "type": "note", 
                            "channel": 4
                        }, 
                        {
                            "pitch": 83, 
                            "t0": 120360, 
                            "v": 104, 
                            "dur": 108, 
                            "type": "note", 
                            "channel": 4
                        }, 
                        {
                            "pitch": 75, 
                            "t0": 120360, 
                            "v": 104, 
                            "dur": 108, 
                            "type": "note", 
                            "channel": 4
                        }, 
                        {
                            "pitch": 78, 
                            "t0": 120360, 
                            "v": 104, 
                            "dur": 108, 
                            "type": "note", 
                            "channel": 4
                        }
                    ]
                ], 
                [
                    120480, 
                    [
                        {
                            "pitch": 38, 
                            "t0": 120480, 
                            "v": 120, 
                            "dur": 36, 
                            "type": "note", 
                            "channel": 9
                        }, 
                        {
                            "pitch": 47, 
                            "t0": 120480, 
                            "v": 104, 
                            "dur": 108, 
                            "type": "note", 
                            "channel": 6
                        }, 
                        {
                            "pitch": 71, 
                            "t0": 120480, 
                            "v": 104, 
                            "dur": 324, 
                            "type": "note", 
                            "channel": 4
                        }, 
                        {
                            "pitch": 78, 
                            "t0": 120480, 
                            "v": 104, 
                            "dur": 324, 
                            "type": "note", 
                            "channel": 4
                        }, 
                        {
                            "pitch": 59, 
                            "t0": 120480, 
                            "v": 104, 
                            "dur": 324, 
                            "type": "note", 
                            "channel": 4
                        }, 
                        {
                            "pitch": 66, 
                            "t0": 120480, 
                            "v": 104, 
                            "dur": 324, 
                            "type": "note", 
                            "channel": 4
                        }, 
                        {
                            "pitch": 83, 
                            "t0": 120480, 
                            "v": 104, 
                            "dur": 324, 
                            "type": "note", 
                            "channel": 4
                        }, 
                        {
                            "pitch": 75, 
                            "t0": 120480, 
                            "v": 104, 
                            "dur": 324, 
                            "type": "note", 
                            "channel": 4
                        }
                    ]
                ], 
                [
                    120720, 
                    [
                        {
                            "pitch": 36, 
                            "t0": 120720, 
                            "v": 104, 
                            "dur": 36, 
                            "type": "note", 
                            "channel": 9
                        }, 
                        {
                            "pitch": 51, 
                            "t0": 120720, 
                            "v": 88, 
                            "dur": 36, 
                            "type": "note", 
                            "channel": 9
                        }, 
                        {
                            "pitch": 42, 
                            "t0": 120720, 
                            "v": 104, 
                            "dur": 216, 
                            "type": "note", 
                            "channel": 6
                        }
                    ]
                ], 
                [
                    120840, 
                    [
                        {
                            "pitch": 66, 
                            "t0": 120840, 
                            "v": 104, 
                            "dur": 43, 
                            "type": "note", 
                            "channel": 4
                        }, 
                        {
                            "pitch": 83, 
                            "t0": 120840, 
                            "v": 104, 
                            "dur": 54, 
                            "type": "note", 
                            "channel": 3
                        }, 
                        {
                            "pitch": 71, 
                            "t0": 120840, 
                            "v": 104, 
                            "dur": 54, 
                            "type": "note", 
                            "channel": 3
                        }, 
                        {
                            "pitch": 78, 
                            "t0": 120840, 
                            "v": 104, 
                            "dur": 54, 
                            "type": "note", 
                            "channel": 3
                        }, 
                        {
                            "pitch": 75, 
                            "t0": 120840, 
                            "v": 104, 
                            "dur": 54, 
                            "type": "note", 
                            "channel": 3
                        }, 
                        {
                            "pitch": 59, 
                            "t0": 120840, 
                            "v": 104, 
                            "dur": 108, 
                            "type": "note", 
                            "channel": 4
                        }
                    ]
                ], 
                [
                    120900, 
                    [
                        {
                            "pitch": 83, 
                            "t0": 120900, 
                            "v": 104, 
                            "dur": 48, 
                            "type": "note", 
                            "channel": 3
                        }, 
                        {
                            "pitch": 78, 
                            "t0": 120900, 
                            "v": 104, 
                            "dur": 48, 
                            "type": "note", 
                            "channel": 3
                        }, 
                        {
                            "pitch": 75, 
                            "t0": 120900, 
                            "v": 104, 
                            "dur": 48, 
                            "type": "note", 
                            "channel": 3
                        }, 
                        {
                            "pitch": 71, 
                            "t0": 120900, 
                            "v": 104, 
                            "dur": 48, 
                            "type": "note", 
                            "channel": 3
                        }
                    ]
                ], 
                [
                    120960, 
                    [
                        {
                            "pitch": 36, 
                            "t0": 120960, 
                            "v": 120, 
                            "dur": 36, 
                            "type": "note", 
                            "channel": 9
                        }, 
                        {
                            "pitch": 49, 
                            "t0": 120960, 
                            "v": 120, 
                            "dur": 36, 
                            "type": "note", 
                            "channel": 9
                        }, 
                        {
                            "pitch": 47, 
                            "t0": 120960, 
                            "v": 104, 
                            "dur": 108, 
                            "type": "note", 
                            "channel": 6
                        }, 
                        {
                            "pitch": 59, 
                            "t0": 120960, 
                            "v": 104, 
                            "dur": 432, 
                            "type": "note", 
                            "channel": 4
                        }, 
                        {
                            "pitch": 83, 
                            "t0": 120960, 
                            "v": 104, 
                            "dur": 432, 
                            "type": "note", 
                            "channel": 3
                        }, 
                        {
                            "pitch": 71, 
                            "t0": 120960, 
                            "v": 104, 
                            "dur": 432, 
                            "type": "note", 
                            "channel": 3
                        }, 
                        {
                            "pitch": 66, 
                            "t0": 120960, 
                            "v": 104, 
                            "dur": 432, 
                            "type": "note", 
                            "channel": 4
                        }, 
                        {
                            "pitch": 78, 
                            "t0": 120960, 
                            "v": 104, 
                            "dur": 432, 
                            "type": "note", 
                            "channel": 3
                        }, 
                        {
                            "pitch": 75, 
                            "t0": 120960, 
                            "v": 104, 
                            "dur": 432, 
                            "type": "note", 
                            "channel": 3
                        }
                    ]
                ], 
                [
                    121080, 
                    [
                        {
                            "pitch": 47, 
                            "t0": 121080, 
                            "v": 104, 
                            "dur": 216, 
                            "type": "note", 
                            "channel": 6
                        }
                    ]
                ], 
                [
                    121200, 
                    [
                        {
                            "pitch": 44, 
                            "t0": 121200, 
                            "v": 88, 
                            "dur": 36, 
                            "type": "note", 
                            "channel": 9
                        }
                    ]
                ], 
                [
                    121320, 
                    [
                        {
                            "pitch": 36, 
                            "t0": 121320, 
                            "v": 104, 
                            "dur": 36, 
                            "type": "note", 
                            "channel": 9
                        }, 
                        {
                            "pitch": 47, 
                            "t0": 121320, 
                            "v": 104, 
                            "dur": 108, 
                            "type": "note", 
                            "channel": 6
                        }
                    ]
                ], 
                [
                    121440, 
                    [
                        {
                            "pitch": 44, 
                            "t0": 121440, 
                            "v": 104, 
                            "dur": 36, 
                            "type": "note", 
                            "channel": 9
                        }, 
                        {
                            "pitch": 38, 
                            "t0": 121440, 
                            "v": 120, 
                            "dur": 36, 
                            "type": "note", 
                            "channel": 9
                        }, 
                        {
                            "pitch": 47, 
                            "t0": 121440, 
                            "v": 104, 
                            "dur": 108, 
                            "type": "note", 
                            "channel": 6
                        }, 
                        {
                            "pitch": 71, 
                            "t0": 121440, 
                            "v": 104, 
                            "dur": 168, 
                            "type": "note", 
                            "channel": 4
                        }, 
                        {
                            "pitch": 78, 
                            "t0": 121440, 
                            "v": 104, 
                            "dur": 168, 
                            "type": "note", 
                            "channel": 4
                        }, 
                        {
                            "pitch": 75, 
                            "t0": 121440, 
                            "v": 104, 
                            "dur": 168, 
                            "type": "note", 
                            "channel": 4
                        }, 
                        {
                            "pitch": 83, 
                            "t0": 121440, 
                            "v": 104, 
                            "dur": 168, 
                            "type": "note", 
                            "channel": 4
                        }, 
                        {
                            "pitch": 59, 
                            "t0": 121440, 
                            "v": 104, 
                            "dur": 324, 
                            "type": "note", 
                            "channel": 4
                        }, 
                        {
                            "pitch": 66, 
                            "t0": 121440, 
                            "v": 104, 
                            "dur": 324, 
                            "type": "note", 
                            "channel": 4
                        }
                    ]
                ], 
                [
                    121560, 
                    [
                        {
                            "pitch": 42, 
                            "t0": 121560, 
                            "v": 104, 
                            "dur": 216, 
                            "type": "note", 
                            "channel": 6
                        }
                    ]
                ], 
                [
                    121680, 
                    [
                        {
                            "pitch": 36, 
                            "t0": 121680, 
                            "v": 104, 
                            "dur": 36, 
                            "type": "note", 
                            "channel": 9
                        }, 
                        {
                            "pitch": 44, 
                            "t0": 121680, 
                            "v": 88, 
                            "dur": 36, 
                            "type": "note", 
                            "channel": 9
                        }, 
                        {
                            "pitch": 83, 
                            "t0": 121680, 
                            "v": 104, 
                            "dur": 84, 
                            "type": "note", 
                            "channel": 3
                        }, 
                        {
                            "pitch": 71, 
                            "t0": 121680, 
                            "v": 104, 
                            "dur": 84, 
                            "type": "note", 
                            "channel": 3
                        }, 
                        {
                            "pitch": 78, 
                            "t0": 121680, 
                            "v": 104, 
                            "dur": 84, 
                            "type": "note", 
                            "channel": 3
                        }, 
                        {
                            "pitch": 75, 
                            "t0": 121680, 
                            "v": 104, 
                            "dur": 84, 
                            "type": "note", 
                            "channel": 3
                        }
                    ]
                ], 
                [
                    121800, 
                    [
                        {
                            "pitch": 36, 
                            "t0": 121800, 
                            "v": 104, 
                            "dur": 36, 
                            "type": "note", 
                            "channel": 9
                        }, 
                        {
                            "pitch": 66, 
                            "t0": 121800, 
                            "v": 104, 
                            "dur": 43, 
                            "type": "note", 
                            "channel": 4
                        }, 
                        {
                            "pitch": 59, 
                            "t0": 121800, 
                            "v": 104, 
                            "dur": 54, 
                            "type": "note", 
                            "channel": 4
                        }, 
                        {
                            "pitch": 71, 
                            "t0": 121800, 
                            "v": 104, 
                            "dur": 54, 
                            "type": "note", 
                            "channel": 4
                        }, 
                        {
                            "pitch": 83, 
                            "t0": 121800, 
                            "v": 104, 
                            "dur": 54, 
                            "type": "note", 
                            "channel": 4
                        }, 
                        {
                            "pitch": 78, 
                            "t0": 121800, 
                            "v": 104, 
                            "dur": 54, 
                            "type": "note", 
                            "channel": 4
                        }, 
                        {
                            "pitch": 75, 
                            "t0": 121800, 
                            "v": 104, 
                            "dur": 54, 
                            "type": "note", 
                            "channel": 4
                        }, 
                        {
                            "pitch": 45, 
                            "t0": 121800, 
                            "v": 104, 
                            "dur": 108, 
                            "type": "note", 
                            "channel": 6
                        }
                    ]
                ], 
                [
                    121860, 
                    [
                        {
                            "pitch": 71, 
                            "t0": 121860, 
                            "v": 104, 
                            "dur": 36, 
                            "type": "note", 
                            "channel": 4
                        }, 
                        {
                            "pitch": 83, 
                            "t0": 121860, 
                            "v": 104, 
                            "dur": 36, 
                            "type": "note", 
                            "channel": 4
                        }, 
                        {
                            "pitch": 78, 
                            "t0": 121860, 
                            "v": 104, 
                            "dur": 36, 
                            "type": "note", 
                            "channel": 4
                        }, 
                        {
                            "pitch": 75, 
                            "t0": 121860, 
                            "v": 104, 
                            "dur": 36, 
                            "type": "note", 
                            "channel": 4
                        }, 
                        {
                            "pitch": 59, 
                            "t0": 121860, 
                            "v": 104, 
                            "dur": 54, 
                            "type": "note", 
                            "channel": 4
                        }, 
                        {
                            "pitch": 66, 
                            "t0": 121860, 
                            "v": 104, 
                            "dur": 54, 
                            "type": "note", 
                            "channel": 4
                        }
                    ]
                ], 
                [
                    121920, 
                    [
                        {
                            "pitch": 38, 
                            "t0": 121920, 
                            "v": 120, 
                            "dur": 36, 
                            "type": "note", 
                            "channel": 9
                        }, 
                        {
                            "pitch": 47, 
                            "t0": 121920, 
                            "v": 104, 
                            "dur": 108, 
                            "type": "note", 
                            "channel": 6
                        }, 
                        {
                            "pitch": 71, 
                            "t0": 121920, 
                            "v": 104, 
                            "dur": 432, 
                            "type": "note", 
                            "channel": 4
                        }, 
                        {
                            "pitch": 83, 
                            "t0": 121920, 
                            "v": 104, 
                            "dur": 432, 
                            "type": "note", 
                            "channel": 3
                        }, 
                        {
                            "pitch": 78, 
                            "t0": 121920, 
                            "v": 104, 
                            "dur": 432, 
                            "type": "note", 
                            "channel": 3
                        }, 
                        {
                            "pitch": 59, 
                            "t0": 121920, 
                            "v": 104, 
                            "dur": 432, 
                            "type": "note", 
                            "channel": 4
                        }, 
                        {
                            "pitch": 75, 
                            "t0": 121920, 
                            "v": 104, 
                            "dur": 432, 
                            "type": "note", 
                            "channel": 3
                        }, 
                        {
                            "pitch": 66, 
                            "t0": 121920, 
                            "v": 104, 
                            "dur": 432, 
                            "type": "note", 
                            "channel": 4
                        }, 
                        {
                            "pitch": 87, 
                            "t0": 121920, 
                            "v": 104, 
                            "dur": 432, 
                            "type": "note", 
                            "channel": 3
                        }
                    ]
                ], 
                [
                    122040, 
                    [
                        {
                            "pitch": 50, 
                            "t0": 122040, 
                            "v": 104, 
                            "dur": 36, 
                            "type": "note", 
                            "channel": 9
                        }, 
                        {
                            "pitch": 47, 
                            "t0": 122040, 
                            "v": 104, 
                            "dur": 216, 
                            "type": "note", 
                            "channel": 6
                        }
                    ]
                ], 
                [
                    122280, 
                    [
                        {
                            "pitch": 50, 
                            "t0": 122280, 
                            "v": 104, 
                            "dur": 36, 
                            "type": "note", 
                            "channel": 9
                        }, 
                        {
                            "pitch": 51, 
                            "t0": 122280, 
                            "v": 104, 
                            "dur": 176, 
                            "type": "note", 
                            "channel": 6
                        }
                    ]
                ], 
                [
                    122340, 
                    [
                        {
                            "pitch": 50, 
                            "t0": 122340, 
                            "v": 104, 
                            "dur": 36, 
                            "type": "note", 
                            "channel": 9
                        }
                    ]
                ], 
                [
                    122400, 
                    [
                        {
                            "pitch": 50, 
                            "t0": 122400, 
                            "v": 120, 
                            "dur": 36, 
                            "type": "note", 
                            "channel": 9
                        }, 
                        {
                            "pitch": 71, 
                            "t0": 122400, 
                            "parts": [
                                [
                                    122400, 
                                    120
                                ], 
                                [
                                    122400, 
                                    104
                                ], 
                                [
                                    122620, 
                                    0
                                ]
                            ], 
                            "v": 120, 
                            "dur": 220, 
                            "type": "note", 
                            "channel": 0
                        }, 
                        {
                            "pitch": 75, 
                            "t0": 122400, 
                            "v": 104, 
                            "dur": 230, 
                            "type": "note", 
                            "channel": 3
                        }, 
                        {
                            "pitch": 59, 
                            "t0": 122400, 
                            "v": 104, 
                            "dur": 432, 
                            "type": "note", 
                            "channel": 4
                        }, 
                        {
                            "pitch": 83, 
                            "t0": 122400, 
                            "v": 104, 
                            "dur": 432, 
                            "type": "note", 
                            "channel": 3
                        }, 
                        {
                            "pitch": 66, 
                            "t0": 122400, 
                            "v": 104, 
                            "dur": 432, 
                            "type": "note", 
                            "channel": 4
                        }, 
                        {
                            "pitch": 78, 
                            "t0": 122400, 
                            "parts": [
                                [
                                    122400, 
                                    104
                                ], 
                                [
                                    122640, 
                                    104
                                ], 
                                [
                                    122832, 
                                    0
                                ]
                            ], 
                            "v": 104, 
                            "dur": 432, 
                            "type": "note", 
                            "channel": 3
                        }, 
                        {
                            "pitch": 87, 
                            "t0": 122400, 
                            "v": 104, 
                            "dur": 432, 
                            "type": "note", 
                            "channel": 3
                        }
                    ]
                ], 
                [
                    122520, 
                    [
                        {
                            "pitch": 38, 
                            "t0": 122520, 
                            "v": 104, 
                            "dur": 36, 
                            "type": "note", 
                            "channel": 9
                        }, 
                        {
                            "pitch": 52, 
                            "t0": 122520, 
                            "v": 104, 
                            "dur": 108, 
                            "type": "note", 
                            "channel": 6
                        }
                    ]
                ], 
                [
                    122640, 
                    [
                        {
                            "pitch": 38, 
                            "t0": 122640, 
                            "v": 104, 
                            "dur": 36, 
                            "type": "note", 
                            "channel": 9
                        }, 
                        {
                            "pitch": 71, 
                            "t0": 122640, 
                            "v": 120, 
                            "dur": 192, 
                            "type": "note", 
                            "channel": 1
                        }, 
                        {
                            "pitch": 75, 
                            "t0": 122640, 
                            "v": 120, 
                            "dur": 192, 
                            "type": "note", 
                            "channel": 0
                        }, 
                        {
                            "pitch": 54, 
                            "t0": 122640, 
                            "v": 104, 
                            "dur": 216, 
                            "type": "note", 
                            "channel": 6
                        }
                    ]
                ], 
                [
                    122880, 
                    [
                        {
                            "pitch": 36, 
                            "t0": 122880, 
                            "v": 120, 
                            "dur": 57, 
                            "type": "note", 
                            "channel": 9
                        }, 
                        {
                            "pitch": 49, 
                            "t0": 122880, 
                            "v": 120, 
                            "dur": 57, 
                            "type": "note", 
                            "channel": 9
                        }, 
                        {
                            "pitch": 83, 
                            "t0": 122880, 
                            "v": 104, 
                            "dur": 110, 
                            "type": "note", 
                            "channel": 4
                        }, 
                        {
                            "pitch": 80, 
                            "t0": 122880, 
                            "parts": [
                                [
                                    122880, 
                                    104
                                ], 
                                [
                                    123000, 
                                    104
                                ], 
                                [
                                    123110, 
                                    0
                                ]
                            ], 
                            "v": 104, 
                            "dur": 230, 
                            "type": "note", 
                            "channel": 10
                        }, 
                        {
                            "pitch": 76, 
                            "t0": 122880, 
                            "parts": [
                                [
                                    122880, 
                                    120
                                ], 
                                [
                                    123120, 
                                    104
                                ], 
                                [
                                    123230, 
                                    0
                                ]
                            ], 
                            "v": 120, 
                            "dur": 350, 
                            "type": "note", 
                            "channel": 0
                        }, 
                        {
                            "pitch": 40, 
                            "t0": 122880, 
                            "v": 104, 
                            "dur": 432, 
                            "type": "note", 
                            "channel": 6
                        }, 
                        {
                            "pitch": 59, 
                            "t0": 122880, 
                            "v": 104, 
                            "dur": 864, 
                            "type": "note", 
                            "channel": 3
                        }, 
                        {
                            "pitch": 52, 
                            "t0": 122880, 
                            "v": 104, 
                            "dur": 864, 
                            "type": "note", 
                            "channel": 3
                        }, 
                        {
                            "pitch": 68, 
                            "t0": 122880, 
                            "v": 104, 
                            "dur": 968, 
                            "type": "note", 
                            "channel": 5
                        }, 
                        {
                            "pitch": 64, 
                            "t0": 122880, 
                            "v": 104, 
                            "dur": 968, 
                            "type": "note", 
                            "channel": 5
                        }
                    ]
                ], 
                [
                    123120, 
                    [
                        {
                            "pitch": 46, 
                            "t0": 123120, 
                            "v": 88, 
                            "dur": 57, 
                            "type": "note", 
                            "channel": 9
                        }
                    ]
                ], 
                [
                    123240, 
                    [
                        {
                            "pitch": 83, 
                            "t0": 123240, 
                            "v": 104, 
                            "dur": 110, 
                            "type": "note", 
                            "channel": 4
                        }
                    ]
                ], 
                [
                    123360, 
                    [
                        {
                            "pitch": 38, 
                            "t0": 123360, 
                            "v": 120, 
                            "dur": 57, 
                            "type": "note", 
                            "channel": 9
                        }, 
                        {
                            "pitch": 46, 
                            "t0": 123360, 
                            "v": 104, 
                            "dur": 57, 
                            "type": "note", 
                            "channel": 9
                        }, 
                        {
                            "pitch": 80, 
                            "t0": 123360, 
                            "v": 104, 
                            "dur": 110, 
                            "type": "note", 
                            "channel": 4
                        }, 
                        {
                            "pitch": 40, 
                            "t0": 123360, 
                            "v": 104, 
                            "dur": 216, 
                            "type": "note", 
                            "channel": 6
                        }, 
                        {
                            "pitch": 76, 
                            "t0": 123360, 
                            "parts": [
                                [
                                    123360, 
                                    120
                                ], 
                                [
                                    123480, 
                                    104
                                ], 
                                [
                                    123576, 
                                    0
                                ]
                            ], 
                            "v": 120, 
                            "dur": 216, 
                            "type": "note", 
                            "channel": 0
                        }
                    ]
                ], 
                [
                    123600, 
                    [
                        {
                            "pitch": 36, 
                            "t0": 123600, 
                            "v": 104, 
                            "dur": 57, 
                            "type": "note", 
                            "channel": 9
                        }, 
                        {
                            "pitch": 46, 
                            "t0": 123600, 
                            "v": 88, 
                            "dur": 57, 
                            "type": "note", 
                            "channel": 9
                        }, 
                        {
                            "pitch": 83, 
                            "t0": 123600, 
                            "v": 104, 
                            "dur": 110, 
                            "type": "note", 
                            "channel": 4
                        }, 
                        {
                            "pitch": 44, 
                            "t0": 123600, 
                            "v": 104, 
                            "dur": 216, 
                            "type": "note", 
                            "channel": 6
                        }, 
                        {
                            "pitch": 78, 
                            "t0": 123600, 
                            "v": 120, 
                            "dur": 216, 
                            "type": "note", 
                            "channel": 0
                        }, 
                        {
                            "pitch": 81, 
                            "t0": 123600, 
                            "v": 104, 
                            "dur": 220, 
                            "type": "note", 
                            "channel": 10
                        }
                    ]
                ], 
                [
                    123720, 
                    [
                        {
                            "pitch": 80, 
                            "t0": 123720, 
                            "v": 104, 
                            "dur": 110, 
                            "type": "note", 
                            "channel": 4
                        }
                    ]
                ], 
                [
                    123840, 
                    [
                        {
                            "pitch": 59, 
                            "t0": 123840, 
                            "v": 104, 
                            "dur": 8, 
                            "type": "note", 
                            "channel": 5
                        }, 
                        {
                            "pitch": 36, 
                            "t0": 123840, 
                            "v": 120, 
                            "dur": 57, 
                            "type": "note", 
                            "channel": 9
                        }, 
                        {
                            "pitch": 46, 
                            "t0": 123840, 
                            "v": 104, 
                            "dur": 57, 
                            "type": "note", 
                            "channel": 9
                        }, 
                        {
                            "pitch": 83, 
                            "t0": 123840, 
                            "v": 104, 
                            "dur": 110, 
                            "type": "note", 
                            "channel": 4
                        }, 
                        {
                            "pitch": 76, 
                            "t0": 123840, 
                            "v": 120, 
                            "dur": 216, 
                            "type": "note", 
                            "channel": 0
                        }, 
                        {
                            "pitch": 80, 
                            "t0": 123840, 
                            "v": 104, 
                            "dur": 220, 
                            "type": "note", 
                            "channel": 10
                        }, 
                        {
                            "pitch": 47, 
                            "t0": 123840, 
                            "v": 104, 
                            "dur": 324, 
                            "type": "note", 
                            "channel": 6
                        }, 
                        {
                            "pitch": 69, 
                            "t0": 123840, 
                            "v": 104, 
                            "dur": 864, 
                            "type": "note", 
                            "channel": 3
                        }, 
                        {
                            "pitch": 63, 
                            "t0": 123840, 
                            "v": 104, 
                            "dur": 864, 
                            "type": "note", 
                            "channel": 3
                        }, 
                        {
                            "pitch": 66, 
                            "t0": 123840, 
                            "v": 104, 
                            "dur": 960, 
                            "type": "note", 
                            "channel": 5
                        }
                    ]
                ], 
                [
                    123960, 
                    [
                        {
                            "pitch": 78, 
                            "t0": 123960, 
                            "v": 104, 
                            "dur": 110, 
                            "type": "note", 
                            "channel": 4
                        }
                    ]
                ], 
                [
                    124080, 
                    [
                        {
                            "pitch": 46, 
                            "t0": 124080, 
                            "v": 88, 
                            "dur": 57, 
                            "type": "note", 
                            "channel": 9
                        }, 
                        {
                            "pitch": 75, 
                            "t0": 124080, 
                            "parts": [
                                [
                                    124080, 
                                    120
                                ], 
                                [
                                    124080, 
                                    104
                                ], 
                                [
                                    124190, 
                                    0
                                ]
                            ], 
                            "v": 120, 
                            "dur": 110, 
                            "type": "note", 
                            "channel": 0
                        }, 
                        {
                            "pitch": 78, 
                            "t0": 124080, 
                            "v": 104, 
                            "dur": 220, 
                            "type": "note", 
                            "channel": 10
                        }
                    ]
                ], 
                [
                    124200, 
                    [
                        {
                            "pitch": 47, 
                            "t0": 124200, 
                            "v": 104, 
                            "dur": 108, 
                            "type": "note", 
                            "channel": 6
                        }, 
                        {
                            "pitch": 83, 
                            "t0": 124200, 
                            "v": 104, 
                            "dur": 110, 
                            "type": "note", 
                            "channel": 4
                        }
                    ]
                ], 
                [
                    124320, 
                    [
                        {
                            "pitch": 38, 
                            "t0": 124320, 
                            "v": 120, 
                            "dur": 57, 
                            "type": "note", 
                            "channel": 9
                        }, 
                        {
                            "pitch": 46, 
                            "t0": 124320, 
                            "v": 104, 
                            "dur": 57, 
                            "type": "note", 
                            "channel": 9
                        }, 
                        {
                            "pitch": 78, 
                            "t0": 124320, 
                            "v": 104, 
                            "dur": 110, 
                            "type": "note", 
                            "channel": 4
                        }, 
                        {
                            "pitch": 47, 
                            "t0": 124320, 
                            "v": 104, 
                            "dur": 216, 
                            "type": "note", 
                            "channel": 6
                        }, 
                        {
                            "pitch": 71, 
                            "t0": 124320, 
                            "v": 120, 
                            "dur": 216, 
                            "type": "note", 
                            "channel": 0
                        }, 
                        {
                            "pitch": 75, 
                            "t0": 124320, 
                            "parts": [
                                [
                                    124320, 
                                    104
                                ], 
                                [
                                    124440, 
                                    104
                                ], 
                                [
                                    124540, 
                                    0
                                ]
                            ], 
                            "v": 104, 
                            "dur": 220, 
                            "type": "note", 
                            "channel": 10
                        }
                    ]
                ], 
                [
                    124560, 
                    [
                        {
                            "pitch": 36, 
                            "t0": 124560, 
                            "v": 104, 
                            "dur": 57, 
                            "type": "note", 
                            "channel": 9
                        }, 
                        {
                            "pitch": 46, 
                            "t0": 124560, 
                            "v": 88, 
                            "dur": 57, 
                            "type": "note", 
                            "channel": 9
                        }, 
                        {
                            "pitch": 83, 
                            "t0": 124560, 
                            "v": 104, 
                            "dur": 110, 
                            "type": "note", 
                            "channel": 4
                        }, 
                        {
                            "pitch": 48, 
                            "t0": 124560, 
                            "v": 104, 
                            "dur": 216, 
                            "type": "note", 
                            "channel": 6
                        }, 
                        {
                            "pitch": 71, 
                            "t0": 124560, 
                            "v": 120, 
                            "dur": 216, 
                            "type": "note", 
                            "channel": 1
                        }, 
                        {
                            "pitch": 78, 
                            "t0": 124560, 
                            "v": 104, 
                            "dur": 220, 
                            "type": "note", 
                            "channel": 10
                        }, 
                        {
                            "pitch": 75, 
                            "t0": 124560, 
                            "v": 120, 
                            "dur": 223, 
                            "type": "note", 
                            "channel": 0
                        }
                    ]
                ], 
                [
                    124800, 
                    [
                        {
                            "pitch": 46, 
                            "t0": 124800, 
                            "v": 104, 
                            "dur": 57, 
                            "type": "note", 
                            "channel": 9
                        }, 
                        {
                            "pitch": 36, 
                            "t0": 124800, 
                            "v": 120, 
                            "dur": 57, 
                            "type": "note", 
                            "channel": 9
                        }, 
                        {
                            "pitch": 85, 
                            "t0": 124800, 
                            "v": 104, 
                            "dur": 110, 
                            "type": "note", 
                            "channel": 4
                        }, 
                        {
                            "pitch": 80, 
                            "t0": 124800, 
                            "parts": [
                                [
                                    124800, 
                                    104
                                ], 
                                [
                                    124920, 
                                    104
                                ], 
                                [
                                    125030, 
                                    0
                                ]
                            ], 
                            "v": 104, 
                            "dur": 230, 
                            "type": "note", 
                            "channel": 10
                        }, 
                        {
                            "pitch": 76, 
                            "t0": 124800, 
                            "parts": [
                                [
                                    124800, 
                                    120
                                ], 
                                [
                                    125040, 
                                    104
                                ], 
                                [
                                    125150, 
                                    0
                                ]
                            ], 
                            "v": 120, 
                            "dur": 350, 
                            "type": "note", 
                            "channel": 0
                        }, 
                        {
                            "pitch": 49, 
                            "t0": 124800, 
                            "v": 104, 
                            "dur": 432, 
                            "type": "note", 
                            "channel": 6
                        }, 
                        {
                            "pitch": 68, 
                            "t0": 124800, 
                            "v": 104, 
                            "dur": 864, 
                            "type": "note", 
                            "channel": 3
                        }, 
                        {
                            "pitch": 61, 
                            "t0": 124800, 
                            "v": 104, 
                            "dur": 864, 
                            "type": "note", 
                            "channel": 3
                        }, 
                        {
                            "pitch": 64, 
                            "t0": 124800, 
                            "v": 104, 
                            "dur": 960, 
                            "type": "note", 
                            "channel": 5
                        }
                    ]
                ], 
                [
                    125040, 
                    [
                        {
                            "pitch": 46, 
                            "t0": 125040, 
                            "v": 88, 
                            "dur": 57, 
                            "type": "note", 
                            "channel": 9
                        }
                    ]
                ], 
                [
                    125160, 
                    [
                        {
                            "pitch": 85, 
                            "t0": 125160, 
                            "v": 104, 
                            "dur": 110, 
                            "type": "note", 
                            "channel": 4
                        }
                    ]
                ], 
                [
                    125280, 
                    [
                        {
                            "pitch": 38, 
                            "t0": 125280, 
                            "v": 120, 
                            "dur": 57, 
                            "type": "note", 
                            "channel": 9
                        }, 
                        {
                            "pitch": 46, 
                            "t0": 125280, 
                            "v": 104, 
                            "dur": 57, 
                            "type": "note", 
                            "channel": 9
                        }, 
                        {
                            "pitch": 80, 
                            "t0": 125280, 
                            "v": 104, 
                            "dur": 110, 
                            "type": "note", 
                            "channel": 4
                        }, 
                        {
                            "pitch": 49, 
                            "t0": 125280, 
                            "v": 104, 
                            "dur": 216, 
                            "type": "note", 
                            "channel": 6
                        }, 
                        {
                            "pitch": 76, 
                            "t0": 125280, 
                            "parts": [
                                [
                                    125280, 
                                    120
                                ], 
                                [
                                    125400, 
                                    104
                                ], 
                                [
                                    125496, 
                                    0
                                ]
                            ], 
                            "v": 120, 
                            "dur": 216, 
                            "type": "note", 
                            "channel": 1
                        }
                    ]
                ], 
                [
                    125520, 
                    [
                        {
                            "pitch": 36, 
                            "t0": 125520, 
                            "v": 104, 
                            "dur": 57, 
                            "type": "note", 
                            "channel": 9
                        }, 
                        {
                            "pitch": 46, 
                            "t0": 125520, 
                            "v": 88, 
                            "dur": 57, 
                            "type": "note", 
                            "channel": 9
                        }, 
                        {
                            "pitch": 85, 
                            "t0": 125520, 
                            "v": 104, 
                            "dur": 110, 
                            "type": "note", 
                            "channel": 4
                        }, 
                        {
                            "pitch": 56, 
                            "t0": 125520, 
                            "v": 104, 
                            "dur": 216, 
                            "type": "note", 
                            "channel": 6
                        }, 
                        {
                            "pitch": 78, 
                            "t0": 125520, 
                            "parts": [
                                [
                                    125520, 
                                    121
                                ], 
                                [
                                    125520, 
                                    120
                                ], 
                                [
                                    125736, 
                                    0
                                ]
                            ], 
                            "v": 121, 
                            "dur": 216, 
                            "type": "note", 
                            "channel": 0
                        }, 
                        {
                            "pitch": 81, 
                            "t0": 125520, 
                            "v": 104, 
                            "dur": 220, 
                            "type": "note", 
                            "channel": 10
                        }
                    ]
                ], 
                [
                    125640, 
                    [
                        {
                            "pitch": 80, 
                            "t0": 125640, 
                            "v": 104, 
                            "dur": 110, 
                            "type": "note", 
                            "channel": 4
                        }
                    ]
                ], 
                [
                    125760, 
                    [
                        {
                            "pitch": 36, 
                            "t0": 125760, 
                            "v": 120, 
                            "dur": 57, 
                            "type": "note", 
                            "channel": 9
                        }, 
                        {
                            "pitch": 46, 
                            "t0": 125760, 
                            "v": 104, 
                            "dur": 57, 
                            "type": "note", 
                            "channel": 9
                        }, 
                        {
                            "pitch": 75, 
                            "t0": 125760, 
                            "v": 104, 
                            "dur": 110, 
                            "type": "note", 
                            "channel": 4
                        }, 
                        {
                            "pitch": 76, 
                            "t0": 125760, 
                            "v": 120, 
                            "dur": 216, 
                            "type": "note", 
                            "channel": 0
                        }, 
                        {
                            "pitch": 80, 
                            "t0": 125760, 
                            "v": 104, 
                            "dur": 220, 
                            "type": "note", 
                            "channel": 10
                        }, 
                        {
                            "pitch": 68, 
                            "t0": 125760, 
                            "v": 104, 
                            "dur": 480, 
                            "type": "note", 
                            "channel": 5
                        }, 
                        {
                            "pitch": 59, 
                            "t0": 125760, 
                            "v": 104, 
                            "dur": 480, 
                            "type": "note", 
                            "channel": 5
                        }, 
                        {
                            "pitch": 63, 
                            "t0": 125760, 
                            "v": 104, 
                            "dur": 480, 
                            "type": "note", 
                            "channel": 3
                        }, 
                        {
                            "pitch": 44, 
                            "t0": 125760, 
                            "v": 104, 
                            "dur": 648, 
                            "type": "note", 
                            "channel": 6
                        }, 
                        {
                            "pitch": 56, 
                            "t0": 125760, 
                            "v": 104, 
                            "dur": 864, 
                            "type": "note", 
                            "channel": 3
                        }
                    ]
                ], 
                [
                    125880, 
                    [
                        {
                            "pitch": 71, 
                            "t0": 125880, 
                            "v": 104, 
                            "dur": 110, 
                            "type": "note", 
                            "channel": 4
                        }
                    ]
                ], 
                [
                    126000, 
                    [
                        {
                            "pitch": 46, 
                            "t0": 126000, 
                            "v": 88, 
                            "dur": 57, 
                            "type": "note", 
                            "channel": 9
                        }, 
                        {
                            "pitch": 80, 
                            "t0": 126000, 
                            "v": 104, 
                            "dur": 110, 
                            "type": "note", 
                            "channel": 4
                        }, 
                        {
                            "pitch": 75, 
                            "t0": 126000, 
                            "parts": [
                                [
                                    126000, 
                                    120
                                ], 
                                [
                                    126120, 
                                    104
                                ], 
                                [
                                    126216, 
                                    0
                                ]
                            ], 
                            "v": 120, 
                            "dur": 216, 
                            "type": "note", 
                            "channel": 0
                        }, 
                        {
                            "pitch": 78, 
                            "t0": 126000, 
                            "v": 104, 
                            "dur": 220, 
                            "type": "note", 
                            "channel": 10
                        }
                    ]
                ], 
                [
                    126240, 
                    [
                        {
                            "pitch": 38, 
                            "t0": 126240, 
                            "v": 120, 
                            "dur": 57, 
                            "type": "note", 
                            "channel": 9
                        }, 
                        {
                            "pitch": 46, 
                            "t0": 126240, 
                            "v": 104, 
                            "dur": 57, 
                            "type": "note", 
                            "channel": 9
                        }, 
                        {
                            "pitch": 71, 
                            "t0": 126240, 
                            "parts": [
                                [
                                    126240, 
                                    120
                                ], 
                                [
                                    126240, 
                                    104
                                ], 
                                [
                                    126350, 
                                    0
                                ]
                            ], 
                            "v": 120, 
                            "dur": 110, 
                            "type": "note", 
                            "channel": 0
                        }, 
                        {
                            "pitch": 75, 
                            "t0": 126240, 
                            "v": 104, 
                            "dur": 220, 
                            "type": "note", 
                            "channel": 10
                        }, 
                        {
                            "pitch": 63, 
                            "t0": 126240, 
                            "v": 104, 
                            "dur": 384, 
                            "type": "note", 
                            "channel": 5
                        }, 
                        {
                            "pitch": 66, 
                            "t0": 126240, 
                            "v": 104, 
                            "dur": 480, 
                            "type": "note", 
                            "channel": 5
                        }, 
                        {
                            "pitch": 59, 
                            "t0": 126240, 
                            "v": 104, 
                            "dur": 480, 
                            "type": "note", 
                            "channel": 5
                        }
                    ]
                ], 
                [
                    126360, 
                    [
                        {
                            "pitch": 80, 
                            "t0": 126360, 
                            "v": 104, 
                            "dur": 110, 
                            "type": "note", 
                            "channel": 4
                        }
                    ]
                ], 
                [
                    126480, 
                    [
                        {
                            "pitch": 46, 
                            "t0": 126480, 
                            "v": 88, 
                            "dur": 57, 
                            "type": "note", 
                            "channel": 9
                        }, 
                        {
                            "pitch": 44, 
                            "t0": 126480, 
                            "v": 104, 
                            "dur": 216, 
                            "type": "note", 
                            "channel": 6
                        }, 
                        {
                            "pitch": 71, 
                            "t0": 126480, 
                            "v": 120, 
                            "dur": 216, 
                            "type": "note", 
                            "channel": 0
                        }, 
                        {
                            "pitch": 75, 
                            "t0": 126480, 
                            "v": 104, 
                            "dur": 220, 
                            "type": "note", 
                            "channel": 10
                        }
                    ]
                ], 
                [
                    126720, 
                    [
                        {
                            "pitch": 46, 
                            "t0": 126720, 
                            "v": 104, 
                            "dur": 57, 
                            "type": "note", 
                            "channel": 9
                        }, 
                        {
                            "pitch": 36, 
                            "t0": 126720, 
                            "v": 120, 
                            "dur": 57, 
                            "type": "note", 
                            "channel": 9
                        }, 
                        {
                            "pitch": 81, 
                            "t0": 126720, 
                            "v": 104, 
                            "dur": 110, 
                            "type": "note", 
                            "channel": 4
                        }, 
                        {
                            "pitch": 73, 
                            "t0": 126720, 
                            "parts": [
                                [
                                    126720, 
                                    104
                                ], 
                                [
                                    126960, 
                                    104
                                ], 
                                [
                                    127070, 
                                    0
                                ]
                            ], 
                            "v": 104, 
                            "dur": 350, 
                            "type": "note", 
                            "channel": 10
                        }, 
                        {
                            "pitch": 45, 
                            "t0": 126720, 
                            "v": 104, 
                            "dur": 432, 
                            "type": "note", 
                            "channel": 6
                        }, 
                        {
                            "pitch": 69, 
                            "t0": 126720, 
                            "v": 120, 
                            "dur": 432, 
                            "type": "note", 
                            "channel": 0
                        }, 
                        {
                            "pitch": 64, 
                            "t0": 126720, 
                            "v": 104, 
                            "dur": 864, 
                            "type": "note", 
                            "channel": 3
                        }, 
                        {
                            "pitch": 57, 
                            "t0": 126720, 
                            "v": 104, 
                            "dur": 864, 
                            "type": "note", 
                            "channel": 3
                        }, 
                        {
                            "pitch": 61, 
                            "t0": 126720, 
                            "v": 104, 
                            "dur": 952, 
                            "type": "note", 
                            "channel": 5
                        }
                    ]
                ], 
                [
                    126840, 
                    [
                        {
                            "pitch": 76, 
                            "t0": 126840, 
                            "v": 104, 
                            "dur": 110, 
                            "type": "note", 
                            "channel": 4
                        }
                    ]
                ], 
                [
                    126960, 
                    [
                        {
                            "pitch": 46, 
                            "t0": 126960, 
                            "v": 88, 
                            "dur": 57, 
                            "type": "note", 
                            "channel": 9
                        }
                    ]
                ], 
                [
                    127080, 
                    [
                        {
                            "pitch": 81, 
                            "t0": 127080, 
                            "v": 104, 
                            "dur": 110, 
                            "type": "note", 
                            "channel": 4
                        }
                    ]
                ], 
                [
                    127200, 
                    [
                        {
                            "pitch": 38, 
                            "t0": 127200, 
                            "v": 120, 
                            "dur": 57, 
                            "type": "note", 
                            "channel": 9
                        }, 
                        {
                            "pitch": 46, 
                            "t0": 127200, 
                            "v": 104, 
                            "dur": 57, 
                            "type": "note", 
                            "channel": 9
                        }, 
                        {
                            "pitch": 76, 
                            "t0": 127200, 
                            "v": 104, 
                            "dur": 110, 
                            "type": "note", 
                            "channel": 4
                        }, 
                        {
                            "pitch": 69, 
                            "t0": 127200, 
                            "v": 120, 
                            "dur": 189, 
                            "type": "note", 
                            "channel": 1
                        }, 
                        {
                            "pitch": 45, 
                            "t0": 127200, 
                            "v": 104, 
                            "dur": 216, 
                            "type": "note", 
                            "channel": 6
                        }
                    ]
                ], 
                [
                    127320, 
                    [
                        {
                            "pitch": 73, 
                            "t0": 127320, 
                            "v": 104, 
                            "dur": 62, 
                            "type": "note", 
                            "channel": 4
                        }
                    ]
                ], 
                [
                    127440, 
                    [
                        {
                            "pitch": 36, 
                            "t0": 127440, 
                            "v": 104, 
                            "dur": 57, 
                            "type": "note", 
                            "channel": 9
                        }, 
                        {
                            "pitch": 46, 
                            "t0": 127440, 
                            "v": 88, 
                            "dur": 57, 
                            "type": "note", 
                            "channel": 9
                        }, 
                        {
                            "pitch": 44, 
                            "t0": 127440, 
                            "v": 104, 
                            "dur": 108, 
                            "type": "note", 
                            "channel": 6
                        }, 
                        {
                            "pitch": 81, 
                            "t0": 127440, 
                            "v": 104, 
                            "dur": 110, 
                            "type": "note", 
                            "channel": 4
                        }, 
                        {
                            "pitch": 71, 
                            "t0": 127440, 
                            "v": 120, 
                            "dur": 216, 
                            "type": "note", 
                            "channel": 0
                        }, 
                        {
                            "pitch": 75, 
                            "t0": 127440, 
                            "v": 104, 
                            "dur": 220, 
                            "type": "note", 
                            "channel": 10
                        }
                    ]
                ], 
                [
                    127560, 
                    [
                        {
                            "pitch": 45, 
                            "t0": 127560, 
                            "v": 104, 
                            "dur": 108, 
                            "type": "note", 
                            "channel": 6
                        }, 
                        {
                            "pitch": 76, 
                            "t0": 127560, 
                            "v": 104, 
                            "dur": 110, 
                            "type": "note", 
                            "channel": 4
                        }
                    ]
                ], 
                [
                    127680, 
                    [
                        {
                            "pitch": 36, 
                            "t0": 127680, 
                            "v": 120, 
                            "dur": 57, 
                            "type": "note", 
                            "channel": 9
                        }, 
                        {
                            "pitch": 46, 
                            "t0": 127680, 
                            "v": 104, 
                            "dur": 57, 
                            "type": "note", 
                            "channel": 9
                        }, 
                        {
                            "pitch": 47, 
                            "t0": 127680, 
                            "v": 104, 
                            "dur": 108, 
                            "type": "note", 
                            "channel": 6
                        }, 
                        {
                            "pitch": 83, 
                            "t0": 127680, 
                            "v": 104, 
                            "dur": 110, 
                            "type": "note", 
                            "channel": 4
                        }, 
                        {
                            "pitch": 66, 
                            "t0": 127680, 
                            "parts": [
                                [
                                    127680, 
                                    120
                                ], 
                                [
                                    127680, 
                                    104
                                ], 
                                [
                                    127896, 
                                    0
                                ]
                            ], 
                            "v": 120, 
                            "dur": 216, 
                            "type": "note", 
                            "channel": 0
                        }, 
                        {
                            "pitch": 71, 
                            "t0": 127680, 
                            "v": 104, 
                            "dur": 220, 
                            "type": "note", 
                            "channel": 10
                        }, 
                        {
                            "pitch": 63, 
                            "t0": 127680, 
                            "parts": [
                                [
                                    127680, 
                                    104
                                ], 
                                [
                                    128160, 
                                    120
                                ], 
                                [
                                    128376, 
                                    0
                                ]
                            ], 
                            "v": 104, 
                            "dur": 696, 
                            "type": "note", 
                            "channel": 5
                        }, 
                        {
                            "pitch": 59, 
                            "t0": 127680, 
                            "v": 104, 
                            "dur": 864, 
                            "type": "note", 
                            "channel": 3
                        }
                    ]
                ], 
                [
                    127800, 
                    [
                        {
                            "pitch": 78, 
                            "t0": 127800, 
                            "v": 104, 
                            "dur": 110, 
                            "type": "note", 
                            "channel": 4
                        }, 
                        {
                            "pitch": 47, 
                            "t0": 127800, 
                            "v": 104, 
                            "dur": 216, 
                            "type": "note", 
                            "channel": 6
                        }
                    ]
                ], 
                [
                    127920, 
                    [
                        {
                            "pitch": 46, 
                            "t0": 127920, 
                            "v": 88, 
                            "dur": 57, 
                            "type": "note", 
                            "channel": 9
                        }, 
                        {
                            "pitch": 75, 
                            "t0": 127920, 
                            "v": 104, 
                            "dur": 110, 
                            "type": "note", 
                            "channel": 4
                        }, 
                        {
                            "pitch": 71, 
                            "t0": 127920, 
                            "v": 120, 
                            "dur": 216, 
                            "type": "note", 
                            "channel": 0
                        }
                    ]
                ], 
                [
                    128040, 
                    [
                        {
                            "pitch": 47, 
                            "t0": 128040, 
                            "v": 104, 
                            "dur": 108, 
                            "type": "note", 
                            "channel": 6
                        }, 
                        {
                            "pitch": 83, 
                            "t0": 128040, 
                            "v": 104, 
                            "dur": 110, 
                            "type": "note", 
                            "channel": 4
                        }
                    ]
                ], 
                [
                    128160, 
                    [
                        {
                            "pitch": 38, 
                            "t0": 128160, 
                            "v": 120, 
                            "dur": 57, 
                            "type": "note", 
                            "channel": 9
                        }, 
                        {
                            "pitch": 46, 
                            "t0": 128160, 
                            "v": 104, 
                            "dur": 57, 
                            "type": "note", 
                            "channel": 9
                        }, 
                        {
                            "pitch": 78, 
                            "t0": 128160, 
                            "v": 104, 
                            "dur": 110, 
                            "type": "note", 
                            "channel": 4
                        }, 
                        {
                            "pitch": 68, 
                            "t0": 128160, 
                            "v": 104, 
                            "dur": 220, 
                            "type": "note", 
                            "channel": 10
                        }, 
                        {
                            "pitch": 47, 
                            "t0": 128160, 
                            "v": 104, 
                            "dur": 432, 
                            "type": "note", 
                            "channel": 6
                        }
                    ]
                ], 
                [
                    128280, 
                    [
                        {
                            "pitch": 75, 
                            "t0": 128280, 
                            "v": 104, 
                            "dur": 110, 
                            "type": "note", 
                            "channel": 4
                        }
                    ]
                ], 
                [
                    128400, 
                    [
                        {
                            "pitch": 46, 
                            "t0": 128400, 
                            "v": 88, 
                            "dur": 57, 
                            "type": "note", 
                            "channel": 9
                        }, 
                        {
                            "pitch": 66, 
                            "t0": 128400, 
                            "v": 120, 
                            "dur": 144, 
                            "type": "note", 
                            "channel": 0
                        }, 
                        {
                            "pitch": 71, 
                            "t0": 128400, 
                            "v": 104, 
                            "dur": 220, 
                            "type": "note", 
                            "channel": 10
                        }, 
                        {
                            "pitch": 83, 
                            "t0": 128400, 
                            "v": 104, 
                            "dur": 220, 
                            "type": "note", 
                            "channel": 4
                        }
                    ]
                ], 
                [
                    128640, 
                    [
                        {
                            "pitch": 46, 
                            "t0": 128640, 
                            "v": 104, 
                            "dur": 57, 
                            "type": "note", 
                            "channel": 9
                        }, 
                        {
                            "pitch": 36, 
                            "t0": 128640, 
                            "v": 120, 
                            "dur": 57, 
                            "type": "note", 
                            "channel": 9
                        }, 
                        {
                            "pitch": 83, 
                            "t0": 128640, 
                            "v": 104, 
                            "dur": 110, 
                            "type": "note", 
                            "channel": 4
                        }, 
                        {
                            "pitch": 40, 
                            "t0": 128640, 
                            "v": 104, 
                            "dur": 432, 
                            "type": "note", 
                            "channel": 6
                        }, 
                        {
                            "pitch": 64, 
                            "t0": 128640, 
                            "parts": [
                                [
                                    128640, 
                                    120
                                ], 
                                [
                                    128640, 
                                    104
                                ], 
                                [
                                    129072, 
                                    0
                                ]
                            ], 
                            "v": 120, 
                            "dur": 432, 
                            "type": "note", 
                            "channel": 0
                        }, 
                        {
                            "pitch": 71, 
                            "t0": 128640, 
                            "v": 104, 
                            "dur": 864, 
                            "type": "note", 
                            "channel": 3
                        }, 
                        {
                            "pitch": 68, 
                            "t0": 128640, 
                            "parts": [
                                [
                                    128640, 
                                    104
                                ], 
                                [
                                    129120, 
                                    120
                                ], 
                                [
                                    129523, 
                                    0
                                ]
                            ], 
                            "v": 104, 
                            "dur": 883, 
                            "type": "note", 
                            "channel": 5
                        }, 
                        {
                            "pitch": 59, 
                            "t0": 128640, 
                            "v": 104, 
                            "dur": 960, 
                            "type": "note", 
                            "channel": 5
                        }
                    ]
                ], 
                [
                    128760, 
                    [
                        {
                            "pitch": 80, 
                            "t0": 128760, 
                            "v": 104, 
                            "dur": 110, 
                            "type": "note", 
                            "channel": 4
                        }
                    ]
                ], 
                [
                    128880, 
                    [
                        {
                            "pitch": 46, 
                            "t0": 128880, 
                            "v": 88, 
                            "dur": 57, 
                            "type": "note", 
                            "channel": 9
                        }, 
                        {
                            "pitch": 76, 
                            "t0": 128880, 
                            "v": 104, 
                            "dur": 110, 
                            "type": "note", 
                            "channel": 4
                        }
                    ]
                ], 
                [
                    129000, 
                    [
                        {
                            "pitch": 83, 
                            "t0": 129000, 
                            "v": 104, 
                            "dur": 110, 
                            "type": "note", 
                            "channel": 4
                        }
                    ]
                ], 
                [
                    129120, 
                    [
                        {
                            "pitch": 46, 
                            "t0": 129120, 
                            "v": 104, 
                            "dur": 57, 
                            "type": "note", 
                            "channel": 9
                        }, 
                        {
                            "pitch": 38, 
                            "t0": 129120, 
                            "v": 120, 
                            "dur": 57, 
                            "type": "note", 
                            "channel": 9
                        }, 
                        {
                            "pitch": 40, 
                            "t0": 129120, 
                            "v": 104, 
                            "dur": 108, 
                            "type": "note", 
                            "channel": 6
                        }, 
                        {
                            "pitch": 80, 
                            "t0": 129120, 
                            "v": 104, 
                            "dur": 110, 
                            "type": "note", 
                            "channel": 4
                        }
                    ]
                ], 
                [
                    129240, 
                    [
                        {
                            "pitch": 76, 
                            "t0": 129240, 
                            "v": 104, 
                            "dur": 110, 
                            "type": "note", 
                            "channel": 4
                        }, 
                        {
                            "pitch": 44, 
                            "t0": 129240, 
                            "v": 104, 
                            "dur": 216, 
                            "type": "note", 
                            "channel": 6
                        }
                    ]
                ], 
                [
                    129360, 
                    [
                        {
                            "pitch": 46, 
                            "t0": 129360, 
                            "v": 88, 
                            "dur": 57, 
                            "type": "note", 
                            "channel": 9
                        }, 
                        {
                            "pitch": 36, 
                            "t0": 129360, 
                            "v": 104, 
                            "dur": 57, 
                            "type": "note", 
                            "channel": 9
                        }, 
                        {
                            "pitch": 83, 
                            "t0": 129360, 
                            "v": 104, 
                            "dur": 110, 
                            "type": "note", 
                            "channel": 4
                        }
                    ]
                ], 
                [
                    129480, 
                    [
                        {
                            "pitch": 45, 
                            "t0": 129480, 
                            "v": 104, 
                            "dur": 108, 
                            "type": "note", 
                            "channel": 6
                        }, 
                        {
                            "pitch": 80, 
                            "t0": 129480, 
                            "v": 104, 
                            "dur": 110, 
                            "type": "note", 
                            "channel": 4
                        }
                    ]
                ], 
                [
                    129600, 
                    [
                        {
                            "pitch": 46, 
                            "t0": 129600, 
                            "v": 104, 
                            "dur": 57, 
                            "type": "note", 
                            "channel": 9
                        }, 
                        {
                            "pitch": 36, 
                            "t0": 129600, 
                            "v": 120, 
                            "dur": 57, 
                            "type": "note", 
                            "channel": 9
                        }, 
                        {
                            "pitch": 83, 
                            "t0": 129600, 
                            "v": 104, 
                            "dur": 110, 
                            "type": "note", 
                            "channel": 4
                        }, 
                        {
                            "pitch": 47, 
                            "t0": 129600, 
                            "v": 104, 
                            "dur": 216, 
                            "type": "note", 
                            "channel": 6
                        }, 
                        {
                            "pitch": 69, 
                            "t0": 129600, 
                            "v": 120, 
                            "dur": 432, 
                            "type": "note", 
                            "channel": 1
                        }, 
                        {
                            "pitch": 66, 
                            "t0": 129600, 
                            "v": 104, 
                            "dur": 864, 
                            "type": "note", 
                            "channel": 3
                        }, 
                        {
                            "pitch": 59, 
                            "t0": 129600, 
                            "v": 104, 
                            "dur": 864, 
                            "type": "note", 
                            "channel": 3
                        }, 
                        {
                            "pitch": 63, 
                            "t0": 129600, 
                            "v": 104, 
                            "dur": 960, 
                            "type": "note", 
                            "channel": 5
                        }
                    ]
                ], 
                [
                    129720, 
                    [
                        {
                            "pitch": 78, 
                            "t0": 129720, 
                            "v": 104, 
                            "dur": 110, 
                            "type": "note", 
                            "channel": 4
                        }
                    ]
                ], 
                [
                    129840, 
                    [
                        {
                            "pitch": 46, 
                            "t0": 129840, 
                            "v": 88, 
                            "dur": 57, 
                            "type": "note", 
                            "channel": 9
                        }, 
                        {
                            "pitch": 75, 
                            "t0": 129840, 
                            "v": 104, 
                            "dur": 110, 
                            "type": "note", 
                            "channel": 4
                        }, 
                        {
                            "pitch": 47, 
                            "t0": 129840, 
                            "v": 104, 
                            "dur": 216, 
                            "type": "note", 
                            "channel": 6
                        }
                    ]
                ], 
                [
                    129960, 
                    [
                        {
                            "pitch": 83, 
                            "t0": 129960, 
                            "v": 104, 
                            "dur": 110, 
                            "type": "note", 
                            "channel": 4
                        }
                    ]
                ], 
                [
                    130080, 
                    [
                        {
                            "pitch": 46, 
                            "t0": 130080, 
                            "v": 104, 
                            "dur": 57, 
                            "type": "note", 
                            "channel": 9
                        }, 
                        {
                            "pitch": 38, 
                            "t0": 130080, 
                            "v": 120, 
                            "dur": 57, 
                            "type": "note", 
                            "channel": 9
                        }, 
                        {
                            "pitch": 51, 
                            "t0": 130080, 
                            "v": 104, 
                            "dur": 216, 
                            "type": "note", 
                            "channel": 6
                        }, 
                        {
                            "pitch": 71, 
                            "t0": 130080, 
                            "v": 120, 
                            "dur": 216, 
                            "type": "note", 
                            "channel": 0
                        }, 
                        {
                            "pitch": 75, 
                            "t0": 130080, 
                            "v": 104, 
                            "dur": 223, 
                            "type": "note", 
                            "channel": 10
                        }, 
                        {
                            "pitch": 78, 
                            "t0": 130080, 
                            "parts": [
                                [
                                    130080, 
                                    104
                                ], 
                                [
                                    130320, 
                                    104
                                ], 
                                [
                                    130521, 
                                    0
                                ]
                            ], 
                            "v": 104, 
                            "dur": 441, 
                            "type": "note", 
                            "channel": 4
                        }
                    ]
                ], 
                [
                    130320, 
                    [
                        {
                            "pitch": 49, 
                            "t0": 130320, 
                            "v": 120, 
                            "dur": 57, 
                            "type": "note", 
                            "channel": 9
                        }, 
                        {
                            "pitch": 36, 
                            "t0": 130320, 
                            "v": 104, 
                            "dur": 57, 
                            "type": "note", 
                            "channel": 9
                        }, 
                        {
                            "pitch": 54, 
                            "t0": 130320, 
                            "v": 104, 
                            "dur": 216, 
                            "type": "note", 
                            "channel": 6
                        }, 
                        {
                            "pitch": 71, 
                            "t0": 130320, 
                            "v": 120, 
                            "dur": 216, 
                            "type": "note", 
                            "channel": 1
                        }, 
                        {
                            "pitch": 75, 
                            "t0": 130320, 
                            "v": 120, 
                            "dur": 223, 
                            "type": "note", 
                            "channel": 0
                        }
                    ]
                ], 
                [
                    130560, 
                    [
                        {
                            "pitch": 36, 
                            "t0": 130560, 
                            "v": 120, 
                            "dur": 57, 
                            "type": "note", 
                            "channel": 9
                        }, 
                        {
                            "pitch": 49, 
                            "t0": 130560, 
                            "v": 120, 
                            "dur": 57, 
                            "type": "note", 
                            "channel": 9
                        }, 
                        {
                            "pitch": 83, 
                            "t0": 130560, 
                            "v": 104, 
                            "dur": 110, 
                            "type": "note", 
                            "channel": 4
                        }, 
                        {
                            "pitch": 80, 
                            "t0": 130560, 
                            "parts": [
                                [
                                    130560, 
                                    104
                                ], 
                                [
                                    130680, 
                                    104
                                ], 
                                [
                                    130790, 
                                    0
                                ]
                            ], 
                            "v": 104, 
                            "dur": 230, 
                            "type": "note", 
                            "channel": 10
                        }, 
                        {
                            "pitch": 76, 
                            "t0": 130560, 
                            "parts": [
                                [
                                    130560, 
                                    120
                                ], 
                                [
                                    130800, 
                                    104
                                ], 
                                [
                                    130910, 
                                    0
                                ]
                            ], 
                            "v": 120, 
                            "dur": 350, 
                            "type": "note", 
                            "channel": 0
                        }, 
                        {
                            "pitch": 40, 
                            "t0": 130560, 
                            "v": 104, 
                            "dur": 432, 
                            "type": "note", 
                            "channel": 6
                        }, 
                        {
                            "pitch": 59, 
                            "t0": 130560, 
                            "v": 104, 
                            "dur": 864, 
                            "type": "note", 
                            "channel": 3
                        }, 
                        {
                            "pitch": 52, 
                            "t0": 130560, 
                            "v": 104, 
                            "dur": 864, 
                            "type": "note", 
                            "channel": 3
                        }, 
                        {
                            "pitch": 68, 
                            "t0": 130560, 
                            "v": 104, 
                            "dur": 960, 
                            "type": "note", 
                            "channel": 5
                        }, 
                        {
                            "pitch": 64, 
                            "t0": 130560, 
                            "v": 104, 
                            "dur": 960, 
                            "type": "note", 
                            "channel": 5
                        }
                    ]
                ], 
                [
                    130800, 
                    [
                        {
                            "pitch": 46, 
                            "t0": 130800, 
                            "v": 88, 
                            "dur": 57, 
                            "type": "note", 
                            "channel": 9
                        }
                    ]
                ], 
                [
                    130920, 
                    [
                        {
                            "pitch": 83, 
                            "t0": 130920, 
                            "v": 104, 
                            "dur": 110, 
                            "type": "note", 
                            "channel": 4
                        }
                    ]
                ], 
                [
                    131040, 
                    [
                        {
                            "pitch": 46, 
                            "t0": 131040, 
                            "v": 104, 
                            "dur": 57, 
                            "type": "note", 
                            "channel": 9
                        }, 
                        {
                            "pitch": 38, 
                            "t0": 131040, 
                            "v": 120, 
                            "dur": 57, 
                            "type": "note", 
                            "channel": 9
                        }, 
                        {
                            "pitch": 80, 
                            "t0": 131040, 
                            "v": 104, 
                            "dur": 110, 
                            "type": "note", 
                            "channel": 4
                        }, 
                        {
                            "pitch": 40, 
                            "t0": 131040, 
                            "v": 104, 
                            "dur": 216, 
                            "type": "note", 
                            "channel": 6
                        }, 
                        {
                            "pitch": 76, 
                            "t0": 131040, 
                            "parts": [
                                [
                                    131040, 
                                    120
                                ], 
                                [
                                    131160, 
                                    104
                                ], 
                                [
                                    131256, 
                                    0
                                ]
                            ], 
                            "v": 120, 
                            "dur": 216, 
                            "type": "note", 
                            "channel": 0
                        }
                    ]
                ], 
                [
                    131280, 
                    [
                        {
                            "pitch": 46, 
                            "t0": 131280, 
                            "v": 88, 
                            "dur": 57, 
                            "type": "note", 
                            "channel": 9
                        }, 
                        {
                            "pitch": 36, 
                            "t0": 131280, 
                            "v": 104, 
                            "dur": 57, 
                            "type": "note", 
                            "channel": 9
                        }, 
                        {
                            "pitch": 83, 
                            "t0": 131280, 
                            "v": 104, 
                            "dur": 110, 
                            "type": "note", 
                            "channel": 4
                        }, 
                        {
                            "pitch": 44, 
                            "t0": 131280, 
                            "v": 104, 
                            "dur": 216, 
                            "type": "note", 
                            "channel": 6
                        }, 
                        {
                            "pitch": 78, 
                            "t0": 131280, 
                            "v": 120, 
                            "dur": 216, 
                            "type": "note", 
                            "channel": 0
                        }, 
                        {
                            "pitch": 81, 
                            "t0": 131280, 
                            "v": 104, 
                            "dur": 223, 
                            "type": "note", 
                            "channel": 10
                        }
                    ]
                ], 
                [
                    131400, 
                    [
                        {
                            "pitch": 80, 
                            "t0": 131400, 
                            "v": 104, 
                            "dur": 110, 
                            "type": "note", 
                            "channel": 4
                        }
                    ]
                ], 
                [
                    131520, 
                    [
                        {
                            "pitch": 46, 
                            "t0": 131520, 
                            "v": 104, 
                            "dur": 57, 
                            "type": "note", 
                            "channel": 9
                        }, 
                        {
                            "pitch": 36, 
                            "t0": 131520, 
                            "v": 120, 
                            "dur": 57, 
                            "type": "note", 
                            "channel": 9
                        }, 
                        {
                            "pitch": 47, 
                            "t0": 131520, 
                            "v": 104, 
                            "dur": 108, 
                            "type": "note", 
                            "channel": 6
                        }, 
                        {
                            "pitch": 83, 
                            "t0": 131520, 
                            "v": 104, 
                            "dur": 110, 
                            "type": "note", 
                            "channel": 4
                        }, 
                        {
                            "pitch": 76, 
                            "t0": 131520, 
                            "v": 120, 
                            "dur": 216, 
                            "type": "note", 
                            "channel": 0
                        }, 
                        {
                            "pitch": 80, 
                            "t0": 131520, 
                            "v": 104, 
                            "dur": 223, 
                            "type": "note", 
                            "channel": 10
                        }, 
                        {
                            "pitch": 59, 
                            "t0": 131520, 
                            "v": 104, 
                            "dur": 864, 
                            "type": "note", 
                            "channel": 3
                        }, 
                        {
                            "pitch": 66, 
                            "t0": 131520, 
                            "v": 104, 
                            "dur": 864, 
                            "type": "note", 
                            "channel": 3
                        }, 
                        {
                            "pitch": 63, 
                            "t0": 131520, 
                            "v": 104, 
                            "dur": 944, 
                            "type": "note", 
                            "channel": 5
                        }
                    ]
                ], 
                [
                    131640, 
                    [
                        {
                            "pitch": 78, 
                            "t0": 131640, 
                            "v": 104, 
                            "dur": 110, 
                            "type": "note", 
                            "channel": 4
                        }, 
                        {
                            "pitch": 47, 
                            "t0": 131640, 
                            "v": 104, 
                            "dur": 216, 
                            "type": "note", 
                            "channel": 6
                        }
                    ]
                ], 
                [
                    131760, 
                    [
                        {
                            "pitch": 46, 
                            "t0": 131760, 
                            "v": 88, 
                            "dur": 57, 
                            "type": "note", 
                            "channel": 9
                        }, 
                        {
                            "pitch": 75, 
                            "t0": 131760, 
                            "parts": [
                                [
                                    131760, 
                                    120
                                ], 
                                [
                                    131760, 
                                    104
                                ], 
                                [
                                    131870, 
                                    0
                                ]
                            ], 
                            "v": 120, 
                            "dur": 110, 
                            "type": "note", 
                            "channel": 0
                        }, 
                        {
                            "pitch": 78, 
                            "t0": 131760, 
                            "v": 104, 
                            "dur": 223, 
                            "type": "note", 
                            "channel": 10
                        }
                    ]
                ], 
                [
                    131880, 
                    [
                        {
                            "pitch": 47, 
                            "t0": 131880, 
                            "v": 104, 
                            "dur": 108, 
                            "type": "note", 
                            "channel": 6
                        }, 
                        {
                            "pitch": 83, 
                            "t0": 131880, 
                            "v": 104, 
                            "dur": 110, 
                            "type": "note", 
                            "channel": 4
                        }
                    ]
                ], 
                [
                    132000, 
                    [
                        {
                            "pitch": 46, 
                            "t0": 132000, 
                            "v": 104, 
                            "dur": 57, 
                            "type": "note", 
                            "channel": 9
                        }, 
                        {
                            "pitch": 38, 
                            "t0": 132000, 
                            "v": 120, 
                            "dur": 57, 
                            "type": "note", 
                            "channel": 9
                        }, 
                        {
                            "pitch": 78, 
                            "t0": 132000, 
                            "v": 104, 
                            "dur": 110, 
                            "type": "note", 
                            "channel": 4
                        }, 
                        {
                            "pitch": 47, 
                            "t0": 132000, 
                            "v": 104, 
                            "dur": 216, 
                            "type": "note", 
                            "channel": 6
                        }, 
                        {
                            "pitch": 71, 
                            "t0": 132000, 
                            "v": 120, 
                            "dur": 216, 
                            "type": "note", 
                            "channel": 0
                        }, 
                        {
                            "pitch": 75, 
                            "t0": 132000, 
                            "parts": [
                                [
                                    132000, 
                                    104
                                ], 
                                [
                                    132120, 
                                    104
                                ], 
                                [
                                    132223, 
                                    0
                                ]
                            ], 
                            "v": 104, 
                            "dur": 223, 
                            "type": "note", 
                            "channel": 10
                        }
                    ]
                ], 
                [
                    132240, 
                    [
                        {
                            "pitch": 46, 
                            "t0": 132240, 
                            "v": 88, 
                            "dur": 57, 
                            "type": "note", 
                            "channel": 9
                        }, 
                        {
                            "pitch": 36, 
                            "t0": 132240, 
                            "v": 104, 
                            "dur": 57, 
                            "type": "note", 
                            "channel": 9
                        }, 
                        {
                            "pitch": 83, 
                            "t0": 132240, 
                            "v": 104, 
                            "dur": 110, 
                            "type": "note", 
                            "channel": 4
                        }, 
                        {
                            "pitch": 48, 
                            "t0": 132240, 
                            "v": 104, 
                            "dur": 216, 
                            "type": "note", 
                            "channel": 6
                        }, 
                        {
                            "pitch": 75, 
                            "t0": 132240, 
                            "v": 120, 
                            "dur": 216, 
                            "type": "note", 
                            "channel": 0
                        }, 
                        {
                            "pitch": 78, 
                            "t0": 132240, 
                            "v": 104, 
                            "dur": 223, 
                            "type": "note", 
                            "channel": 10
                        }
                    ]
                ], 
                [
                    132360, 
                    [
                        {
                            "pitch": 85, 
                            "t0": 132360, 
                            "v": 104, 
                            "dur": 110, 
                            "type": "note", 
                            "channel": 4
                        }
                    ]
                ], 
                [
                    132480, 
                    [
                        {
                            "pitch": 46, 
                            "t0": 132480, 
                            "v": 104, 
                            "dur": 57, 
                            "type": "note", 
                            "channel": 9
                        }, 
                        {
                            "pitch": 36, 
                            "t0": 132480, 
                            "v": 120, 
                            "dur": 57, 
                            "type": "note", 
                            "channel": 9
                        }, 
                        {
                            "pitch": 80, 
                            "t0": 132480, 
                            "v": 104, 
                            "dur": 110, 
                            "type": "note", 
                            "channel": 4
                        }, 
                        {
                            "pitch": 76, 
                            "t0": 132480, 
                            "parts": [
                                [
                                    132480, 
                                    120
                                ], 
                                [
                                    132600, 
                                    104
                                ], 
                                [
                                    132710, 
                                    0
                                ]
                            ], 
                            "v": 120, 
                            "dur": 230, 
                            "type": "note", 
                            "channel": 0
                        }, 
                        {
                            "pitch": 49, 
                            "t0": 132480, 
                            "v": 104, 
                            "dur": 432, 
                            "type": "note", 
                            "channel": 6
                        }, 
                        {
                            "pitch": 68, 
                            "t0": 132480, 
                            "v": 104, 
                            "dur": 864, 
                            "type": "note", 
                            "channel": 3
                        }, 
                        {
                            "pitch": 61, 
                            "t0": 132480, 
                            "v": 104, 
                            "dur": 864, 
                            "type": "note", 
                            "channel": 3
                        }, 
                        {
                            "pitch": 64, 
                            "t0": 132480, 
                            "v": 104, 
                            "dur": 944, 
                            "type": "note", 
                            "channel": 5
                        }
                    ]
                ], 
                [
                    132720, 
                    [
                        {
                            "pitch": 46, 
                            "t0": 132720, 
                            "v": 88, 
                            "dur": 57, 
                            "type": "note", 
                            "channel": 9
                        }, 
                        {
                            "pitch": 85, 
                            "t0": 132720, 
                            "v": 104, 
                            "dur": 110, 
                            "type": "note", 
                            "channel": 4
                        }
                    ]
                ], 
                [
                    132840, 
                    [
                        {
                            "pitch": 80, 
                            "t0": 132840, 
                            "v": 104, 
                            "dur": 86, 
                            "type": "note", 
                            "channel": 4
                        }
                    ]
                ], 
                [
                    132960, 
                    [
                        {
                            "pitch": 38, 
                            "t0": 132960, 
                            "v": 120, 
                            "dur": 57, 
                            "type": "note", 
                            "channel": 9
                        }, 
                        {
                            "pitch": 46, 
                            "t0": 132960, 
                            "v": 104, 
                            "dur": 57, 
                            "type": "note", 
                            "channel": 9
                        }, 
                        {
                            "pitch": 76, 
                            "t0": 132960, 
                            "parts": [
                                [
                                    132960, 
                                    120
                                ], 
                                [
                                    132960, 
                                    104
                                ], 
                                [
                                    133070, 
                                    0
                                ]
                            ], 
                            "v": 120, 
                            "dur": 110, 
                            "type": "note", 
                            "channel": 0
                        }, 
                        {
                            "pitch": 49, 
                            "t0": 132960, 
                            "v": 104, 
                            "dur": 216, 
                            "type": "note", 
                            "channel": 6
                        }, 
                        {
                            "pitch": 80, 
                            "t0": 132960, 
                            "v": 104, 
                            "dur": 223, 
                            "type": "note", 
                            "channel": 10
                        }
                    ]
                ], 
                [
                    133080, 
                    [
                        {
                            "pitch": 85, 
                            "t0": 133080, 
                            "v": 104, 
                            "dur": 220, 
                            "type": "note", 
                            "channel": 4
                        }
                    ]
                ], 
                [
                    133200, 
                    [
                        {
                            "pitch": 36, 
                            "t0": 133200, 
                            "v": 104, 
                            "dur": 57, 
                            "type": "note", 
                            "channel": 9
                        }, 
                        {
                            "pitch": 46, 
                            "t0": 133200, 
                            "v": 88, 
                            "dur": 57, 
                            "type": "note", 
                            "channel": 9
                        }, 
                        {
                            "pitch": 56, 
                            "t0": 133200, 
                            "v": 104, 
                            "dur": 216, 
                            "type": "note", 
                            "channel": 6
                        }, 
                        {
                            "pitch": 78, 
                            "t0": 133200, 
                            "v": 120, 
                            "dur": 216, 
                            "type": "note", 
                            "channel": 0
                        }, 
                        {
                            "pitch": 81, 
                            "t0": 133200, 
                            "v": 104, 
                            "dur": 223, 
                            "type": "note", 
                            "channel": 10
                        }
                    ]
                ], 
                [
                    133320, 
                    [
                        {
                            "pitch": 80, 
                            "t0": 133320, 
                            "v": 104, 
                            "dur": 110, 
                            "type": "note", 
                            "channel": 4
                        }
                    ]
                ], 
                [
                    133440, 
                    [
                        {
                            "pitch": 36, 
                            "t0": 133440, 
                            "v": 120, 
                            "dur": 57, 
                            "type": "note", 
                            "channel": 9
                        }, 
                        {
                            "pitch": 46, 
                            "t0": 133440, 
                            "v": 104, 
                            "dur": 57, 
                            "type": "note", 
                            "channel": 9
                        }, 
                        {
                            "pitch": 44, 
                            "t0": 133440, 
                            "v": 104, 
                            "dur": 108, 
                            "type": "note", 
                            "channel": 6
                        }, 
                        {
                            "pitch": 75, 
                            "t0": 133440, 
                            "v": 104, 
                            "dur": 110, 
                            "type": "note", 
                            "channel": 4
                        }, 
                        {
                            "pitch": 76, 
                            "t0": 133440, 
                            "v": 120, 
                            "dur": 216, 
                            "type": "note", 
                            "channel": 0
                        }, 
                        {
                            "pitch": 80, 
                            "t0": 133440, 
                            "v": 104, 
                            "dur": 223, 
                            "type": "note", 
                            "channel": 10
                        }, 
                        {
                            "pitch": 68, 
                            "t0": 133440, 
                            "v": 104, 
                            "dur": 456, 
                            "type": "note", 
                            "channel": 5
                        }, 
                        {
                            "pitch": 59, 
                            "t0": 133440, 
                            "v": 104, 
                            "dur": 456, 
                            "type": "note", 
                            "channel": 5
                        }, 
                        {
                            "pitch": 63, 
                            "t0": 133440, 
                            "v": 104, 
                            "dur": 456, 
                            "type": "note", 
                            "channel": 3
                        }, 
                        {
                            "pitch": 56, 
                            "t0": 133440, 
                            "v": 104, 
                            "dur": 864, 
                            "type": "note", 
                            "channel": 3
                        }
                    ]
                ], 
                [
                    133560, 
                    [
                        {
                            "pitch": 71, 
                            "t0": 133560, 
                            "v": 104, 
                            "dur": 110, 
                            "type": "note", 
                            "channel": 4
                        }, 
                        {
                            "pitch": 44, 
                            "t0": 133560, 
                            "v": 104, 
                            "dur": 216, 
                            "type": "note", 
                            "channel": 6
                        }
                    ]
                ], 
                [
                    133680, 
                    [
                        {
                            "pitch": 46, 
                            "t0": 133680, 
                            "v": 88, 
                            "dur": 57, 
                            "type": "note", 
                            "channel": 9
                        }, 
                        {
                            "pitch": 80, 
                            "t0": 133680, 
                            "v": 104, 
                            "dur": 110, 
                            "type": "note", 
                            "channel": 4
                        }, 
                        {
                            "pitch": 75, 
                            "t0": 133680, 
                            "parts": [
                                [
                                    133680, 
                                    120
                                ], 
                                [
                                    133800, 
                                    104
                                ], 
                                [
                                    133896, 
                                    0
                                ]
                            ], 
                            "v": 120, 
                            "dur": 216, 
                            "type": "note", 
                            "channel": 0
                        }, 
                        {
                            "pitch": 78, 
                            "t0": 133680, 
                            "v": 104, 
                            "dur": 223, 
                            "type": "note", 
                            "channel": 10
                        }
                    ]
                ], 
                [
                    133800, 
                    [
                        {
                            "pitch": 44, 
                            "t0": 133800, 
                            "v": 104, 
                            "dur": 108, 
                            "type": "note", 
                            "channel": 6
                        }
                    ]
                ], 
                [
                    133920, 
                    [
                        {
                            "pitch": 38, 
                            "t0": 133920, 
                            "v": 120, 
                            "dur": 57, 
                            "type": "note", 
                            "channel": 9
                        }, 
                        {
                            "pitch": 46, 
                            "t0": 133920, 
                            "v": 104, 
                            "dur": 57, 
                            "type": "note", 
                            "channel": 9
                        }, 
                        {
                            "pitch": 71, 
                            "t0": 133920, 
                            "parts": [
                                [
                                    133920, 
                                    120
                                ], 
                                [
                                    133920, 
                                    104
                                ], 
                                [
                                    134030, 
                                    0
                                ]
                            ], 
                            "v": 120, 
                            "dur": 110, 
                            "type": "note", 
                            "channel": 0
                        }, 
                        {
                            "pitch": 44, 
                            "t0": 133920, 
                            "v": 104, 
                            "dur": 216, 
                            "type": "note", 
                            "channel": 6
                        }, 
                        {
                            "pitch": 75, 
                            "t0": 133920, 
                            "v": 104, 
                            "dur": 223, 
                            "type": "note", 
                            "channel": 10
                        }, 
                        {
                            "pitch": 63, 
                            "t0": 133920, 
                            "v": 104, 
                            "dur": 384, 
                            "type": "note", 
                            "channel": 5
                        }, 
                        {
                            "pitch": 66, 
                            "t0": 133920, 
                            "v": 104, 
                            "dur": 456, 
                            "type": "note", 
                            "channel": 5
                        }, 
                        {
                            "pitch": 59, 
                            "t0": 133920, 
                            "v": 104, 
                            "dur": 456, 
                            "type": "note", 
                            "channel": 5
                        }
                    ]
                ], 
                [
                    134040, 
                    [
                        {
                            "pitch": 80, 
                            "t0": 134040, 
                            "v": 104, 
                            "dur": 110, 
                            "type": "note", 
                            "channel": 4
                        }
                    ]
                ], 
                [
                    134160, 
                    [
                        {
                            "pitch": 46, 
                            "t0": 134160, 
                            "v": 88, 
                            "dur": 57, 
                            "type": "note", 
                            "channel": 9
                        }, 
                        {
                            "pitch": 44, 
                            "t0": 134160, 
                            "v": 104, 
                            "dur": 216, 
                            "type": "note", 
                            "channel": 6
                        }, 
                        {
                            "pitch": 71, 
                            "t0": 134160, 
                            "v": 120, 
                            "dur": 216, 
                            "type": "note", 
                            "channel": 0
                        }, 
                        {
                            "pitch": 75, 
                            "t0": 134160, 
                            "v": 104, 
                            "dur": 223, 
                            "type": "note", 
                            "channel": 10
                        }
                    ]
                ], 
                [
                    134400, 
                    [
                        {
                            "pitch": 46, 
                            "t0": 134400, 
                            "v": 104, 
                            "dur": 57, 
                            "type": "note", 
                            "channel": 9
                        }, 
                        {
                            "pitch": 36, 
                            "t0": 134400, 
                            "v": 120, 
                            "dur": 57, 
                            "type": "note", 
                            "channel": 9
                        }, 
                        {
                            "pitch": 81, 
                            "t0": 134400, 
                            "v": 104, 
                            "dur": 115, 
                            "type": "note", 
                            "channel": 4
                        }, 
                        {
                            "pitch": 73, 
                            "t0": 134400, 
                            "parts": [
                                [
                                    134400, 
                                    104
                                ], 
                                [
                                    134640, 
                                    104
                                ], 
                                [
                                    134755, 
                                    0
                                ]
                            ], 
                            "v": 104, 
                            "dur": 355, 
                            "type": "note", 
                            "channel": 10
                        }, 
                        {
                            "pitch": 45, 
                            "t0": 134400, 
                            "v": 104, 
                            "dur": 432, 
                            "type": "note", 
                            "channel": 6
                        }, 
                        {
                            "pitch": 64, 
                            "t0": 134400, 
                            "v": 104, 
                            "dur": 446, 
                            "type": "note", 
                            "channel": 3
                        }, 
                        {
                            "pitch": 57, 
                            "t0": 134400, 
                            "v": 104, 
                            "dur": 446, 
                            "type": "note", 
                            "channel": 3
                        }, 
                        {
                            "pitch": 69, 
                            "t0": 134400, 
                            "v": 120, 
                            "dur": 456, 
                            "type": "note", 
                            "channel": 0
                        }, 
                        {
                            "pitch": 61, 
                            "t0": 134400, 
                            "v": 104, 
                            "dur": 952, 
                            "type": "note", 
                            "channel": 5
                        }
                    ]
                ], 
                [
                    134520, 
                    [
                        {
                            "pitch": 76, 
                            "t0": 134520, 
                            "v": 104, 
                            "dur": 115, 
                            "type": "note", 
                            "channel": 4
                        }
                    ]
                ], 
                [
                    134640, 
                    [
                        {
                            "pitch": 46, 
                            "t0": 134640, 
                            "v": 88, 
                            "dur": 57, 
                            "type": "note", 
                            "channel": 9
                        }
                    ]
                ], 
                [
                    134760, 
                    [
                        {
                            "pitch": 81, 
                            "t0": 134760, 
                            "v": 104, 
                            "dur": 115, 
                            "type": "note", 
                            "channel": 4
                        }
                    ]
                ], 
                [
                    134880, 
                    [
                        {
                            "pitch": 38, 
                            "t0": 134880, 
                            "v": 120, 
                            "dur": 57, 
                            "type": "note", 
                            "channel": 9
                        }, 
                        {
                            "pitch": 46, 
                            "t0": 134880, 
                            "v": 104, 
                            "dur": 57, 
                            "type": "note", 
                            "channel": 9
                        }, 
                        {
                            "pitch": 76, 
                            "t0": 134880, 
                            "v": 104, 
                            "dur": 115, 
                            "type": "note", 
                            "channel": 4
                        }, 
                        {
                            "pitch": 45, 
                            "t0": 134880, 
                            "v": 104, 
                            "dur": 216, 
                            "type": "note", 
                            "channel": 6
                        }, 
                        {
                            "pitch": 73, 
                            "t0": 134880, 
                            "parts": [
                                [
                                    134880, 
                                    104
                                ], 
                                [
                                    135000, 
                                    104
                                ], 
                                [
                                    135103, 
                                    0
                                ]
                            ], 
                            "v": 104, 
                            "dur": 223, 
                            "type": "note", 
                            "channel": 10
                        }, 
                        {
                            "pitch": 64, 
                            "t0": 134880, 
                            "v": 104, 
                            "dur": 223, 
                            "type": "note", 
                            "channel": 3
                        }, 
                        {
                            "pitch": 57, 
                            "t0": 134880, 
                            "v": 104, 
                            "dur": 223, 
                            "type": "note", 
                            "channel": 3
                        }, 
                        {
                            "pitch": 69, 
                            "t0": 134880, 
                            "v": 120, 
                            "dur": 223, 
                            "type": "note", 
                            "channel": 0
                        }
                    ]
                ], 
                [
                    135120, 
                    [
                        {
                            "pitch": 36, 
                            "t0": 135120, 
                            "v": 104, 
                            "dur": 57, 
                            "type": "note", 
                            "channel": 9
                        }, 
                        {
                            "pitch": 46, 
                            "t0": 135120, 
                            "v": 88, 
                            "dur": 57, 
                            "type": "note", 
                            "channel": 9
                        }, 
                        {
                            "pitch": 44, 
                            "t0": 135120, 
                            "v": 104, 
                            "dur": 108, 
                            "type": "note", 
                            "channel": 6
                        }, 
                        {
                            "pitch": 63, 
                            "t0": 135120, 
                            "v": 104, 
                            "dur": 111, 
                            "type": "note", 
                            "channel": 3
                        }, 
                        {
                            "pitch": 56, 
                            "t0": 135120, 
                            "v": 104, 
                            "dur": 111, 
                            "type": "note", 
                            "channel": 3
                        }, 
                        {
                            "pitch": 81, 
                            "t0": 135120, 
                            "v": 104, 
                            "dur": 115, 
                            "type": "note", 
                            "channel": 4
                        }, 
                        {
                            "pitch": 75, 
                            "t0": 135120, 
                            "v": 104, 
                            "dur": 223, 
                            "type": "note", 
                            "channel": 10
                        }, 
                        {
                            "pitch": 71, 
                            "t0": 135120, 
                            "v": 120, 
                            "dur": 223, 
                            "type": "note", 
                            "channel": 0
                        }
                    ]
                ], 
                [
                    135240, 
                    [
                        {
                            "pitch": 45, 
                            "t0": 135240, 
                            "v": 104, 
                            "dur": 108, 
                            "type": "note", 
                            "channel": 6
                        }, 
                        {
                            "pitch": 64, 
                            "t0": 135240, 
                            "v": 104, 
                            "dur": 111, 
                            "type": "note", 
                            "channel": 3
                        }, 
                        {
                            "pitch": 57, 
                            "t0": 135240, 
                            "v": 104, 
                            "dur": 111, 
                            "type": "note", 
                            "channel": 3
                        }, 
                        {
                            "pitch": 76, 
                            "t0": 135240, 
                            "v": 104, 
                            "dur": 115, 
                            "type": "note", 
                            "channel": 4
                        }
                    ]
                ], 
                [
                    135360, 
                    [
                        {
                            "pitch": 36, 
                            "t0": 135360, 
                            "v": 120, 
                            "dur": 57, 
                            "type": "note", 
                            "channel": 9
                        }, 
                        {
                            "pitch": 46, 
                            "t0": 135360, 
                            "v": 104, 
                            "dur": 57, 
                            "type": "note", 
                            "channel": 9
                        }, 
                        {
                            "pitch": 47, 
                            "t0": 135360, 
                            "v": 104, 
                            "dur": 108, 
                            "type": "note", 
                            "channel": 6
                        }, 
                        {
                            "pitch": 83, 
                            "t0": 135360, 
                            "v": 104, 
                            "dur": 115, 
                            "type": "note", 
                            "channel": 4
                        }, 
                        {
                            "pitch": 71, 
                            "t0": 135360, 
                            "v": 104, 
                            "dur": 223, 
                            "type": "note", 
                            "channel": 10
                        }, 
                        {
                            "pitch": 66, 
                            "t0": 135360, 
                            "parts": [
                                [
                                    135360, 
                                    120
                                ], 
                                [
                                    135360, 
                                    104
                                ], 
                                [
                                    135583, 
                                    0
                                ]
                            ], 
                            "v": 120, 
                            "dur": 223, 
                            "type": "note", 
                            "channel": 0
                        }, 
                        {
                            "pitch": 59, 
                            "t0": 135360, 
                            "v": 104, 
                            "dur": 334, 
                            "type": "note", 
                            "channel": 3
                        }, 
                        {
                            "pitch": 63, 
                            "t0": 135360, 
                            "parts": [
                                [
                                    135360, 
                                    104
                                ], 
                                [
                                    135840, 
                                    120
                                ], 
                                [
                                    136063, 
                                    0
                                ]
                            ], 
                            "v": 104, 
                            "dur": 703, 
                            "type": "note", 
                            "channel": 5
                        }
                    ]
                ], 
                [
                    135480, 
                    [
                        {
                            "pitch": 78, 
                            "t0": 135480, 
                            "v": 104, 
                            "dur": 115, 
                            "type": "note", 
                            "channel": 4
                        }, 
                        {
                            "pitch": 47, 
                            "t0": 135480, 
                            "v": 104, 
                            "dur": 216, 
                            "type": "note", 
                            "channel": 6
                        }
                    ]
                ], 
                [
                    135600, 
                    [
                        {
                            "pitch": 46, 
                            "t0": 135600, 
                            "v": 88, 
                            "dur": 57, 
                            "type": "note", 
                            "channel": 9
                        }, 
                        {
                            "pitch": 75, 
                            "t0": 135600, 
                            "v": 104, 
                            "dur": 115, 
                            "type": "note", 
                            "channel": 4
                        }, 
                        {
                            "pitch": 71, 
                            "t0": 135600, 
                            "v": 120, 
                            "dur": 223, 
                            "type": "note", 
                            "channel": 0
                        }
                    ]
                ], 
                [
                    135720, 
                    [
                        {
                            "pitch": 47, 
                            "t0": 135720, 
                            "v": 104, 
                            "dur": 108, 
                            "type": "note", 
                            "channel": 6
                        }, 
                        {
                            "pitch": 59, 
                            "t0": 135720, 
                            "v": 104, 
                            "dur": 111, 
                            "type": "note", 
                            "channel": 3
                        }, 
                        {
                            "pitch": 66, 
                            "t0": 135720, 
                            "v": 104, 
                            "dur": 111, 
                            "type": "note", 
                            "channel": 3
                        }, 
                        {
                            "pitch": 83, 
                            "t0": 135720, 
                            "v": 104, 
                            "dur": 115, 
                            "type": "note", 
                            "channel": 4
                        }
                    ]
                ], 
                [
                    135840, 
                    [
                        {
                            "pitch": 38, 
                            "t0": 135840, 
                            "v": 120, 
                            "dur": 57, 
                            "type": "note", 
                            "channel": 9
                        }, 
                        {
                            "pitch": 46, 
                            "t0": 135840, 
                            "v": 104, 
                            "dur": 57, 
                            "type": "note", 
                            "channel": 9
                        }, 
                        {
                            "pitch": 78, 
                            "t0": 135840, 
                            "v": 104, 
                            "dur": 115, 
                            "type": "note", 
                            "channel": 4
                        }, 
                        {
                            "pitch": 47, 
                            "t0": 135840, 
                            "v": 104, 
                            "dur": 216, 
                            "type": "note", 
                            "channel": 6
                        }, 
                        {
                            "pitch": 68, 
                            "t0": 135840, 
                            "v": 104, 
                            "dur": 223, 
                            "type": "note", 
                            "channel": 10
                        }
                    ]
                ], 
                [
                    135960, 
                    [
                        {
                            "pitch": 75, 
                            "t0": 135960, 
                            "v": 104, 
                            "dur": 115, 
                            "type": "note", 
                            "channel": 4
                        }
                    ]
                ], 
                [
                    136080, 
                    [
                        {
                            "pitch": 46, 
                            "t0": 136080, 
                            "v": 88, 
                            "dur": 57, 
                            "type": "note", 
                            "channel": 9
                        }, 
                        {
                            "pitch": 47, 
                            "t0": 136080, 
                            "v": 104, 
                            "dur": 216, 
                            "type": "note", 
                            "channel": 6
                        }, 
                        {
                            "pitch": 71, 
                            "t0": 136080, 
                            "v": 104, 
                            "dur": 223, 
                            "type": "note", 
                            "channel": 10
                        }, 
                        {
                            "pitch": 59, 
                            "t0": 136080, 
                            "v": 104, 
                            "dur": 223, 
                            "type": "note", 
                            "channel": 3
                        }, 
                        {
                            "pitch": 66, 
                            "t0": 136080, 
                            "parts": [
                                [
                                    136080, 
                                    120
                                ], 
                                [
                                    136080, 
                                    104
                                ], 
                                [
                                    136303, 
                                    0
                                ]
                            ], 
                            "v": 120, 
                            "dur": 223, 
                            "type": "note", 
                            "channel": 0
                        }, 
                        {
                            "pitch": 83, 
                            "t0": 136080, 
                            "v": 104, 
                            "dur": 230, 
                            "type": "note", 
                            "channel": 4
                        }
                    ]
                ], 
                [
                    136320, 
                    [
                        {
                            "pitch": 46, 
                            "t0": 136320, 
                            "v": 104, 
                            "dur": 57, 
                            "type": "note", 
                            "channel": 9
                        }, 
                        {
                            "pitch": 36, 
                            "t0": 136320, 
                            "v": 120, 
                            "dur": 57, 
                            "type": "note", 
                            "channel": 9
                        }, 
                        {
                            "pitch": 83, 
                            "t0": 136320, 
                            "v": 104, 
                            "dur": 115, 
                            "type": "note", 
                            "channel": 4
                        }, 
                        {
                            "pitch": 40, 
                            "t0": 136320, 
                            "v": 104, 
                            "dur": 324, 
                            "type": "note", 
                            "channel": 6
                        }, 
                        {
                            "pitch": 71, 
                            "t0": 136320, 
                            "v": 104, 
                            "dur": 669, 
                            "type": "note", 
                            "channel": 3
                        }, 
                        {
                            "pitch": 64, 
                            "t0": 136320, 
                            "v": 104, 
                            "dur": 669, 
                            "type": "note", 
                            "channel": 3
                        }, 
                        {
                            "pitch": 68, 
                            "t0": 136320, 
                            "parts": [
                                [
                                    136320, 
                                    120
                                ], 
                                [
                                    136320, 
                                    104
                                ], 
                                [
                                    137212, 
                                    0
                                ]
                            ], 
                            "v": 120, 
                            "dur": 892, 
                            "type": "note", 
                            "channel": 0
                        }, 
                        {
                            "pitch": 59, 
                            "t0": 136320, 
                            "parts": [
                                [
                                    136320, 
                                    104
                                ], 
                                [
                                    137280, 
                                    104
                                ], 
                                [
                                    137288, 
                                    0
                                ]
                            ], 
                            "v": 104, 
                            "dur": 968, 
                            "type": "note", 
                            "channel": 5
                        }
                    ]
                ], 
                [
                    136440, 
                    [
                        {
                            "pitch": 80, 
                            "t0": 136440, 
                            "v": 104, 
                            "dur": 115, 
                            "type": "note", 
                            "channel": 4
                        }
                    ]
                ], 
                [
                    136560, 
                    [
                        {
                            "pitch": 46, 
                            "t0": 136560, 
                            "v": 88, 
                            "dur": 57, 
                            "type": "note", 
                            "channel": 9
                        }, 
                        {
                            "pitch": 76, 
                            "t0": 136560, 
                            "v": 104, 
                            "dur": 115, 
                            "type": "note", 
                            "channel": 4
                        }
                    ]
                ], 
                [
                    136680, 
                    [
                        {
                            "pitch": 40, 
                            "t0": 136680, 
                            "v": 104, 
                            "dur": 108, 
                            "type": "note", 
                            "channel": 6
                        }, 
                        {
                            "pitch": 83, 
                            "t0": 136680, 
                            "v": 104, 
                            "dur": 115, 
                            "type": "note", 
                            "channel": 4
                        }
                    ]
                ], 
                [
                    136800, 
                    [
                        {
                            "pitch": 38, 
                            "t0": 136800, 
                            "v": 120, 
                            "dur": 57, 
                            "type": "note", 
                            "channel": 9
                        }, 
                        {
                            "pitch": 46, 
                            "t0": 136800, 
                            "v": 104, 
                            "dur": 57, 
                            "type": "note", 
                            "channel": 9
                        }, 
                        {
                            "pitch": 40, 
                            "t0": 136800, 
                            "v": 104, 
                            "dur": 108, 
                            "type": "note", 
                            "channel": 6
                        }, 
                        {
                            "pitch": 80, 
                            "t0": 136800, 
                            "v": 104, 
                            "dur": 115, 
                            "type": "note", 
                            "channel": 4
                        }
                    ]
                ], 
                [
                    136920, 
                    [
                        {
                            "pitch": 76, 
                            "t0": 136920, 
                            "v": 104, 
                            "dur": 115, 
                            "type": "note", 
                            "channel": 4
                        }, 
                        {
                            "pitch": 44, 
                            "t0": 136920, 
                            "v": 104, 
                            "dur": 216, 
                            "type": "note", 
                            "channel": 6
                        }
                    ]
                ], 
                [
                    137040, 
                    [
                        {
                            "pitch": 36, 
                            "t0": 137040, 
                            "v": 104, 
                            "dur": 57, 
                            "type": "note", 
                            "channel": 9
                        }, 
                        {
                            "pitch": 83, 
                            "t0": 137040, 
                            "v": 104, 
                            "dur": 115, 
                            "type": "note", 
                            "channel": 4
                        }, 
                        {
                            "pitch": 71, 
                            "t0": 137040, 
                            "v": 104, 
                            "dur": 223, 
                            "type": "note", 
                            "channel": 3
                        }, 
                        {
                            "pitch": 64, 
                            "t0": 137040, 
                            "v": 104, 
                            "dur": 223, 
                            "type": "note", 
                            "channel": 3
                        }
                    ]
                ], 
                [
                    137160, 
                    [
                        {
                            "pitch": 48, 
                            "t0": 137160, 
                            "v": 104, 
                            "dur": 54, 
                            "type": "note", 
                            "channel": 9
                        }, 
                        {
                            "pitch": 45, 
                            "t0": 137160, 
                            "v": 104, 
                            "dur": 108, 
                            "type": "note", 
                            "channel": 6
                        }, 
                        {
                            "pitch": 76, 
                            "t0": 137160, 
                            "v": 104, 
                            "dur": 115, 
                            "type": "note", 
                            "channel": 4
                        }
                    ]
                ], 
                [
                    137220, 
                    [
                        {
                            "pitch": 48, 
                            "t0": 137220, 
                            "v": 104, 
                            "dur": 54, 
                            "type": "note", 
                            "channel": 9
                        }
                    ]
                ], 
                [
                    137280, 
                    [
                        {
                            "pitch": 48, 
                            "t0": 137280, 
                            "v": 120, 
                            "dur": 108, 
                            "type": "note", 
                            "channel": 9
                        }, 
                        {
                            "pitch": 47, 
                            "t0": 137280, 
                            "v": 104, 
                            "dur": 108, 
                            "type": "note", 
                            "channel": 6
                        }, 
                        {
                            "pitch": 83, 
                            "t0": 137280, 
                            "v": 104, 
                            "dur": 115, 
                            "type": "note", 
                            "channel": 4
                        }, 
                        {
                            "pitch": 66, 
                            "t0": 137280, 
                            "v": 104, 
                            "dur": 446, 
                            "type": "note", 
                            "channel": 3
                        }, 
                        {
                            "pitch": 63, 
                            "t0": 137280, 
                            "v": 104, 
                            "dur": 952, 
                            "type": "note", 
                            "channel": 5
                        }
                    ]
                ], 
                [
                    137400, 
                    [
                        {
                            "pitch": 48, 
                            "t0": 137400, 
                            "v": 104, 
                            "dur": 108, 
                            "type": "note", 
                            "channel": 9
                        }, 
                        {
                            "pitch": 78, 
                            "t0": 137400, 
                            "v": 104, 
                            "dur": 115, 
                            "type": "note", 
                            "channel": 4
                        }, 
                        {
                            "pitch": 47, 
                            "t0": 137400, 
                            "v": 104, 
                            "dur": 216, 
                            "type": "note", 
                            "channel": 6
                        }
                    ]
                ], 
                [
                    137520, 
                    [
                        {
                            "pitch": 75, 
                            "t0": 137520, 
                            "v": 104, 
                            "dur": 115, 
                            "type": "note", 
                            "channel": 4
                        }
                    ]
                ], 
                [
                    137640, 
                    [
                        {
                            "pitch": 47, 
                            "t0": 137640, 
                            "v": 88, 
                            "dur": 108, 
                            "type": "note", 
                            "channel": 9
                        }, 
                        {
                            "pitch": 83, 
                            "t0": 137640, 
                            "v": 104, 
                            "dur": 115, 
                            "type": "note", 
                            "channel": 4
                        }, 
                        {
                            "pitch": 51, 
                            "t0": 137640, 
                            "v": 104, 
                            "dur": 216, 
                            "type": "note", 
                            "channel": 6
                        }
                    ]
                ], 
                [
                    137760, 
                    [
                        {
                            "pitch": 47, 
                            "t0": 137760, 
                            "v": 120, 
                            "dur": 108, 
                            "type": "note", 
                            "channel": 9
                        }, 
                        {
                            "pitch": 75, 
                            "t0": 137760, 
                            "v": 104, 
                            "dur": 223, 
                            "type": "note", 
                            "channel": 10
                        }, 
                        {
                            "pitch": 71, 
                            "t0": 137760, 
                            "v": 120, 
                            "dur": 223, 
                            "type": "note", 
                            "channel": 0
                        }, 
                        {
                            "pitch": 59, 
                            "t0": 137760, 
                            "v": 104, 
                            "dur": 446, 
                            "type": "note", 
                            "channel": 3
                        }, 
                        {
                            "pitch": 66, 
                            "t0": 137760, 
                            "v": 104, 
                            "dur": 446, 
                            "type": "note", 
                            "channel": 3
                        }, 
                        {
                            "pitch": 78, 
                            "t0": 137760, 
                            "parts": [
                                [
                                    137760, 
                                    104
                                ], 
                                [
                                    138000, 
                                    104
                                ], 
                                [
                                    138220, 
                                    0
                                ]
                            ], 
                            "v": 104, 
                            "dur": 460, 
                            "type": "note", 
                            "channel": 4
                        }
                    ]
                ], 
                [
                    137880, 
                    [
                        {
                            "pitch": 52, 
                            "t0": 137880, 
                            "v": 104, 
                            "dur": 108, 
                            "type": "note", 
                            "channel": 6
                        }
                    ]
                ], 
                [
                    138000, 
                    [
                        {
                            "pitch": 43, 
                            "t0": 138000, 
                            "v": 104, 
                            "dur": 108, 
                            "type": "note", 
                            "channel": 9
                        }, 
                        {
                            "pitch": 54, 
                            "t0": 138000, 
                            "v": 104, 
                            "dur": 216, 
                            "type": "note", 
                            "channel": 6
                        }, 
                        {
                            "pitch": 75, 
                            "t0": 138000, 
                            "v": 120, 
                            "dur": 223, 
                            "type": "note", 
                            "channel": 0
                        }
                    ]
                ], 
                [
                    138120, 
                    [
                        {
                            "pitch": 43, 
                            "t0": 138120, 
                            "v": 104, 
                            "dur": 108, 
                            "type": "note", 
                            "channel": 9
                        }
                    ]
                ], 
                [
                    138240, 
                    [
                        {
                            "pitch": 36, 
                            "t0": 138240, 
                            "v": 120, 
                            "dur": 57, 
                            "type": "note", 
                            "channel": 9
                        }, 
                        {
                            "pitch": 49, 
                            "t0": 138240, 
                            "v": 120, 
                            "dur": 57, 
                            "type": "note", 
                            "channel": 9
                        }, 
                        {
                            "pitch": 83, 
                            "t0": 138240, 
                            "v": 104, 
                            "dur": 110, 
                            "type": "note", 
                            "channel": 4
                        }, 
                        {
                            "pitch": 80, 
                            "t0": 138240, 
                            "parts": [
                                [
                                    138240, 
                                    104
                                ], 
                                [
                                    138360, 
                                    104
                                ], 
                                [
                                    138470, 
                                    0
                                ]
                            ], 
                            "v": 104, 
                            "dur": 230, 
                            "type": "note", 
                            "channel": 10
                        }, 
                        {
                            "pitch": 76, 
                            "t0": 138240, 
                            "parts": [
                                [
                                    138240, 
                                    120
                                ], 
                                [
                                    138480, 
                                    104
                                ], 
                                [
                                    138590, 
                                    0
                                ]
                            ], 
                            "v": 120, 
                            "dur": 350, 
                            "type": "note", 
                            "channel": 0
                        }, 
                        {
                            "pitch": 40, 
                            "t0": 138240, 
                            "v": 104, 
                            "dur": 432, 
                            "type": "note", 
                            "channel": 6
                        }, 
                        {
                            "pitch": 59, 
                            "t0": 138240, 
                            "v": 104, 
                            "dur": 864, 
                            "type": "note", 
                            "channel": 3
                        }, 
                        {
                            "pitch": 52, 
                            "t0": 138240, 
                            "v": 104, 
                            "dur": 864, 
                            "type": "note", 
                            "channel": 3
                        }, 
                        {
                            "pitch": 68, 
                            "t0": 138240, 
                            "v": 104, 
                            "dur": 968, 
                            "type": "note", 
                            "channel": 5
                        }, 
                        {
                            "pitch": 64, 
                            "t0": 138240, 
                            "v": 104, 
                            "dur": 968, 
                            "type": "note", 
                            "channel": 5
                        }
                    ]
                ], 
                [
                    138480, 
                    [
                        {
                            "pitch": 46, 
                            "t0": 138480, 
                            "v": 88, 
                            "dur": 57, 
                            "type": "note", 
                            "channel": 9
                        }
                    ]
                ], 
                [
                    138600, 
                    [
                        {
                            "pitch": 83, 
                            "t0": 138600, 
                            "v": 104, 
                            "dur": 110, 
                            "type": "note", 
                            "channel": 4
                        }
                    ]
                ], 
                [
                    138720, 
                    [
                        {
                            "pitch": 38, 
                            "t0": 138720, 
                            "v": 120, 
                            "dur": 57, 
                            "type": "note", 
                            "channel": 9
                        }, 
                        {
                            "pitch": 46, 
                            "t0": 138720, 
                            "v": 104, 
                            "dur": 57, 
                            "type": "note", 
                            "channel": 9
                        }, 
                        {
                            "pitch": 80, 
                            "t0": 138720, 
                            "v": 104, 
                            "dur": 110, 
                            "type": "note", 
                            "channel": 4
                        }, 
                        {
                            "pitch": 40, 
                            "t0": 138720, 
                            "v": 104, 
                            "dur": 216, 
                            "type": "note", 
                            "channel": 6
                        }, 
                        {
                            "pitch": 76, 
                            "t0": 138720, 
                            "parts": [
                                [
                                    138720, 
                                    120
                                ], 
                                [
                                    138840, 
                                    104
                                ], 
                                [
                                    138936, 
                                    0
                                ]
                            ], 
                            "v": 120, 
                            "dur": 216, 
                            "type": "note", 
                            "channel": 0
                        }
                    ]
                ], 
                [
                    138960, 
                    [
                        {
                            "pitch": 36, 
                            "t0": 138960, 
                            "v": 104, 
                            "dur": 57, 
                            "type": "note", 
                            "channel": 9
                        }, 
                        {
                            "pitch": 46, 
                            "t0": 138960, 
                            "v": 88, 
                            "dur": 57, 
                            "type": "note", 
                            "channel": 9
                        }, 
                        {
                            "pitch": 83, 
                            "t0": 138960, 
                            "v": 104, 
                            "dur": 110, 
                            "type": "note", 
                            "channel": 4
                        }, 
                        {
                            "pitch": 44, 
                            "t0": 138960, 
                            "v": 104, 
                            "dur": 216, 
                            "type": "note", 
                            "channel": 6
                        }, 
                        {
                            "pitch": 78, 
                            "t0": 138960, 
                            "v": 120, 
                            "dur": 216, 
                            "type": "note", 
                            "channel": 0
                        }, 
                        {
                            "pitch": 81, 
                            "t0": 138960, 
                            "v": 104, 
                            "dur": 220, 
                            "type": "note", 
                            "channel": 10
                        }
                    ]
                ], 
                [
                    139080, 
                    [
                        {
                            "pitch": 80, 
                            "t0": 139080, 
                            "v": 104, 
                            "dur": 110, 
                            "type": "note", 
                            "channel": 4
                        }
                    ]
                ], 
                [
                    139200, 
                    [
                        {
                            "pitch": 59, 
                            "t0": 139200, 
                            "v": 104, 
                            "dur": 8, 
                            "type": "note", 
                            "channel": 5
                        }, 
                        {
                            "pitch": 36, 
                            "t0": 139200, 
                            "v": 120, 
                            "dur": 57, 
                            "type": "note", 
                            "channel": 9
                        }, 
                        {
                            "pitch": 46, 
                            "t0": 139200, 
                            "v": 104, 
                            "dur": 57, 
                            "type": "note", 
                            "channel": 9
                        }, 
                        {
                            "pitch": 83, 
                            "t0": 139200, 
                            "v": 104, 
                            "dur": 110, 
                            "type": "note", 
                            "channel": 4
                        }, 
                        {
                            "pitch": 76, 
                            "t0": 139200, 
                            "v": 120, 
                            "dur": 216, 
                            "type": "note", 
                            "channel": 0
                        }, 
                        {
                            "pitch": 80, 
                            "t0": 139200, 
                            "v": 104, 
                            "dur": 220, 
                            "type": "note", 
                            "channel": 10
                        }, 
                        {
                            "pitch": 47, 
                            "t0": 139200, 
                            "v": 104, 
                            "dur": 324, 
                            "type": "note", 
                            "channel": 6
                        }, 
                        {
                            "pitch": 69, 
                            "t0": 139200, 
                            "v": 104, 
                            "dur": 864, 
                            "type": "note", 
                            "channel": 3
                        }, 
                        {
                            "pitch": 63, 
                            "t0": 139200, 
                            "v": 104, 
                            "dur": 864, 
                            "type": "note", 
                            "channel": 3
                        }, 
                        {
                            "pitch": 66, 
                            "t0": 139200, 
                            "v": 104, 
                            "dur": 960, 
                            "type": "note", 
                            "channel": 5
                        }
                    ]
                ], 
                [
                    139320, 
                    [
                        {
                            "pitch": 78, 
                            "t0": 139320, 
                            "v": 104, 
                            "dur": 110, 
                            "type": "note", 
                            "channel": 4
                        }
                    ]
                ], 
                [
                    139440, 
                    [
                        {
                            "pitch": 46, 
                            "t0": 139440, 
                            "v": 88, 
                            "dur": 57, 
                            "type": "note", 
                            "channel": 9
                        }, 
                        {
                            "pitch": 75, 
                            "t0": 139440, 
                            "parts": [
                                [
                                    139440, 
                                    120
                                ], 
                                [
                                    139440, 
                                    104
                                ], 
                                [
                                    139550, 
                                    0
                                ]
                            ], 
                            "v": 120, 
                            "dur": 110, 
                            "type": "note", 
                            "channel": 0
                        }, 
                        {
                            "pitch": 78, 
                            "t0": 139440, 
                            "v": 104, 
                            "dur": 220, 
                            "type": "note", 
                            "channel": 10
                        }
                    ]
                ], 
                [
                    139560, 
                    [
                        {
                            "pitch": 47, 
                            "t0": 139560, 
                            "v": 104, 
                            "dur": 108, 
                            "type": "note", 
                            "channel": 6
                        }, 
                        {
                            "pitch": 83, 
                            "t0": 139560, 
                            "v": 104, 
                            "dur": 110, 
                            "type": "note", 
                            "channel": 4
                        }
                    ]
                ], 
                [
                    139680, 
                    [
                        {
                            "pitch": 38, 
                            "t0": 139680, 
                            "v": 120, 
                            "dur": 57, 
                            "type": "note", 
                            "channel": 9
                        }, 
                        {
                            "pitch": 46, 
                            "t0": 139680, 
                            "v": 104, 
                            "dur": 57, 
                            "type": "note", 
                            "channel": 9
                        }, 
                        {
                            "pitch": 78, 
                            "t0": 139680, 
                            "v": 104, 
                            "dur": 110, 
                            "type": "note", 
                            "channel": 4
                        }, 
                        {
                            "pitch": 47, 
                            "t0": 139680, 
                            "v": 104, 
                            "dur": 216, 
                            "type": "note", 
                            "channel": 6
                        }, 
                        {
                            "pitch": 71, 
                            "t0": 139680, 
                            "v": 120, 
                            "dur": 216, 
                            "type": "note", 
                            "channel": 0
                        }, 
                        {
                            "pitch": 75, 
                            "t0": 139680, 
                            "parts": [
                                [
                                    139680, 
                                    104
                                ], 
                                [
                                    139800, 
                                    104
                                ], 
                                [
                                    139900, 
                                    0
                                ]
                            ], 
                            "v": 104, 
                            "dur": 220, 
                            "type": "note", 
                            "channel": 10
                        }
                    ]
                ], 
                [
                    139920, 
                    [
                        {
                            "pitch": 36, 
                            "t0": 139920, 
                            "v": 104, 
                            "dur": 57, 
                            "type": "note", 
                            "channel": 9
                        }, 
                        {
                            "pitch": 46, 
                            "t0": 139920, 
                            "v": 88, 
                            "dur": 57, 
                            "type": "note", 
                            "channel": 9
                        }, 
                        {
                            "pitch": 83, 
                            "t0": 139920, 
                            "v": 104, 
                            "dur": 110, 
                            "type": "note", 
                            "channel": 4
                        }, 
                        {
                            "pitch": 48, 
                            "t0": 139920, 
                            "v": 104, 
                            "dur": 216, 
                            "type": "note", 
                            "channel": 6
                        }, 
                        {
                            "pitch": 71, 
                            "t0": 139920, 
                            "v": 120, 
                            "dur": 216, 
                            "type": "note", 
                            "channel": 1
                        }, 
                        {
                            "pitch": 78, 
                            "t0": 139920, 
                            "v": 104, 
                            "dur": 220, 
                            "type": "note", 
                            "channel": 10
                        }, 
                        {
                            "pitch": 75, 
                            "t0": 139920, 
                            "v": 120, 
                            "dur": 223, 
                            "type": "note", 
                            "channel": 0
                        }
                    ]
                ], 
                [
                    140160, 
                    [
                        {
                            "pitch": 46, 
                            "t0": 140160, 
                            "v": 104, 
                            "dur": 57, 
                            "type": "note", 
                            "channel": 9
                        }, 
                        {
                            "pitch": 36, 
                            "t0": 140160, 
                            "v": 120, 
                            "dur": 57, 
                            "type": "note", 
                            "channel": 9
                        }, 
                        {
                            "pitch": 85, 
                            "t0": 140160, 
                            "v": 104, 
                            "dur": 110, 
                            "type": "note", 
                            "channel": 4
                        }, 
                        {
                            "pitch": 80, 
                            "t0": 140160, 
                            "parts": [
                                [
                                    140160, 
                                    104
                                ], 
                                [
                                    140280, 
                                    104
                                ], 
                                [
                                    140390, 
                                    0
                                ]
                            ], 
                            "v": 104, 
                            "dur": 230, 
                            "type": "note", 
                            "channel": 10
                        }, 
                        {
                            "pitch": 76, 
                            "t0": 140160, 
                            "parts": [
                                [
                                    140160, 
                                    120
                                ], 
                                [
                                    140400, 
                                    104
                                ], 
                                [
                                    140510, 
                                    0
                                ]
                            ], 
                            "v": 120, 
                            "dur": 350, 
                            "type": "note", 
                            "channel": 0
                        }, 
                        {
                            "pitch": 49, 
                            "t0": 140160, 
                            "v": 104, 
                            "dur": 432, 
                            "type": "note", 
                            "channel": 6
                        }, 
                        {
                            "pitch": 68, 
                            "t0": 140160, 
                            "v": 104, 
                            "dur": 864, 
                            "type": "note", 
                            "channel": 3
                        }, 
                        {
                            "pitch": 61, 
                            "t0": 140160, 
                            "v": 104, 
                            "dur": 864, 
                            "type": "note", 
                            "channel": 3
                        }, 
                        {
                            "pitch": 64, 
                            "t0": 140160, 
                            "v": 104, 
                            "dur": 960, 
                            "type": "note", 
                            "channel": 5
                        }
                    ]
                ], 
                [
                    140400, 
                    [
                        {
                            "pitch": 46, 
                            "t0": 140400, 
                            "v": 88, 
                            "dur": 57, 
                            "type": "note", 
                            "channel": 9
                        }
                    ]
                ], 
                [
                    140520, 
                    [
                        {
                            "pitch": 85, 
                            "t0": 140520, 
                            "v": 104, 
                            "dur": 110, 
                            "type": "note", 
                            "channel": 4
                        }
                    ]
                ], 
                [
                    140640, 
                    [
                        {
                            "pitch": 38, 
                            "t0": 140640, 
                            "v": 120, 
                            "dur": 57, 
                            "type": "note", 
                            "channel": 9
                        }, 
                        {
                            "pitch": 46, 
                            "t0": 140640, 
                            "v": 104, 
                            "dur": 57, 
                            "type": "note", 
                            "channel": 9
                        }, 
                        {
                            "pitch": 80, 
                            "t0": 140640, 
                            "v": 104, 
                            "dur": 110, 
                            "type": "note", 
                            "channel": 4
                        }, 
                        {
                            "pitch": 49, 
                            "t0": 140640, 
                            "v": 104, 
                            "dur": 216, 
                            "type": "note", 
                            "channel": 6
                        }, 
                        {
                            "pitch": 76, 
                            "t0": 140640, 
                            "parts": [
                                [
                                    140640, 
                                    120
                                ], 
                                [
                                    140760, 
                                    104
                                ], 
                                [
                                    140856, 
                                    0
                                ]
                            ], 
                            "v": 120, 
                            "dur": 216, 
                            "type": "note", 
                            "channel": 1
                        }
                    ]
                ], 
                [
                    140880, 
                    [
                        {
                            "pitch": 36, 
                            "t0": 140880, 
                            "v": 104, 
                            "dur": 57, 
                            "type": "note", 
                            "channel": 9
                        }, 
                        {
                            "pitch": 46, 
                            "t0": 140880, 
                            "v": 88, 
                            "dur": 57, 
                            "type": "note", 
                            "channel": 9
                        }, 
                        {
                            "pitch": 85, 
                            "t0": 140880, 
                            "v": 104, 
                            "dur": 110, 
                            "type": "note", 
                            "channel": 4
                        }, 
                        {
                            "pitch": 56, 
                            "t0": 140880, 
                            "v": 104, 
                            "dur": 216, 
                            "type": "note", 
                            "channel": 6
                        }, 
                        {
                            "pitch": 78, 
                            "t0": 140880, 
                            "parts": [
                                [
                                    140880, 
                                    121
                                ], 
                                [
                                    140880, 
                                    120
                                ], 
                                [
                                    141096, 
                                    0
                                ]
                            ], 
                            "v": 121, 
                            "dur": 216, 
                            "type": "note", 
                            "channel": 0
                        }, 
                        {
                            "pitch": 81, 
                            "t0": 140880, 
                            "v": 104, 
                            "dur": 220, 
                            "type": "note", 
                            "channel": 10
                        }
                    ]
                ], 
                [
                    141000, 
                    [
                        {
                            "pitch": 80, 
                            "t0": 141000, 
                            "v": 104, 
                            "dur": 110, 
                            "type": "note", 
                            "channel": 4
                        }
                    ]
                ], 
                [
                    141120, 
                    [
                        {
                            "pitch": 36, 
                            "t0": 141120, 
                            "v": 120, 
                            "dur": 57, 
                            "type": "note", 
                            "channel": 9
                        }, 
                        {
                            "pitch": 46, 
                            "t0": 141120, 
                            "v": 104, 
                            "dur": 57, 
                            "type": "note", 
                            "channel": 9
                        }, 
                        {
                            "pitch": 75, 
                            "t0": 141120, 
                            "v": 104, 
                            "dur": 110, 
                            "type": "note", 
                            "channel": 4
                        }, 
                        {
                            "pitch": 76, 
                            "t0": 141120, 
                            "v": 120, 
                            "dur": 216, 
                            "type": "note", 
                            "channel": 0
                        }, 
                        {
                            "pitch": 80, 
                            "t0": 141120, 
                            "v": 104, 
                            "dur": 220, 
                            "type": "note", 
                            "channel": 10
                        }, 
                        {
                            "pitch": 68, 
                            "t0": 141120, 
                            "v": 104, 
                            "dur": 480, 
                            "type": "note", 
                            "channel": 5
                        }, 
                        {
                            "pitch": 59, 
                            "t0": 141120, 
                            "v": 104, 
                            "dur": 480, 
                            "type": "note", 
                            "channel": 5
                        }, 
                        {
                            "pitch": 63, 
                            "t0": 141120, 
                            "v": 104, 
                            "dur": 480, 
                            "type": "note", 
                            "channel": 3
                        }, 
                        {
                            "pitch": 44, 
                            "t0": 141120, 
                            "v": 104, 
                            "dur": 648, 
                            "type": "note", 
                            "channel": 6
                        }, 
                        {
                            "pitch": 56, 
                            "t0": 141120, 
                            "v": 104, 
                            "dur": 864, 
                            "type": "note", 
                            "channel": 3
                        }
                    ]
                ], 
                [
                    141240, 
                    [
                        {
                            "pitch": 71, 
                            "t0": 141240, 
                            "v": 104, 
                            "dur": 110, 
                            "type": "note", 
                            "channel": 4
                        }
                    ]
                ], 
                [
                    141360, 
                    [
                        {
                            "pitch": 46, 
                            "t0": 141360, 
                            "v": 88, 
                            "dur": 57, 
                            "type": "note", 
                            "channel": 9
                        }, 
                        {
                            "pitch": 80, 
                            "t0": 141360, 
                            "v": 104, 
                            "dur": 110, 
                            "type": "note", 
                            "channel": 4
                        }, 
                        {
                            "pitch": 75, 
                            "t0": 141360, 
                            "parts": [
                                [
                                    141360, 
                                    120
                                ], 
                                [
                                    141480, 
                                    104
                                ], 
                                [
                                    141576, 
                                    0
                                ]
                            ], 
                            "v": 120, 
                            "dur": 216, 
                            "type": "note", 
                            "channel": 0
                        }, 
                        {
                            "pitch": 78, 
                            "t0": 141360, 
                            "v": 104, 
                            "dur": 220, 
                            "type": "note", 
                            "channel": 10
                        }
                    ]
                ], 
                [
                    141600, 
                    [
                        {
                            "pitch": 38, 
                            "t0": 141600, 
                            "v": 120, 
                            "dur": 57, 
                            "type": "note", 
                            "channel": 9
                        }, 
                        {
                            "pitch": 46, 
                            "t0": 141600, 
                            "v": 104, 
                            "dur": 57, 
                            "type": "note", 
                            "channel": 9
                        }, 
                        {
                            "pitch": 71, 
                            "t0": 141600, 
                            "parts": [
                                [
                                    141600, 
                                    120
                                ], 
                                [
                                    141600, 
                                    104
                                ], 
                                [
                                    141710, 
                                    0
                                ]
                            ], 
                            "v": 120, 
                            "dur": 110, 
                            "type": "note", 
                            "channel": 0
                        }, 
                        {
                            "pitch": 75, 
                            "t0": 141600, 
                            "v": 104, 
                            "dur": 220, 
                            "type": "note", 
                            "channel": 10
                        }, 
                        {
                            "pitch": 63, 
                            "t0": 141600, 
                            "v": 104, 
                            "dur": 384, 
                            "type": "note", 
                            "channel": 5
                        }, 
                        {
                            "pitch": 66, 
                            "t0": 141600, 
                            "v": 104, 
                            "dur": 480, 
                            "type": "note", 
                            "channel": 5
                        }, 
                        {
                            "pitch": 59, 
                            "t0": 141600, 
                            "v": 104, 
                            "dur": 480, 
                            "type": "note", 
                            "channel": 5
                        }
                    ]
                ], 
                [
                    141720, 
                    [
                        {
                            "pitch": 80, 
                            "t0": 141720, 
                            "v": 104, 
                            "dur": 110, 
                            "type": "note", 
                            "channel": 4
                        }
                    ]
                ], 
                [
                    141840, 
                    [
                        {
                            "pitch": 46, 
                            "t0": 141840, 
                            "v": 88, 
                            "dur": 57, 
                            "type": "note", 
                            "channel": 9
                        }, 
                        {
                            "pitch": 44, 
                            "t0": 141840, 
                            "v": 104, 
                            "dur": 216, 
                            "type": "note", 
                            "channel": 6
                        }, 
                        {
                            "pitch": 71, 
                            "t0": 141840, 
                            "v": 120, 
                            "dur": 216, 
                            "type": "note", 
                            "channel": 0
                        }, 
                        {
                            "pitch": 75, 
                            "t0": 141840, 
                            "v": 104, 
                            "dur": 220, 
                            "type": "note", 
                            "channel": 10
                        }
                    ]
                ], 
                [
                    142080, 
                    [
                        {
                            "pitch": 46, 
                            "t0": 142080, 
                            "v": 104, 
                            "dur": 57, 
                            "type": "note", 
                            "channel": 9
                        }, 
                        {
                            "pitch": 36, 
                            "t0": 142080, 
                            "v": 120, 
                            "dur": 57, 
                            "type": "note", 
                            "channel": 9
                        }, 
                        {
                            "pitch": 81, 
                            "t0": 142080, 
                            "v": 104, 
                            "dur": 110, 
                            "type": "note", 
                            "channel": 4
                        }, 
                        {
                            "pitch": 73, 
                            "t0": 142080, 
                            "parts": [
                                [
                                    142080, 
                                    104
                                ], 
                                [
                                    142320, 
                                    104
                                ], 
                                [
                                    142430, 
                                    0
                                ]
                            ], 
                            "v": 104, 
                            "dur": 350, 
                            "type": "note", 
                            "channel": 10
                        }, 
                        {
                            "pitch": 45, 
                            "t0": 142080, 
                            "v": 104, 
                            "dur": 432, 
                            "type": "note", 
                            "channel": 6
                        }, 
                        {
                            "pitch": 69, 
                            "t0": 142080, 
                            "v": 120, 
                            "dur": 432, 
                            "type": "note", 
                            "channel": 0
                        }, 
                        {
                            "pitch": 64, 
                            "t0": 142080, 
                            "v": 104, 
                            "dur": 864, 
                            "type": "note", 
                            "channel": 3
                        }, 
                        {
                            "pitch": 57, 
                            "t0": 142080, 
                            "v": 104, 
                            "dur": 864, 
                            "type": "note", 
                            "channel": 3
                        }, 
                        {
                            "pitch": 61, 
                            "t0": 142080, 
                            "v": 104, 
                            "dur": 952, 
                            "type": "note", 
                            "channel": 5
                        }
                    ]
                ], 
                [
                    142200, 
                    [
                        {
                            "pitch": 76, 
                            "t0": 142200, 
                            "v": 104, 
                            "dur": 110, 
                            "type": "note", 
                            "channel": 4
                        }
                    ]
                ], 
                [
                    142320, 
                    [
                        {
                            "pitch": 46, 
                            "t0": 142320, 
                            "v": 88, 
                            "dur": 57, 
                            "type": "note", 
                            "channel": 9
                        }
                    ]
                ], 
                [
                    142440, 
                    [
                        {
                            "pitch": 81, 
                            "t0": 142440, 
                            "v": 104, 
                            "dur": 110, 
                            "type": "note", 
                            "channel": 4
                        }
                    ]
                ], 
                [
                    142560, 
                    [
                        {
                            "pitch": 38, 
                            "t0": 142560, 
                            "v": 120, 
                            "dur": 57, 
                            "type": "note", 
                            "channel": 9
                        }, 
                        {
                            "pitch": 46, 
                            "t0": 142560, 
                            "v": 104, 
                            "dur": 57, 
                            "type": "note", 
                            "channel": 9
                        }, 
                        {
                            "pitch": 76, 
                            "t0": 142560, 
                            "v": 104, 
                            "dur": 110, 
                            "type": "note", 
                            "channel": 4
                        }, 
                        {
                            "pitch": 69, 
                            "t0": 142560, 
                            "v": 120, 
                            "dur": 189, 
                            "type": "note", 
                            "channel": 1
                        }, 
                        {
                            "pitch": 45, 
                            "t0": 142560, 
                            "v": 104, 
                            "dur": 216, 
                            "type": "note", 
                            "channel": 6
                        }
                    ]
                ], 
                [
                    142680, 
                    [
                        {
                            "pitch": 73, 
                            "t0": 142680, 
                            "v": 104, 
                            "dur": 62, 
                            "type": "note", 
                            "channel": 4
                        }
                    ]
                ], 
                [
                    142800, 
                    [
                        {
                            "pitch": 36, 
                            "t0": 142800, 
                            "v": 104, 
                            "dur": 57, 
                            "type": "note", 
                            "channel": 9
                        }, 
                        {
                            "pitch": 46, 
                            "t0": 142800, 
                            "v": 88, 
                            "dur": 57, 
                            "type": "note", 
                            "channel": 9
                        }, 
                        {
                            "pitch": 44, 
                            "t0": 142800, 
                            "v": 104, 
                            "dur": 108, 
                            "type": "note", 
                            "channel": 6
                        }, 
                        {
                            "pitch": 81, 
                            "t0": 142800, 
                            "v": 104, 
                            "dur": 110, 
                            "type": "note", 
                            "channel": 4
                        }, 
                        {
                            "pitch": 71, 
                            "t0": 142800, 
                            "v": 120, 
                            "dur": 216, 
                            "type": "note", 
                            "channel": 0
                        }, 
                        {
                            "pitch": 75, 
                            "t0": 142800, 
                            "v": 104, 
                            "dur": 220, 
                            "type": "note", 
                            "channel": 10
                        }
                    ]
                ], 
                [
                    142920, 
                    [
                        {
                            "pitch": 45, 
                            "t0": 142920, 
                            "v": 104, 
                            "dur": 108, 
                            "type": "note", 
                            "channel": 6
                        }, 
                        {
                            "pitch": 76, 
                            "t0": 142920, 
                            "v": 104, 
                            "dur": 110, 
                            "type": "note", 
                            "channel": 4
                        }
                    ]
                ], 
                [
                    143040, 
                    [
                        {
                            "pitch": 36, 
                            "t0": 143040, 
                            "v": 120, 
                            "dur": 57, 
                            "type": "note", 
                            "channel": 9
                        }, 
                        {
                            "pitch": 46, 
                            "t0": 143040, 
                            "v": 104, 
                            "dur": 57, 
                            "type": "note", 
                            "channel": 9
                        }, 
                        {
                            "pitch": 47, 
                            "t0": 143040, 
                            "v": 104, 
                            "dur": 108, 
                            "type": "note", 
                            "channel": 6
                        }, 
                        {
                            "pitch": 83, 
                            "t0": 143040, 
                            "v": 104, 
                            "dur": 110, 
                            "type": "note", 
                            "channel": 4
                        }, 
                        {
                            "pitch": 66, 
                            "t0": 143040, 
                            "parts": [
                                [
                                    143040, 
                                    120
                                ], 
                                [
                                    143040, 
                                    104
                                ], 
                                [
                                    143256, 
                                    0
                                ]
                            ], 
                            "v": 120, 
                            "dur": 216, 
                            "type": "note", 
                            "channel": 0
                        }, 
                        {
                            "pitch": 71, 
                            "t0": 143040, 
                            "v": 104, 
                            "dur": 220, 
                            "type": "note", 
                            "channel": 10
                        }, 
                        {
                            "pitch": 63, 
                            "t0": 143040, 
                            "parts": [
                                [
                                    143040, 
                                    104
                                ], 
                                [
                                    143520, 
                                    120
                                ], 
                                [
                                    143736, 
                                    0
                                ]
                            ], 
                            "v": 104, 
                            "dur": 696, 
                            "type": "note", 
                            "channel": 5
                        }, 
                        {
                            "pitch": 59, 
                            "t0": 143040, 
                            "v": 104, 
                            "dur": 864, 
                            "type": "note", 
                            "channel": 3
                        }
                    ]
                ], 
                [
                    143160, 
                    [
                        {
                            "pitch": 78, 
                            "t0": 143160, 
                            "v": 104, 
                            "dur": 110, 
                            "type": "note", 
                            "channel": 4
                        }, 
                        {
                            "pitch": 47, 
                            "t0": 143160, 
                            "v": 104, 
                            "dur": 216, 
                            "type": "note", 
                            "channel": 6
                        }
                    ]
                ], 
                [
                    143280, 
                    [
                        {
                            "pitch": 46, 
                            "t0": 143280, 
                            "v": 88, 
                            "dur": 57, 
                            "type": "note", 
                            "channel": 9
                        }, 
                        {
                            "pitch": 75, 
                            "t0": 143280, 
                            "v": 104, 
                            "dur": 110, 
                            "type": "note", 
                            "channel": 4
                        }, 
                        {
                            "pitch": 71, 
                            "t0": 143280, 
                            "v": 120, 
                            "dur": 216, 
                            "type": "note", 
                            "channel": 0
                        }
                    ]
                ], 
                [
                    143400, 
                    [
                        {
                            "pitch": 47, 
                            "t0": 143400, 
                            "v": 104, 
                            "dur": 108, 
                            "type": "note", 
                            "channel": 6
                        }, 
                        {
                            "pitch": 83, 
                            "t0": 143400, 
                            "v": 104, 
                            "dur": 110, 
                            "type": "note", 
                            "channel": 4
                        }
                    ]
                ], 
                [
                    143520, 
                    [
                        {
                            "pitch": 38, 
                            "t0": 143520, 
                            "v": 120, 
                            "dur": 57, 
                            "type": "note", 
                            "channel": 9
                        }, 
                        {
                            "pitch": 46, 
                            "t0": 143520, 
                            "v": 104, 
                            "dur": 57, 
                            "type": "note", 
                            "channel": 9
                        }, 
                        {
                            "pitch": 78, 
                            "t0": 143520, 
                            "v": 104, 
                            "dur": 110, 
                            "type": "note", 
                            "channel": 4
                        }, 
                        {
                            "pitch": 68, 
                            "t0": 143520, 
                            "v": 104, 
                            "dur": 220, 
                            "type": "note", 
                            "channel": 10
                        }, 
                        {
                            "pitch": 47, 
                            "t0": 143520, 
                            "v": 104, 
                            "dur": 432, 
                            "type": "note", 
                            "channel": 6
                        }
                    ]
                ], 
                [
                    143640, 
                    [
                        {
                            "pitch": 75, 
                            "t0": 143640, 
                            "v": 104, 
                            "dur": 110, 
                            "type": "note", 
                            "channel": 4
                        }
                    ]
                ], 
                [
                    143760, 
                    [
                        {
                            "pitch": 46, 
                            "t0": 143760, 
                            "v": 88, 
                            "dur": 57, 
                            "type": "note", 
                            "channel": 9
                        }, 
                        {
                            "pitch": 66, 
                            "t0": 143760, 
                            "v": 120, 
                            "dur": 144, 
                            "type": "note", 
                            "channel": 0
                        }, 
                        {
                            "pitch": 71, 
                            "t0": 143760, 
                            "v": 104, 
                            "dur": 220, 
                            "type": "note", 
                            "channel": 10
                        }, 
                        {
                            "pitch": 83, 
                            "t0": 143760, 
                            "v": 104, 
                            "dur": 220, 
                            "type": "note", 
                            "channel": 4
                        }
                    ]
                ], 
                [
                    144000, 
                    [
                        {
                            "pitch": 46, 
                            "t0": 144000, 
                            "v": 104, 
                            "dur": 54, 
                            "type": "note", 
                            "channel": 9
                        }, 
                        {
                            "pitch": 36, 
                            "t0": 144000, 
                            "v": 120, 
                            "dur": 54, 
                            "type": "note", 
                            "channel": 9
                        }, 
                        {
                            "pitch": 83, 
                            "t0": 144000, 
                            "v": 104, 
                            "dur": 114, 
                            "type": "note", 
                            "channel": 4
                        }, 
                        {
                            "pitch": 40, 
                            "t0": 144000, 
                            "v": 104, 
                            "dur": 432, 
                            "type": "note", 
                            "channel": 6
                        }, 
                        {
                            "pitch": 64, 
                            "t0": 144000, 
                            "parts": [
                                [
                                    144000, 
                                    120
                                ], 
                                [
                                    144000, 
                                    104
                                ], 
                                [
                                    144446, 
                                    0
                                ]
                            ], 
                            "v": 120, 
                            "dur": 446, 
                            "type": "note", 
                            "channel": 0
                        }, 
                        {
                            "pitch": 71, 
                            "t0": 144000, 
                            "v": 104, 
                            "dur": 456, 
                            "type": "note", 
                            "channel": 3
                        }, 
                        {
                            "pitch": 68, 
                            "t0": 144000, 
                            "parts": [
                                [
                                    144000, 
                                    104
                                ], 
                                [
                                    144480, 
                                    120
                                ], 
                                [
                                    144892, 
                                    0
                                ]
                            ], 
                            "v": 104, 
                            "dur": 892, 
                            "type": "note", 
                            "channel": 5
                        }, 
                        {
                            "pitch": 59, 
                            "t0": 144000, 
                            "v": 104, 
                            "dur": 952, 
                            "type": "note", 
                            "channel": 5
                        }
                    ]
                ], 
                [
                    144120, 
                    [
                        {
                            "pitch": 80, 
                            "t0": 144120, 
                            "v": 104, 
                            "dur": 114, 
                            "type": "note", 
                            "channel": 4
                        }
                    ]
                ], 
                [
                    144240, 
                    [
                        {
                            "pitch": 46, 
                            "t0": 144240, 
                            "v": 88, 
                            "dur": 54, 
                            "type": "note", 
                            "channel": 9
                        }, 
                        {
                            "pitch": 76, 
                            "t0": 144240, 
                            "v": 104, 
                            "dur": 114, 
                            "type": "note", 
                            "channel": 4
                        }
                    ]
                ], 
                [
                    144360, 
                    [
                        {
                            "pitch": 83, 
                            "t0": 144360, 
                            "v": 104, 
                            "dur": 114, 
                            "type": "note", 
                            "channel": 4
                        }
                    ]
                ], 
                [
                    144480, 
                    [
                        {
                            "pitch": 46, 
                            "t0": 144480, 
                            "v": 104, 
                            "dur": 54, 
                            "type": "note", 
                            "channel": 9
                        }, 
                        {
                            "pitch": 38, 
                            "t0": 144480, 
                            "v": 120, 
                            "dur": 54, 
                            "type": "note", 
                            "channel": 9
                        }, 
                        {
                            "pitch": 40, 
                            "t0": 144480, 
                            "v": 104, 
                            "dur": 108, 
                            "type": "note", 
                            "channel": 6
                        }, 
                        {
                            "pitch": 80, 
                            "t0": 144480, 
                            "v": 104, 
                            "dur": 114, 
                            "type": "note", 
                            "channel": 4
                        }, 
                        {
                            "pitch": 64, 
                            "t0": 144480, 
                            "v": 104, 
                            "dur": 432, 
                            "type": "note", 
                            "channel": 3
                        }, 
                        {
                            "pitch": 71, 
                            "t0": 144480, 
                            "v": 104, 
                            "dur": 456, 
                            "type": "note", 
                            "channel": 3
                        }
                    ]
                ], 
                [
                    144600, 
                    [
                        {
                            "pitch": 76, 
                            "t0": 144600, 
                            "v": 104, 
                            "dur": 114, 
                            "type": "note", 
                            "channel": 4
                        }, 
                        {
                            "pitch": 44, 
                            "t0": 144600, 
                            "v": 104, 
                            "dur": 216, 
                            "type": "note", 
                            "channel": 6
                        }
                    ]
                ], 
                [
                    144720, 
                    [
                        {
                            "pitch": 46, 
                            "t0": 144720, 
                            "v": 88, 
                            "dur": 54, 
                            "type": "note", 
                            "channel": 9
                        }, 
                        {
                            "pitch": 83, 
                            "t0": 144720, 
                            "v": 104, 
                            "dur": 114, 
                            "type": "note", 
                            "channel": 4
                        }
                    ]
                ], 
                [
                    144840, 
                    [
                        {
                            "pitch": 45, 
                            "t0": 144840, 
                            "v": 104, 
                            "dur": 108, 
                            "type": "note", 
                            "channel": 6
                        }, 
                        {
                            "pitch": 80, 
                            "t0": 144840, 
                            "v": 104, 
                            "dur": 114, 
                            "type": "note", 
                            "channel": 4
                        }
                    ]
                ], 
                [
                    144960, 
                    [
                        {
                            "pitch": 49, 
                            "t0": 144960, 
                            "v": 120, 
                            "dur": 54, 
                            "type": "note", 
                            "channel": 9
                        }, 
                        {
                            "pitch": 36, 
                            "t0": 144960, 
                            "v": 120, 
                            "dur": 54, 
                            "type": "note", 
                            "channel": 9
                        }, 
                        {
                            "pitch": 83, 
                            "t0": 144960, 
                            "v": 104, 
                            "dur": 114, 
                            "type": "note", 
                            "channel": 4
                        }, 
                        {
                            "pitch": 47, 
                            "t0": 144960, 
                            "v": 104, 
                            "dur": 324, 
                            "type": "note", 
                            "channel": 6
                        }, 
                        {
                            "pitch": 69, 
                            "t0": 144960, 
                            "v": 120, 
                            "dur": 446, 
                            "type": "note", 
                            "channel": 1
                        }, 
                        {
                            "pitch": 66, 
                            "t0": 144960, 
                            "v": 104, 
                            "dur": 456, 
                            "type": "note", 
                            "channel": 3
                        }, 
                        {
                            "pitch": 59, 
                            "t0": 144960, 
                            "v": 104, 
                            "dur": 456, 
                            "type": "note", 
                            "channel": 3
                        }, 
                        {
                            "pitch": 63, 
                            "t0": 144960, 
                            "v": 104, 
                            "dur": 952, 
                            "type": "note", 
                            "channel": 5
                        }
                    ]
                ], 
                [
                    145080, 
                    [
                        {
                            "pitch": 78, 
                            "t0": 145080, 
                            "v": 104, 
                            "dur": 114, 
                            "type": "note", 
                            "channel": 4
                        }
                    ]
                ], 
                [
                    145200, 
                    [
                        {
                            "pitch": 38, 
                            "t0": 145200, 
                            "v": 104, 
                            "dur": 54, 
                            "type": "note", 
                            "channel": 9
                        }, 
                        {
                            "pitch": 75, 
                            "t0": 145200, 
                            "v": 104, 
                            "dur": 114, 
                            "type": "note", 
                            "channel": 4
                        }
                    ]
                ], 
                [
                    145320, 
                    [
                        {
                            "pitch": 42, 
                            "t0": 145320, 
                            "v": 104, 
                            "dur": 108, 
                            "type": "note", 
                            "channel": 6
                        }, 
                        {
                            "pitch": 83, 
                            "t0": 145320, 
                            "v": 104, 
                            "dur": 114, 
                            "type": "note", 
                            "channel": 4
                        }
                    ]
                ], 
                [
                    145440, 
                    [
                        {
                            "pitch": 47, 
                            "t0": 145440, 
                            "v": 104, 
                            "dur": 108, 
                            "type": "note", 
                            "channel": 6
                        }, 
                        {
                            "pitch": 78, 
                            "t0": 145440, 
                            "v": 104, 
                            "dur": 114, 
                            "type": "note", 
                            "channel": 4
                        }, 
                        {
                            "pitch": 75, 
                            "t0": 145440, 
                            "parts": [
                                [
                                    145440, 
                                    104
                                ], 
                                [
                                    145560, 
                                    104
                                ], 
                                [
                                    145663, 
                                    0
                                ]
                            ], 
                            "v": 104, 
                            "dur": 223, 
                            "type": "note", 
                            "channel": 10
                        }, 
                        {
                            "pitch": 71, 
                            "t0": 145440, 
                            "v": 120, 
                            "dur": 223, 
                            "type": "note", 
                            "channel": 0
                        }, 
                        {
                            "pitch": 66, 
                            "t0": 145440, 
                            "v": 104, 
                            "dur": 456, 
                            "type": "note", 
                            "channel": 3
                        }, 
                        {
                            "pitch": 59, 
                            "t0": 145440, 
                            "v": 104, 
                            "dur": 456, 
                            "type": "note", 
                            "channel": 3
                        }
                    ]
                ], 
                [
                    145560, 
                    [
                        {
                            "pitch": 38, 
                            "t0": 145560, 
                            "v": 104, 
                            "dur": 54, 
                            "type": "note", 
                            "channel": 9
                        }, 
                        {
                            "pitch": 42, 
                            "t0": 145560, 
                            "v": 104, 
                            "dur": 216, 
                            "type": "note", 
                            "channel": 6
                        }
                    ]
                ], 
                [
                    145680, 
                    [
                        {
                            "pitch": 38, 
                            "t0": 145680, 
                            "v": 88, 
                            "dur": 54, 
                            "type": "note", 
                            "channel": 9
                        }, 
                        {
                            "pitch": 78, 
                            "t0": 145680, 
                            "v": 104, 
                            "dur": 223, 
                            "type": "note", 
                            "channel": 10
                        }, 
                        {
                            "pitch": 71, 
                            "t0": 145680, 
                            "v": 120, 
                            "dur": 223, 
                            "type": "note", 
                            "channel": 1
                        }, 
                        {
                            "pitch": 75, 
                            "t0": 145680, 
                            "v": 120, 
                            "dur": 223, 
                            "type": "note", 
                            "channel": 0
                        }, 
                        {
                            "pitch": 83, 
                            "t0": 145680, 
                            "v": 104, 
                            "dur": 228, 
                            "type": "note", 
                            "channel": 4
                        }
                    ]
                ], 
                [
                    145800, 
                    [
                        {
                            "pitch": 38, 
                            "t0": 145800, 
                            "v": 88, 
                            "dur": 54, 
                            "type": "note", 
                            "channel": 9
                        }, 
                        {
                            "pitch": 47, 
                            "t0": 145800, 
                            "v": 104, 
                            "dur": 108, 
                            "type": "note", 
                            "channel": 6
                        }
                    ]
                ], 
                [
                    145920, 
                    [
                        {
                            "pitch": 36, 
                            "t0": 145920, 
                            "v": 120, 
                            "dur": 54, 
                            "type": "note", 
                            "channel": 9
                        }, 
                        {
                            "pitch": 49, 
                            "t0": 145920, 
                            "v": 120, 
                            "dur": 54, 
                            "type": "note", 
                            "channel": 9
                        }, 
                        {
                            "pitch": 83, 
                            "t0": 145920, 
                            "v": 104, 
                            "dur": 114, 
                            "type": "note", 
                            "channel": 4
                        }, 
                        {
                            "pitch": 40, 
                            "t0": 145920, 
                            "v": 104, 
                            "dur": 216, 
                            "type": "note", 
                            "channel": 6
                        }, 
                        {
                            "pitch": 76, 
                            "t0": 145920, 
                            "v": 120, 
                            "dur": 223, 
                            "type": "note", 
                            "channel": 0
                        }, 
                        {
                            "pitch": 80, 
                            "t0": 145920, 
                            "parts": [
                                [
                                    145920, 
                                    104
                                ], 
                                [
                                    146040, 
                                    104
                                ], 
                                [
                                    146154, 
                                    0
                                ]
                            ], 
                            "v": 104, 
                            "dur": 234, 
                            "type": "note", 
                            "channel": 10
                        }, 
                        {
                            "pitch": 59, 
                            "t0": 145920, 
                            "v": 104, 
                            "dur": 684, 
                            "type": "note", 
                            "channel": 3
                        }, 
                        {
                            "pitch": 52, 
                            "t0": 145920, 
                            "v": 104, 
                            "dur": 684, 
                            "type": "note", 
                            "channel": 3
                        }, 
                        {
                            "pitch": 68, 
                            "t0": 145920, 
                            "v": 104, 
                            "dur": 960, 
                            "type": "note", 
                            "channel": 5
                        }, 
                        {
                            "pitch": 64, 
                            "t0": 145920, 
                            "v": 104, 
                            "dur": 960, 
                            "type": "note", 
                            "channel": 5
                        }
                    ]
                ], 
                [
                    146160, 
                    [
                        {
                            "pitch": 38, 
                            "t0": 146160, 
                            "v": 120, 
                            "dur": 54, 
                            "type": "note", 
                            "channel": 9
                        }, 
                        {
                            "pitch": 46, 
                            "t0": 146160, 
                            "v": 88, 
                            "dur": 54, 
                            "type": "note", 
                            "channel": 9
                        }, 
                        {
                            "pitch": 76, 
                            "t0": 146160, 
                            "parts": [
                                [
                                    146160, 
                                    120
                                ], 
                                [
                                    146160, 
                                    104
                                ], 
                                [
                                    146274, 
                                    0
                                ]
                            ], 
                            "v": 120, 
                            "dur": 114, 
                            "type": "note", 
                            "channel": 1
                        }, 
                        {
                            "pitch": 40, 
                            "t0": 146160, 
                            "v": 104, 
                            "dur": 216, 
                            "type": "note", 
                            "channel": 6
                        }
                    ]
                ], 
                [
                    146280, 
                    [
                        {
                            "pitch": 83, 
                            "t0": 146280, 
                            "v": 104, 
                            "dur": 114, 
                            "type": "note", 
                            "channel": 4
                        }
                    ]
                ], 
                [
                    146400, 
                    [
                        {
                            "pitch": 36, 
                            "t0": 146400, 
                            "v": 120, 
                            "dur": 54, 
                            "type": "note", 
                            "channel": 9
                        }, 
                        {
                            "pitch": 46, 
                            "t0": 146400, 
                            "v": 104, 
                            "dur": 54, 
                            "type": "note", 
                            "channel": 9
                        }, 
                        {
                            "pitch": 80, 
                            "t0": 146400, 
                            "v": 104, 
                            "dur": 114, 
                            "type": "note", 
                            "channel": 4
                        }, 
                        {
                            "pitch": 40, 
                            "t0": 146400, 
                            "v": 104, 
                            "dur": 216, 
                            "type": "note", 
                            "channel": 6
                        }, 
                        {
                            "pitch": 76, 
                            "t0": 146400, 
                            "parts": [
                                [
                                    146400, 
                                    120
                                ], 
                                [
                                    146520, 
                                    104
                                ], 
                                [
                                    146623, 
                                    0
                                ]
                            ], 
                            "v": 120, 
                            "dur": 223, 
                            "type": "note", 
                            "channel": 0
                        }
                    ]
                ], 
                [
                    146640, 
                    [
                        {
                            "pitch": 38, 
                            "t0": 146640, 
                            "v": 120, 
                            "dur": 54, 
                            "type": "note", 
                            "channel": 9
                        }, 
                        {
                            "pitch": 46, 
                            "t0": 146640, 
                            "v": 88, 
                            "dur": 54, 
                            "type": "note", 
                            "channel": 9
                        }, 
                        {
                            "pitch": 83, 
                            "t0": 146640, 
                            "v": 104, 
                            "dur": 114, 
                            "type": "note", 
                            "channel": 4
                        }, 
                        {
                            "pitch": 40, 
                            "t0": 146640, 
                            "v": 104, 
                            "dur": 216, 
                            "type": "note", 
                            "channel": 6
                        }, 
                        {
                            "pitch": 81, 
                            "t0": 146640, 
                            "v": 104, 
                            "dur": 223, 
                            "type": "note", 
                            "channel": 10
                        }, 
                        {
                            "pitch": 78, 
                            "t0": 146640, 
                            "v": 120, 
                            "dur": 223, 
                            "type": "note", 
                            "channel": 0
                        }, 
                        {
                            "pitch": 56, 
                            "t0": 146640, 
                            "v": 104, 
                            "dur": 228, 
                            "type": "note", 
                            "channel": 3
                        }
                    ]
                ], 
                [
                    146760, 
                    [
                        {
                            "pitch": 80, 
                            "t0": 146760, 
                            "v": 104, 
                            "dur": 114, 
                            "type": "note", 
                            "channel": 4
                        }
                    ]
                ], 
                [
                    146880, 
                    [
                        {
                            "pitch": 36, 
                            "t0": 146880, 
                            "v": 120, 
                            "dur": 54, 
                            "type": "note", 
                            "channel": 9
                        }, 
                        {
                            "pitch": 46, 
                            "t0": 146880, 
                            "v": 104, 
                            "dur": 54, 
                            "type": "note", 
                            "channel": 9
                        }, 
                        {
                            "pitch": 83, 
                            "t0": 146880, 
                            "v": 104, 
                            "dur": 114, 
                            "type": "note", 
                            "channel": 4
                        }, 
                        {
                            "pitch": 47, 
                            "t0": 146880, 
                            "v": 104, 
                            "dur": 216, 
                            "type": "note", 
                            "channel": 6
                        }, 
                        {
                            "pitch": 80, 
                            "t0": 146880, 
                            "v": 104, 
                            "dur": 223, 
                            "type": "note", 
                            "channel": 10
                        }, 
                        {
                            "pitch": 76, 
                            "t0": 146880, 
                            "v": 120, 
                            "dur": 223, 
                            "type": "note", 
                            "channel": 0
                        }, 
                        {
                            "pitch": 66, 
                            "t0": 146880, 
                            "v": 104, 
                            "dur": 456, 
                            "type": "note", 
                            "channel": 3
                        }, 
                        {
                            "pitch": 59, 
                            "t0": 146880, 
                            "v": 104, 
                            "dur": 456, 
                            "type": "note", 
                            "channel": 3
                        }, 
                        {
                            "pitch": 63, 
                            "t0": 146880, 
                            "v": 104, 
                            "dur": 960, 
                            "type": "note", 
                            "channel": 5
                        }
                    ]
                ], 
                [
                    147000, 
                    [
                        {
                            "pitch": 78, 
                            "t0": 147000, 
                            "v": 104, 
                            "dur": 114, 
                            "type": "note", 
                            "channel": 4
                        }
                    ]
                ], 
                [
                    147120, 
                    [
                        {
                            "pitch": 38, 
                            "t0": 147120, 
                            "v": 120, 
                            "dur": 54, 
                            "type": "note", 
                            "channel": 9
                        }, 
                        {
                            "pitch": 46, 
                            "t0": 147120, 
                            "v": 88, 
                            "dur": 54, 
                            "type": "note", 
                            "channel": 9
                        }, 
                        {
                            "pitch": 75, 
                            "t0": 147120, 
                            "parts": [
                                [
                                    147120, 
                                    120
                                ], 
                                [
                                    147120, 
                                    104
                                ], 
                                [
                                    147234, 
                                    0
                                ]
                            ], 
                            "v": 120, 
                            "dur": 114, 
                            "type": "note", 
                            "channel": 0
                        }, 
                        {
                            "pitch": 47, 
                            "t0": 147120, 
                            "v": 104, 
                            "dur": 216, 
                            "type": "note", 
                            "channel": 6
                        }, 
                        {
                            "pitch": 78, 
                            "t0": 147120, 
                            "v": 104, 
                            "dur": 223, 
                            "type": "note", 
                            "channel": 10
                        }
                    ]
                ], 
                [
                    147240, 
                    [
                        {
                            "pitch": 83, 
                            "t0": 147240, 
                            "v": 104, 
                            "dur": 114, 
                            "type": "note", 
                            "channel": 4
                        }
                    ]
                ], 
                [
                    147360, 
                    [
                        {
                            "pitch": 36, 
                            "t0": 147360, 
                            "v": 120, 
                            "dur": 54, 
                            "type": "note", 
                            "channel": 9
                        }, 
                        {
                            "pitch": 46, 
                            "t0": 147360, 
                            "v": 104, 
                            "dur": 54, 
                            "type": "note", 
                            "channel": 9
                        }, 
                        {
                            "pitch": 78, 
                            "t0": 147360, 
                            "v": 104, 
                            "dur": 114, 
                            "type": "note", 
                            "channel": 4
                        }, 
                        {
                            "pitch": 47, 
                            "t0": 147360, 
                            "v": 104, 
                            "dur": 216, 
                            "type": "note", 
                            "channel": 6
                        }, 
                        {
                            "pitch": 75, 
                            "t0": 147360, 
                            "parts": [
                                [
                                    147360, 
                                    104
                                ], 
                                [
                                    147480, 
                                    104
                                ], 
                                [
                                    147583, 
                                    0
                                ]
                            ], 
                            "v": 104, 
                            "dur": 223, 
                            "type": "note", 
                            "channel": 10
                        }, 
                        {
                            "pitch": 71, 
                            "t0": 147360, 
                            "v": 120, 
                            "dur": 223, 
                            "type": "note", 
                            "channel": 0
                        }, 
                        {
                            "pitch": 66, 
                            "t0": 147360, 
                            "v": 104, 
                            "dur": 228, 
                            "type": "note", 
                            "channel": 3
                        }, 
                        {
                            "pitch": 59, 
                            "t0": 147360, 
                            "v": 104, 
                            "dur": 228, 
                            "type": "note", 
                            "channel": 3
                        }
                    ]
                ], 
                [
                    147600, 
                    [
                        {
                            "pitch": 38, 
                            "t0": 147600, 
                            "v": 120, 
                            "dur": 54, 
                            "type": "note", 
                            "channel": 9
                        }, 
                        {
                            "pitch": 46, 
                            "t0": 147600, 
                            "v": 88, 
                            "dur": 54, 
                            "type": "note", 
                            "channel": 9
                        }, 
                        {
                            "pitch": 83, 
                            "t0": 147600, 
                            "v": 104, 
                            "dur": 114, 
                            "type": "note", 
                            "channel": 4
                        }, 
                        {
                            "pitch": 47, 
                            "t0": 147600, 
                            "v": 104, 
                            "dur": 216, 
                            "type": "note", 
                            "channel": 6
                        }, 
                        {
                            "pitch": 78, 
                            "t0": 147600, 
                            "v": 104, 
                            "dur": 223, 
                            "type": "note", 
                            "channel": 10
                        }, 
                        {
                            "pitch": 71, 
                            "t0": 147600, 
                            "v": 120, 
                            "dur": 223, 
                            "type": "note", 
                            "channel": 1
                        }, 
                        {
                            "pitch": 75, 
                            "t0": 147600, 
                            "v": 120, 
                            "dur": 223, 
                            "type": "note", 
                            "channel": 0
                        }, 
                        {
                            "pitch": 56, 
                            "t0": 147600, 
                            "v": 104, 
                            "dur": 228, 
                            "type": "note", 
                            "channel": 3
                        }
                    ]
                ], 
                [
                    147840, 
                    [
                        {
                            "pitch": 46, 
                            "t0": 147840, 
                            "v": 104, 
                            "dur": 54, 
                            "type": "note", 
                            "channel": 9
                        }, 
                        {
                            "pitch": 36, 
                            "t0": 147840, 
                            "v": 120, 
                            "dur": 54, 
                            "type": "note", 
                            "channel": 9
                        }, 
                        {
                            "pitch": 85, 
                            "t0": 147840, 
                            "v": 104, 
                            "dur": 114, 
                            "type": "note", 
                            "channel": 4
                        }, 
                        {
                            "pitch": 49, 
                            "t0": 147840, 
                            "v": 104, 
                            "dur": 216, 
                            "type": "note", 
                            "channel": 6
                        }, 
                        {
                            "pitch": 73, 
                            "t0": 147840, 
                            "v": 120, 
                            "dur": 223, 
                            "type": "note", 
                            "channel": 1
                        }, 
                        {
                            "pitch": 80, 
                            "t0": 147840, 
                            "parts": [
                                [
                                    147840, 
                                    104
                                ], 
                                [
                                    147960, 
                                    104
                                ], 
                                [
                                    148074, 
                                    0
                                ]
                            ], 
                            "v": 104, 
                            "dur": 234, 
                            "type": "note", 
                            "channel": 10
                        }, 
                        {
                            "pitch": 76, 
                            "t0": 147840, 
                            "parts": [
                                [
                                    147840, 
                                    120
                                ], 
                                [
                                    148080, 
                                    104
                                ], 
                                [
                                    148194, 
                                    0
                                ]
                            ], 
                            "v": 120, 
                            "dur": 354, 
                            "type": "note", 
                            "channel": 0
                        }, 
                        {
                            "pitch": 68, 
                            "t0": 147840, 
                            "v": 104, 
                            "dur": 912, 
                            "type": "note", 
                            "channel": 3
                        }, 
                        {
                            "pitch": 61, 
                            "t0": 147840, 
                            "v": 104, 
                            "dur": 912, 
                            "type": "note", 
                            "channel": 3
                        }, 
                        {
                            "pitch": 64, 
                            "t0": 147840, 
                            "v": 104, 
                            "dur": 960, 
                            "type": "note", 
                            "channel": 5
                        }
                    ]
                ], 
                [
                    148080, 
                    [
                        {
                            "pitch": 38, 
                            "t0": 148080, 
                            "v": 120, 
                            "dur": 54, 
                            "type": "note", 
                            "channel": 9
                        }, 
                        {
                            "pitch": 46, 
                            "t0": 148080, 
                            "v": 88, 
                            "dur": 54, 
                            "type": "note", 
                            "channel": 9
                        }, 
                        {
                            "pitch": 49, 
                            "t0": 148080, 
                            "v": 104, 
                            "dur": 216, 
                            "type": "note", 
                            "channel": 6
                        }, 
                        {
                            "pitch": 73, 
                            "t0": 148080, 
                            "v": 120, 
                            "dur": 223, 
                            "type": "note", 
                            "channel": 1
                        }
                    ]
                ], 
                [
                    148200, 
                    [
                        {
                            "pitch": 85, 
                            "t0": 148200, 
                            "v": 104, 
                            "dur": 114, 
                            "type": "note", 
                            "channel": 4
                        }
                    ]
                ], 
                [
                    148320, 
                    [
                        {
                            "pitch": 36, 
                            "t0": 148320, 
                            "v": 120, 
                            "dur": 54, 
                            "type": "note", 
                            "channel": 9
                        }, 
                        {
                            "pitch": 46, 
                            "t0": 148320, 
                            "v": 104, 
                            "dur": 54, 
                            "type": "note", 
                            "channel": 9
                        }, 
                        {
                            "pitch": 80, 
                            "t0": 148320, 
                            "v": 104, 
                            "dur": 114, 
                            "type": "note", 
                            "channel": 4
                        }, 
                        {
                            "pitch": 49, 
                            "t0": 148320, 
                            "v": 104, 
                            "dur": 216, 
                            "type": "note", 
                            "channel": 6
                        }, 
                        {
                            "pitch": 76, 
                            "t0": 148320, 
                            "parts": [
                                [
                                    148320, 
                                    120
                                ], 
                                [
                                    148440, 
                                    104
                                ], 
                                [
                                    148543, 
                                    0
                                ]
                            ], 
                            "v": 120, 
                            "dur": 223, 
                            "type": "note", 
                            "channel": 0
                        }, 
                        {
                            "pitch": 73, 
                            "t0": 148320, 
                            "v": 120, 
                            "dur": 446, 
                            "type": "note", 
                            "channel": 1
                        }
                    ]
                ], 
                [
                    148560, 
                    [
                        {
                            "pitch": 38, 
                            "t0": 148560, 
                            "v": 120, 
                            "dur": 54, 
                            "type": "note", 
                            "channel": 9
                        }, 
                        {
                            "pitch": 46, 
                            "t0": 148560, 
                            "v": 88, 
                            "dur": 54, 
                            "type": "note", 
                            "channel": 9
                        }, 
                        {
                            "pitch": 85, 
                            "t0": 148560, 
                            "v": 104, 
                            "dur": 114, 
                            "type": "note", 
                            "channel": 4
                        }, 
                        {
                            "pitch": 49, 
                            "t0": 148560, 
                            "v": 104, 
                            "dur": 216, 
                            "type": "note", 
                            "channel": 6
                        }, 
                        {
                            "pitch": 81, 
                            "t0": 148560, 
                            "v": 104, 
                            "dur": 223, 
                            "type": "note", 
                            "channel": 10
                        }, 
                        {
                            "pitch": 78, 
                            "t0": 148560, 
                            "v": 120, 
                            "dur": 223, 
                            "type": "note", 
                            "channel": 0
                        }
                    ]
                ], 
                [
                    148680, 
                    [
                        {
                            "pitch": 80, 
                            "t0": 148680, 
                            "v": 104, 
                            "dur": 114, 
                            "type": "note", 
                            "channel": 4
                        }
                    ]
                ], 
                [
                    148800, 
                    [
                        {
                            "pitch": 36, 
                            "t0": 148800, 
                            "v": 120, 
                            "dur": 54, 
                            "type": "note", 
                            "channel": 9
                        }, 
                        {
                            "pitch": 46, 
                            "t0": 148800, 
                            "v": 104, 
                            "dur": 54, 
                            "type": "note", 
                            "channel": 9
                        }, 
                        {
                            "pitch": 75, 
                            "t0": 148800, 
                            "v": 104, 
                            "dur": 114, 
                            "type": "note", 
                            "channel": 4
                        }, 
                        {
                            "pitch": 44, 
                            "t0": 148800, 
                            "v": 104, 
                            "dur": 216, 
                            "type": "note", 
                            "channel": 6
                        }, 
                        {
                            "pitch": 80, 
                            "t0": 148800, 
                            "v": 104, 
                            "dur": 223, 
                            "type": "note", 
                            "channel": 10
                        }, 
                        {
                            "pitch": 76, 
                            "t0": 148800, 
                            "v": 120, 
                            "dur": 223, 
                            "type": "note", 
                            "channel": 0
                        }, 
                        {
                            "pitch": 63, 
                            "t0": 148800, 
                            "v": 104, 
                            "dur": 456, 
                            "type": "note", 
                            "channel": 3
                        }, 
                        {
                            "pitch": 56, 
                            "t0": 148800, 
                            "v": 104, 
                            "dur": 456, 
                            "type": "note", 
                            "channel": 3
                        }, 
                        {
                            "pitch": 68, 
                            "t0": 148800, 
                            "v": 104, 
                            "dur": 465, 
                            "type": "note", 
                            "channel": 5
                        }, 
                        {
                            "pitch": 59, 
                            "t0": 148800, 
                            "v": 104, 
                            "dur": 945, 
                            "type": "note", 
                            "channel": 5
                        }
                    ]
                ], 
                [
                    148920, 
                    [
                        {
                            "pitch": 71, 
                            "t0": 148920, 
                            "v": 104, 
                            "dur": 114, 
                            "type": "note", 
                            "channel": 4
                        }
                    ]
                ], 
                [
                    149040, 
                    [
                        {
                            "pitch": 38, 
                            "t0": 149040, 
                            "v": 120, 
                            "dur": 54, 
                            "type": "note", 
                            "channel": 9
                        }, 
                        {
                            "pitch": 46, 
                            "t0": 149040, 
                            "v": 88, 
                            "dur": 54, 
                            "type": "note", 
                            "channel": 9
                        }, 
                        {
                            "pitch": 80, 
                            "t0": 149040, 
                            "v": 104, 
                            "dur": 114, 
                            "type": "note", 
                            "channel": 4
                        }, 
                        {
                            "pitch": 44, 
                            "t0": 149040, 
                            "v": 104, 
                            "dur": 216, 
                            "type": "note", 
                            "channel": 6
                        }, 
                        {
                            "pitch": 78, 
                            "t0": 149040, 
                            "v": 104, 
                            "dur": 223, 
                            "type": "note", 
                            "channel": 10
                        }, 
                        {
                            "pitch": 75, 
                            "t0": 149040, 
                            "parts": [
                                [
                                    149040, 
                                    120
                                ], 
                                [
                                    149160, 
                                    104
                                ], 
                                [
                                    149263, 
                                    0
                                ]
                            ], 
                            "v": 120, 
                            "dur": 223, 
                            "type": "note", 
                            "channel": 0
                        }
                    ]
                ], 
                [
                    149280, 
                    [
                        {
                            "pitch": 36, 
                            "t0": 149280, 
                            "v": 120, 
                            "dur": 54, 
                            "type": "note", 
                            "channel": 9
                        }, 
                        {
                            "pitch": 46, 
                            "t0": 149280, 
                            "v": 104, 
                            "dur": 54, 
                            "type": "note", 
                            "channel": 9
                        }, 
                        {
                            "pitch": 71, 
                            "t0": 149280, 
                            "parts": [
                                [
                                    149280, 
                                    120
                                ], 
                                [
                                    149280, 
                                    104
                                ], 
                                [
                                    149394, 
                                    0
                                ]
                            ], 
                            "v": 120, 
                            "dur": 114, 
                            "type": "note", 
                            "channel": 0
                        }, 
                        {
                            "pitch": 44, 
                            "t0": 149280, 
                            "v": 104, 
                            "dur": 216, 
                            "type": "note", 
                            "channel": 6
                        }, 
                        {
                            "pitch": 75, 
                            "t0": 149280, 
                            "v": 104, 
                            "dur": 223, 
                            "type": "note", 
                            "channel": 10
                        }, 
                        {
                            "pitch": 63, 
                            "t0": 149280, 
                            "v": 104, 
                            "dur": 456, 
                            "type": "note", 
                            "channel": 3
                        }, 
                        {
                            "pitch": 56, 
                            "t0": 149280, 
                            "v": 104, 
                            "dur": 456, 
                            "type": "note", 
                            "channel": 3
                        }, 
                        {
                            "pitch": 66, 
                            "t0": 149280, 
                            "v": 104, 
                            "dur": 465, 
                            "type": "note", 
                            "channel": 5
                        }
                    ]
                ], 
                [
                    149400, 
                    [
                        {
                            "pitch": 80, 
                            "t0": 149400, 
                            "v": 104, 
                            "dur": 114, 
                            "type": "note", 
                            "channel": 4
                        }
                    ]
                ], 
                [
                    149520, 
                    [
                        {
                            "pitch": 38, 
                            "t0": 149520, 
                            "v": 120, 
                            "dur": 54, 
                            "type": "note", 
                            "channel": 9
                        }, 
                        {
                            "pitch": 46, 
                            "t0": 149520, 
                            "v": 88, 
                            "dur": 54, 
                            "type": "note", 
                            "channel": 9
                        }, 
                        {
                            "pitch": 44, 
                            "t0": 149520, 
                            "v": 104, 
                            "dur": 216, 
                            "type": "note", 
                            "channel": 6
                        }, 
                        {
                            "pitch": 75, 
                            "t0": 149520, 
                            "v": 104, 
                            "dur": 223, 
                            "type": "note", 
                            "channel": 10
                        }, 
                        {
                            "pitch": 71, 
                            "t0": 149520, 
                            "v": 120, 
                            "dur": 223, 
                            "type": "note", 
                            "channel": 0
                        }
                    ]
                ], 
                [
                    149760, 
                    [
                        {
                            "pitch": 46, 
                            "t0": 149760, 
                            "v": 104, 
                            "dur": 54, 
                            "type": "note", 
                            "channel": 9
                        }, 
                        {
                            "pitch": 36, 
                            "t0": 149760, 
                            "v": 120, 
                            "dur": 54, 
                            "type": "note", 
                            "channel": 9
                        }, 
                        {
                            "pitch": 81, 
                            "t0": 149760, 
                            "v": 104, 
                            "dur": 114, 
                            "type": "note", 
                            "channel": 4
                        }, 
                        {
                            "pitch": 45, 
                            "t0": 149760, 
                            "v": 104, 
                            "dur": 216, 
                            "type": "note", 
                            "channel": 6
                        }, 
                        {
                            "pitch": 69, 
                            "t0": 149760, 
                            "v": 120, 
                            "dur": 223, 
                            "type": "note", 
                            "channel": 0
                        }, 
                        {
                            "pitch": 73, 
                            "t0": 149760, 
                            "parts": [
                                [
                                    149760, 
                                    104
                                ], 
                                [
                                    150000, 
                                    104
                                ], 
                                [
                                    150114, 
                                    0
                                ]
                            ], 
                            "v": 104, 
                            "dur": 354, 
                            "type": "note", 
                            "channel": 10
                        }, 
                        {
                            "pitch": 64, 
                            "t0": 149760, 
                            "v": 104, 
                            "dur": 456, 
                            "type": "note", 
                            "channel": 3
                        }, 
                        {
                            "pitch": 57, 
                            "t0": 149760, 
                            "v": 104, 
                            "dur": 456, 
                            "type": "note", 
                            "channel": 3
                        }, 
                        {
                            "pitch": 61, 
                            "t0": 149760, 
                            "v": 104, 
                            "dur": 952, 
                            "type": "note", 
                            "channel": 5
                        }
                    ]
                ], 
                [
                    149880, 
                    [
                        {
                            "pitch": 76, 
                            "t0": 149880, 
                            "v": 104, 
                            "dur": 114, 
                            "type": "note", 
                            "channel": 4
                        }
                    ]
                ], 
                [
                    150000, 
                    [
                        {
                            "pitch": 38, 
                            "t0": 150000, 
                            "v": 120, 
                            "dur": 54, 
                            "type": "note", 
                            "channel": 9
                        }, 
                        {
                            "pitch": 46, 
                            "t0": 150000, 
                            "v": 88, 
                            "dur": 54, 
                            "type": "note", 
                            "channel": 9
                        }, 
                        {
                            "pitch": 69, 
                            "t0": 150000, 
                            "v": 120, 
                            "dur": 206, 
                            "type": "note", 
                            "channel": 1
                        }, 
                        {
                            "pitch": 45, 
                            "t0": 150000, 
                            "v": 104, 
                            "dur": 216, 
                            "type": "note", 
                            "channel": 6
                        }
                    ]
                ], 
                [
                    150120, 
                    [
                        {
                            "pitch": 81, 
                            "t0": 150120, 
                            "v": 104, 
                            "dur": 114, 
                            "type": "note", 
                            "channel": 4
                        }
                    ]
                ], 
                [
                    150240, 
                    [
                        {
                            "pitch": 36, 
                            "t0": 150240, 
                            "v": 120, 
                            "dur": 54, 
                            "type": "note", 
                            "channel": 9
                        }, 
                        {
                            "pitch": 46, 
                            "t0": 150240, 
                            "v": 104, 
                            "dur": 54, 
                            "type": "note", 
                            "channel": 9
                        }, 
                        {
                            "pitch": 76, 
                            "t0": 150240, 
                            "v": 104, 
                            "dur": 114, 
                            "type": "note", 
                            "channel": 4
                        }, 
                        {
                            "pitch": 45, 
                            "t0": 150240, 
                            "v": 104, 
                            "dur": 216, 
                            "type": "note", 
                            "channel": 6
                        }, 
                        {
                            "pitch": 73, 
                            "t0": 150240, 
                            "parts": [
                                [
                                    150240, 
                                    104
                                ], 
                                [
                                    150360, 
                                    104
                                ], 
                                [
                                    150463, 
                                    0
                                ]
                            ], 
                            "v": 104, 
                            "dur": 223, 
                            "type": "note", 
                            "channel": 10
                        }, 
                        {
                            "pitch": 69, 
                            "t0": 150240, 
                            "v": 120, 
                            "dur": 223, 
                            "type": "note", 
                            "channel": 0
                        }, 
                        {
                            "pitch": 57, 
                            "t0": 150240, 
                            "v": 104, 
                            "dur": 456, 
                            "type": "note", 
                            "channel": 3
                        }, 
                        {
                            "pitch": 64, 
                            "t0": 150240, 
                            "v": 104, 
                            "dur": 456, 
                            "type": "note", 
                            "channel": 3
                        }
                    ]
                ], 
                [
                    150480, 
                    [
                        {
                            "pitch": 38, 
                            "t0": 150480, 
                            "v": 120, 
                            "dur": 54, 
                            "type": "note", 
                            "channel": 9
                        }, 
                        {
                            "pitch": 46, 
                            "t0": 150480, 
                            "v": 88, 
                            "dur": 54, 
                            "type": "note", 
                            "channel": 9
                        }, 
                        {
                            "pitch": 81, 
                            "t0": 150480, 
                            "v": 104, 
                            "dur": 114, 
                            "type": "note", 
                            "channel": 4
                        }, 
                        {
                            "pitch": 45, 
                            "t0": 150480, 
                            "v": 104, 
                            "dur": 216, 
                            "type": "note", 
                            "channel": 6
                        }, 
                        {
                            "pitch": 75, 
                            "t0": 150480, 
                            "v": 104, 
                            "dur": 223, 
                            "type": "note", 
                            "channel": 10
                        }, 
                        {
                            "pitch": 69, 
                            "t0": 150480, 
                            "v": 120, 
                            "dur": 223, 
                            "type": "note", 
                            "channel": 1
                        }, 
                        {
                            "pitch": 71, 
                            "t0": 150480, 
                            "v": 120, 
                            "dur": 223, 
                            "type": "note", 
                            "channel": 0
                        }
                    ]
                ], 
                [
                    150600, 
                    [
                        {
                            "pitch": 76, 
                            "t0": 150600, 
                            "v": 104, 
                            "dur": 114, 
                            "type": "note", 
                            "channel": 4
                        }
                    ]
                ], 
                [
                    150720, 
                    [
                        {
                            "pitch": 36, 
                            "t0": 150720, 
                            "v": 120, 
                            "dur": 54, 
                            "type": "note", 
                            "channel": 9
                        }, 
                        {
                            "pitch": 46, 
                            "t0": 150720, 
                            "v": 104, 
                            "dur": 54, 
                            "type": "note", 
                            "channel": 9
                        }, 
                        {
                            "pitch": 83, 
                            "t0": 150720, 
                            "v": 104, 
                            "dur": 114, 
                            "type": "note", 
                            "channel": 4
                        }, 
                        {
                            "pitch": 47, 
                            "t0": 150720, 
                            "v": 104, 
                            "dur": 216, 
                            "type": "note", 
                            "channel": 6
                        }, 
                        {
                            "pitch": 71, 
                            "t0": 150720, 
                            "parts": [
                                [
                                    150720, 
                                    120
                                ], 
                                [
                                    150720, 
                                    104
                                ], 
                                [
                                    150943, 
                                    0
                                ]
                            ], 
                            "v": 120, 
                            "dur": 223, 
                            "type": "note", 
                            "channel": 1
                        }, 
                        {
                            "pitch": 66, 
                            "t0": 150720, 
                            "parts": [
                                [
                                    150720, 
                                    120
                                ], 
                                [
                                    150720, 
                                    104
                                ], 
                                [
                                    150943, 
                                    0
                                ]
                            ], 
                            "v": 120, 
                            "dur": 223, 
                            "type": "note", 
                            "channel": 0
                        }, 
                        {
                            "pitch": 59, 
                            "t0": 150720, 
                            "v": 104, 
                            "dur": 456, 
                            "type": "note", 
                            "channel": 3
                        }, 
                        {
                            "pitch": 63, 
                            "t0": 150720, 
                            "v": 104, 
                            "dur": 952, 
                            "type": "note", 
                            "channel": 5
                        }
                    ]
                ], 
                [
                    150840, 
                    [
                        {
                            "pitch": 78, 
                            "t0": 150840, 
                            "v": 104, 
                            "dur": 114, 
                            "type": "note", 
                            "channel": 4
                        }
                    ]
                ], 
                [
                    150960, 
                    [
                        {
                            "pitch": 38, 
                            "t0": 150960, 
                            "v": 120, 
                            "dur": 54, 
                            "type": "note", 
                            "channel": 9
                        }, 
                        {
                            "pitch": 46, 
                            "t0": 150960, 
                            "v": 88, 
                            "dur": 54, 
                            "type": "note", 
                            "channel": 9
                        }, 
                        {
                            "pitch": 75, 
                            "t0": 150960, 
                            "v": 104, 
                            "dur": 114, 
                            "type": "note", 
                            "channel": 4
                        }, 
                        {
                            "pitch": 47, 
                            "t0": 150960, 
                            "v": 104, 
                            "dur": 216, 
                            "type": "note", 
                            "channel": 6
                        }, 
                        {
                            "pitch": 71, 
                            "t0": 150960, 
                            "v": 120, 
                            "dur": 223, 
                            "type": "note", 
                            "channel": 0
                        }
                    ]
                ], 
                [
                    151080, 
                    [
                        {
                            "pitch": 83, 
                            "t0": 151080, 
                            "v": 104, 
                            "dur": 114, 
                            "type": "note", 
                            "channel": 4
                        }
                    ]
                ], 
                [
                    151200, 
                    [
                        {
                            "pitch": 36, 
                            "t0": 151200, 
                            "v": 120, 
                            "dur": 54, 
                            "type": "note", 
                            "channel": 9
                        }, 
                        {
                            "pitch": 46, 
                            "t0": 151200, 
                            "v": 104, 
                            "dur": 54, 
                            "type": "note", 
                            "channel": 9
                        }, 
                        {
                            "pitch": 78, 
                            "t0": 151200, 
                            "v": 104, 
                            "dur": 114, 
                            "type": "note", 
                            "channel": 4
                        }, 
                        {
                            "pitch": 47, 
                            "t0": 151200, 
                            "v": 104, 
                            "dur": 216, 
                            "type": "note", 
                            "channel": 6
                        }, 
                        {
                            "pitch": 75, 
                            "t0": 151200, 
                            "parts": [
                                [
                                    151200, 
                                    104
                                ], 
                                [
                                    151320, 
                                    104
                                ], 
                                [
                                    151423, 
                                    0
                                ]
                            ], 
                            "v": 104, 
                            "dur": 223, 
                            "type": "note", 
                            "channel": 10
                        }, 
                        {
                            "pitch": 71, 
                            "t0": 151200, 
                            "v": 120, 
                            "dur": 223, 
                            "type": "note", 
                            "channel": 1
                        }, 
                        {
                            "pitch": 68, 
                            "t0": 151200, 
                            "v": 120, 
                            "dur": 223, 
                            "type": "note", 
                            "channel": 0
                        }, 
                        {
                            "pitch": 66, 
                            "t0": 151200, 
                            "v": 104, 
                            "dur": 456, 
                            "type": "note", 
                            "channel": 3
                        }, 
                        {
                            "pitch": 59, 
                            "t0": 151200, 
                            "v": 104, 
                            "dur": 456, 
                            "type": "note", 
                            "channel": 3
                        }
                    ]
                ], 
                [
                    151440, 
                    [
                        {
                            "pitch": 38, 
                            "t0": 151440, 
                            "v": 120, 
                            "dur": 54, 
                            "type": "note", 
                            "channel": 9
                        }, 
                        {
                            "pitch": 46, 
                            "t0": 151440, 
                            "v": 88, 
                            "dur": 54, 
                            "type": "note", 
                            "channel": 9
                        }, 
                        {
                            "pitch": 47, 
                            "t0": 151440, 
                            "v": 104, 
                            "dur": 216, 
                            "type": "note", 
                            "channel": 6
                        }, 
                        {
                            "pitch": 78, 
                            "t0": 151440, 
                            "v": 104, 
                            "dur": 223, 
                            "type": "note", 
                            "channel": 10
                        }, 
                        {
                            "pitch": 71, 
                            "t0": 151440, 
                            "v": 120, 
                            "dur": 223, 
                            "type": "note", 
                            "channel": 0
                        }, 
                        {
                            "pitch": 83, 
                            "t0": 151440, 
                            "v": 104, 
                            "dur": 228, 
                            "type": "note", 
                            "channel": 4
                        }
                    ]
                ], 
                [
                    151680, 
                    [
                        {
                            "pitch": 46, 
                            "t0": 151680, 
                            "v": 104, 
                            "dur": 54, 
                            "type": "note", 
                            "channel": 9
                        }, 
                        {
                            "pitch": 36, 
                            "t0": 151680, 
                            "v": 120, 
                            "dur": 54, 
                            "type": "note", 
                            "channel": 9
                        }, 
                        {
                            "pitch": 83, 
                            "t0": 151680, 
                            "v": 104, 
                            "dur": 114, 
                            "type": "note", 
                            "channel": 4
                        }, 
                        {
                            "pitch": 40, 
                            "t0": 151680, 
                            "v": 104, 
                            "dur": 216, 
                            "type": "note", 
                            "channel": 6
                        }, 
                        {
                            "pitch": 76, 
                            "t0": 151680, 
                            "parts": [
                                [
                                    151680, 
                                    104
                                ], 
                                [
                                    151920, 
                                    104
                                ], 
                                [
                                    152034, 
                                    0
                                ]
                            ], 
                            "v": 104, 
                            "dur": 354, 
                            "type": "note", 
                            "channel": 10
                        }, 
                        {
                            "pitch": 68, 
                            "t0": 151680, 
                            "parts": [
                                [
                                    151680, 
                                    120
                                ], 
                                [
                                    151680, 
                                    104
                                ], 
                                [
                                    152126, 
                                    0
                                ]
                            ], 
                            "v": 120, 
                            "dur": 446, 
                            "type": "note", 
                            "channel": 0
                        }, 
                        {
                            "pitch": 71, 
                            "t0": 151680, 
                            "v": 104, 
                            "dur": 912, 
                            "type": "note", 
                            "channel": 3
                        }, 
                        {
                            "pitch": 64, 
                            "t0": 151680, 
                            "v": 104, 
                            "dur": 912, 
                            "type": "note", 
                            "channel": 3
                        }, 
                        {
                            "pitch": 59, 
                            "t0": 151680, 
                            "v": 104, 
                            "dur": 952, 
                            "type": "note", 
                            "channel": 5
                        }
                    ]
                ], 
                [
                    151800, 
                    [
                        {
                            "pitch": 80, 
                            "t0": 151800, 
                            "v": 104, 
                            "dur": 114, 
                            "type": "note", 
                            "channel": 4
                        }
                    ]
                ], 
                [
                    151920, 
                    [
                        {
                            "pitch": 46, 
                            "t0": 151920, 
                            "v": 88, 
                            "dur": 54, 
                            "type": "note", 
                            "channel": 9
                        }, 
                        {
                            "pitch": 38, 
                            "t0": 151920, 
                            "v": 120, 
                            "dur": 54, 
                            "type": "note", 
                            "channel": 9
                        }, 
                        {
                            "pitch": 40, 
                            "t0": 151920, 
                            "v": 104, 
                            "dur": 216, 
                            "type": "note", 
                            "channel": 6
                        }
                    ]
                ], 
                [
                    152040, 
                    [
                        {
                            "pitch": 83, 
                            "t0": 152040, 
                            "v": 104, 
                            "dur": 114, 
                            "type": "note", 
                            "channel": 4
                        }
                    ]
                ], 
                [
                    152160, 
                    [
                        {
                            "pitch": 46, 
                            "t0": 152160, 
                            "v": 104, 
                            "dur": 54, 
                            "type": "note", 
                            "channel": 9
                        }, 
                        {
                            "pitch": 36, 
                            "t0": 152160, 
                            "v": 120, 
                            "dur": 54, 
                            "type": "note", 
                            "channel": 9
                        }, 
                        {
                            "pitch": 80, 
                            "t0": 152160, 
                            "v": 104, 
                            "dur": 114, 
                            "type": "note", 
                            "channel": 4
                        }, 
                        {
                            "pitch": 40, 
                            "t0": 152160, 
                            "v": 104, 
                            "dur": 216, 
                            "type": "note", 
                            "channel": 6
                        }, 
                        {
                            "pitch": 68, 
                            "t0": 152160, 
                            "v": 120, 
                            "dur": 412, 
                            "type": "note", 
                            "channel": 1
                        }
                    ]
                ], 
                [
                    152280, 
                    [
                        {
                            "pitch": 76, 
                            "t0": 152280, 
                            "v": 104, 
                            "dur": 114, 
                            "type": "note", 
                            "channel": 4
                        }
                    ]
                ], 
                [
                    152400, 
                    [
                        {
                            "pitch": 46, 
                            "t0": 152400, 
                            "v": 88, 
                            "dur": 54, 
                            "type": "note", 
                            "channel": 9
                        }, 
                        {
                            "pitch": 38, 
                            "t0": 152400, 
                            "v": 120, 
                            "dur": 54, 
                            "type": "note", 
                            "channel": 9
                        }, 
                        {
                            "pitch": 83, 
                            "t0": 152400, 
                            "v": 104, 
                            "dur": 114, 
                            "type": "note", 
                            "channel": 4
                        }, 
                        {
                            "pitch": 40, 
                            "t0": 152400, 
                            "v": 104, 
                            "dur": 216, 
                            "type": "note", 
                            "channel": 6
                        }
                    ]
                ], 
                [
                    152520, 
                    [
                        {
                            "pitch": 76, 
                            "t0": 152520, 
                            "v": 104, 
                            "dur": 52, 
                            "type": "note", 
                            "channel": 4
                        }
                    ]
                ], 
                [
                    152640, 
                    [
                        {
                            "pitch": 46, 
                            "t0": 152640, 
                            "v": 104, 
                            "dur": 54, 
                            "type": "note", 
                            "channel": 9
                        }, 
                        {
                            "pitch": 36, 
                            "t0": 152640, 
                            "v": 120, 
                            "dur": 54, 
                            "type": "note", 
                            "channel": 9
                        }, 
                        {
                            "pitch": 83, 
                            "t0": 152640, 
                            "v": 104, 
                            "dur": 114, 
                            "type": "note", 
                            "channel": 4
                        }, 
                        {
                            "pitch": 47, 
                            "t0": 152640, 
                            "v": 104, 
                            "dur": 216, 
                            "type": "note", 
                            "channel": 6
                        }, 
                        {
                            "pitch": 66, 
                            "t0": 152640, 
                            "parts": [
                                [
                                    152640, 
                                    120
                                ], 
                                [
                                    152640, 
                                    104
                                ], 
                                [
                                    152868, 
                                    0
                                ]
                            ], 
                            "v": 120, 
                            "dur": 228, 
                            "type": "note", 
                            "channel": 1
                        }, 
                        {
                            "pitch": 59, 
                            "t0": 152640, 
                            "v": 104, 
                            "dur": 228, 
                            "type": "note", 
                            "channel": 3
                        }, 
                        {
                            "pitch": 63, 
                            "t0": 152640, 
                            "v": 104, 
                            "dur": 952, 
                            "type": "note", 
                            "channel": 5
                        }
                    ]
                ], 
                [
                    152760, 
                    [
                        {
                            "pitch": 78, 
                            "t0": 152760, 
                            "v": 104, 
                            "dur": 114, 
                            "type": "note", 
                            "channel": 4
                        }
                    ]
                ], 
                [
                    152880, 
                    [
                        {
                            "pitch": 46, 
                            "t0": 152880, 
                            "v": 88, 
                            "dur": 54, 
                            "type": "note", 
                            "channel": 9
                        }, 
                        {
                            "pitch": 38, 
                            "t0": 152880, 
                            "v": 120, 
                            "dur": 54, 
                            "type": "note", 
                            "channel": 9
                        }, 
                        {
                            "pitch": 75, 
                            "t0": 152880, 
                            "v": 104, 
                            "dur": 114, 
                            "type": "note", 
                            "channel": 4
                        }, 
                        {
                            "pitch": 66, 
                            "t0": 152880, 
                            "v": 104, 
                            "dur": 206, 
                            "type": "note", 
                            "channel": 3
                        }, 
                        {
                            "pitch": 51, 
                            "t0": 152880, 
                            "v": 104, 
                            "dur": 216, 
                            "type": "note", 
                            "channel": 6
                        }, 
                        {
                            "pitch": 59, 
                            "t0": 152880, 
                            "v": 104, 
                            "dur": 228, 
                            "type": "note", 
                            "channel": 3
                        }
                    ]
                ], 
                [
                    153000, 
                    [
                        {
                            "pitch": 83, 
                            "t0": 153000, 
                            "v": 104, 
                            "dur": 114, 
                            "type": "note", 
                            "channel": 4
                        }
                    ]
                ], 
                [
                    153120, 
                    [
                        {
                            "pitch": 46, 
                            "t0": 153120, 
                            "v": 104, 
                            "dur": 54, 
                            "type": "note", 
                            "channel": 9
                        }, 
                        {
                            "pitch": 36, 
                            "t0": 153120, 
                            "v": 120, 
                            "dur": 54, 
                            "type": "note", 
                            "channel": 9
                        }, 
                        {
                            "pitch": 52, 
                            "t0": 153120, 
                            "v": 104, 
                            "dur": 216, 
                            "type": "note", 
                            "channel": 6
                        }, 
                        {
                            "pitch": 71, 
                            "t0": 153120, 
                            "parts": [
                                [
                                    153120, 
                                    120
                                ], 
                                [
                                    153120, 
                                    104
                                ], 
                                [
                                    153343, 
                                    0
                                ]
                            ], 
                            "v": 120, 
                            "dur": 223, 
                            "type": "note", 
                            "channel": 0
                        }, 
                        {
                            "pitch": 78, 
                            "t0": 153120, 
                            "v": 104, 
                            "dur": 456, 
                            "type": "note", 
                            "channel": 4
                        }, 
                        {
                            "pitch": 66, 
                            "t0": 153120, 
                            "v": 104, 
                            "dur": 456, 
                            "type": "note", 
                            "channel": 3
                        }, 
                        {
                            "pitch": 59, 
                            "t0": 153120, 
                            "v": 104, 
                            "dur": 456, 
                            "type": "note", 
                            "channel": 3
                        }
                    ]
                ], 
                [
                    153200, 
                    [
                        {
                            "pitch": 38, 
                            "t0": 153200, 
                            "v": 104, 
                            "dur": 54, 
                            "type": "note", 
                            "channel": 9
                        }
                    ]
                ], 
                [
                    153280, 
                    [
                        {
                            "pitch": 38, 
                            "t0": 153280, 
                            "v": 104, 
                            "dur": 54, 
                            "type": "note", 
                            "channel": 9
                        }
                    ]
                ], 
                [
                    153360, 
                    [
                        {
                            "pitch": 38, 
                            "t0": 153360, 
                            "v": 104, 
                            "dur": 54, 
                            "type": "note", 
                            "channel": 9
                        }, 
                        {
                            "pitch": 54, 
                            "t0": 153360, 
                            "v": 104, 
                            "dur": 216, 
                            "type": "note", 
                            "channel": 6
                        }, 
                        {
                            "pitch": 75, 
                            "t0": 153360, 
                            "parts": [
                                [
                                    153360, 
                                    120
                                ], 
                                [
                                    153360, 
                                    104
                                ], 
                                [
                                    153583, 
                                    0
                                ]
                            ], 
                            "v": 120, 
                            "dur": 223, 
                            "type": "note", 
                            "channel": 0
                        }, 
                        {
                            "pitch": 71, 
                            "t0": 153360, 
                            "v": 120, 
                            "dur": 223, 
                            "type": "note", 
                            "channel": 1
                        }
                    ]
                ], 
                [
                    153440, 
                    [
                        {
                            "pitch": 38, 
                            "t0": 153440, 
                            "v": 104, 
                            "dur": 54, 
                            "type": "note", 
                            "channel": 9
                        }
                    ]
                ], 
                [
                    153520, 
                    [
                        {
                            "pitch": 38, 
                            "t0": 153520, 
                            "v": 104, 
                            "dur": 54, 
                            "type": "note", 
                            "channel": 9
                        }
                    ]
                ], 
                [
                    153600, 
                    [
                        {
                            "pitch": 36, 
                            "t0": 153600, 
                            "v": 120, 
                            "dur": 54, 
                            "type": "note", 
                            "channel": 9
                        }, 
                        {
                            "pitch": 49, 
                            "t0": 153600, 
                            "v": 120, 
                            "dur": 54, 
                            "type": "note", 
                            "channel": 9
                        }, 
                        {
                            "pitch": 40, 
                            "t0": 153600, 
                            "v": 104, 
                            "dur": 216, 
                            "type": "note", 
                            "channel": 6
                        }, 
                        {
                            "pitch": 80, 
                            "t0": 153600, 
                            "v": 104, 
                            "dur": 223, 
                            "type": "note", 
                            "channel": 4
                        }, 
                        {
                            "pitch": 76, 
                            "t0": 153600, 
                            "parts": [
                                [
                                    153600, 
                                    120
                                ], 
                                [
                                    153600, 
                                    104
                                ], 
                                [
                                    153823, 
                                    0
                                ]
                            ], 
                            "v": 120, 
                            "dur": 223, 
                            "type": "note", 
                            "channel": 0
                        }, 
                        {
                            "pitch": 83, 
                            "t0": 153600, 
                            "v": 104, 
                            "dur": 228, 
                            "type": "note", 
                            "channel": 4
                        }, 
                        {
                            "pitch": 52, 
                            "t0": 153600, 
                            "v": 104, 
                            "dur": 456, 
                            "type": "note", 
                            "channel": 3
                        }, 
                        {
                            "pitch": 59, 
                            "t0": 153600, 
                            "v": 104, 
                            "dur": 456, 
                            "type": "note", 
                            "channel": 3
                        }, 
                        {
                            "pitch": 95, 
                            "t0": 153600, 
                            "v": 104, 
                            "dur": 952, 
                            "type": "note", 
                            "channel": 5
                        }, 
                        {
                            "pitch": 71, 
                            "t0": 153600, 
                            "v": 104, 
                            "dur": 952, 
                            "type": "note", 
                            "channel": 5
                        }, 
                        {
                            "pitch": 64, 
                            "t0": 153600, 
                            "v": 104, 
                            "dur": 952, 
                            "type": "note", 
                            "channel": 5
                        }, 
                        {
                            "pitch": 68, 
                            "t0": 153600, 
                            "v": 104, 
                            "dur": 952, 
                            "type": "note", 
                            "channel": 5
                        }
                    ]
                ], 
                [
                    153840, 
                    [
                        {
                            "pitch": 38, 
                            "t0": 153840, 
                            "v": 120, 
                            "dur": 54, 
                            "type": "note", 
                            "channel": 9
                        }, 
                        {
                            "pitch": 46, 
                            "t0": 153840, 
                            "v": 88, 
                            "dur": 54, 
                            "type": "note", 
                            "channel": 9
                        }, 
                        {
                            "pitch": 40, 
                            "t0": 153840, 
                            "v": 104, 
                            "dur": 216, 
                            "type": "note", 
                            "channel": 6
                        }, 
                        {
                            "pitch": 80, 
                            "t0": 153840, 
                            "v": 104, 
                            "dur": 223, 
                            "type": "note", 
                            "channel": 4
                        }, 
                        {
                            "pitch": 76, 
                            "t0": 153840, 
                            "parts": [
                                [
                                    153840, 
                                    120
                                ], 
                                [
                                    153840, 
                                    104
                                ], 
                                [
                                    154063, 
                                    0
                                ]
                            ], 
                            "v": 120, 
                            "dur": 223, 
                            "type": "note", 
                            "channel": 0
                        }, 
                        {
                            "pitch": 83, 
                            "t0": 153840, 
                            "v": 104, 
                            "dur": 228, 
                            "type": "note", 
                            "channel": 4
                        }
                    ]
                ], 
                [
                    154080, 
                    [
                        {
                            "pitch": 36, 
                            "t0": 154080, 
                            "v": 120, 
                            "dur": 54, 
                            "type": "note", 
                            "channel": 9
                        }, 
                        {
                            "pitch": 46, 
                            "t0": 154080, 
                            "v": 104, 
                            "dur": 54, 
                            "type": "note", 
                            "channel": 9
                        }, 
                        {
                            "pitch": 40, 
                            "t0": 154080, 
                            "v": 104, 
                            "dur": 216, 
                            "type": "note", 
                            "channel": 6
                        }, 
                        {
                            "pitch": 80, 
                            "t0": 154080, 
                            "v": 104, 
                            "dur": 223, 
                            "type": "note", 
                            "channel": 4
                        }, 
                        {
                            "pitch": 76, 
                            "t0": 154080, 
                            "parts": [
                                [
                                    154080, 
                                    120
                                ], 
                                [
                                    154080, 
                                    104
                                ], 
                                [
                                    154303, 
                                    0
                                ]
                            ], 
                            "v": 120, 
                            "dur": 223, 
                            "type": "note", 
                            "channel": 0
                        }, 
                        {
                            "pitch": 52, 
                            "t0": 154080, 
                            "v": 104, 
                            "dur": 228, 
                            "type": "note", 
                            "channel": 3
                        }, 
                        {
                            "pitch": 83, 
                            "t0": 154080, 
                            "v": 104, 
                            "dur": 456, 
                            "type": "note", 
                            "channel": 4
                        }
                    ]
                ], 
                [
                    154320, 
                    [
                        {
                            "pitch": 38, 
                            "t0": 154320, 
                            "v": 120, 
                            "dur": 54, 
                            "type": "note", 
                            "channel": 9
                        }, 
                        {
                            "pitch": 46, 
                            "t0": 154320, 
                            "v": 88, 
                            "dur": 54, 
                            "type": "note", 
                            "channel": 9
                        }, 
                        {
                            "pitch": 40, 
                            "t0": 154320, 
                            "v": 104, 
                            "dur": 216, 
                            "type": "note", 
                            "channel": 6
                        }, 
                        {
                            "pitch": 80, 
                            "t0": 154320, 
                            "v": 104, 
                            "dur": 216, 
                            "type": "note", 
                            "channel": 10
                        }, 
                        {
                            "pitch": 78, 
                            "t0": 154320, 
                            "v": 120, 
                            "dur": 223, 
                            "type": "note", 
                            "channel": 0
                        }, 
                        {
                            "pitch": 54, 
                            "t0": 154320, 
                            "v": 104, 
                            "dur": 228, 
                            "type": "note", 
                            "channel": 3
                        }
                    ]
                ], 
                [
                    154560, 
                    [
                        {
                            "pitch": 36, 
                            "t0": 154560, 
                            "v": 120, 
                            "dur": 54, 
                            "type": "note", 
                            "channel": 9
                        }, 
                        {
                            "pitch": 46, 
                            "t0": 154560, 
                            "v": 104, 
                            "dur": 54, 
                            "type": "note", 
                            "channel": 9
                        }, 
                        {
                            "pitch": 47, 
                            "t0": 154560, 
                            "v": 104, 
                            "dur": 216, 
                            "type": "note", 
                            "channel": 6
                        }, 
                        {
                            "pitch": 78, 
                            "t0": 154560, 
                            "v": 104, 
                            "dur": 223, 
                            "type": "note", 
                            "channel": 4
                        }, 
                        {
                            "pitch": 76, 
                            "t0": 154560, 
                            "v": 120, 
                            "dur": 223, 
                            "type": "note", 
                            "channel": 0
                        }, 
                        {
                            "pitch": 83, 
                            "t0": 154560, 
                            "v": 104, 
                            "dur": 228, 
                            "type": "note", 
                            "channel": 4
                        }, 
                        {
                            "pitch": 75, 
                            "t0": 154560, 
                            "v": 104, 
                            "dur": 228, 
                            "type": "note", 
                            "channel": 4
                        }, 
                        {
                            "pitch": 59, 
                            "t0": 154560, 
                            "v": 104, 
                            "dur": 456, 
                            "type": "note", 
                            "channel": 3
                        }, 
                        {
                            "pitch": 66, 
                            "t0": 154560, 
                            "v": 104, 
                            "dur": 456, 
                            "type": "note", 
                            "channel": 3
                        }, 
                        {
                            "pitch": 71, 
                            "t0": 154560, 
                            "parts": [
                                [
                                    154560, 
                                    104
                                ], 
                                [
                                    155040, 
                                    120
                                ], 
                                [
                                    155263, 
                                    0
                                ]
                            ], 
                            "v": 104, 
                            "dur": 703, 
                            "type": "note", 
                            "channel": 5
                        }, 
                        {
                            "pitch": 95, 
                            "t0": 154560, 
                            "v": 104, 
                            "dur": 952, 
                            "type": "note", 
                            "channel": 5
                        }, 
                        {
                            "pitch": 63, 
                            "t0": 154560, 
                            "v": 104, 
                            "dur": 952, 
                            "type": "note", 
                            "channel": 5
                        }
                    ]
                ], 
                [
                    154800, 
                    [
                        {
                            "pitch": 38, 
                            "t0": 154800, 
                            "v": 120, 
                            "dur": 54, 
                            "type": "note", 
                            "channel": 9
                        }, 
                        {
                            "pitch": 46, 
                            "t0": 154800, 
                            "v": 88, 
                            "dur": 54, 
                            "type": "note", 
                            "channel": 9
                        }, 
                        {
                            "pitch": 47, 
                            "t0": 154800, 
                            "v": 104, 
                            "dur": 216, 
                            "type": "note", 
                            "channel": 6
                        }, 
                        {
                            "pitch": 78, 
                            "t0": 154800, 
                            "v": 104, 
                            "dur": 223, 
                            "type": "note", 
                            "channel": 4
                        }, 
                        {
                            "pitch": 75, 
                            "t0": 154800, 
                            "parts": [
                                [
                                    154800, 
                                    120
                                ], 
                                [
                                    154800, 
                                    104
                                ], 
                                [
                                    155023, 
                                    0
                                ]
                            ], 
                            "v": 120, 
                            "dur": 223, 
                            "type": "note", 
                            "channel": 0
                        }, 
                        {
                            "pitch": 83, 
                            "t0": 154800, 
                            "v": 104, 
                            "dur": 228, 
                            "type": "note", 
                            "channel": 4
                        }
                    ]
                ], 
                [
                    155040, 
                    [
                        {
                            "pitch": 36, 
                            "t0": 155040, 
                            "v": 120, 
                            "dur": 54, 
                            "type": "note", 
                            "channel": 9
                        }, 
                        {
                            "pitch": 46, 
                            "t0": 155040, 
                            "v": 104, 
                            "dur": 54, 
                            "type": "note", 
                            "channel": 9
                        }, 
                        {
                            "pitch": 47, 
                            "t0": 155040, 
                            "v": 104, 
                            "dur": 216, 
                            "type": "note", 
                            "channel": 6
                        }, 
                        {
                            "pitch": 78, 
                            "t0": 155040, 
                            "v": 104, 
                            "dur": 223, 
                            "type": "note", 
                            "channel": 4
                        }, 
                        {
                            "pitch": 66, 
                            "t0": 155040, 
                            "v": 104, 
                            "dur": 228, 
                            "type": "note", 
                            "channel": 3
                        }, 
                        {
                            "pitch": 59, 
                            "t0": 155040, 
                            "v": 104, 
                            "dur": 228, 
                            "type": "note", 
                            "channel": 3
                        }, 
                        {
                            "pitch": 83, 
                            "t0": 155040, 
                            "v": 104, 
                            "dur": 456, 
                            "type": "note", 
                            "channel": 4
                        }, 
                        {
                            "pitch": 75, 
                            "t0": 155040, 
                            "parts": [
                                [
                                    155040, 
                                    104
                                ], 
                                [
                                    155280, 
                                    120
                                ], 
                                [
                                    155496, 
                                    0
                                ]
                            ], 
                            "v": 104, 
                            "dur": 456, 
                            "type": "note", 
                            "channel": 4
                        }
                    ]
                ], 
                [
                    155280, 
                    [
                        {
                            "pitch": 38, 
                            "t0": 155280, 
                            "v": 120, 
                            "dur": 54, 
                            "type": "note", 
                            "channel": 9
                        }, 
                        {
                            "pitch": 46, 
                            "t0": 155280, 
                            "v": 88, 
                            "dur": 54, 
                            "type": "note", 
                            "channel": 9
                        }, 
                        {
                            "pitch": 47, 
                            "t0": 155280, 
                            "v": 104, 
                            "dur": 216, 
                            "type": "note", 
                            "channel": 6
                        }, 
                        {
                            "pitch": 78, 
                            "t0": 155280, 
                            "v": 104, 
                            "dur": 216, 
                            "type": "note", 
                            "channel": 10
                        }, 
                        {
                            "pitch": 56, 
                            "t0": 155280, 
                            "v": 104, 
                            "dur": 228, 
                            "type": "note", 
                            "channel": 3
                        }
                    ]
                ], 
                [
                    155520, 
                    [
                        {
                            "pitch": 46, 
                            "t0": 155520, 
                            "v": 104, 
                            "dur": 54, 
                            "type": "note", 
                            "channel": 9
                        }, 
                        {
                            "pitch": 36, 
                            "t0": 155520, 
                            "v": 120, 
                            "dur": 54, 
                            "type": "note", 
                            "channel": 9
                        }, 
                        {
                            "pitch": 49, 
                            "t0": 155520, 
                            "v": 104, 
                            "dur": 216, 
                            "type": "note", 
                            "channel": 6
                        }, 
                        {
                            "pitch": 80, 
                            "t0": 155520, 
                            "v": 104, 
                            "dur": 223, 
                            "type": "note", 
                            "channel": 4
                        }, 
                        {
                            "pitch": 73, 
                            "t0": 155520, 
                            "v": 120, 
                            "dur": 223, 
                            "type": "note", 
                            "channel": 1
                        }, 
                        {
                            "pitch": 76, 
                            "t0": 155520, 
                            "parts": [
                                [
                                    155520, 
                                    120
                                ], 
                                [
                                    155520, 
                                    104
                                ], 
                                [
                                    155743, 
                                    0
                                ]
                            ], 
                            "v": 120, 
                            "dur": 223, 
                            "type": "note", 
                            "channel": 0
                        }, 
                        {
                            "pitch": 85, 
                            "t0": 155520, 
                            "v": 104, 
                            "dur": 228, 
                            "type": "note", 
                            "channel": 4
                        }, 
                        {
                            "pitch": 68, 
                            "t0": 155520, 
                            "v": 104, 
                            "dur": 456, 
                            "type": "note", 
                            "channel": 3
                        }, 
                        {
                            "pitch": 61, 
                            "t0": 155520, 
                            "v": 104, 
                            "dur": 456, 
                            "type": "note", 
                            "channel": 3
                        }, 
                        {
                            "pitch": 95, 
                            "t0": 155520, 
                            "v": 104, 
                            "dur": 952, 
                            "type": "note", 
                            "channel": 5
                        }, 
                        {
                            "pitch": 71, 
                            "t0": 155520, 
                            "v": 104, 
                            "dur": 952, 
                            "type": "note", 
                            "channel": 5
                        }, 
                        {
                            "pitch": 64, 
                            "t0": 155520, 
                            "v": 104, 
                            "dur": 952, 
                            "type": "note", 
                            "channel": 5
                        }
                    ]
                ], 
                [
                    155760, 
                    [
                        {
                            "pitch": 38, 
                            "t0": 155760, 
                            "v": 120, 
                            "dur": 54, 
                            "type": "note", 
                            "channel": 9
                        }, 
                        {
                            "pitch": 46, 
                            "t0": 155760, 
                            "v": 88, 
                            "dur": 54, 
                            "type": "note", 
                            "channel": 9
                        }, 
                        {
                            "pitch": 49, 
                            "t0": 155760, 
                            "v": 104, 
                            "dur": 216, 
                            "type": "note", 
                            "channel": 6
                        }, 
                        {
                            "pitch": 80, 
                            "t0": 155760, 
                            "v": 104, 
                            "dur": 223, 
                            "type": "note", 
                            "channel": 4
                        }, 
                        {
                            "pitch": 73, 
                            "t0": 155760, 
                            "v": 120, 
                            "dur": 223, 
                            "type": "note", 
                            "channel": 1
                        }, 
                        {
                            "pitch": 76, 
                            "t0": 155760, 
                            "parts": [
                                [
                                    155760, 
                                    120
                                ], 
                                [
                                    155760, 
                                    104
                                ], 
                                [
                                    155983, 
                                    0
                                ]
                            ], 
                            "v": 120, 
                            "dur": 223, 
                            "type": "note", 
                            "channel": 0
                        }, 
                        {
                            "pitch": 85, 
                            "t0": 155760, 
                            "v": 104, 
                            "dur": 228, 
                            "type": "note", 
                            "channel": 4
                        }
                    ]
                ], 
                [
                    156000, 
                    [
                        {
                            "pitch": 36, 
                            "t0": 156000, 
                            "v": 120, 
                            "dur": 54, 
                            "type": "note", 
                            "channel": 9
                        }, 
                        {
                            "pitch": 46, 
                            "t0": 156000, 
                            "v": 104, 
                            "dur": 54, 
                            "type": "note", 
                            "channel": 9
                        }, 
                        {
                            "pitch": 49, 
                            "t0": 156000, 
                            "v": 104, 
                            "dur": 216, 
                            "type": "note", 
                            "channel": 6
                        }, 
                        {
                            "pitch": 80, 
                            "t0": 156000, 
                            "v": 104, 
                            "dur": 223, 
                            "type": "note", 
                            "channel": 4
                        }, 
                        {
                            "pitch": 76, 
                            "t0": 156000, 
                            "parts": [
                                [
                                    156000, 
                                    120
                                ], 
                                [
                                    156000, 
                                    104
                                ], 
                                [
                                    156223, 
                                    0
                                ]
                            ], 
                            "v": 120, 
                            "dur": 223, 
                            "type": "note", 
                            "channel": 0
                        }, 
                        {
                            "pitch": 73, 
                            "t0": 156000, 
                            "v": 120, 
                            "dur": 446, 
                            "type": "note", 
                            "channel": 1
                        }, 
                        {
                            "pitch": 85, 
                            "t0": 156000, 
                            "v": 104, 
                            "dur": 456, 
                            "type": "note", 
                            "channel": 4
                        }, 
                        {
                            "pitch": 68, 
                            "t0": 156000, 
                            "v": 104, 
                            "dur": 456, 
                            "type": "note", 
                            "channel": 3
                        }, 
                        {
                            "pitch": 61, 
                            "t0": 156000, 
                            "v": 104, 
                            "dur": 456, 
                            "type": "note", 
                            "channel": 3
                        }
                    ]
                ], 
                [
                    156240, 
                    [
                        {
                            "pitch": 38, 
                            "t0": 156240, 
                            "v": 120, 
                            "dur": 54, 
                            "type": "note", 
                            "channel": 9
                        }, 
                        {
                            "pitch": 46, 
                            "t0": 156240, 
                            "v": 88, 
                            "dur": 54, 
                            "type": "note", 
                            "channel": 9
                        }, 
                        {
                            "pitch": 49, 
                            "t0": 156240, 
                            "v": 104, 
                            "dur": 216, 
                            "type": "note", 
                            "channel": 6
                        }, 
                        {
                            "pitch": 80, 
                            "t0": 156240, 
                            "v": 104, 
                            "dur": 216, 
                            "type": "note", 
                            "channel": 10
                        }, 
                        {
                            "pitch": 78, 
                            "t0": 156240, 
                            "v": 120, 
                            "dur": 223, 
                            "type": "note", 
                            "channel": 0
                        }
                    ]
                ], 
                [
                    156480, 
                    [
                        {
                            "pitch": 36, 
                            "t0": 156480, 
                            "v": 120, 
                            "dur": 54, 
                            "type": "note", 
                            "channel": 9
                        }, 
                        {
                            "pitch": 46, 
                            "t0": 156480, 
                            "v": 104, 
                            "dur": 54, 
                            "type": "note", 
                            "channel": 9
                        }, 
                        {
                            "pitch": 44, 
                            "t0": 156480, 
                            "v": 104, 
                            "dur": 216, 
                            "type": "note", 
                            "channel": 6
                        }, 
                        {
                            "pitch": 80, 
                            "t0": 156480, 
                            "v": 104, 
                            "dur": 223, 
                            "type": "note", 
                            "channel": 4
                        }, 
                        {
                            "pitch": 76, 
                            "t0": 156480, 
                            "v": 120, 
                            "dur": 223, 
                            "type": "note", 
                            "channel": 0
                        }, 
                        {
                            "pitch": 71, 
                            "t0": 156480, 
                            "v": 104, 
                            "dur": 228, 
                            "type": "note", 
                            "channel": 4
                        }, 
                        {
                            "pitch": 75, 
                            "t0": 156480, 
                            "v": 104, 
                            "dur": 228, 
                            "type": "note", 
                            "channel": 4
                        }, 
                        {
                            "pitch": 63, 
                            "t0": 156480, 
                            "v": 104, 
                            "dur": 456, 
                            "type": "note", 
                            "channel": 3
                        }, 
                        {
                            "pitch": 56, 
                            "t0": 156480, 
                            "v": 104, 
                            "dur": 456, 
                            "type": "note", 
                            "channel": 3
                        }, 
                        {
                            "pitch": 95, 
                            "t0": 156480, 
                            "v": 104, 
                            "dur": 952, 
                            "type": "note", 
                            "channel": 5
                        }, 
                        {
                            "pitch": 68, 
                            "t0": 156480, 
                            "v": 104, 
                            "dur": 952, 
                            "type": "note", 
                            "channel": 5
                        }
                    ]
                ], 
                [
                    156720, 
                    [
                        {
                            "pitch": 38, 
                            "t0": 156720, 
                            "v": 120, 
                            "dur": 54, 
                            "type": "note", 
                            "channel": 9
                        }, 
                        {
                            "pitch": 46, 
                            "t0": 156720, 
                            "v": 88, 
                            "dur": 54, 
                            "type": "note", 
                            "channel": 9
                        }, 
                        {
                            "pitch": 44, 
                            "t0": 156720, 
                            "v": 104, 
                            "dur": 216, 
                            "type": "note", 
                            "channel": 6
                        }, 
                        {
                            "pitch": 78, 
                            "t0": 156720, 
                            "v": 104, 
                            "dur": 223, 
                            "type": "note", 
                            "channel": 10
                        }, 
                        {
                            "pitch": 75, 
                            "t0": 156720, 
                            "parts": [
                                [
                                    156720, 
                                    120
                                ], 
                                [
                                    156720, 
                                    104
                                ], 
                                [
                                    156943, 
                                    0
                                ]
                            ], 
                            "v": 120, 
                            "dur": 223, 
                            "type": "note", 
                            "channel": 0
                        }, 
                        {
                            "pitch": 80, 
                            "t0": 156720, 
                            "v": 104, 
                            "dur": 228, 
                            "type": "note", 
                            "channel": 4
                        }, 
                        {
                            "pitch": 71, 
                            "t0": 156720, 
                            "v": 104, 
                            "dur": 228, 
                            "type": "note", 
                            "channel": 4
                        }
                    ]
                ], 
                [
                    156960, 
                    [
                        {
                            "pitch": 36, 
                            "t0": 156960, 
                            "v": 120, 
                            "dur": 54, 
                            "type": "note", 
                            "channel": 9
                        }, 
                        {
                            "pitch": 46, 
                            "t0": 156960, 
                            "v": 104, 
                            "dur": 54, 
                            "type": "note", 
                            "channel": 9
                        }, 
                        {
                            "pitch": 44, 
                            "t0": 156960, 
                            "v": 104, 
                            "dur": 216, 
                            "type": "note", 
                            "channel": 6
                        }, 
                        {
                            "pitch": 75, 
                            "t0": 156960, 
                            "v": 104, 
                            "dur": 223, 
                            "type": "note", 
                            "channel": 4
                        }, 
                        {
                            "pitch": 71, 
                            "t0": 156960, 
                            "parts": [
                                [
                                    156960, 
                                    120
                                ], 
                                [
                                    156960, 
                                    104
                                ], 
                                [
                                    157183, 
                                    0
                                ]
                            ], 
                            "v": 120, 
                            "dur": 223, 
                            "type": "note", 
                            "channel": 0
                        }, 
                        {
                            "pitch": 80, 
                            "t0": 156960, 
                            "v": 104, 
                            "dur": 456, 
                            "type": "note", 
                            "channel": 4
                        }, 
                        {
                            "pitch": 63, 
                            "t0": 156960, 
                            "v": 104, 
                            "dur": 456, 
                            "type": "note", 
                            "channel": 3
                        }, 
                        {
                            "pitch": 56, 
                            "t0": 156960, 
                            "v": 104, 
                            "dur": 456, 
                            "type": "note", 
                            "channel": 3
                        }
                    ]
                ], 
                [
                    157200, 
                    [
                        {
                            "pitch": 38, 
                            "t0": 157200, 
                            "v": 120, 
                            "dur": 54, 
                            "type": "note", 
                            "channel": 9
                        }, 
                        {
                            "pitch": 46, 
                            "t0": 157200, 
                            "v": 88, 
                            "dur": 54, 
                            "type": "note", 
                            "channel": 9
                        }, 
                        {
                            "pitch": 44, 
                            "t0": 157200, 
                            "v": 104, 
                            "dur": 216, 
                            "type": "note", 
                            "channel": 6
                        }, 
                        {
                            "pitch": 71, 
                            "t0": 157200, 
                            "v": 120, 
                            "dur": 216, 
                            "type": "note", 
                            "channel": 0
                        }, 
                        {
                            "pitch": 75, 
                            "t0": 157200, 
                            "v": 104, 
                            "dur": 216, 
                            "type": "note", 
                            "channel": 10
                        }
                    ]
                ], 
                [
                    157440, 
                    [
                        {
                            "bpm": 73.00007178340392, 
                            "type": "tempo", 
                            "mpqn": 821917, 
                            "t0": 157440
                        }, 
                        {
                            "pitch": 36, 
                            "t0": 157440, 
                            "v": 120, 
                            "dur": 54, 
                            "type": "note", 
                            "channel": 9
                        }, 
                        {
                            "pitch": 49, 
                            "t0": 157440, 
                            "v": 120, 
                            "dur": 54, 
                            "type": "note", 
                            "channel": 9
                        }, 
                        {
                            "pitch": 45, 
                            "t0": 157440, 
                            "v": 104, 
                            "dur": 216, 
                            "type": "note", 
                            "channel": 6
                        }, 
                        {
                            "pitch": 73, 
                            "t0": 157440, 
                            "v": 104, 
                            "dur": 223, 
                            "type": "note", 
                            "channel": 4
                        }, 
                        {
                            "pitch": 69, 
                            "t0": 157440, 
                            "parts": [
                                [
                                    157440, 
                                    120
                                ], 
                                [
                                    157440, 
                                    104
                                ], 
                                [
                                    157663, 
                                    0
                                ]
                            ], 
                            "v": 120, 
                            "dur": 223, 
                            "type": "note", 
                            "channel": 0
                        }, 
                        {
                            "pitch": 76, 
                            "t0": 157440, 
                            "v": 104, 
                            "dur": 228, 
                            "type": "note", 
                            "channel": 4
                        }, 
                        {
                            "pitch": 81, 
                            "t0": 157440, 
                            "v": 104, 
                            "dur": 228, 
                            "type": "note", 
                            "channel": 4
                        }, 
                        {
                            "pitch": 64, 
                            "t0": 157440, 
                            "v": 104, 
                            "dur": 228, 
                            "type": "note", 
                            "channel": 3
                        }, 
                        {
                            "pitch": 57, 
                            "t0": 157440, 
                            "v": 104, 
                            "dur": 228, 
                            "type": "note", 
                            "channel": 3
                        }, 
                        {
                            "pitch": 93, 
                            "t0": 157440, 
                            "v": 104, 
                            "dur": 960, 
                            "type": "note", 
                            "channel": 5
                        }, 
                        {
                            "pitch": 61, 
                            "t0": 157440, 
                            "v": 104, 
                            "dur": 960, 
                            "type": "note", 
                            "channel": 5
                        }
                    ]
                ], 
                [
                    157680, 
                    [
                        {
                            "pitch": 38, 
                            "t0": 157680, 
                            "v": 120, 
                            "dur": 54, 
                            "type": "note", 
                            "channel": 9
                        }, 
                        {
                            "pitch": 46, 
                            "t0": 157680, 
                            "v": 88, 
                            "dur": 54, 
                            "type": "note", 
                            "channel": 9
                        }, 
                        {
                            "pitch": 45, 
                            "t0": 157680, 
                            "v": 104, 
                            "dur": 216, 
                            "type": "note", 
                            "channel": 6
                        }, 
                        {
                            "pitch": 73, 
                            "t0": 157680, 
                            "v": 104, 
                            "dur": 223, 
                            "type": "note", 
                            "channel": 4
                        }, 
                        {
                            "pitch": 69, 
                            "t0": 157680, 
                            "v": 120, 
                            "dur": 223, 
                            "type": "note", 
                            "channel": 0
                        }, 
                        {
                            "pitch": 81, 
                            "t0": 157680, 
                            "v": 104, 
                            "dur": 228, 
                            "type": "note", 
                            "channel": 4
                        }, 
                        {
                            "pitch": 76, 
                            "t0": 157680, 
                            "v": 104, 
                            "dur": 228, 
                            "type": "note", 
                            "channel": 4
                        }, 
                        {
                            "pitch": 64, 
                            "t0": 157680, 
                            "v": 104, 
                            "dur": 228, 
                            "type": "note", 
                            "channel": 3
                        }, 
                        {
                            "pitch": 57, 
                            "t0": 157680, 
                            "v": 104, 
                            "dur": 228, 
                            "type": "note", 
                            "channel": 3
                        }
                    ]
                ], 
                [
                    157920, 
                    [
                        {
                            "pitch": 36, 
                            "t0": 157920, 
                            "v": 120, 
                            "dur": 54, 
                            "type": "note", 
                            "channel": 9
                        }, 
                        {
                            "pitch": 46, 
                            "t0": 157920, 
                            "v": 104, 
                            "dur": 54, 
                            "type": "note", 
                            "channel": 9
                        }, 
                        {
                            "pitch": 45, 
                            "t0": 157920, 
                            "v": 104, 
                            "dur": 216, 
                            "type": "note", 
                            "channel": 6
                        }, 
                        {
                            "pitch": 73, 
                            "t0": 157920, 
                            "v": 104, 
                            "dur": 223, 
                            "type": "note", 
                            "channel": 4
                        }, 
                        {
                            "pitch": 69, 
                            "t0": 157920, 
                            "v": 120, 
                            "dur": 223, 
                            "type": "note", 
                            "channel": 0
                        }, 
                        {
                            "pitch": 64, 
                            "t0": 157920, 
                            "v": 104, 
                            "dur": 228, 
                            "type": "note", 
                            "channel": 3
                        }, 
                        {
                            "pitch": 57, 
                            "t0": 157920, 
                            "v": 104, 
                            "dur": 228, 
                            "type": "note", 
                            "channel": 3
                        }, 
                        {
                            "pitch": 81, 
                            "t0": 157920, 
                            "v": 104, 
                            "dur": 456, 
                            "type": "note", 
                            "channel": 4
                        }, 
                        {
                            "pitch": 76, 
                            "t0": 157920, 
                            "v": 104, 
                            "dur": 456, 
                            "type": "note", 
                            "channel": 4
                        }
                    ]
                ], 
                [
                    158160, 
                    [
                        {
                            "pitch": 38, 
                            "t0": 158160, 
                            "v": 120, 
                            "dur": 54, 
                            "type": "note", 
                            "channel": 9
                        }, 
                        {
                            "pitch": 46, 
                            "t0": 158160, 
                            "v": 88, 
                            "dur": 54, 
                            "type": "note", 
                            "channel": 9
                        }, 
                        {
                            "pitch": 45, 
                            "t0": 158160, 
                            "v": 104, 
                            "dur": 216, 
                            "type": "note", 
                            "channel": 6
                        }, 
                        {
                            "pitch": 75, 
                            "t0": 158160, 
                            "v": 104, 
                            "dur": 223, 
                            "type": "note", 
                            "channel": 10
                        }, 
                        {
                            "pitch": 69, 
                            "t0": 158160, 
                            "v": 120, 
                            "dur": 223, 
                            "type": "note", 
                            "channel": 0
                        }, 
                        {
                            "pitch": 64, 
                            "t0": 158160, 
                            "v": 104, 
                            "dur": 228, 
                            "type": "note", 
                            "channel": 3
                        }, 
                        {
                            "pitch": 57, 
                            "t0": 158160, 
                            "v": 104, 
                            "dur": 228, 
                            "type": "note", 
                            "channel": 3
                        }
                    ]
                ], 
                [
                    158210, 
                    [
                        {
                            "bpm": 76.00006586672374, 
                            "type": "tempo", 
                            "mpqn": 789473, 
                            "t0": 158210
                        }
                    ]
                ], 
                [
                    158400, 
                    [
                        {
                            "pitch": 36, 
                            "t0": 158400, 
                            "v": 120, 
                            "dur": 54, 
                            "type": "note", 
                            "channel": 9
                        }, 
                        {
                            "pitch": 46, 
                            "t0": 158400, 
                            "v": 104, 
                            "dur": 54, 
                            "type": "note", 
                            "channel": 9
                        }, 
                        {
                            "pitch": 47, 
                            "t0": 158400, 
                            "v": 104, 
                            "dur": 216, 
                            "type": "note", 
                            "channel": 6
                        }, 
                        {
                            "pitch": 71, 
                            "t0": 158400, 
                            "parts": [
                                [
                                    158400, 
                                    120
                                ], 
                                [
                                    158400, 
                                    104
                                ], 
                                [
                                    158623, 
                                    0
                                ]
                            ], 
                            "v": 120, 
                            "dur": 223, 
                            "type": "note", 
                            "channel": 1
                        }, 
                        {
                            "pitch": 66, 
                            "t0": 158400, 
                            "parts": [
                                [
                                    158400, 
                                    120
                                ], 
                                [
                                    158400, 
                                    104
                                ], 
                                [
                                    158623, 
                                    0
                                ]
                            ], 
                            "v": 120, 
                            "dur": 223, 
                            "type": "note", 
                            "channel": 0
                        }, 
                        {
                            "pitch": 83, 
                            "t0": 158400, 
                            "v": 104, 
                            "dur": 228, 
                            "type": "note", 
                            "channel": 4
                        }, 
                        {
                            "pitch": 78, 
                            "t0": 158400, 
                            "v": 104, 
                            "dur": 228, 
                            "type": "note", 
                            "channel": 4
                        }, 
                        {
                            "pitch": 75, 
                            "t0": 158400, 
                            "v": 104, 
                            "dur": 228, 
                            "type": "note", 
                            "channel": 4
                        }, 
                        {
                            "pitch": 59, 
                            "t0": 158400, 
                            "v": 104, 
                            "dur": 228, 
                            "type": "note", 
                            "channel": 3
                        }, 
                        {
                            "pitch": 63, 
                            "t0": 158400, 
                            "parts": [
                                [
                                    158400, 
                                    104
                                ], 
                                [
                                    158880, 
                                    120
                                ], 
                                [
                                    159103, 
                                    0
                                ]
                            ], 
                            "v": 104, 
                            "dur": 703, 
                            "type": "note", 
                            "channel": 5
                        }, 
                        {
                            "pitch": 95, 
                            "t0": 158400, 
                            "v": 104, 
                            "dur": 960, 
                            "type": "note", 
                            "channel": 5
                        }
                    ]
                ], 
                [
                    158640, 
                    [
                        {
                            "pitch": 38, 
                            "t0": 158640, 
                            "v": 120, 
                            "dur": 54, 
                            "type": "note", 
                            "channel": 9
                        }, 
                        {
                            "pitch": 46, 
                            "t0": 158640, 
                            "v": 88, 
                            "dur": 54, 
                            "type": "note", 
                            "channel": 9
                        }, 
                        {
                            "pitch": 47, 
                            "t0": 158640, 
                            "v": 104, 
                            "dur": 216, 
                            "type": "note", 
                            "channel": 6
                        }, 
                        {
                            "pitch": 75, 
                            "t0": 158640, 
                            "v": 104, 
                            "dur": 223, 
                            "type": "note", 
                            "channel": 4
                        }, 
                        {
                            "pitch": 71, 
                            "t0": 158640, 
                            "v": 120, 
                            "dur": 223, 
                            "type": "note", 
                            "channel": 0
                        }, 
                        {
                            "pitch": 83, 
                            "t0": 158640, 
                            "v": 104, 
                            "dur": 228, 
                            "type": "note", 
                            "channel": 4
                        }, 
                        {
                            "pitch": 78, 
                            "t0": 158640, 
                            "v": 104, 
                            "dur": 228, 
                            "type": "note", 
                            "channel": 4
                        }, 
                        {
                            "pitch": 59, 
                            "t0": 158640, 
                            "v": 104, 
                            "dur": 228, 
                            "type": "note", 
                            "channel": 3
                        }, 
                        {
                            "pitch": 66, 
                            "t0": 158640, 
                            "v": 104, 
                            "dur": 228, 
                            "type": "note", 
                            "channel": 3
                        }
                    ]
                ], 
                [
                    158880, 
                    [
                        {
                            "pitch": 36, 
                            "t0": 158880, 
                            "v": 120, 
                            "dur": 54, 
                            "type": "note", 
                            "channel": 9
                        }, 
                        {
                            "pitch": 46, 
                            "t0": 158880, 
                            "v": 104, 
                            "dur": 54, 
                            "type": "note", 
                            "channel": 9
                        }, 
                        {
                            "pitch": 47, 
                            "t0": 158880, 
                            "v": 104, 
                            "dur": 216, 
                            "type": "note", 
                            "channel": 6
                        }, 
                        {
                            "pitch": 68, 
                            "t0": 158880, 
                            "v": 104, 
                            "dur": 223, 
                            "type": "note", 
                            "channel": 10
                        }, 
                        {
                            "pitch": 71, 
                            "t0": 158880, 
                            "v": 120, 
                            "dur": 223, 
                            "type": "note", 
                            "channel": 1
                        }, 
                        {
                            "pitch": 59, 
                            "t0": 158880, 
                            "v": 104, 
                            "dur": 228, 
                            "type": "note", 
                            "channel": 3
                        }, 
                        {
                            "pitch": 66, 
                            "t0": 158880, 
                            "v": 104, 
                            "dur": 228, 
                            "type": "note", 
                            "channel": 3
                        }, 
                        {
                            "pitch": 78, 
                            "t0": 158880, 
                            "v": 104, 
                            "dur": 456, 
                            "type": "note", 
                            "channel": 4
                        }, 
                        {
                            "pitch": 83, 
                            "t0": 158880, 
                            "v": 104, 
                            "dur": 456, 
                            "type": "note", 
                            "channel": 4
                        }, 
                        {
                            "pitch": 75, 
                            "t0": 158880, 
                            "v": 104, 
                            "dur": 456, 
                            "type": "note", 
                            "channel": 4
                        }
                    ]
                ], 
                [
                    158975, 
                    [
                        {
                            "bpm": 78.000078000078, 
                            "type": "tempo", 
                            "mpqn": 769230, 
                            "t0": 158975
                        }
                    ]
                ], 
                [
                    159120, 
                    [
                        {
                            "pitch": 38, 
                            "t0": 159120, 
                            "v": 120, 
                            "dur": 54, 
                            "type": "note", 
                            "channel": 9
                        }, 
                        {
                            "pitch": 46, 
                            "t0": 159120, 
                            "v": 88, 
                            "dur": 54, 
                            "type": "note", 
                            "channel": 9
                        }, 
                        {
                            "pitch": 47, 
                            "t0": 159120, 
                            "v": 104, 
                            "dur": 216, 
                            "type": "note", 
                            "channel": 6
                        }, 
                        {
                            "pitch": 71, 
                            "t0": 159120, 
                            "parts": [
                                [
                                    159120, 
                                    120
                                ], 
                                [
                                    159120, 
                                    104
                                ], 
                                [
                                    159343, 
                                    0
                                ]
                            ], 
                            "v": 120, 
                            "dur": 223, 
                            "type": "note", 
                            "channel": 1
                        }, 
                        {
                            "pitch": 66, 
                            "t0": 159120, 
                            "parts": [
                                [
                                    159120, 
                                    120
                                ], 
                                [
                                    159120, 
                                    104
                                ], 
                                [
                                    159343, 
                                    0
                                ]
                            ], 
                            "v": 120, 
                            "dur": 223, 
                            "type": "note", 
                            "channel": 0
                        }, 
                        {
                            "pitch": 59, 
                            "t0": 159120, 
                            "v": 104, 
                            "dur": 228, 
                            "type": "note", 
                            "channel": 3
                        }
                    ]
                ], 
                [
                    159360, 
                    [
                        {
                            "pitch": 46, 
                            "t0": 159360, 
                            "v": 104, 
                            "dur": 54, 
                            "type": "note", 
                            "channel": 9
                        }, 
                        {
                            "pitch": 36, 
                            "t0": 159360, 
                            "v": 120, 
                            "dur": 54, 
                            "type": "note", 
                            "channel": 9
                        }, 
                        {
                            "pitch": 40, 
                            "t0": 159360, 
                            "v": 104, 
                            "dur": 216, 
                            "type": "note", 
                            "channel": 6
                        }, 
                        {
                            "pitch": 83, 
                            "t0": 159360, 
                            "v": 104, 
                            "dur": 228, 
                            "type": "note", 
                            "channel": 4
                        }, 
                        {
                            "pitch": 76, 
                            "t0": 159360, 
                            "v": 104, 
                            "dur": 228, 
                            "type": "note", 
                            "channel": 4
                        }, 
                        {
                            "pitch": 80, 
                            "t0": 159360, 
                            "v": 104, 
                            "dur": 228, 
                            "type": "note", 
                            "channel": 4
                        }, 
                        {
                            "pitch": 68, 
                            "t0": 159360, 
                            "parts": [
                                [
                                    159360, 
                                    120
                                ], 
                                [
                                    159360, 
                                    104
                                ], 
                                [
                                    159806, 
                                    0
                                ]
                            ], 
                            "v": 120, 
                            "dur": 446, 
                            "type": "note", 
                            "channel": 1
                        }, 
                        {
                            "pitch": 64, 
                            "t0": 159360, 
                            "parts": [
                                [
                                    159360, 
                                    120
                                ], 
                                [
                                    159360, 
                                    104
                                ], 
                                [
                                    159840, 
                                    104
                                ], 
                                [
                                    160063, 
                                    0
                                ]
                            ], 
                            "v": 120, 
                            "dur": 703, 
                            "type": "note", 
                            "channel": 0
                        }, 
                        {
                            "pitch": 59, 
                            "t0": 159360, 
                            "parts": [
                                [
                                    159360, 
                                    104
                                ], 
                                [
                                    160080, 
                                    104
                                ], 
                                [
                                    160272, 
                                    0
                                ]
                            ], 
                            "v": 104, 
                            "dur": 912, 
                            "type": "note", 
                            "channel": 3
                        }, 
                        {
                            "pitch": 52, 
                            "t0": 159360, 
                            "v": 104, 
                            "dur": 912, 
                            "type": "note", 
                            "channel": 3
                        }, 
                        {
                            "pitch": 95, 
                            "t0": 159360, 
                            "v": 104, 
                            "dur": 960, 
                            "type": "note", 
                            "channel": 5
                        }, 
                        {
                            "pitch": 71, 
                            "t0": 159360, 
                            "v": 104, 
                            "dur": 960, 
                            "type": "note", 
                            "channel": 5
                        }
                    ]
                ], 
                [
                    159600, 
                    [
                        {
                            "pitch": 46, 
                            "t0": 159600, 
                            "v": 88, 
                            "dur": 54, 
                            "type": "note", 
                            "channel": 9
                        }, 
                        {
                            "pitch": 38, 
                            "t0": 159600, 
                            "v": 120, 
                            "dur": 54, 
                            "type": "note", 
                            "channel": 9
                        }, 
                        {
                            "pitch": 40, 
                            "t0": 159600, 
                            "v": 104, 
                            "dur": 216, 
                            "type": "note", 
                            "channel": 6
                        }, 
                        {
                            "pitch": 83, 
                            "t0": 159600, 
                            "v": 104, 
                            "dur": 228, 
                            "type": "note", 
                            "channel": 4
                        }, 
                        {
                            "pitch": 76, 
                            "t0": 159600, 
                            "v": 104, 
                            "dur": 228, 
                            "type": "note", 
                            "channel": 4
                        }, 
                        {
                            "pitch": 80, 
                            "t0": 159600, 
                            "v": 104, 
                            "dur": 228, 
                            "type": "note", 
                            "channel": 4
                        }
                    ]
                ], 
                [
                    159740, 
                    [
                        {
                            "bpm": 80.0, 
                            "type": "tempo", 
                            "mpqn": 750000, 
                            "t0": 159740
                        }
                    ]
                ], 
                [
                    159840, 
                    [
                        {
                            "pitch": 46, 
                            "t0": 159840, 
                            "v": 104, 
                            "dur": 54, 
                            "type": "note", 
                            "channel": 9
                        }, 
                        {
                            "pitch": 36, 
                            "t0": 159840, 
                            "v": 120, 
                            "dur": 54, 
                            "type": "note", 
                            "channel": 9
                        }, 
                        {
                            "pitch": 40, 
                            "t0": 159840, 
                            "v": 104, 
                            "dur": 216, 
                            "type": "note", 
                            "channel": 6
                        }, 
                        {
                            "pitch": 68, 
                            "t0": 159840, 
                            "v": 120, 
                            "dur": 446, 
                            "type": "note", 
                            "channel": 1
                        }, 
                        {
                            "pitch": 76, 
                            "t0": 159840, 
                            "v": 104, 
                            "dur": 456, 
                            "type": "note", 
                            "channel": 4
                        }, 
                        {
                            "pitch": 83, 
                            "t0": 159840, 
                            "v": 104, 
                            "dur": 456, 
                            "type": "note", 
                            "channel": 4
                        }, 
                        {
                            "pitch": 80, 
                            "t0": 159840, 
                            "v": 104, 
                            "dur": 456, 
                            "type": "note", 
                            "channel": 4
                        }
                    ]
                ], 
                [
                    160080, 
                    [
                        {
                            "pitch": 46, 
                            "t0": 160080, 
                            "v": 88, 
                            "dur": 54, 
                            "type": "note", 
                            "channel": 9
                        }, 
                        {
                            "pitch": 38, 
                            "t0": 160080, 
                            "v": 120, 
                            "dur": 54, 
                            "type": "note", 
                            "channel": 9
                        }, 
                        {
                            "pitch": 40, 
                            "t0": 160080, 
                            "v": 104, 
                            "dur": 216, 
                            "type": "note", 
                            "channel": 6
                        }
                    ]
                ], 
                [
                    160320, 
                    [
                        {
                            "pitch": 46, 
                            "t0": 160320, 
                            "v": 104, 
                            "dur": 54, 
                            "type": "note", 
                            "channel": 9
                        }, 
                        {
                            "pitch": 36, 
                            "t0": 160320, 
                            "v": 120, 
                            "dur": 54, 
                            "type": "note", 
                            "channel": 9
                        }, 
                        {
                            "pitch": 47, 
                            "t0": 160320, 
                            "v": 104, 
                            "dur": 216, 
                            "type": "note", 
                            "channel": 6
                        }, 
                        {
                            "pitch": 78, 
                            "t0": 160320, 
                            "v": 104, 
                            "dur": 228, 
                            "type": "note", 
                            "channel": 4
                        }, 
                        {
                            "pitch": 83, 
                            "t0": 160320, 
                            "v": 104, 
                            "dur": 228, 
                            "type": "note", 
                            "channel": 4
                        }, 
                        {
                            "pitch": 75, 
                            "t0": 160320, 
                            "v": 104, 
                            "dur": 228, 
                            "type": "note", 
                            "channel": 4
                        }, 
                        {
                            "pitch": 59, 
                            "t0": 160320, 
                            "v": 104, 
                            "dur": 228, 
                            "type": "note", 
                            "channel": 3
                        }, 
                        {
                            "pitch": 66, 
                            "t0": 160320, 
                            "parts": [
                                [
                                    160320, 
                                    120
                                ], 
                                [
                                    160320, 
                                    104
                                ], 
                                [
                                    160548, 
                                    0
                                ]
                            ], 
                            "v": 120, 
                            "dur": 228, 
                            "type": "note", 
                            "channel": 1
                        }, 
                        {
                            "pitch": 64, 
                            "t0": 160320, 
                            "v": 104, 
                            "dur": 446, 
                            "type": "note", 
                            "channel": 10
                        }, 
                        {
                            "pitch": 71, 
                            "t0": 160320, 
                            "parts": [
                                [
                                    160320, 
                                    104
                                ], 
                                [
                                    160800, 
                                    120
                                ], 
                                [
                                    161023, 
                                    0
                                ]
                            ], 
                            "v": 104, 
                            "dur": 703, 
                            "type": "note", 
                            "channel": 5
                        }, 
                        {
                            "pitch": 95, 
                            "t0": 160320, 
                            "v": 104, 
                            "dur": 960, 
                            "type": "note", 
                            "channel": 5
                        }, 
                        {
                            "pitch": 63, 
                            "t0": 160320, 
                            "v": 104, 
                            "dur": 960, 
                            "type": "note", 
                            "channel": 5
                        }
                    ]
                ], 
                [
                    160510, 
                    [
                        {
                            "bpm": 82.00003553334874, 
                            "type": "tempo", 
                            "mpqn": 731707, 
                            "t0": 160510
                        }
                    ]
                ], 
                [
                    160560, 
                    [
                        {
                            "pitch": 46, 
                            "t0": 160560, 
                            "v": 88, 
                            "dur": 54, 
                            "type": "note", 
                            "channel": 9
                        }, 
                        {
                            "pitch": 38, 
                            "t0": 160560, 
                            "v": 120, 
                            "dur": 54, 
                            "type": "note", 
                            "channel": 9
                        }, 
                        {
                            "pitch": 66, 
                            "t0": 160560, 
                            "v": 104, 
                            "dur": 206, 
                            "type": "note", 
                            "channel": 3
                        }, 
                        {
                            "pitch": 51, 
                            "t0": 160560, 
                            "v": 104, 
                            "dur": 216, 
                            "type": "note", 
                            "channel": 6
                        }, 
                        {
                            "pitch": 83, 
                            "t0": 160560, 
                            "v": 104, 
                            "dur": 228, 
                            "type": "note", 
                            "channel": 4
                        }, 
                        {
                            "pitch": 75, 
                            "t0": 160560, 
                            "v": 104, 
                            "dur": 228, 
                            "type": "note", 
                            "channel": 4
                        }, 
                        {
                            "pitch": 78, 
                            "t0": 160560, 
                            "v": 104, 
                            "dur": 228, 
                            "type": "note", 
                            "channel": 4
                        }, 
                        {
                            "pitch": 59, 
                            "t0": 160560, 
                            "v": 104, 
                            "dur": 228, 
                            "type": "note", 
                            "channel": 3
                        }
                    ]
                ], 
                [
                    160800, 
                    [
                        {
                            "pitch": 46, 
                            "t0": 160800, 
                            "v": 104, 
                            "dur": 54, 
                            "type": "note", 
                            "channel": 9
                        }, 
                        {
                            "pitch": 36, 
                            "t0": 160800, 
                            "v": 120, 
                            "dur": 54, 
                            "type": "note", 
                            "channel": 9
                        }, 
                        {
                            "pitch": 52, 
                            "t0": 160800, 
                            "v": 104, 
                            "dur": 216, 
                            "type": "note", 
                            "channel": 6
                        }, 
                        {
                            "pitch": 78, 
                            "t0": 160800, 
                            "v": 104, 
                            "dur": 456, 
                            "type": "note", 
                            "channel": 4
                        }, 
                        {
                            "pitch": 83, 
                            "t0": 160800, 
                            "v": 104, 
                            "dur": 456, 
                            "type": "note", 
                            "channel": 4
                        }, 
                        {
                            "pitch": 75, 
                            "t0": 160800, 
                            "parts": [
                                [
                                    160800, 
                                    104
                                ], 
                                [
                                    161040, 
                                    120
                                ], 
                                [
                                    161256, 
                                    0
                                ]
                            ], 
                            "v": 104, 
                            "dur": 456, 
                            "type": "note", 
                            "channel": 4
                        }, 
                        {
                            "pitch": 66, 
                            "t0": 160800, 
                            "v": 104, 
                            "dur": 456, 
                            "type": "note", 
                            "channel": 3
                        }, 
                        {
                            "pitch": 59, 
                            "t0": 160800, 
                            "v": 104, 
                            "dur": 456, 
                            "type": "note", 
                            "channel": 3
                        }
                    ]
                ], 
                [
                    160880, 
                    [
                        {
                            "pitch": 38, 
                            "t0": 160880, 
                            "v": 104, 
                            "dur": 54, 
                            "type": "note", 
                            "channel": 9
                        }
                    ]
                ], 
                [
                    160960, 
                    [
                        {
                            "pitch": 38, 
                            "t0": 160960, 
                            "v": 104, 
                            "dur": 54, 
                            "type": "note", 
                            "channel": 9
                        }
                    ]
                ], 
                [
                    161040, 
                    [
                        {
                            "pitch": 38, 
                            "t0": 161040, 
                            "v": 104, 
                            "dur": 54, 
                            "type": "note", 
                            "channel": 9
                        }, 
                        {
                            "pitch": 54, 
                            "t0": 161040, 
                            "v": 104, 
                            "dur": 216, 
                            "type": "note", 
                            "channel": 6
                        }, 
                        {
                            "pitch": 71, 
                            "t0": 161040, 
                            "v": 120, 
                            "dur": 223, 
                            "type": "note", 
                            "channel": 1
                        }
                    ]
                ], 
                [
                    161120, 
                    [
                        {
                            "pitch": 38, 
                            "t0": 161120, 
                            "v": 104, 
                            "dur": 54, 
                            "type": "note", 
                            "channel": 9
                        }
                    ]
                ], 
                [
                    161200, 
                    [
                        {
                            "pitch": 38, 
                            "t0": 161200, 
                            "v": 104, 
                            "dur": 54, 
                            "type": "note", 
                            "channel": 9
                        }
                    ]
                ], 
                [
                    161275, 
                    [
                        {
                            "bpm": 84.000084000084, 
                            "type": "tempo", 
                            "mpqn": 714285, 
                            "t0": 161275
                        }
                    ]
                ], 
                [
                    161280, 
                    [
                        {
                            "pitch": 36, 
                            "t0": 161280, 
                            "v": 120, 
                            "dur": 54, 
                            "type": "note", 
                            "channel": 9
                        }, 
                        {
                            "pitch": 49, 
                            "t0": 161280, 
                            "v": 120, 
                            "dur": 54, 
                            "type": "note", 
                            "channel": 9
                        }, 
                        {
                            "pitch": 40, 
                            "t0": 161280, 
                            "v": 104, 
                            "dur": 216, 
                            "type": "note", 
                            "channel": 6
                        }, 
                        {
                            "pitch": 80, 
                            "t0": 161280, 
                            "v": 104, 
                            "dur": 223, 
                            "type": "note", 
                            "channel": 4
                        }, 
                        {
                            "pitch": 76, 
                            "t0": 161280, 
                            "parts": [
                                [
                                    161280, 
                                    120
                                ], 
                                [
                                    161280, 
                                    104
                                ], 
                                [
                                    161503, 
                                    0
                                ]
                            ], 
                            "v": 120, 
                            "dur": 223, 
                            "type": "note", 
                            "channel": 0
                        }, 
                        {
                            "pitch": 83, 
                            "t0": 161280, 
                            "v": 104, 
                            "dur": 228, 
                            "type": "note", 
                            "channel": 4
                        }, 
                        {
                            "pitch": 52, 
                            "t0": 161280, 
                            "v": 104, 
                            "dur": 456, 
                            "type": "note", 
                            "channel": 3
                        }, 
                        {
                            "pitch": 59, 
                            "t0": 161280, 
                            "v": 104, 
                            "dur": 456, 
                            "type": "note", 
                            "channel": 3
                        }, 
                        {
                            "pitch": 95, 
                            "t0": 161280, 
                            "v": 104, 
                            "dur": 952, 
                            "type": "note", 
                            "channel": 5
                        }, 
                        {
                            "pitch": 64, 
                            "t0": 161280, 
                            "v": 104, 
                            "dur": 952, 
                            "type": "note", 
                            "channel": 5
                        }, 
                        {
                            "pitch": 68, 
                            "t0": 161280, 
                            "v": 104, 
                            "dur": 952, 
                            "type": "note", 
                            "channel": 5
                        }, 
                        {
                            "pitch": 71, 
                            "t0": 161280, 
                            "v": 104, 
                            "dur": 952, 
                            "type": "note", 
                            "channel": 5
                        }
                    ]
                ], 
                [
                    161520, 
                    [
                        {
                            "pitch": 38, 
                            "t0": 161520, 
                            "v": 120, 
                            "dur": 54, 
                            "type": "note", 
                            "channel": 9
                        }, 
                        {
                            "pitch": 46, 
                            "t0": 161520, 
                            "v": 88, 
                            "dur": 54, 
                            "type": "note", 
                            "channel": 9
                        }, 
                        {
                            "pitch": 40, 
                            "t0": 161520, 
                            "v": 104, 
                            "dur": 216, 
                            "type": "note", 
                            "channel": 6
                        }, 
                        {
                            "pitch": 80, 
                            "t0": 161520, 
                            "v": 104, 
                            "dur": 223, 
                            "type": "note", 
                            "channel": 4
                        }, 
                        {
                            "pitch": 76, 
                            "t0": 161520, 
                            "parts": [
                                [
                                    161520, 
                                    120
                                ], 
                                [
                                    161520, 
                                    104
                                ], 
                                [
                                    161743, 
                                    0
                                ]
                            ], 
                            "v": 120, 
                            "dur": 223, 
                            "type": "note", 
                            "channel": 0
                        }, 
                        {
                            "pitch": 83, 
                            "t0": 161520, 
                            "v": 104, 
                            "dur": 228, 
                            "type": "note", 
                            "channel": 4
                        }
                    ]
                ], 
                [
                    161760, 
                    [
                        {
                            "pitch": 36, 
                            "t0": 161760, 
                            "v": 120, 
                            "dur": 54, 
                            "type": "note", 
                            "channel": 9
                        }, 
                        {
                            "pitch": 46, 
                            "t0": 161760, 
                            "v": 104, 
                            "dur": 54, 
                            "type": "note", 
                            "channel": 9
                        }, 
                        {
                            "pitch": 40, 
                            "t0": 161760, 
                            "v": 104, 
                            "dur": 216, 
                            "type": "note", 
                            "channel": 6
                        }, 
                        {
                            "pitch": 80, 
                            "t0": 161760, 
                            "v": 104, 
                            "dur": 223, 
                            "type": "note", 
                            "channel": 4
                        }, 
                        {
                            "pitch": 76, 
                            "t0": 161760, 
                            "parts": [
                                [
                                    161760, 
                                    120
                                ], 
                                [
                                    161760, 
                                    104
                                ], 
                                [
                                    161983, 
                                    0
                                ]
                            ], 
                            "v": 120, 
                            "dur": 223, 
                            "type": "note", 
                            "channel": 0
                        }, 
                        {
                            "pitch": 52, 
                            "t0": 161760, 
                            "v": 104, 
                            "dur": 228, 
                            "type": "note", 
                            "channel": 3
                        }, 
                        {
                            "pitch": 83, 
                            "t0": 161760, 
                            "v": 104, 
                            "dur": 456, 
                            "type": "note", 
                            "channel": 4
                        }
                    ]
                ], 
                [
                    162000, 
                    [
                        {
                            "pitch": 38, 
                            "t0": 162000, 
                            "v": 120, 
                            "dur": 54, 
                            "type": "note", 
                            "channel": 9
                        }, 
                        {
                            "pitch": 46, 
                            "t0": 162000, 
                            "v": 88, 
                            "dur": 54, 
                            "type": "note", 
                            "channel": 9
                        }, 
                        {
                            "pitch": 40, 
                            "t0": 162000, 
                            "v": 104, 
                            "dur": 216, 
                            "type": "note", 
                            "channel": 6
                        }, 
                        {
                            "pitch": 80, 
                            "t0": 162000, 
                            "v": 104, 
                            "dur": 216, 
                            "type": "note", 
                            "channel": 10
                        }, 
                        {
                            "pitch": 78, 
                            "t0": 162000, 
                            "v": 120, 
                            "dur": 223, 
                            "type": "note", 
                            "channel": 0
                        }, 
                        {
                            "pitch": 54, 
                            "t0": 162000, 
                            "v": 104, 
                            "dur": 228, 
                            "type": "note", 
                            "channel": 3
                        }
                    ]
                ], 
                [
                    162040, 
                    [
                        {
                            "bpm": 86.00005160003096, 
                            "type": "tempo", 
                            "mpqn": 697674, 
                            "t0": 162040
                        }
                    ]
                ], 
                [
                    162240, 
                    [
                        {
                            "pitch": 36, 
                            "t0": 162240, 
                            "v": 120, 
                            "dur": 54, 
                            "type": "note", 
                            "channel": 9
                        }, 
                        {
                            "pitch": 49, 
                            "t0": 162240, 
                            "v": 120, 
                            "dur": 54, 
                            "type": "note", 
                            "channel": 9
                        }, 
                        {
                            "pitch": 47, 
                            "t0": 162240, 
                            "v": 104, 
                            "dur": 216, 
                            "type": "note", 
                            "channel": 6
                        }, 
                        {
                            "pitch": 78, 
                            "t0": 162240, 
                            "v": 104, 
                            "dur": 223, 
                            "type": "note", 
                            "channel": 4
                        }, 
                        {
                            "pitch": 76, 
                            "t0": 162240, 
                            "v": 120, 
                            "dur": 223, 
                            "type": "note", 
                            "channel": 0
                        }, 
                        {
                            "pitch": 83, 
                            "t0": 162240, 
                            "v": 104, 
                            "dur": 228, 
                            "type": "note", 
                            "channel": 4
                        }, 
                        {
                            "pitch": 75, 
                            "t0": 162240, 
                            "v": 104, 
                            "dur": 228, 
                            "type": "note", 
                            "channel": 4
                        }, 
                        {
                            "pitch": 66, 
                            "t0": 162240, 
                            "v": 104, 
                            "dur": 456, 
                            "type": "note", 
                            "channel": 3
                        }, 
                        {
                            "pitch": 59, 
                            "t0": 162240, 
                            "v": 104, 
                            "dur": 456, 
                            "type": "note", 
                            "channel": 3
                        }, 
                        {
                            "pitch": 71, 
                            "t0": 162240, 
                            "parts": [
                                [
                                    162240, 
                                    104
                                ], 
                                [
                                    162720, 
                                    120
                                ], 
                                [
                                    162943, 
                                    0
                                ]
                            ], 
                            "v": 104, 
                            "dur": 703, 
                            "type": "note", 
                            "channel": 5
                        }, 
                        {
                            "pitch": 95, 
                            "t0": 162240, 
                            "v": 104, 
                            "dur": 952, 
                            "type": "note", 
                            "channel": 5
                        }, 
                        {
                            "pitch": 63, 
                            "t0": 162240, 
                            "v": 104, 
                            "dur": 952, 
                            "type": "note", 
                            "channel": 5
                        }
                    ]
                ], 
                [
                    162480, 
                    [
                        {
                            "pitch": 38, 
                            "t0": 162480, 
                            "v": 120, 
                            "dur": 54, 
                            "type": "note", 
                            "channel": 9
                        }, 
                        {
                            "pitch": 46, 
                            "t0": 162480, 
                            "v": 88, 
                            "dur": 54, 
                            "type": "note", 
                            "channel": 9
                        }, 
                        {
                            "pitch": 47, 
                            "t0": 162480, 
                            "v": 104, 
                            "dur": 216, 
                            "type": "note", 
                            "channel": 6
                        }, 
                        {
                            "pitch": 78, 
                            "t0": 162480, 
                            "v": 104, 
                            "dur": 223, 
                            "type": "note", 
                            "channel": 4
                        }, 
                        {
                            "pitch": 75, 
                            "t0": 162480, 
                            "parts": [
                                [
                                    162480, 
                                    120
                                ], 
                                [
                                    162480, 
                                    104
                                ], 
                                [
                                    162703, 
                                    0
                                ]
                            ], 
                            "v": 120, 
                            "dur": 223, 
                            "type": "note", 
                            "channel": 0
                        }, 
                        {
                            "pitch": 83, 
                            "t0": 162480, 
                            "v": 104, 
                            "dur": 228, 
                            "type": "note", 
                            "channel": 4
                        }
                    ]
                ], 
                [
                    162720, 
                    [
                        {
                            "pitch": 36, 
                            "t0": 162720, 
                            "v": 120, 
                            "dur": 54, 
                            "type": "note", 
                            "channel": 9
                        }, 
                        {
                            "pitch": 46, 
                            "t0": 162720, 
                            "v": 104, 
                            "dur": 54, 
                            "type": "note", 
                            "channel": 9
                        }, 
                        {
                            "pitch": 47, 
                            "t0": 162720, 
                            "v": 104, 
                            "dur": 216, 
                            "type": "note", 
                            "channel": 6
                        }, 
                        {
                            "pitch": 78, 
                            "t0": 162720, 
                            "v": 104, 
                            "dur": 223, 
                            "type": "note", 
                            "channel": 4
                        }, 
                        {
                            "pitch": 66, 
                            "t0": 162720, 
                            "v": 104, 
                            "dur": 228, 
                            "type": "note", 
                            "channel": 3
                        }, 
                        {
                            "pitch": 59, 
                            "t0": 162720, 
                            "v": 104, 
                            "dur": 228, 
                            "type": "note", 
                            "channel": 3
                        }, 
                        {
                            "pitch": 83, 
                            "t0": 162720, 
                            "v": 104, 
                            "dur": 456, 
                            "type": "note", 
                            "channel": 4
                        }, 
                        {
                            "pitch": 75, 
                            "t0": 162720, 
                            "parts": [
                                [
                                    162720, 
                                    104
                                ], 
                                [
                                    162960, 
                                    120
                                ], 
                                [
                                    163176, 
                                    0
                                ]
                            ], 
                            "v": 104, 
                            "dur": 456, 
                            "type": "note", 
                            "channel": 4
                        }
                    ]
                ], 
                [
                    162810, 
                    [
                        {
                            "bpm": 89.00004005001803, 
                            "type": "tempo", 
                            "mpqn": 674157, 
                            "t0": 162810
                        }
                    ]
                ], 
                [
                    162960, 
                    [
                        {
                            "pitch": 38, 
                            "t0": 162960, 
                            "v": 120, 
                            "dur": 54, 
                            "type": "note", 
                            "channel": 9
                        }, 
                        {
                            "pitch": 46, 
                            "t0": 162960, 
                            "v": 88, 
                            "dur": 54, 
                            "type": "note", 
                            "channel": 9
                        }, 
                        {
                            "pitch": 48, 
                            "t0": 162960, 
                            "v": 104, 
                            "dur": 216, 
                            "type": "note", 
                            "channel": 6
                        }, 
                        {
                            "pitch": 78, 
                            "t0": 162960, 
                            "v": 104, 
                            "dur": 216, 
                            "type": "note", 
                            "channel": 10
                        }, 
                        {
                            "pitch": 56, 
                            "t0": 162960, 
                            "v": 104, 
                            "dur": 228, 
                            "type": "note", 
                            "channel": 3
                        }
                    ]
                ], 
                [
                    163200, 
                    [
                        {
                            "pitch": 36, 
                            "t0": 163200, 
                            "v": 120, 
                            "dur": 54, 
                            "type": "note", 
                            "channel": 9
                        }, 
                        {
                            "pitch": 49, 
                            "t0": 163200, 
                            "parts": [
                                [
                                    163200, 
                                    104
                                ], 
                                [
                                    163200, 
                                    120
                                ], 
                                [
                                    163254, 
                                    0
                                ]
                            ], 
                            "v": 104, 
                            "dur": 54, 
                            "type": "note", 
                            "channel": 6
                        }, 
                        {
                            "pitch": 80, 
                            "t0": 163200, 
                            "v": 104, 
                            "dur": 223, 
                            "type": "note", 
                            "channel": 4
                        }, 
                        {
                            "pitch": 73, 
                            "t0": 163200, 
                            "v": 120, 
                            "dur": 223, 
                            "type": "note", 
                            "channel": 1
                        }, 
                        {
                            "pitch": 76, 
                            "t0": 163200, 
                            "parts": [
                                [
                                    163200, 
                                    120
                                ], 
                                [
                                    163200, 
                                    104
                                ], 
                                [
                                    163423, 
                                    0
                                ]
                            ], 
                            "v": 120, 
                            "dur": 223, 
                            "type": "note", 
                            "channel": 0
                        }, 
                        {
                            "pitch": 85, 
                            "t0": 163200, 
                            "v": 104, 
                            "dur": 228, 
                            "type": "note", 
                            "channel": 4
                        }, 
                        {
                            "pitch": 68, 
                            "t0": 163200, 
                            "v": 104, 
                            "dur": 456, 
                            "type": "note", 
                            "channel": 3
                        }, 
                        {
                            "pitch": 61, 
                            "t0": 163200, 
                            "v": 104, 
                            "dur": 456, 
                            "type": "note", 
                            "channel": 3
                        }, 
                        {
                            "pitch": 95, 
                            "t0": 163200, 
                            "v": 104, 
                            "dur": 952, 
                            "type": "note", 
                            "channel": 5
                        }, 
                        {
                            "pitch": 71, 
                            "t0": 163200, 
                            "v": 104, 
                            "dur": 952, 
                            "type": "note", 
                            "channel": 5
                        }, 
                        {
                            "pitch": 64, 
                            "t0": 163200, 
                            "v": 104, 
                            "dur": 952, 
                            "type": "note", 
                            "channel": 5
                        }
                    ]
                ], 
                [
                    163440, 
                    [
                        {
                            "pitch": 38, 
                            "t0": 163440, 
                            "v": 120, 
                            "dur": 54, 
                            "type": "note", 
                            "channel": 9
                        }, 
                        {
                            "pitch": 46, 
                            "t0": 163440, 
                            "v": 88, 
                            "dur": 54, 
                            "type": "note", 
                            "channel": 9
                        }, 
                        {
                            "pitch": 49, 
                            "t0": 163440, 
                            "v": 104, 
                            "dur": 216, 
                            "type": "note", 
                            "channel": 6
                        }, 
                        {
                            "pitch": 80, 
                            "t0": 163440, 
                            "v": 104, 
                            "dur": 223, 
                            "type": "note", 
                            "channel": 4
                        }, 
                        {
                            "pitch": 73, 
                            "t0": 163440, 
                            "v": 120, 
                            "dur": 223, 
                            "type": "note", 
                            "channel": 1
                        }, 
                        {
                            "pitch": 76, 
                            "t0": 163440, 
                            "parts": [
                                [
                                    163440, 
                                    120
                                ], 
                                [
                                    163440, 
                                    104
                                ], 
                                [
                                    163663, 
                                    0
                                ]
                            ], 
                            "v": 120, 
                            "dur": 223, 
                            "type": "note", 
                            "channel": 0
                        }, 
                        {
                            "pitch": 85, 
                            "t0": 163440, 
                            "v": 104, 
                            "dur": 228, 
                            "type": "note", 
                            "channel": 4
                        }
                    ]
                ], 
                [
                    163575, 
                    [
                        {
                            "bpm": 91.000091000091, 
                            "type": "tempo", 
                            "mpqn": 659340, 
                            "t0": 163575
                        }
                    ]
                ], 
                [
                    163680, 
                    [
                        {
                            "pitch": 36, 
                            "t0": 163680, 
                            "v": 120, 
                            "dur": 54, 
                            "type": "note", 
                            "channel": 9
                        }, 
                        {
                            "pitch": 46, 
                            "t0": 163680, 
                            "v": 104, 
                            "dur": 54, 
                            "type": "note", 
                            "channel": 9
                        }, 
                        {
                            "pitch": 49, 
                            "t0": 163680, 
                            "v": 104, 
                            "dur": 216, 
                            "type": "note", 
                            "channel": 6
                        }, 
                        {
                            "pitch": 80, 
                            "t0": 163680, 
                            "v": 104, 
                            "dur": 223, 
                            "type": "note", 
                            "channel": 4
                        }, 
                        {
                            "pitch": 76, 
                            "t0": 163680, 
                            "parts": [
                                [
                                    163680, 
                                    120
                                ], 
                                [
                                    163680, 
                                    104
                                ], 
                                [
                                    163903, 
                                    0
                                ]
                            ], 
                            "v": 120, 
                            "dur": 223, 
                            "type": "note", 
                            "channel": 0
                        }, 
                        {
                            "pitch": 73, 
                            "t0": 163680, 
                            "v": 120, 
                            "dur": 446, 
                            "type": "note", 
                            "channel": 1
                        }, 
                        {
                            "pitch": 85, 
                            "t0": 163680, 
                            "v": 104, 
                            "dur": 456, 
                            "type": "note", 
                            "channel": 4
                        }, 
                        {
                            "pitch": 68, 
                            "t0": 163680, 
                            "v": 104, 
                            "dur": 456, 
                            "type": "note", 
                            "channel": 3
                        }, 
                        {
                            "pitch": 61, 
                            "t0": 163680, 
                            "v": 104, 
                            "dur": 456, 
                            "type": "note", 
                            "channel": 3
                        }
                    ]
                ], 
                [
                    163920, 
                    [
                        {
                            "pitch": 38, 
                            "t0": 163920, 
                            "v": 120, 
                            "dur": 54, 
                            "type": "note", 
                            "channel": 9
                        }, 
                        {
                            "pitch": 46, 
                            "t0": 163920, 
                            "v": 88, 
                            "dur": 54, 
                            "type": "note", 
                            "channel": 9
                        }, 
                        {
                            "pitch": 52, 
                            "t0": 163920, 
                            "v": 104, 
                            "dur": 216, 
                            "type": "note", 
                            "channel": 6
                        }, 
                        {
                            "pitch": 80, 
                            "t0": 163920, 
                            "v": 104, 
                            "dur": 216, 
                            "type": "note", 
                            "channel": 10
                        }, 
                        {
                            "pitch": 78, 
                            "t0": 163920, 
                            "v": 120, 
                            "dur": 223, 
                            "type": "note", 
                            "channel": 0
                        }
                    ]
                ], 
                [
                    164160, 
                    [
                        {
                            "pitch": 36, 
                            "t0": 164160, 
                            "v": 120, 
                            "dur": 54, 
                            "type": "note", 
                            "channel": 9
                        }, 
                        {
                            "pitch": 49, 
                            "t0": 164160, 
                            "v": 120, 
                            "dur": 54, 
                            "type": "note", 
                            "channel": 9
                        }, 
                        {
                            "pitch": 44, 
                            "t0": 164160, 
                            "v": 104, 
                            "dur": 216, 
                            "type": "note", 
                            "channel": 6
                        }, 
                        {
                            "pitch": 80, 
                            "t0": 164160, 
                            "v": 104, 
                            "dur": 223, 
                            "type": "note", 
                            "channel": 4
                        }, 
                        {
                            "pitch": 76, 
                            "t0": 164160, 
                            "v": 120, 
                            "dur": 223, 
                            "type": "note", 
                            "channel": 0
                        }, 
                        {
                            "pitch": 75, 
                            "t0": 164160, 
                            "v": 104, 
                            "dur": 228, 
                            "type": "note", 
                            "channel": 4
                        }, 
                        {
                            "pitch": 71, 
                            "t0": 164160, 
                            "v": 104, 
                            "dur": 228, 
                            "type": "note", 
                            "channel": 4
                        }, 
                        {
                            "pitch": 63, 
                            "t0": 164160, 
                            "v": 104, 
                            "dur": 456, 
                            "type": "note", 
                            "channel": 3
                        }, 
                        {
                            "pitch": 56, 
                            "t0": 164160, 
                            "v": 104, 
                            "dur": 456, 
                            "type": "note", 
                            "channel": 3
                        }, 
                        {
                            "pitch": 95, 
                            "t0": 164160, 
                            "v": 104, 
                            "dur": 952, 
                            "type": "note", 
                            "channel": 5
                        }, 
                        {
                            "pitch": 68, 
                            "t0": 164160, 
                            "v": 104, 
                            "dur": 952, 
                            "type": "note", 
                            "channel": 5
                        }
                    ]
                ], 
                [
                    164340, 
                    [
                        {
                            "bpm": 93.00004185001883, 
                            "type": "tempo", 
                            "mpqn": 645161, 
                            "t0": 164340
                        }
                    ]
                ], 
                [
                    164400, 
                    [
                        {
                            "pitch": 38, 
                            "t0": 164400, 
                            "v": 120, 
                            "dur": 54, 
                            "type": "note", 
                            "channel": 9
                        }, 
                        {
                            "pitch": 46, 
                            "t0": 164400, 
                            "v": 88, 
                            "dur": 54, 
                            "type": "note", 
                            "channel": 9
                        }, 
                        {
                            "pitch": 44, 
                            "t0": 164400, 
                            "v": 104, 
                            "dur": 216, 
                            "type": "note", 
                            "channel": 6
                        }, 
                        {
                            "pitch": 78, 
                            "t0": 164400, 
                            "v": 104, 
                            "dur": 223, 
                            "type": "note", 
                            "channel": 10
                        }, 
                        {
                            "pitch": 75, 
                            "t0": 164400, 
                            "parts": [
                                [
                                    164400, 
                                    120
                                ], 
                                [
                                    164400, 
                                    104
                                ], 
                                [
                                    164623, 
                                    0
                                ]
                            ], 
                            "v": 120, 
                            "dur": 223, 
                            "type": "note", 
                            "channel": 0
                        }, 
                        {
                            "pitch": 80, 
                            "t0": 164400, 
                            "v": 104, 
                            "dur": 228, 
                            "type": "note", 
                            "channel": 4
                        }, 
                        {
                            "pitch": 71, 
                            "t0": 164400, 
                            "v": 104, 
                            "dur": 228, 
                            "type": "note", 
                            "channel": 4
                        }
                    ]
                ], 
                [
                    164640, 
                    [
                        {
                            "pitch": 36, 
                            "t0": 164640, 
                            "v": 120, 
                            "dur": 54, 
                            "type": "note", 
                            "channel": 9
                        }, 
                        {
                            "pitch": 46, 
                            "t0": 164640, 
                            "v": 104, 
                            "dur": 54, 
                            "type": "note", 
                            "channel": 9
                        }, 
                        {
                            "pitch": 44, 
                            "t0": 164640, 
                            "v": 104, 
                            "dur": 216, 
                            "type": "note", 
                            "channel": 6
                        }, 
                        {
                            "pitch": 75, 
                            "t0": 164640, 
                            "v": 104, 
                            "dur": 223, 
                            "type": "note", 
                            "channel": 4
                        }, 
                        {
                            "pitch": 71, 
                            "t0": 164640, 
                            "parts": [
                                [
                                    164640, 
                                    120
                                ], 
                                [
                                    164640, 
                                    104
                                ], 
                                [
                                    164863, 
                                    0
                                ]
                            ], 
                            "v": 120, 
                            "dur": 223, 
                            "type": "note", 
                            "channel": 0
                        }, 
                        {
                            "pitch": 80, 
                            "t0": 164640, 
                            "v": 104, 
                            "dur": 456, 
                            "type": "note", 
                            "channel": 4
                        }, 
                        {
                            "pitch": 63, 
                            "t0": 164640, 
                            "v": 104, 
                            "dur": 456, 
                            "type": "note", 
                            "channel": 3
                        }, 
                        {
                            "pitch": 56, 
                            "t0": 164640, 
                            "v": 104, 
                            "dur": 456, 
                            "type": "note", 
                            "channel": 3
                        }
                    ]
                ], 
                [
                    164880, 
                    [
                        {
                            "pitch": 38, 
                            "t0": 164880, 
                            "v": 120, 
                            "dur": 54, 
                            "type": "note", 
                            "channel": 9
                        }, 
                        {
                            "pitch": 46, 
                            "t0": 164880, 
                            "v": 88, 
                            "dur": 54, 
                            "type": "note", 
                            "channel": 9
                        }, 
                        {
                            "pitch": 44, 
                            "t0": 164880, 
                            "v": 104, 
                            "dur": 216, 
                            "type": "note", 
                            "channel": 6
                        }, 
                        {
                            "pitch": 71, 
                            "t0": 164880, 
                            "v": 120, 
                            "dur": 216, 
                            "type": "note", 
                            "channel": 0
                        }, 
                        {
                            "pitch": 75, 
                            "t0": 164880, 
                            "v": 104, 
                            "dur": 216, 
                            "type": "note", 
                            "channel": 10
                        }
                    ]
                ], 
                [
                    165110, 
                    [
                        {
                            "bpm": 95.00014250021376, 
                            "type": "tempo", 
                            "mpqn": 631578, 
                            "t0": 165110
                        }
                    ]
                ], 
                [
                    165120, 
                    [
                        {
                            "bpm": 93.00004185001883, 
                            "type": "tempo", 
                            "mpqn": 645161, 
                            "t0": 165120
                        }, 
                        {
                            "pitch": 36, 
                            "t0": 165120, 
                            "v": 120, 
                            "dur": 54, 
                            "type": "note", 
                            "channel": 9
                        }, 
                        {
                            "pitch": 49, 
                            "t0": 165120, 
                            "v": 120, 
                            "dur": 54, 
                            "type": "note", 
                            "channel": 9
                        }, 
                        {
                            "pitch": 45, 
                            "t0": 165120, 
                            "v": 104, 
                            "dur": 216, 
                            "type": "note", 
                            "channel": 6
                        }, 
                        {
                            "pitch": 73, 
                            "t0": 165120, 
                            "v": 104, 
                            "dur": 223, 
                            "type": "note", 
                            "channel": 4
                        }, 
                        {
                            "pitch": 69, 
                            "t0": 165120, 
                            "parts": [
                                [
                                    165120, 
                                    120
                                ], 
                                [
                                    165120, 
                                    104
                                ], 
                                [
                                    165343, 
                                    0
                                ]
                            ], 
                            "v": 120, 
                            "dur": 223, 
                            "type": "note", 
                            "channel": 0
                        }, 
                        {
                            "pitch": 81, 
                            "t0": 165120, 
                            "v": 104, 
                            "dur": 228, 
                            "type": "note", 
                            "channel": 4
                        }, 
                        {
                            "pitch": 76, 
                            "t0": 165120, 
                            "v": 104, 
                            "dur": 228, 
                            "type": "note", 
                            "channel": 4
                        }, 
                        {
                            "pitch": 64, 
                            "t0": 165120, 
                            "v": 104, 
                            "dur": 228, 
                            "type": "note", 
                            "channel": 3
                        }, 
                        {
                            "pitch": 57, 
                            "t0": 165120, 
                            "v": 104, 
                            "dur": 228, 
                            "type": "note", 
                            "channel": 3
                        }, 
                        {
                            "pitch": 93, 
                            "t0": 165120, 
                            "v": 104, 
                            "dur": 952, 
                            "type": "note", 
                            "channel": 5
                        }, 
                        {
                            "pitch": 61, 
                            "t0": 165120, 
                            "v": 104, 
                            "dur": 952, 
                            "type": "note", 
                            "channel": 5
                        }
                    ]
                ], 
                [
                    165125, 
                    [
                        {
                            "bpm": 91.000091000091, 
                            "type": "tempo", 
                            "mpqn": 659340, 
                            "t0": 165125
                        }
                    ]
                ], 
                [
                    165305, 
                    [
                        {
                            "bpm": 89.00004005001803, 
                            "type": "tempo", 
                            "mpqn": 674157, 
                            "t0": 165305
                        }
                    ]
                ], 
                [
                    165360, 
                    [
                        {
                            "pitch": 38, 
                            "t0": 165360, 
                            "v": 120, 
                            "dur": 54, 
                            "type": "note", 
                            "channel": 9
                        }, 
                        {
                            "pitch": 46, 
                            "t0": 165360, 
                            "v": 88, 
                            "dur": 54, 
                            "type": "note", 
                            "channel": 9
                        }, 
                        {
                            "pitch": 45, 
                            "t0": 165360, 
                            "v": 104, 
                            "dur": 216, 
                            "type": "note", 
                            "channel": 6
                        }, 
                        {
                            "pitch": 73, 
                            "t0": 165360, 
                            "v": 104, 
                            "dur": 223, 
                            "type": "note", 
                            "channel": 4
                        }, 
                        {
                            "pitch": 69, 
                            "t0": 165360, 
                            "v": 120, 
                            "dur": 223, 
                            "type": "note", 
                            "channel": 0
                        }, 
                        {
                            "pitch": 81, 
                            "t0": 165360, 
                            "v": 104, 
                            "dur": 228, 
                            "type": "note", 
                            "channel": 4
                        }, 
                        {
                            "pitch": 76, 
                            "t0": 165360, 
                            "v": 104, 
                            "dur": 228, 
                            "type": "note", 
                            "channel": 4
                        }, 
                        {
                            "pitch": 64, 
                            "t0": 165360, 
                            "v": 104, 
                            "dur": 228, 
                            "type": "note", 
                            "channel": 3
                        }, 
                        {
                            "pitch": 57, 
                            "t0": 165360, 
                            "v": 104, 
                            "dur": 228, 
                            "type": "note", 
                            "channel": 3
                        }
                    ]
                ], 
                [
                    165490, 
                    [
                        {
                            "bpm": 86.00005160003096, 
                            "type": "tempo", 
                            "mpqn": 697674, 
                            "t0": 165490
                        }
                    ]
                ], 
                [
                    165600, 
                    [
                        {
                            "pitch": 36, 
                            "t0": 165600, 
                            "v": 120, 
                            "dur": 54, 
                            "type": "note", 
                            "channel": 9
                        }, 
                        {
                            "pitch": 49, 
                            "t0": 165600, 
                            "v": 120, 
                            "dur": 54, 
                            "type": "note", 
                            "channel": 9
                        }, 
                        {
                            "pitch": 45, 
                            "t0": 165600, 
                            "v": 104, 
                            "dur": 216, 
                            "type": "note", 
                            "channel": 6
                        }, 
                        {
                            "pitch": 73, 
                            "t0": 165600, 
                            "v": 104, 
                            "dur": 223, 
                            "type": "note", 
                            "channel": 4
                        }, 
                        {
                            "pitch": 69, 
                            "t0": 165600, 
                            "v": 120, 
                            "dur": 223, 
                            "type": "note", 
                            "channel": 0
                        }, 
                        {
                            "pitch": 57, 
                            "t0": 165600, 
                            "v": 104, 
                            "dur": 228, 
                            "type": "note", 
                            "channel": 3
                        }, 
                        {
                            "pitch": 64, 
                            "t0": 165600, 
                            "v": 104, 
                            "dur": 228, 
                            "type": "note", 
                            "channel": 3
                        }, 
                        {
                            "pitch": 81, 
                            "t0": 165600, 
                            "v": 104, 
                            "dur": 456, 
                            "type": "note", 
                            "channel": 4
                        }, 
                        {
                            "pitch": 76, 
                            "t0": 165600, 
                            "v": 104, 
                            "dur": 456, 
                            "type": "note", 
                            "channel": 4
                        }
                    ]
                ], 
                [
                    165670, 
                    [
                        {
                            "bpm": 84.000084000084, 
                            "type": "tempo", 
                            "mpqn": 714285, 
                            "t0": 165670
                        }
                    ]
                ], 
                [
                    165840, 
                    [
                        {
                            "pitch": 38, 
                            "t0": 165840, 
                            "v": 120, 
                            "dur": 54, 
                            "type": "note", 
                            "channel": 9
                        }, 
                        {
                            "pitch": 46, 
                            "t0": 165840, 
                            "v": 88, 
                            "dur": 54, 
                            "type": "note", 
                            "channel": 9
                        }, 
                        {
                            "pitch": 44, 
                            "t0": 165840, 
                            "v": 104, 
                            "dur": 108, 
                            "type": "note", 
                            "channel": 6
                        }, 
                        {
                            "pitch": 75, 
                            "t0": 165840, 
                            "v": 104, 
                            "dur": 223, 
                            "type": "note", 
                            "channel": 10
                        }, 
                        {
                            "pitch": 69, 
                            "t0": 165840, 
                            "v": 120, 
                            "dur": 223, 
                            "type": "note", 
                            "channel": 1
                        }, 
                        {
                            "pitch": 71, 
                            "t0": 165840, 
                            "v": 120, 
                            "dur": 223, 
                            "type": "note", 
                            "channel": 0
                        }, 
                        {
                            "pitch": 64, 
                            "t0": 165840, 
                            "v": 104, 
                            "dur": 228, 
                            "type": "note", 
                            "channel": 3
                        }, 
                        {
                            "pitch": 57, 
                            "t0": 165840, 
                            "v": 104, 
                            "dur": 228, 
                            "type": "note", 
                            "channel": 3
                        }
                    ]
                ], 
                [
                    165855, 
                    [
                        {
                            "bpm": 82.00003553334874, 
                            "type": "tempo", 
                            "mpqn": 731707, 
                            "t0": 165855
                        }
                    ]
                ], 
                [
                    165960, 
                    [
                        {
                            "pitch": 45, 
                            "t0": 165960, 
                            "v": 104, 
                            "dur": 108, 
                            "type": "note", 
                            "channel": 6
                        }
                    ]
                ], 
                [
                    166035, 
                    [
                        {
                            "bpm": 80.0, 
                            "type": "tempo", 
                            "mpqn": 750000, 
                            "t0": 166035
                        }
                    ]
                ], 
                [
                    166080, 
                    [
                        {
                            "pitch": 36, 
                            "t0": 166080, 
                            "v": 120, 
                            "dur": 54, 
                            "type": "note", 
                            "channel": 9
                        }, 
                        {
                            "pitch": 49, 
                            "t0": 166080, 
                            "v": 120, 
                            "dur": 54, 
                            "type": "note", 
                            "channel": 9
                        }, 
                        {
                            "pitch": 47, 
                            "t0": 166080, 
                            "v": 104, 
                            "dur": 216, 
                            "type": "note", 
                            "channel": 6
                        }, 
                        {
                            "pitch": 71, 
                            "t0": 166080, 
                            "parts": [
                                [
                                    166080, 
                                    120
                                ], 
                                [
                                    166080, 
                                    104
                                ], 
                                [
                                    166303, 
                                    0
                                ]
                            ], 
                            "v": 120, 
                            "dur": 223, 
                            "type": "note", 
                            "channel": 1
                        }, 
                        {
                            "pitch": 66, 
                            "t0": 166080, 
                            "parts": [
                                [
                                    166080, 
                                    120
                                ], 
                                [
                                    166080, 
                                    104
                                ], 
                                [
                                    166303, 
                                    0
                                ]
                            ], 
                            "v": 120, 
                            "dur": 223, 
                            "type": "note", 
                            "channel": 0
                        }, 
                        {
                            "pitch": 78, 
                            "t0": 166080, 
                            "v": 104, 
                            "dur": 228, 
                            "type": "note", 
                            "channel": 4
                        }, 
                        {
                            "pitch": 83, 
                            "t0": 166080, 
                            "v": 104, 
                            "dur": 228, 
                            "type": "note", 
                            "channel": 4
                        }, 
                        {
                            "pitch": 75, 
                            "t0": 166080, 
                            "v": 104, 
                            "dur": 228, 
                            "type": "note", 
                            "channel": 4
                        }, 
                        {
                            "pitch": 59, 
                            "t0": 166080, 
                            "v": 104, 
                            "dur": 228, 
                            "type": "note", 
                            "channel": 3
                        }, 
                        {
                            "pitch": 63, 
                            "t0": 166080, 
                            "parts": [
                                [
                                    166080, 
                                    104
                                ], 
                                [
                                    166560, 
                                    120
                                ], 
                                [
                                    166783, 
                                    0
                                ]
                            ], 
                            "v": 104, 
                            "dur": 703, 
                            "type": "note", 
                            "channel": 5
                        }, 
                        {
                            "pitch": 95, 
                            "t0": 166080, 
                            "v": 104, 
                            "dur": 952, 
                            "type": "note", 
                            "channel": 5
                        }
                    ]
                ], 
                [
                    166220, 
                    [
                        {
                            "bpm": 78.000078000078, 
                            "type": "tempo", 
                            "mpqn": 769230, 
                            "t0": 166220
                        }
                    ]
                ], 
                [
                    166320, 
                    [
                        {
                            "pitch": 38, 
                            "t0": 166320, 
                            "v": 120, 
                            "dur": 54, 
                            "type": "note", 
                            "channel": 9
                        }, 
                        {
                            "pitch": 46, 
                            "t0": 166320, 
                            "v": 88, 
                            "dur": 54, 
                            "type": "note", 
                            "channel": 9
                        }, 
                        {
                            "pitch": 47, 
                            "t0": 166320, 
                            "v": 104, 
                            "dur": 216, 
                            "type": "note", 
                            "channel": 6
                        }, 
                        {
                            "pitch": 75, 
                            "t0": 166320, 
                            "v": 104, 
                            "dur": 223, 
                            "type": "note", 
                            "channel": 4
                        }, 
                        {
                            "pitch": 71, 
                            "t0": 166320, 
                            "v": 120, 
                            "dur": 223, 
                            "type": "note", 
                            "channel": 0
                        }, 
                        {
                            "pitch": 78, 
                            "t0": 166320, 
                            "v": 104, 
                            "dur": 228, 
                            "type": "note", 
                            "channel": 4
                        }, 
                        {
                            "pitch": 83, 
                            "t0": 166320, 
                            "v": 104, 
                            "dur": 228, 
                            "type": "note", 
                            "channel": 4
                        }, 
                        {
                            "pitch": 66, 
                            "t0": 166320, 
                            "v": 104, 
                            "dur": 228, 
                            "type": "note", 
                            "channel": 3
                        }, 
                        {
                            "pitch": 59, 
                            "t0": 166320, 
                            "v": 104, 
                            "dur": 228, 
                            "type": "note", 
                            "channel": 3
                        }
                    ]
                ], 
                [
                    166405, 
                    [
                        {
                            "bpm": 76.00006586672374, 
                            "type": "tempo", 
                            "mpqn": 789473, 
                            "t0": 166405
                        }
                    ]
                ], 
                [
                    166560, 
                    [
                        {
                            "pitch": 36, 
                            "t0": 166560, 
                            "v": 120, 
                            "dur": 54, 
                            "type": "note", 
                            "channel": 9
                        }, 
                        {
                            "pitch": 49, 
                            "t0": 166560, 
                            "v": 120, 
                            "dur": 54, 
                            "type": "note", 
                            "channel": 9
                        }, 
                        {
                            "pitch": 47, 
                            "t0": 166560, 
                            "v": 104, 
                            "dur": 216, 
                            "type": "note", 
                            "channel": 6
                        }, 
                        {
                            "pitch": 68, 
                            "t0": 166560, 
                            "v": 104, 
                            "dur": 223, 
                            "type": "note", 
                            "channel": 10
                        }, 
                        {
                            "pitch": 71, 
                            "t0": 166560, 
                            "v": 120, 
                            "dur": 223, 
                            "type": "note", 
                            "channel": 1
                        }, 
                        {
                            "pitch": 66, 
                            "t0": 166560, 
                            "v": 104, 
                            "dur": 228, 
                            "type": "note", 
                            "channel": 3
                        }, 
                        {
                            "pitch": 59, 
                            "t0": 166560, 
                            "v": 104, 
                            "dur": 228, 
                            "type": "note", 
                            "channel": 3
                        }, 
                        {
                            "pitch": 78, 
                            "t0": 166560, 
                            "v": 104, 
                            "dur": 456, 
                            "type": "note", 
                            "channel": 4
                        }, 
                        {
                            "pitch": 83, 
                            "t0": 166560, 
                            "v": 104, 
                            "dur": 456, 
                            "type": "note", 
                            "channel": 4
                        }, 
                        {
                            "pitch": 75, 
                            "t0": 166560, 
                            "v": 104, 
                            "dur": 456, 
                            "type": "note", 
                            "channel": 4
                        }
                    ]
                ], 
                [
                    166585, 
                    [
                        {
                            "bpm": 73.00007178340392, 
                            "type": "tempo", 
                            "mpqn": 821917, 
                            "t0": 166585
                        }
                    ]
                ], 
                [
                    166770, 
                    [
                        {
                            "bpm": 71.00003550001774, 
                            "type": "tempo", 
                            "mpqn": 845070, 
                            "t0": 166770
                        }
                    ]
                ], 
                [
                    166800, 
                    [
                        {
                            "pitch": 38, 
                            "t0": 166800, 
                            "v": 120, 
                            "dur": 54, 
                            "type": "note", 
                            "channel": 9
                        }, 
                        {
                            "pitch": 46, 
                            "t0": 166800, 
                            "v": 88, 
                            "dur": 54, 
                            "type": "note", 
                            "channel": 9
                        }, 
                        {
                            "pitch": 47, 
                            "t0": 166800, 
                            "v": 104, 
                            "dur": 216, 
                            "type": "note", 
                            "channel": 6
                        }, 
                        {
                            "pitch": 71, 
                            "t0": 166800, 
                            "parts": [
                                [
                                    166800, 
                                    120
                                ], 
                                [
                                    166800, 
                                    104
                                ], 
                                [
                                    167023, 
                                    0
                                ]
                            ], 
                            "v": 120, 
                            "dur": 223, 
                            "type": "note", 
                            "channel": 1
                        }, 
                        {
                            "pitch": 66, 
                            "t0": 166800, 
                            "parts": [
                                [
                                    166800, 
                                    120
                                ], 
                                [
                                    166800, 
                                    104
                                ], 
                                [
                                    167023, 
                                    0
                                ]
                            ], 
                            "v": 120, 
                            "dur": 223, 
                            "type": "note", 
                            "channel": 0
                        }, 
                        {
                            "pitch": 59, 
                            "t0": 166800, 
                            "v": 104, 
                            "dur": 228, 
                            "type": "note", 
                            "channel": 3
                        }
                    ]
                ], 
                [
                    166950, 
                    [
                        {
                            "bpm": 69.00001725000432, 
                            "type": "tempo", 
                            "mpqn": 869565, 
                            "t0": 166950
                        }
                    ]
                ], 
                [
                    167024, 
                    [
                        {
                            "bpm": 70.00007000007, 
                            "type": "tempo", 
                            "mpqn": 857142, 
                            "t0": 167024
                        }
                    ]
                ], 
                [
                    167029, 
                    [
                        {
                            "bpm": 67.00002903334591, 
                            "type": "tempo", 
                            "mpqn": 895522, 
                            "t0": 167029
                        }
                    ]
                ], 
                [
                    167040, 
                    [
                        {
                            "pitch": 36, 
                            "t0": 167040, 
                            "v": 120, 
                            "dur": 54, 
                            "type": "note", 
                            "channel": 9
                        }, 
                        {
                            "pitch": 49, 
                            "t0": 167040, 
                            "v": 120, 
                            "dur": 54, 
                            "type": "note", 
                            "channel": 9
                        }, 
                        {
                            "pitch": 68, 
                            "t0": 167040, 
                            "parts": [
                                [
                                    167040, 
                                    127
                                ], 
                                [
                                    167040, 
                                    104
                                ], 
                                [
                                    167263, 
                                    0
                                ]
                            ], 
                            "v": 127, 
                            "dur": 223, 
                            "type": "note", 
                            "channel": 1
                        }, 
                        {
                            "pitch": 83, 
                            "t0": 167040, 
                            "v": 104, 
                            "dur": 228, 
                            "type": "note", 
                            "channel": 4
                        }, 
                        {
                            "pitch": 80, 
                            "t0": 167040, 
                            "v": 104, 
                            "dur": 228, 
                            "type": "note", 
                            "channel": 4
                        }, 
                        {
                            "pitch": 76, 
                            "t0": 167040, 
                            "v": 104, 
                            "dur": 228, 
                            "type": "note", 
                            "channel": 4
                        }, 
                        {
                            "pitch": 40, 
                            "t0": 167040, 
                            "v": 104, 
                            "dur": 432, 
                            "type": "note", 
                            "channel": 6
                        }, 
                        {
                            "pitch": 59, 
                            "t0": 167040, 
                            "parts": [
                                [
                                    167040, 
                                    104
                                ], 
                                [
                                    167280, 
                                    127
                                ], 
                                [
                                    167503, 
                                    0
                                ]
                            ], 
                            "v": 104, 
                            "dur": 463, 
                            "type": "note", 
                            "channel": 3
                        }, 
                        {
                            "pitch": 71, 
                            "t0": 167040, 
                            "parts": [
                                [
                                    167040, 
                                    104
                                ], 
                                [
                                    167520, 
                                    125
                                ], 
                                [
                                    167743, 
                                    0
                                ]
                            ], 
                            "v": 104, 
                            "dur": 703, 
                            "type": "note", 
                            "channel": 5
                        }, 
                        {
                            "pitch": 64, 
                            "t0": 167040, 
                            "parts": [
                                [
                                    167040, 
                                    120
                                ], 
                                [
                                    167040, 
                                    104
                                ], 
                                [
                                    167932, 
                                    0
                                ]
                            ], 
                            "v": 120, 
                            "dur": 892, 
                            "type": "note", 
                            "channel": 0
                        }, 
                        {
                            "pitch": 52, 
                            "t0": 167040, 
                            "v": 104, 
                            "dur": 912, 
                            "type": "note", 
                            "channel": 3
                        }, 
                        {
                            "pitch": 95, 
                            "t0": 167040, 
                            "v": 104, 
                            "dur": 952, 
                            "type": "note", 
                            "channel": 5
                        }
                    ]
                ], 
                [
                    167189, 
                    [
                        {
                            "bpm": 65.000065000065, 
                            "type": "tempo", 
                            "mpqn": 923076, 
                            "t0": 167189
                        }
                    ]
                ], 
                [
                    167280, 
                    [
                        {
                            "pitch": 38, 
                            "t0": 167280, 
                            "v": 120, 
                            "dur": 54, 
                            "type": "note", 
                            "channel": 9
                        }, 
                        {
                            "pitch": 46, 
                            "t0": 167280, 
                            "v": 88, 
                            "dur": 54, 
                            "type": "note", 
                            "channel": 9
                        }, 
                        {
                            "pitch": 83, 
                            "t0": 167280, 
                            "v": 104, 
                            "dur": 228, 
                            "type": "note", 
                            "channel": 4
                        }, 
                        {
                            "pitch": 76, 
                            "t0": 167280, 
                            "v": 104, 
                            "dur": 228, 
                            "type": "note", 
                            "channel": 4
                        }, 
                        {
                            "pitch": 80, 
                            "t0": 167280, 
                            "v": 104, 
                            "dur": 228, 
                            "type": "note", 
                            "channel": 4
                        }
                    ]
                ], 
                [
                    167349, 
                    [
                        {
                            "bpm": 63.000063000063, 
                            "type": "tempo", 
                            "mpqn": 952380, 
                            "t0": 167349
                        }
                    ]
                ], 
                [
                    167514, 
                    [
                        {
                            "bpm": 60.0, 
                            "type": "tempo", 
                            "mpqn": 1000000, 
                            "t0": 167514
                        }
                    ]
                ], 
                [
                    167520, 
                    [
                        {
                            "pitch": 36, 
                            "t0": 167520, 
                            "v": 120, 
                            "dur": 54, 
                            "type": "note", 
                            "channel": 9
                        }, 
                        {
                            "pitch": 49, 
                            "t0": 167520, 
                            "v": 120, 
                            "dur": 54, 
                            "type": "note", 
                            "channel": 9
                        }, 
                        {
                            "pitch": 40, 
                            "t0": 167520, 
                            "v": 104, 
                            "dur": 432, 
                            "type": "note", 
                            "channel": 6
                        }, 
                        {
                            "pitch": 83, 
                            "t0": 167520, 
                            "v": 104, 
                            "dur": 456, 
                            "type": "note", 
                            "channel": 4
                        }, 
                        {
                            "pitch": 76, 
                            "t0": 167520, 
                            "v": 104, 
                            "dur": 456, 
                            "type": "note", 
                            "channel": 4
                        }, 
                        {
                            "pitch": 80, 
                            "t0": 167520, 
                            "v": 104, 
                            "dur": 456, 
                            "type": "note", 
                            "channel": 4
                        }
                    ]
                ], 
                [
                    167674, 
                    [
                        {
                            "bpm": 58.00004253336452, 
                            "type": "tempo", 
                            "mpqn": 1034482, 
                            "t0": 167674
                        }
                    ]
                ], 
                [
                    167760, 
                    [
                        {
                            "pitch": 38, 
                            "t0": 167760, 
                            "v": 120, 
                            "dur": 54, 
                            "type": "note", 
                            "channel": 9
                        }, 
                        {
                            "pitch": 46, 
                            "t0": 167760, 
                            "v": 88, 
                            "dur": 54, 
                            "type": "note", 
                            "channel": 9
                        }, 
                        {
                            "pitch": 68, 
                            "t0": 167760, 
                            "v": 125, 
                            "dur": 172, 
                            "type": "note", 
                            "channel": 1
                        }
                    ]
                ], 
                [
                    167839, 
                    [
                        {
                            "bpm": 56.000029866682596, 
                            "type": "tempo", 
                            "mpqn": 1071428, 
                            "t0": 167839
                        }
                    ]
                ], 
                [
                    167999, 
                    [
                        {
                            "bpm": 53.000022083342536, 
                            "type": "tempo", 
                            "mpqn": 1132075, 
                            "t0": 167999
                        }
                    ]
                ], 
                [
                    168000, 
                    [
                        {
                            "pitch": 36, 
                            "t0": 168000, 
                            "v": 120, 
                            "dur": 54, 
                            "type": "note", 
                            "channel": 9
                        }, 
                        {
                            "pitch": 49, 
                            "t0": 168000, 
                            "v": 120, 
                            "dur": 54, 
                            "type": "note", 
                            "channel": 9
                        }, 
                        {
                            "pitch": 69, 
                            "t0": 168000, 
                            "parts": [
                                [
                                    168000, 
                                    123
                                ], 
                                [
                                    168000, 
                                    104
                                ], 
                                [
                                    168223, 
                                    0
                                ]
                            ], 
                            "v": 123, 
                            "dur": 223, 
                            "type": "note", 
                            "channel": 1
                        }, 
                        {
                            "pitch": 45, 
                            "t0": 168000, 
                            "v": 104, 
                            "dur": 432, 
                            "type": "note", 
                            "channel": 6
                        }, 
                        {
                            "pitch": 81, 
                            "t0": 168000, 
                            "v": 104, 
                            "dur": 456, 
                            "type": "note", 
                            "channel": 4
                        }, 
                        {
                            "pitch": 76, 
                            "t0": 168000, 
                            "v": 104, 
                            "dur": 456, 
                            "type": "note", 
                            "channel": 4
                        }, 
                        {
                            "pitch": 73, 
                            "t0": 168000, 
                            "v": 104, 
                            "dur": 456, 
                            "type": "note", 
                            "channel": 4
                        }, 
                        {
                            "pitch": 64, 
                            "t0": 168000, 
                            "v": 104, 
                            "dur": 456, 
                            "type": "note", 
                            "channel": 3
                        }, 
                        {
                            "pitch": 57, 
                            "t0": 168000, 
                            "v": 104, 
                            "dur": 456, 
                            "type": "note", 
                            "channel": 3
                        }, 
                        {
                            "pitch": 93, 
                            "t0": 168000, 
                            "v": 104, 
                            "dur": 465, 
                            "type": "note", 
                            "channel": 5
                        }, 
                        {
                            "pitch": 61, 
                            "t0": 168000, 
                            "v": 104, 
                            "dur": 465, 
                            "type": "note", 
                            "channel": 5
                        }
                    ]
                ], 
                [
                    168164, 
                    [
                        {
                            "bpm": 51.00002550001275, 
                            "type": "tempo", 
                            "mpqn": 1176470, 
                            "t0": 168164
                        }
                    ]
                ], 
                [
                    168240, 
                    [
                        {
                            "pitch": 38, 
                            "t0": 168240, 
                            "v": 120, 
                            "dur": 54, 
                            "type": "note", 
                            "channel": 9
                        }, 
                        {
                            "pitch": 46, 
                            "t0": 168240, 
                            "v": 88, 
                            "dur": 54, 
                            "type": "note", 
                            "channel": 9
                        }, 
                        {
                            "pitch": 71, 
                            "t0": 168240, 
                            "v": 121, 
                            "dur": 223, 
                            "type": "note", 
                            "channel": 1
                        }
                    ]
                ], 
                [
                    168324, 
                    [
                        {
                            "bpm": 49.000031850020704, 
                            "type": "tempo", 
                            "mpqn": 1224489, 
                            "t0": 168324
                        }
                    ]
                ], 
                [
                    168480, 
                    [
                        {
                            "pitch": 48, 
                            "t0": 168480, 
                            "v": 104, 
                            "dur": 108, 
                            "type": "note", 
                            "channel": 9
                        }, 
                        {
                            "pitch": 75, 
                            "t0": 168480, 
                            "parts": [
                                [
                                    168480, 
                                    121
                                ], 
                                [
                                    168480, 
                                    104
                                ], 
                                [
                                    168703, 
                                    0
                                ]
                            ], 
                            "v": 121, 
                            "dur": 223, 
                            "type": "note", 
                            "channel": 1
                        }, 
                        {
                            "pitch": 47, 
                            "t0": 168480, 
                            "parts": [
                                [
                                    168480, 
                                    104
                                ], 
                                [
                                    168720, 
                                    88
                                ], 
                                [
                                    168828, 
                                    0
                                ]
                            ], 
                            "v": 104, 
                            "dur": 348, 
                            "type": "note", 
                            "channel": 6
                        }, 
                        {
                            "pitch": 83, 
                            "t0": 168480, 
                            "v": 104, 
                            "dur": 456, 
                            "type": "note", 
                            "channel": 4
                        }, 
                        {
                            "pitch": 78, 
                            "t0": 168480, 
                            "parts": [
                                [
                                    168480, 
                                    104
                                ], 
                                [
                                    168720, 
                                    119
                                ], 
                                [
                                    168936, 
                                    0
                                ]
                            ], 
                            "v": 104, 
                            "dur": 456, 
                            "type": "note", 
                            "channel": 4
                        }, 
                        {
                            "pitch": 59, 
                            "t0": 168480, 
                            "v": 104, 
                            "dur": 456, 
                            "type": "note", 
                            "channel": 3
                        }, 
                        {
                            "pitch": 66, 
                            "t0": 168480, 
                            "v": 104, 
                            "dur": 456, 
                            "type": "note", 
                            "channel": 3
                        }, 
                        {
                            "pitch": 95, 
                            "t0": 168480, 
                            "v": 104, 
                            "dur": 465, 
                            "type": "note", 
                            "channel": 5
                        }, 
                        {
                            "pitch": 71, 
                            "t0": 168480, 
                            "v": 104, 
                            "dur": 465, 
                            "type": "note", 
                            "channel": 5
                        }, 
                        {
                            "pitch": 63, 
                            "t0": 168480, 
                            "v": 104, 
                            "dur": 465, 
                            "type": "note", 
                            "channel": 5
                        }
                    ]
                ], 
                [
                    168489, 
                    [
                        {
                            "bpm": 46.00002913335179, 
                            "type": "tempo", 
                            "mpqn": 1304347, 
                            "t0": 168489
                        }
                    ]
                ], 
                [
                    168600, 
                    [
                        {
                            "pitch": 48, 
                            "t0": 168600, 
                            "v": 104, 
                            "dur": 108, 
                            "type": "note", 
                            "channel": 9
                        }
                    ]
                ], 
                [
                    168649, 
                    [
                        {
                            "bpm": 44.000011733336464, 
                            "type": "tempo", 
                            "mpqn": 1363636, 
                            "t0": 168649
                        }
                    ]
                ], 
                [
                    168814, 
                    [
                        {
                            "bpm": 42.00001260000378, 
                            "type": "tempo", 
                            "mpqn": 1428571, 
                            "t0": 168814
                        }
                    ]
                ], 
                [
                    168944, 
                    [
                        {
                            "bpm": 35.00001458333941, 
                            "type": "tempo", 
                            "mpqn": 1714285, 
                            "t0": 168944
                        }
                    ]
                ], 
                [
                    168960, 
                    [
                        {
                            "pitch": 49, 
                            "t0": 168960, 
                            "v": 120, 
                            "dur": 72, 
                            "type": "note", 
                            "channel": 9
                        }, 
                        {
                            "pitch": 36, 
                            "t0": 168960, 
                            "v": 104, 
                            "dur": 108, 
                            "type": "note", 
                            "channel": 9
                        }, 
                        {
                            "pitch": 40, 
                            "t0": 168960, 
                            "v": 104, 
                            "dur": 1728, 
                            "type": "note", 
                            "channel": 6
                        }, 
                        {
                            "pitch": 76, 
                            "t0": 168960, 
                            "parts": [
                                [
                                    168960, 
                                    117
                                ], 
                                [
                                    169040, 
                                    104
                                ], 
                                [
                                    170745, 
                                    0
                                ]
                            ], 
                            "v": 117, 
                            "dur": 1785, 
                            "type": "note", 
                            "channel": 1
                        }, 
                        {
                            "pitch": 68, 
                            "t0": 168960, 
                            "parts": [
                                [
                                    168960, 
                                    104
                                ], 
                                [
                                    169000, 
                                    104
                                ], 
                                [
                                    170784, 
                                    0
                                ]
                            ], 
                            "v": 104, 
                            "dur": 1824, 
                            "type": "note", 
                            "channel": 4
                        }, 
                        {
                            "pitch": 52, 
                            "t0": 168960, 
                            "parts": [
                                [
                                    168960, 
                                    104
                                ], 
                                [
                                    169060, 
                                    104
                                ], 
                                [
                                    170784, 
                                    0
                                ]
                            ], 
                            "v": 104, 
                            "dur": 1824, 
                            "type": "note", 
                            "channel": 3
                        }, 
                        {
                            "pitch": 71, 
                            "t0": 168960, 
                            "parts": [
                                [
                                    168960, 
                                    104
                                ], 
                                [
                                    168980, 
                                    104
                                ], 
                                [
                                    170804, 
                                    0
                                ]
                            ], 
                            "v": 104, 
                            "dur": 1844, 
                            "type": "note", 
                            "channel": 5
                        }, 
                        {
                            "pitch": 64, 
                            "t0": 168960, 
                            "parts": [
                                [
                                    168960, 
                                    104
                                ], 
                                [
                                    168980, 
                                    104
                                ], 
                                [
                                    169000, 
                                    104
                                ], 
                                [
                                    170804, 
                                    0
                                ]
                            ], 
                            "v": 104, 
                            "dur": 1844, 
                            "type": "note", 
                            "channel": 5
                        }, 
                        {
                            "pitch": 95, 
                            "t0": 168960, 
                            "v": 104, 
                            "dur": 1896, 
                            "type": "note", 
                            "channel": 5
                        }
                    ]
                ], 
                [
                    169020, 
                    [
                        {
                            "pitch": 59, 
                            "t0": 169020, 
                            "v": 104, 
                            "dur": 1824, 
                            "type": "note", 
                            "channel": 3
                        }
                    ]
                ], 
                [
                    169040, 
                    [
                        {
                            "pitch": 49, 
                            "t0": 169040, 
                            "v": 89, 
                            "dur": 36, 
                            "type": "note", 
                            "channel": 9
                        }
                    ]
                ], 
                [
                    169080, 
                    [
                        {
                            "pitch": 49, 
                            "t0": 169080, 
                            "v": 89, 
                            "dur": 36, 
                            "type": "note", 
                            "channel": 9
                        }
                    ]
                ], 
                [
                    169120, 
                    [
                        {
                            "pitch": 49, 
                            "t0": 169120, 
                            "v": 87, 
                            "dur": 36, 
                            "type": "note", 
                            "channel": 9
                        }
                    ]
                ], 
                [
                    169160, 
                    [
                        {
                            "pitch": 49, 
                            "t0": 169160, 
                            "v": 85, 
                            "dur": 36, 
                            "type": "note", 
                            "channel": 9
                        }
                    ]
                ], 
                [
                    169200, 
                    [
                        {
                            "pitch": 49, 
                            "t0": 169200, 
                            "v": 85, 
                            "dur": 36, 
                            "type": "note", 
                            "channel": 9
                        }
                    ]
                ], 
                [
                    169240, 
                    [
                        {
                            "pitch": 49, 
                            "t0": 169240, 
                            "v": 84, 
                            "dur": 36, 
                            "type": "note", 
                            "channel": 9
                        }
                    ]
                ], 
                [
                    169280, 
                    [
                        {
                            "pitch": 49, 
                            "t0": 169280, 
                            "v": 82, 
                            "dur": 36, 
                            "type": "note", 
                            "channel": 9
                        }
                    ]
                ], 
                [
                    169320, 
                    [
                        {
                            "pitch": 49, 
                            "t0": 169320, 
                            "v": 82, 
                            "dur": 36, 
                            "type": "note", 
                            "channel": 9
                        }
                    ]
                ], 
                [
                    169360, 
                    [
                        {
                            "pitch": 49, 
                            "t0": 169360, 
                            "v": 80, 
                            "dur": 36, 
                            "type": "note", 
                            "channel": 9
                        }
                    ]
                ], 
                [
                    169400, 
                    [
                        {
                            "pitch": 49, 
                            "t0": 169400, 
                            "v": 78, 
                            "dur": 36, 
                            "type": "note", 
                            "channel": 9
                        }
                    ]
                ], 
                [
                    169440, 
                    [
                        {
                            "pitch": 49, 
                            "t0": 169440, 
                            "v": 78, 
                            "dur": 36, 
                            "type": "note", 
                            "channel": 9
                        }
                    ]
                ], 
                [
                    169480, 
                    [
                        {
                            "pitch": 49, 
                            "t0": 169480, 
                            "v": 76, 
                            "dur": 36, 
                            "type": "note", 
                            "channel": 9
                        }
                    ]
                ], 
                [
                    169520, 
                    [
                        {
                            "pitch": 49, 
                            "t0": 169520, 
                            "v": 74, 
                            "dur": 36, 
                            "type": "note", 
                            "channel": 9
                        }
                    ]
                ], 
                [
                    169560, 
                    [
                        {
                            "pitch": 49, 
                            "t0": 169560, 
                            "v": 74, 
                            "dur": 36, 
                            "type": "note", 
                            "channel": 9
                        }
                    ]
                ], 
                [
                    169600, 
                    [
                        {
                            "pitch": 49, 
                            "t0": 169600, 
                            "v": 72, 
                            "dur": 36, 
                            "type": "note", 
                            "channel": 9
                        }
                    ]
                ], 
                [
                    169640, 
                    [
                        {
                            "pitch": 49, 
                            "t0": 169640, 
                            "v": 70, 
                            "dur": 36, 
                            "type": "note", 
                            "channel": 9
                        }
                    ]
                ], 
                [
                    169680, 
                    [
                        {
                            "pitch": 49, 
                            "t0": 169680, 
                            "v": 68, 
                            "dur": 36, 
                            "type": "note", 
                            "channel": 9
                        }
                    ]
                ], 
                [
                    169720, 
                    [
                        {
                            "pitch": 49, 
                            "t0": 169720, 
                            "v": 68, 
                            "dur": 36, 
                            "type": "note", 
                            "channel": 9
                        }
                    ]
                ], 
                [
                    169760, 
                    [
                        {
                            "pitch": 49, 
                            "t0": 169760, 
                            "v": 66, 
                            "dur": 36, 
                            "type": "note", 
                            "channel": 9
                        }
                    ]
                ], 
                [
                    169800, 
                    [
                        {
                            "pitch": 49, 
                            "t0": 169800, 
                            "v": 64, 
                            "dur": 36, 
                            "type": "note", 
                            "channel": 9
                        }
                    ]
                ], 
                [
                    169840, 
                    [
                        {
                            "pitch": 49, 
                            "t0": 169840, 
                            "v": 64, 
                            "dur": 36, 
                            "type": "note", 
                            "channel": 9
                        }
                    ]
                ], 
                [
                    169880, 
                    [
                        {
                            "pitch": 49, 
                            "t0": 169880, 
                            "v": 62, 
                            "dur": 36, 
                            "type": "note", 
                            "channel": 9
                        }
                    ]
                ], 
                [
                    169920, 
                    [
                        {
                            "pitch": 49, 
                            "t0": 169920, 
                            "v": 60, 
                            "dur": 36, 
                            "type": "note", 
                            "channel": 9
                        }
                    ]
                ], 
                [
                    169960, 
                    [
                        {
                            "pitch": 49, 
                            "t0": 169960, 
                            "v": 60, 
                            "dur": 36, 
                            "type": "note", 
                            "channel": 9
                        }
                    ]
                ], 
                [
                    170000, 
                    [
                        {
                            "pitch": 49, 
                            "t0": 170000, 
                            "v": 58, 
                            "dur": 36, 
                            "type": "note", 
                            "channel": 9
                        }
                    ]
                ], 
                [
                    170040, 
                    [
                        {
                            "pitch": 49, 
                            "t0": 170040, 
                            "v": 56, 
                            "dur": 36, 
                            "type": "note", 
                            "channel": 9
                        }
                    ]
                ], 
                [
                    170080, 
                    [
                        {
                            "pitch": 49, 
                            "t0": 170080, 
                            "v": 56, 
                            "dur": 36, 
                            "type": "note", 
                            "channel": 9
                        }
                    ]
                ], 
                [
                    170120, 
                    [
                        {
                            "pitch": 49, 
                            "t0": 170120, 
                            "v": 54, 
                            "dur": 36, 
                            "type": "note", 
                            "channel": 9
                        }
                    ]
                ], 
                [
                    170160, 
                    [
                        {
                            "pitch": 49, 
                            "t0": 170160, 
                            "v": 52, 
                            "dur": 36, 
                            "type": "note", 
                            "channel": 9
                        }
                    ]
                ], 
                [
                    170200, 
                    [
                        {
                            "pitch": 49, 
                            "t0": 170200, 
                            "v": 52, 
                            "dur": 36, 
                            "type": "note", 
                            "channel": 9
                        }
                    ]
                ], 
                [
                    170240, 
                    [
                        {
                            "pitch": 49, 
                            "t0": 170240, 
                            "v": 50, 
                            "dur": 36, 
                            "type": "note", 
                            "channel": 9
                        }
                    ]
                ], 
                [
                    170280, 
                    [
                        {
                            "pitch": 49, 
                            "t0": 170280, 
                            "v": 48, 
                            "dur": 36, 
                            "type": "note", 
                            "channel": 9
                        }
                    ]
                ], 
                [
                    170320, 
                    [
                        {
                            "pitch": 49, 
                            "t0": 170320, 
                            "v": 46, 
                            "dur": 36, 
                            "type": "note", 
                            "channel": 9
                        }
                    ]
                ], 
                [
                    170360, 
                    [
                        {
                            "pitch": 49, 
                            "t0": 170360, 
                            "v": 46, 
                            "dur": 36, 
                            "type": "note", 
                            "channel": 9
                        }
                    ]
                ], 
                [
                    170400, 
                    [
                        {
                            "pitch": 49, 
                            "t0": 170400, 
                            "v": 44, 
                            "dur": 36, 
                            "type": "note", 
                            "channel": 9
                        }
                    ]
                ], 
                [
                    170440, 
                    [
                        {
                            "pitch": 49, 
                            "t0": 170440, 
                            "v": 42, 
                            "dur": 36, 
                            "type": "note", 
                            "channel": 9
                        }
                    ]
                ], 
                [
                    170480, 
                    [
                        {
                            "pitch": 49, 
                            "t0": 170480, 
                            "v": 42, 
                            "dur": 36, 
                            "type": "note", 
                            "channel": 9
                        }
                    ]
                ], 
                [
                    170520, 
                    [
                        {
                            "pitch": 49, 
                            "t0": 170520, 
                            "v": 41, 
                            "dur": 36, 
                            "type": "note", 
                            "channel": 9
                        }
                    ]
                ], 
                [
                    170560, 
                    [
                        {
                            "pitch": 49, 
                            "t0": 170560, 
                            "v": 39, 
                            "dur": 36, 
                            "type": "note", 
                            "channel": 9
                        }
                    ]
                ], 
                [
                    170600, 
                    [
                        {
                            "pitch": 49, 
                            "t0": 170600, 
                            "v": 39, 
                            "dur": 36, 
                            "type": "note", 
                            "channel": 9
                        }
                    ]
                ], 
                [
                    170640, 
                    [
                        {
                            "pitch": 49, 
                            "t0": 170640, 
                            "v": 37, 
                            "dur": 36, 
                            "type": "note", 
                            "channel": 9
                        }
                    ]
                ], 
                [
                    170680, 
                    [
                        {
                            "pitch": 49, 
                            "t0": 170680, 
                            "v": 35, 
                            "dur": 36, 
                            "type": "note", 
                            "channel": 9
                        }
                    ]
                ], 
                [
                    170720, 
                    [
                        {
                            "pitch": 49, 
                            "t0": 170720, 
                            "v": 35, 
                            "dur": 36, 
                            "type": "note", 
                            "channel": 9
                        }
                    ]
                ], 
                [
                    170760, 
                    [
                        {
                            "pitch": 49, 
                            "t0": 170760, 
                            "v": 33, 
                            "dur": 36, 
                            "type": "note", 
                            "channel": 9
                        }
                    ]
                ], 
                [
                    170800, 
                    [
                        {
                            "pitch": 49, 
                            "t0": 170800, 
                            "v": 31, 
                            "dur": 36, 
                            "type": "note", 
                            "channel": 9
                        }
                    ]
                ], 
                [
                    170840, 
                    [
                        {
                            "pitch": 49, 
                            "t0": 170840, 
                            "v": 29, 
                            "dur": 36, 
                            "type": "note", 
                            "channel": 9
                        }
                    ]
                ]
            ], 
            "instruments": [
                0, 
                34, 
                100, 
                106, 
                75, 
                108, 
                116, 
                118, 
                88, 
                26, 
                90, 
                30
            ], 
            "tMax": 170876, 
            "channels": [
                0, 
                1, 
                2, 
                3, 
                4, 
                5, 
                6, 
                7, 
                8, 
                9, 
                10, 
                11, 
                12
            ], 
            "instrument": 118, 
            "numNotes": 4689, 
            "type": "TrackObj"
        }
    ], 
    "type": "MidiObj"
}