{
    "format": 0, 
    "instruments": [], 
    "resolution": 384, 
    "channels": [
        0
    ], 
    "tracks": [
        {
            "seq": [
                [
                    0, 
                    [
                        {
                            "bpm": 117.000117000117, 
                            "type": "tempo", 
                            "mpqn": 512820, 
                            "t0": 0
                        }
                    ]
                ], 
                [
                    3, 
                    [
                        {
                            "pitch": 77, 
                            "t0": 3, 
                            "v": 59, 
                            "dur": 763, 
                            "type": "note", 
                            "channel": 0
                        }
                    ]
                ], 
                [
                    10, 
                    [
                        {
                            "pitch": 49, 
                            "t0": 10, 
                            "v": 17, 
                            "dur": 463, 
                            "type": "note", 
                            "channel": 0
                        }
                    ]
                ], 
                [
                    473, 
                    [
                        {
                            "pitch": 56, 
                            "t0": 473, 
                            "v": 19, 
                            "dur": 438, 
                            "type": "note", 
                            "channel": 0
                        }
                    ]
                ], 
                [
                    752, 
                    [
                        {
                            "pitch": 73, 
                            "t0": 752, 
                            "v": 36, 
                            "dur": 206, 
                            "type": "note", 
                            "channel": 0
                        }
                    ]
                ], 
                [
                    925, 
                    [
                        {
                            "pitch": 68, 
                            "t0": 925, 
                            "v": 42, 
                            "dur": 1197, 
                            "type": "note", 
                            "channel": 0
                        }
                    ]
                ], 
                [
                    949, 
                    [
                        {
                            "pitch": 65, 
                            "t0": 949, 
                            "v": 18, 
                            "dur": 878, 
                            "type": "note", 
                            "channel": 0
                        }
                    ]
                ], 
                [
                    952, 
                    [
                        {
                            "pitch": 61, 
                            "t0": 952, 
                            "v": 16, 
                            "dur": 894, 
                            "type": "note", 
                            "channel": 0
                        }
                    ]
                ], 
                [
                    1237, 
                    [
                        {
                            "pitch": 56, 
                            "t0": 1237, 
                            "v": 24, 
                            "dur": 136, 
                            "type": "note", 
                            "channel": 0
                        }
                    ]
                ], 
                [
                    1518, 
                    [
                        {
                            "pitch": 56, 
                            "t0": 1518, 
                            "v": 19, 
                            "dur": 120, 
                            "type": "note", 
                            "channel": 0
                        }
                    ]
                ], 
                [
                    1793, 
                    [
                        {
                            "pitch": 56, 
                            "t0": 1793, 
                            "v": 19, 
                            "dur": 135, 
                            "type": "note", 
                            "channel": 0
                        }
                    ]
                ], 
                [
                    2035, 
                    [
                        {
                            "pitch": 70, 
                            "t0": 2035, 
                            "v": 47, 
                            "dur": 714, 
                            "type": "note", 
                            "channel": 0
                        }
                    ]
                ], 
                [
                    2060, 
                    [
                        {
                            "pitch": 61, 
                            "t0": 2060, 
                            "v": 24, 
                            "dur": 210, 
                            "type": "note", 
                            "channel": 0
                        }
                    ]
                ], 
                [
                    2067, 
                    [
                        {
                            "pitch": 65, 
                            "t0": 2067, 
                            "v": 23, 
                            "dur": 211, 
                            "type": "note", 
                            "channel": 0
                        }
                    ]
                ], 
                [
                    2334, 
                    [
                        {
                            "pitch": 56, 
                            "t0": 2334, 
                            "v": 17, 
                            "dur": 176, 
                            "type": "note", 
                            "channel": 0
                        }
                    ]
                ], 
                [
                    2659, 
                    [
                        {
                            "pitch": 72, 
                            "t0": 2659, 
                            "v": 48, 
                            "dur": 1836, 
                            "type": "note", 
                            "channel": 0
                        }
                    ]
                ], 
                [
                    2665, 
                    [
                        {
                            "pitch": 66, 
                            "t0": 2665, 
                            "v": 26, 
                            "dur": 1666, 
                            "type": "note", 
                            "channel": 0
                        }
                    ]
                ], 
                [
                    2677, 
                    [
                        {
                            "pitch": 63, 
                            "t0": 2677, 
                            "v": 28, 
                            "dur": 1551, 
                            "type": "note", 
                            "channel": 0
                        }
                    ]
                ], 
                [
                    2992, 
                    [
                        {
                            "pitch": 56, 
                            "t0": 2992, 
                            "v": 16, 
                            "dur": 114, 
                            "type": "note", 
                            "channel": 0
                        }
                    ]
                ], 
                [
                    3283, 
                    [
                        {
                            "pitch": 56, 
                            "t0": 3283, 
                            "v": 29, 
                            "dur": 101, 
                            "type": "note", 
                            "channel": 0
                        }
                    ]
                ], 
                [
                    3559, 
                    [
                        {
                            "pitch": 56, 
                            "t0": 3559, 
                            "v": 29, 
                            "dur": 198, 
                            "type": "note", 
                            "channel": 0
                        }
                    ]
                ], 
                [
                    3830, 
                    [
                        {
                            "pitch": 58, 
                            "t0": 3830, 
                            "v": 15, 
                            "dur": 270, 
                            "type": "note", 
                            "channel": 0
                        }
                    ]
                ], 
                [
                    4114, 
                    [
                        {
                            "pitch": 56, 
                            "t0": 4114, 
                            "v": 25, 
                            "dur": 281, 
                            "type": "note", 
                            "channel": 0
                        }
                    ]
                ], 
                [
                    4390, 
                    [
                        {
                            "pitch": 73, 
                            "t0": 4390, 
                            "v": 60, 
                            "dur": 699, 
                            "type": "note", 
                            "channel": 0
                        }
                    ]
                ], 
                [
                    4400, 
                    [
                        {
                            "pitch": 61, 
                            "t0": 4400, 
                            "v": 31, 
                            "dur": 402, 
                            "type": "note", 
                            "channel": 0
                        }
                    ]
                ], 
                [
                    4417, 
                    [
                        {
                            "pitch": 65, 
                            "t0": 4417, 
                            "v": 27, 
                            "dur": 326, 
                            "type": "note", 
                            "channel": 0
                        }
                    ]
                ], 
                [
                    4669, 
                    [
                        {
                            "pitch": 56, 
                            "t0": 4669, 
                            "v": 30, 
                            "dur": 252, 
                            "type": "note", 
                            "channel": 0
                        }
                    ]
                ], 
                [
                    4913, 
                    [
                        {
                            "pitch": 66, 
                            "t0": 4913, 
                            "v": 38, 
                            "dur": 432, 
                            "type": "note", 
                            "channel": 0
                        }
                    ]
                ], 
                [
                    4916, 
                    [
                        {
                            "pitch": 75, 
                            "t0": 4916, 
                            "v": 75, 
                            "dur": 655, 
                            "type": "note", 
                            "channel": 0
                        }
                    ]
                ], 
                [
                    4931, 
                    [
                        {
                            "pitch": 60, 
                            "t0": 4931, 
                            "v": 37, 
                            "dur": 1411, 
                            "type": "note", 
                            "channel": 0
                        }
                    ]
                ], 
                [
                    5256, 
                    [
                        {
                            "pitch": 56, 
                            "t0": 5256, 
                            "v": 24, 
                            "dur": 555, 
                            "type": "note", 
                            "channel": 0
                        }
                    ]
                ], 
                [
                    5456, 
                    [
                        {
                            "pitch": 77, 
                            "t0": 5456, 
                            "v": 71, 
                            "dur": 252, 
                            "type": "note", 
                            "channel": 0
                        }
                    ]
                ], 
                [
                    5463, 
                    [
                        {
                            "pitch": 68, 
                            "t0": 5463, 
                            "v": 35, 
                            "dur": 77, 
                            "type": "note", 
                            "channel": 0
                        }
                    ]
                ], 
                [
                    5643, 
                    [
                        {
                            "pitch": 70, 
                            "t0": 5643, 
                            "v": 45, 
                            "dur": 945, 
                            "type": "note", 
                            "channel": 0
                        }, 
                        {
                            "pitch": 78, 
                            "t0": 5643, 
                            "v": 72, 
                            "dur": 1234, 
                            "type": "note", 
                            "channel": 0
                        }
                    ]
                ], 
                [
                    5949, 
                    [
                        {
                            "pitch": 56, 
                            "t0": 5949, 
                            "v": 35, 
                            "dur": 115, 
                            "type": "note", 
                            "channel": 0
                        }
                    ]
                ], 
                [
                    6209, 
                    [
                        {
                            "pitch": 56, 
                            "t0": 6209, 
                            "v": 23, 
                            "dur": 100, 
                            "type": "note", 
                            "channel": 0
                        }
                    ]
                ], 
                [
                    6502, 
                    [
                        {
                            "pitch": 56, 
                            "t0": 6502, 
                            "v": 29, 
                            "dur": 381, 
                            "type": "note", 
                            "channel": 0
                        }
                    ]
                ], 
                [
                    6741, 
                    [
                        {
                            "pitch": 68, 
                            "t0": 6741, 
                            "v": 29, 
                            "dur": 294, 
                            "type": "note", 
                            "channel": 0
                        }, 
                        {
                            "pitch": 77, 
                            "t0": 6741, 
                            "v": 74, 
                            "dur": 410, 
                            "type": "note", 
                            "channel": 0
                        }
                    ]
                ], 
                [
                    6769, 
                    [
                        {
                            "pitch": 61, 
                            "t0": 6769, 
                            "v": 26, 
                            "dur": 304, 
                            "type": "note", 
                            "channel": 0
                        }
                    ]
                ], 
                [
                    7031, 
                    [
                        {
                            "pitch": 56, 
                            "t0": 7031, 
                            "v": 29, 
                            "dur": 75, 
                            "type": "note", 
                            "channel": 0
                        }
                    ]
                ], 
                [
                    7289, 
                    [
                        {
                            "pitch": 68, 
                            "t0": 7289, 
                            "v": 24, 
                            "dur": 355, 
                            "type": "note", 
                            "channel": 0
                        }, 
                        {
                            "pitch": 77, 
                            "t0": 7289, 
                            "v": 60, 
                            "dur": 989, 
                            "type": "note", 
                            "channel": 0
                        }
                    ]
                ], 
                [
                    7303, 
                    [
                        {
                            "pitch": 60, 
                            "t0": 7303, 
                            "v": 22, 
                            "dur": 862, 
                            "type": "note", 
                            "channel": 0
                        }
                    ]
                ], 
                [
                    7540, 
                    [
                        {
                            "pitch": 56, 
                            "t0": 7540, 
                            "v": 24, 
                            "dur": 160, 
                            "type": "note", 
                            "channel": 0
                        }
                    ]
                ], 
                [
                    7856, 
                    [
                        {
                            "pitch": 66, 
                            "t0": 7856, 
                            "v": 23, 
                            "dur": 415, 
                            "type": "note", 
                            "channel": 0
                        }
                    ]
                ], 
                [
                    8123, 
                    [
                        {
                            "pitch": 75, 
                            "t0": 8123, 
                            "v": 36, 
                            "dur": 487, 
                            "type": "note", 
                            "channel": 0
                        }
                    ]
                ], 
                [
                    8165, 
                    [
                        {
                            "pitch": 56, 
                            "t0": 8165, 
                            "v": 14, 
                            "dur": 131, 
                            "type": "note", 
                            "channel": 0
                        }
                    ]
                ], 
                [
                    8497, 
                    [
                        {
                            "pitch": 73, 
                            "t0": 8497, 
                            "v": 34, 
                            "dur": 508, 
                            "type": "note", 
                            "channel": 0
                        }
                    ]
                ], 
                [
                    8502, 
                    [
                        {
                            "pitch": 61, 
                            "t0": 8502, 
                            "v": 17, 
                            "dur": 386, 
                            "type": "note", 
                            "channel": 0
                        }
                    ]
                ], 
                [
                    8515, 
                    [
                        {
                            "pitch": 65, 
                            "t0": 8515, 
                            "v": 17, 
                            "dur": 340, 
                            "type": "note", 
                            "channel": 0
                        }
                    ]
                ], 
                [
                    8839, 
                    [
                        {
                            "pitch": 56, 
                            "t0": 8839, 
                            "v": 21, 
                            "dur": 312, 
                            "type": "note", 
                            "channel": 0
                        }
                    ]
                ], 
                [
                    8958, 
                    [
                        {
                            "pitch": 75, 
                            "t0": 8958, 
                            "v": 71, 
                            "dur": 93, 
                            "type": "note", 
                            "channel": 0
                        }
                    ]
                ], 
                [
                    9108, 
                    [
                        {
                            "pitch": 75, 
                            "t0": 9108, 
                            "v": 66, 
                            "dur": 163, 
                            "type": "note", 
                            "channel": 0
                        }
                    ]
                ], 
                [
                    9151, 
                    [
                        {
                            "pitch": 66, 
                            "t0": 9151, 
                            "v": 15, 
                            "dur": 507, 
                            "type": "note", 
                            "channel": 0
                        }
                    ]
                ], 
                [
                    9192, 
                    [
                        {
                            "pitch": 60, 
                            "t0": 9192, 
                            "v": 11, 
                            "dur": 508, 
                            "type": "note", 
                            "channel": 0
                        }
                    ]
                ], 
                [
                    9253, 
                    [
                        {
                            "pitch": 77, 
                            "t0": 9253, 
                            "v": 75, 
                            "dur": 129, 
                            "type": "note", 
                            "channel": 0
                        }
                    ]
                ], 
                [
                    9342, 
                    [
                        {
                            "pitch": 75, 
                            "t0": 9342, 
                            "v": 60, 
                            "dur": 123, 
                            "type": "note", 
                            "channel": 0
                        }
                    ]
                ], 
                [
                    9446, 
                    [
                        {
                            "pitch": 74, 
                            "t0": 9446, 
                            "v": 76, 
                            "dur": 148, 
                            "type": "note", 
                            "channel": 0
                        }
                    ]
                ], 
                [
                    9551, 
                    [
                        {
                            "pitch": 75, 
                            "t0": 9551, 
                            "v": 53, 
                            "dur": 149, 
                            "type": "note", 
                            "channel": 0
                        }, 
                        {
                            "pitch": 56, 
                            "t0": 9551, 
                            "v": 21, 
                            "dur": 240, 
                            "type": "note", 
                            "channel": 0
                        }
                    ]
                ], 
                [
                    9683, 
                    [
                        {
                            "pitch": 77, 
                            "t0": 9683, 
                            "v": 61, 
                            "dur": 123, 
                            "type": "note", 
                            "channel": 0
                        }
                    ]
                ], 
                [
                    9824, 
                    [
                        {
                            "pitch": 78, 
                            "t0": 9824, 
                            "v": 50, 
                            "dur": 354, 
                            "type": "note", 
                            "channel": 0
                        }
                    ]
                ], 
                [
                    10017, 
                    [
                        {
                            "pitch": 49, 
                            "t0": 10017, 
                            "v": 21, 
                            "dur": 534, 
                            "type": "note", 
                            "channel": 0
                        }
                    ]
                ], 
                [
                    10093, 
                    [
                        {
                            "pitch": 77, 
                            "t0": 10093, 
                            "v": 52, 
                            "dur": 727, 
                            "type": "note", 
                            "channel": 0
                        }
                    ]
                ], 
                [
                    10551, 
                    [
                        {
                            "pitch": 56, 
                            "t0": 10551, 
                            "v": 21, 
                            "dur": 282, 
                            "type": "note", 
                            "channel": 0
                        }
                    ]
                ], 
                [
                    10844, 
                    [
                        {
                            "pitch": 73, 
                            "t0": 10844, 
                            "v": 22, 
                            "dur": 217, 
                            "type": "note", 
                            "channel": 0
                        }
                    ]
                ], 
                [
                    11005, 
                    [
                        {
                            "pitch": 65, 
                            "t0": 11005, 
                            "v": 22, 
                            "dur": 1397, 
                            "type": "note", 
                            "channel": 0
                        }, 
                        {
                            "pitch": 61, 
                            "t0": 11005, 
                            "v": 20, 
                            "dur": 1494, 
                            "type": "note", 
                            "channel": 0
                        }
                    ]
                ], 
                [
                    11015, 
                    [
                        {
                            "pitch": 68, 
                            "t0": 11015, 
                            "v": 31, 
                            "dur": 1294, 
                            "type": "note", 
                            "channel": 0
                        }
                    ]
                ], 
                [
                    11340, 
                    [
                        {
                            "pitch": 56, 
                            "t0": 11340, 
                            "v": 22, 
                            "dur": 125, 
                            "type": "note", 
                            "channel": 0
                        }
                    ]
                ], 
                [
                    11649, 
                    [
                        {
                            "pitch": 56, 
                            "t0": 11649, 
                            "v": 18, 
                            "dur": 92, 
                            "type": "note", 
                            "channel": 0
                        }
                    ]
                ], 
                [
                    11964, 
                    [
                        {
                            "pitch": 56, 
                            "t0": 11964, 
                            "v": 20, 
                            "dur": 73, 
                            "type": "note", 
                            "channel": 0
                        }
                    ]
                ], 
                [
                    12215, 
                    [
                        {
                            "pitch": 70, 
                            "t0": 12215, 
                            "v": 35, 
                            "dur": 686, 
                            "type": "note", 
                            "channel": 0
                        }
                    ]
                ], 
                [
                    12232, 
                    [
                        {
                            "pitch": 56, 
                            "t0": 12232, 
                            "v": 19, 
                            "dur": 74, 
                            "type": "note", 
                            "channel": 0
                        }
                    ]
                ], 
                [
                    12527, 
                    [
                        {
                            "pitch": 56, 
                            "t0": 12527, 
                            "v": 21, 
                            "dur": 80, 
                            "type": "note", 
                            "channel": 0
                        }
                    ]
                ], 
                [
                    12811, 
                    [
                        {
                            "pitch": 72, 
                            "t0": 12811, 
                            "v": 39, 
                            "dur": 1860, 
                            "type": "note", 
                            "channel": 0
                        }
                    ]
                ], 
                [
                    12825, 
                    [
                        {
                            "pitch": 66, 
                            "t0": 12825, 
                            "v": 20, 
                            "dur": 1615, 
                            "type": "note", 
                            "channel": 0
                        }
                    ]
                ], 
                [
                    12831, 
                    [
                        {
                            "pitch": 63, 
                            "t0": 12831, 
                            "v": 25, 
                            "dur": 1514, 
                            "type": "note", 
                            "channel": 0
                        }
                    ]
                ], 
                [
                    13096, 
                    [
                        {
                            "pitch": 56, 
                            "t0": 13096, 
                            "v": 26, 
                            "dur": 71, 
                            "type": "note", 
                            "channel": 0
                        }
                    ]
                ], 
                [
                    13357, 
                    [
                        {
                            "pitch": 56, 
                            "t0": 13357, 
                            "v": 28, 
                            "dur": 58, 
                            "type": "note", 
                            "channel": 0
                        }
                    ]
                ], 
                [
                    13625, 
                    [
                        {
                            "pitch": 56, 
                            "t0": 13625, 
                            "v": 19, 
                            "dur": 181, 
                            "type": "note", 
                            "channel": 0
                        }
                    ]
                ], 
                [
                    13880, 
                    [
                        {
                            "pitch": 58, 
                            "t0": 13880, 
                            "v": 13, 
                            "dur": 276, 
                            "type": "note", 
                            "channel": 0
                        }
                    ]
                ], 
                [
                    14196, 
                    [
                        {
                            "pitch": 56, 
                            "t0": 14196, 
                            "v": 15, 
                            "dur": 351, 
                            "type": "note", 
                            "channel": 0
                        }
                    ]
                ], 
                [
                    14525, 
                    [
                        {
                            "pitch": 73, 
                            "t0": 14525, 
                            "v": 55, 
                            "dur": 696, 
                            "type": "note", 
                            "channel": 0
                        }
                    ]
                ], 
                [
                    14557, 
                    [
                        {
                            "pitch": 61, 
                            "t0": 14557, 
                            "v": 19, 
                            "dur": 488, 
                            "type": "note", 
                            "channel": 0
                        }
                    ]
                ], 
                [
                    14579, 
                    [
                        {
                            "pitch": 65, 
                            "t0": 14579, 
                            "v": 15, 
                            "dur": 358, 
                            "type": "note", 
                            "channel": 0
                        }
                    ]
                ], 
                [
                    14850, 
                    [
                        {
                            "pitch": 56, 
                            "t0": 14850, 
                            "v": 28, 
                            "dur": 178, 
                            "type": "note", 
                            "channel": 0
                        }
                    ]
                ], 
                [
                    15101, 
                    [
                        {
                            "pitch": 75, 
                            "t0": 15101, 
                            "v": 72, 
                            "dur": 640, 
                            "type": "note", 
                            "channel": 0
                        }
                    ]
                ], 
                [
                    15121, 
                    [
                        {
                            "pitch": 66, 
                            "t0": 15121, 
                            "v": 20, 
                            "dur": 387, 
                            "type": "note", 
                            "channel": 0
                        }, 
                        {
                            "pitch": 60, 
                            "t0": 15121, 
                            "v": 19, 
                            "dur": 1072, 
                            "type": "note", 
                            "channel": 0
                        }
                    ]
                ], 
                [
                    15404, 
                    [
                        {
                            "pitch": 56, 
                            "t0": 15404, 
                            "v": 25, 
                            "dur": 611, 
                            "type": "note", 
                            "channel": 0
                        }
                    ]
                ], 
                [
                    15670, 
                    [
                        {
                            "pitch": 77, 
                            "t0": 15670, 
                            "v": 70, 
                            "dur": 222, 
                            "type": "note", 
                            "channel": 0
                        }
                    ]
                ], 
                [
                    15694, 
                    [
                        {
                            "pitch": 68, 
                            "t0": 15694, 
                            "v": 22, 
                            "dur": 58, 
                            "type": "note", 
                            "channel": 0
                        }
                    ]
                ], 
                [
                    15841, 
                    [
                        {
                            "pitch": 78, 
                            "t0": 15841, 
                            "v": 74, 
                            "dur": 1330, 
                            "type": "note", 
                            "channel": 0
                        }
                    ]
                ], 
                [
                    15858, 
                    [
                        {
                            "pitch": 70, 
                            "t0": 15858, 
                            "v": 37, 
                            "dur": 959, 
                            "type": "note", 
                            "channel": 0
                        }
                    ]
                ], 
                [
                    16173, 
                    [
                        {
                            "pitch": 56, 
                            "t0": 16173, 
                            "v": 21, 
                            "dur": 86, 
                            "type": "note", 
                            "channel": 0
                        }
                    ]
                ], 
                [
                    16458, 
                    [
                        {
                            "pitch": 56, 
                            "t0": 16458, 
                            "v": 34, 
                            "dur": 58, 
                            "type": "note", 
                            "channel": 0
                        }
                    ]
                ], 
                [
                    16723, 
                    [
                        {
                            "pitch": 56, 
                            "t0": 16723, 
                            "v": 29, 
                            "dur": 146, 
                            "type": "note", 
                            "channel": 0
                        }
                    ]
                ], 
                [
                    16972, 
                    [
                        {
                            "pitch": 68, 
                            "t0": 16972, 
                            "v": 30, 
                            "dur": 304, 
                            "type": "note", 
                            "channel": 0
                        }
                    ]
                ], 
                [
                    16979, 
                    [
                        {
                            "pitch": 77, 
                            "t0": 16979, 
                            "v": 68, 
                            "dur": 406, 
                            "type": "note", 
                            "channel": 0
                        }
                    ]
                ], 
                [
                    16989, 
                    [
                        {
                            "pitch": 61, 
                            "t0": 16989, 
                            "v": 32, 
                            "dur": 296, 
                            "type": "note", 
                            "channel": 0
                        }
                    ]
                ], 
                [
                    17235, 
                    [
                        {
                            "pitch": 56, 
                            "t0": 17235, 
                            "v": 34, 
                            "dur": 183, 
                            "type": "note", 
                            "channel": 0
                        }
                    ]
                ], 
                [
                    17505, 
                    [
                        {
                            "pitch": 68, 
                            "t0": 17505, 
                            "v": 28, 
                            "dur": 396, 
                            "type": "note", 
                            "channel": 0
                        }
                    ]
                ], 
                [
                    17522, 
                    [
                        {
                            "pitch": 60, 
                            "t0": 17522, 
                            "v": 24, 
                            "dur": 1008, 
                            "type": "note", 
                            "channel": 0
                        }
                    ]
                ], 
                [
                    17557, 
                    [
                        {
                            "pitch": 77, 
                            "t0": 17557, 
                            "v": 62, 
                            "dur": 1059, 
                            "type": "note", 
                            "channel": 0
                        }
                    ]
                ], 
                [
                    17840, 
                    [
                        {
                            "pitch": 56, 
                            "t0": 17840, 
                            "v": 20, 
                            "dur": 89, 
                            "type": "note", 
                            "channel": 0
                        }
                    ]
                ], 
                [
                    18156, 
                    [
                        {
                            "pitch": 66, 
                            "t0": 18156, 
                            "v": 20, 
                            "dur": 460, 
                            "type": "note", 
                            "channel": 0
                        }
                    ]
                ], 
                [
                    18474, 
                    [
                        {
                            "pitch": 75, 
                            "t0": 18474, 
                            "v": 38, 
                            "dur": 624, 
                            "type": "note", 
                            "channel": 0
                        }
                    ]
                ], 
                [
                    18496, 
                    [
                        {
                            "pitch": 56, 
                            "t0": 18496, 
                            "v": 17, 
                            "dur": 132, 
                            "type": "note", 
                            "channel": 0
                        }
                    ]
                ], 
                [
                    18862, 
                    [
                        {
                            "pitch": 73, 
                            "t0": 18862, 
                            "v": 27, 
                            "dur": 793, 
                            "type": "note", 
                            "channel": 0
                        }
                    ]
                ], 
                [
                    18875, 
                    [
                        {
                            "pitch": 61, 
                            "t0": 18875, 
                            "v": 14, 
                            "dur": 360, 
                            "type": "note", 
                            "channel": 0
                        }
                    ]
                ], 
                [
                    18893, 
                    [
                        {
                            "pitch": 65, 
                            "t0": 18893, 
                            "v": 10, 
                            "dur": 319, 
                            "type": "note", 
                            "channel": 0
                        }
                    ]
                ], 
                [
                    19205, 
                    [
                        {
                            "pitch": 56, 
                            "t0": 19205, 
                            "v": 18, 
                            "dur": 181, 
                            "type": "note", 
                            "channel": 0
                        }
                    ]
                ], 
                [
                    19610, 
                    [
                        {
                            "pitch": 72, 
                            "t0": 19610, 
                            "v": 49, 
                            "dur": 411, 
                            "type": "note", 
                            "channel": 0
                        }
                    ]
                ], 
                [
                    19639, 
                    [
                        {
                            "pitch": 65, 
                            "t0": 19639, 
                            "v": 11, 
                            "dur": 111, 
                            "type": "note", 
                            "channel": 0
                        }, 
                        {
                            "pitch": 61, 
                            "t0": 19639, 
                            "v": 16, 
                            "dur": 215, 
                            "type": "note", 
                            "channel": 0
                        }
                    ]
                ], 
                [
                    19915, 
                    [
                        {
                            "pitch": 73, 
                            "t0": 19915, 
                            "v": 57, 
                            "dur": 406, 
                            "type": "note", 
                            "channel": 0
                        }
                    ]
                ], 
                [
                    19932, 
                    [
                        {
                            "pitch": 56, 
                            "t0": 19932, 
                            "v": 23, 
                            "dur": 63, 
                            "type": "note", 
                            "channel": 0
                        }
                    ]
                ], 
                [
                    20212, 
                    [
                        {
                            "pitch": 75, 
                            "t0": 20212, 
                            "v": 58, 
                            "dur": 419, 
                            "type": "note", 
                            "channel": 0
                        }
                    ]
                ], 
                [
                    20227, 
                    [
                        {
                            "pitch": 44, 
                            "t0": 20227, 
                            "v": 31, 
                            "dur": 281, 
                            "type": "note", 
                            "channel": 0
                        }
                    ]
                ], 
                [
                    20489, 
                    [
                        {
                            "pitch": 56, 
                            "t0": 20489, 
                            "v": 31, 
                            "dur": 52, 
                            "type": "note", 
                            "channel": 0
                        }
                    ]
                ], 
                [
                    20750, 
                    [
                        {
                            "pitch": 63, 
                            "t0": 20750, 
                            "v": 32, 
                            "dur": 175, 
                            "type": "note", 
                            "channel": 0
                        }
                    ]
                ], 
                [
                    20770, 
                    [
                        {
                            "pitch": 60, 
                            "t0": 20770, 
                            "v": 18, 
                            "dur": 211, 
                            "type": "note", 
                            "channel": 0
                        }
                    ]
                ], 
                [
                    20797, 
                    [
                        {
                            "pitch": 75, 
                            "t0": 20797, 
                            "v": 63, 
                            "dur": 1109, 
                            "type": "note", 
                            "channel": 0
                        }
                    ]
                ], 
                [
                    21063, 
                    [
                        {
                            "pitch": 56, 
                            "t0": 21063, 
                            "v": 33, 
                            "dur": 322, 
                            "type": "note", 
                            "channel": 0
                        }
                    ]
                ], 
                [
                    21315, 
                    [
                        {
                            "pitch": 63, 
                            "t0": 21315, 
                            "v": 35, 
                            "dur": 205, 
                            "type": "note", 
                            "channel": 0
                        }
                    ]
                ], 
                [
                    21329, 
                    [
                        {
                            "pitch": 59, 
                            "t0": 21329, 
                            "v": 25, 
                            "dur": 252, 
                            "type": "note", 
                            "channel": 0
                        }
                    ]
                ], 
                [
                    21581, 
                    [
                        {
                            "pitch": 56, 
                            "t0": 21581, 
                            "v": 39, 
                            "dur": 130, 
                            "type": "note", 
                            "channel": 0
                        }
                    ]
                ], 
                [
                    21853, 
                    [
                        {
                            "pitch": 77, 
                            "t0": 21853, 
                            "v": 80, 
                            "dur": 603, 
                            "type": "note", 
                            "channel": 0
                        }
                    ]
                ], 
                [
                    21866, 
                    [
                        {
                            "pitch": 65, 
                            "t0": 21866, 
                            "v": 42, 
                            "dur": 224, 
                            "type": "note", 
                            "channel": 0
                        }
                    ]
                ], 
                [
                    21870, 
                    [
                        {
                            "pitch": 59, 
                            "t0": 21870, 
                            "v": 31, 
                            "dur": 223, 
                            "type": "note", 
                            "channel": 0
                        }
                    ]
                ], 
                [
                    21879, 
                    [
                        {
                            "pitch": 49, 
                            "t0": 21879, 
                            "v": 26, 
                            "dur": 124, 
                            "type": "note", 
                            "channel": 0
                        }
                    ]
                ], 
                [
                    22115, 
                    [
                        {
                            "pitch": 61, 
                            "t0": 22115, 
                            "v": 37, 
                            "dur": 114, 
                            "type": "note", 
                            "channel": 0
                        }
                    ]
                ], 
                [
                    22378, 
                    [
                        {
                            "pitch": 78, 
                            "t0": 22378, 
                            "v": 79, 
                            "dur": 403, 
                            "type": "note", 
                            "channel": 0
                        }
                    ]
                ], 
                [
                    22394, 
                    [
                        {
                            "pitch": 58, 
                            "t0": 22394, 
                            "v": 28, 
                            "dur": 307, 
                            "type": "note", 
                            "channel": 0
                        }
                    ]
                ], 
                [
                    22403, 
                    [
                        {
                            "pitch": 54, 
                            "t0": 22403, 
                            "v": 27, 
                            "dur": 454, 
                            "type": "note", 
                            "channel": 0
                        }
                    ]
                ], 
                [
                    22698, 
                    [
                        {
                            "pitch": 77, 
                            "t0": 22698, 
                            "v": 83, 
                            "dur": 375, 
                            "type": "note", 
                            "channel": 0
                        }
                    ]
                ], 
                [
                    22733, 
                    [
                        {
                            "pitch": 61, 
                            "t0": 22733, 
                            "v": 26, 
                            "dur": 79, 
                            "type": "note", 
                            "channel": 0
                        }
                    ]
                ], 
                [
                    22946, 
                    [
                        {
                            "pitch": 75, 
                            "t0": 22946, 
                            "v": 78, 
                            "dur": 312, 
                            "type": "note", 
                            "channel": 0
                        }
                    ]
                ], 
                [
                    22967, 
                    [
                        {
                            "pitch": 66, 
                            "t0": 22967, 
                            "v": 30, 
                            "dur": 129, 
                            "type": "note", 
                            "channel": 0
                        }
                    ]
                ], 
                [
                    22971, 
                    [
                        {
                            "pitch": 58, 
                            "t0": 22971, 
                            "v": 26, 
                            "dur": 312, 
                            "type": "note", 
                            "channel": 0
                        }
                    ]
                ], 
                [
                    23180, 
                    [
                        {
                            "pitch": 73, 
                            "t0": 23180, 
                            "v": 75, 
                            "dur": 326, 
                            "type": "note", 
                            "channel": 0
                        }
                    ]
                ], 
                [
                    23208, 
                    [
                        {
                            "pitch": 61, 
                            "t0": 23208, 
                            "v": 39, 
                            "dur": 60, 
                            "type": "note", 
                            "channel": 0
                        }
                    ]
                ], 
                [
                    23442, 
                    [
                        {
                            "pitch": 77, 
                            "t0": 23442, 
                            "v": 72, 
                            "dur": 1138, 
                            "type": "note", 
                            "channel": 0
                        }
                    ]
                ], 
                [
                    23452, 
                    [
                        {
                            "pitch": 49, 
                            "t0": 23452, 
                            "v": 34, 
                            "dur": 220, 
                            "type": "note", 
                            "channel": 0
                        }
                    ]
                ], 
                [
                    23661, 
                    [
                        {
                            "pitch": 56, 
                            "t0": 23661, 
                            "v": 29, 
                            "dur": 214, 
                            "type": "note", 
                            "channel": 0
                        }
                    ]
                ], 
                [
                    23920, 
                    [
                        {
                            "pitch": 65, 
                            "t0": 23920, 
                            "v": 32, 
                            "dur": 150, 
                            "type": "note", 
                            "channel": 0
                        }, 
                        {
                            "pitch": 61, 
                            "t0": 23920, 
                            "v": 27, 
                            "dur": 263, 
                            "type": "note", 
                            "channel": 0
                        }
                    ]
                ], 
                [
                    24165, 
                    [
                        {
                            "pitch": 56, 
                            "t0": 24165, 
                            "v": 28, 
                            "dur": 184, 
                            "type": "note", 
                            "channel": 0
                        }
                    ]
                ], 
                [
                    24483, 
                    [
                        {
                            "pitch": 75, 
                            "t0": 24483, 
                            "v": 54, 
                            "dur": 317, 
                            "type": "note", 
                            "channel": 0
                        }
                    ]
                ], 
                [
                    24531, 
                    [
                        {
                            "pitch": 51, 
                            "t0": 24531, 
                            "v": 31, 
                            "dur": 337, 
                            "type": "note", 
                            "channel": 0
                        }
                    ]
                ], 
                [
                    24768, 
                    [
                        {
                            "pitch": 71, 
                            "t0": 24768, 
                            "v": 71, 
                            "dur": 311, 
                            "type": "note", 
                            "channel": 0
                        }
                    ]
                ], 
                [
                    24796, 
                    [
                        {
                            "pitch": 56, 
                            "t0": 24796, 
                            "v": 28, 
                            "dur": 205, 
                            "type": "note", 
                            "channel": 0
                        }
                    ]
                ], 
                [
                    25001, 
                    [
                        {
                            "pitch": 70, 
                            "t0": 25001, 
                            "v": 66, 
                            "dur": 332, 
                            "type": "note", 
                            "channel": 0
                        }
                    ]
                ], 
                [
                    25020, 
                    [
                        {
                            "pitch": 63, 
                            "t0": 25020, 
                            "v": 33, 
                            "dur": 223, 
                            "type": "note", 
                            "channel": 0
                        }
                    ]
                ], 
                [
                    25074, 
                    [
                        {
                            "pitch": 59, 
                            "t0": 25074, 
                            "v": 11, 
                            "dur": 206, 
                            "type": "note", 
                            "channel": 0
                        }
                    ]
                ], 
                [
                    25261, 
                    [
                        {
                            "pitch": 68, 
                            "t0": 25261, 
                            "v": 60, 
                            "dur": 287, 
                            "type": "note", 
                            "channel": 0
                        }
                    ]
                ], 
                [
                    25271, 
                    [
                        {
                            "pitch": 56, 
                            "t0": 25271, 
                            "v": 28, 
                            "dur": 170, 
                            "type": "note", 
                            "channel": 0
                        }
                    ]
                ], 
                [
                    25523, 
                    [
                        {
                            "pitch": 51, 
                            "t0": 25523, 
                            "v": 29, 
                            "dur": 999, 
                            "type": "note", 
                            "channel": 0
                        }
                    ]
                ], 
                [
                    25527, 
                    [
                        {
                            "pitch": 70, 
                            "t0": 25527, 
                            "v": 43, 
                            "dur": 335, 
                            "type": "note", 
                            "channel": 0
                        }
                    ]
                ], 
                [
                    25811, 
                    [
                        {
                            "pitch": 55, 
                            "t0": 25811, 
                            "v": 27, 
                            "dur": 330, 
                            "type": "note", 
                            "channel": 0
                        }
                    ]
                ], 
                [
                    25882, 
                    [
                        {
                            "pitch": 71, 
                            "t0": 25882, 
                            "v": 52, 
                            "dur": 74, 
                            "type": "note", 
                            "channel": 0
                        }
                    ]
                ], 
                [
                    25966, 
                    [
                        {
                            "pitch": 70, 
                            "t0": 25966, 
                            "v": 36, 
                            "dur": 69, 
                            "type": "note", 
                            "channel": 0
                        }
                    ]
                ], 
                [
                    26052, 
                    [
                        {
                            "pitch": 68, 
                            "t0": 26052, 
                            "v": 42, 
                            "dur": 184, 
                            "type": "note", 
                            "channel": 0
                        }
                    ]
                ], 
                [
                    26141, 
                    [
                        {
                            "pitch": 61, 
                            "t0": 26141, 
                            "v": 29, 
                            "dur": 311, 
                            "type": "note", 
                            "channel": 0
                        }
                    ]
                ], 
                [
                    26155, 
                    [
                        {
                            "pitch": 63, 
                            "t0": 26155, 
                            "v": 24, 
                            "dur": 230, 
                            "type": "note", 
                            "channel": 0
                        }
                    ]
                ], 
                [
                    26208, 
                    [
                        {
                            "pitch": 70, 
                            "t0": 26208, 
                            "v": 46, 
                            "dur": 545, 
                            "type": "note", 
                            "channel": 0
                        }
                    ]
                ], 
                [
                    26536, 
                    [
                        {
                            "pitch": 55, 
                            "t0": 26536, 
                            "v": 23, 
                            "dur": 58, 
                            "type": "note", 
                            "channel": 0
                        }
                    ]
                ], 
                [
                    26707, 
                    [
                        {
                            "pitch": 71, 
                            "t0": 26707, 
                            "v": 45, 
                            "dur": 197, 
                            "type": "note", 
                            "channel": 0
                        }
                    ]
                ], 
                [
                    26831, 
                    [
                        {
                            "pitch": 44, 
                            "t0": 26831, 
                            "v": 32, 
                            "dur": 235, 
                            "type": "note", 
                            "channel": 0
                        }
                    ]
                ], 
                [
                    26853, 
                    [
                        {
                            "pitch": 68, 
                            "t0": 26853, 
                            "v": 44, 
                            "dur": 257, 
                            "type": "note", 
                            "channel": 0
                        }
                    ]
                ], 
                [
                    27093, 
                    [
                        {
                            "pitch": 56, 
                            "t0": 27093, 
                            "v": 36, 
                            "dur": 47, 
                            "type": "note", 
                            "channel": 0
                        }
                    ]
                ], 
                [
                    27330, 
                    [
                        {
                            "pitch": 63, 
                            "t0": 27330, 
                            "v": 44, 
                            "dur": 137, 
                            "type": "note", 
                            "channel": 0
                        }
                    ]
                ], 
                [
                    27367, 
                    [
                        {
                            "pitch": 59, 
                            "t0": 27367, 
                            "v": 17, 
                            "dur": 245, 
                            "type": "note", 
                            "channel": 0
                        }
                    ]
                ], 
                [
                    27370, 
                    [
                        {
                            "pitch": 75, 
                            "t0": 27370, 
                            "v": 68, 
                            "dur": 573, 
                            "type": "note", 
                            "channel": 0
                        }
                    ]
                ], 
                [
                    27626, 
                    [
                        {
                            "pitch": 56, 
                            "t0": 27626, 
                            "v": 28, 
                            "dur": 256, 
                            "type": "note", 
                            "channel": 0
                        }
                    ]
                ], 
                [
                    27837, 
                    [
                        {
                            "pitch": 73, 
                            "t0": 27837, 
                            "v": 67, 
                            "dur": 605, 
                            "type": "note", 
                            "channel": 0
                        }
                    ]
                ], 
                [
                    27845, 
                    [
                        {
                            "pitch": 61, 
                            "t0": 27845, 
                            "v": 40, 
                            "dur": 298, 
                            "type": "note", 
                            "channel": 0
                        }
                    ]
                ], 
                [
                    27853, 
                    [
                        {
                            "pitch": 58, 
                            "t0": 27853, 
                            "v": 25, 
                            "dur": 272, 
                            "type": "note", 
                            "channel": 0
                        }
                    ]
                ], 
                [
                    28122, 
                    [
                        {
                            "pitch": 56, 
                            "t0": 28122, 
                            "v": 32, 
                            "dur": 220, 
                            "type": "note", 
                            "channel": 0
                        }
                    ]
                ], 
                [
                    28370, 
                    [
                        {
                            "pitch": 76, 
                            "t0": 28370, 
                            "v": 52, 
                            "dur": 688, 
                            "type": "note", 
                            "channel": 0
                        }
                    ]
                ], 
                [
                    28392, 
                    [
                        {
                            "pitch": 61, 
                            "t0": 28392, 
                            "v": 15, 
                            "dur": 265, 
                            "type": "note", 
                            "channel": 0
                        }
                    ]
                ], 
                [
                    28403, 
                    [
                        {
                            "pitch": 64, 
                            "t0": 28403, 
                            "v": 25, 
                            "dur": 206, 
                            "type": "note", 
                            "channel": 0
                        }
                    ]
                ], 
                [
                    28662, 
                    [
                        {
                            "pitch": 56, 
                            "t0": 28662, 
                            "v": 20, 
                            "dur": 55, 
                            "type": "note", 
                            "channel": 0
                        }
                    ]
                ], 
                [
                    28968, 
                    [
                        {
                            "pitch": 75, 
                            "t0": 28968, 
                            "v": 37, 
                            "dur": 468, 
                            "type": "note", 
                            "channel": 0
                        }
                    ]
                ], 
                [
                    28971, 
                    [
                        {
                            "pitch": 44, 
                            "t0": 28971, 
                            "v": 24, 
                            "dur": 268, 
                            "type": "note", 
                            "channel": 0
                        }
                    ]
                ], 
                [
                    29272, 
                    [
                        {
                            "pitch": 56, 
                            "t0": 29272, 
                            "v": 26, 
                            "dur": 50, 
                            "type": "note", 
                            "channel": 0
                        }
                    ]
                ], 
                [
                    29586, 
                    [
                        {
                            "pitch": 63, 
                            "t0": 29586, 
                            "v": 27, 
                            "dur": 719, 
                            "type": "note", 
                            "channel": 0
                        }
                    ]
                ], 
                [
                    29598, 
                    [
                        {
                            "pitch": 75, 
                            "t0": 29598, 
                            "v": 59, 
                            "dur": 1103, 
                            "type": "note", 
                            "channel": 0
                        }
                    ]
                ], 
                [
                    29617, 
                    [
                        {
                            "pitch": 59, 
                            "t0": 29617, 
                            "v": 24, 
                            "dur": 554, 
                            "type": "note", 
                            "channel": 0
                        }
                    ]
                ], 
                [
                    29884, 
                    [
                        {
                            "pitch": 56, 
                            "t0": 29884, 
                            "v": 27, 
                            "dur": 67, 
                            "type": "note", 
                            "channel": 0
                        }
                    ]
                ], 
                [
                    30119, 
                    [
                        {
                            "pitch": 56, 
                            "t0": 30119, 
                            "v": 35, 
                            "dur": 63, 
                            "type": "note", 
                            "channel": 0
                        }
                    ]
                ], 
                [
                    30364, 
                    [
                        {
                            "pitch": 56, 
                            "t0": 30364, 
                            "v": 36, 
                            "dur": 162, 
                            "type": "note", 
                            "channel": 0
                        }
                    ]
                ], 
                [
                    30612, 
                    [
                        {
                            "pitch": 65, 
                            "t0": 30612, 
                            "v": 33, 
                            "dur": 384, 
                            "type": "note", 
                            "channel": 0
                        }
                    ]
                ], 
                [
                    30615, 
                    [
                        {
                            "pitch": 59, 
                            "t0": 30615, 
                            "v": 39, 
                            "dur": 450, 
                            "type": "note", 
                            "channel": 0
                        }
                    ]
                ], 
                [
                    30620, 
                    [
                        {
                            "pitch": 77, 
                            "t0": 30620, 
                            "v": 79, 
                            "dur": 644, 
                            "type": "note", 
                            "channel": 0
                        }
                    ]
                ], 
                [
                    30902, 
                    [
                        {
                            "pitch": 56, 
                            "t0": 30902, 
                            "v": 37, 
                            "dur": 262, 
                            "type": "note", 
                            "channel": 0
                        }
                    ]
                ], 
                [
                    31193, 
                    [
                        {
                            "pitch": 78, 
                            "t0": 31193, 
                            "v": 72, 
                            "dur": 383, 
                            "type": "note", 
                            "channel": 0
                        }
                    ]
                ], 
                [
                    31214, 
                    [
                        {
                            "pitch": 51, 
                            "t0": 31214, 
                            "v": 47, 
                            "dur": 389, 
                            "type": "note", 
                            "channel": 0
                        }
                    ]
                ], 
                [
                    31487, 
                    [
                        {
                            "pitch": 77, 
                            "t0": 31487, 
                            "v": 83, 
                            "dur": 325, 
                            "type": "note", 
                            "channel": 0
                        }
                    ]
                ], 
                [
                    31500, 
                    [
                        {
                            "pitch": 54, 
                            "t0": 31500, 
                            "v": 50, 
                            "dur": 243, 
                            "type": "note", 
                            "channel": 0
                        }
                    ]
                ], 
                [
                    31737, 
                    [
                        {
                            "pitch": 75, 
                            "t0": 31737, 
                            "v": 79, 
                            "dur": 335, 
                            "type": "note", 
                            "channel": 0
                        }
                    ]
                ], 
                [
                    31743, 
                    [
                        {
                            "pitch": 66, 
                            "t0": 31743, 
                            "v": 31, 
                            "dur": 98, 
                            "type": "note", 
                            "channel": 0
                        }
                    ]
                ], 
                [
                    31753, 
                    [
                        {
                            "pitch": 58, 
                            "t0": 31753, 
                            "v": 35, 
                            "dur": 316, 
                            "type": "note", 
                            "channel": 0
                        }
                    ]
                ], 
                [
                    31972, 
                    [
                        {
                            "pitch": 73, 
                            "t0": 31972, 
                            "v": 73, 
                            "dur": 353, 
                            "type": "note", 
                            "channel": 0
                        }
                    ]
                ], 
                [
                    31985, 
                    [
                        {
                            "pitch": 54, 
                            "t0": 31985, 
                            "v": 46, 
                            "dur": 147, 
                            "type": "note", 
                            "channel": 0
                        }
                    ]
                ], 
                [
                    32239, 
                    [
                        {
                            "pitch": 46, 
                            "t0": 32239, 
                            "v": 50, 
                            "dur": 286, 
                            "type": "note", 
                            "channel": 0
                        }
                    ]
                ], 
                [
                    32250, 
                    [
                        {
                            "pitch": 77, 
                            "t0": 32250, 
                            "v": 75, 
                            "dur": 1443, 
                            "type": "note", 
                            "channel": 0
                        }
                    ]
                ], 
                [
                    32514, 
                    [
                        {
                            "pitch": 53, 
                            "t0": 32514, 
                            "v": 60, 
                            "dur": 36, 
                            "type": "note", 
                            "channel": 0
                        }
                    ]
                ], 
                [
                    32743, 
                    [
                        {
                            "pitch": 61, 
                            "t0": 32743, 
                            "v": 32, 
                            "dur": 139, 
                            "type": "note", 
                            "channel": 0
                        }
                    ]
                ], 
                [
                    32748, 
                    [
                        {
                            "pitch": 58, 
                            "t0": 32748, 
                            "v": 27, 
                            "dur": 173, 
                            "type": "note", 
                            "channel": 0
                        }
                    ]
                ], 
                [
                    32754, 
                    [
                        {
                            "pitch": 65, 
                            "t0": 32754, 
                            "v": 39, 
                            "dur": 101, 
                            "type": "note", 
                            "channel": 0
                        }
                    ]
                ], 
                [
                    33007, 
                    [
                        {
                            "pitch": 53, 
                            "t0": 33007, 
                            "v": 59, 
                            "dur": 45, 
                            "type": "note", 
                            "channel": 0
                        }
                    ]
                ], 
                [
                    33269, 
                    [
                        {
                            "pitch": 41, 
                            "t0": 33269, 
                            "v": 68, 
                            "dur": 175, 
                            "type": "note", 
                            "channel": 0
                        }
                    ]
                ], 
                [
                    33595, 
                    [
                        {
                            "pitch": 73, 
                            "t0": 33595, 
                            "v": 66, 
                            "dur": 359, 
                            "type": "note", 
                            "channel": 0
                        }
                    ]
                ], 
                [
                    33626, 
                    [
                        {
                            "pitch": 53, 
                            "t0": 33626, 
                            "v": 61, 
                            "dur": 61, 
                            "type": "note", 
                            "channel": 0
                        }
                    ]
                ], 
                [
                    33891, 
                    [
                        {
                            "pitch": 72, 
                            "t0": 33891, 
                            "v": 79, 
                            "dur": 312, 
                            "type": "note", 
                            "channel": 0
                        }
                    ]
                ], 
                [
                    33905, 
                    [
                        {
                            "pitch": 65, 
                            "t0": 33905, 
                            "v": 37, 
                            "dur": 71, 
                            "type": "note", 
                            "channel": 0
                        }
                    ]
                ], 
                [
                    33908, 
                    [
                        {
                            "pitch": 61, 
                            "t0": 33908, 
                            "v": 34, 
                            "dur": 83, 
                            "type": "note", 
                            "channel": 0
                        }, 
                        {
                            "pitch": 58, 
                            "t0": 33908, 
                            "v": 23, 
                            "dur": 93, 
                            "type": "note", 
                            "channel": 0
                        }
                    ]
                ], 
                [
                    34147, 
                    [
                        {
                            "pitch": 70, 
                            "t0": 34147, 
                            "v": 75, 
                            "dur": 292, 
                            "type": "note", 
                            "channel": 0
                        }
                    ]
                ], 
                [
                    34167, 
                    [
                        {
                            "pitch": 53, 
                            "t0": 34167, 
                            "v": 51, 
                            "dur": 44, 
                            "type": "note", 
                            "channel": 0
                        }
                    ]
                ], 
                [
                    34390, 
                    [
                        {
                            "pitch": 72, 
                            "t0": 34390, 
                            "v": 73, 
                            "dur": 344, 
                            "type": "note", 
                            "channel": 0
                        }
                    ]
                ], 
                [
                    34406, 
                    [
                        {
                            "pitch": 41, 
                            "t0": 34406, 
                            "v": 44, 
                            "dur": 106, 
                            "type": "note", 
                            "channel": 0
                        }
                    ]
                ], 
                [
                    34673, 
                    [
                        {
                            "pitch": 53, 
                            "t0": 34673, 
                            "v": 58, 
                            "dur": 368, 
                            "type": "note", 
                            "channel": 0
                        }
                    ]
                ], 
                [
                    34734, 
                    [
                        {
                            "pitch": 73, 
                            "t0": 34734, 
                            "v": 53, 
                            "dur": 140, 
                            "type": "note", 
                            "channel": 0
                        }
                    ]
                ], 
                [
                    34815, 
                    [
                        {
                            "pitch": 72, 
                            "t0": 34815, 
                            "v": 46, 
                            "dur": 103, 
                            "type": "note", 
                            "channel": 0
                        }
                    ]
                ], 
                [
                    34902, 
                    [
                        {
                            "pitch": 70, 
                            "t0": 34902, 
                            "v": 64, 
                            "dur": 131, 
                            "type": "note", 
                            "channel": 0
                        }
                    ]
                ], 
                [
                    35000, 
                    [
                        {
                            "pitch": 72, 
                            "t0": 35000, 
                            "v": 50, 
                            "dur": 454, 
                            "type": "note", 
                            "channel": 0
                        }
                    ]
                ], 
                [
                    35016, 
                    [
                        {
                            "pitch": 63, 
                            "t0": 35016, 
                            "v": 29, 
                            "dur": 287, 
                            "type": "note", 
                            "channel": 0
                        }, 
                        {
                            "pitch": 57, 
                            "t0": 35016, 
                            "v": 19, 
                            "dur": 334, 
                            "type": "note", 
                            "channel": 0
                        }
                    ]
                ], 
                [
                    35033, 
                    [
                        {
                            "pitch": 65, 
                            "t0": 35033, 
                            "v": 16, 
                            "dur": 209, 
                            "type": "note", 
                            "channel": 0
                        }
                    ]
                ], 
                [
                    35394, 
                    [
                        {
                            "pitch": 73, 
                            "t0": 35394, 
                            "v": 40, 
                            "dur": 439, 
                            "type": "note", 
                            "channel": 0
                        }
                    ]
                ], 
                [
                    35431, 
                    [
                        {
                            "pitch": 53, 
                            "t0": 35431, 
                            "v": 34, 
                            "dur": 58, 
                            "type": "note", 
                            "channel": 0
                        }
                    ]
                ], 
                [
                    35748, 
                    [
                        {
                            "pitch": 70, 
                            "t0": 35748, 
                            "v": 30, 
                            "dur": 455, 
                            "type": "note", 
                            "channel": 0
                        }
                    ]
                ], 
                [
                    35754, 
                    [
                        {
                            "pitch": 46, 
                            "t0": 35754, 
                            "v": 21, 
                            "dur": 310, 
                            "type": "note", 
                            "channel": 0
                        }
                    ]
                ], 
                [
                    36091, 
                    [
                        {
                            "pitch": 53, 
                            "t0": 36091, 
                            "v": 23, 
                            "dur": 51, 
                            "type": "note", 
                            "channel": 0
                        }
                    ]
                ], 
                [
                    36308, 
                    [
                        {
                            "pitch": 77, 
                            "t0": 36308, 
                            "v": 78, 
                            "dur": 602, 
                            "type": "note", 
                            "channel": 0
                        }
                    ]
                ], 
                [
                    36320, 
                    [
                        {
                            "pitch": 65, 
                            "t0": 36320, 
                            "v": 35, 
                            "dur": 144, 
                            "type": "note", 
                            "channel": 0
                        }
                    ]
                ], 
                [
                    36323, 
                    [
                        {
                            "pitch": 61, 
                            "t0": 36323, 
                            "v": 26, 
                            "dur": 230, 
                            "type": "note", 
                            "channel": 0
                        }
                    ]
                ], 
                [
                    36570, 
                    [
                        {
                            "pitch": 53, 
                            "t0": 36570, 
                            "v": 46, 
                            "dur": 327, 
                            "type": "note", 
                            "channel": 0
                        }
                    ]
                ], 
                [
                    36793, 
                    [
                        {
                            "pitch": 75, 
                            "t0": 36793, 
                            "v": 82, 
                            "dur": 594, 
                            "type": "note", 
                            "channel": 0
                        }
                    ]
                ], 
                [
                    36818, 
                    [
                        {
                            "pitch": 60, 
                            "t0": 36818, 
                            "v": 28, 
                            "dur": 318, 
                            "type": "note", 
                            "channel": 0
                        }, 
                        {
                            "pitch": 63, 
                            "t0": 36818, 
                            "v": 48, 
                            "dur": 362, 
                            "type": "note", 
                            "channel": 0
                        }
                    ]
                ], 
                [
                    37102, 
                    [
                        {
                            "pitch": 53, 
                            "t0": 37102, 
                            "v": 45, 
                            "dur": 82, 
                            "type": "note", 
                            "channel": 0
                        }
                    ]
                ], 
                [
                    37286, 
                    [
                        {
                            "pitch": 78, 
                            "t0": 37286, 
                            "v": 81, 
                            "dur": 549, 
                            "type": "note", 
                            "channel": 0
                        }
                    ]
                ], 
                [
                    37297, 
                    [
                        {
                            "pitch": 66, 
                            "t0": 37297, 
                            "v": 49, 
                            "dur": 199, 
                            "type": "note", 
                            "channel": 0
                        }
                    ]
                ], 
                [
                    37323, 
                    [
                        {
                            "pitch": 63, 
                            "t0": 37323, 
                            "v": 38, 
                            "dur": 94, 
                            "type": "note", 
                            "channel": 0
                        }
                    ]
                ], 
                [
                    37542, 
                    [
                        {
                            "pitch": 53, 
                            "t0": 37542, 
                            "v": 61, 
                            "dur": 143, 
                            "type": "note", 
                            "channel": 0
                        }
                    ]
                ], 
                [
                    37751, 
                    [
                        {
                            "pitch": 77, 
                            "t0": 37751, 
                            "v": 84, 
                            "dur": 371, 
                            "type": "note", 
                            "channel": 0
                        }
                    ]
                ], 
                [
                    37766, 
                    [
                        {
                            "pitch": 61, 
                            "t0": 37766, 
                            "v": 38, 
                            "dur": 264, 
                            "type": "note", 
                            "channel": 0
                        }
                    ]
                ], 
                [
                    37776, 
                    [
                        {
                            "pitch": 65, 
                            "t0": 37776, 
                            "v": 35, 
                            "dur": 235, 
                            "type": "note", 
                            "channel": 0
                        }
                    ]
                ], 
                [
                    38003, 
                    [
                        {
                            "pitch": 73, 
                            "t0": 38003, 
                            "v": 81, 
                            "dur": 320, 
                            "type": "note", 
                            "channel": 0
                        }
                    ]
                ], 
                [
                    38044, 
                    [
                        {
                            "pitch": 53, 
                            "t0": 38044, 
                            "v": 41, 
                            "dur": 119, 
                            "type": "note", 
                            "channel": 0
                        }
                    ]
                ], 
                [
                    38220, 
                    [
                        {
                            "pitch": 58, 
                            "t0": 38220, 
                            "v": 27, 
                            "dur": 233, 
                            "type": "note", 
                            "channel": 0
                        }
                    ]
                ], 
                [
                    38233, 
                    [
                        {
                            "pitch": 61, 
                            "t0": 38233, 
                            "v": 36, 
                            "dur": 245, 
                            "type": "note", 
                            "channel": 0
                        }
                    ]
                ], 
                [
                    38237, 
                    [
                        {
                            "pitch": 65, 
                            "t0": 38237, 
                            "v": 24, 
                            "dur": 199, 
                            "type": "note", 
                            "channel": 0
                        }
                    ]
                ], 
                [
                    38281, 
                    [
                        {
                            "pitch": 72, 
                            "t0": 38281, 
                            "v": 82, 
                            "dur": 307, 
                            "type": "note", 
                            "channel": 0
                        }
                    ]
                ], 
                [
                    38523, 
                    [
                        {
                            "pitch": 70, 
                            "t0": 38523, 
                            "v": 72, 
                            "dur": 332, 
                            "type": "note", 
                            "channel": 0
                        }
                    ]
                ], 
                [
                    38579, 
                    [
                        {
                            "pitch": 53, 
                            "t0": 38579, 
                            "v": 42, 
                            "dur": 286, 
                            "type": "note", 
                            "channel": 0
                        }
                    ]
                ], 
                [
                    38755, 
                    [
                        {
                            "pitch": 63, 
                            "t0": 38755, 
                            "v": 35, 
                            "dur": 933, 
                            "type": "note", 
                            "channel": 0
                        }
                    ]
                ], 
                [
                    38766, 
                    [
                        {
                            "pitch": 57, 
                            "t0": 38766, 
                            "v": 31, 
                            "dur": 944, 
                            "type": "note", 
                            "channel": 0
                        }
                    ]
                ], 
                [
                    38799, 
                    [
                        {
                            "pitch": 72, 
                            "t0": 38799, 
                            "v": 62, 
                            "dur": 254, 
                            "type": "note", 
                            "channel": 0
                        }
                    ]
                ], 
                [
                    39053, 
                    [
                        {
                            "pitch": 73, 
                            "t0": 39053, 
                            "v": 44, 
                            "dur": 136, 
                            "type": "note", 
                            "channel": 0
                        }
                    ]
                ], 
                [
                    39085, 
                    [
                        {
                            "pitch": 53, 
                            "t0": 39085, 
                            "v": 47, 
                            "dur": 383, 
                            "type": "note", 
                            "channel": 0
                        }
                    ]
                ], 
                [
                    39142, 
                    [
                        {
                            "pitch": 72, 
                            "t0": 39142, 
                            "v": 32, 
                            "dur": 109, 
                            "type": "note", 
                            "channel": 0
                        }
                    ]
                ], 
                [
                    39251, 
                    [
                        {
                            "pitch": 70, 
                            "t0": 39251, 
                            "v": 47, 
                            "dur": 161, 
                            "type": "note", 
                            "channel": 0
                        }
                    ]
                ], 
                [
                    39368, 
                    [
                        {
                            "pitch": 65, 
                            "t0": 39368, 
                            "v": 23, 
                            "dur": 250, 
                            "type": "note", 
                            "channel": 0
                        }
                    ]
                ], 
                [
                    39389, 
                    [
                        {
                            "pitch": 72, 
                            "t0": 39389, 
                            "v": 50, 
                            "dur": 588, 
                            "type": "note", 
                            "channel": 0
                        }
                    ]
                ], 
                [
                    39797, 
                    [
                        {
                            "pitch": 53, 
                            "t0": 39797, 
                            "v": 17, 
                            "dur": 63, 
                            "type": "note", 
                            "channel": 0
                        }
                    ]
                ], 
                [
                    39946, 
                    [
                        {
                            "pitch": 73, 
                            "t0": 39946, 
                            "v": 36, 
                            "dur": 245, 
                            "type": "note", 
                            "channel": 0
                        }
                    ]
                ], 
                [
                    40103, 
                    [
                        {
                            "pitch": 46, 
                            "t0": 40103, 
                            "v": 29, 
                            "dur": 283, 
                            "type": "note", 
                            "channel": 0
                        }
                    ]
                ], 
                [
                    40120, 
                    [
                        {
                            "pitch": 70, 
                            "t0": 40120, 
                            "v": 36, 
                            "dur": 370, 
                            "type": "note", 
                            "channel": 0
                        }
                    ]
                ], 
                [
                    40414, 
                    [
                        {
                            "pitch": 53, 
                            "t0": 40414, 
                            "v": 32, 
                            "dur": 48, 
                            "type": "note", 
                            "channel": 0
                        }
                    ]
                ], 
                [
                    40652, 
                    [
                        {
                            "pitch": 75, 
                            "t0": 40652, 
                            "v": 65, 
                            "dur": 613, 
                            "type": "note", 
                            "channel": 0
                        }
                    ]
                ], 
                [
                    40684, 
                    [
                        {
                            "pitch": 63, 
                            "t0": 40684, 
                            "v": 31, 
                            "dur": 157, 
                            "type": "note", 
                            "channel": 0
                        }
                    ]
                ], 
                [
                    40687, 
                    [
                        {
                            "pitch": 60, 
                            "t0": 40687, 
                            "v": 27, 
                            "dur": 179, 
                            "type": "note", 
                            "channel": 0
                        }
                    ]
                ], 
                [
                    40932, 
                    [
                        {
                            "pitch": 53, 
                            "t0": 40932, 
                            "v": 39, 
                            "dur": 255, 
                            "type": "note", 
                            "channel": 0
                        }
                    ]
                ], 
                [
                    41158, 
                    [
                        {
                            "pitch": 61, 
                            "t0": 41158, 
                            "v": 37, 
                            "dur": 318, 
                            "type": "note", 
                            "channel": 0
                        }, 
                        {
                            "pitch": 77, 
                            "t0": 41158, 
                            "v": 81, 
                            "dur": 591, 
                            "type": "note", 
                            "channel": 0
                        }
                    ]
                ], 
                [
                    41167, 
                    [
                        {
                            "pitch": 65, 
                            "t0": 41167, 
                            "v": 38, 
                            "dur": 222, 
                            "type": "note", 
                            "channel": 0
                        }
                    ]
                ], 
                [
                    41451, 
                    [
                        {
                            "pitch": 53, 
                            "t0": 41451, 
                            "v": 45, 
                            "dur": 264, 
                            "type": "note", 
                            "channel": 0
                        }
                    ]
                ], 
                [
                    41644, 
                    [
                        {
                            "pitch": 63, 
                            "t0": 41644, 
                            "v": 47, 
                            "dur": 236, 
                            "type": "note", 
                            "channel": 0
                        }
                    ]
                ], 
                [
                    41654, 
                    [
                        {
                            "pitch": 75, 
                            "t0": 41654, 
                            "v": 79, 
                            "dur": 646, 
                            "type": "note", 
                            "channel": 0
                        }
                    ]
                ], 
                [
                    41659, 
                    [
                        {
                            "pitch": 60, 
                            "t0": 41659, 
                            "v": 39, 
                            "dur": 271, 
                            "type": "note", 
                            "channel": 0
                        }
                    ]
                ], 
                [
                    41930, 
                    [
                        {
                            "pitch": 53, 
                            "t0": 41930, 
                            "v": 58, 
                            "dur": 454, 
                            "type": "note", 
                            "channel": 0
                        }
                    ]
                ], 
                [
                    42200, 
                    [
                        {
                            "pitch": 65, 
                            "t0": 42200, 
                            "v": 52, 
                            "dur": 596, 
                            "type": "note", 
                            "channel": 0
                        }, 
                        {
                            "pitch": 61, 
                            "t0": 42200, 
                            "v": 47, 
                            "dur": 741, 
                            "type": "note", 
                            "channel": 0
                        }
                    ]
                ], 
                [
                    42225, 
                    [
                        {
                            "pitch": 77, 
                            "t0": 42225, 
                            "v": 81, 
                            "dur": 2073, 
                            "type": "note", 
                            "channel": 0
                        }
                    ]
                ], 
                [
                    42542, 
                    [
                        {
                            "pitch": 53, 
                            "t0": 42542, 
                            "v": 53, 
                            "dur": 42, 
                            "type": "note", 
                            "channel": 0
                        }
                    ]
                ], 
                [
                    42836, 
                    [
                        {
                            "pitch": 53, 
                            "t0": 42836, 
                            "v": 24, 
                            "dur": 61, 
                            "type": "note", 
                            "channel": 0
                        }
                    ]
                ], 
                [
                    43116, 
                    [
                        {
                            "pitch": 53, 
                            "t0": 43116, 
                            "v": 49, 
                            "dur": 106, 
                            "type": "note", 
                            "channel": 0
                        }
                    ]
                ], 
                [
                    43429, 
                    [
                        {
                            "pitch": 61, 
                            "t0": 43429, 
                            "v": 28, 
                            "dur": 462, 
                            "type": "note", 
                            "channel": 0
                        }
                    ]
                ], 
                [
                    43437, 
                    [
                        {
                            "pitch": 65, 
                            "t0": 43437, 
                            "v": 26, 
                            "dur": 409, 
                            "type": "note", 
                            "channel": 0
                        }
                    ]
                ], 
                [
                    43763, 
                    [
                        {
                            "pitch": 54, 
                            "t0": 43763, 
                            "v": 37, 
                            "dur": 426, 
                            "type": "note", 
                            "channel": 0
                        }
                    ]
                ], 
                [
                    44172, 
                    [
                        {
                            "pitch": 75, 
                            "t0": 44172, 
                            "v": 48, 
                            "dur": 1165, 
                            "type": "note", 
                            "channel": 0
                        }
                    ]
                ], 
                [
                    44200, 
                    [
                        {
                            "pitch": 63, 
                            "t0": 44200, 
                            "v": 29, 
                            "dur": 561, 
                            "type": "note", 
                            "channel": 0
                        }
                    ]
                ], 
                [
                    44209, 
                    [
                        {
                            "pitch": 60, 
                            "t0": 44209, 
                            "v": 22, 
                            "dur": 516, 
                            "type": "note", 
                            "channel": 0
                        }
                    ]
                ], 
                [
                    44574, 
                    [
                        {
                            "pitch": 56, 
                            "t0": 44574, 
                            "v": 21, 
                            "dur": 337, 
                            "type": "note", 
                            "channel": 0
                        }
                    ]
                ], 
                [
                    45267, 
                    [
                        {
                            "pitch": 77, 
                            "t0": 45267, 
                            "v": 34, 
                            "dur": 1029, 
                            "type": "note", 
                            "channel": 0
                        }
                    ]
                ], 
                [
                    45279, 
                    [
                        {
                            "pitch": 49, 
                            "t0": 45279, 
                            "v": 22, 
                            "dur": 691, 
                            "type": "note", 
                            "channel": 0
                        }
                    ]
                ], 
                [
                    45922, 
                    [
                        {
                            "pitch": 56, 
                            "t0": 45922, 
                            "v": 24, 
                            "dur": 339, 
                            "type": "note", 
                            "channel": 0
                        }
                    ]
                ], 
                [
                    46281, 
                    [
                        {
                            "pitch": 73, 
                            "t0": 46281, 
                            "v": 26, 
                            "dur": 128, 
                            "type": "note", 
                            "channel": 0
                        }
                    ]
                ], 
                [
                    46445, 
                    [
                        {
                            "pitch": 68, 
                            "t0": 46445, 
                            "v": 36, 
                            "dur": 1319, 
                            "type": "note", 
                            "channel": 0
                        }
                    ]
                ], 
                [
                    46463, 
                    [
                        {
                            "pitch": 65, 
                            "t0": 46463, 
                            "v": 19, 
                            "dur": 929, 
                            "type": "note", 
                            "channel": 0
                        }
                    ]
                ], 
                [
                    46485, 
                    [
                        {
                            "pitch": 61, 
                            "t0": 46485, 
                            "v": 12, 
                            "dur": 938, 
                            "type": "note", 
                            "channel": 0
                        }
                    ]
                ], 
                [
                    46805, 
                    [
                        {
                            "pitch": 56, 
                            "t0": 46805, 
                            "v": 17, 
                            "dur": 129, 
                            "type": "note", 
                            "channel": 0
                        }
                    ]
                ], 
                [
                    47092, 
                    [
                        {
                            "pitch": 56, 
                            "t0": 47092, 
                            "v": 19, 
                            "dur": 86, 
                            "type": "note", 
                            "channel": 0
                        }
                    ]
                ], 
                [
                    47373, 
                    [
                        {
                            "pitch": 56, 
                            "t0": 47373, 
                            "v": 21, 
                            "dur": 178, 
                            "type": "note", 
                            "channel": 0
                        }
                    ]
                ], 
                [
                    47696, 
                    [
                        {
                            "pitch": 70, 
                            "t0": 47696, 
                            "v": 39, 
                            "dur": 675, 
                            "type": "note", 
                            "channel": 0
                        }
                    ]
                ], 
                [
                    47714, 
                    [
                        {
                            "pitch": 61, 
                            "t0": 47714, 
                            "v": 22, 
                            "dur": 278, 
                            "type": "note", 
                            "channel": 0
                        }
                    ]
                ], 
                [
                    47725, 
                    [
                        {
                            "pitch": 65, 
                            "t0": 47725, 
                            "v": 19, 
                            "dur": 233, 
                            "type": "note", 
                            "channel": 0
                        }
                    ]
                ], 
                [
                    48019, 
                    [
                        {
                            "pitch": 56, 
                            "t0": 48019, 
                            "v": 23, 
                            "dur": 70, 
                            "type": "note", 
                            "channel": 0
                        }
                    ]
                ], 
                [
                    48275, 
                    [
                        {
                            "pitch": 72, 
                            "t0": 48275, 
                            "v": 50, 
                            "dur": 1781, 
                            "type": "note", 
                            "channel": 0
                        }
                    ]
                ], 
                [
                    48299, 
                    [
                        {
                            "pitch": 66, 
                            "t0": 48299, 
                            "v": 21, 
                            "dur": 1537, 
                            "type": "note", 
                            "channel": 0
                        }
                    ]
                ], 
                [
                    48302, 
                    [
                        {
                            "pitch": 63, 
                            "t0": 48302, 
                            "v": 28, 
                            "dur": 1430, 
                            "type": "note", 
                            "channel": 0
                        }
                    ]
                ], 
                [
                    48571, 
                    [
                        {
                            "pitch": 56, 
                            "t0": 48571, 
                            "v": 18, 
                            "dur": 86, 
                            "type": "note", 
                            "channel": 0
                        }
                    ]
                ], 
                [
                    48853, 
                    [
                        {
                            "pitch": 56, 
                            "t0": 48853, 
                            "v": 23, 
                            "dur": 88, 
                            "type": "note", 
                            "channel": 0
                        }
                    ]
                ], 
                [
                    49125, 
                    [
                        {
                            "pitch": 56, 
                            "t0": 49125, 
                            "v": 24, 
                            "dur": 121, 
                            "type": "note", 
                            "channel": 0
                        }
                    ]
                ], 
                [
                    49384, 
                    [
                        {
                            "pitch": 58, 
                            "t0": 49384, 
                            "v": 17, 
                            "dur": 266, 
                            "type": "note", 
                            "channel": 0
                        }
                    ]
                ], 
                [
                    49674, 
                    [
                        {
                            "pitch": 56, 
                            "t0": 49674, 
                            "v": 19, 
                            "dur": 223, 
                            "type": "note", 
                            "channel": 0
                        }
                    ]
                ], 
                [
                    49930, 
                    [
                        {
                            "pitch": 73, 
                            "t0": 49930, 
                            "v": 66, 
                            "dur": 727, 
                            "type": "note", 
                            "channel": 0
                        }
                    ]
                ], 
                [
                    49945, 
                    [
                        {
                            "pitch": 61, 
                            "t0": 49945, 
                            "v": 28, 
                            "dur": 372, 
                            "type": "note", 
                            "channel": 0
                        }
                    ]
                ], 
                [
                    49961, 
                    [
                        {
                            "pitch": 65, 
                            "t0": 49961, 
                            "v": 23, 
                            "dur": 312, 
                            "type": "note", 
                            "channel": 0
                        }
                    ]
                ], 
                [
                    50224, 
                    [
                        {
                            "pitch": 56, 
                            "t0": 50224, 
                            "v": 28, 
                            "dur": 139, 
                            "type": "note", 
                            "channel": 0
                        }
                    ]
                ], 
                [
                    50519, 
                    [
                        {
                            "pitch": 75, 
                            "t0": 50519, 
                            "v": 73, 
                            "dur": 682, 
                            "type": "note", 
                            "channel": 0
                        }
                    ]
                ], 
                [
                    50527, 
                    [
                        {
                            "pitch": 66, 
                            "t0": 50527, 
                            "v": 24, 
                            "dur": 410, 
                            "type": "note", 
                            "channel": 0
                        }
                    ]
                ], 
                [
                    50533, 
                    [
                        {
                            "pitch": 60, 
                            "t0": 50533, 
                            "v": 24, 
                            "dur": 465, 
                            "type": "note", 
                            "channel": 0
                        }
                    ]
                ], 
                [
                    50891, 
                    [
                        {
                            "pitch": 56, 
                            "t0": 50891, 
                            "v": 22, 
                            "dur": 536, 
                            "type": "note", 
                            "channel": 0
                        }
                    ]
                ], 
                [
                    51103, 
                    [
                        {
                            "pitch": 77, 
                            "t0": 51103, 
                            "v": 70, 
                            "dur": 238, 
                            "type": "note", 
                            "channel": 0
                        }
                    ]
                ], 
                [
                    51114, 
                    [
                        {
                            "pitch": 68, 
                            "t0": 51114, 
                            "v": 34, 
                            "dur": 57, 
                            "type": "note", 
                            "channel": 0
                        }
                    ]
                ], 
                [
                    51282, 
                    [
                        {
                            "pitch": 78, 
                            "t0": 51282, 
                            "v": 70, 
                            "dur": 1356, 
                            "type": "note", 
                            "channel": 0
                        }
                    ]
                ], 
                [
                    51292, 
                    [
                        {
                            "pitch": 70, 
                            "t0": 51292, 
                            "v": 31, 
                            "dur": 1143, 
                            "type": "note", 
                            "channel": 0
                        }
                    ]
                ], 
                [
                    51627, 
                    [
                        {
                            "pitch": 56, 
                            "t0": 51627, 
                            "v": 29, 
                            "dur": 126, 
                            "type": "note", 
                            "channel": 0
                        }
                    ]
                ], 
                [
                    51917, 
                    [
                        {
                            "pitch": 56, 
                            "t0": 51917, 
                            "v": 21, 
                            "dur": 92, 
                            "type": "note", 
                            "channel": 0
                        }
                    ]
                ], 
                [
                    52215, 
                    [
                        {
                            "pitch": 56, 
                            "t0": 52215, 
                            "v": 20, 
                            "dur": 195, 
                            "type": "note", 
                            "channel": 0
                        }
                    ]
                ], 
                [
                    52469, 
                    [
                        {
                            "pitch": 77, 
                            "t0": 52469, 
                            "v": 46, 
                            "dur": 436, 
                            "type": "note", 
                            "channel": 0
                        }
                    ]
                ], 
                [
                    52472, 
                    [
                        {
                            "pitch": 68, 
                            "t0": 52472, 
                            "v": 27, 
                            "dur": 289, 
                            "type": "note", 
                            "channel": 0
                        }
                    ]
                ], 
                [
                    52496, 
                    [
                        {
                            "pitch": 61, 
                            "t0": 52496, 
                            "v": 22, 
                            "dur": 257, 
                            "type": "note", 
                            "channel": 0
                        }
                    ]
                ], 
                [
                    52753, 
                    [
                        {
                            "pitch": 56, 
                            "t0": 52753, 
                            "v": 19, 
                            "dur": 138, 
                            "type": "note", 
                            "channel": 0
                        }
                    ]
                ], 
                [
                    53017, 
                    [
                        {
                            "pitch": 68, 
                            "t0": 53017, 
                            "v": 23, 
                            "dur": 334, 
                            "type": "note", 
                            "channel": 0
                        }
                    ]
                ], 
                [
                    53025, 
                    [
                        {
                            "pitch": 77, 
                            "t0": 53025, 
                            "v": 52, 
                            "dur": 1118, 
                            "type": "note", 
                            "channel": 0
                        }
                    ]
                ], 
                [
                    53048, 
                    [
                        {
                            "pitch": 60, 
                            "t0": 53048, 
                            "v": 14, 
                            "dur": 502, 
                            "type": "note", 
                            "channel": 0
                        }
                    ]
                ], 
                [
                    53309, 
                    [
                        {
                            "pitch": 56, 
                            "t0": 53309, 
                            "v": 19, 
                            "dur": 96, 
                            "type": "note", 
                            "channel": 0
                        }
                    ]
                ], 
                [
                    53688, 
                    [
                        {
                            "pitch": 66, 
                            "t0": 53688, 
                            "v": 11, 
                            "dur": 330, 
                            "type": "note", 
                            "channel": 0
                        }
                    ]
                ], 
                [
                    53719, 
                    [
                        {
                            "pitch": 60, 
                            "t0": 53719, 
                            "v": 2, 
                            "dur": 128, 
                            "type": "note", 
                            "channel": 0
                        }
                    ]
                ], 
                [
                    53978, 
                    [
                        {
                            "pitch": 75, 
                            "t0": 53978, 
                            "v": 39, 
                            "dur": 463, 
                            "type": "note", 
                            "channel": 0
                        }
                    ]
                ], 
                [
                    54018, 
                    [
                        {
                            "pitch": 56, 
                            "t0": 54018, 
                            "v": 20, 
                            "dur": 152, 
                            "type": "note", 
                            "channel": 0
                        }
                    ]
                ], 
                [
                    54351, 
                    [
                        {
                            "pitch": 73, 
                            "t0": 54351, 
                            "v": 34, 
                            "dur": 627, 
                            "type": "note", 
                            "channel": 0
                        }
                    ]
                ], 
                [
                    54373, 
                    [
                        {
                            "pitch": 61, 
                            "t0": 54373, 
                            "v": 18, 
                            "dur": 393, 
                            "type": "note", 
                            "channel": 0
                        }
                    ]
                ], 
                [
                    54383, 
                    [
                        {
                            "pitch": 65, 
                            "t0": 54383, 
                            "v": 13, 
                            "dur": 316, 
                            "type": "note", 
                            "channel": 0
                        }
                    ]
                ], 
                [
                    54644, 
                    [
                        {
                            "pitch": 56, 
                            "t0": 54644, 
                            "v": 28, 
                            "dur": 125, 
                            "type": "note", 
                            "channel": 0
                        }
                    ]
                ], 
                [
                    54940, 
                    [
                        {
                            "pitch": 74, 
                            "t0": 54940, 
                            "v": 61, 
                            "dur": 194, 
                            "type": "note", 
                            "channel": 0
                        }
                    ]
                ], 
                [
                    54962, 
                    [
                        {
                            "pitch": 66, 
                            "t0": 54962, 
                            "v": 16, 
                            "dur": 651, 
                            "type": "note", 
                            "channel": 0
                        }
                    ]
                ], 
                [
                    54975, 
                    [
                        {
                            "pitch": 60, 
                            "t0": 54975, 
                            "v": 12, 
                            "dur": 664, 
                            "type": "note", 
                            "channel": 0
                        }
                    ]
                ], 
                [
                    55103, 
                    [
                        {
                            "pitch": 75, 
                            "t0": 55103, 
                            "v": 66, 
                            "dur": 145, 
                            "type": "note", 
                            "channel": 0
                        }
                    ]
                ], 
                [
                    55218, 
                    [
                        {
                            "pitch": 76, 
                            "t0": 55218, 
                            "v": 67, 
                            "dur": 154, 
                            "type": "note", 
                            "channel": 0
                        }
                    ]
                ], 
                [
                    55340, 
                    [
                        {
                            "pitch": 77, 
                            "t0": 55340, 
                            "v": 62, 
                            "dur": 135, 
                            "type": "note", 
                            "channel": 0
                        }
                    ]
                ], 
                [
                    55364, 
                    [
                        {
                            "pitch": 56, 
                            "t0": 55364, 
                            "v": 19, 
                            "dur": 317, 
                            "type": "note", 
                            "channel": 0
                        }
                    ]
                ], 
                [
                    55482, 
                    [
                        {
                            "pitch": 80, 
                            "t0": 55482, 
                            "v": 42, 
                            "dur": 160, 
                            "type": "note", 
                            "channel": 0
                        }
                    ]
                ], 
                [
                    55656, 
                    [
                        {
                            "pitch": 79, 
                            "t0": 55656, 
                            "v": 30, 
                            "dur": 80, 
                            "type": "note", 
                            "channel": 0
                        }
                    ]
                ], 
                [
                    55800, 
                    [
                        {
                            "pitch": 78, 
                            "t0": 55800, 
                            "v": 39, 
                            "dur": 47, 
                            "type": "note", 
                            "channel": 0
                        }
                    ]
                ], 
                [
                    56042, 
                    [
                        {
                            "pitch": 49, 
                            "t0": 56042, 
                            "v": 15, 
                            "dur": 505, 
                            "type": "note", 
                            "channel": 0
                        }
                    ]
                ], 
                [
                    56051, 
                    [
                        {
                            "pitch": 77, 
                            "t0": 56051, 
                            "v": 45, 
                            "dur": 657, 
                            "type": "note", 
                            "channel": 0
                        }
                    ]
                ], 
                [
                    56521, 
                    [
                        {
                            "pitch": 56, 
                            "t0": 56521, 
                            "v": 19, 
                            "dur": 213, 
                            "type": "note", 
                            "channel": 0
                        }
                    ]
                ], 
                [
                    56731, 
                    [
                        {
                            "pitch": 73, 
                            "t0": 56731, 
                            "v": 18, 
                            "dur": 77, 
                            "type": "note", 
                            "channel": 0
                        }
                    ]
                ], 
                [
                    56887, 
                    [
                        {
                            "pitch": 68, 
                            "t0": 56887, 
                            "v": 33, 
                            "dur": 1314, 
                            "type": "note", 
                            "channel": 0
                        }
                    ]
                ], 
                [
                    56926, 
                    [
                        {
                            "pitch": 61, 
                            "t0": 56926, 
                            "v": 20, 
                            "dur": 226, 
                            "type": "note", 
                            "channel": 0
                        }
                    ]
                ], 
                [
                    56936, 
                    [
                        {
                            "pitch": 65, 
                            "t0": 56936, 
                            "v": 21, 
                            "dur": 1293, 
                            "type": "note", 
                            "channel": 0
                        }
                    ]
                ], 
                [
                    57226, 
                    [
                        {
                            "pitch": 56, 
                            "t0": 57226, 
                            "v": 15, 
                            "dur": 78, 
                            "type": "note", 
                            "channel": 0
                        }
                    ]
                ], 
                [
                    57513, 
                    [
                        {
                            "pitch": 56, 
                            "t0": 57513, 
                            "v": 22, 
                            "dur": 92, 
                            "type": "note", 
                            "channel": 0
                        }
                    ]
                ], 
                [
                    57795, 
                    [
                        {
                            "pitch": 56, 
                            "t0": 57795, 
                            "v": 23, 
                            "dur": 61, 
                            "type": "note", 
                            "channel": 0
                        }
                    ]
                ], 
                [
                    58045, 
                    [
                        {
                            "pitch": 70, 
                            "t0": 58045, 
                            "v": 36, 
                            "dur": 664, 
                            "type": "note", 
                            "channel": 0
                        }
                    ]
                ], 
                [
                    58053, 
                    [
                        {
                            "pitch": 56, 
                            "t0": 58053, 
                            "v": 25, 
                            "dur": 70, 
                            "type": "note", 
                            "channel": 0
                        }
                    ]
                ], 
                [
                    58343, 
                    [
                        {
                            "pitch": 56, 
                            "t0": 58343, 
                            "v": 21, 
                            "dur": 68, 
                            "type": "note", 
                            "channel": 0
                        }
                    ]
                ], 
                [
                    58602, 
                    [
                        {
                            "pitch": 72, 
                            "t0": 58602, 
                            "v": 47, 
                            "dur": 1781, 
                            "type": "note", 
                            "channel": 0
                        }
                    ]
                ], 
                [
                    58620, 
                    [
                        {
                            "pitch": 66, 
                            "t0": 58620, 
                            "v": 24, 
                            "dur": 1526, 
                            "type": "note", 
                            "channel": 0
                        }
                    ]
                ], 
                [
                    58628, 
                    [
                        {
                            "pitch": 63, 
                            "t0": 58628, 
                            "v": 24, 
                            "dur": 329, 
                            "type": "note", 
                            "channel": 0
                        }
                    ]
                ], 
                [
                    58886, 
                    [
                        {
                            "pitch": 56, 
                            "t0": 58886, 
                            "v": 23, 
                            "dur": 74, 
                            "type": "note", 
                            "channel": 0
                        }
                    ]
                ], 
                [
                    59141, 
                    [
                        {
                            "pitch": 56, 
                            "t0": 59141, 
                            "v": 24, 
                            "dur": 68, 
                            "type": "note", 
                            "channel": 0
                        }
                    ]
                ], 
                [
                    59418, 
                    [
                        {
                            "pitch": 56, 
                            "t0": 59418, 
                            "v": 25, 
                            "dur": 82, 
                            "type": "note", 
                            "channel": 0
                        }
                    ]
                ], 
                [
                    59675, 
                    [
                        {
                            "pitch": 58, 
                            "t0": 59675, 
                            "v": 17, 
                            "dur": 265, 
                            "type": "note", 
                            "channel": 0
                        }
                    ]
                ], 
                [
                    59971, 
                    [
                        {
                            "pitch": 56, 
                            "t0": 59971, 
                            "v": 17, 
                            "dur": 116, 
                            "type": "note", 
                            "channel": 0
                        }
                    ]
                ], 
                [
                    60246, 
                    [
                        {
                            "pitch": 73, 
                            "t0": 60246, 
                            "v": 55, 
                            "dur": 663, 
                            "type": "note", 
                            "channel": 0
                        }
                    ]
                ], 
                [
                    60280, 
                    [
                        {
                            "pitch": 65, 
                            "t0": 60280, 
                            "v": 26, 
                            "dur": 300, 
                            "type": "note", 
                            "channel": 0
                        }, 
                        {
                            "pitch": 61, 
                            "t0": 60280, 
                            "v": 21, 
                            "dur": 311, 
                            "type": "note", 
                            "channel": 0
                        }
                    ]
                ], 
                [
                    60544, 
                    [
                        {
                            "pitch": 56, 
                            "t0": 60544, 
                            "v": 19, 
                            "dur": 203, 
                            "type": "note", 
                            "channel": 0
                        }
                    ]
                ], 
                [
                    60778, 
                    [
                        {
                            "pitch": 75, 
                            "t0": 60778, 
                            "v": 60, 
                            "dur": 747, 
                            "type": "note", 
                            "channel": 0
                        }
                    ]
                ], 
                [
                    60784, 
                    [
                        {
                            "pitch": 66, 
                            "t0": 60784, 
                            "v": 34, 
                            "dur": 467, 
                            "type": "note", 
                            "channel": 0
                        }
                    ]
                ], 
                [
                    60806, 
                    [
                        {
                            "pitch": 60, 
                            "t0": 60806, 
                            "v": 24, 
                            "dur": 1168, 
                            "type": "note", 
                            "channel": 0
                        }
                    ]
                ], 
                [
                    61134, 
                    [
                        {
                            "pitch": 56, 
                            "t0": 61134, 
                            "v": 16, 
                            "dur": 605, 
                            "type": "note", 
                            "channel": 0
                        }
                    ]
                ], 
                [
                    61422, 
                    [
                        {
                            "pitch": 68, 
                            "t0": 61422, 
                            "v": 22, 
                            "dur": 61, 
                            "type": "note", 
                            "channel": 0
                        }, 
                        {
                            "pitch": 77, 
                            "t0": 61422, 
                            "v": 50, 
                            "dur": 226, 
                            "type": "note", 
                            "channel": 0
                        }
                    ]
                ], 
                [
                    61600, 
                    [
                        {
                            "pitch": 78, 
                            "t0": 61600, 
                            "v": 55, 
                            "dur": 872, 
                            "type": "note", 
                            "channel": 0
                        }
                    ]
                ], 
                [
                    61605, 
                    [
                        {
                            "pitch": 70, 
                            "t0": 61605, 
                            "v": 27, 
                            "dur": 965, 
                            "type": "note", 
                            "channel": 0
                        }
                    ]
                ], 
                [
                    61974, 
                    [
                        {
                            "pitch": 56, 
                            "t0": 61974, 
                            "v": 22, 
                            "dur": 139, 
                            "type": "note", 
                            "channel": 0
                        }
                    ]
                ], 
                [
                    62313, 
                    [
                        {
                            "pitch": 56, 
                            "t0": 62313, 
                            "v": 19, 
                            "dur": 103, 
                            "type": "note", 
                            "channel": 0
                        }
                    ]
                ], 
                [
                    62558, 
                    [
                        {
                            "pitch": 68, 
                            "t0": 62558, 
                            "v": 23, 
                            "dur": 54, 
                            "type": "note", 
                            "channel": 0
                        }
                    ]
                ], 
                [
                    62603, 
                    [
                        {
                            "pitch": 56, 
                            "t0": 62603, 
                            "v": 10, 
                            "dur": 194, 
                            "type": "note", 
                            "channel": 0
                        }
                    ]
                ], 
                [
                    62845, 
                    [
                        {
                            "pitch": 63, 
                            "t0": 62845, 
                            "v": 27, 
                            "dur": 496, 
                            "type": "note", 
                            "channel": 0
                        }
                    ]
                ], 
                [
                    62853, 
                    [
                        {
                            "pitch": 72, 
                            "t0": 62853, 
                            "v": 42, 
                            "dur": 688, 
                            "type": "note", 
                            "channel": 0
                        }
                    ]
                ], 
                [
                    63172, 
                    [
                        {
                            "pitch": 56, 
                            "t0": 63172, 
                            "v": 30, 
                            "dur": 99, 
                            "type": "note", 
                            "channel": 0
                        }
                    ]
                ], 
                [
                    63541, 
                    [
                        {
                            "pitch": 75, 
                            "t0": 63541, 
                            "v": 43, 
                            "dur": 118, 
                            "type": "note", 
                            "channel": 0
                        }
                    ]
                ], 
                [
                    63580, 
                    [
                        {
                            "pitch": 66, 
                            "t0": 63580, 
                            "v": 8, 
                            "dur": 64, 
                            "type": "note", 
                            "channel": 0
                        }
                    ]
                ], 
                [
                    63929, 
                    [
                        {
                            "pitch": 56, 
                            "t0": 63929, 
                            "v": 14, 
                            "dur": 101, 
                            "type": "note", 
                            "channel": 0
                        }
                    ]
                ], 
                [
                    64254, 
                    [
                        {
                            "pitch": 56, 
                            "t0": 64254, 
                            "v": 23, 
                            "dur": 115, 
                            "type": "note", 
                            "channel": 0
                        }
                    ]
                ], 
                [
                    64525, 
                    [
                        {
                            "pitch": 56, 
                            "t0": 64525, 
                            "v": 21, 
                            "dur": 137, 
                            "type": "note", 
                            "channel": 0
                        }
                    ]
                ], 
                [
                    64786, 
                    [
                        {
                            "pitch": 56, 
                            "t0": 64786, 
                            "v": 22, 
                            "dur": 123, 
                            "type": "note", 
                            "channel": 0
                        }
                    ]
                ], 
                [
                    65071, 
                    [
                        {
                            "pitch": 56, 
                            "t0": 65071, 
                            "v": 22, 
                            "dur": 90, 
                            "type": "note", 
                            "channel": 0
                        }
                    ]
                ], 
                [
                    65321, 
                    [
                        {
                            "pitch": 56, 
                            "t0": 65321, 
                            "v": 21, 
                            "dur": 93, 
                            "type": "note", 
                            "channel": 0
                        }
                    ]
                ], 
                [
                    65620, 
                    [
                        {
                            "pitch": 56, 
                            "t0": 65620, 
                            "v": 14, 
                            "dur": 52, 
                            "type": "note", 
                            "channel": 0
                        }
                    ]
                ], 
                [
                    66015, 
                    [
                        {
                            "pitch": 56, 
                            "t0": 66015, 
                            "v": 30, 
                            "dur": 154, 
                            "type": "note", 
                            "channel": 0
                        }
                    ]
                ], 
                [
                    66026, 
                    [
                        {
                            "pitch": 37, 
                            "t0": 66026, 
                            "v": 29, 
                            "dur": 391, 
                            "type": "note", 
                            "channel": 0
                        }
                    ]
                ], 
                [
                    66046, 
                    [
                        {
                            "pitch": 44, 
                            "t0": 66046, 
                            "v": 2, 
                            "dur": 170, 
                            "type": "note", 
                            "channel": 0
                        }
                    ]
                ], 
                [
                    66317, 
                    [
                        {
                            "pitch": 56, 
                            "t0": 66317, 
                            "v": 31, 
                            "dur": 108, 
                            "type": "note", 
                            "channel": 0
                        }
                    ]
                ], 
                [
                    66584, 
                    [
                        {
                            "pitch": 56, 
                            "t0": 66584, 
                            "v": 37, 
                            "dur": 130, 
                            "type": "note", 
                            "channel": 0
                        }, 
                        {
                            "pitch": 39, 
                            "t0": 66584, 
                            "v": 32, 
                            "dur": 309, 
                            "type": "note", 
                            "channel": 0
                        }
                    ]
                ], 
                [
                    66597, 
                    [
                        {
                            "pitch": 44, 
                            "t0": 66597, 
                            "v": 34, 
                            "dur": 231, 
                            "type": "note", 
                            "channel": 0
                        }
                    ]
                ], 
                [
                    66843, 
                    [
                        {
                            "pitch": 56, 
                            "t0": 66843, 
                            "v": 30, 
                            "dur": 98, 
                            "type": "note", 
                            "channel": 0
                        }
                    ]
                ], 
                [
                    67085, 
                    [
                        {
                            "pitch": 56, 
                            "t0": 67085, 
                            "v": 28, 
                            "dur": 123, 
                            "type": "note", 
                            "channel": 0
                        }
                    ]
                ], 
                [
                    67096, 
                    [
                        {
                            "pitch": 49, 
                            "t0": 67096, 
                            "v": 36, 
                            "dur": 351, 
                            "type": "note", 
                            "channel": 0
                        }
                    ]
                ], 
                [
                    67100, 
                    [
                        {
                            "pitch": 40, 
                            "t0": 67100, 
                            "v": 54, 
                            "dur": 275, 
                            "type": "note", 
                            "channel": 0
                        }
                    ]
                ], 
                [
                    67344, 
                    [
                        {
                            "pitch": 56, 
                            "t0": 67344, 
                            "v": 33, 
                            "dur": 103, 
                            "type": "note", 
                            "channel": 0
                        }
                    ]
                ], 
                [
                    67606, 
                    [
                        {
                            "pitch": 39, 
                            "t0": 67606, 
                            "v": 39, 
                            "dur": 179, 
                            "type": "note", 
                            "channel": 0
                        }
                    ]
                ], 
                [
                    67612, 
                    [
                        {
                            "pitch": 56, 
                            "t0": 67612, 
                            "v": 35, 
                            "dur": 109, 
                            "type": "note", 
                            "channel": 0
                        }
                    ]
                ], 
                [
                    67622, 
                    [
                        {
                            "pitch": 48, 
                            "t0": 67622, 
                            "v": 30, 
                            "dur": 271, 
                            "type": "note", 
                            "channel": 0
                        }
                    ]
                ], 
                [
                    67845, 
                    [
                        {
                            "pitch": 56, 
                            "t0": 67845, 
                            "v": 28, 
                            "dur": 98, 
                            "type": "note", 
                            "channel": 0
                        }
                    ]
                ], 
                [
                    68083, 
                    [
                        {
                            "pitch": 56, 
                            "t0": 68083, 
                            "v": 38, 
                            "dur": 142, 
                            "type": "note", 
                            "channel": 0
                        }
                    ]
                ], 
                [
                    68093, 
                    [
                        {
                            "pitch": 44, 
                            "t0": 68093, 
                            "v": 51, 
                            "dur": 215, 
                            "type": "note", 
                            "channel": 0
                        }
                    ]
                ], 
                [
                    68101, 
                    [
                        {
                            "pitch": 39, 
                            "t0": 68101, 
                            "v": 43, 
                            "dur": 444, 
                            "type": "note", 
                            "channel": 0
                        }
                    ]
                ], 
                [
                    68324, 
                    [
                        {
                            "pitch": 56, 
                            "t0": 68324, 
                            "v": 33, 
                            "dur": 118, 
                            "type": "note", 
                            "channel": 0
                        }
                    ]
                ], 
                [
                    68567, 
                    [
                        {
                            "pitch": 56, 
                            "t0": 68567, 
                            "v": 41, 
                            "dur": 117, 
                            "type": "note", 
                            "channel": 0
                        }
                    ]
                ], 
                [
                    68575, 
                    [
                        {
                            "pitch": 44, 
                            "t0": 68575, 
                            "v": 56, 
                            "dur": 341, 
                            "type": "note", 
                            "channel": 0
                        }
                    ]
                ], 
                [
                    68583, 
                    [
                        {
                            "pitch": 40, 
                            "t0": 68583, 
                            "v": 51, 
                            "dur": 352, 
                            "type": "note", 
                            "channel": 0
                        }
                    ]
                ], 
                [
                    68810, 
                    [
                        {
                            "pitch": 56, 
                            "t0": 68810, 
                            "v": 44, 
                            "dur": 106, 
                            "type": "note", 
                            "channel": 0
                        }
                    ]
                ], 
                [
                    69043, 
                    [
                        {
                            "pitch": 56, 
                            "t0": 69043, 
                            "v": 38, 
                            "dur": 128, 
                            "type": "note", 
                            "channel": 0
                        }
                    ]
                ], 
                [
                    69051, 
                    [
                        {
                            "pitch": 51, 
                            "t0": 69051, 
                            "v": 55, 
                            "dur": 344, 
                            "type": "note", 
                            "channel": 0
                        }
                    ]
                ], 
                [
                    69061, 
                    [
                        {
                            "pitch": 42, 
                            "t0": 69061, 
                            "v": 41, 
                            "dur": 439, 
                            "type": "note", 
                            "channel": 0
                        }
                    ]
                ], 
                [
                    69286, 
                    [
                        {
                            "pitch": 56, 
                            "t0": 69286, 
                            "v": 33, 
                            "dur": 97, 
                            "type": "note", 
                            "channel": 0
                        }
                    ]
                ], 
                [
                    69523, 
                    [
                        {
                            "pitch": 56, 
                            "t0": 69523, 
                            "v": 32, 
                            "dur": 122, 
                            "type": "note", 
                            "channel": 0
                        }
                    ]
                ], 
                [
                    69537, 
                    [
                        {
                            "pitch": 49, 
                            "t0": 69537, 
                            "v": 42, 
                            "dur": 312, 
                            "type": "note", 
                            "channel": 0
                        }
                    ]
                ], 
                [
                    69561, 
                    [
                        {
                            "pitch": 40, 
                            "t0": 69561, 
                            "v": 39, 
                            "dur": 280, 
                            "type": "note", 
                            "channel": 0
                        }
                    ]
                ], 
                [
                    69781, 
                    [
                        {
                            "pitch": 56, 
                            "t0": 69781, 
                            "v": 33, 
                            "dur": 103, 
                            "type": "note", 
                            "channel": 0
                        }
                    ]
                ], 
                [
                    70013, 
                    [
                        {
                            "pitch": 56, 
                            "t0": 70013, 
                            "v": 35, 
                            "dur": 136, 
                            "type": "note", 
                            "channel": 0
                        }, 
                        {
                            "pitch": 49, 
                            "t0": 70013, 
                            "v": 57, 
                            "dur": 339, 
                            "type": "note", 
                            "channel": 0
                        }
                    ]
                ], 
                [
                    70027, 
                    [
                        {
                            "pitch": 40, 
                            "t0": 70027, 
                            "v": 59, 
                            "dur": 490, 
                            "type": "note", 
                            "channel": 0
                        }
                    ]
                ], 
                [
                    70249, 
                    [
                        {
                            "pitch": 56, 
                            "t0": 70249, 
                            "v": 34, 
                            "dur": 110, 
                            "type": "note", 
                            "channel": 0
                        }
                    ]
                ], 
                [
                    70489, 
                    [
                        {
                            "pitch": 56, 
                            "t0": 70489, 
                            "v": 44, 
                            "dur": 139, 
                            "type": "note", 
                            "channel": 0
                        }
                    ]
                ], 
                [
                    70503, 
                    [
                        {
                            "pitch": 51, 
                            "t0": 70503, 
                            "v": 50, 
                            "dur": 401, 
                            "type": "note", 
                            "channel": 0
                        }
                    ]
                ], 
                [
                    70509, 
                    [
                        {
                            "pitch": 44, 
                            "t0": 70509, 
                            "v": 52, 
                            "dur": 434, 
                            "type": "note", 
                            "channel": 0
                        }
                    ]
                ], 
                [
                    70723, 
                    [
                        {
                            "pitch": 56, 
                            "t0": 70723, 
                            "v": 38, 
                            "dur": 122, 
                            "type": "note", 
                            "channel": 0
                        }
                    ]
                ], 
                [
                    70971, 
                    [
                        {
                            "pitch": 56, 
                            "t0": 70971, 
                            "v": 34, 
                            "dur": 140, 
                            "type": "note", 
                            "channel": 0
                        }
                    ]
                ], 
                [
                    70994, 
                    [
                        {
                            "pitch": 52, 
                            "t0": 70994, 
                            "v": 51, 
                            "dur": 439, 
                            "type": "note", 
                            "channel": 0
                        }
                    ]
                ], 
                [
                    70999, 
                    [
                        {
                            "pitch": 49, 
                            "t0": 70999, 
                            "v": 37, 
                            "dur": 303, 
                            "type": "note", 
                            "channel": 0
                        }
                    ]
                ], 
                [
                    71219, 
                    [
                        {
                            "pitch": 56, 
                            "t0": 71219, 
                            "v": 26, 
                            "dur": 112, 
                            "type": "note", 
                            "channel": 0
                        }
                    ]
                ], 
                [
                    71465, 
                    [
                        {
                            "pitch": 56, 
                            "t0": 71465, 
                            "v": 32, 
                            "dur": 133, 
                            "type": "note", 
                            "channel": 0
                        }
                    ]
                ], 
                [
                    71501, 
                    [
                        {
                            "pitch": 51, 
                            "t0": 71501, 
                            "v": 28, 
                            "dur": 273, 
                            "type": "note", 
                            "channel": 0
                        }
                    ]
                ], 
                [
                    71515, 
                    [
                        {
                            "pitch": 44, 
                            "t0": 71515, 
                            "v": 22, 
                            "dur": 312, 
                            "type": "note", 
                            "channel": 0
                        }
                    ]
                ], 
                [
                    71723, 
                    [
                        {
                            "pitch": 56, 
                            "t0": 71723, 
                            "v": 33, 
                            "dur": 104, 
                            "type": "note", 
                            "channel": 0
                        }
                    ]
                ], 
                [
                    71951, 
                    [
                        {
                            "pitch": 51, 
                            "t0": 71951, 
                            "v": 36, 
                            "dur": 50, 
                            "type": "note", 
                            "channel": 0
                        }, 
                        {
                            "pitch": 44, 
                            "t0": 71951, 
                            "v": 48, 
                            "dur": 53, 
                            "type": "note", 
                            "channel": 0
                        }
                    ]
                ], 
                [
                    71955, 
                    [
                        {
                            "pitch": 56, 
                            "t0": 71955, 
                            "v": 37, 
                            "dur": 61, 
                            "type": "note", 
                            "channel": 0
                        }
                    ]
                ], 
                [
                    72203, 
                    [
                        {
                            "pitch": 56, 
                            "t0": 72203, 
                            "v": 25, 
                            "dur": 81, 
                            "type": "note", 
                            "channel": 0
                        }
                    ]
                ], 
                [
                    72428, 
                    [
                        {
                            "pitch": 56, 
                            "t0": 72428, 
                            "v": 28, 
                            "dur": 112, 
                            "type": "note", 
                            "channel": 0
                        }
                    ]
                ], 
                [
                    72662, 
                    [
                        {
                            "pitch": 56, 
                            "t0": 72662, 
                            "v": 27, 
                            "dur": 95, 
                            "type": "note", 
                            "channel": 0
                        }
                    ]
                ], 
                [
                    72907, 
                    [
                        {
                            "pitch": 56, 
                            "t0": 72907, 
                            "v": 30, 
                            "dur": 93, 
                            "type": "note", 
                            "channel": 0
                        }
                    ]
                ], 
                [
                    73128, 
                    [
                        {
                            "pitch": 56, 
                            "t0": 73128, 
                            "v": 29, 
                            "dur": 80, 
                            "type": "note", 
                            "channel": 0
                        }
                    ]
                ], 
                [
                    73351, 
                    [
                        {
                            "pitch": 56, 
                            "t0": 73351, 
                            "v": 23, 
                            "dur": 85, 
                            "type": "note", 
                            "channel": 0
                        }
                    ]
                ], 
                [
                    73582, 
                    [
                        {
                            "pitch": 56, 
                            "t0": 73582, 
                            "v": 28, 
                            "dur": 75, 
                            "type": "note", 
                            "channel": 0
                        }
                    ]
                ], 
                [
                    73805, 
                    [
                        {
                            "pitch": 56, 
                            "t0": 73805, 
                            "v": 24, 
                            "dur": 97, 
                            "type": "note", 
                            "channel": 0
                        }
                    ]
                ], 
                [
                    74044, 
                    [
                        {
                            "pitch": 56, 
                            "t0": 74044, 
                            "v": 25, 
                            "dur": 88, 
                            "type": "note", 
                            "channel": 0
                        }
                    ]
                ], 
                [
                    74266, 
                    [
                        {
                            "pitch": 56, 
                            "t0": 74266, 
                            "v": 23, 
                            "dur": 143, 
                            "type": "note", 
                            "channel": 0
                        }
                    ]
                ], 
                [
                    74289, 
                    [
                        {
                            "pitch": 52, 
                            "t0": 74289, 
                            "v": 41, 
                            "dur": 295, 
                            "type": "note", 
                            "channel": 0
                        }
                    ]
                ], 
                [
                    74295, 
                    [
                        {
                            "pitch": 49, 
                            "t0": 74295, 
                            "v": 24, 
                            "dur": 325, 
                            "type": "note", 
                            "channel": 0
                        }
                    ]
                ], 
                [
                    74515, 
                    [
                        {
                            "pitch": 56, 
                            "t0": 74515, 
                            "v": 29, 
                            "dur": 97, 
                            "type": "note", 
                            "channel": 0
                        }
                    ]
                ], 
                [
                    74740, 
                    [
                        {
                            "pitch": 56, 
                            "t0": 74740, 
                            "v": 30, 
                            "dur": 142, 
                            "type": "note", 
                            "channel": 0
                        }
                    ]
                ], 
                [
                    74746, 
                    [
                        {
                            "pitch": 51, 
                            "t0": 74746, 
                            "v": 49, 
                            "dur": 307, 
                            "type": "note", 
                            "channel": 0
                        }
                    ]
                ], 
                [
                    74768, 
                    [
                        {
                            "pitch": 44, 
                            "t0": 74768, 
                            "v": 38, 
                            "dur": 418, 
                            "type": "note", 
                            "channel": 0
                        }
                    ]
                ], 
                [
                    74982, 
                    [
                        {
                            "pitch": 56, 
                            "t0": 74982, 
                            "v": 33, 
                            "dur": 95, 
                            "type": "note", 
                            "channel": 0
                        }
                    ]
                ], 
                [
                    75213, 
                    [
                        {
                            "pitch": 56, 
                            "t0": 75213, 
                            "v": 33, 
                            "dur": 121, 
                            "type": "note", 
                            "channel": 0
                        }, 
                        {
                            "pitch": 49, 
                            "t0": 75213, 
                            "v": 59, 
                            "dur": 234, 
                            "type": "note", 
                            "channel": 0
                        }
                    ]
                ], 
                [
                    75247, 
                    [
                        {
                            "pitch": 40, 
                            "t0": 75247, 
                            "v": 42, 
                            "dur": 368, 
                            "type": "note", 
                            "channel": 0
                        }
                    ]
                ], 
                [
                    75431, 
                    [
                        {
                            "pitch": 56, 
                            "t0": 75431, 
                            "v": 35, 
                            "dur": 97, 
                            "type": "note", 
                            "channel": 0
                        }
                    ]
                ], 
                [
                    75671, 
                    [
                        {
                            "pitch": 51, 
                            "t0": 75671, 
                            "v": 68, 
                            "dur": 306, 
                            "type": "note", 
                            "channel": 0
                        }
                    ]
                ], 
                [
                    75677, 
                    [
                        {
                            "pitch": 56, 
                            "t0": 75677, 
                            "v": 37, 
                            "dur": 103, 
                            "type": "note", 
                            "channel": 0
                        }
                    ]
                ], 
                [
                    75682, 
                    [
                        {
                            "pitch": 44, 
                            "t0": 75682, 
                            "v": 53, 
                            "dur": 451, 
                            "type": "note", 
                            "channel": 0
                        }
                    ]
                ], 
                [
                    75902, 
                    [
                        {
                            "pitch": 56, 
                            "t0": 75902, 
                            "v": 43, 
                            "dur": 91, 
                            "type": "note", 
                            "channel": 0
                        }
                    ]
                ], 
                [
                    76111, 
                    [
                        {
                            "pitch": 56, 
                            "t0": 76111, 
                            "v": 48, 
                            "dur": 127, 
                            "type": "note", 
                            "channel": 0
                        }
                    ]
                ], 
                [
                    76117, 
                    [
                        {
                            "pitch": 49, 
                            "t0": 76117, 
                            "v": 65, 
                            "dur": 364, 
                            "type": "note", 
                            "channel": 0
                        }
                    ]
                ], 
                [
                    76138, 
                    [
                        {
                            "pitch": 40, 
                            "t0": 76138, 
                            "v": 63, 
                            "dur": 429, 
                            "type": "note", 
                            "channel": 0
                        }
                    ]
                ], 
                [
                    76350, 
                    [
                        {
                            "pitch": 56, 
                            "t0": 76350, 
                            "v": 41, 
                            "dur": 97, 
                            "type": "note", 
                            "channel": 0
                        }
                    ]
                ], 
                [
                    76567, 
                    [
                        {
                            "pitch": 56, 
                            "t0": 76567, 
                            "v": 42, 
                            "dur": 145, 
                            "type": "note", 
                            "channel": 0
                        }
                    ]
                ], 
                [
                    76582, 
                    [
                        {
                            "pitch": 39, 
                            "t0": 76582, 
                            "v": 46, 
                            "dur": 442, 
                            "type": "note", 
                            "channel": 0
                        }
                    ]
                ], 
                [
                    76585, 
                    [
                        {
                            "pitch": 48, 
                            "t0": 76585, 
                            "v": 60, 
                            "dur": 266, 
                            "type": "note", 
                            "channel": 0
                        }
                    ]
                ], 
                [
                    76801, 
                    [
                        {
                            "pitch": 56, 
                            "t0": 76801, 
                            "v": 38, 
                            "dur": 96, 
                            "type": "note", 
                            "channel": 0
                        }
                    ]
                ], 
                [
                    77019, 
                    [
                        {
                            "pitch": 49, 
                            "t0": 77019, 
                            "v": 57, 
                            "dur": 409, 
                            "type": "note", 
                            "channel": 0
                        }
                    ]
                ], 
                [
                    77024, 
                    [
                        {
                            "pitch": 56, 
                            "t0": 77024, 
                            "v": 39, 
                            "dur": 120, 
                            "type": "note", 
                            "channel": 0
                        }
                    ]
                ], 
                [
                    77028, 
                    [
                        {
                            "pitch": 40, 
                            "t0": 77028, 
                            "v": 66, 
                            "dur": 456, 
                            "type": "note", 
                            "channel": 0
                        }
                    ]
                ], 
                [
                    77241, 
                    [
                        {
                            "pitch": 56, 
                            "t0": 77241, 
                            "v": 46, 
                            "dur": 99, 
                            "type": "note", 
                            "channel": 0
                        }
                    ]
                ], 
                [
                    77456, 
                    [
                        {
                            "pitch": 56, 
                            "t0": 77456, 
                            "v": 54, 
                            "dur": 125, 
                            "type": "note", 
                            "channel": 0
                        }
                    ]
                ], 
                [
                    77479, 
                    [
                        {
                            "pitch": 48, 
                            "t0": 77479, 
                            "v": 57, 
                            "dur": 276, 
                            "type": "note", 
                            "channel": 0
                        }
                    ]
                ], 
                [
                    77484, 
                    [
                        {
                            "pitch": 39, 
                            "t0": 77484, 
                            "v": 50, 
                            "dur": 435, 
                            "type": "note", 
                            "channel": 0
                        }
                    ]
                ], 
                [
                    77673, 
                    [
                        {
                            "pitch": 56, 
                            "t0": 77673, 
                            "v": 43, 
                            "dur": 110, 
                            "type": "note", 
                            "channel": 0
                        }
                    ]
                ], 
                [
                    77880, 
                    [
                        {
                            "pitch": 56, 
                            "t0": 77880, 
                            "v": 34, 
                            "dur": 147, 
                            "type": "note", 
                            "channel": 0
                        }
                    ]
                ], 
                [
                    77891, 
                    [
                        {
                            "pitch": 49, 
                            "t0": 77891, 
                            "v": 69, 
                            "dur": 368, 
                            "type": "note", 
                            "channel": 0
                        }
                    ]
                ], 
                [
                    77904, 
                    [
                        {
                            "pitch": 40, 
                            "t0": 77904, 
                            "v": 68, 
                            "dur": 505, 
                            "type": "note", 
                            "channel": 0
                        }
                    ]
                ], 
                [
                    78106, 
                    [
                        {
                            "pitch": 56, 
                            "t0": 78106, 
                            "v": 43, 
                            "dur": 110, 
                            "type": "note", 
                            "channel": 0
                        }
                    ]
                ], 
                [
                    78333, 
                    [
                        {
                            "pitch": 56, 
                            "t0": 78333, 
                            "v": 44, 
                            "dur": 129, 
                            "type": "note", 
                            "channel": 0
                        }
                    ]
                ], 
                [
                    78337, 
                    [
                        {
                            "pitch": 51, 
                            "t0": 78337, 
                            "v": 73, 
                            "dur": 364, 
                            "type": "note", 
                            "channel": 0
                        }
                    ]
                ], 
                [
                    78353, 
                    [
                        {
                            "pitch": 39, 
                            "t0": 78353, 
                            "v": 43, 
                            "dur": 430, 
                            "type": "note", 
                            "channel": 0
                        }
                    ]
                ], 
                [
                    78559, 
                    [
                        {
                            "pitch": 56, 
                            "t0": 78559, 
                            "v": 48, 
                            "dur": 115, 
                            "type": "note", 
                            "channel": 0
                        }
                    ]
                ], 
                [
                    78771, 
                    [
                        {
                            "pitch": 56, 
                            "t0": 78771, 
                            "v": 47, 
                            "dur": 140, 
                            "type": "note", 
                            "channel": 0
                        }, 
                        {
                            "pitch": 52, 
                            "t0": 78771, 
                            "v": 86, 
                            "dur": 318, 
                            "type": "note", 
                            "channel": 0
                        }
                    ]
                ], 
                [
                    78777, 
                    [
                        {
                            "pitch": 37, 
                            "t0": 78777, 
                            "v": 61, 
                            "dur": 521, 
                            "type": "note", 
                            "channel": 0
                        }
                    ]
                ], 
                [
                    78999, 
                    [
                        {
                            "pitch": 56, 
                            "t0": 78999, 
                            "v": 45, 
                            "dur": 131, 
                            "type": "note", 
                            "channel": 0
                        }
                    ]
                ], 
                [
                    79219, 
                    [
                        {
                            "pitch": 56, 
                            "t0": 79219, 
                            "v": 53, 
                            "dur": 193, 
                            "type": "note", 
                            "channel": 0
                        }
                    ]
                ], 
                [
                    79228, 
                    [
                        {
                            "pitch": 51, 
                            "t0": 79228, 
                            "v": 64, 
                            "dur": 1445, 
                            "type": "note", 
                            "channel": 0
                        }
                    ]
                ], 
                [
                    79239, 
                    [
                        {
                            "pitch": 44, 
                            "t0": 79239, 
                            "v": 60, 
                            "dur": 1490, 
                            "type": "note", 
                            "channel": 0
                        }
                    ]
                ], 
                [
                    79459, 
                    [
                        {
                            "pitch": 68, 
                            "t0": 79459, 
                            "v": 51, 
                            "dur": 125, 
                            "type": "note", 
                            "channel": 0
                        }
                    ]
                ], 
                [
                    79471, 
                    [
                        {
                            "pitch": 56, 
                            "t0": 79471, 
                            "v": 55, 
                            "dur": 97, 
                            "type": "note", 
                            "channel": 0
                        }
                    ]
                ], 
                [
                    79690, 
                    [
                        {
                            "pitch": 68, 
                            "t0": 79690, 
                            "v": 22, 
                            "dur": 78, 
                            "type": "note", 
                            "channel": 0
                        }
                    ]
                ], 
                [
                    79702, 
                    [
                        {
                            "pitch": 56, 
                            "t0": 79702, 
                            "v": 26, 
                            "dur": 66, 
                            "type": "note", 
                            "channel": 0
                        }
                    ]
                ], 
                [
                    79916, 
                    [
                        {
                            "pitch": 68, 
                            "t0": 79916, 
                            "v": 33, 
                            "dur": 61, 
                            "type": "note", 
                            "channel": 0
                        }
                    ]
                ], 
                [
                    79924, 
                    [
                        {
                            "pitch": 56, 
                            "t0": 79924, 
                            "v": 28, 
                            "dur": 61, 
                            "type": "note", 
                            "channel": 0
                        }
                    ]
                ], 
                [
                    80133, 
                    [
                        {
                            "pitch": 56, 
                            "t0": 80133, 
                            "v": 32, 
                            "dur": 65, 
                            "type": "note", 
                            "channel": 0
                        }
                    ]
                ], 
                [
                    80139, 
                    [
                        {
                            "pitch": 68, 
                            "t0": 80139, 
                            "v": 36, 
                            "dur": 69, 
                            "type": "note", 
                            "channel": 0
                        }
                    ]
                ], 
                [
                    80347, 
                    [
                        {
                            "pitch": 68, 
                            "t0": 80347, 
                            "v": 38, 
                            "dur": 81, 
                            "type": "note", 
                            "channel": 0
                        }
                    ]
                ], 
                [
                    80356, 
                    [
                        {
                            "pitch": 56, 
                            "t0": 80356, 
                            "v": 38, 
                            "dur": 58, 
                            "type": "note", 
                            "channel": 0
                        }
                    ]
                ], 
                [
                    80556, 
                    [
                        {
                            "pitch": 68, 
                            "t0": 80556, 
                            "v": 39, 
                            "dur": 76, 
                            "type": "note", 
                            "channel": 0
                        }
                    ]
                ], 
                [
                    80571, 
                    [
                        {
                            "pitch": 56, 
                            "t0": 80571, 
                            "v": 30, 
                            "dur": 58, 
                            "type": "note", 
                            "channel": 0
                        }
                    ]
                ], 
                [
                    80786, 
                    [
                        {
                            "pitch": 56, 
                            "t0": 80786, 
                            "v": 38, 
                            "dur": 63, 
                            "type": "note", 
                            "channel": 0
                        }, 
                        {
                            "pitch": 68, 
                            "t0": 80786, 
                            "v": 42, 
                            "dur": 71, 
                            "type": "note", 
                            "channel": 0
                        }
                    ]
                ], 
                [
                    81028, 
                    [
                        {
                            "pitch": 56, 
                            "t0": 81028, 
                            "v": 39, 
                            "dur": 155, 
                            "type": "note", 
                            "channel": 0
                        }
                    ]
                ], 
                [
                    81036, 
                    [
                        {
                            "pitch": 37, 
                            "t0": 81036, 
                            "v": 69, 
                            "dur": 562, 
                            "type": "note", 
                            "channel": 0
                        }
                    ]
                ], 
                [
                    81041, 
                    [
                        {
                            "pitch": 68, 
                            "t0": 81041, 
                            "v": 39, 
                            "dur": 146, 
                            "type": "note", 
                            "channel": 0
                        }, 
                        {
                            "pitch": 44, 
                            "t0": 81041, 
                            "v": 54, 
                            "dur": 287, 
                            "type": "note", 
                            "channel": 0
                        }
                    ]
                ], 
                [
                    81283, 
                    [
                        {
                            "pitch": 56, 
                            "t0": 81283, 
                            "v": 36, 
                            "dur": 112, 
                            "type": "note", 
                            "channel": 0
                        }, 
                        {
                            "pitch": 68, 
                            "t0": 81283, 
                            "v": 32, 
                            "dur": 129, 
                            "type": "note", 
                            "channel": 0
                        }
                    ]
                ], 
                [
                    81509, 
                    [
                        {
                            "pitch": 68, 
                            "t0": 81509, 
                            "v": 34, 
                            "dur": 118, 
                            "type": "note", 
                            "channel": 0
                        }
                    ]
                ], 
                [
                    81517, 
                    [
                        {
                            "pitch": 56, 
                            "t0": 81517, 
                            "v": 43, 
                            "dur": 92, 
                            "type": "note", 
                            "channel": 0
                        }
                    ]
                ], 
                [
                    81521, 
                    [
                        {
                            "pitch": 44, 
                            "t0": 81521, 
                            "v": 59, 
                            "dur": 467, 
                            "type": "note", 
                            "channel": 0
                        }
                    ]
                ], 
                [
                    81525, 
                    [
                        {
                            "pitch": 39, 
                            "t0": 81525, 
                            "v": 66, 
                            "dur": 478, 
                            "type": "note", 
                            "channel": 0
                        }
                    ]
                ], 
                [
                    81741, 
                    [
                        {
                            "pitch": 68, 
                            "t0": 81741, 
                            "v": 55, 
                            "dur": 98, 
                            "type": "note", 
                            "channel": 0
                        }
                    ]
                ], 
                [
                    81744, 
                    [
                        {
                            "pitch": 56, 
                            "t0": 81744, 
                            "v": 47, 
                            "dur": 95, 
                            "type": "note", 
                            "channel": 0
                        }
                    ]
                ], 
                [
                    81961, 
                    [
                        {
                            "pitch": 68, 
                            "t0": 81961, 
                            "v": 56, 
                            "dur": 137, 
                            "type": "note", 
                            "channel": 0
                        }
                    ]
                ], 
                [
                    81967, 
                    [
                        {
                            "pitch": 61, 
                            "t0": 81967, 
                            "v": 62, 
                            "dur": 322, 
                            "type": "note", 
                            "channel": 0
                        }
                    ]
                ], 
                [
                    81970, 
                    [
                        {
                            "pitch": 56, 
                            "t0": 81970, 
                            "v": 47, 
                            "dur": 122, 
                            "type": "note", 
                            "channel": 0
                        }, 
                        {
                            "pitch": 49, 
                            "t0": 81970, 
                            "v": 65, 
                            "dur": 361, 
                            "type": "note", 
                            "channel": 0
                        }
                    ]
                ], 
                [
                    81978, 
                    [
                        {
                            "pitch": 40, 
                            "t0": 81978, 
                            "v": 85, 
                            "dur": 409, 
                            "type": "note", 
                            "channel": 0
                        }
                    ]
                ], 
                [
                    82183, 
                    [
                        {
                            "pitch": 68, 
                            "t0": 82183, 
                            "v": 44, 
                            "dur": 106, 
                            "type": "note", 
                            "channel": 0
                        }
                    ]
                ], 
                [
                    82189, 
                    [
                        {
                            "pitch": 56, 
                            "t0": 82189, 
                            "v": 42, 
                            "dur": 100, 
                            "type": "note", 
                            "channel": 0
                        }
                    ]
                ], 
                [
                    82404, 
                    [
                        {
                            "pitch": 68, 
                            "t0": 82404, 
                            "v": 58, 
                            "dur": 117, 
                            "type": "note", 
                            "channel": 0
                        }
                    ]
                ], 
                [
                    82412, 
                    [
                        {
                            "pitch": 56, 
                            "t0": 82412, 
                            "v": 45, 
                            "dur": 112, 
                            "type": "note", 
                            "channel": 0
                        }
                    ]
                ], 
                [
                    82415, 
                    [
                        {
                            "pitch": 39, 
                            "t0": 82415, 
                            "v": 51, 
                            "dur": 318, 
                            "type": "note", 
                            "channel": 0
                        }, 
                        {
                            "pitch": 60, 
                            "t0": 82415, 
                            "v": 59, 
                            "dur": 797, 
                            "type": "note", 
                            "channel": 0
                        }
                    ]
                ], 
                [
                    82419, 
                    [
                        {
                            "pitch": 48, 
                            "t0": 82419, 
                            "v": 50, 
                            "dur": 463, 
                            "type": "note", 
                            "channel": 0
                        }
                    ]
                ], 
                [
                    82624, 
                    [
                        {
                            "pitch": 68, 
                            "t0": 82624, 
                            "v": 55, 
                            "dur": 122, 
                            "type": "note", 
                            "channel": 0
                        }
                    ]
                ], 
                [
                    82637, 
                    [
                        {
                            "pitch": 56, 
                            "t0": 82637, 
                            "v": 44, 
                            "dur": 96, 
                            "type": "note", 
                            "channel": 0
                        }
                    ]
                ], 
                [
                    82836, 
                    [
                        {
                            "pitch": 68, 
                            "t0": 82836, 
                            "v": 40, 
                            "dur": 122, 
                            "type": "note", 
                            "channel": 0
                        }
                    ]
                ], 
                [
                    82846, 
                    [
                        {
                            "pitch": 56, 
                            "t0": 82846, 
                            "v": 45, 
                            "dur": 95, 
                            "type": "note", 
                            "channel": 0
                        }
                    ]
                ], 
                [
                    82855, 
                    [
                        {
                            "pitch": 44, 
                            "t0": 82855, 
                            "v": 79, 
                            "dur": 332, 
                            "type": "note", 
                            "channel": 0
                        }
                    ]
                ], 
                [
                    82864, 
                    [
                        {
                            "pitch": 39, 
                            "t0": 82864, 
                            "v": 61, 
                            "dur": 445, 
                            "type": "note", 
                            "channel": 0
                        }
                    ]
                ], 
                [
                    83070, 
                    [
                        {
                            "pitch": 56, 
                            "t0": 83070, 
                            "v": 53, 
                            "dur": 102, 
                            "type": "note", 
                            "channel": 0
                        }, 
                        {
                            "pitch": 68, 
                            "t0": 83070, 
                            "v": 60, 
                            "dur": 113, 
                            "type": "note", 
                            "channel": 0
                        }
                    ]
                ], 
                [
                    83287, 
                    [
                        {
                            "pitch": 56, 
                            "t0": 83287, 
                            "v": 56, 
                            "dur": 114, 
                            "type": "note", 
                            "channel": 0
                        }, 
                        {
                            "pitch": 44, 
                            "t0": 83287, 
                            "v": 81, 
                            "dur": 470, 
                            "type": "note", 
                            "channel": 0
                        }
                    ]
                ], 
                [
                    83290, 
                    [
                        {
                            "pitch": 40, 
                            "t0": 83290, 
                            "v": 90, 
                            "dur": 471, 
                            "type": "note", 
                            "channel": 0
                        }
                    ]
                ], 
                [
                    83293, 
                    [
                        {
                            "pitch": 68, 
                            "t0": 83293, 
                            "v": 58, 
                            "dur": 114, 
                            "type": "note", 
                            "channel": 0
                        }
                    ]
                ], 
                [
                    83506, 
                    [
                        {
                            "pitch": 56, 
                            "t0": 83506, 
                            "v": 54, 
                            "dur": 74, 
                            "type": "note", 
                            "channel": 0
                        }, 
                        {
                            "pitch": 68, 
                            "t0": 83506, 
                            "v": 55, 
                            "dur": 101, 
                            "type": "note", 
                            "channel": 0
                        }
                    ]
                ], 
                [
                    83718, 
                    [
                        {
                            "pitch": 68, 
                            "t0": 83718, 
                            "v": 70, 
                            "dur": 148, 
                            "type": "note", 
                            "channel": 0
                        }
                    ]
                ], 
                [
                    83724, 
                    [
                        {
                            "pitch": 51, 
                            "t0": 83724, 
                            "v": 62, 
                            "dur": 326, 
                            "type": "note", 
                            "channel": 0
                        }
                    ]
                ], 
                [
                    83727, 
                    [
                        {
                            "pitch": 56, 
                            "t0": 83727, 
                            "v": 61, 
                            "dur": 128, 
                            "type": "note", 
                            "channel": 0
                        }, 
                        {
                            "pitch": 63, 
                            "t0": 83727, 
                            "v": 76, 
                            "dur": 488, 
                            "type": "note", 
                            "channel": 0
                        }
                    ]
                ], 
                [
                    83740, 
                    [
                        {
                            "pitch": 42, 
                            "t0": 83740, 
                            "v": 66, 
                            "dur": 446, 
                            "type": "note", 
                            "channel": 0
                        }
                    ]
                ], 
                [
                    83947, 
                    [
                        {
                            "pitch": 68, 
                            "t0": 83947, 
                            "v": 52, 
                            "dur": 122, 
                            "type": "note", 
                            "channel": 0
                        }
                    ]
                ], 
                [
                    83952, 
                    [
                        {
                            "pitch": 56, 
                            "t0": 83952, 
                            "v": 61, 
                            "dur": 101, 
                            "type": "note", 
                            "channel": 0
                        }
                    ]
                ], 
                [
                    84172, 
                    [
                        {
                            "pitch": 56, 
                            "t0": 84172, 
                            "v": 52, 
                            "dur": 140, 
                            "type": "note", 
                            "channel": 0
                        }, 
                        {
                            "pitch": 68, 
                            "t0": 84172, 
                            "v": 62, 
                            "dur": 153, 
                            "type": "note", 
                            "channel": 0
                        }, 
                        {
                            "pitch": 49, 
                            "t0": 84172, 
                            "v": 64, 
                            "dur": 280, 
                            "type": "note", 
                            "channel": 0
                        }, 
                        {
                            "pitch": 61, 
                            "t0": 84172, 
                            "v": 72, 
                            "dur": 769, 
                            "type": "note", 
                            "channel": 0
                        }
                    ]
                ], 
                [
                    84178, 
                    [
                        {
                            "pitch": 40, 
                            "t0": 84178, 
                            "v": 79, 
                            "dur": 285, 
                            "type": "note", 
                            "channel": 0
                        }
                    ]
                ], 
                [
                    84393, 
                    [
                        {
                            "pitch": 68, 
                            "t0": 84393, 
                            "v": 48, 
                            "dur": 136, 
                            "type": "note", 
                            "channel": 0
                        }
                    ]
                ], 
                [
                    84397, 
                    [
                        {
                            "pitch": 56, 
                            "t0": 84397, 
                            "v": 53, 
                            "dur": 102, 
                            "type": "note", 
                            "channel": 0
                        }
                    ]
                ], 
                [
                    84605, 
                    [
                        {
                            "pitch": 68, 
                            "t0": 84605, 
                            "v": 48, 
                            "dur": 145, 
                            "type": "note", 
                            "channel": 0
                        }
                    ]
                ], 
                [
                    84613, 
                    [
                        {
                            "pitch": 56, 
                            "t0": 84613, 
                            "v": 65, 
                            "dur": 120, 
                            "type": "note", 
                            "channel": 0
                        }
                    ]
                ], 
                [
                    84616, 
                    [
                        {
                            "pitch": 49, 
                            "t0": 84616, 
                            "v": 88, 
                            "dur": 298, 
                            "type": "note", 
                            "channel": 0
                        }
                    ]
                ], 
                [
                    84629, 
                    [
                        {
                            "pitch": 40, 
                            "t0": 84629, 
                            "v": 95, 
                            "dur": 271, 
                            "type": "note", 
                            "channel": 0
                        }
                    ]
                ], 
                [
                    84836, 
                    [
                        {
                            "pitch": 68, 
                            "t0": 84836, 
                            "v": 52, 
                            "dur": 117, 
                            "type": "note", 
                            "channel": 0
                        }
                    ]
                ], 
                [
                    84844, 
                    [
                        {
                            "pitch": 56, 
                            "t0": 84844, 
                            "v": 66, 
                            "dur": 89, 
                            "type": "note", 
                            "channel": 0
                        }
                    ]
                ], 
                [
                    85047, 
                    [
                        {
                            "pitch": 56, 
                            "t0": 85047, 
                            "v": 73, 
                            "dur": 131, 
                            "type": "note", 
                            "channel": 0
                        }, 
                        {
                            "pitch": 68, 
                            "t0": 85047, 
                            "v": 67, 
                            "dur": 140, 
                            "type": "note", 
                            "channel": 0
                        }, 
                        {
                            "pitch": 51, 
                            "t0": 85047, 
                            "v": 88, 
                            "dur": 355, 
                            "type": "note", 
                            "channel": 0
                        }, 
                        {
                            "pitch": 63, 
                            "t0": 85047, 
                            "v": 85, 
                            "dur": 385, 
                            "type": "note", 
                            "channel": 0
                        }
                    ]
                ], 
                [
                    85058, 
                    [
                        {
                            "pitch": 44, 
                            "t0": 85058, 
                            "v": 81, 
                            "dur": 360, 
                            "type": "note", 
                            "channel": 0
                        }
                    ]
                ], 
                [
                    85271, 
                    [
                        {
                            "pitch": 68, 
                            "t0": 85271, 
                            "v": 62, 
                            "dur": 147, 
                            "type": "note", 
                            "channel": 0
                        }
                    ]
                ], 
                [
                    85284, 
                    [
                        {
                            "pitch": 56, 
                            "t0": 85284, 
                            "v": 69, 
                            "dur": 100, 
                            "type": "note", 
                            "channel": 0
                        }
                    ]
                ], 
                [
                    85474, 
                    [
                        {
                            "pitch": 64, 
                            "t0": 85474, 
                            "v": 98, 
                            "dur": 417, 
                            "type": "note", 
                            "channel": 0
                        }
                    ]
                ], 
                [
                    85477, 
                    [
                        {
                            "pitch": 52, 
                            "t0": 85477, 
                            "v": 89, 
                            "dur": 270, 
                            "type": "note", 
                            "channel": 0
                        }, 
                        {
                            "pitch": 49, 
                            "t0": 85477, 
                            "v": 76, 
                            "dur": 314, 
                            "type": "note", 
                            "channel": 0
                        }
                    ]
                ], 
                [
                    85484, 
                    [
                        {
                            "pitch": 56, 
                            "t0": 85484, 
                            "v": 73, 
                            "dur": 107, 
                            "type": "note", 
                            "channel": 0
                        }
                    ]
                ], 
                [
                    85518, 
                    [
                        {
                            "pitch": 68, 
                            "t0": 85518, 
                            "v": 5, 
                            "dur": 103, 
                            "type": "note", 
                            "channel": 0
                        }
                    ]
                ], 
                [
                    85696, 
                    [
                        {
                            "pitch": 68, 
                            "t0": 85696, 
                            "v": 65, 
                            "dur": 117, 
                            "type": "note", 
                            "channel": 0
                        }
                    ]
                ], 
                [
                    85704, 
                    [
                        {
                            "pitch": 56, 
                            "t0": 85704, 
                            "v": 66, 
                            "dur": 95, 
                            "type": "note", 
                            "channel": 0
                        }
                    ]
                ], 
                [
                    85911, 
                    [
                        {
                            "pitch": 68, 
                            "t0": 85911, 
                            "v": 69, 
                            "dur": 122, 
                            "type": "note", 
                            "channel": 0
                        }, 
                        {
                            "pitch": 56, 
                            "t0": 85911, 
                            "v": 78, 
                            "dur": 133, 
                            "type": "note", 
                            "channel": 0
                        }, 
                        {
                            "pitch": 63, 
                            "t0": 85911, 
                            "v": 90, 
                            "dur": 332, 
                            "type": "note", 
                            "channel": 0
                        }
                    ]
                ], 
                [
                    85922, 
                    [
                        {
                            "pitch": 51, 
                            "t0": 85922, 
                            "v": 91, 
                            "dur": 181, 
                            "type": "note", 
                            "channel": 0
                        }
                    ]
                ], 
                [
                    85927, 
                    [
                        {
                            "pitch": 44, 
                            "t0": 85927, 
                            "v": 88, 
                            "dur": 215, 
                            "type": "note", 
                            "channel": 0
                        }
                    ]
                ], 
                [
                    86164, 
                    [
                        {
                            "pitch": 68, 
                            "t0": 86164, 
                            "v": 70, 
                            "dur": 150, 
                            "type": "note", 
                            "channel": 0
                        }
                    ]
                ], 
                [
                    86170, 
                    [
                        {
                            "pitch": 56, 
                            "t0": 86170, 
                            "v": 58, 
                            "dur": 120, 
                            "type": "note", 
                            "channel": 0
                        }
                    ]
                ], 
                [
                    86226, 
                    [
                        {
                            "pitch": 32, 
                            "t0": 86226, 
                            "v": 88, 
                            "dur": 39, 
                            "type": "note", 
                            "channel": 0
                        }
                    ]
                ], 
                [
                    86398, 
                    [
                        {
                            "pitch": 68, 
                            "t0": 86398, 
                            "v": 64, 
                            "dur": 157, 
                            "type": "note", 
                            "channel": 0
                        }
                    ]
                ], 
                [
                    86402, 
                    [
                        {
                            "pitch": 56, 
                            "t0": 86402, 
                            "v": 74, 
                            "dur": 117, 
                            "type": "note", 
                            "channel": 0
                        }, 
                        {
                            "pitch": 63, 
                            "t0": 86402, 
                            "v": 88, 
                            "dur": 1269, 
                            "type": "note", 
                            "channel": 0
                        }
                    ]
                ], 
                [
                    86426, 
                    [
                        {
                            "pitch": 51, 
                            "t0": 86426, 
                            "v": 95, 
                            "dur": 1167, 
                            "type": "note", 
                            "channel": 0
                        }
                    ]
                ], 
                [
                    86434, 
                    [
                        {
                            "pitch": 44, 
                            "t0": 86434, 
                            "v": 86, 
                            "dur": 1104, 
                            "type": "note", 
                            "channel": 0
                        }
                    ]
                ], 
                [
                    86629, 
                    [
                        {
                            "pitch": 68, 
                            "t0": 86629, 
                            "v": 53, 
                            "dur": 134, 
                            "type": "note", 
                            "channel": 0
                        }
                    ]
                ], 
                [
                    86640, 
                    [
                        {
                            "pitch": 56, 
                            "t0": 86640, 
                            "v": 62, 
                            "dur": 106, 
                            "type": "note", 
                            "channel": 0
                        }
                    ]
                ], 
                [
                    86842, 
                    [
                        {
                            "pitch": 68, 
                            "t0": 86842, 
                            "v": 56, 
                            "dur": 135, 
                            "type": "note", 
                            "channel": 0
                        }
                    ]
                ], 
                [
                    86856, 
                    [
                        {
                            "pitch": 56, 
                            "t0": 86856, 
                            "v": 62, 
                            "dur": 92, 
                            "type": "note", 
                            "channel": 0
                        }
                    ]
                ], 
                [
                    87051, 
                    [
                        {
                            "pitch": 68, 
                            "t0": 87051, 
                            "v": 54, 
                            "dur": 147, 
                            "type": "note", 
                            "channel": 0
                        }
                    ]
                ], 
                [
                    87056, 
                    [
                        {
                            "pitch": 56, 
                            "t0": 87056, 
                            "v": 72, 
                            "dur": 117, 
                            "type": "note", 
                            "channel": 0
                        }
                    ]
                ], 
                [
                    87268, 
                    [
                        {
                            "pitch": 68, 
                            "t0": 87268, 
                            "v": 64, 
                            "dur": 159, 
                            "type": "note", 
                            "channel": 0
                        }
                    ]
                ], 
                [
                    87279, 
                    [
                        {
                            "pitch": 56, 
                            "t0": 87279, 
                            "v": 78, 
                            "dur": 130, 
                            "type": "note", 
                            "channel": 0
                        }
                    ]
                ], 
                [
                    87487, 
                    [
                        {
                            "pitch": 68, 
                            "t0": 87487, 
                            "v": 67, 
                            "dur": 140, 
                            "type": "note", 
                            "channel": 0
                        }
                    ]
                ], 
                [
                    87491, 
                    [
                        {
                            "pitch": 56, 
                            "t0": 87491, 
                            "v": 77, 
                            "dur": 117, 
                            "type": "note", 
                            "channel": 0
                        }
                    ]
                ], 
                [
                    87711, 
                    [
                        {
                            "pitch": 56, 
                            "t0": 87711, 
                            "v": 90, 
                            "dur": 108, 
                            "type": "note", 
                            "channel": 0
                        }, 
                        {
                            "pitch": 68, 
                            "t0": 87711, 
                            "v": 76, 
                            "dur": 122, 
                            "type": "note", 
                            "channel": 0
                        }
                    ]
                ], 
                [
                    87938, 
                    [
                        {
                            "pitch": 56, 
                            "t0": 87938, 
                            "v": 81, 
                            "dur": 68, 
                            "type": "note", 
                            "channel": 0
                        }, 
                        {
                            "pitch": 68, 
                            "t0": 87938, 
                            "v": 90, 
                            "dur": 76, 
                            "type": "note", 
                            "channel": 0
                        }
                    ]
                ], 
                [
                    88190, 
                    [
                        {
                            "pitch": 71, 
                            "t0": 88190, 
                            "v": 104, 
                            "dur": 201, 
                            "type": "note", 
                            "channel": 0
                        }
                    ]
                ], 
                [
                    88193, 
                    [
                        {
                            "pitch": 59, 
                            "t0": 88193, 
                            "v": 100, 
                            "dur": 183, 
                            "type": "note", 
                            "channel": 0
                        }, 
                        {
                            "pitch": 28, 
                            "t0": 88193, 
                            "v": 103, 
                            "dur": 531, 
                            "type": "note", 
                            "channel": 0
                        }, 
                        {
                            "pitch": 40, 
                            "t0": 88193, 
                            "v": 114, 
                            "dur": 554, 
                            "type": "note", 
                            "channel": 0
                        }, 
                        {
                            "pitch": 64, 
                            "t0": 88193, 
                            "v": 94, 
                            "dur": 649, 
                            "type": "note", 
                            "channel": 0
                        }, 
                        {
                            "pitch": 68, 
                            "t0": 88193, 
                            "v": 83, 
                            "dur": 671, 
                            "type": "note", 
                            "channel": 0
                        }
                    ]
                ], 
                [
                    88438, 
                    [
                        {
                            "pitch": 71, 
                            "t0": 88438, 
                            "v": 94, 
                            "dur": 169, 
                            "type": "note", 
                            "channel": 0
                        }
                    ]
                ], 
                [
                    88441, 
                    [
                        {
                            "pitch": 59, 
                            "t0": 88441, 
                            "v": 80, 
                            "dur": 155, 
                            "type": "note", 
                            "channel": 0
                        }
                    ]
                ], 
                [
                    88654, 
                    [
                        {
                            "pitch": 71, 
                            "t0": 88654, 
                            "v": 90, 
                            "dur": 132, 
                            "type": "note", 
                            "channel": 0
                        }
                    ]
                ], 
                [
                    88658, 
                    [
                        {
                            "pitch": 59, 
                            "t0": 88658, 
                            "v": 72, 
                            "dur": 111, 
                            "type": "note", 
                            "channel": 0
                        }
                    ]
                ], 
                [
                    88883, 
                    [
                        {
                            "pitch": 59, 
                            "t0": 88883, 
                            "v": 84, 
                            "dur": 101, 
                            "type": "note", 
                            "channel": 0
                        }, 
                        {
                            "pitch": 71, 
                            "t0": 88883, 
                            "v": 91, 
                            "dur": 123, 
                            "type": "note", 
                            "channel": 0
                        }
                    ]
                ], 
                [
                    89111, 
                    [
                        {
                            "pitch": 71, 
                            "t0": 89111, 
                            "v": 101, 
                            "dur": 181, 
                            "type": "note", 
                            "channel": 0
                        }, 
                        {
                            "pitch": 47, 
                            "t0": 89111, 
                            "v": 103, 
                            "dur": 508, 
                            "type": "note", 
                            "channel": 0
                        }, 
                        {
                            "pitch": 63, 
                            "t0": 89111, 
                            "v": 94, 
                            "dur": 630, 
                            "type": "note", 
                            "channel": 0
                        }
                    ]
                ], 
                [
                    89114, 
                    [
                        {
                            "pitch": 59, 
                            "t0": 89114, 
                            "v": 99, 
                            "dur": 174, 
                            "type": "note", 
                            "channel": 0
                        }, 
                        {
                            "pitch": 35, 
                            "t0": 89114, 
                            "v": 114, 
                            "dur": 560, 
                            "type": "note", 
                            "channel": 0
                        }, 
                        {
                            "pitch": 68, 
                            "t0": 89114, 
                            "v": 83, 
                            "dur": 582, 
                            "type": "note", 
                            "channel": 0
                        }
                    ]
                ], 
                [
                    89338, 
                    [
                        {
                            "pitch": 59, 
                            "t0": 89338, 
                            "v": 85, 
                            "dur": 125, 
                            "type": "note", 
                            "channel": 0
                        }, 
                        {
                            "pitch": 71, 
                            "t0": 89338, 
                            "v": 93, 
                            "dur": 136, 
                            "type": "note", 
                            "channel": 0
                        }
                    ]
                ], 
                [
                    89538, 
                    [
                        {
                            "pitch": 71, 
                            "t0": 89538, 
                            "v": 80, 
                            "dur": 117, 
                            "type": "note", 
                            "channel": 0
                        }
                    ]
                ], 
                [
                    89544, 
                    [
                        {
                            "pitch": 59, 
                            "t0": 89544, 
                            "v": 69, 
                            "dur": 97, 
                            "type": "note", 
                            "channel": 0
                        }
                    ]
                ], 
                [
                    89752, 
                    [
                        {
                            "pitch": 59, 
                            "t0": 89752, 
                            "v": 79, 
                            "dur": 84, 
                            "type": "note", 
                            "channel": 0
                        }, 
                        {
                            "pitch": 71, 
                            "t0": 89752, 
                            "v": 91, 
                            "dur": 98, 
                            "type": "note", 
                            "channel": 0
                        }
                    ]
                ], 
                [
                    89972, 
                    [
                        {
                            "pitch": 71, 
                            "t0": 89972, 
                            "v": 106, 
                            "dur": 162, 
                            "type": "note", 
                            "channel": 0
                        }, 
                        {
                            "pitch": 59, 
                            "t0": 89972, 
                            "v": 102, 
                            "dur": 162, 
                            "type": "note", 
                            "channel": 0
                        }, 
                        {
                            "pitch": 64, 
                            "t0": 89972, 
                            "v": 99, 
                            "dur": 555, 
                            "type": "note", 
                            "channel": 0
                        }
                    ]
                ], 
                [
                    89975, 
                    [
                        {
                            "pitch": 28, 
                            "t0": 89975, 
                            "v": 106, 
                            "dur": 398, 
                            "type": "note", 
                            "channel": 0
                        }, 
                        {
                            "pitch": 40, 
                            "t0": 89975, 
                            "v": 118, 
                            "dur": 497, 
                            "type": "note", 
                            "channel": 0
                        }, 
                        {
                            "pitch": 68, 
                            "t0": 89975, 
                            "v": 83, 
                            "dur": 577, 
                            "type": "note", 
                            "channel": 0
                        }
                    ]
                ], 
                [
                    90181, 
                    [
                        {
                            "pitch": 59, 
                            "t0": 90181, 
                            "v": 87, 
                            "dur": 123, 
                            "type": "note", 
                            "channel": 0
                        }, 
                        {
                            "pitch": 71, 
                            "t0": 90181, 
                            "v": 91, 
                            "dur": 145, 
                            "type": "note", 
                            "channel": 0
                        }
                    ]
                ], 
                [
                    90396, 
                    [
                        {
                            "pitch": 71, 
                            "t0": 90396, 
                            "v": 75, 
                            "dur": 126, 
                            "type": "note", 
                            "channel": 0
                        }
                    ]
                ], 
                [
                    90402, 
                    [
                        {
                            "pitch": 59, 
                            "t0": 90402, 
                            "v": 76, 
                            "dur": 88, 
                            "type": "note", 
                            "channel": 0
                        }
                    ]
                ], 
                [
                    90629, 
                    [
                        {
                            "pitch": 71, 
                            "t0": 90629, 
                            "v": 87, 
                            "dur": 117, 
                            "type": "note", 
                            "channel": 0
                        }
                    ]
                ], 
                [
                    90633, 
                    [
                        {
                            "pitch": 59, 
                            "t0": 90633, 
                            "v": 67, 
                            "dur": 113, 
                            "type": "note", 
                            "channel": 0
                        }
                    ]
                ], 
                [
                    90881, 
                    [
                        {
                            "pitch": 59, 
                            "t0": 90881, 
                            "v": 101, 
                            "dur": 191, 
                            "type": "note", 
                            "channel": 0
                        }, 
                        {
                            "pitch": 71, 
                            "t0": 90881, 
                            "v": 105, 
                            "dur": 198, 
                            "type": "note", 
                            "channel": 0
                        }, 
                        {
                            "pitch": 68, 
                            "t0": 90881, 
                            "v": 84, 
                            "dur": 737, 
                            "type": "note", 
                            "channel": 0
                        }
                    ]
                ], 
                [
                    90884, 
                    [
                        {
                            "pitch": 63, 
                            "t0": 90884, 
                            "v": 92, 
                            "dur": 763, 
                            "type": "note", 
                            "channel": 0
                        }
                    ]
                ], 
                [
                    90891, 
                    [
                        {
                            "pitch": 47, 
                            "t0": 90891, 
                            "v": 105, 
                            "dur": 307, 
                            "type": "note", 
                            "channel": 0
                        }, 
                        {
                            "pitch": 35, 
                            "t0": 90891, 
                            "v": 110, 
                            "dur": 333, 
                            "type": "note", 
                            "channel": 0
                        }
                    ]
                ], 
                [
                    91128, 
                    [
                        {
                            "pitch": 59, 
                            "t0": 91128, 
                            "v": 80, 
                            "dur": 124, 
                            "type": "note", 
                            "channel": 0
                        }, 
                        {
                            "pitch": 71, 
                            "t0": 91128, 
                            "v": 92, 
                            "dur": 135, 
                            "type": "note", 
                            "channel": 0
                        }
                    ]
                ], 
                [
                    91334, 
                    [
                        {
                            "pitch": 59, 
                            "t0": 91334, 
                            "v": 73, 
                            "dur": 110, 
                            "type": "note", 
                            "channel": 0
                        }, 
                        {
                            "pitch": 71, 
                            "t0": 91334, 
                            "v": 77, 
                            "dur": 128, 
                            "type": "note", 
                            "channel": 0
                        }
                    ]
                ], 
                [
                    91538, 
                    [
                        {
                            "pitch": 71, 
                            "t0": 91538, 
                            "v": 82, 
                            "dur": 145, 
                            "type": "note", 
                            "channel": 0
                        }, 
                        {
                            "pitch": 46, 
                            "t0": 91538, 
                            "v": 99, 
                            "dur": 148, 
                            "type": "note", 
                            "channel": 0
                        }
                    ]
                ], 
                [
                    91543, 
                    [
                        {
                            "pitch": 59, 
                            "t0": 91543, 
                            "v": 78, 
                            "dur": 129, 
                            "type": "note", 
                            "channel": 0
                        }, 
                        {
                            "pitch": 34, 
                            "t0": 91543, 
                            "v": 96, 
                            "dur": 171, 
                            "type": "note", 
                            "channel": 0
                        }
                    ]
                ], 
                [
                    91747, 
                    [
                        {
                            "pitch": 71, 
                            "t0": 91747, 
                            "v": 95, 
                            "dur": 172, 
                            "type": "note", 
                            "channel": 0
                        }
                    ]
                ], 
                [
                    91750, 
                    [
                        {
                            "pitch": 59, 
                            "t0": 91750, 
                            "v": 98, 
                            "dur": 169, 
                            "type": "note", 
                            "channel": 0
                        }, 
                        {
                            "pitch": 44, 
                            "t0": 91750, 
                            "v": 105, 
                            "dur": 343, 
                            "type": "note", 
                            "channel": 0
                        }, 
                        {
                            "pitch": 63, 
                            "t0": 91750, 
                            "v": 100, 
                            "dur": 585, 
                            "type": "note", 
                            "channel": 0
                        }, 
                        {
                            "pitch": 68, 
                            "t0": 91750, 
                            "v": 89, 
                            "dur": 590, 
                            "type": "note", 
                            "channel": 0
                        }
                    ]
                ], 
                [
                    91756, 
                    [
                        {
                            "pitch": 32, 
                            "t0": 91756, 
                            "v": 97, 
                            "dur": 370, 
                            "type": "note", 
                            "channel": 0
                        }
                    ]
                ], 
                [
                    91970, 
                    [
                        {
                            "pitch": 71, 
                            "t0": 91970, 
                            "v": 88, 
                            "dur": 144, 
                            "type": "note", 
                            "channel": 0
                        }
                    ]
                ], 
                [
                    91975, 
                    [
                        {
                            "pitch": 59, 
                            "t0": 91975, 
                            "v": 78, 
                            "dur": 115, 
                            "type": "note", 
                            "channel": 0
                        }
                    ]
                ], 
                [
                    92190, 
                    [
                        {
                            "pitch": 59, 
                            "t0": 92190, 
                            "v": 86, 
                            "dur": 119, 
                            "type": "note", 
                            "channel": 0
                        }, 
                        {
                            "pitch": 71, 
                            "t0": 92190, 
                            "v": 76, 
                            "dur": 134, 
                            "type": "note", 
                            "channel": 0
                        }
                    ]
                ], 
                [
                    92421, 
                    [
                        {
                            "pitch": 59, 
                            "t0": 92421, 
                            "v": 89, 
                            "dur": 103, 
                            "type": "note", 
                            "channel": 0
                        }, 
                        {
                            "pitch": 71, 
                            "t0": 92421, 
                            "v": 95, 
                            "dur": 125, 
                            "type": "note", 
                            "channel": 0
                        }
                    ]
                ], 
                [
                    92653, 
                    [
                        {
                            "pitch": 71, 
                            "t0": 92653, 
                            "v": 103, 
                            "dur": 159, 
                            "type": "note", 
                            "channel": 0
                        }, 
                        {
                            "pitch": 63, 
                            "t0": 92653, 
                            "v": 90, 
                            "dur": 550, 
                            "type": "note", 
                            "channel": 0
                        }, 
                        {
                            "pitch": 67, 
                            "t0": 92653, 
                            "v": 90, 
                            "dur": 607, 
                            "type": "note", 
                            "channel": 0
                        }
                    ]
                ], 
                [
                    92656, 
                    [
                        {
                            "pitch": 59, 
                            "t0": 92656, 
                            "v": 101, 
                            "dur": 142, 
                            "type": "note", 
                            "channel": 0
                        }, 
                        {
                            "pitch": 51, 
                            "t0": 92656, 
                            "v": 106, 
                            "dur": 378, 
                            "type": "note", 
                            "channel": 0
                        }, 
                        {
                            "pitch": 39, 
                            "t0": 92656, 
                            "v": 101, 
                            "dur": 723, 
                            "type": "note", 
                            "channel": 0
                        }
                    ]
                ], 
                [
                    92864, 
                    [
                        {
                            "pitch": 71, 
                            "t0": 92864, 
                            "v": 83, 
                            "dur": 148, 
                            "type": "note", 
                            "channel": 0
                        }
                    ]
                ], 
                [
                    92872, 
                    [
                        {
                            "pitch": 59, 
                            "t0": 92872, 
                            "v": 63, 
                            "dur": 112, 
                            "type": "note", 
                            "channel": 0
                        }
                    ]
                ], 
                [
                    93092, 
                    [
                        {
                            "pitch": 71, 
                            "t0": 93092, 
                            "v": 78, 
                            "dur": 135, 
                            "type": "note", 
                            "channel": 0
                        }
                    ]
                ], 
                [
                    93098, 
                    [
                        {
                            "pitch": 59, 
                            "t0": 93098, 
                            "v": 85, 
                            "dur": 92, 
                            "type": "note", 
                            "channel": 0
                        }
                    ]
                ], 
                [
                    93330, 
                    [
                        {
                            "pitch": 59, 
                            "t0": 93330, 
                            "v": 83, 
                            "dur": 83, 
                            "type": "note", 
                            "channel": 0
                        }, 
                        {
                            "pitch": 71, 
                            "t0": 93330, 
                            "v": 97, 
                            "dur": 89, 
                            "type": "note", 
                            "channel": 0
                        }
                    ]
                ], 
                [
                    93357, 
                    [
                        {
                            "pitch": 67, 
                            "t0": 93357, 
                            "v": 14, 
                            "dur": 45, 
                            "type": "note", 
                            "channel": 0
                        }
                    ]
                ], 
                [
                    93589, 
                    [
                        {
                            "pitch": 44, 
                            "t0": 93589, 
                            "v": 93, 
                            "dur": 1114, 
                            "type": "note", 
                            "channel": 0
                        }
                    ]
                ], 
                [
                    93592, 
                    [
                        {
                            "pitch": 71, 
                            "t0": 93592, 
                            "v": 100, 
                            "dur": 149, 
                            "type": "note", 
                            "channel": 0
                        }, 
                        {
                            "pitch": 32, 
                            "t0": 93592, 
                            "v": 83, 
                            "dur": 1681, 
                            "type": "note", 
                            "channel": 0
                        }
                    ]
                ], 
                [
                    93596, 
                    [
                        {
                            "pitch": 68, 
                            "t0": 93596, 
                            "v": 80, 
                            "dur": 168, 
                            "type": "note", 
                            "channel": 0
                        }, 
                        {
                            "pitch": 63, 
                            "t0": 93596, 
                            "v": 83, 
                            "dur": 179, 
                            "type": "note", 
                            "channel": 0
                        }, 
                        {
                            "pitch": 59, 
                            "t0": 93596, 
                            "v": 93, 
                            "dur": 379, 
                            "type": "note", 
                            "channel": 0
                        }
                    ]
                ], 
                [
                    93878, 
                    [
                        {
                            "pitch": 56, 
                            "t0": 93878, 
                            "v": 80, 
                            "dur": 168, 
                            "type": "note", 
                            "channel": 0
                        }
                    ]
                ], 
                [
                    94117, 
                    [
                        {
                            "pitch": 56, 
                            "t0": 94117, 
                            "v": 55, 
                            "dur": 159, 
                            "type": "note", 
                            "channel": 0
                        }
                    ]
                ], 
                [
                    94352, 
                    [
                        {
                            "pitch": 56, 
                            "t0": 94352, 
                            "v": 60, 
                            "dur": 133, 
                            "type": "note", 
                            "channel": 0
                        }
                    ]
                ], 
                [
                    94580, 
                    [
                        {
                            "pitch": 56, 
                            "t0": 94580, 
                            "v": 43, 
                            "dur": 115, 
                            "type": "note", 
                            "channel": 0
                        }
                    ]
                ], 
                [
                    94823, 
                    [
                        {
                            "pitch": 56, 
                            "t0": 94823, 
                            "v": 40, 
                            "dur": 103, 
                            "type": "note", 
                            "channel": 0
                        }
                    ]
                ], 
                [
                    95071, 
                    [
                        {
                            "pitch": 56, 
                            "t0": 95071, 
                            "v": 36, 
                            "dur": 114, 
                            "type": "note", 
                            "channel": 0
                        }
                    ]
                ], 
                [
                    95313, 
                    [
                        {
                            "pitch": 56, 
                            "t0": 95313, 
                            "v": 38, 
                            "dur": 119, 
                            "type": "note", 
                            "channel": 0
                        }
                    ]
                ], 
                [
                    95588, 
                    [
                        {
                            "pitch": 56, 
                            "t0": 95588, 
                            "v": 35, 
                            "dur": 157, 
                            "type": "note", 
                            "channel": 0
                        }, 
                        {
                            "pitch": 37, 
                            "t0": 95588, 
                            "v": 63, 
                            "dur": 568, 
                            "type": "note", 
                            "channel": 0
                        }
                    ]
                ], 
                [
                    95592, 
                    [
                        {
                            "pitch": 44, 
                            "t0": 95592, 
                            "v": 47, 
                            "dur": 362, 
                            "type": "note", 
                            "channel": 0
                        }
                    ]
                ], 
                [
                    95850, 
                    [
                        {
                            "pitch": 56, 
                            "t0": 95850, 
                            "v": 40, 
                            "dur": 137, 
                            "type": "note", 
                            "channel": 0
                        }
                    ]
                ], 
                [
                    96084, 
                    [
                        {
                            "pitch": 44, 
                            "t0": 96084, 
                            "v": 66, 
                            "dur": 560, 
                            "type": "note", 
                            "channel": 0
                        }
                    ]
                ], 
                [
                    96093, 
                    [
                        {
                            "pitch": 56, 
                            "t0": 96093, 
                            "v": 38, 
                            "dur": 122, 
                            "type": "note", 
                            "channel": 0
                        }
                    ]
                ], 
                [
                    96098, 
                    [
                        {
                            "pitch": 39, 
                            "t0": 96098, 
                            "v": 50, 
                            "dur": 599, 
                            "type": "note", 
                            "channel": 0
                        }
                    ]
                ], 
                [
                    96324, 
                    [
                        {
                            "pitch": 56, 
                            "t0": 96324, 
                            "v": 45, 
                            "dur": 130, 
                            "type": "note", 
                            "channel": 0
                        }
                    ]
                ], 
                [
                    96571, 
                    [
                        {
                            "pitch": 56, 
                            "t0": 96571, 
                            "v": 36, 
                            "dur": 177, 
                            "type": "note", 
                            "channel": 0
                        }, 
                        {
                            "pitch": 49, 
                            "t0": 96571, 
                            "v": 54, 
                            "dur": 449, 
                            "type": "note", 
                            "channel": 0
                        }
                    ]
                ], 
                [
                    96605, 
                    [
                        {
                            "pitch": 40, 
                            "t0": 96605, 
                            "v": 59, 
                            "dur": 426, 
                            "type": "note", 
                            "channel": 0
                        }
                    ]
                ], 
                [
                    96805, 
                    [
                        {
                            "pitch": 56, 
                            "t0": 96805, 
                            "v": 45, 
                            "dur": 129, 
                            "type": "note", 
                            "channel": 0
                        }
                    ]
                ], 
                [
                    97059, 
                    [
                        {
                            "pitch": 56, 
                            "t0": 97059, 
                            "v": 27, 
                            "dur": 153, 
                            "type": "note", 
                            "channel": 0
                        }
                    ]
                ], 
                [
                    97064, 
                    [
                        {
                            "pitch": 48, 
                            "t0": 97064, 
                            "v": 43, 
                            "dur": 575, 
                            "type": "note", 
                            "channel": 0
                        }
                    ]
                ], 
                [
                    97079, 
                    [
                        {
                            "pitch": 39, 
                            "t0": 97079, 
                            "v": 32, 
                            "dur": 254, 
                            "type": "note", 
                            "channel": 0
                        }
                    ]
                ], 
                [
                    97287, 
                    [
                        {
                            "pitch": 56, 
                            "t0": 97287, 
                            "v": 34, 
                            "dur": 124, 
                            "type": "note", 
                            "channel": 0
                        }
                    ]
                ], 
                [
                    97510, 
                    [
                        {
                            "pitch": 56, 
                            "t0": 97510, 
                            "v": 29, 
                            "dur": 110, 
                            "type": "note", 
                            "channel": 0
                        }, 
                        {
                            "pitch": 44, 
                            "t0": 97510, 
                            "v": 51, 
                            "dur": 343, 
                            "type": "note", 
                            "channel": 0
                        }
                    ]
                ], 
                [
                    97522, 
                    [
                        {
                            "pitch": 39, 
                            "t0": 97522, 
                            "v": 42, 
                            "dur": 501, 
                            "type": "note", 
                            "channel": 0
                        }
                    ]
                ], 
                [
                    97755, 
                    [
                        {
                            "pitch": 56, 
                            "t0": 97755, 
                            "v": 52, 
                            "dur": 115, 
                            "type": "note", 
                            "channel": 0
                        }
                    ]
                ], 
                [
                    97973, 
                    [
                        {
                            "pitch": 44, 
                            "t0": 97973, 
                            "v": 66, 
                            "dur": 504, 
                            "type": "note", 
                            "channel": 0
                        }
                    ]
                ], 
                [
                    97979, 
                    [
                        {
                            "pitch": 56, 
                            "t0": 97979, 
                            "v": 43, 
                            "dur": 133, 
                            "type": "note", 
                            "channel": 0
                        }
                    ]
                ], 
                [
                    97985, 
                    [
                        {
                            "pitch": 40, 
                            "t0": 97985, 
                            "v": 68, 
                            "dur": 467, 
                            "type": "note", 
                            "channel": 0
                        }
                    ]
                ], 
                [
                    98196, 
                    [
                        {
                            "pitch": 56, 
                            "t0": 98196, 
                            "v": 47, 
                            "dur": 126, 
                            "type": "note", 
                            "channel": 0
                        }
                    ]
                ], 
                [
                    98421, 
                    [
                        {
                            "pitch": 56, 
                            "t0": 98421, 
                            "v": 49, 
                            "dur": 190, 
                            "type": "note", 
                            "channel": 0
                        }
                    ]
                ], 
                [
                    98435, 
                    [
                        {
                            "pitch": 51, 
                            "t0": 98435, 
                            "v": 61, 
                            "dur": 418, 
                            "type": "note", 
                            "channel": 0
                        }
                    ]
                ], 
                [
                    98439, 
                    [
                        {
                            "pitch": 42, 
                            "t0": 98439, 
                            "v": 52, 
                            "dur": 476, 
                            "type": "note", 
                            "channel": 0
                        }
                    ]
                ], 
                [
                    98662, 
                    [
                        {
                            "pitch": 56, 
                            "t0": 98662, 
                            "v": 58, 
                            "dur": 125, 
                            "type": "note", 
                            "channel": 0
                        }
                    ]
                ], 
                [
                    98895, 
                    [
                        {
                            "pitch": 56, 
                            "t0": 98895, 
                            "v": 45, 
                            "dur": 158, 
                            "type": "note", 
                            "channel": 0
                        }, 
                        {
                            "pitch": 49, 
                            "t0": 98895, 
                            "v": 57, 
                            "dur": 309, 
                            "type": "note", 
                            "channel": 0
                        }
                    ]
                ], 
                [
                    98909, 
                    [
                        {
                            "pitch": 40, 
                            "t0": 98909, 
                            "v": 57, 
                            "dur": 332, 
                            "type": "note", 
                            "channel": 0
                        }
                    ]
                ], 
                [
                    99110, 
                    [
                        {
                            "pitch": 56, 
                            "t0": 99110, 
                            "v": 50, 
                            "dur": 127, 
                            "type": "note", 
                            "channel": 0
                        }
                    ]
                ], 
                [
                    99327, 
                    [
                        {
                            "pitch": 56, 
                            "t0": 99327, 
                            "v": 45, 
                            "dur": 169, 
                            "type": "note", 
                            "channel": 0
                        }
                    ]
                ], 
                [
                    99344, 
                    [
                        {
                            "pitch": 49, 
                            "t0": 99344, 
                            "v": 84, 
                            "dur": 340, 
                            "type": "note", 
                            "channel": 0
                        }
                    ]
                ], 
                [
                    99358, 
                    [
                        {
                            "pitch": 40, 
                            "t0": 99358, 
                            "v": 81, 
                            "dur": 542, 
                            "type": "note", 
                            "channel": 0
                        }
                    ]
                ], 
                [
                    99578, 
                    [
                        {
                            "pitch": 56, 
                            "t0": 99578, 
                            "v": 44, 
                            "dur": 102, 
                            "type": "note", 
                            "channel": 0
                        }
                    ]
                ], 
                [
                    99795, 
                    [
                        {
                            "pitch": 56, 
                            "t0": 99795, 
                            "v": 63, 
                            "dur": 159, 
                            "type": "note", 
                            "channel": 0
                        }
                    ]
                ], 
                [
                    99814, 
                    [
                        {
                            "pitch": 51, 
                            "t0": 99814, 
                            "v": 76, 
                            "dur": 405, 
                            "type": "note", 
                            "channel": 0
                        }
                    ]
                ], 
                [
                    99823, 
                    [
                        {
                            "pitch": 44, 
                            "t0": 99823, 
                            "v": 58, 
                            "dur": 554, 
                            "type": "note", 
                            "channel": 0
                        }
                    ]
                ], 
                [
                    100027, 
                    [
                        {
                            "pitch": 56, 
                            "t0": 100027, 
                            "v": 47, 
                            "dur": 116, 
                            "type": "note", 
                            "channel": 0
                        }
                    ]
                ], 
                [
                    100249, 
                    [
                        {
                            "pitch": 56, 
                            "t0": 100249, 
                            "v": 50, 
                            "dur": 109, 
                            "type": "note", 
                            "channel": 0
                        }
                    ]
                ], 
                [
                    100269, 
                    [
                        {
                            "pitch": 52, 
                            "t0": 100269, 
                            "v": 73, 
                            "dur": 499, 
                            "type": "note", 
                            "channel": 0
                        }
                    ]
                ], 
                [
                    100276, 
                    [
                        {
                            "pitch": 49, 
                            "t0": 100276, 
                            "v": 39, 
                            "dur": 500, 
                            "type": "note", 
                            "channel": 0
                        }
                    ]
                ], 
                [
                    100492, 
                    [
                        {
                            "pitch": 56, 
                            "t0": 100492, 
                            "v": 57, 
                            "dur": 135, 
                            "type": "note", 
                            "channel": 0
                        }
                    ]
                ], 
                [
                    100715, 
                    [
                        {
                            "pitch": 56, 
                            "t0": 100715, 
                            "v": 36, 
                            "dur": 178, 
                            "type": "note", 
                            "channel": 0
                        }
                    ]
                ], 
                [
                    100729, 
                    [
                        {
                            "pitch": 51, 
                            "t0": 100729, 
                            "v": 68, 
                            "dur": 400, 
                            "type": "note", 
                            "channel": 0
                        }
                    ]
                ], 
                [
                    100751, 
                    [
                        {
                            "pitch": 44, 
                            "t0": 100751, 
                            "v": 44, 
                            "dur": 397, 
                            "type": "note", 
                            "channel": 0
                        }
                    ]
                ], 
                [
                    100987, 
                    [
                        {
                            "pitch": 56, 
                            "t0": 100987, 
                            "v": 46, 
                            "dur": 136, 
                            "type": "note", 
                            "channel": 0
                        }
                    ]
                ], 
                [
                    101226, 
                    [
                        {
                            "pitch": 56, 
                            "t0": 101226, 
                            "v": 44, 
                            "dur": 131, 
                            "type": "note", 
                            "channel": 0
                        }
                    ]
                ], 
                [
                    101251, 
                    [
                        {
                            "pitch": 51, 
                            "t0": 101251, 
                            "v": 68, 
                            "dur": 2187, 
                            "type": "note", 
                            "channel": 0
                        }
                    ]
                ], 
                [
                    101260, 
                    [
                        {
                            "pitch": 44, 
                            "t0": 101260, 
                            "v": 65, 
                            "dur": 2206, 
                            "type": "note", 
                            "channel": 0
                        }
                    ]
                ], 
                [
                    101494, 
                    [
                        {
                            "pitch": 56, 
                            "t0": 101494, 
                            "v": 46, 
                            "dur": 104, 
                            "type": "note", 
                            "channel": 0
                        }
                    ]
                ], 
                [
                    101726, 
                    [
                        {
                            "pitch": 56, 
                            "t0": 101726, 
                            "v": 44, 
                            "dur": 102, 
                            "type": "note", 
                            "channel": 0
                        }
                    ]
                ], 
                [
                    101949, 
                    [
                        {
                            "pitch": 56, 
                            "t0": 101949, 
                            "v": 42, 
                            "dur": 97, 
                            "type": "note", 
                            "channel": 0
                        }
                    ]
                ], 
                [
                    102174, 
                    [
                        {
                            "pitch": 56, 
                            "t0": 102174, 
                            "v": 36, 
                            "dur": 103, 
                            "type": "note", 
                            "channel": 0
                        }
                    ]
                ], 
                [
                    102410, 
                    [
                        {
                            "pitch": 56, 
                            "t0": 102410, 
                            "v": 28, 
                            "dur": 84, 
                            "type": "note", 
                            "channel": 0
                        }
                    ]
                ], 
                [
                    102622, 
                    [
                        {
                            "pitch": 56, 
                            "t0": 102622, 
                            "v": 32, 
                            "dur": 96, 
                            "type": "note", 
                            "channel": 0
                        }
                    ]
                ], 
                [
                    102848, 
                    [
                        {
                            "pitch": 56, 
                            "t0": 102848, 
                            "v": 28, 
                            "dur": 80, 
                            "type": "note", 
                            "channel": 0
                        }
                    ]
                ], 
                [
                    103068, 
                    [
                        {
                            "pitch": 56, 
                            "t0": 103068, 
                            "v": 24, 
                            "dur": 98, 
                            "type": "note", 
                            "channel": 0
                        }
                    ]
                ], 
                [
                    103302, 
                    [
                        {
                            "pitch": 56, 
                            "t0": 103302, 
                            "v": 27, 
                            "dur": 95, 
                            "type": "note", 
                            "channel": 0
                        }
                    ]
                ], 
                [
                    103537, 
                    [
                        {
                            "pitch": 52, 
                            "t0": 103537, 
                            "v": 64, 
                            "dur": 317, 
                            "type": "note", 
                            "channel": 0
                        }
                    ]
                ], 
                [
                    103541, 
                    [
                        {
                            "pitch": 56, 
                            "t0": 103541, 
                            "v": 26, 
                            "dur": 132, 
                            "type": "note", 
                            "channel": 0
                        }
                    ]
                ], 
                [
                    103564, 
                    [
                        {
                            "pitch": 49, 
                            "t0": 103564, 
                            "v": 25, 
                            "dur": 456, 
                            "type": "note", 
                            "channel": 0
                        }
                    ]
                ], 
                [
                    103787, 
                    [
                        {
                            "pitch": 56, 
                            "t0": 103787, 
                            "v": 33, 
                            "dur": 89, 
                            "type": "note", 
                            "channel": 0
                        }
                    ]
                ], 
                [
                    104020, 
                    [
                        {
                            "pitch": 51, 
                            "t0": 104020, 
                            "v": 56, 
                            "dur": 319, 
                            "type": "note", 
                            "channel": 0
                        }
                    ]
                ], 
                [
                    104029, 
                    [
                        {
                            "pitch": 56, 
                            "t0": 104029, 
                            "v": 26, 
                            "dur": 100, 
                            "type": "note", 
                            "channel": 0
                        }
                    ]
                ], 
                [
                    104044, 
                    [
                        {
                            "pitch": 44, 
                            "t0": 104044, 
                            "v": 41, 
                            "dur": 395, 
                            "type": "note", 
                            "channel": 0
                        }
                    ]
                ], 
                [
                    104252, 
                    [
                        {
                            "pitch": 56, 
                            "t0": 104252, 
                            "v": 40, 
                            "dur": 100, 
                            "type": "note", 
                            "channel": 0
                        }
                    ]
                ], 
                [
                    104478, 
                    [
                        {
                            "pitch": 56, 
                            "t0": 104478, 
                            "v": 37, 
                            "dur": 95, 
                            "type": "note", 
                            "channel": 0
                        }
                    ]
                ], 
                [
                    104484, 
                    [
                        {
                            "pitch": 49, 
                            "t0": 104484, 
                            "v": 55, 
                            "dur": 337, 
                            "type": "note", 
                            "channel": 0
                        }
                    ]
                ], 
                [
                    104505, 
                    [
                        {
                            "pitch": 40, 
                            "t0": 104505, 
                            "v": 52, 
                            "dur": 426, 
                            "type": "note", 
                            "channel": 0
                        }
                    ]
                ], 
                [
                    104707, 
                    [
                        {
                            "pitch": 56, 
                            "t0": 104707, 
                            "v": 44, 
                            "dur": 102, 
                            "type": "note", 
                            "channel": 0
                        }
                    ]
                ], 
                [
                    104935, 
                    [
                        {
                            "pitch": 56, 
                            "t0": 104935, 
                            "v": 41, 
                            "dur": 148, 
                            "type": "note", 
                            "channel": 0
                        }
                    ]
                ], 
                [
                    104946, 
                    [
                        {
                            "pitch": 51, 
                            "t0": 104946, 
                            "v": 52, 
                            "dur": 348, 
                            "type": "note", 
                            "channel": 0
                        }
                    ]
                ], 
                [
                    104957, 
                    [
                        {
                            "pitch": 44, 
                            "t0": 104957, 
                            "v": 45, 
                            "dur": 471, 
                            "type": "note", 
                            "channel": 0
                        }
                    ]
                ], 
                [
                    105197, 
                    [
                        {
                            "pitch": 56, 
                            "t0": 105197, 
                            "v": 38, 
                            "dur": 81, 
                            "type": "note", 
                            "channel": 0
                        }
                    ]
                ], 
                [
                    105428, 
                    [
                        {
                            "pitch": 56, 
                            "t0": 105428, 
                            "v": 32, 
                            "dur": 147, 
                            "type": "note", 
                            "channel": 0
                        }
                    ]
                ], 
                [
                    105444, 
                    [
                        {
                            "pitch": 49, 
                            "t0": 105444, 
                            "v": 51, 
                            "dur": 270, 
                            "type": "note", 
                            "channel": 0
                        }
                    ]
                ], 
                [
                    105463, 
                    [
                        {
                            "pitch": 40, 
                            "t0": 105463, 
                            "v": 49, 
                            "dur": 324, 
                            "type": "note", 
                            "channel": 0
                        }
                    ]
                ], 
                [
                    105665, 
                    [
                        {
                            "pitch": 56, 
                            "t0": 105665, 
                            "v": 35, 
                            "dur": 100, 
                            "type": "note", 
                            "channel": 0
                        }
                    ]
                ], 
                [
                    105901, 
                    [
                        {
                            "pitch": 56, 
                            "t0": 105901, 
                            "v": 32, 
                            "dur": 129, 
                            "type": "note", 
                            "channel": 0
                        }, 
                        {
                            "pitch": 48, 
                            "t0": 105901, 
                            "v": 59, 
                            "dur": 256, 
                            "type": "note", 
                            "channel": 0
                        }
                    ]
                ], 
                [
                    105910, 
                    [
                        {
                            "pitch": 39, 
                            "t0": 105910, 
                            "v": 38, 
                            "dur": 395, 
                            "type": "note", 
                            "channel": 0
                        }
                    ]
                ], 
                [
                    106124, 
                    [
                        {
                            "pitch": 56, 
                            "t0": 106124, 
                            "v": 30, 
                            "dur": 98, 
                            "type": "note", 
                            "channel": 0
                        }
                    ]
                ], 
                [
                    106341, 
                    [
                        {
                            "pitch": 49, 
                            "t0": 106341, 
                            "v": 61, 
                            "dur": 360, 
                            "type": "note", 
                            "channel": 0
                        }
                    ]
                ], 
                [
                    106349, 
                    [
                        {
                            "pitch": 56, 
                            "t0": 106349, 
                            "v": 40, 
                            "dur": 124, 
                            "type": "note", 
                            "channel": 0
                        }
                    ]
                ], 
                [
                    106359, 
                    [
                        {
                            "pitch": 40, 
                            "t0": 106359, 
                            "v": 58, 
                            "dur": 348, 
                            "type": "note", 
                            "channel": 0
                        }
                    ]
                ], 
                [
                    106565, 
                    [
                        {
                            "pitch": 56, 
                            "t0": 106565, 
                            "v": 39, 
                            "dur": 100, 
                            "type": "note", 
                            "channel": 0
                        }
                    ]
                ], 
                [
                    106790, 
                    [
                        {
                            "pitch": 56, 
                            "t0": 106790, 
                            "v": 41, 
                            "dur": 153, 
                            "type": "note", 
                            "channel": 0
                        }
                    ]
                ], 
                [
                    106795, 
                    [
                        {
                            "pitch": 48, 
                            "t0": 106795, 
                            "v": 60, 
                            "dur": 301, 
                            "type": "note", 
                            "channel": 0
                        }
                    ]
                ], 
                [
                    106799, 
                    [
                        {
                            "pitch": 39, 
                            "t0": 106799, 
                            "v": 50, 
                            "dur": 453, 
                            "type": "note", 
                            "channel": 0
                        }
                    ]
                ], 
                [
                    107033, 
                    [
                        {
                            "pitch": 56, 
                            "t0": 107033, 
                            "v": 38, 
                            "dur": 105, 
                            "type": "note", 
                            "channel": 0
                        }
                    ]
                ], 
                [
                    107252, 
                    [
                        {
                            "pitch": 49, 
                            "t0": 107252, 
                            "v": 59, 
                            "dur": 362, 
                            "type": "note", 
                            "channel": 0
                        }
                    ]
                ], 
                [
                    107257, 
                    [
                        {
                            "pitch": 56, 
                            "t0": 107257, 
                            "v": 31, 
                            "dur": 124, 
                            "type": "note", 
                            "channel": 0
                        }
                    ]
                ], 
                [
                    107266, 
                    [
                        {
                            "pitch": 40, 
                            "t0": 107266, 
                            "v": 55, 
                            "dur": 474, 
                            "type": "note", 
                            "channel": 0
                        }
                    ]
                ], 
                [
                    107477, 
                    [
                        {
                            "pitch": 56, 
                            "t0": 107477, 
                            "v": 41, 
                            "dur": 101, 
                            "type": "note", 
                            "channel": 0
                        }
                    ]
                ], 
                [
                    107701, 
                    [
                        {
                            "pitch": 56, 
                            "t0": 107701, 
                            "v": 41, 
                            "dur": 112, 
                            "type": "note", 
                            "channel": 0
                        }
                    ]
                ], 
                [
                    107709, 
                    [
                        {
                            "pitch": 51, 
                            "t0": 107709, 
                            "v": 60, 
                            "dur": 351, 
                            "type": "note", 
                            "channel": 0
                        }
                    ]
                ], 
                [
                    107718, 
                    [
                        {
                            "pitch": 39, 
                            "t0": 107718, 
                            "v": 47, 
                            "dur": 428, 
                            "type": "note", 
                            "channel": 0
                        }
                    ]
                ], 
                [
                    107935, 
                    [
                        {
                            "pitch": 56, 
                            "t0": 107935, 
                            "v": 48, 
                            "dur": 92, 
                            "type": "note", 
                            "channel": 0
                        }
                    ]
                ], 
                [
                    108152, 
                    [
                        {
                            "pitch": 56, 
                            "t0": 108152, 
                            "v": 49, 
                            "dur": 139, 
                            "type": "note", 
                            "channel": 0
                        }, 
                        {
                            "pitch": 52, 
                            "t0": 108152, 
                            "v": 69, 
                            "dur": 314, 
                            "type": "note", 
                            "channel": 0
                        }
                    ]
                ], 
                [
                    108158, 
                    [
                        {
                            "pitch": 37, 
                            "t0": 108158, 
                            "v": 48, 
                            "dur": 523, 
                            "type": "note", 
                            "channel": 0
                        }
                    ]
                ], 
                [
                    108377, 
                    [
                        {
                            "pitch": 56, 
                            "t0": 108377, 
                            "v": 39, 
                            "dur": 132, 
                            "type": "note", 
                            "channel": 0
                        }
                    ]
                ], 
                [
                    108620, 
                    [
                        {
                            "pitch": 56, 
                            "t0": 108620, 
                            "v": 41, 
                            "dur": 173, 
                            "type": "note", 
                            "channel": 0
                        }
                    ]
                ], 
                [
                    108628, 
                    [
                        {
                            "pitch": 51, 
                            "t0": 108628, 
                            "v": 60, 
                            "dur": 1315, 
                            "type": "note", 
                            "channel": 0
                        }, 
                        {
                            "pitch": 44, 
                            "t0": 108628, 
                            "v": 54, 
                            "dur": 1413, 
                            "type": "note", 
                            "channel": 0
                        }
                    ]
                ], 
                [
                    108870, 
                    [
                        {
                            "pitch": 56, 
                            "t0": 108870, 
                            "v": 36, 
                            "dur": 157, 
                            "type": "note", 
                            "channel": 0
                        }
                    ]
                ], 
                [
                    108887, 
                    [
                        {
                            "pitch": 68, 
                            "t0": 108887, 
                            "v": 41, 
                            "dur": 126, 
                            "type": "note", 
                            "channel": 0
                        }
                    ]
                ], 
                [
                    109090, 
                    [
                        {
                            "pitch": 68, 
                            "t0": 109090, 
                            "v": 28, 
                            "dur": 123, 
                            "type": "note", 
                            "channel": 0
                        }
                    ]
                ], 
                [
                    109096, 
                    [
                        {
                            "pitch": 56, 
                            "t0": 109096, 
                            "v": 40, 
                            "dur": 114, 
                            "type": "note", 
                            "channel": 0
                        }
                    ]
                ], 
                [
                    109306, 
                    [
                        {
                            "pitch": 68, 
                            "t0": 109306, 
                            "v": 33, 
                            "dur": 117, 
                            "type": "note", 
                            "channel": 0
                        }
                    ]
                ], 
                [
                    109317, 
                    [
                        {
                            "pitch": 56, 
                            "t0": 109317, 
                            "v": 36, 
                            "dur": 70, 
                            "type": "note", 
                            "channel": 0
                        }
                    ]
                ], 
                [
                    109512, 
                    [
                        {
                            "pitch": 68, 
                            "t0": 109512, 
                            "v": 30, 
                            "dur": 116, 
                            "type": "note", 
                            "channel": 0
                        }
                    ]
                ], 
                [
                    109529, 
                    [
                        {
                            "pitch": 56, 
                            "t0": 109529, 
                            "v": 40, 
                            "dur": 77, 
                            "type": "note", 
                            "channel": 0
                        }
                    ]
                ], 
                [
                    109729, 
                    [
                        {
                            "pitch": 56, 
                            "t0": 109729, 
                            "v": 44, 
                            "dur": 80, 
                            "type": "note", 
                            "channel": 0
                        }, 
                        {
                            "pitch": 68, 
                            "t0": 109729, 
                            "v": 43, 
                            "dur": 111, 
                            "type": "note", 
                            "channel": 0
                        }
                    ]
                ], 
                [
                    109943, 
                    [
                        {
                            "pitch": 68, 
                            "t0": 109943, 
                            "v": 51, 
                            "dur": 101, 
                            "type": "note", 
                            "channel": 0
                        }
                    ]
                ], 
                [
                    109949, 
                    [
                        {
                            "pitch": 56, 
                            "t0": 109949, 
                            "v": 47, 
                            "dur": 62, 
                            "type": "note", 
                            "channel": 0
                        }
                    ]
                ], 
                [
                    110164, 
                    [
                        {
                            "pitch": 68, 
                            "t0": 110164, 
                            "v": 59, 
                            "dur": 111, 
                            "type": "note", 
                            "channel": 0
                        }
                    ]
                ], 
                [
                    110175, 
                    [
                        {
                            "pitch": 56, 
                            "t0": 110175, 
                            "v": 44, 
                            "dur": 67, 
                            "type": "note", 
                            "channel": 0
                        }
                    ]
                ], 
                [
                    110408, 
                    [
                        {
                            "pitch": 44, 
                            "t0": 110408, 
                            "v": 70, 
                            "dur": 257, 
                            "type": "note", 
                            "channel": 0
                        }
                    ]
                ], 
                [
                    110412, 
                    [
                        {
                            "pitch": 68, 
                            "t0": 110412, 
                            "v": 44, 
                            "dur": 125, 
                            "type": "note", 
                            "channel": 0
                        }, 
                        {
                            "pitch": 37, 
                            "t0": 110412, 
                            "v": 71, 
                            "dur": 381, 
                            "type": "note", 
                            "channel": 0
                        }
                    ]
                ], 
                [
                    110417, 
                    [
                        {
                            "pitch": 56, 
                            "t0": 110417, 
                            "v": 42, 
                            "dur": 73, 
                            "type": "note", 
                            "channel": 0
                        }
                    ]
                ], 
                [
                    110657, 
                    [
                        {
                            "pitch": 56, 
                            "t0": 110657, 
                            "v": 48, 
                            "dur": 102, 
                            "type": "note", 
                            "channel": 0
                        }, 
                        {
                            "pitch": 68, 
                            "t0": 110657, 
                            "v": 59, 
                            "dur": 120, 
                            "type": "note", 
                            "channel": 0
                        }
                    ]
                ], 
                [
                    110880, 
                    [
                        {
                            "pitch": 56, 
                            "t0": 110880, 
                            "v": 50, 
                            "dur": 124, 
                            "type": "note", 
                            "channel": 0
                        }, 
                        {
                            "pitch": 39, 
                            "t0": 110880, 
                            "v": 62, 
                            "dur": 470, 
                            "type": "note", 
                            "channel": 0
                        }
                    ]
                ], 
                [
                    110883, 
                    [
                        {
                            "pitch": 44, 
                            "t0": 110883, 
                            "v": 70, 
                            "dur": 885, 
                            "type": "note", 
                            "channel": 0
                        }
                    ]
                ], 
                [
                    110887, 
                    [
                        {
                            "pitch": 68, 
                            "t0": 110887, 
                            "v": 54, 
                            "dur": 131, 
                            "type": "note", 
                            "channel": 0
                        }
                    ]
                ], 
                [
                    111105, 
                    [
                        {
                            "pitch": 68, 
                            "t0": 111105, 
                            "v": 47, 
                            "dur": 108, 
                            "type": "note", 
                            "channel": 0
                        }
                    ]
                ], 
                [
                    111116, 
                    [
                        {
                            "pitch": 56, 
                            "t0": 111116, 
                            "v": 57, 
                            "dur": 97, 
                            "type": "note", 
                            "channel": 0
                        }
                    ]
                ], 
                [
                    111320, 
                    [
                        {
                            "pitch": 56, 
                            "t0": 111320, 
                            "v": 67, 
                            "dur": 127, 
                            "type": "note", 
                            "channel": 0
                        }
                    ]
                ], 
                [
                    111323, 
                    [
                        {
                            "pitch": 68, 
                            "t0": 111323, 
                            "v": 67, 
                            "dur": 141, 
                            "type": "note", 
                            "channel": 0
                        }, 
                        {
                            "pitch": 61, 
                            "t0": 111323, 
                            "v": 65, 
                            "dur": 320, 
                            "type": "note", 
                            "channel": 0
                        }
                    ]
                ], 
                [
                    111330, 
                    [
                        {
                            "pitch": 49, 
                            "t0": 111330, 
                            "v": 55, 
                            "dur": 376, 
                            "type": "note", 
                            "channel": 0
                        }
                    ]
                ], 
                [
                    111334, 
                    [
                        {
                            "pitch": 40, 
                            "t0": 111334, 
                            "v": 82, 
                            "dur": 390, 
                            "type": "note", 
                            "channel": 0
                        }
                    ]
                ], 
                [
                    111551, 
                    [
                        {
                            "pitch": 68, 
                            "t0": 111551, 
                            "v": 54, 
                            "dur": 119, 
                            "type": "note", 
                            "channel": 0
                        }
                    ]
                ], 
                [
                    111556, 
                    [
                        {
                            "pitch": 56, 
                            "t0": 111556, 
                            "v": 57, 
                            "dur": 103, 
                            "type": "note", 
                            "channel": 0
                        }
                    ]
                ], 
                [
                    111773, 
                    [
                        {
                            "pitch": 56, 
                            "t0": 111773, 
                            "v": 58, 
                            "dur": 125, 
                            "type": "note", 
                            "channel": 0
                        }, 
                        {
                            "pitch": 68, 
                            "t0": 111773, 
                            "v": 64, 
                            "dur": 145, 
                            "type": "note", 
                            "channel": 0
                        }
                    ]
                ], 
                [
                    111781, 
                    [
                        {
                            "pitch": 39, 
                            "t0": 111781, 
                            "v": 57, 
                            "dur": 332, 
                            "type": "note", 
                            "channel": 0
                        }, 
                        {
                            "pitch": 48, 
                            "t0": 111781, 
                            "v": 62, 
                            "dur": 407, 
                            "type": "note", 
                            "channel": 0
                        }, 
                        {
                            "pitch": 60, 
                            "t0": 111781, 
                            "v": 62, 
                            "dur": 407, 
                            "type": "note", 
                            "channel": 0
                        }
                    ]
                ], 
                [
                    111996, 
                    [
                        {
                            "pitch": 68, 
                            "t0": 111996, 
                            "v": 47, 
                            "dur": 139, 
                            "type": "note", 
                            "channel": 0
                        }
                    ]
                ], 
                [
                    112008, 
                    [
                        {
                            "pitch": 56, 
                            "t0": 112008, 
                            "v": 57, 
                            "dur": 105, 
                            "type": "note", 
                            "channel": 0
                        }
                    ]
                ], 
                [
                    112216, 
                    [
                        {
                            "pitch": 68, 
                            "t0": 112216, 
                            "v": 47, 
                            "dur": 145, 
                            "type": "note", 
                            "channel": 0
                        }
                    ]
                ], 
                [
                    112227, 
                    [
                        {
                            "pitch": 56, 
                            "t0": 112227, 
                            "v": 56, 
                            "dur": 110, 
                            "type": "note", 
                            "channel": 0
                        }
                    ]
                ], 
                [
                    112231, 
                    [
                        {
                            "pitch": 44, 
                            "t0": 112231, 
                            "v": 76, 
                            "dur": 256, 
                            "type": "note", 
                            "channel": 0
                        }
                    ]
                ], 
                [
                    112236, 
                    [
                        {
                            "pitch": 39, 
                            "t0": 112236, 
                            "v": 66, 
                            "dur": 462, 
                            "type": "note", 
                            "channel": 0
                        }
                    ]
                ], 
                [
                    112453, 
                    [
                        {
                            "pitch": 56, 
                            "t0": 112453, 
                            "v": 62, 
                            "dur": 111, 
                            "type": "note", 
                            "channel": 0
                        }, 
                        {
                            "pitch": 68, 
                            "t0": 112453, 
                            "v": 52, 
                            "dur": 125, 
                            "type": "note", 
                            "channel": 0
                        }
                    ]
                ], 
                [
                    112679, 
                    [
                        {
                            "pitch": 56, 
                            "t0": 112679, 
                            "v": 67, 
                            "dur": 128, 
                            "type": "note", 
                            "channel": 0
                        }, 
                        {
                            "pitch": 68, 
                            "t0": 112679, 
                            "v": 69, 
                            "dur": 134, 
                            "type": "note", 
                            "channel": 0
                        }, 
                        {
                            "pitch": 44, 
                            "t0": 112679, 
                            "v": 82, 
                            "dur": 287, 
                            "type": "note", 
                            "channel": 0
                        }, 
                        {
                            "pitch": 40, 
                            "t0": 112679, 
                            "v": 91, 
                            "dur": 293, 
                            "type": "note", 
                            "channel": 0
                        }
                    ]
                ], 
                [
                    112897, 
                    [
                        {
                            "pitch": 56, 
                            "t0": 112897, 
                            "v": 62, 
                            "dur": 93, 
                            "type": "note", 
                            "channel": 0
                        }, 
                        {
                            "pitch": 68, 
                            "t0": 112897, 
                            "v": 55, 
                            "dur": 114, 
                            "type": "note", 
                            "channel": 0
                        }
                    ]
                ], 
                [
                    113117, 
                    [
                        {
                            "pitch": 56, 
                            "t0": 113117, 
                            "v": 69, 
                            "dur": 128, 
                            "type": "note", 
                            "channel": 0
                        }, 
                        {
                            "pitch": 68, 
                            "t0": 113117, 
                            "v": 77, 
                            "dur": 142, 
                            "type": "note", 
                            "channel": 0
                        }, 
                        {
                            "pitch": 51, 
                            "t0": 113117, 
                            "v": 80, 
                            "dur": 322, 
                            "type": "note", 
                            "channel": 0
                        }, 
                        {
                            "pitch": 63, 
                            "t0": 113117, 
                            "v": 77, 
                            "dur": 476, 
                            "type": "note", 
                            "channel": 0
                        }
                    ]
                ], 
                [
                    113124, 
                    [
                        {
                            "pitch": 42, 
                            "t0": 113124, 
                            "v": 75, 
                            "dur": 443, 
                            "type": "note", 
                            "channel": 0
                        }
                    ]
                ], 
                [
                    113328, 
                    [
                        {
                            "pitch": 68, 
                            "t0": 113328, 
                            "v": 56, 
                            "dur": 133, 
                            "type": "note", 
                            "channel": 0
                        }
                    ]
                ], 
                [
                    113339, 
                    [
                        {
                            "pitch": 56, 
                            "t0": 113339, 
                            "v": 58, 
                            "dur": 100, 
                            "type": "note", 
                            "channel": 0
                        }
                    ]
                ], 
                [
                    113551, 
                    [
                        {
                            "pitch": 56, 
                            "t0": 113551, 
                            "v": 64, 
                            "dur": 127, 
                            "type": "note", 
                            "channel": 0
                        }, 
                        {
                            "pitch": 68, 
                            "t0": 113551, 
                            "v": 57, 
                            "dur": 145, 
                            "type": "note", 
                            "channel": 0
                        }, 
                        {
                            "pitch": 61, 
                            "t0": 113551, 
                            "v": 75, 
                            "dur": 749, 
                            "type": "note", 
                            "channel": 0
                        }
                    ]
                ], 
                [
                    113559, 
                    [
                        {
                            "pitch": 49, 
                            "t0": 113559, 
                            "v": 75, 
                            "dur": 267, 
                            "type": "note", 
                            "channel": 0
                        }
                    ]
                ], 
                [
                    113567, 
                    [
                        {
                            "pitch": 40, 
                            "t0": 113567, 
                            "v": 84, 
                            "dur": 265, 
                            "type": "note", 
                            "channel": 0
                        }
                    ]
                ], 
                [
                    113777, 
                    [
                        {
                            "pitch": 68, 
                            "t0": 113777, 
                            "v": 52, 
                            "dur": 138, 
                            "type": "note", 
                            "channel": 0
                        }
                    ]
                ], 
                [
                    113785, 
                    [
                        {
                            "pitch": 56, 
                            "t0": 113785, 
                            "v": 67, 
                            "dur": 95, 
                            "type": "note", 
                            "channel": 0
                        }
                    ]
                ], 
                [
                    113991, 
                    [
                        {
                            "pitch": 68, 
                            "t0": 113991, 
                            "v": 52, 
                            "dur": 145, 
                            "type": "note", 
                            "channel": 0
                        }
                    ]
                ], 
                [
                    113996, 
                    [
                        {
                            "pitch": 56, 
                            "t0": 113996, 
                            "v": 64, 
                            "dur": 114, 
                            "type": "note", 
                            "channel": 0
                        }
                    ]
                ], 
                [
                    114007, 
                    [
                        {
                            "pitch": 49, 
                            "t0": 114007, 
                            "v": 88, 
                            "dur": 290, 
                            "type": "note", 
                            "channel": 0
                        }
                    ]
                ], 
                [
                    114018, 
                    [
                        {
                            "pitch": 40, 
                            "t0": 114018, 
                            "v": 94, 
                            "dur": 287, 
                            "type": "note", 
                            "channel": 0
                        }
                    ]
                ], 
                [
                    114216, 
                    [
                        {
                            "pitch": 56, 
                            "t0": 114216, 
                            "v": 66, 
                            "dur": 93, 
                            "type": "note", 
                            "channel": 0
                        }, 
                        {
                            "pitch": 68, 
                            "t0": 114216, 
                            "v": 56, 
                            "dur": 126, 
                            "type": "note", 
                            "channel": 0
                        }
                    ]
                ], 
                [
                    114437, 
                    [
                        {
                            "pitch": 56, 
                            "t0": 114437, 
                            "v": 75, 
                            "dur": 127, 
                            "type": "note", 
                            "channel": 0
                        }, 
                        {
                            "pitch": 68, 
                            "t0": 114437, 
                            "v": 73, 
                            "dur": 139, 
                            "type": "note", 
                            "channel": 0
                        }, 
                        {
                            "pitch": 51, 
                            "t0": 114437, 
                            "v": 83, 
                            "dur": 362, 
                            "type": "note", 
                            "channel": 0
                        }
                    ]
                ], 
                [
                    114440, 
                    [
                        {
                            "pitch": 63, 
                            "t0": 114440, 
                            "v": 78, 
                            "dur": 317, 
                            "type": "note", 
                            "channel": 0
                        }
                    ]
                ], 
                [
                    114445, 
                    [
                        {
                            "pitch": 44, 
                            "t0": 114445, 
                            "v": 74, 
                            "dur": 382, 
                            "type": "note", 
                            "channel": 0
                        }
                    ]
                ], 
                [
                    114659, 
                    [
                        {
                            "pitch": 68, 
                            "t0": 114659, 
                            "v": 64, 
                            "dur": 156, 
                            "type": "note", 
                            "channel": 0
                        }
                    ]
                ], 
                [
                    114668, 
                    [
                        {
                            "pitch": 56, 
                            "t0": 114668, 
                            "v": 68, 
                            "dur": 125, 
                            "type": "note", 
                            "channel": 0
                        }
                    ]
                ], 
                [
                    114876, 
                    [
                        {
                            "pitch": 68, 
                            "t0": 114876, 
                            "v": 60, 
                            "dur": 140, 
                            "type": "note", 
                            "channel": 0
                        }
                    ]
                ], 
                [
                    114880, 
                    [
                        {
                            "pitch": 56, 
                            "t0": 114880, 
                            "v": 75, 
                            "dur": 114, 
                            "type": "note", 
                            "channel": 0
                        }, 
                        {
                            "pitch": 64, 
                            "t0": 114880, 
                            "v": 92, 
                            "dur": 372, 
                            "type": "note", 
                            "channel": 0
                        }
                    ]
                ], 
                [
                    114884, 
                    [
                        {
                            "pitch": 52, 
                            "t0": 114884, 
                            "v": 92, 
                            "dur": 261, 
                            "type": "note", 
                            "channel": 0
                        }
                    ]
                ], 
                [
                    114891, 
                    [
                        {
                            "pitch": 49, 
                            "t0": 114891, 
                            "v": 72, 
                            "dur": 293, 
                            "type": "note", 
                            "channel": 0
                        }
                    ]
                ], 
                [
                    115105, 
                    [
                        {
                            "pitch": 56, 
                            "t0": 115105, 
                            "v": 70, 
                            "dur": 90, 
                            "type": "note", 
                            "channel": 0
                        }, 
                        {
                            "pitch": 68, 
                            "t0": 115105, 
                            "v": 67, 
                            "dur": 114, 
                            "type": "note", 
                            "channel": 0
                        }
                    ]
                ], 
                [
                    115326, 
                    [
                        {
                            "pitch": 56, 
                            "t0": 115326, 
                            "v": 81, 
                            "dur": 124, 
                            "type": "note", 
                            "channel": 0
                        }, 
                        {
                            "pitch": 68, 
                            "t0": 115326, 
                            "v": 83, 
                            "dur": 138, 
                            "type": "note", 
                            "channel": 0
                        }, 
                        {
                            "pitch": 51, 
                            "t0": 115326, 
                            "v": 91, 
                            "dur": 147, 
                            "type": "note", 
                            "channel": 0
                        }, 
                        {
                            "pitch": 63, 
                            "t0": 115326, 
                            "v": 86, 
                            "dur": 326, 
                            "type": "note", 
                            "channel": 0
                        }
                    ]
                ], 
                [
                    115331, 
                    [
                        {
                            "pitch": 44, 
                            "t0": 115331, 
                            "v": 88, 
                            "dur": 176, 
                            "type": "note", 
                            "channel": 0
                        }
                    ]
                ], 
                [
                    115557, 
                    [
                        {
                            "pitch": 68, 
                            "t0": 115557, 
                            "v": 65, 
                            "dur": 141, 
                            "type": "note", 
                            "channel": 0
                        }
                    ]
                ], 
                [
                    115562, 
                    [
                        {
                            "pitch": 56, 
                            "t0": 115562, 
                            "v": 71, 
                            "dur": 117, 
                            "type": "note", 
                            "channel": 0
                        }
                    ]
                ], 
                [
                    115599, 
                    [
                        {
                            "pitch": 32, 
                            "t0": 115599, 
                            "v": 90, 
                            "dur": 46, 
                            "type": "note", 
                            "channel": 0
                        }
                    ]
                ], 
                [
                    115794, 
                    [
                        {
                            "pitch": 56, 
                            "t0": 115794, 
                            "v": 83, 
                            "dur": 138, 
                            "type": "note", 
                            "channel": 0
                        }, 
                        {
                            "pitch": 68, 
                            "t0": 115794, 
                            "v": 81, 
                            "dur": 167, 
                            "type": "note", 
                            "channel": 0
                        }, 
                        {
                            "pitch": 63, 
                            "t0": 115794, 
                            "v": 86, 
                            "dur": 793, 
                            "type": "note", 
                            "channel": 0
                        }
                    ]
                ], 
                [
                    115808, 
                    [
                        {
                            "pitch": 51, 
                            "t0": 115808, 
                            "v": 95, 
                            "dur": 1102, 
                            "type": "note", 
                            "channel": 0
                        }
                    ]
                ], 
                [
                    115816, 
                    [
                        {
                            "pitch": 44, 
                            "t0": 115816, 
                            "v": 84, 
                            "dur": 1180, 
                            "type": "note", 
                            "channel": 0
                        }
                    ]
                ], 
                [
                    116022, 
                    [
                        {
                            "pitch": 68, 
                            "t0": 116022, 
                            "v": 58, 
                            "dur": 147, 
                            "type": "note", 
                            "channel": 0
                        }
                    ]
                ], 
                [
                    116033, 
                    [
                        {
                            "pitch": 56, 
                            "t0": 116033, 
                            "v": 68, 
                            "dur": 130, 
                            "type": "note", 
                            "channel": 0
                        }
                    ]
                ], 
                [
                    116222, 
                    [
                        {
                            "pitch": 68, 
                            "t0": 116222, 
                            "v": 63, 
                            "dur": 139, 
                            "type": "note", 
                            "channel": 0
                        }
                    ]
                ], 
                [
                    116230, 
                    [
                        {
                            "pitch": 56, 
                            "t0": 116230, 
                            "v": 55, 
                            "dur": 101, 
                            "type": "note", 
                            "channel": 0
                        }
                    ]
                ], 
                [
                    116425, 
                    [
                        {
                            "pitch": 68, 
                            "t0": 116425, 
                            "v": 57, 
                            "dur": 135, 
                            "type": "note", 
                            "channel": 0
                        }
                    ]
                ], 
                [
                    116437, 
                    [
                        {
                            "pitch": 56, 
                            "t0": 116437, 
                            "v": 75, 
                            "dur": 91, 
                            "type": "note", 
                            "channel": 0
                        }
                    ]
                ], 
                [
                    116651, 
                    [
                        {
                            "pitch": 56, 
                            "t0": 116651, 
                            "v": 81, 
                            "dur": 106, 
                            "type": "note", 
                            "channel": 0
                        }, 
                        {
                            "pitch": 68, 
                            "t0": 116651, 
                            "v": 81, 
                            "dur": 129, 
                            "type": "note", 
                            "channel": 0
                        }
                    ]
                ], 
                [
                    116865, 
                    [
                        {
                            "pitch": 56, 
                            "t0": 116865, 
                            "v": 79, 
                            "dur": 107, 
                            "type": "note", 
                            "channel": 0
                        }, 
                        {
                            "pitch": 68, 
                            "t0": 116865, 
                            "v": 75, 
                            "dur": 131, 
                            "type": "note", 
                            "channel": 0
                        }
                    ]
                ], 
                [
                    117080, 
                    [
                        {
                            "pitch": 56, 
                            "t0": 117080, 
                            "v": 84, 
                            "dur": 79, 
                            "type": "note", 
                            "channel": 0
                        }, 
                        {
                            "pitch": 68, 
                            "t0": 117080, 
                            "v": 71, 
                            "dur": 104, 
                            "type": "note", 
                            "channel": 0
                        }
                    ]
                ], 
                [
                    117301, 
                    [
                        {
                            "pitch": 56, 
                            "t0": 117301, 
                            "v": 78, 
                            "dur": 53, 
                            "type": "note", 
                            "channel": 0
                        }, 
                        {
                            "pitch": 68, 
                            "t0": 117301, 
                            "v": 80, 
                            "dur": 81, 
                            "type": "note", 
                            "channel": 0
                        }
                    ]
                ], 
                [
                    117567, 
                    [
                        {
                            "pitch": 59, 
                            "t0": 117567, 
                            "v": 101, 
                            "dur": 173, 
                            "type": "note", 
                            "channel": 0
                        }, 
                        {
                            "pitch": 71, 
                            "t0": 117567, 
                            "v": 105, 
                            "dur": 182, 
                            "type": "note", 
                            "channel": 0
                        }, 
                        {
                            "pitch": 68, 
                            "t0": 117567, 
                            "v": 86, 
                            "dur": 546, 
                            "type": "note", 
                            "channel": 0
                        }
                    ]
                ], 
                [
                    117570, 
                    [
                        {
                            "pitch": 64, 
                            "t0": 117570, 
                            "v": 98, 
                            "dur": 532, 
                            "type": "note", 
                            "channel": 0
                        }
                    ]
                ], 
                [
                    117574, 
                    [
                        {
                            "pitch": 28, 
                            "t0": 117574, 
                            "v": 103, 
                            "dur": 273, 
                            "type": "note", 
                            "channel": 0
                        }, 
                        {
                            "pitch": 40, 
                            "t0": 117574, 
                            "v": 113, 
                            "dur": 323, 
                            "type": "note", 
                            "channel": 0
                        }
                    ]
                ], 
                [
                    117811, 
                    [
                        {
                            "pitch": 71, 
                            "t0": 117811, 
                            "v": 77, 
                            "dur": 138, 
                            "type": "note", 
                            "channel": 0
                        }
                    ]
                ], 
                [
                    117815, 
                    [
                        {
                            "pitch": 59, 
                            "t0": 117815, 
                            "v": 69, 
                            "dur": 103, 
                            "type": "note", 
                            "channel": 0
                        }
                    ]
                ], 
                [
                    118033, 
                    [
                        {
                            "pitch": 59, 
                            "t0": 118033, 
                            "v": 78, 
                            "dur": 87, 
                            "type": "note", 
                            "channel": 0
                        }, 
                        {
                            "pitch": 71, 
                            "t0": 118033, 
                            "v": 78, 
                            "dur": 115, 
                            "type": "note", 
                            "channel": 0
                        }
                    ]
                ], 
                [
                    118256, 
                    [
                        {
                            "pitch": 71, 
                            "t0": 118256, 
                            "v": 98, 
                            "dur": 102, 
                            "type": "note", 
                            "channel": 0
                        }
                    ]
                ], 
                [
                    118264, 
                    [
                        {
                            "pitch": 59, 
                            "t0": 118264, 
                            "v": 75, 
                            "dur": 75, 
                            "type": "note", 
                            "channel": 0
                        }
                    ]
                ], 
                [
                    118496, 
                    [
                        {
                            "pitch": 71, 
                            "t0": 118496, 
                            "v": 103, 
                            "dur": 167, 
                            "type": "note", 
                            "channel": 0
                        }, 
                        {
                            "pitch": 63, 
                            "t0": 118496, 
                            "v": 95, 
                            "dur": 576, 
                            "type": "note", 
                            "channel": 0
                        }, 
                        {
                            "pitch": 68, 
                            "t0": 118496, 
                            "v": 83, 
                            "dur": 596, 
                            "type": "note", 
                            "channel": 0
                        }
                    ]
                ], 
                [
                    118499, 
                    [
                        {
                            "pitch": 47, 
                            "t0": 118499, 
                            "v": 105, 
                            "dur": 464, 
                            "type": "note", 
                            "channel": 0
                        }, 
                        {
                            "pitch": 35, 
                            "t0": 118499, 
                            "v": 113, 
                            "dur": 565, 
                            "type": "note", 
                            "channel": 0
                        }
                    ]
                ], 
                [
                    118503, 
                    [
                        {
                            "pitch": 59, 
                            "t0": 118503, 
                            "v": 98, 
                            "dur": 160, 
                            "type": "note", 
                            "channel": 0
                        }
                    ]
                ], 
                [
                    118732, 
                    [
                        {
                            "pitch": 71, 
                            "t0": 118732, 
                            "v": 78, 
                            "dur": 150, 
                            "type": "note", 
                            "channel": 0
                        }
                    ]
                ], 
                [
                    118735, 
                    [
                        {
                            "pitch": 59, 
                            "t0": 118735, 
                            "v": 72, 
                            "dur": 119, 
                            "type": "note", 
                            "channel": 0
                        }
                    ]
                ], 
                [
                    118949, 
                    [
                        {
                            "pitch": 71, 
                            "t0": 118949, 
                            "v": 75, 
                            "dur": 118, 
                            "type": "note", 
                            "channel": 0
                        }
                    ]
                ], 
                [
                    118955, 
                    [
                        {
                            "pitch": 59, 
                            "t0": 118955, 
                            "v": 81, 
                            "dur": 87, 
                            "type": "note", 
                            "channel": 0
                        }
                    ]
                ], 
                [
                    119177, 
                    [
                        {
                            "pitch": 71, 
                            "t0": 119177, 
                            "v": 97, 
                            "dur": 109, 
                            "type": "note", 
                            "channel": 0
                        }
                    ]
                ], 
                [
                    119183, 
                    [
                        {
                            "pitch": 59, 
                            "t0": 119183, 
                            "v": 76, 
                            "dur": 68, 
                            "type": "note", 
                            "channel": 0
                        }
                    ]
                ], 
                [
                    119415, 
                    [
                        {
                            "pitch": 59, 
                            "t0": 119415, 
                            "v": 101, 
                            "dur": 169, 
                            "type": "note", 
                            "channel": 0
                        }, 
                        {
                            "pitch": 71, 
                            "t0": 119415, 
                            "v": 102, 
                            "dur": 169, 
                            "type": "note", 
                            "channel": 0
                        }, 
                        {
                            "pitch": 64, 
                            "t0": 119415, 
                            "v": 96, 
                            "dur": 588, 
                            "type": "note", 
                            "channel": 0
                        }
                    ]
                ], 
                [
                    119418, 
                    [
                        {
                            "pitch": 28, 
                            "t0": 119418, 
                            "v": 104, 
                            "dur": 499, 
                            "type": "note", 
                            "channel": 0
                        }, 
                        {
                            "pitch": 40, 
                            "t0": 119418, 
                            "v": 117, 
                            "dur": 554, 
                            "type": "note", 
                            "channel": 0
                        }, 
                        {
                            "pitch": 68, 
                            "t0": 119418, 
                            "v": 79, 
                            "dur": 585, 
                            "type": "note", 
                            "channel": 0
                        }
                    ]
                ], 
                [
                    119648, 
                    [
                        {
                            "pitch": 59, 
                            "t0": 119648, 
                            "v": 72, 
                            "dur": 112, 
                            "type": "note", 
                            "channel": 0
                        }, 
                        {
                            "pitch": 71, 
                            "t0": 119648, 
                            "v": 76, 
                            "dur": 140, 
                            "type": "note", 
                            "channel": 0
                        }
                    ]
                ], 
                [
                    119854, 
                    [
                        {
                            "pitch": 71, 
                            "t0": 119854, 
                            "v": 78, 
                            "dur": 129, 
                            "type": "note", 
                            "channel": 0
                        }
                    ]
                ], 
                [
                    119863, 
                    [
                        {
                            "pitch": 59, 
                            "t0": 119863, 
                            "v": 84, 
                            "dur": 87, 
                            "type": "note", 
                            "channel": 0
                        }
                    ]
                ], 
                [
                    120066, 
                    [
                        {
                            "pitch": 59, 
                            "t0": 120066, 
                            "v": 82, 
                            "dur": 89, 
                            "type": "note", 
                            "channel": 0
                        }, 
                        {
                            "pitch": 71, 
                            "t0": 120066, 
                            "v": 83, 
                            "dur": 106, 
                            "type": "note", 
                            "channel": 0
                        }
                    ]
                ], 
                [
                    120286, 
                    [
                        {
                            "pitch": 71, 
                            "t0": 120286, 
                            "v": 101, 
                            "dur": 176, 
                            "type": "note", 
                            "channel": 0
                        }
                    ]
                ], 
                [
                    120289, 
                    [
                        {
                            "pitch": 59, 
                            "t0": 120289, 
                            "v": 106, 
                            "dur": 162, 
                            "type": "note", 
                            "channel": 0
                        }, 
                        {
                            "pitch": 68, 
                            "t0": 120289, 
                            "v": 84, 
                            "dur": 589, 
                            "type": "note", 
                            "channel": 0
                        }, 
                        {
                            "pitch": 63, 
                            "t0": 120289, 
                            "v": 92, 
                            "dur": 788, 
                            "type": "note", 
                            "channel": 0
                        }
                    ]
                ], 
                [
                    120300, 
                    [
                        {
                            "pitch": 47, 
                            "t0": 120300, 
                            "v": 104, 
                            "dur": 401, 
                            "type": "note", 
                            "channel": 0
                        }
                    ]
                ], 
                [
                    120303, 
                    [
                        {
                            "pitch": 35, 
                            "t0": 120303, 
                            "v": 110, 
                            "dur": 477, 
                            "type": "note", 
                            "channel": 0
                        }
                    ]
                ], 
                [
                    120512, 
                    [
                        {
                            "pitch": 71, 
                            "t0": 120512, 
                            "v": 89, 
                            "dur": 157, 
                            "type": "note", 
                            "channel": 0
                        }
                    ]
                ], 
                [
                    120517, 
                    [
                        {
                            "pitch": 59, 
                            "t0": 120517, 
                            "v": 75, 
                            "dur": 129, 
                            "type": "note", 
                            "channel": 0
                        }
                    ]
                ], 
                [
                    120740, 
                    [
                        {
                            "pitch": 71, 
                            "t0": 120740, 
                            "v": 75, 
                            "dur": 148, 
                            "type": "note", 
                            "channel": 0
                        }
                    ]
                ], 
                [
                    120747, 
                    [
                        {
                            "pitch": 59, 
                            "t0": 120747, 
                            "v": 73, 
                            "dur": 122, 
                            "type": "note", 
                            "channel": 0
                        }
                    ]
                ], 
                [
                    120995, 
                    [
                        {
                            "pitch": 59, 
                            "t0": 120995, 
                            "v": 85, 
                            "dur": 127, 
                            "type": "note", 
                            "channel": 0
                        }, 
                        {
                            "pitch": 46, 
                            "t0": 120995, 
                            "v": 97, 
                            "dur": 135, 
                            "type": "note", 
                            "channel": 0
                        }, 
                        {
                            "pitch": 71, 
                            "t0": 120995, 
                            "v": 100, 
                            "dur": 141, 
                            "type": "note", 
                            "channel": 0
                        }
                    ]
                ], 
                [
                    120999, 
                    [
                        {
                            "pitch": 34, 
                            "t0": 120999, 
                            "v": 94, 
                            "dur": 152, 
                            "type": "note", 
                            "channel": 0
                        }
                    ]
                ], 
                [
                    121217, 
                    [
                        {
                            "pitch": 71, 
                            "t0": 121217, 
                            "v": 97, 
                            "dur": 167, 
                            "type": "note", 
                            "channel": 0
                        }, 
                        {
                            "pitch": 63, 
                            "t0": 121217, 
                            "v": 94, 
                            "dur": 555, 
                            "type": "note", 
                            "channel": 0
                        }, 
                        {
                            "pitch": 44, 
                            "t0": 121217, 
                            "v": 104, 
                            "dur": 579, 
                            "type": "note", 
                            "channel": 0
                        }
                    ]
                ], 
                [
                    121222, 
                    [
                        {
                            "pitch": 59, 
                            "t0": 121222, 
                            "v": 102, 
                            "dur": 157, 
                            "type": "note", 
                            "channel": 0
                        }, 
                        {
                            "pitch": 68, 
                            "t0": 121222, 
                            "v": 84, 
                            "dur": 599, 
                            "type": "note", 
                            "channel": 0
                        }
                    ]
                ], 
                [
                    121225, 
                    [
                        {
                            "pitch": 32, 
                            "t0": 121225, 
                            "v": 98, 
                            "dur": 401, 
                            "type": "note", 
                            "channel": 0
                        }
                    ]
                ], 
                [
                    121434, 
                    [
                        {
                            "pitch": 71, 
                            "t0": 121434, 
                            "v": 86, 
                            "dur": 142, 
                            "type": "note", 
                            "channel": 0
                        }
                    ]
                ], 
                [
                    121438, 
                    [
                        {
                            "pitch": 59, 
                            "t0": 121438, 
                            "v": 76, 
                            "dur": 124, 
                            "type": "note", 
                            "channel": 0
                        }
                    ]
                ], 
                [
                    121658, 
                    [
                        {
                            "pitch": 71, 
                            "t0": 121658, 
                            "v": 76, 
                            "dur": 122, 
                            "type": "note", 
                            "channel": 0
                        }
                    ]
                ], 
                [
                    121662, 
                    [
                        {
                            "pitch": 59, 
                            "t0": 121662, 
                            "v": 73, 
                            "dur": 93, 
                            "type": "note", 
                            "channel": 0
                        }
                    ]
                ], 
                [
                    121886, 
                    [
                        {
                            "pitch": 59, 
                            "t0": 121886, 
                            "v": 75, 
                            "dur": 72, 
                            "type": "note", 
                            "channel": 0
                        }, 
                        {
                            "pitch": 71, 
                            "t0": 121886, 
                            "v": 96, 
                            "dur": 92, 
                            "type": "note", 
                            "channel": 0
                        }
                    ]
                ], 
                [
                    122126, 
                    [
                        {
                            "pitch": 67, 
                            "t0": 122126, 
                            "v": 92, 
                            "dur": 571, 
                            "type": "note", 
                            "channel": 0
                        }
                    ]
                ], 
                [
                    122130, 
                    [
                        {
                            "pitch": 59, 
                            "t0": 122130, 
                            "v": 99, 
                            "dur": 148, 
                            "type": "note", 
                            "channel": 0
                        }, 
                        {
                            "pitch": 71, 
                            "t0": 122130, 
                            "v": 105, 
                            "dur": 148, 
                            "type": "note", 
                            "channel": 0
                        }, 
                        {
                            "pitch": 63, 
                            "t0": 122130, 
                            "v": 90, 
                            "dur": 546, 
                            "type": "note", 
                            "channel": 0
                        }
                    ]
                ], 
                [
                    122134, 
                    [
                        {
                            "pitch": 51, 
                            "t0": 122134, 
                            "v": 104, 
                            "dur": 295, 
                            "type": "note", 
                            "channel": 0
                        }
                    ]
                ], 
                [
                    122137, 
                    [
                        {
                            "pitch": 39, 
                            "t0": 122137, 
                            "v": 98, 
                            "dur": 481, 
                            "type": "note", 
                            "channel": 0
                        }
                    ]
                ], 
                [
                    122356, 
                    [
                        {
                            "pitch": 71, 
                            "t0": 122356, 
                            "v": 76, 
                            "dur": 134, 
                            "type": "note", 
                            "channel": 0
                        }
                    ]
                ], 
                [
                    122360, 
                    [
                        {
                            "pitch": 59, 
                            "t0": 122360, 
                            "v": 74, 
                            "dur": 102, 
                            "type": "note", 
                            "channel": 0
                        }
                    ]
                ], 
                [
                    122579, 
                    [
                        {
                            "pitch": 59, 
                            "t0": 122579, 
                            "v": 76, 
                            "dur": 90, 
                            "type": "note", 
                            "channel": 0
                        }, 
                        {
                            "pitch": 71, 
                            "t0": 122579, 
                            "v": 77, 
                            "dur": 126, 
                            "type": "note", 
                            "channel": 0
                        }
                    ]
                ], 
                [
                    122816, 
                    [
                        {
                            "pitch": 59, 
                            "t0": 122816, 
                            "v": 72, 
                            "dur": 81, 
                            "type": "note", 
                            "channel": 0
                        }, 
                        {
                            "pitch": 71, 
                            "t0": 122816, 
                            "v": 91, 
                            "dur": 97, 
                            "type": "note", 
                            "channel": 0
                        }
                    ]
                ], 
                [
                    123095, 
                    [
                        {
                            "pitch": 44, 
                            "t0": 123095, 
                            "v": 93, 
                            "dur": 559, 
                            "type": "note", 
                            "channel": 0
                        }, 
                        {
                            "pitch": 71, 
                            "t0": 123095, 
                            "v": 103, 
                            "dur": 838, 
                            "type": "note", 
                            "channel": 0
                        }
                    ]
                ], 
                [
                    123099, 
                    [
                        {
                            "pitch": 68, 
                            "t0": 123099, 
                            "v": 79, 
                            "dur": 202, 
                            "type": "note", 
                            "channel": 0
                        }, 
                        {
                            "pitch": 59, 
                            "t0": 123099, 
                            "v": 98, 
                            "dur": 580, 
                            "type": "note", 
                            "channel": 0
                        }, 
                        {
                            "pitch": 63, 
                            "t0": 123099, 
                            "v": 86, 
                            "dur": 605, 
                            "type": "note", 
                            "channel": 0
                        }, 
                        {
                            "pitch": 32, 
                            "t0": 123099, 
                            "v": 87, 
                            "dur": 667, 
                            "type": "note", 
                            "channel": 0
                        }
                    ]
                ], 
                [
                    123395, 
                    [
                        {
                            "pitch": 68, 
                            "t0": 123395, 
                            "v": 75, 
                            "dur": 139, 
                            "type": "note", 
                            "channel": 0
                        }
                    ]
                ], 
                [
                    123633, 
                    [
                        {
                            "pitch": 68, 
                            "t0": 123633, 
                            "v": 71, 
                            "dur": 119, 
                            "type": "note", 
                            "channel": 0
                        }
                    ]
                ], 
                [
                    123852, 
                    [
                        {
                            "pitch": 68, 
                            "t0": 123852, 
                            "v": 59, 
                            "dur": 103, 
                            "type": "note", 
                            "channel": 0
                        }
                    ]
                ], 
                [
                    124070, 
                    [
                        {
                            "pitch": 68, 
                            "t0": 124070, 
                            "v": 65, 
                            "dur": 108, 
                            "type": "note", 
                            "channel": 0
                        }
                    ]
                ], 
                [
                    124289, 
                    [
                        {
                            "pitch": 68, 
                            "t0": 124289, 
                            "v": 61, 
                            "dur": 109, 
                            "type": "note", 
                            "channel": 0
                        }
                    ]
                ], 
                [
                    124515, 
                    [
                        {
                            "pitch": 68, 
                            "t0": 124515, 
                            "v": 44, 
                            "dur": 89, 
                            "type": "note", 
                            "channel": 0
                        }
                    ]
                ], 
                [
                    124769, 
                    [
                        {
                            "pitch": 68, 
                            "t0": 124769, 
                            "v": 37, 
                            "dur": 111, 
                            "type": "note", 
                            "channel": 0
                        }
                    ]
                ], 
                [
                    125073, 
                    [
                        {
                            "pitch": 54, 
                            "t0": 125073, 
                            "v": 62, 
                            "dur": 815, 
                            "type": "note", 
                            "channel": 0
                        }
                    ]
                ], 
                [
                    125076, 
                    [
                        {
                            "pitch": 72, 
                            "t0": 125076, 
                            "v": 72, 
                            "dur": 932, 
                            "type": "note", 
                            "channel": 0
                        }
                    ]
                ], 
                [
                    125084, 
                    [
                        {
                            "pitch": 60, 
                            "t0": 125084, 
                            "v": 57, 
                            "dur": 833, 
                            "type": "note", 
                            "channel": 0
                        }
                    ]
                ], 
                [
                    125087, 
                    [
                        {
                            "pitch": 68, 
                            "t0": 125087, 
                            "v": 42, 
                            "dur": 217, 
                            "type": "note", 
                            "channel": 0
                        }
                    ]
                ], 
                [
                    125094, 
                    [
                        {
                            "pitch": 44, 
                            "t0": 125094, 
                            "v": 40, 
                            "dur": 787, 
                            "type": "note", 
                            "channel": 0
                        }
                    ]
                ], 
                [
                    125097, 
                    [
                        {
                            "pitch": 42, 
                            "t0": 125097, 
                            "v": 28, 
                            "dur": 836, 
                            "type": "note", 
                            "channel": 0
                        }
                    ]
                ], 
                [
                    125387, 
                    [
                        {
                            "pitch": 68, 
                            "t0": 125387, 
                            "v": 30, 
                            "dur": 126, 
                            "type": "note", 
                            "channel": 0
                        }
                    ]
                ], 
                [
                    125655, 
                    [
                        {
                            "pitch": 68, 
                            "t0": 125655, 
                            "v": 40, 
                            "dur": 116, 
                            "type": "note", 
                            "channel": 0
                        }
                    ]
                ], 
                [
                    125899, 
                    [
                        {
                            "pitch": 68, 
                            "t0": 125899, 
                            "v": 46, 
                            "dur": 124, 
                            "type": "note", 
                            "channel": 0
                        }
                    ]
                ], 
                [
                    126170, 
                    [
                        {
                            "pitch": 73, 
                            "t0": 126170, 
                            "v": 70, 
                            "dur": 889, 
                            "type": "note", 
                            "channel": 0
                        }
                    ]
                ], 
                [
                    126176, 
                    [
                        {
                            "pitch": 61, 
                            "t0": 126176, 
                            "v": 65, 
                            "dur": 588, 
                            "type": "note", 
                            "channel": 0
                        }
                    ]
                ], 
                [
                    126179, 
                    [
                        {
                            "pitch": 52, 
                            "t0": 126179, 
                            "v": 54, 
                            "dur": 350, 
                            "type": "note", 
                            "channel": 0
                        }
                    ]
                ], 
                [
                    126190, 
                    [
                        {
                            "pitch": 44, 
                            "t0": 126190, 
                            "v": 40, 
                            "dur": 435, 
                            "type": "note", 
                            "channel": 0
                        }
                    ]
                ], 
                [
                    126193, 
                    [
                        {
                            "pitch": 68, 
                            "t0": 126193, 
                            "v": 40, 
                            "dur": 170, 
                            "type": "note", 
                            "channel": 0
                        }
                    ]
                ], 
                [
                    126200, 
                    [
                        {
                            "pitch": 40, 
                            "t0": 126200, 
                            "v": 42, 
                            "dur": 329, 
                            "type": "note", 
                            "channel": 0
                        }
                    ]
                ], 
                [
                    126443, 
                    [
                        {
                            "pitch": 68, 
                            "t0": 126443, 
                            "v": 31, 
                            "dur": 125, 
                            "type": "note", 
                            "channel": 0
                        }
                    ]
                ], 
                [
                    126671, 
                    [
                        {
                            "pitch": 68, 
                            "t0": 126671, 
                            "v": 42, 
                            "dur": 125, 
                            "type": "note", 
                            "channel": 0
                        }
                    ]
                ], 
                [
                    126686, 
                    [
                        {
                            "pitch": 49, 
                            "t0": 126686, 
                            "v": 55, 
                            "dur": 208, 
                            "type": "note", 
                            "channel": 0
                        }, 
                        {
                            "pitch": 37, 
                            "t0": 126686, 
                            "v": 61, 
                            "dur": 389, 
                            "type": "note", 
                            "channel": 0
                        }
                    ]
                ], 
                [
                    126930, 
                    [
                        {
                            "pitch": 68, 
                            "t0": 126930, 
                            "v": 50, 
                            "dur": 145, 
                            "type": "note", 
                            "channel": 0
                        }
                    ]
                ], 
                [
                    127234, 
                    [
                        {
                            "pitch": 75, 
                            "t0": 127234, 
                            "v": 70, 
                            "dur": 1318, 
                            "type": "note", 
                            "channel": 0
                        }
                    ]
                ], 
                [
                    127240, 
                    [
                        {
                            "pitch": 63, 
                            "t0": 127240, 
                            "v": 65, 
                            "dur": 1134, 
                            "type": "note", 
                            "channel": 0
                        }
                    ]
                ], 
                [
                    127245, 
                    [
                        {
                            "pitch": 32, 
                            "t0": 127245, 
                            "v": 56, 
                            "dur": 1047, 
                            "type": "note", 
                            "channel": 0
                        }, 
                        {
                            "pitch": 73, 
                            "t0": 127245, 
                            "v": 47, 
                            "dur": 1081, 
                            "type": "note", 
                            "channel": 0
                        }, 
                        {
                            "pitch": 44, 
                            "t0": 127245, 
                            "v": 55, 
                            "dur": 1120, 
                            "type": "note", 
                            "channel": 0
                        }
                    ]
                ], 
                [
                    127254, 
                    [
                        {
                            "pitch": 68, 
                            "t0": 127254, 
                            "v": 37, 
                            "dur": 142, 
                            "type": "note", 
                            "channel": 0
                        }
                    ]
                ], 
                [
                    127532, 
                    [
                        {
                            "pitch": 68, 
                            "t0": 127532, 
                            "v": 47, 
                            "dur": 86, 
                            "type": "note", 
                            "channel": 0
                        }
                    ]
                ], 
                [
                    127774, 
                    [
                        {
                            "pitch": 68, 
                            "t0": 127774, 
                            "v": 40, 
                            "dur": 63, 
                            "type": "note", 
                            "channel": 0
                        }
                    ]
                ], 
                [
                    127995, 
                    [
                        {
                            "pitch": 68, 
                            "t0": 127995, 
                            "v": 41, 
                            "dur": 63, 
                            "type": "note", 
                            "channel": 0
                        }
                    ]
                ], 
                [
                    128232, 
                    [
                        {
                            "pitch": 68, 
                            "t0": 128232, 
                            "v": 43, 
                            "dur": 64, 
                            "type": "note", 
                            "channel": 0
                        }
                    ]
                ], 
                [
                    128490, 
                    [
                        {
                            "pitch": 68, 
                            "t0": 128490, 
                            "v": 37, 
                            "dur": 89, 
                            "type": "note", 
                            "channel": 0
                        }
                    ]
                ], 
                [
                    128705, 
                    [
                        {
                            "pitch": 75, 
                            "t0": 128705, 
                            "v": 71, 
                            "dur": 459, 
                            "type": "note", 
                            "channel": 0
                        }
                    ]
                ], 
                [
                    128714, 
                    [
                        {
                            "pitch": 56, 
                            "t0": 128714, 
                            "v": 42, 
                            "dur": 281, 
                            "type": "note", 
                            "channel": 0
                        }
                    ]
                ], 
                [
                    128717, 
                    [
                        {
                            "pitch": 63, 
                            "t0": 128717, 
                            "v": 54, 
                            "dur": 320, 
                            "type": "note", 
                            "channel": 0
                        }
                    ]
                ], 
                [
                    128721, 
                    [
                        {
                            "pitch": 72, 
                            "t0": 128721, 
                            "v": 51, 
                            "dur": 288, 
                            "type": "note", 
                            "channel": 0
                        }
                    ]
                ], 
                [
                    128733, 
                    [
                        {
                            "pitch": 68, 
                            "t0": 128733, 
                            "v": 29, 
                            "dur": 78, 
                            "type": "note", 
                            "channel": 0
                        }, 
                        {
                            "pitch": 44, 
                            "t0": 128733, 
                            "v": 39, 
                            "dur": 370, 
                            "type": "note", 
                            "channel": 0
                        }
                    ]
                ], 
                [
                    128976, 
                    [
                        {
                            "pitch": 68, 
                            "t0": 128976, 
                            "v": 53, 
                            "dur": 85, 
                            "type": "note", 
                            "channel": 0
                        }
                    ]
                ], 
                [
                    129304, 
                    [
                        {
                            "pitch": 76, 
                            "t0": 129304, 
                            "v": 62, 
                            "dur": 441, 
                            "type": "note", 
                            "channel": 0
                        }
                    ]
                ], 
                [
                    129307, 
                    [
                        {
                            "pitch": 75, 
                            "t0": 129307, 
                            "v": 63, 
                            "dur": 423, 
                            "type": "note", 
                            "channel": 0
                        }
                    ]
                ], 
                [
                    129312, 
                    [
                        {
                            "pitch": 64, 
                            "t0": 129312, 
                            "v": 47, 
                            "dur": 401, 
                            "type": "note", 
                            "channel": 0
                        }
                    ]
                ], 
                [
                    129323, 
                    [
                        {
                            "pitch": 56, 
                            "t0": 129323, 
                            "v": 33, 
                            "dur": 850, 
                            "type": "note", 
                            "channel": 0
                        }
                    ]
                ], 
                [
                    129326, 
                    [
                        {
                            "pitch": 49, 
                            "t0": 129326, 
                            "v": 38, 
                            "dur": 942, 
                            "type": "note", 
                            "channel": 0
                        }
                    ]
                ], 
                [
                    129332, 
                    [
                        {
                            "pitch": 68, 
                            "t0": 129332, 
                            "v": 32, 
                            "dur": 176, 
                            "type": "note", 
                            "channel": 0
                        }
                    ]
                ], 
                [
                    129646, 
                    [
                        {
                            "pitch": 68, 
                            "t0": 129646, 
                            "v": 35, 
                            "dur": 126, 
                            "type": "note", 
                            "channel": 0
                        }
                    ]
                ], 
                [
                    129906, 
                    [
                        {
                            "pitch": 68, 
                            "t0": 129906, 
                            "v": 36, 
                            "dur": 137, 
                            "type": "note", 
                            "channel": 0
                        }, 
                        {
                            "pitch": 76, 
                            "t0": 129906, 
                            "v": 60, 
                            "dur": 307, 
                            "type": "note", 
                            "channel": 0
                        }
                    ]
                ], 
                [
                    129917, 
                    [
                        {
                            "pitch": 73, 
                            "t0": 129917, 
                            "v": 37, 
                            "dur": 325, 
                            "type": "note", 
                            "channel": 0
                        }
                    ]
                ], 
                [
                    129923, 
                    [
                        {
                            "pitch": 64, 
                            "t0": 129923, 
                            "v": 36, 
                            "dur": 266, 
                            "type": "note", 
                            "channel": 0
                        }
                    ]
                ], 
                [
                    130173, 
                    [
                        {
                            "pitch": 68, 
                            "t0": 130173, 
                            "v": 41, 
                            "dur": 95, 
                            "type": "note", 
                            "channel": 0
                        }
                    ]
                ], 
                [
                    130410, 
                    [
                        {
                            "pitch": 75, 
                            "t0": 130410, 
                            "v": 56, 
                            "dur": 326, 
                            "type": "note", 
                            "channel": 0
                        }
                    ]
                ], 
                [
                    130419, 
                    [
                        {
                            "pitch": 73, 
                            "t0": 130419, 
                            "v": 38, 
                            "dur": 286, 
                            "type": "note", 
                            "channel": 0
                        }, 
                        {
                            "pitch": 56, 
                            "t0": 130419, 
                            "v": 36, 
                            "dur": 824, 
                            "type": "note", 
                            "channel": 0
                        }
                    ]
                ], 
                [
                    130423, 
                    [
                        {
                            "pitch": 63, 
                            "t0": 130423, 
                            "v": 41, 
                            "dur": 321, 
                            "type": "note", 
                            "channel": 0
                        }
                    ]
                ], 
                [
                    130427, 
                    [
                        {
                            "pitch": 44, 
                            "t0": 130427, 
                            "v": 37, 
                            "dur": 858, 
                            "type": "note", 
                            "channel": 0
                        }
                    ]
                ], 
                [
                    130436, 
                    [
                        {
                            "pitch": 68, 
                            "t0": 130436, 
                            "v": 25, 
                            "dur": 80, 
                            "type": "note", 
                            "channel": 0
                        }
                    ]
                ], 
                [
                    130681, 
                    [
                        {
                            "pitch": 68, 
                            "t0": 130681, 
                            "v": 38, 
                            "dur": 60, 
                            "type": "note", 
                            "channel": 0
                        }
                    ]
                ], 
                [
                    130919, 
                    [
                        {
                            "pitch": 75, 
                            "t0": 130919, 
                            "v": 52, 
                            "dur": 313, 
                            "type": "note", 
                            "channel": 0
                        }
                    ]
                ], 
                [
                    130931, 
                    [
                        {
                            "pitch": 63, 
                            "t0": 130931, 
                            "v": 31, 
                            "dur": 312, 
                            "type": "note", 
                            "channel": 0
                        }
                    ]
                ], 
                [
                    130944, 
                    [
                        {
                            "pitch": 68, 
                            "t0": 130944, 
                            "v": 25, 
                            "dur": 70, 
                            "type": "note", 
                            "channel": 0
                        }, 
                        {
                            "pitch": 72, 
                            "t0": 130944, 
                            "v": 33, 
                            "dur": 310, 
                            "type": "note", 
                            "channel": 0
                        }
                    ]
                ], 
                [
                    131182, 
                    [
                        {
                            "pitch": 68, 
                            "t0": 131182, 
                            "v": 37, 
                            "dur": 64, 
                            "type": "note", 
                            "channel": 0
                        }
                    ]
                ], 
                [
                    131516, 
                    [
                        {
                            "pitch": 73, 
                            "t0": 131516, 
                            "v": 41, 
                            "dur": 1875, 
                            "type": "note", 
                            "channel": 0
                        }
                    ]
                ], 
                [
                    131521, 
                    [
                        {
                            "pitch": 68, 
                            "t0": 131521, 
                            "v": 27, 
                            "dur": 204, 
                            "type": "note", 
                            "channel": 0
                        }, 
                        {
                            "pitch": 57, 
                            "t0": 131521, 
                            "v": 24, 
                            "dur": 914, 
                            "type": "note", 
                            "channel": 0
                        }, 
                        {
                            "pitch": 61, 
                            "t0": 131521, 
                            "v": 32, 
                            "dur": 1897, 
                            "type": "note", 
                            "channel": 0
                        }
                    ]
                ], 
                [
                    131538, 
                    [
                        {
                            "pitch": 45, 
                            "t0": 131538, 
                            "v": 22, 
                            "dur": 933, 
                            "type": "note", 
                            "channel": 0
                        }
                    ]
                ], 
                [
                    131864, 
                    [
                        {
                            "pitch": 68, 
                            "t0": 131864, 
                            "v": 29, 
                            "dur": 108, 
                            "type": "note", 
                            "channel": 0
                        }
                    ]
                ], 
                [
                    132126, 
                    [
                        {
                            "pitch": 66, 
                            "t0": 132126, 
                            "v": 26, 
                            "dur": 86, 
                            "type": "note", 
                            "channel": 0
                        }
                    ]
                ], 
                [
                    132374, 
                    [
                        {
                            "pitch": 66, 
                            "t0": 132374, 
                            "v": 29, 
                            "dur": 97, 
                            "type": "note", 
                            "channel": 0
                        }
                    ]
                ], 
                [
                    132602, 
                    [
                        {
                            "pitch": 56, 
                            "t0": 132602, 
                            "v": 30, 
                            "dur": 306, 
                            "type": "note", 
                            "channel": 0
                        }
                    ]
                ], 
                [
                    132614, 
                    [
                        {
                            "pitch": 68, 
                            "t0": 132614, 
                            "v": 32, 
                            "dur": 91, 
                            "type": "note", 
                            "channel": 0
                        }
                    ]
                ], 
                [
                    132617, 
                    [
                        {
                            "pitch": 44, 
                            "t0": 132617, 
                            "v": 25, 
                            "dur": 312, 
                            "type": "note", 
                            "channel": 0
                        }
                    ]
                ], 
                [
                    132845, 
                    [
                        {
                            "pitch": 68, 
                            "t0": 132845, 
                            "v": 34, 
                            "dur": 84, 
                            "type": "note", 
                            "channel": 0
                        }
                    ]
                ], 
                [
                    133081, 
                    [
                        {
                            "pitch": 54, 
                            "t0": 133081, 
                            "v": 44, 
                            "dur": 238, 
                            "type": "note", 
                            "channel": 0
                        }, 
                        {
                            "pitch": 42, 
                            "t0": 133081, 
                            "v": 35, 
                            "dur": 346, 
                            "type": "note", 
                            "channel": 0
                        }
                    ]
                ], 
                [
                    133106, 
                    [
                        {
                            "pitch": 69, 
                            "t0": 133106, 
                            "v": 27, 
                            "dur": 118, 
                            "type": "note", 
                            "channel": 0
                        }
                    ]
                ], 
                [
                    133357, 
                    [
                        {
                            "pitch": 69, 
                            "t0": 133357, 
                            "v": 28, 
                            "dur": 50, 
                            "type": "note", 
                            "channel": 0
                        }
                    ]
                ], 
                [
                    133667, 
                    [
                        {
                            "pitch": 56, 
                            "t0": 133667, 
                            "v": 43, 
                            "dur": 189, 
                            "type": "note", 
                            "channel": 0
                        }, 
                        {
                            "pitch": 68, 
                            "t0": 133667, 
                            "v": 53, 
                            "dur": 807, 
                            "type": "note", 
                            "channel": 0
                        }
                    ]
                ], 
                [
                    133675, 
                    [
                        {
                            "pitch": 44, 
                            "t0": 133675, 
                            "v": 45, 
                            "dur": 724, 
                            "type": "note", 
                            "channel": 0
                        }
                    ]
                ], 
                [
                    133699, 
                    [
                        {
                            "pitch": 60, 
                            "t0": 133699, 
                            "v": 36, 
                            "dur": 466, 
                            "type": "note", 
                            "channel": 0
                        }
                    ]
                ], 
                [
                    133703, 
                    [
                        {
                            "pitch": 63, 
                            "t0": 133703, 
                            "v": 34, 
                            "dur": 588, 
                            "type": "note", 
                            "channel": 0
                        }
                    ]
                ], 
                [
                    133953, 
                    [
                        {
                            "pitch": 56, 
                            "t0": 133953, 
                            "v": 29, 
                            "dur": 95, 
                            "type": "note", 
                            "channel": 0
                        }
                    ]
                ], 
                [
                    134188, 
                    [
                        {
                            "pitch": 56, 
                            "t0": 134188, 
                            "v": 37, 
                            "dur": 82, 
                            "type": "note", 
                            "channel": 0
                        }
                    ]
                ], 
                [
                    134404, 
                    [
                        {
                            "pitch": 56, 
                            "t0": 134404, 
                            "v": 37, 
                            "dur": 76, 
                            "type": "note", 
                            "channel": 0
                        }
                    ]
                ], 
                [
                    134645, 
                    [
                        {
                            "pitch": 56, 
                            "t0": 134645, 
                            "v": 40, 
                            "dur": 128, 
                            "type": "note", 
                            "channel": 0
                        }, 
                        {
                            "pitch": 68, 
                            "t0": 134645, 
                            "v": 46, 
                            "dur": 289, 
                            "type": "note", 
                            "channel": 0
                        }
                    ]
                ], 
                [
                    134652, 
                    [
                        {
                            "pitch": 64, 
                            "t0": 134652, 
                            "v": 50, 
                            "dur": 388, 
                            "type": "note", 
                            "channel": 0
                        }
                    ]
                ], 
                [
                    134661, 
                    [
                        {
                            "pitch": 61, 
                            "t0": 134661, 
                            "v": 40, 
                            "dur": 287, 
                            "type": "note", 
                            "channel": 0
                        }, 
                        {
                            "pitch": 37, 
                            "t0": 134661, 
                            "v": 46, 
                            "dur": 802, 
                            "type": "note", 
                            "channel": 0
                        }
                    ]
                ], 
                [
                    134666, 
                    [
                        {
                            "pitch": 44, 
                            "t0": 134666, 
                            "v": 32, 
                            "dur": 644, 
                            "type": "note", 
                            "channel": 0
                        }
                    ]
                ], 
                [
                    134897, 
                    [
                        {
                            "pitch": 56, 
                            "t0": 134897, 
                            "v": 44, 
                            "dur": 59, 
                            "type": "note", 
                            "channel": 0
                        }
                    ]
                ], 
                [
                    135115, 
                    [
                        {
                            "pitch": 56, 
                            "t0": 135115, 
                            "v": 46, 
                            "dur": 103, 
                            "type": "note", 
                            "channel": 0
                        }, 
                        {
                            "pitch": 68, 
                            "t0": 135115, 
                            "v": 58, 
                            "dur": 245, 
                            "type": "note", 
                            "channel": 0
                        }
                    ]
                ], 
                [
                    135127, 
                    [
                        {
                            "pitch": 58, 
                            "t0": 135127, 
                            "v": 30, 
                            "dur": 300, 
                            "type": "note", 
                            "channel": 0
                        }, 
                        {
                            "pitch": 61, 
                            "t0": 135127, 
                            "v": 46, 
                            "dur": 300, 
                            "type": "note", 
                            "channel": 0
                        }
                    ]
                ], 
                [
                    135340, 
                    [
                        {
                            "pitch": 56, 
                            "t0": 135340, 
                            "v": 48, 
                            "dur": 101, 
                            "type": "note", 
                            "channel": 0
                        }
                    ]
                ], 
                [
                    135563, 
                    [
                        {
                            "pitch": 56, 
                            "t0": 135563, 
                            "v": 47, 
                            "dur": 123, 
                            "type": "note", 
                            "channel": 0
                        }
                    ]
                ], 
                [
                    135569, 
                    [
                        {
                            "pitch": 68, 
                            "t0": 135569, 
                            "v": 49, 
                            "dur": 271, 
                            "type": "note", 
                            "channel": 0
                        }
                    ]
                ], 
                [
                    135577, 
                    [
                        {
                            "pitch": 44, 
                            "t0": 135577, 
                            "v": 48, 
                            "dur": 182, 
                            "type": "note", 
                            "channel": 0
                        }, 
                        {
                            "pitch": 32, 
                            "t0": 135577, 
                            "v": 46, 
                            "dur": 182, 
                            "type": "note", 
                            "channel": 0
                        }
                    ]
                ], 
                [
                    135583, 
                    [
                        {
                            "pitch": 63, 
                            "t0": 135583, 
                            "v": 47, 
                            "dur": 165, 
                            "type": "note", 
                            "channel": 0
                        }, 
                        {
                            "pitch": 60, 
                            "t0": 135583, 
                            "v": 44, 
                            "dur": 234, 
                            "type": "note", 
                            "channel": 0
                        }
                    ]
                ], 
                [
                    135800, 
                    [
                        {
                            "pitch": 56, 
                            "t0": 135800, 
                            "v": 51, 
                            "dur": 79, 
                            "type": "note", 
                            "channel": 0
                        }
                    ]
                ], 
                [
                    136015, 
                    [
                        {
                            "pitch": 68, 
                            "t0": 136015, 
                            "v": 59, 
                            "dur": 264, 
                            "type": "note", 
                            "channel": 0
                        }
                    ]
                ], 
                [
                    136018, 
                    [
                        {
                            "pitch": 56, 
                            "t0": 136018, 
                            "v": 50, 
                            "dur": 89, 
                            "type": "note", 
                            "channel": 0
                        }, 
                        {
                            "pitch": 61, 
                            "t0": 136018, 
                            "v": 51, 
                            "dur": 286, 
                            "type": "note", 
                            "channel": 0
                        }
                    ]
                ], 
                [
                    136023, 
                    [
                        {
                            "pitch": 64, 
                            "t0": 136023, 
                            "v": 59, 
                            "dur": 349, 
                            "type": "note", 
                            "channel": 0
                        }
                    ]
                ], 
                [
                    136029, 
                    [
                        {
                            "pitch": 44, 
                            "t0": 136029, 
                            "v": 50, 
                            "dur": 1070, 
                            "type": "note", 
                            "channel": 0
                        }, 
                        {
                            "pitch": 37, 
                            "t0": 136029, 
                            "v": 61, 
                            "dur": 1136, 
                            "type": "note", 
                            "channel": 0
                        }
                    ]
                ], 
                [
                    136235, 
                    [
                        {
                            "pitch": 56, 
                            "t0": 136235, 
                            "v": 50, 
                            "dur": 92, 
                            "type": "note", 
                            "channel": 0
                        }
                    ]
                ], 
                [
                    136463, 
                    [
                        {
                            "pitch": 56, 
                            "t0": 136463, 
                            "v": 47, 
                            "dur": 95, 
                            "type": "note", 
                            "channel": 0
                        }
                    ]
                ], 
                [
                    136466, 
                    [
                        {
                            "pitch": 68, 
                            "t0": 136466, 
                            "v": 64, 
                            "dur": 240, 
                            "type": "note", 
                            "channel": 0
                        }
                    ]
                ], 
                [
                    136474, 
                    [
                        {
                            "pitch": 58, 
                            "t0": 136474, 
                            "v": 38, 
                            "dur": 260, 
                            "type": "note", 
                            "channel": 0
                        }
                    ]
                ], 
                [
                    136488, 
                    [
                        {
                            "pitch": 61, 
                            "t0": 136488, 
                            "v": 56, 
                            "dur": 295, 
                            "type": "note", 
                            "channel": 0
                        }
                    ]
                ], 
                [
                    136681, 
                    [
                        {
                            "pitch": 56, 
                            "t0": 136681, 
                            "v": 54, 
                            "dur": 102, 
                            "type": "note", 
                            "channel": 0
                        }
                    ]
                ], 
                [
                    136895, 
                    [
                        {
                            "pitch": 56, 
                            "t0": 136895, 
                            "v": 59, 
                            "dur": 84, 
                            "type": "note", 
                            "channel": 0
                        }, 
                        {
                            "pitch": 68, 
                            "t0": 136895, 
                            "v": 62, 
                            "dur": 260, 
                            "type": "note", 
                            "channel": 0
                        }
                    ]
                ], 
                [
                    136912, 
                    [
                        {
                            "pitch": 64, 
                            "t0": 136912, 
                            "v": 57, 
                            "dur": 169, 
                            "type": "note", 
                            "channel": 0
                        }
                    ]
                ], 
                [
                    136925, 
                    [
                        {
                            "pitch": 61, 
                            "t0": 136925, 
                            "v": 48, 
                            "dur": 151, 
                            "type": "note", 
                            "channel": 0
                        }
                    ]
                ], 
                [
                    137127, 
                    [
                        {
                            "pitch": 56, 
                            "t0": 137127, 
                            "v": 52, 
                            "dur": 74, 
                            "type": "note", 
                            "channel": 0
                        }
                    ]
                ], 
                [
                    137341, 
                    [
                        {
                            "pitch": 56, 
                            "t0": 137341, 
                            "v": 50, 
                            "dur": 109, 
                            "type": "note", 
                            "channel": 0
                        }, 
                        {
                            "pitch": 68, 
                            "t0": 137341, 
                            "v": 50, 
                            "dur": 245, 
                            "type": "note", 
                            "channel": 0
                        }, 
                        {
                            "pitch": 37, 
                            "t0": 137341, 
                            "v": 56, 
                            "dur": 268, 
                            "type": "note", 
                            "channel": 0
                        }
                    ]
                ], 
                [
                    137350, 
                    [
                        {
                            "pitch": 44, 
                            "t0": 137350, 
                            "v": 34, 
                            "dur": 167, 
                            "type": "note", 
                            "channel": 0
                        }, 
                        {
                            "pitch": 61, 
                            "t0": 137350, 
                            "v": 44, 
                            "dur": 256, 
                            "type": "note", 
                            "channel": 0
                        }
                    ]
                ], 
                [
                    137357, 
                    [
                        {
                            "pitch": 64, 
                            "t0": 137357, 
                            "v": 49, 
                            "dur": 338, 
                            "type": "note", 
                            "channel": 0
                        }
                    ]
                ], 
                [
                    137577, 
                    [
                        {
                            "pitch": 56, 
                            "t0": 137577, 
                            "v": 46, 
                            "dur": 79, 
                            "type": "note", 
                            "channel": 0
                        }
                    ]
                ], 
                [
                    137806, 
                    [
                        {
                            "pitch": 56, 
                            "t0": 137806, 
                            "v": 44, 
                            "dur": 125, 
                            "type": "note", 
                            "channel": 0
                        }
                    ]
                ], 
                [
                    137809, 
                    [
                        {
                            "pitch": 68, 
                            "t0": 137809, 
                            "v": 47, 
                            "dur": 312, 
                            "type": "note", 
                            "channel": 0
                        }, 
                        {
                            "pitch": 44, 
                            "t0": 137809, 
                            "v": 29, 
                            "dur": 632, 
                            "type": "note", 
                            "channel": 0
                        }, 
                        {
                            "pitch": 32, 
                            "t0": 137809, 
                            "v": 31, 
                            "dur": 768, 
                            "type": "note", 
                            "channel": 0
                        }
                    ]
                ], 
                [
                    137818, 
                    [
                        {
                            "pitch": 60, 
                            "t0": 137818, 
                            "v": 38, 
                            "dur": 281, 
                            "type": "note", 
                            "channel": 0
                        }
                    ]
                ], 
                [
                    137823, 
                    [
                        {
                            "pitch": 63, 
                            "t0": 137823, 
                            "v": 40, 
                            "dur": 318, 
                            "type": "note", 
                            "channel": 0
                        }
                    ]
                ], 
                [
                    138046, 
                    [
                        {
                            "pitch": 56, 
                            "t0": 138046, 
                            "v": 41, 
                            "dur": 75, 
                            "type": "note", 
                            "channel": 0
                        }
                    ]
                ], 
                [
                    138285, 
                    [
                        {
                            "pitch": 68, 
                            "t0": 138285, 
                            "v": 44, 
                            "dur": 231, 
                            "type": "note", 
                            "channel": 0
                        }
                    ]
                ], 
                [
                    138293, 
                    [
                        {
                            "pitch": 63, 
                            "t0": 138293, 
                            "v": 34, 
                            "dur": 73, 
                            "type": "note", 
                            "channel": 0
                        }, 
                        {
                            "pitch": 56, 
                            "t0": 138293, 
                            "v": 41, 
                            "dur": 82, 
                            "type": "note", 
                            "channel": 0
                        }
                    ]
                ], 
                [
                    138296, 
                    [
                        {
                            "pitch": 66, 
                            "t0": 138296, 
                            "v": 28, 
                            "dur": 140, 
                            "type": "note", 
                            "channel": 0
                        }
                    ]
                ], 
                [
                    138559, 
                    [
                        {
                            "pitch": 56, 
                            "t0": 138559, 
                            "v": 30, 
                            "dur": 61, 
                            "type": "note", 
                            "channel": 0
                        }
                    ]
                ], 
                [
                    138786, 
                    [
                        {
                            "pitch": 56, 
                            "t0": 138786, 
                            "v": 23, 
                            "dur": 124, 
                            "type": "note", 
                            "channel": 0
                        }
                    ]
                ], 
                [
                    138790, 
                    [
                        {
                            "pitch": 68, 
                            "t0": 138790, 
                            "v": 29, 
                            "dur": 300, 
                            "type": "note", 
                            "channel": 0
                        }, 
                        {
                            "pitch": 61, 
                            "t0": 138790, 
                            "v": 33, 
                            "dur": 303, 
                            "type": "note", 
                            "channel": 0
                        }
                    ]
                ], 
                [
                    138793, 
                    [
                        {
                            "pitch": 44, 
                            "t0": 138793, 
                            "v": 36, 
                            "dur": 167, 
                            "type": "note", 
                            "channel": 0
                        }, 
                        {
                            "pitch": 37, 
                            "t0": 138793, 
                            "v": 26, 
                            "dur": 284, 
                            "type": "note", 
                            "channel": 0
                        }, 
                        {
                            "pitch": 64, 
                            "t0": 138793, 
                            "v": 25, 
                            "dur": 294, 
                            "type": "note", 
                            "channel": 0
                        }
                    ]
                ], 
                [
                    139043, 
                    [
                        {
                            "pitch": 56, 
                            "t0": 139043, 
                            "v": 25, 
                            "dur": 67, 
                            "type": "note", 
                            "channel": 0
                        }
                    ]
                ], 
                [
                    139346, 
                    [
                        {
                            "pitch": 44, 
                            "t0": 139346, 
                            "v": 39, 
                            "dur": 855, 
                            "type": "note", 
                            "channel": 0
                        }, 
                        {
                            "pitch": 68, 
                            "t0": 139346, 
                            "v": 32, 
                            "dur": 1636, 
                            "type": "note", 
                            "channel": 0
                        }
                    ]
                ], 
                [
                    139349, 
                    [
                        {
                            "pitch": 56, 
                            "t0": 139349, 
                            "v": 24, 
                            "dur": 134, 
                            "type": "note", 
                            "channel": 0
                        }, 
                        {
                            "pitch": 63, 
                            "t0": 139349, 
                            "v": 36, 
                            "dur": 1613, 
                            "type": "note", 
                            "channel": 0
                        }
                    ]
                ], 
                [
                    139355, 
                    [
                        {
                            "pitch": 60, 
                            "t0": 139355, 
                            "v": 14, 
                            "dur": 1451, 
                            "type": "note", 
                            "channel": 0
                        }
                    ]
                ], 
                [
                    139361, 
                    [
                        {
                            "pitch": 32, 
                            "t0": 139361, 
                            "v": 20, 
                            "dur": 1024, 
                            "type": "note", 
                            "channel": 0
                        }
                    ]
                ], 
                [
                    139616, 
                    [
                        {
                            "pitch": 56, 
                            "t0": 139616, 
                            "v": 41, 
                            "dur": 57, 
                            "type": "note", 
                            "channel": 0
                        }
                    ]
                ], 
                [
                    139831, 
                    [
                        {
                            "pitch": 56, 
                            "t0": 139831, 
                            "v": 36, 
                            "dur": 59, 
                            "type": "note", 
                            "channel": 0
                        }
                    ]
                ], 
                [
                    140031, 
                    [
                        {
                            "pitch": 56, 
                            "t0": 140031, 
                            "v": 31, 
                            "dur": 62, 
                            "type": "note", 
                            "channel": 0
                        }
                    ]
                ], 
                [
                    140260, 
                    [
                        {
                            "pitch": 56, 
                            "t0": 140260, 
                            "v": 28, 
                            "dur": 59, 
                            "type": "note", 
                            "channel": 0
                        }
                    ]
                ], 
                [
                    140492, 
                    [
                        {
                            "pitch": 56, 
                            "t0": 140492, 
                            "v": 23, 
                            "dur": 60, 
                            "type": "note", 
                            "channel": 0
                        }
                    ]
                ], 
                [
                    140717, 
                    [
                        {
                            "pitch": 56, 
                            "t0": 140717, 
                            "v": 30, 
                            "dur": 53, 
                            "type": "note", 
                            "channel": 0
                        }
                    ]
                ], 
                [
                    140957, 
                    [
                        {
                            "pitch": 56, 
                            "t0": 140957, 
                            "v": 26, 
                            "dur": 53, 
                            "type": "note", 
                            "channel": 0
                        }
                    ]
                ], 
                [
                    141232, 
                    [
                        {
                            "pitch": 68, 
                            "t0": 141232, 
                            "v": 38, 
                            "dur": 139, 
                            "type": "note", 
                            "channel": 0
                        }, 
                        {
                            "pitch": 72, 
                            "t0": 141232, 
                            "v": 47, 
                            "dur": 756, 
                            "type": "note", 
                            "channel": 0
                        }
                    ]
                ], 
                [
                    141236, 
                    [
                        {
                            "pitch": 60, 
                            "t0": 141236, 
                            "v": 43, 
                            "dur": 732, 
                            "type": "note", 
                            "channel": 0
                        }, 
                        {
                            "pitch": 54, 
                            "t0": 141236, 
                            "v": 31, 
                            "dur": 732, 
                            "type": "note", 
                            "channel": 0
                        }
                    ]
                ], 
                [
                    141241, 
                    [
                        {
                            "pitch": 44, 
                            "t0": 141241, 
                            "v": 31, 
                            "dur": 134, 
                            "type": "note", 
                            "channel": 0
                        }
                    ]
                ], 
                [
                    141244, 
                    [
                        {
                            "pitch": 63, 
                            "t0": 141244, 
                            "v": 38, 
                            "dur": 552, 
                            "type": "note", 
                            "channel": 0
                        }
                    ]
                ], 
                [
                    141271, 
                    [
                        {
                            "pitch": 42, 
                            "t0": 141271, 
                            "v": 15, 
                            "dur": 485, 
                            "type": "note", 
                            "channel": 0
                        }
                    ]
                ], 
                [
                    141503, 
                    [
                        {
                            "pitch": 68, 
                            "t0": 141503, 
                            "v": 40, 
                            "dur": 52, 
                            "type": "note", 
                            "channel": 0
                        }
                    ]
                ], 
                [
                    141509, 
                    [
                        {
                            "pitch": 44, 
                            "t0": 141509, 
                            "v": 40, 
                            "dur": 49, 
                            "type": "note", 
                            "channel": 0
                        }
                    ]
                ], 
                [
                    141715, 
                    [
                        {
                            "pitch": 68, 
                            "t0": 141715, 
                            "v": 37, 
                            "dur": 49, 
                            "type": "note", 
                            "channel": 0
                        }
                    ]
                ], 
                [
                    141729, 
                    [
                        {
                            "pitch": 44, 
                            "t0": 141729, 
                            "v": 36, 
                            "dur": 49, 
                            "type": "note", 
                            "channel": 0
                        }
                    ]
                ], 
                [
                    141937, 
                    [
                        {
                            "pitch": 68, 
                            "t0": 141937, 
                            "v": 45, 
                            "dur": 79, 
                            "type": "note", 
                            "channel": 0
                        }
                    ]
                ], 
                [
                    141962, 
                    [
                        {
                            "pitch": 44, 
                            "t0": 141962, 
                            "v": 39, 
                            "dur": 51, 
                            "type": "note", 
                            "channel": 0
                        }
                    ]
                ], 
                [
                    142163, 
                    [
                        {
                            "pitch": 61, 
                            "t0": 142163, 
                            "v": 81, 
                            "dur": 853, 
                            "type": "note", 
                            "channel": 0
                        }, 
                        {
                            "pitch": 73, 
                            "t0": 142163, 
                            "v": 73, 
                            "dur": 895, 
                            "type": "note", 
                            "channel": 0
                        }
                    ]
                ], 
                [
                    142182, 
                    [
                        {
                            "pitch": 68, 
                            "t0": 142182, 
                            "v": 47, 
                            "dur": 82, 
                            "type": "note", 
                            "channel": 0
                        }, 
                        {
                            "pitch": 52, 
                            "t0": 142182, 
                            "v": 60, 
                            "dur": 332, 
                            "type": "note", 
                            "channel": 0
                        }, 
                        {
                            "pitch": 44, 
                            "t0": 142182, 
                            "v": 37, 
                            "dur": 363, 
                            "type": "note", 
                            "channel": 0
                        }
                    ]
                ], 
                [
                    142190, 
                    [
                        {
                            "pitch": 40, 
                            "t0": 142190, 
                            "v": 50, 
                            "dur": 324, 
                            "type": "note", 
                            "channel": 0
                        }
                    ]
                ], 
                [
                    142419, 
                    [
                        {
                            "pitch": 68, 
                            "t0": 142419, 
                            "v": 52, 
                            "dur": 114, 
                            "type": "note", 
                            "channel": 0
                        }
                    ]
                ], 
                [
                    142650, 
                    [
                        {
                            "pitch": 68, 
                            "t0": 142650, 
                            "v": 57, 
                            "dur": 101, 
                            "type": "note", 
                            "channel": 0
                        }
                    ]
                ], 
                [
                    142661, 
                    [
                        {
                            "pitch": 49, 
                            "t0": 142661, 
                            "v": 59, 
                            "dur": 246, 
                            "type": "note", 
                            "channel": 0
                        }, 
                        {
                            "pitch": 37, 
                            "t0": 142661, 
                            "v": 68, 
                            "dur": 394, 
                            "type": "note", 
                            "channel": 0
                        }
                    ]
                ], 
                [
                    142918, 
                    [
                        {
                            "pitch": 68, 
                            "t0": 142918, 
                            "v": 59, 
                            "dur": 144, 
                            "type": "note", 
                            "channel": 0
                        }
                    ]
                ], 
                [
                    143157, 
                    [
                        {
                            "pitch": 63, 
                            "t0": 143157, 
                            "v": 83, 
                            "dur": 1196, 
                            "type": "note", 
                            "channel": 0
                        }, 
                        {
                            "pitch": 75, 
                            "t0": 143157, 
                            "v": 79, 
                            "dur": 1213, 
                            "type": "note", 
                            "channel": 0
                        }
                    ]
                ], 
                [
                    143165, 
                    [
                        {
                            "pitch": 44, 
                            "t0": 143165, 
                            "v": 77, 
                            "dur": 1631, 
                            "type": "note", 
                            "channel": 0
                        }, 
                        {
                            "pitch": 32, 
                            "t0": 143165, 
                            "v": 76, 
                            "dur": 1703, 
                            "type": "note", 
                            "channel": 0
                        }
                    ]
                ], 
                [
                    143169, 
                    [
                        {
                            "pitch": 68, 
                            "t0": 143169, 
                            "v": 58, 
                            "dur": 158, 
                            "type": "note", 
                            "channel": 0
                        }
                    ]
                ], 
                [
                    143176, 
                    [
                        {
                            "pitch": 73, 
                            "t0": 143176, 
                            "v": 62, 
                            "dur": 1121, 
                            "type": "note", 
                            "channel": 0
                        }
                    ]
                ], 
                [
                    143411, 
                    [
                        {
                            "pitch": 68, 
                            "t0": 143411, 
                            "v": 50, 
                            "dur": 91, 
                            "type": "note", 
                            "channel": 0
                        }
                    ]
                ], 
                [
                    143622, 
                    [
                        {
                            "pitch": 68, 
                            "t0": 143622, 
                            "v": 57, 
                            "dur": 87, 
                            "type": "note", 
                            "channel": 0
                        }
                    ]
                ], 
                [
                    143823, 
                    [
                        {
                            "pitch": 68, 
                            "t0": 143823, 
                            "v": 60, 
                            "dur": 104, 
                            "type": "note", 
                            "channel": 0
                        }
                    ]
                ], 
                [
                    144044, 
                    [
                        {
                            "pitch": 68, 
                            "t0": 144044, 
                            "v": 62, 
                            "dur": 66, 
                            "type": "note", 
                            "channel": 0
                        }
                    ]
                ], 
                [
                    144303, 
                    [
                        {
                            "pitch": 68, 
                            "t0": 144303, 
                            "v": 51, 
                            "dur": 71, 
                            "type": "note", 
                            "channel": 0
                        }
                    ]
                ], 
                [
                    144502, 
                    [
                        {
                            "pitch": 75, 
                            "t0": 144502, 
                            "v": 86, 
                            "dur": 310, 
                            "type": "note", 
                            "channel": 0
                        }
                    ]
                ], 
                [
                    144508, 
                    [
                        {
                            "pitch": 72, 
                            "t0": 144508, 
                            "v": 68, 
                            "dur": 270, 
                            "type": "note", 
                            "channel": 0
                        }, 
                        {
                            "pitch": 63, 
                            "t0": 144508, 
                            "v": 77, 
                            "dur": 304, 
                            "type": "note", 
                            "channel": 0
                        }
                    ]
                ], 
                [
                    144512, 
                    [
                        {
                            "pitch": 68, 
                            "t0": 144512, 
                            "v": 62, 
                            "dur": 116, 
                            "type": "note", 
                            "channel": 0
                        }
                    ]
                ], 
                [
                    144743, 
                    [
                        {
                            "pitch": 68, 
                            "t0": 144743, 
                            "v": 64, 
                            "dur": 95, 
                            "type": "note", 
                            "channel": 0
                        }
                    ]
                ], 
                [
                    145010, 
                    [
                        {
                            "pitch": 76, 
                            "t0": 145010, 
                            "v": 88, 
                            "dur": 429, 
                            "type": "note", 
                            "channel": 0
                        }, 
                        {
                            "pitch": 75, 
                            "t0": 145010, 
                            "v": 78, 
                            "dur": 442, 
                            "type": "note", 
                            "channel": 0
                        }
                    ]
                ], 
                [
                    145017, 
                    [
                        {
                            "pitch": 44, 
                            "t0": 145017, 
                            "v": 66, 
                            "dur": 740, 
                            "type": "note", 
                            "channel": 0
                        }
                    ]
                ], 
                [
                    145020, 
                    [
                        {
                            "pitch": 68, 
                            "t0": 145020, 
                            "v": 59, 
                            "dur": 151, 
                            "type": "note", 
                            "channel": 0
                        }
                    ]
                ], 
                [
                    145023, 
                    [
                        {
                            "pitch": 64, 
                            "t0": 145023, 
                            "v": 57, 
                            "dur": 410, 
                            "type": "note", 
                            "channel": 0
                        }, 
                        {
                            "pitch": 37, 
                            "t0": 145023, 
                            "v": 67, 
                            "dur": 714, 
                            "type": "note", 
                            "channel": 0
                        }
                    ]
                ], 
                [
                    145058, 
                    [
                        {
                            "pitch": 65, 
                            "t0": 145058, 
                            "v": 23, 
                            "dur": 185, 
                            "type": "note", 
                            "channel": 0
                        }
                    ]
                ], 
                [
                    145335, 
                    [
                        {
                            "pitch": 68, 
                            "t0": 145335, 
                            "v": 55, 
                            "dur": 143, 
                            "type": "note", 
                            "channel": 0
                        }
                    ]
                ], 
                [
                    145553, 
                    [
                        {
                            "pitch": 68, 
                            "t0": 145553, 
                            "v": 50, 
                            "dur": 117, 
                            "type": "note", 
                            "channel": 0
                        }, 
                        {
                            "pitch": 76, 
                            "t0": 145553, 
                            "v": 85, 
                            "dur": 275, 
                            "type": "note", 
                            "channel": 0
                        }
                    ]
                ], 
                [
                    145556, 
                    [
                        {
                            "pitch": 73, 
                            "t0": 145556, 
                            "v": 73, 
                            "dur": 286, 
                            "type": "note", 
                            "channel": 0
                        }
                    ]
                ], 
                [
                    145562, 
                    [
                        {
                            "pitch": 64, 
                            "t0": 145562, 
                            "v": 75, 
                            "dur": 266, 
                            "type": "note", 
                            "channel": 0
                        }
                    ]
                ], 
                [
                    145781, 
                    [
                        {
                            "pitch": 68, 
                            "t0": 145781, 
                            "v": 76, 
                            "dur": 148, 
                            "type": "note", 
                            "channel": 0
                        }
                    ]
                ], 
                [
                    145996, 
                    [
                        {
                            "pitch": 75, 
                            "t0": 145996, 
                            "v": 90, 
                            "dur": 398, 
                            "type": "note", 
                            "channel": 0
                        }
                    ]
                ], 
                [
                    146001, 
                    [
                        {
                            "pitch": 68, 
                            "t0": 146001, 
                            "v": 55, 
                            "dur": 157, 
                            "type": "note", 
                            "channel": 0
                        }
                    ]
                ], 
                [
                    146004, 
                    [
                        {
                            "pitch": 73, 
                            "t0": 146004, 
                            "v": 76, 
                            "dur": 299, 
                            "type": "note", 
                            "channel": 0
                        }, 
                        {
                            "pitch": 63, 
                            "t0": 146004, 
                            "v": 88, 
                            "dur": 402, 
                            "type": "note", 
                            "channel": 0
                        }
                    ]
                ], 
                [
                    146007, 
                    [
                        {
                            "pitch": 56, 
                            "t0": 146007, 
                            "v": 81, 
                            "dur": 672, 
                            "type": "note", 
                            "channel": 0
                        }
                    ]
                ], 
                [
                    146013, 
                    [
                        {
                            "pitch": 44, 
                            "t0": 146013, 
                            "v": 82, 
                            "dur": 702, 
                            "type": "note", 
                            "channel": 0
                        }
                    ]
                ], 
                [
                    146258, 
                    [
                        {
                            "pitch": 68, 
                            "t0": 146258, 
                            "v": 69, 
                            "dur": 148, 
                            "type": "note", 
                            "channel": 0
                        }
                    ]
                ], 
                [
                    146475, 
                    [
                        {
                            "pitch": 68, 
                            "t0": 146475, 
                            "v": 50, 
                            "dur": 140, 
                            "type": "note", 
                            "channel": 0
                        }, 
                        {
                            "pitch": 75, 
                            "t0": 146475, 
                            "v": 76, 
                            "dur": 318, 
                            "type": "note", 
                            "channel": 0
                        }
                    ]
                ], 
                [
                    146480, 
                    [
                        {
                            "pitch": 72, 
                            "t0": 146480, 
                            "v": 80, 
                            "dur": 301, 
                            "type": "note", 
                            "channel": 0
                        }, 
                        {
                            "pitch": 63, 
                            "t0": 146480, 
                            "v": 75, 
                            "dur": 390, 
                            "type": "note", 
                            "channel": 0
                        }
                    ]
                ], 
                [
                    146754, 
                    [
                        {
                            "pitch": 68, 
                            "t0": 146754, 
                            "v": 75, 
                            "dur": 112, 
                            "type": "note", 
                            "channel": 0
                        }
                    ]
                ], 
                [
                    147038, 
                    [
                        {
                            "pitch": 61, 
                            "t0": 147038, 
                            "v": 83, 
                            "dur": 148, 
                            "type": "note", 
                            "channel": 0
                        }, 
                        {
                            "pitch": 73, 
                            "t0": 147038, 
                            "v": 86, 
                            "dur": 900, 
                            "type": "note", 
                            "channel": 0
                        }, 
                        {
                            "pitch": 68, 
                            "t0": 147038, 
                            "v": 73, 
                            "dur": 903, 
                            "type": "note", 
                            "channel": 0
                        }, 
                        {
                            "pitch": 71, 
                            "t0": 147038, 
                            "v": 89, 
                            "dur": 961, 
                            "type": "note", 
                            "channel": 0
                        }
                    ]
                ], 
                [
                    147051, 
                    [
                        {
                            "pitch": 53, 
                            "t0": 147051, 
                            "v": 108, 
                            "dur": 872, 
                            "type": "note", 
                            "channel": 0
                        }
                    ]
                ], 
                [
                    147054, 
                    [
                        {
                            "pitch": 41, 
                            "t0": 147054, 
                            "v": 94, 
                            "dur": 878, 
                            "type": "note", 
                            "channel": 0
                        }
                    ]
                ], 
                [
                    147349, 
                    [
                        {
                            "pitch": 61, 
                            "t0": 147349, 
                            "v": 77, 
                            "dur": 179, 
                            "type": "note", 
                            "channel": 0
                        }
                    ]
                ], 
                [
                    147612, 
                    [
                        {
                            "pitch": 61, 
                            "t0": 147612, 
                            "v": 76, 
                            "dur": 136, 
                            "type": "note", 
                            "channel": 0
                        }
                    ]
                ], 
                [
                    147852, 
                    [
                        {
                            "pitch": 61, 
                            "t0": 147852, 
                            "v": 86, 
                            "dur": 113, 
                            "type": "note", 
                            "channel": 0
                        }
                    ]
                ], 
                [
                    148071, 
                    [
                        {
                            "pitch": 61, 
                            "t0": 148071, 
                            "v": 96, 
                            "dur": 146, 
                            "type": "note", 
                            "channel": 0
                        }, 
                        {
                            "pitch": 69, 
                            "t0": 148071, 
                            "v": 75, 
                            "dur": 306, 
                            "type": "note", 
                            "channel": 0
                        }, 
                        {
                            "pitch": 73, 
                            "t0": 148071, 
                            "v": 90, 
                            "dur": 306, 
                            "type": "note", 
                            "channel": 0
                        }, 
                        {
                            "pitch": 68, 
                            "t0": 148071, 
                            "v": 76, 
                            "dur": 306, 
                            "type": "note", 
                            "channel": 0
                        }
                    ]
                ], 
                [
                    148077, 
                    [
                        {
                            "pitch": 54, 
                            "t0": 148077, 
                            "v": 97, 
                            "dur": 651, 
                            "type": "note", 
                            "channel": 0
                        }, 
                        {
                            "pitch": 42, 
                            "t0": 148077, 
                            "v": 88, 
                            "dur": 715, 
                            "type": "note", 
                            "channel": 0
                        }
                    ]
                ], 
                [
                    148305, 
                    [
                        {
                            "pitch": 61, 
                            "t0": 148305, 
                            "v": 79, 
                            "dur": 126, 
                            "type": "note", 
                            "channel": 0
                        }
                    ]
                ], 
                [
                    148523, 
                    [
                        {
                            "pitch": 73, 
                            "t0": 148523, 
                            "v": 88, 
                            "dur": 255, 
                            "type": "note", 
                            "channel": 0
                        }
                    ]
                ], 
                [
                    148526, 
                    [
                        {
                            "pitch": 61, 
                            "t0": 148526, 
                            "v": 88, 
                            "dur": 105, 
                            "type": "note", 
                            "channel": 0
                        }, 
                        {
                            "pitch": 69, 
                            "t0": 148526, 
                            "v": 71, 
                            "dur": 244, 
                            "type": "note", 
                            "channel": 0
                        }, 
                        {
                            "pitch": 66, 
                            "t0": 148526, 
                            "v": 69, 
                            "dur": 280, 
                            "type": "note", 
                            "channel": 0
                        }
                    ]
                ], 
                [
                    148765, 
                    [
                        {
                            "pitch": 61, 
                            "t0": 148765, 
                            "v": 82, 
                            "dur": 76, 
                            "type": "note", 
                            "channel": 0
                        }
                    ]
                ], 
                [
                    148985, 
                    [
                        {
                            "pitch": 68, 
                            "t0": 148985, 
                            "v": 83, 
                            "dur": 864, 
                            "type": "note", 
                            "channel": 0
                        }
                    ]
                ], 
                [
                    148988, 
                    [
                        {
                            "pitch": 56, 
                            "t0": 148988, 
                            "v": 88, 
                            "dur": 119, 
                            "type": "note", 
                            "channel": 0
                        }
                    ]
                ], 
                [
                    148991, 
                    [
                        {
                            "pitch": 63, 
                            "t0": 148991, 
                            "v": 81, 
                            "dur": 863, 
                            "type": "note", 
                            "channel": 0
                        }, 
                        {
                            "pitch": 66, 
                            "t0": 148991, 
                            "v": 70, 
                            "dur": 868, 
                            "type": "note", 
                            "channel": 0
                        }
                    ]
                ], 
                [
                    148997, 
                    [
                        {
                            "pitch": 48, 
                            "t0": 148997, 
                            "v": 87, 
                            "dur": 802, 
                            "type": "note", 
                            "channel": 0
                        }, 
                        {
                            "pitch": 36, 
                            "t0": 148997, 
                            "v": 95, 
                            "dur": 805, 
                            "type": "note", 
                            "channel": 0
                        }
                    ]
                ], 
                [
                    149247, 
                    [
                        {
                            "pitch": 56, 
                            "t0": 149247, 
                            "v": 78, 
                            "dur": 147, 
                            "type": "note", 
                            "channel": 0
                        }
                    ]
                ], 
                [
                    149483, 
                    [
                        {
                            "pitch": 56, 
                            "t0": 149483, 
                            "v": 77, 
                            "dur": 160, 
                            "type": "note", 
                            "channel": 0
                        }
                    ]
                ], 
                [
                    149724, 
                    [
                        {
                            "pitch": 56, 
                            "t0": 149724, 
                            "v": 65, 
                            "dur": 135, 
                            "type": "note", 
                            "channel": 0
                        }
                    ]
                ], 
                [
                    149946, 
                    [
                        {
                            "pitch": 56, 
                            "t0": 149946, 
                            "v": 85, 
                            "dur": 151, 
                            "type": "note", 
                            "channel": 0
                        }, 
                        {
                            "pitch": 68, 
                            "t0": 149946, 
                            "v": 89, 
                            "dur": 351, 
                            "type": "note", 
                            "channel": 0
                        }
                    ]
                ], 
                [
                    149949, 
                    [
                        {
                            "pitch": 61, 
                            "t0": 149949, 
                            "v": 78, 
                            "dur": 360, 
                            "type": "note", 
                            "channel": 0
                        }, 
                        {
                            "pitch": 49, 
                            "t0": 149949, 
                            "v": 93, 
                            "dur": 747, 
                            "type": "note", 
                            "channel": 0
                        }, 
                        {
                            "pitch": 37, 
                            "t0": 149949, 
                            "v": 95, 
                            "dur": 789, 
                            "type": "note", 
                            "channel": 0
                        }
                    ]
                ], 
                [
                    149954, 
                    [
                        {
                            "pitch": 66, 
                            "t0": 149954, 
                            "v": 69, 
                            "dur": 383, 
                            "type": "note", 
                            "channel": 0
                        }
                    ]
                ], 
                [
                    150199, 
                    [
                        {
                            "pitch": 56, 
                            "t0": 150199, 
                            "v": 86, 
                            "dur": 114, 
                            "type": "note", 
                            "channel": 0
                        }
                    ]
                ], 
                [
                    150447, 
                    [
                        {
                            "pitch": 70, 
                            "t0": 150447, 
                            "v": 84, 
                            "dur": 274, 
                            "type": "note", 
                            "channel": 0
                        }
                    ]
                ], 
                [
                    150451, 
                    [
                        {
                            "pitch": 56, 
                            "t0": 150451, 
                            "v": 82, 
                            "dur": 147, 
                            "type": "note", 
                            "channel": 0
                        }, 
                        {
                            "pitch": 61, 
                            "t0": 150451, 
                            "v": 72, 
                            "dur": 358, 
                            "type": "note", 
                            "channel": 0
                        }
                    ]
                ], 
                [
                    150459, 
                    [
                        {
                            "pitch": 64, 
                            "t0": 150459, 
                            "v": 83, 
                            "dur": 308, 
                            "type": "note", 
                            "channel": 0
                        }
                    ]
                ], 
                [
                    150475, 
                    [
                        {
                            "pitch": 68, 
                            "t0": 150475, 
                            "v": 44, 
                            "dur": 48, 
                            "type": "note", 
                            "channel": 0
                        }
                    ]
                ], 
                [
                    150703, 
                    [
                        {
                            "pitch": 56, 
                            "t0": 150703, 
                            "v": 80, 
                            "dur": 112, 
                            "type": "note", 
                            "channel": 0
                        }
                    ]
                ], 
                [
                    150976, 
                    [
                        {
                            "pitch": 70, 
                            "t0": 150976, 
                            "v": 83, 
                            "dur": 733, 
                            "type": "note", 
                            "channel": 0
                        }
                    ]
                ], 
                [
                    150980, 
                    [
                        {
                            "pitch": 56, 
                            "t0": 150980, 
                            "v": 80, 
                            "dur": 159, 
                            "type": "note", 
                            "channel": 0
                        }, 
                        {
                            "pitch": 61, 
                            "t0": 150980, 
                            "v": 74, 
                            "dur": 694, 
                            "type": "note", 
                            "channel": 0
                        }
                    ]
                ], 
                [
                    150986, 
                    [
                        {
                            "pitch": 64, 
                            "t0": 150986, 
                            "v": 80, 
                            "dur": 702, 
                            "type": "note", 
                            "channel": 0
                        }
                    ]
                ], 
                [
                    150990, 
                    [
                        {
                            "pitch": 44, 
                            "t0": 150990, 
                            "v": 97, 
                            "dur": 1301, 
                            "type": "note", 
                            "channel": 0
                        }
                    ]
                ], 
                [
                    150993, 
                    [
                        {
                            "pitch": 32, 
                            "t0": 150993, 
                            "v": 88, 
                            "dur": 1351, 
                            "type": "note", 
                            "channel": 0
                        }
                    ]
                ], 
                [
                    151261, 
                    [
                        {
                            "pitch": 56, 
                            "t0": 151261, 
                            "v": 75, 
                            "dur": 137, 
                            "type": "note", 
                            "channel": 0
                        }
                    ]
                ], 
                [
                    151506, 
                    [
                        {
                            "pitch": 56, 
                            "t0": 151506, 
                            "v": 68, 
                            "dur": 97, 
                            "type": "note", 
                            "channel": 0
                        }
                    ]
                ], 
                [
                    151752, 
                    [
                        {
                            "pitch": 56, 
                            "t0": 151752, 
                            "v": 70, 
                            "dur": 94, 
                            "type": "note", 
                            "channel": 0
                        }
                    ]
                ], 
                [
                    151954, 
                    [
                        {
                            "pitch": 56, 
                            "t0": 151954, 
                            "v": 76, 
                            "dur": 145, 
                            "type": "note", 
                            "channel": 0
                        }, 
                        {
                            "pitch": 68, 
                            "t0": 151954, 
                            "v": 84, 
                            "dur": 271, 
                            "type": "note", 
                            "channel": 0
                        }
                    ]
                ], 
                [
                    151965, 
                    [
                        {
                            "pitch": 60, 
                            "t0": 151965, 
                            "v": 70, 
                            "dur": 212, 
                            "type": "note", 
                            "channel": 0
                        }, 
                        {
                            "pitch": 63, 
                            "t0": 151965, 
                            "v": 76, 
                            "dur": 234, 
                            "type": "note", 
                            "channel": 0
                        }
                    ]
                ], 
                [
                    152189, 
                    [
                        {
                            "pitch": 56, 
                            "t0": 152189, 
                            "v": 70, 
                            "dur": 102, 
                            "type": "note", 
                            "channel": 0
                        }
                    ]
                ], 
                [
                    152414, 
                    [
                        {
                            "pitch": 56, 
                            "t0": 152414, 
                            "v": 83, 
                            "dur": 129, 
                            "type": "note", 
                            "channel": 0
                        }, 
                        {
                            "pitch": 70, 
                            "t0": 152414, 
                            "v": 90, 
                            "dur": 235, 
                            "type": "note", 
                            "channel": 0
                        }
                    ]
                ], 
                [
                    152420, 
                    [
                        {
                            "pitch": 44, 
                            "t0": 152420, 
                            "v": 90, 
                            "dur": 200, 
                            "type": "note", 
                            "channel": 0
                        }, 
                        {
                            "pitch": 64, 
                            "t0": 152420, 
                            "v": 80, 
                            "dur": 270, 
                            "type": "note", 
                            "channel": 0
                        }, 
                        {
                            "pitch": 37, 
                            "t0": 152420, 
                            "v": 92, 
                            "dur": 270, 
                            "type": "note", 
                            "channel": 0
                        }, 
                        {
                            "pitch": 61, 
                            "t0": 152420, 
                            "v": 78, 
                            "dur": 312, 
                            "type": "note", 
                            "channel": 0
                        }
                    ]
                ], 
                [
                    152645, 
                    [
                        {
                            "pitch": 56, 
                            "t0": 152645, 
                            "v": 77, 
                            "dur": 95, 
                            "type": "note", 
                            "channel": 0
                        }
                    ]
                ], 
                [
                    152874, 
                    [
                        {
                            "pitch": 70, 
                            "t0": 152874, 
                            "v": 86, 
                            "dur": 749, 
                            "type": "note", 
                            "channel": 0
                        }
                    ]
                ], 
                [
                    152880, 
                    [
                        {
                            "pitch": 56, 
                            "t0": 152880, 
                            "v": 83, 
                            "dur": 113, 
                            "type": "note", 
                            "channel": 0
                        }, 
                        {
                            "pitch": 44, 
                            "t0": 152880, 
                            "v": 91, 
                            "dur": 1295, 
                            "type": "note", 
                            "channel": 0
                        }
                    ]
                ], 
                [
                    152883, 
                    [
                        {
                            "pitch": 61, 
                            "t0": 152883, 
                            "v": 78, 
                            "dur": 798, 
                            "type": "note", 
                            "channel": 0
                        }, 
                        {
                            "pitch": 32, 
                            "t0": 152883, 
                            "v": 87, 
                            "dur": 1361, 
                            "type": "note", 
                            "channel": 0
                        }
                    ]
                ], 
                [
                    152887, 
                    [
                        {
                            "pitch": 64, 
                            "t0": 152887, 
                            "v": 88, 
                            "dur": 758, 
                            "type": "note", 
                            "channel": 0
                        }
                    ]
                ], 
                [
                    153110, 
                    [
                        {
                            "pitch": 56, 
                            "t0": 153110, 
                            "v": 60, 
                            "dur": 101, 
                            "type": "note", 
                            "channel": 0
                        }
                    ]
                ], 
                [
                    153362, 
                    [
                        {
                            "pitch": 56, 
                            "t0": 153362, 
                            "v": 68, 
                            "dur": 105, 
                            "type": "note", 
                            "channel": 0
                        }
                    ]
                ], 
                [
                    153623, 
                    [
                        {
                            "pitch": 56, 
                            "t0": 153623, 
                            "v": 58, 
                            "dur": 103, 
                            "type": "note", 
                            "channel": 0
                        }
                    ]
                ], 
                [
                    153863, 
                    [
                        {
                            "pitch": 68, 
                            "t0": 153863, 
                            "v": 68, 
                            "dur": 281, 
                            "type": "note", 
                            "channel": 0
                        }
                    ]
                ], 
                [
                    153866, 
                    [
                        {
                            "pitch": 56, 
                            "t0": 153866, 
                            "v": 57, 
                            "dur": 155, 
                            "type": "note", 
                            "channel": 0
                        }
                    ]
                ], 
                [
                    153877, 
                    [
                        {
                            "pitch": 63, 
                            "t0": 153877, 
                            "v": 55, 
                            "dur": 267, 
                            "type": "note", 
                            "channel": 0
                        }
                    ]
                ], 
                [
                    153883, 
                    [
                        {
                            "pitch": 60, 
                            "t0": 153883, 
                            "v": 48, 
                            "dur": 242, 
                            "type": "note", 
                            "channel": 0
                        }
                    ]
                ], 
                [
                    154114, 
                    [
                        {
                            "pitch": 56, 
                            "t0": 154114, 
                            "v": 42, 
                            "dur": 97, 
                            "type": "note", 
                            "channel": 0
                        }
                    ]
                ], 
                [
                    154400, 
                    [
                        {
                            "pitch": 70, 
                            "t0": 154400, 
                            "v": 60, 
                            "dur": 305, 
                            "type": "note", 
                            "channel": 0
                        }
                    ]
                ], 
                [
                    154408, 
                    [
                        {
                            "pitch": 56, 
                            "t0": 154408, 
                            "v": 34, 
                            "dur": 132, 
                            "type": "note", 
                            "channel": 0
                        }
                    ]
                ], 
                [
                    154414, 
                    [
                        {
                            "pitch": 64, 
                            "t0": 154414, 
                            "v": 50, 
                            "dur": 279, 
                            "type": "note", 
                            "channel": 0
                        }
                    ]
                ], 
                [
                    154425, 
                    [
                        {
                            "pitch": 61, 
                            "t0": 154425, 
                            "v": 44, 
                            "dur": 324, 
                            "type": "note", 
                            "channel": 0
                        }, 
                        {
                            "pitch": 37, 
                            "t0": 154425, 
                            "v": 44, 
                            "dur": 379, 
                            "type": "note", 
                            "channel": 0
                        }
                    ]
                ], 
                [
                    154432, 
                    [
                        {
                            "pitch": 44, 
                            "t0": 154432, 
                            "v": 33, 
                            "dur": 197, 
                            "type": "note", 
                            "channel": 0
                        }
                    ]
                ], 
                [
                    154673, 
                    [
                        {
                            "pitch": 56, 
                            "t0": 154673, 
                            "v": 44, 
                            "dur": 103, 
                            "type": "note", 
                            "channel": 0
                        }
                    ]
                ], 
                [
                    155021, 
                    [
                        {
                            "pitch": 70, 
                            "t0": 155021, 
                            "v": 46, 
                            "dur": 464, 
                            "type": "note", 
                            "channel": 0
                        }
                    ]
                ], 
                [
                    155033, 
                    [
                        {
                            "pitch": 56, 
                            "t0": 155033, 
                            "v": 31, 
                            "dur": 242, 
                            "type": "note", 
                            "channel": 0
                        }
                    ]
                ], 
                [
                    155044, 
                    [
                        {
                            "pitch": 44, 
                            "t0": 155044, 
                            "v": 43, 
                            "dur": 353, 
                            "type": "note", 
                            "channel": 0
                        }, 
                        {
                            "pitch": 64, 
                            "t0": 155044, 
                            "v": 50, 
                            "dur": 487, 
                            "type": "note", 
                            "channel": 0
                        }
                    ]
                ], 
                [
                    155049, 
                    [
                        {
                            "pitch": 61, 
                            "t0": 155049, 
                            "v": 40, 
                            "dur": 522, 
                            "type": "note", 
                            "channel": 0
                        }
                    ]
                ], 
                [
                    155058, 
                    [
                        {
                            "pitch": 32, 
                            "t0": 155058, 
                            "v": 23, 
                            "dur": 919, 
                            "type": "note", 
                            "channel": 0
                        }
                    ]
                ], 
                [
                    155475, 
                    [
                        {
                            "pitch": 56, 
                            "t0": 155475, 
                            "v": 26, 
                            "dur": 165, 
                            "type": "note", 
                            "channel": 0
                        }
                    ]
                ], 
                [
                    155819, 
                    [
                        {
                            "pitch": 63, 
                            "t0": 155819, 
                            "v": 39, 
                            "dur": 2086, 
                            "type": "note", 
                            "channel": 0
                        }, 
                        {
                            "pitch": 68, 
                            "t0": 155819, 
                            "v": 33, 
                            "dur": 2134, 
                            "type": "note", 
                            "channel": 0
                        }
                    ]
                ], 
                [
                    155836, 
                    [
                        {
                            "pitch": 56, 
                            "t0": 155836, 
                            "v": 20, 
                            "dur": 178, 
                            "type": "note", 
                            "channel": 0
                        }
                    ]
                ], 
                [
                    155844, 
                    [
                        {
                            "pitch": 60, 
                            "t0": 155844, 
                            "v": 22, 
                            "dur": 1269, 
                            "type": "note", 
                            "channel": 0
                        }
                    ]
                ], 
                [
                    155861, 
                    [
                        {
                            "pitch": 44, 
                            "t0": 155861, 
                            "v": 25, 
                            "dur": 326, 
                            "type": "note", 
                            "channel": 0
                        }
                    ]
                ], 
                [
                    156136, 
                    [
                        {
                            "pitch": 56, 
                            "t0": 156136, 
                            "v": 44, 
                            "dur": 150, 
                            "type": "note", 
                            "channel": 0
                        }
                    ]
                ], 
                [
                    156443, 
                    [
                        {
                            "pitch": 56, 
                            "t0": 156443, 
                            "v": 41, 
                            "dur": 133, 
                            "type": "note", 
                            "channel": 0
                        }
                    ]
                ], 
                [
                    156748, 
                    [
                        {
                            "pitch": 56, 
                            "t0": 156748, 
                            "v": 28, 
                            "dur": 184, 
                            "type": "note", 
                            "channel": 0
                        }
                    ]
                ], 
                [
                    156763, 
                    [
                        {
                            "pitch": 53, 
                            "t0": 156763, 
                            "v": 47, 
                            "dur": 376, 
                            "type": "note", 
                            "channel": 0
                        }
                    ]
                ], 
                [
                    157139, 
                    [
                        {
                            "pitch": 56, 
                            "t0": 157139, 
                            "v": 26, 
                            "dur": 279, 
                            "type": "note", 
                            "channel": 0
                        }
                    ]
                ], 
                [
                    157161, 
                    [
                        {
                            "pitch": 54, 
                            "t0": 157161, 
                            "v": 29, 
                            "dur": 493, 
                            "type": "note", 
                            "channel": 0
                        }
                    ]
                ], 
                [
                    157630, 
                    [
                        {
                            "pitch": 56, 
                            "t0": 157630, 
                            "v": 22, 
                            "dur": 228, 
                            "type": "note", 
                            "channel": 0
                        }
                    ]
                ], 
                [
                    157688, 
                    [
                        {
                            "pitch": 51, 
                            "t0": 157688, 
                            "v": 28, 
                            "dur": 304, 
                            "type": "note", 
                            "channel": 0
                        }
                    ]
                ], 
                [
                    158401, 
                    [
                        {
                            "pitch": 77, 
                            "t0": 158401, 
                            "v": 56, 
                            "dur": 841, 
                            "type": "note", 
                            "channel": 0
                        }
                    ]
                ], 
                [
                    158431, 
                    [
                        {
                            "pitch": 49, 
                            "t0": 158431, 
                            "v": 23, 
                            "dur": 558, 
                            "type": "note", 
                            "channel": 0
                        }
                    ]
                ], 
                [
                    159045, 
                    [
                        {
                            "pitch": 56, 
                            "t0": 159045, 
                            "v": 17, 
                            "dur": 217, 
                            "type": "note", 
                            "channel": 0
                        }
                    ]
                ], 
                [
                    159222, 
                    [
                        {
                            "pitch": 73, 
                            "t0": 159222, 
                            "v": 33, 
                            "dur": 241, 
                            "type": "note", 
                            "channel": 0
                        }
                    ]
                ], 
                [
                    159421, 
                    [
                        {
                            "pitch": 68, 
                            "t0": 159421, 
                            "v": 40, 
                            "dur": 1379, 
                            "type": "note", 
                            "channel": 0
                        }
                    ]
                ], 
                [
                    159446, 
                    [
                        {
                            "pitch": 65, 
                            "t0": 159446, 
                            "v": 21, 
                            "dur": 1152, 
                            "type": "note", 
                            "channel": 0
                        }
                    ]
                ], 
                [
                    159467, 
                    [
                        {
                            "pitch": 61, 
                            "t0": 159467, 
                            "v": 14, 
                            "dur": 1057, 
                            "type": "note", 
                            "channel": 0
                        }
                    ]
                ], 
                [
                    159793, 
                    [
                        {
                            "pitch": 56, 
                            "t0": 159793, 
                            "v": 15, 
                            "dur": 142, 
                            "type": "note", 
                            "channel": 0
                        }
                    ]
                ], 
                [
                    160120, 
                    [
                        {
                            "pitch": 56, 
                            "t0": 160120, 
                            "v": 26, 
                            "dur": 114, 
                            "type": "note", 
                            "channel": 0
                        }
                    ]
                ], 
                [
                    160410, 
                    [
                        {
                            "pitch": 56, 
                            "t0": 160410, 
                            "v": 26, 
                            "dur": 119, 
                            "type": "note", 
                            "channel": 0
                        }
                    ]
                ], 
                [
                    160685, 
                    [
                        {
                            "pitch": 70, 
                            "t0": 160685, 
                            "v": 36, 
                            "dur": 672, 
                            "type": "note", 
                            "channel": 0
                        }
                    ]
                ], 
                [
                    160694, 
                    [
                        {
                            "pitch": 56, 
                            "t0": 160694, 
                            "v": 32, 
                            "dur": 60, 
                            "type": "note", 
                            "channel": 0
                        }
                    ]
                ], 
                [
                    160960, 
                    [
                        {
                            "pitch": 56, 
                            "t0": 160960, 
                            "v": 34, 
                            "dur": 104, 
                            "type": "note", 
                            "channel": 0
                        }
                    ]
                ], 
                [
                    161239, 
                    [
                        {
                            "pitch": 72, 
                            "t0": 161239, 
                            "v": 47, 
                            "dur": 1983, 
                            "type": "note", 
                            "channel": 0
                        }
                    ]
                ], 
                [
                    161243, 
                    [
                        {
                            "pitch": 66, 
                            "t0": 161243, 
                            "v": 24, 
                            "dur": 1737, 
                            "type": "note", 
                            "channel": 0
                        }
                    ]
                ], 
                [
                    161276, 
                    [
                        {
                            "pitch": 63, 
                            "t0": 161276, 
                            "v": 23, 
                            "dur": 1403, 
                            "type": "note", 
                            "channel": 0
                        }
                    ]
                ], 
                [
                    161524, 
                    [
                        {
                            "pitch": 56, 
                            "t0": 161524, 
                            "v": 28, 
                            "dur": 114, 
                            "type": "note", 
                            "channel": 0
                        }
                    ]
                ], 
                [
                    161816, 
                    [
                        {
                            "pitch": 56, 
                            "t0": 161816, 
                            "v": 20, 
                            "dur": 122, 
                            "type": "note", 
                            "channel": 0
                        }
                    ]
                ], 
                [
                    162108, 
                    [
                        {
                            "pitch": 56, 
                            "t0": 162108, 
                            "v": 18, 
                            "dur": 148, 
                            "type": "note", 
                            "channel": 0
                        }
                    ]
                ], 
                [
                    162388, 
                    [
                        {
                            "pitch": 58, 
                            "t0": 162388, 
                            "v": 16, 
                            "dur": 311, 
                            "type": "note", 
                            "channel": 0
                        }
                    ]
                ], 
                [
                    162718, 
                    [
                        {
                            "pitch": 56, 
                            "t0": 162718, 
                            "v": 14, 
                            "dur": 266, 
                            "type": "note", 
                            "channel": 0
                        }
                    ]
                ], 
                [
                    163086, 
                    [
                        {
                            "pitch": 73, 
                            "t0": 163086, 
                            "v": 41, 
                            "dur": 724, 
                            "type": "note", 
                            "channel": 0
                        }
                    ]
                ], 
                [
                    163114, 
                    [
                        {
                            "pitch": 61, 
                            "t0": 163114, 
                            "v": 17, 
                            "dur": 323, 
                            "type": "note", 
                            "channel": 0
                        }, 
                        {
                            "pitch": 65, 
                            "t0": 163114, 
                            "v": 18, 
                            "dur": 340, 
                            "type": "note", 
                            "channel": 0
                        }
                    ]
                ], 
                [
                    163410, 
                    [
                        {
                            "pitch": 56, 
                            "t0": 163410, 
                            "v": 23, 
                            "dur": 111, 
                            "type": "note", 
                            "channel": 0
                        }
                    ]
                ], 
                [
                    163674, 
                    [
                        {
                            "pitch": 75, 
                            "t0": 163674, 
                            "v": 61, 
                            "dur": 792, 
                            "type": "note", 
                            "channel": 0
                        }
                    ]
                ], 
                [
                    163697, 
                    [
                        {
                            "pitch": 66, 
                            "t0": 163697, 
                            "v": 12, 
                            "dur": 464, 
                            "type": "note", 
                            "channel": 0
                        }
                    ]
                ], 
                [
                    163705, 
                    [
                        {
                            "pitch": 60, 
                            "t0": 163705, 
                            "v": 24, 
                            "dur": 1317, 
                            "type": "note", 
                            "channel": 0
                        }
                    ]
                ], 
                [
                    164059, 
                    [
                        {
                            "pitch": 56, 
                            "t0": 164059, 
                            "v": 24, 
                            "dur": 726, 
                            "type": "note", 
                            "channel": 0
                        }
                    ]
                ], 
                [
                    164324, 
                    [
                        {
                            "pitch": 77, 
                            "t0": 164324, 
                            "v": 55, 
                            "dur": 309, 
                            "type": "note", 
                            "channel": 0
                        }
                    ]
                ], 
                [
                    164334, 
                    [
                        {
                            "pitch": 68, 
                            "t0": 164334, 
                            "v": 25, 
                            "dur": 97, 
                            "type": "note", 
                            "channel": 0
                        }
                    ]
                ], 
                [
                    164591, 
                    [
                        {
                            "pitch": 78, 
                            "t0": 164591, 
                            "v": 48, 
                            "dur": 1423, 
                            "type": "note", 
                            "channel": 0
                        }
                    ]
                ], 
                [
                    164601, 
                    [
                        {
                            "pitch": 70, 
                            "t0": 164601, 
                            "v": 28, 
                            "dur": 1288, 
                            "type": "note", 
                            "channel": 0
                        }
                    ]
                ], 
                [
                    164987, 
                    [
                        {
                            "pitch": 56, 
                            "t0": 164987, 
                            "v": 25, 
                            "dur": 124, 
                            "type": "note", 
                            "channel": 0
                        }
                    ]
                ], 
                [
                    165268, 
                    [
                        {
                            "pitch": 56, 
                            "t0": 165268, 
                            "v": 22, 
                            "dur": 89, 
                            "type": "note", 
                            "channel": 0
                        }
                    ]
                ], 
                [
                    165555, 
                    [
                        {
                            "pitch": 56, 
                            "t0": 165555, 
                            "v": 14, 
                            "dur": 440, 
                            "type": "note", 
                            "channel": 0
                        }
                    ]
                ], 
                [
                    165861, 
                    [
                        {
                            "pitch": 68, 
                            "t0": 165861, 
                            "v": 17, 
                            "dur": 345, 
                            "type": "note", 
                            "channel": 0
                        }, 
                        {
                            "pitch": 77, 
                            "t0": 165861, 
                            "v": 36, 
                            "dur": 513, 
                            "type": "note", 
                            "channel": 0
                        }
                    ]
                ], 
                [
                    165868, 
                    [
                        {
                            "pitch": 61, 
                            "t0": 165868, 
                            "v": 10, 
                            "dur": 316, 
                            "type": "note", 
                            "channel": 0
                        }
                    ]
                ], 
                [
                    166257, 
                    [
                        {
                            "pitch": 56, 
                            "t0": 166257, 
                            "v": 8, 
                            "dur": 117, 
                            "type": "note", 
                            "channel": 0
                        }
                    ]
                ], 
                [
                    166491, 
                    [
                        {
                            "pitch": 68, 
                            "t0": 166491, 
                            "v": 18, 
                            "dur": 390, 
                            "type": "note", 
                            "channel": 0
                        }
                    ]
                ], 
                [
                    166524, 
                    [
                        {
                            "pitch": 60, 
                            "t0": 166524, 
                            "v": 10, 
                            "dur": 817, 
                            "type": "note", 
                            "channel": 0
                        }
                    ]
                ], 
                [
                    166552, 
                    [
                        {
                            "pitch": 77, 
                            "t0": 166552, 
                            "v": 49, 
                            "dur": 877, 
                            "type": "note", 
                            "channel": 0
                        }
                    ]
                ], 
                [
                    166830, 
                    [
                        {
                            "pitch": 56, 
                            "t0": 166830, 
                            "v": 19, 
                            "dur": 143, 
                            "type": "note", 
                            "channel": 0
                        }
                    ]
                ], 
                [
                    167072, 
                    [
                        {
                            "pitch": 66, 
                            "t0": 167072, 
                            "v": 29, 
                            "dur": 310, 
                            "type": "note", 
                            "channel": 0
                        }
                    ]
                ], 
                [
                    167341, 
                    [
                        {
                            "pitch": 75, 
                            "t0": 167341, 
                            "v": 36, 
                            "dur": 550, 
                            "type": "note", 
                            "channel": 0
                        }
                    ]
                ], 
                [
                    167382, 
                    [
                        {
                            "pitch": 56, 
                            "t0": 167382, 
                            "v": 19, 
                            "dur": 131, 
                            "type": "note", 
                            "channel": 0
                        }
                    ]
                ], 
                [
                    167663, 
                    [
                        {
                            "pitch": 61, 
                            "t0": 167663, 
                            "v": 22, 
                            "dur": 423, 
                            "type": "note", 
                            "channel": 0
                        }
                    ]
                ], 
                [
                    167671, 
                    [
                        {
                            "pitch": 65, 
                            "t0": 167671, 
                            "v": 19, 
                            "dur": 382, 
                            "type": "note", 
                            "channel": 0
                        }
                    ]
                ], 
                [
                    167732, 
                    [
                        {
                            "pitch": 73, 
                            "t0": 167732, 
                            "v": 41, 
                            "dur": 492, 
                            "type": "note", 
                            "channel": 0
                        }
                    ]
                ], 
                [
                    168028, 
                    [
                        {
                            "pitch": 56, 
                            "t0": 168028, 
                            "v": 31, 
                            "dur": 170, 
                            "type": "note", 
                            "channel": 0
                        }
                    ]
                ], 
                [
                    168170, 
                    [
                        {
                            "pitch": 74, 
                            "t0": 168170, 
                            "v": 69, 
                            "dur": 240, 
                            "type": "note", 
                            "channel": 0
                        }
                    ]
                ], 
                [
                    168374, 
                    [
                        {
                            "pitch": 75, 
                            "t0": 168374, 
                            "v": 69, 
                            "dur": 186, 
                            "type": "note", 
                            "channel": 0
                        }
                    ]
                ], 
                [
                    168410, 
                    [
                        {
                            "pitch": 66, 
                            "t0": 168410, 
                            "v": 15, 
                            "dur": 991, 
                            "type": "note", 
                            "channel": 0
                        }
                    ]
                ], 
                [
                    168440, 
                    [
                        {
                            "pitch": 60, 
                            "t0": 168440, 
                            "v": 15, 
                            "dur": 965, 
                            "type": "note", 
                            "channel": 0
                        }
                    ]
                ], 
                [
                    168551, 
                    [
                        {
                            "pitch": 77, 
                            "t0": 168551, 
                            "v": 70, 
                            "dur": 121, 
                            "type": "note", 
                            "channel": 0
                        }
                    ]
                ], 
                [
                    168650, 
                    [
                        {
                            "pitch": 75, 
                            "t0": 168650, 
                            "v": 54, 
                            "dur": 113, 
                            "type": "note", 
                            "channel": 0
                        }
                    ]
                ], 
                [
                    168763, 
                    [
                        {
                            "pitch": 74, 
                            "t0": 168763, 
                            "v": 66, 
                            "dur": 82, 
                            "type": "note", 
                            "channel": 0
                        }
                    ]
                ], 
                [
                    168856, 
                    [
                        {
                            "pitch": 75, 
                            "t0": 168856, 
                            "v": 51, 
                            "dur": 105, 
                            "type": "note", 
                            "channel": 0
                        }
                    ]
                ], 
                [
                    168898, 
                    [
                        {
                            "pitch": 56, 
                            "t0": 168898, 
                            "v": 21, 
                            "dur": 559, 
                            "type": "note", 
                            "channel": 0
                        }
                    ]
                ], 
                [
                    168981, 
                    [
                        {
                            "pitch": 76, 
                            "t0": 168981, 
                            "v": 49, 
                            "dur": 131, 
                            "type": "note", 
                            "channel": 0
                        }
                    ]
                ], 
                [
                    169112, 
                    [
                        {
                            "pitch": 77, 
                            "t0": 169112, 
                            "v": 44, 
                            "dur": 159, 
                            "type": "note", 
                            "channel": 0
                        }
                    ]
                ], 
                [
                    169268, 
                    [
                        {
                            "pitch": 80, 
                            "t0": 169268, 
                            "v": 36, 
                            "dur": 208, 
                            "type": "note", 
                            "channel": 0
                        }
                    ]
                ], 
                [
                    169482, 
                    [
                        {
                            "pitch": 79, 
                            "t0": 169482, 
                            "v": 39, 
                            "dur": 95, 
                            "type": "note", 
                            "channel": 0
                        }
                    ]
                ], 
                [
                    169711, 
                    [
                        {
                            "pitch": 78, 
                            "t0": 169711, 
                            "v": 24, 
                            "dur": 66, 
                            "type": "note", 
                            "channel": 0
                        }
                    ]
                ], 
                [
                    170079, 
                    [
                        {
                            "pitch": 77, 
                            "t0": 170079, 
                            "v": 45, 
                            "dur": 769, 
                            "type": "note", 
                            "channel": 0
                        }
                    ]
                ], 
                [
                    170101, 
                    [
                        {
                            "pitch": 49, 
                            "t0": 170101, 
                            "v": 15, 
                            "dur": 465, 
                            "type": "note", 
                            "channel": 0
                        }
                    ]
                ], 
                [
                    170507, 
                    [
                        {
                            "pitch": 56, 
                            "t0": 170507, 
                            "v": 22, 
                            "dur": 309, 
                            "type": "note", 
                            "channel": 0
                        }
                    ]
                ], 
                [
                    170845, 
                    [
                        {
                            "pitch": 73, 
                            "t0": 170845, 
                            "v": 27, 
                            "dur": 119, 
                            "type": "note", 
                            "channel": 0
                        }
                    ]
                ], 
                [
                    171009, 
                    [
                        {
                            "pitch": 68, 
                            "t0": 171009, 
                            "v": 36, 
                            "dur": 1279, 
                            "type": "note", 
                            "channel": 0
                        }, 
                        {
                            "pitch": 65, 
                            "t0": 171009, 
                            "v": 16, 
                            "dur": 1456, 
                            "type": "note", 
                            "channel": 0
                        }, 
                        {
                            "pitch": 61, 
                            "t0": 171009, 
                            "v": 14, 
                            "dur": 1473, 
                            "type": "note", 
                            "channel": 0
                        }
                    ]
                ], 
                [
                    171401, 
                    [
                        {
                            "pitch": 56, 
                            "t0": 171401, 
                            "v": 13, 
                            "dur": 92, 
                            "type": "note", 
                            "channel": 0
                        }
                    ]
                ], 
                [
                    171711, 
                    [
                        {
                            "pitch": 56, 
                            "t0": 171711, 
                            "v": 20, 
                            "dur": 87, 
                            "type": "note", 
                            "channel": 0
                        }
                    ]
                ], 
                [
                    172011, 
                    [
                        {
                            "pitch": 56, 
                            "t0": 172011, 
                            "v": 18, 
                            "dur": 62, 
                            "type": "note", 
                            "channel": 0
                        }
                    ]
                ], 
                [
                    172268, 
                    [
                        {
                            "pitch": 70, 
                            "t0": 172268, 
                            "v": 27, 
                            "dur": 802, 
                            "type": "note", 
                            "channel": 0
                        }
                    ]
                ], 
                [
                    172288, 
                    [
                        {
                            "pitch": 56, 
                            "t0": 172288, 
                            "v": 24, 
                            "dur": 67, 
                            "type": "note", 
                            "channel": 0
                        }
                    ]
                ], 
                [
                    172605, 
                    [
                        {
                            "pitch": 56, 
                            "t0": 172605, 
                            "v": 17, 
                            "dur": 62, 
                            "type": "note", 
                            "channel": 0
                        }
                    ]
                ], 
                [
                    172968, 
                    [
                        {
                            "pitch": 66, 
                            "t0": 172968, 
                            "v": 14, 
                            "dur": 409, 
                            "type": "note", 
                            "channel": 0
                        }, 
                        {
                            "pitch": 72, 
                            "t0": 172968, 
                            "v": 33, 
                            "dur": 2099, 
                            "type": "note", 
                            "channel": 0
                        }
                    ]
                ], 
                [
                    172978, 
                    [
                        {
                            "pitch": 63, 
                            "t0": 172978, 
                            "v": 20, 
                            "dur": 373, 
                            "type": "note", 
                            "channel": 0
                        }
                    ]
                ], 
                [
                    173307, 
                    [
                        {
                            "pitch": 56, 
                            "t0": 173307, 
                            "v": 18, 
                            "dur": 97, 
                            "type": "note", 
                            "channel": 0
                        }
                    ]
                ], 
                [
                    173638, 
                    [
                        {
                            "pitch": 56, 
                            "t0": 173638, 
                            "v": 22, 
                            "dur": 129, 
                            "type": "note", 
                            "channel": 0
                        }
                    ]
                ], 
                [
                    173929, 
                    [
                        {
                            "pitch": 56, 
                            "t0": 173929, 
                            "v": 12, 
                            "dur": 139, 
                            "type": "note", 
                            "channel": 0
                        }
                    ]
                ], 
                [
                    174274, 
                    [
                        {
                            "pitch": 58, 
                            "t0": 174274, 
                            "v": 9, 
                            "dur": 576, 
                            "type": "note", 
                            "channel": 0
                        }
                    ]
                ], 
                [
                    174844, 
                    [
                        {
                            "pitch": 56, 
                            "t0": 174844, 
                            "v": 9, 
                            "dur": 1017, 
                            "type": "note", 
                            "channel": 0
                        }
                    ]
                ], 
                [
                    175764, 
                    [
                        {
                            "pitch": 82, 
                            "t0": 175764, 
                            "v": 67, 
                            "dur": 1886, 
                            "type": "note", 
                            "channel": 0
                        }
                    ]
                ], 
                [
                    177413, 
                    [
                        {
                            "pitch": 80, 
                            "t0": 177413, 
                            "v": 62, 
                            "dur": 824, 
                            "type": "note", 
                            "channel": 0
                        }
                    ]
                ], 
                [
                    178046, 
                    [
                        {
                            "pitch": 78, 
                            "t0": 178046, 
                            "v": 67, 
                            "dur": 666, 
                            "type": "note", 
                            "channel": 0
                        }
                    ]
                ], 
                [
                    178545, 
                    [
                        {
                            "pitch": 72, 
                            "t0": 178545, 
                            "v": 69, 
                            "dur": 556, 
                            "type": "note", 
                            "channel": 0
                        }
                    ]
                ], 
                [
                    178992, 
                    [
                        {
                            "pitch": 77, 
                            "t0": 178992, 
                            "v": 64, 
                            "dur": 610, 
                            "type": "note", 
                            "channel": 0
                        }
                    ]
                ], 
                [
                    179467, 
                    [
                        {
                            "pitch": 75, 
                            "t0": 179467, 
                            "v": 50, 
                            "dur": 490, 
                            "type": "note", 
                            "channel": 0
                        }
                    ]
                ], 
                [
                    179900, 
                    [
                        {
                            "pitch": 73, 
                            "t0": 179900, 
                            "v": 34, 
                            "dur": 591, 
                            "type": "note", 
                            "channel": 0
                        }
                    ]
                ], 
                [
                    180483, 
                    [
                        {
                            "pitch": 70, 
                            "t0": 180483, 
                            "v": 20, 
                            "dur": 324, 
                            "type": "note", 
                            "channel": 0
                        }
                    ]
                ], 
                [
                    181176, 
                    [
                        {
                            "pitch": 66, 
                            "t0": 181176, 
                            "v": 22, 
                            "dur": 2433, 
                            "type": "note", 
                            "channel": 0
                        }
                    ]
                ], 
                [
                    181187, 
                    [
                        {
                            "pitch": 58, 
                            "t0": 181187, 
                            "v": 7, 
                            "dur": 1221, 
                            "type": "note", 
                            "channel": 0
                        }, 
                        {
                            "pitch": 63, 
                            "t0": 181187, 
                            "v": 29, 
                            "dur": 2052, 
                            "type": "note", 
                            "channel": 0
                        }
                    ]
                ], 
                [
                    181204, 
                    [
                        {
                            "pitch": 44, 
                            "t0": 181204, 
                            "v": 22, 
                            "dur": 2012, 
                            "type": "note", 
                            "channel": 0
                        }
                    ]
                ], 
                [
                    181617, 
                    [
                        {
                            "pitch": 56, 
                            "t0": 181617, 
                            "v": 27, 
                            "dur": 81, 
                            "type": "note", 
                            "channel": 0
                        }
                    ]
                ], 
                [
                    181906, 
                    [
                        {
                            "pitch": 56, 
                            "t0": 181906, 
                            "v": 21, 
                            "dur": 67, 
                            "type": "note", 
                            "channel": 0
                        }
                    ]
                ], 
                [
                    182137, 
                    [
                        {
                            "pitch": 56, 
                            "t0": 182137, 
                            "v": 20, 
                            "dur": 60, 
                            "type": "note", 
                            "channel": 0
                        }
                    ]
                ], 
                [
                    182350, 
                    [
                        {
                            "pitch": 60, 
                            "t0": 182350, 
                            "v": 39, 
                            "dur": 1169, 
                            "type": "note", 
                            "channel": 0
                        }
                    ]
                ], 
                [
                    182361, 
                    [
                        {
                            "pitch": 56, 
                            "t0": 182361, 
                            "v": 17, 
                            "dur": 70, 
                            "type": "note", 
                            "channel": 0
                        }
                    ]
                ], 
                [
                    182595, 
                    [
                        {
                            "pitch": 56, 
                            "t0": 182595, 
                            "v": 18, 
                            "dur": 67, 
                            "type": "note", 
                            "channel": 0
                        }
                    ]
                ], 
                [
                    182851, 
                    [
                        {
                            "pitch": 56, 
                            "t0": 182851, 
                            "v": 22, 
                            "dur": 62, 
                            "type": "note", 
                            "channel": 0
                        }
                    ]
                ], 
                [
                    183112, 
                    [
                        {
                            "pitch": 56, 
                            "t0": 183112, 
                            "v": 20, 
                            "dur": 62, 
                            "type": "note", 
                            "channel": 0
                        }
                    ]
                ], 
                [
                    183428, 
                    [
                        {
                            "pitch": 61, 
                            "t0": 183428, 
                            "v": 34, 
                            "dur": 1284, 
                            "type": "note", 
                            "channel": 0
                        }
                    ]
                ], 
                [
                    183431, 
                    [
                        {
                            "pitch": 65, 
                            "t0": 183431, 
                            "v": 30, 
                            "dur": 2443, 
                            "type": "note", 
                            "channel": 0
                        }
                    ]
                ], 
                [
                    183463, 
                    [
                        {
                            "pitch": 49, 
                            "t0": 183463, 
                            "v": 19, 
                            "dur": 2332, 
                            "type": "note", 
                            "channel": 0
                        }
                    ]
                ], 
                [
                    183477, 
                    [
                        {
                            "pitch": 56, 
                            "t0": 183477, 
                            "v": 12, 
                            "dur": 170, 
                            "type": "note", 
                            "channel": 0
                        }
                    ]
                ], 
                [
                    183826, 
                    [
                        {
                            "pitch": 56, 
                            "t0": 183826, 
                            "v": 25, 
                            "dur": 86, 
                            "type": "note", 
                            "channel": 0
                        }
                    ]
                ], 
                [
                    184124, 
                    [
                        {
                            "pitch": 56, 
                            "t0": 184124, 
                            "v": 17, 
                            "dur": 83, 
                            "type": "note", 
                            "channel": 0
                        }
                    ]
                ], 
                [
                    184378, 
                    [
                        {
                            "pitch": 56, 
                            "t0": 184378, 
                            "v": 20, 
                            "dur": 78, 
                            "type": "note", 
                            "channel": 0
                        }
                    ]
                ], 
                [
                    184654, 
                    [
                        {
                            "pitch": 56, 
                            "t0": 184654, 
                            "v": 17, 
                            "dur": 102, 
                            "type": "note", 
                            "channel": 0
                        }
                    ]
                ], 
                [
                    184909, 
                    [
                        {
                            "pitch": 61, 
                            "t0": 184909, 
                            "v": 50, 
                            "dur": 290, 
                            "type": "note", 
                            "channel": 0
                        }
                    ]
                ], 
                [
                    184940, 
                    [
                        {
                            "pitch": 56, 
                            "t0": 184940, 
                            "v": 13, 
                            "dur": 75, 
                            "type": "note", 
                            "channel": 0
                        }
                    ]
                ], 
                [
                    185194, 
                    [
                        {
                            "pitch": 56, 
                            "t0": 185194, 
                            "v": 26, 
                            "dur": 86, 
                            "type": "note", 
                            "channel": 0
                        }
                    ]
                ], 
                [
                    185199, 
                    [
                        {
                            "pitch": 63, 
                            "t0": 185199, 
                            "v": 56, 
                            "dur": 432, 
                            "type": "note", 
                            "channel": 0
                        }
                    ]
                ], 
                [
                    185583, 
                    [
                        {
                            "pitch": 56, 
                            "t0": 185583, 
                            "v": 27, 
                            "dur": 70, 
                            "type": "note", 
                            "channel": 0
                        }
                    ]
                ], 
                [
                    185695, 
                    [
                        {
                            "pitch": 61, 
                            "t0": 185695, 
                            "v": 54, 
                            "dur": 40, 
                            "type": "note", 
                            "channel": 0
                        }
                    ]
                ], 
                [
                    185834, 
                    [
                        {
                            "pitch": 61, 
                            "t0": 185834, 
                            "v": 52, 
                            "dur": 647, 
                            "type": "note", 
                            "channel": 0
                        }, 
                        {
                            "pitch": 63, 
                            "t0": 185834, 
                            "v": 49, 
                            "dur": 2045, 
                            "type": "note", 
                            "channel": 0
                        }
                    ]
                ], 
                [
                    185846, 
                    [
                        {
                            "pitch": 66, 
                            "t0": 185846, 
                            "v": 37, 
                            "dur": 2011, 
                            "type": "note", 
                            "channel": 0
                        }
                    ]
                ], 
                [
                    185860, 
                    [
                        {
                            "pitch": 56, 
                            "t0": 185860, 
                            "v": 16, 
                            "dur": 119, 
                            "type": "note", 
                            "channel": 0
                        }, 
                        {
                            "pitch": 44, 
                            "t0": 185860, 
                            "v": 19, 
                            "dur": 1971, 
                            "type": "note", 
                            "channel": 0
                        }
                    ]
                ], 
                [
                    186127, 
                    [
                        {
                            "pitch": 56, 
                            "t0": 186127, 
                            "v": 27, 
                            "dur": 81, 
                            "type": "note", 
                            "channel": 0
                        }
                    ]
                ], 
                [
                    186377, 
                    [
                        {
                            "pitch": 60, 
                            "t0": 186377, 
                            "v": 66, 
                            "dur": 706, 
                            "type": "note", 
                            "channel": 0
                        }
                    ]
                ], 
                [
                    186389, 
                    [
                        {
                            "pitch": 56, 
                            "t0": 186389, 
                            "v": 28, 
                            "dur": 75, 
                            "type": "note", 
                            "channel": 0
                        }
                    ]
                ], 
                [
                    186632, 
                    [
                        {
                            "pitch": 56, 
                            "t0": 186632, 
                            "v": 26, 
                            "dur": 75, 
                            "type": "note", 
                            "channel": 0
                        }
                    ]
                ], 
                [
                    186980, 
                    [
                        {
                            "pitch": 70, 
                            "t0": 186980, 
                            "v": 45, 
                            "dur": 890, 
                            "type": "note", 
                            "channel": 0
                        }
                    ]
                ], 
                [
                    187004, 
                    [
                        {
                            "pitch": 56, 
                            "t0": 187004, 
                            "v": 26, 
                            "dur": 143, 
                            "type": "note", 
                            "channel": 0
                        }
                    ]
                ], 
                [
                    187336, 
                    [
                        {
                            "pitch": 56, 
                            "t0": 187336, 
                            "v": 29, 
                            "dur": 98, 
                            "type": "note", 
                            "channel": 0
                        }
                    ]
                ], 
                [
                    187629, 
                    [
                        {
                            "pitch": 60, 
                            "t0": 187629, 
                            "v": 59, 
                            "dur": 241, 
                            "type": "note", 
                            "channel": 0
                        }
                    ]
                ], 
                [
                    187640, 
                    [
                        {
                            "pitch": 56, 
                            "t0": 187640, 
                            "v": 26, 
                            "dur": 83, 
                            "type": "note", 
                            "channel": 0
                        }
                    ]
                ], 
                [
                    187893, 
                    [
                        {
                            "pitch": 56, 
                            "t0": 187893, 
                            "v": 26, 
                            "dur": 76, 
                            "type": "note", 
                            "channel": 0
                        }
                    ]
                ], 
                [
                    188222, 
                    [
                        {
                            "pitch": 66, 
                            "t0": 188222, 
                            "v": 49, 
                            "dur": 2499, 
                            "type": "note", 
                            "channel": 0
                        }
                    ]
                ], 
                [
                    188227, 
                    [
                        {
                            "pitch": 63, 
                            "t0": 188227, 
                            "v": 51, 
                            "dur": 2248, 
                            "type": "note", 
                            "channel": 0
                        }
                    ]
                ], 
                [
                    188230, 
                    [
                        {
                            "pitch": 56, 
                            "t0": 188230, 
                            "v": 38, 
                            "dur": 209, 
                            "type": "note", 
                            "channel": 0
                        }, 
                        {
                            "pitch": 60, 
                            "t0": 188230, 
                            "v": 56, 
                            "dur": 2209, 
                            "type": "note", 
                            "channel": 0
                        }
                    ]
                ], 
                [
                    188241, 
                    [
                        {
                            "pitch": 44, 
                            "t0": 188241, 
                            "v": 38, 
                            "dur": 2301, 
                            "type": "note", 
                            "channel": 0
                        }
                    ]
                ], 
                [
                    188656, 
                    [
                        {
                            "pitch": 56, 
                            "t0": 188656, 
                            "v": 23, 
                            "dur": 84, 
                            "type": "note", 
                            "channel": 0
                        }
                    ]
                ], 
                [
                    188980, 
                    [
                        {
                            "pitch": 56, 
                            "t0": 188980, 
                            "v": 19, 
                            "dur": 75, 
                            "type": "note", 
                            "channel": 0
                        }
                    ]
                ], 
                [
                    189263, 
                    [
                        {
                            "pitch": 56, 
                            "t0": 189263, 
                            "v": 17, 
                            "dur": 74, 
                            "type": "note", 
                            "channel": 0
                        }
                    ]
                ], 
                [
                    189529, 
                    [
                        {
                            "pitch": 56, 
                            "t0": 189529, 
                            "v": 16, 
                            "dur": 85, 
                            "type": "note", 
                            "channel": 0
                        }
                    ]
                ], 
                [
                    189795, 
                    [
                        {
                            "pitch": 56, 
                            "t0": 189795, 
                            "v": 17, 
                            "dur": 85, 
                            "type": "note", 
                            "channel": 0
                        }
                    ]
                ], 
                [
                    190074, 
                    [
                        {
                            "pitch": 56, 
                            "t0": 190074, 
                            "v": 16, 
                            "dur": 95, 
                            "type": "note", 
                            "channel": 0
                        }
                    ]
                ], 
                [
                    190358, 
                    [
                        {
                            "pitch": 56, 
                            "t0": 190358, 
                            "v": 14, 
                            "dur": 81, 
                            "type": "note", 
                            "channel": 0
                        }
                    ]
                ], 
                [
                    190709, 
                    [
                        {
                            "pitch": 56, 
                            "t0": 190709, 
                            "v": 12, 
                            "dur": 242, 
                            "type": "note", 
                            "channel": 0
                        }, 
                        {
                            "pitch": 61, 
                            "t0": 190709, 
                            "v": 27, 
                            "dur": 3117, 
                            "type": "note", 
                            "channel": 0
                        }
                    ]
                ], 
                [
                    190717, 
                    [
                        {
                            "pitch": 65, 
                            "t0": 190717, 
                            "v": 36, 
                            "dur": 3244, 
                            "type": "note", 
                            "channel": 0
                        }
                    ]
                ], 
                [
                    190726, 
                    [
                        {
                            "pitch": 49, 
                            "t0": 190726, 
                            "v": 16, 
                            "dur": 1538, 
                            "type": "note", 
                            "channel": 0
                        }
                    ]
                ], 
                [
                    191127, 
                    [
                        {
                            "pitch": 56, 
                            "t0": 191127, 
                            "v": 28, 
                            "dur": 92, 
                            "type": "note", 
                            "channel": 0
                        }
                    ]
                ], 
                [
                    191465, 
                    [
                        {
                            "pitch": 56, 
                            "t0": 191465, 
                            "v": 22, 
                            "dur": 92, 
                            "type": "note", 
                            "channel": 0
                        }
                    ]
                ], 
                [
                    191780, 
                    [
                        {
                            "pitch": 56, 
                            "t0": 191780, 
                            "v": 20, 
                            "dur": 110, 
                            "type": "note", 
                            "channel": 0
                        }
                    ]
                ], 
                [
                    192141, 
                    [
                        {
                            "pitch": 56, 
                            "t0": 192141, 
                            "v": 15, 
                            "dur": 115, 
                            "type": "note", 
                            "channel": 0
                        }
                    ]
                ], 
                [
                    192145, 
                    [
                        {
                            "pitch": 44, 
                            "t0": 192145, 
                            "v": 24, 
                            "dur": 2217, 
                            "type": "note", 
                            "channel": 0
                        }
                    ]
                ], 
                [
                    192507, 
                    [
                        {
                            "pitch": 56, 
                            "t0": 192507, 
                            "v": 15, 
                            "dur": 138, 
                            "type": "note", 
                            "channel": 0
                        }
                    ]
                ], 
                [
                    192944, 
                    [
                        {
                            "pitch": 56, 
                            "t0": 192944, 
                            "v": 14, 
                            "dur": 150, 
                            "type": "note", 
                            "channel": 0
                        }
                    ]
                ], 
                [
                    193510, 
                    [
                        {
                            "pitch": 56, 
                            "t0": 193510, 
                            "v": 5, 
                            "dur": 272, 
                            "type": "note", 
                            "channel": 0
                        }
                    ]
                ], 
                [
                    195010, 
                    [
                        {
                            "pitch": 61, 
                            "t0": 195010, 
                            "v": 15, 
                            "dur": 5669, 
                            "type": "note", 
                            "channel": 0
                        }
                    ]
                ], 
                [
                    195013, 
                    [
                        {
                            "pitch": 56, 
                            "t0": 195013, 
                            "v": 13, 
                            "dur": 5666, 
                            "type": "note", 
                            "channel": 0
                        }
                    ]
                ], 
                [
                    195017, 
                    [
                        {
                            "pitch": 65, 
                            "t0": 195017, 
                            "v": 19, 
                            "dur": 5662, 
                            "type": "note", 
                            "channel": 0
                        }, 
                        {
                            "pitch": 37, 
                            "t0": 195017, 
                            "v": 18, 
                            "dur": 5662, 
                            "type": "note", 
                            "channel": 0
                        }
                    ]
                ]
            ], 
            "instruments": [], 
            "tMax": 195017, 
            "channels": [
                0
            ], 
            "numNotes": 1521, 
            "type": "TrackObj"
        }
    ], 
    "type": "MidiObj"
}