{
    "format": 1, 
    "instruments": [
        42
    ], 
    "resolution": 480, 
    "channels": [
        0, 
        1, 
        2
    ], 
    "tracks": [
        {
            "trackName": "untitled", 
            "seq": [
                [
                    0, 
                    [
                        {
                            "bpm": 80.0, 
                            "type": "tempo", 
                            "mpqn": 750000, 
                            "t0": 0
                        }
                    ]
                ], 
                [
                    41040, 
                    [
                        {
                            "bpm": 20.0, 
                            "type": "tempo", 
                            "mpqn": 3000000, 
                            "t0": 41040
                        }
                    ]
                ], 
                [
                    41280, 
                    [
                        {
                            "bpm": 76.99997818333952, 
                            "type": "tempo", 
                            "mpqn": 779221, 
                            "t0": 41280
                        }
                    ]
                ]
            ], 
            "instruments": [], 
            "tMax": 41280, 
            "channels": [], 
            "numNotes": 0, 
            "type": "TrackObj"
        }, 
        {
            "trackName": "Solo Cello", 
            "seq": [
                [
                    0, 
                    [
                        {
                            "instrument": 42, 
                            "type": "programChange", 
                            "t0": 0, 
                            "channel": 0
                        }, 
                        {
                            "pitch": 43, 
                            "t0": 0, 
                            "v": 100, 
                            "dur": 120, 
                            "type": "note", 
                            "channel": 0
                        }
                    ]
                ], 
                [
                    120, 
                    [
                        {
                            "pitch": 50, 
                            "t0": 120, 
                            "v": 100, 
                            "dur": 120, 
                            "type": "note", 
                            "channel": 0
                        }
                    ]
                ], 
                [
                    240, 
                    [
                        {
                            "pitch": 59, 
                            "t0": 240, 
                            "v": 100, 
                            "dur": 120, 
                            "type": "note", 
                            "channel": 0
                        }
                    ]
                ], 
                [
                    360, 
                    [
                        {
                            "pitch": 57, 
                            "t0": 360, 
                            "v": 100, 
                            "dur": 120, 
                            "type": "note", 
                            "channel": 0
                        }
                    ]
                ], 
                [
                    480, 
                    [
                        {
                            "pitch": 59, 
                            "t0": 480, 
                            "v": 100, 
                            "dur": 120, 
                            "type": "note", 
                            "channel": 0
                        }
                    ]
                ], 
                [
                    600, 
                    [
                        {
                            "pitch": 50, 
                            "t0": 600, 
                            "v": 100, 
                            "dur": 120, 
                            "type": "note", 
                            "channel": 0
                        }
                    ]
                ], 
                [
                    720, 
                    [
                        {
                            "pitch": 59, 
                            "t0": 720, 
                            "v": 100, 
                            "dur": 120, 
                            "type": "note", 
                            "channel": 0
                        }
                    ]
                ], 
                [
                    840, 
                    [
                        {
                            "pitch": 50, 
                            "t0": 840, 
                            "v": 100, 
                            "dur": 120, 
                            "type": "note", 
                            "channel": 0
                        }
                    ]
                ], 
                [
                    960, 
                    [
                        {
                            "pitch": 43, 
                            "t0": 960, 
                            "v": 100, 
                            "dur": 120, 
                            "type": "note", 
                            "channel": 0
                        }
                    ]
                ], 
                [
                    1080, 
                    [
                        {
                            "pitch": 50, 
                            "t0": 1080, 
                            "v": 100, 
                            "dur": 120, 
                            "type": "note", 
                            "channel": 0
                        }
                    ]
                ], 
                [
                    1200, 
                    [
                        {
                            "pitch": 59, 
                            "t0": 1200, 
                            "v": 100, 
                            "dur": 120, 
                            "type": "note", 
                            "channel": 0
                        }
                    ]
                ], 
                [
                    1320, 
                    [
                        {
                            "pitch": 57, 
                            "t0": 1320, 
                            "v": 100, 
                            "dur": 120, 
                            "type": "note", 
                            "channel": 0
                        }
                    ]
                ], 
                [
                    1440, 
                    [
                        {
                            "pitch": 59, 
                            "t0": 1440, 
                            "v": 100, 
                            "dur": 120, 
                            "type": "note", 
                            "channel": 0
                        }
                    ]
                ], 
                [
                    1560, 
                    [
                        {
                            "pitch": 50, 
                            "t0": 1560, 
                            "v": 100, 
                            "dur": 120, 
                            "type": "note", 
                            "channel": 0
                        }
                    ]
                ], 
                [
                    1680, 
                    [
                        {
                            "pitch": 59, 
                            "t0": 1680, 
                            "v": 100, 
                            "dur": 120, 
                            "type": "note", 
                            "channel": 0
                        }
                    ]
                ], 
                [
                    1800, 
                    [
                        {
                            "pitch": 50, 
                            "t0": 1800, 
                            "v": 100, 
                            "dur": 120, 
                            "type": "note", 
                            "channel": 0
                        }
                    ]
                ], 
                [
                    1920, 
                    [
                        {
                            "pitch": 43, 
                            "t0": 1920, 
                            "v": 100, 
                            "dur": 120, 
                            "type": "note", 
                            "channel": 0
                        }
                    ]
                ], 
                [
                    2040, 
                    [
                        {
                            "pitch": 52, 
                            "t0": 2040, 
                            "v": 100, 
                            "dur": 120, 
                            "type": "note", 
                            "channel": 0
                        }
                    ]
                ], 
                [
                    2160, 
                    [
                        {
                            "pitch": 60, 
                            "t0": 2160, 
                            "v": 100, 
                            "dur": 120, 
                            "type": "note", 
                            "channel": 0
                        }
                    ]
                ], 
                [
                    2280, 
                    [
                        {
                            "pitch": 59, 
                            "t0": 2280, 
                            "v": 100, 
                            "dur": 120, 
                            "type": "note", 
                            "channel": 0
                        }
                    ]
                ], 
                [
                    2400, 
                    [
                        {
                            "pitch": 60, 
                            "t0": 2400, 
                            "v": 100, 
                            "dur": 120, 
                            "type": "note", 
                            "channel": 0
                        }
                    ]
                ], 
                [
                    2520, 
                    [
                        {
                            "pitch": 52, 
                            "t0": 2520, 
                            "v": 100, 
                            "dur": 120, 
                            "type": "note", 
                            "channel": 0
                        }
                    ]
                ], 
                [
                    2640, 
                    [
                        {
                            "pitch": 60, 
                            "t0": 2640, 
                            "v": 100, 
                            "dur": 120, 
                            "type": "note", 
                            "channel": 0
                        }
                    ]
                ], 
                [
                    2760, 
                    [
                        {
                            "pitch": 52, 
                            "t0": 2760, 
                            "v": 100, 
                            "dur": 120, 
                            "type": "note", 
                            "channel": 0
                        }
                    ]
                ], 
                [
                    2880, 
                    [
                        {
                            "pitch": 43, 
                            "t0": 2880, 
                            "v": 100, 
                            "dur": 120, 
                            "type": "note", 
                            "channel": 0
                        }
                    ]
                ], 
                [
                    3000, 
                    [
                        {
                            "pitch": 52, 
                            "t0": 3000, 
                            "v": 100, 
                            "dur": 120, 
                            "type": "note", 
                            "channel": 0
                        }
                    ]
                ], 
                [
                    3120, 
                    [
                        {
                            "pitch": 60, 
                            "t0": 3120, 
                            "v": 100, 
                            "dur": 120, 
                            "type": "note", 
                            "channel": 0
                        }
                    ]
                ], 
                [
                    3240, 
                    [
                        {
                            "pitch": 59, 
                            "t0": 3240, 
                            "v": 100, 
                            "dur": 120, 
                            "type": "note", 
                            "channel": 0
                        }
                    ]
                ], 
                [
                    3360, 
                    [
                        {
                            "pitch": 60, 
                            "t0": 3360, 
                            "v": 100, 
                            "dur": 120, 
                            "type": "note", 
                            "channel": 0
                        }
                    ]
                ], 
                [
                    3480, 
                    [
                        {
                            "pitch": 52, 
                            "t0": 3480, 
                            "v": 100, 
                            "dur": 120, 
                            "type": "note", 
                            "channel": 0
                        }
                    ]
                ], 
                [
                    3600, 
                    [
                        {
                            "pitch": 60, 
                            "t0": 3600, 
                            "v": 100, 
                            "dur": 120, 
                            "type": "note", 
                            "channel": 0
                        }
                    ]
                ], 
                [
                    3720, 
                    [
                        {
                            "pitch": 52, 
                            "t0": 3720, 
                            "v": 100, 
                            "dur": 120, 
                            "type": "note", 
                            "channel": 0
                        }
                    ]
                ], 
                [
                    3840, 
                    [
                        {
                            "pitch": 43, 
                            "t0": 3840, 
                            "v": 100, 
                            "dur": 120, 
                            "type": "note", 
                            "channel": 0
                        }
                    ]
                ], 
                [
                    3960, 
                    [
                        {
                            "pitch": 54, 
                            "t0": 3960, 
                            "v": 100, 
                            "dur": 120, 
                            "type": "note", 
                            "channel": 0
                        }
                    ]
                ], 
                [
                    4080, 
                    [
                        {
                            "pitch": 60, 
                            "t0": 4080, 
                            "v": 100, 
                            "dur": 120, 
                            "type": "note", 
                            "channel": 0
                        }
                    ]
                ], 
                [
                    4200, 
                    [
                        {
                            "pitch": 59, 
                            "t0": 4200, 
                            "v": 100, 
                            "dur": 120, 
                            "type": "note", 
                            "channel": 0
                        }
                    ]
                ], 
                [
                    4320, 
                    [
                        {
                            "pitch": 60, 
                            "t0": 4320, 
                            "v": 100, 
                            "dur": 120, 
                            "type": "note", 
                            "channel": 0
                        }
                    ]
                ], 
                [
                    4440, 
                    [
                        {
                            "pitch": 54, 
                            "t0": 4440, 
                            "v": 100, 
                            "dur": 120, 
                            "type": "note", 
                            "channel": 0
                        }
                    ]
                ], 
                [
                    4560, 
                    [
                        {
                            "pitch": 60, 
                            "t0": 4560, 
                            "v": 100, 
                            "dur": 120, 
                            "type": "note", 
                            "channel": 0
                        }
                    ]
                ], 
                [
                    4680, 
                    [
                        {
                            "pitch": 54, 
                            "t0": 4680, 
                            "v": 100, 
                            "dur": 120, 
                            "type": "note", 
                            "channel": 0
                        }
                    ]
                ], 
                [
                    4800, 
                    [
                        {
                            "pitch": 43, 
                            "t0": 4800, 
                            "v": 100, 
                            "dur": 120, 
                            "type": "note", 
                            "channel": 0
                        }
                    ]
                ], 
                [
                    4920, 
                    [
                        {
                            "pitch": 54, 
                            "t0": 4920, 
                            "v": 100, 
                            "dur": 120, 
                            "type": "note", 
                            "channel": 0
                        }
                    ]
                ], 
                [
                    5040, 
                    [
                        {
                            "pitch": 60, 
                            "t0": 5040, 
                            "v": 100, 
                            "dur": 120, 
                            "type": "note", 
                            "channel": 0
                        }
                    ]
                ], 
                [
                    5160, 
                    [
                        {
                            "pitch": 59, 
                            "t0": 5160, 
                            "v": 100, 
                            "dur": 120, 
                            "type": "note", 
                            "channel": 0
                        }
                    ]
                ], 
                [
                    5280, 
                    [
                        {
                            "pitch": 60, 
                            "t0": 5280, 
                            "v": 100, 
                            "dur": 120, 
                            "type": "note", 
                            "channel": 0
                        }
                    ]
                ], 
                [
                    5400, 
                    [
                        {
                            "pitch": 54, 
                            "t0": 5400, 
                            "v": 100, 
                            "dur": 120, 
                            "type": "note", 
                            "channel": 0
                        }
                    ]
                ], 
                [
                    5520, 
                    [
                        {
                            "pitch": 60, 
                            "t0": 5520, 
                            "v": 100, 
                            "dur": 120, 
                            "type": "note", 
                            "channel": 0
                        }
                    ]
                ], 
                [
                    5640, 
                    [
                        {
                            "pitch": 54, 
                            "t0": 5640, 
                            "v": 100, 
                            "dur": 120, 
                            "type": "note", 
                            "channel": 0
                        }
                    ]
                ], 
                [
                    5760, 
                    [
                        {
                            "pitch": 43, 
                            "t0": 5760, 
                            "v": 100, 
                            "dur": 120, 
                            "type": "note", 
                            "channel": 0
                        }
                    ]
                ], 
                [
                    5880, 
                    [
                        {
                            "pitch": 55, 
                            "t0": 5880, 
                            "v": 100, 
                            "dur": 120, 
                            "type": "note", 
                            "channel": 0
                        }
                    ]
                ], 
                [
                    6000, 
                    [
                        {
                            "pitch": 59, 
                            "t0": 6000, 
                            "v": 100, 
                            "dur": 120, 
                            "type": "note", 
                            "channel": 0
                        }
                    ]
                ], 
                [
                    6120, 
                    [
                        {
                            "pitch": 57, 
                            "t0": 6120, 
                            "v": 100, 
                            "dur": 120, 
                            "type": "note", 
                            "channel": 0
                        }
                    ]
                ], 
                [
                    6240, 
                    [
                        {
                            "pitch": 59, 
                            "t0": 6240, 
                            "v": 100, 
                            "dur": 120, 
                            "type": "note", 
                            "channel": 0
                        }
                    ]
                ], 
                [
                    6360, 
                    [
                        {
                            "pitch": 55, 
                            "t0": 6360, 
                            "v": 100, 
                            "dur": 120, 
                            "type": "note", 
                            "channel": 0
                        }
                    ]
                ], 
                [
                    6480, 
                    [
                        {
                            "pitch": 59, 
                            "t0": 6480, 
                            "v": 100, 
                            "dur": 120, 
                            "type": "note", 
                            "channel": 0
                        }
                    ]
                ], 
                [
                    6600, 
                    [
                        {
                            "pitch": 55, 
                            "t0": 6600, 
                            "v": 100, 
                            "dur": 120, 
                            "type": "note", 
                            "channel": 0
                        }
                    ]
                ], 
                [
                    6720, 
                    [
                        {
                            "pitch": 43, 
                            "t0": 6720, 
                            "v": 100, 
                            "dur": 120, 
                            "type": "note", 
                            "channel": 0
                        }
                    ]
                ], 
                [
                    6840, 
                    [
                        {
                            "pitch": 55, 
                            "t0": 6840, 
                            "v": 100, 
                            "dur": 120, 
                            "type": "note", 
                            "channel": 0
                        }
                    ]
                ], 
                [
                    6960, 
                    [
                        {
                            "pitch": 59, 
                            "t0": 6960, 
                            "v": 100, 
                            "dur": 120, 
                            "type": "note", 
                            "channel": 0
                        }
                    ]
                ], 
                [
                    7080, 
                    [
                        {
                            "pitch": 57, 
                            "t0": 7080, 
                            "v": 100, 
                            "dur": 120, 
                            "type": "note", 
                            "channel": 0
                        }
                    ]
                ], 
                [
                    7200, 
                    [
                        {
                            "pitch": 59, 
                            "t0": 7200, 
                            "v": 100, 
                            "dur": 120, 
                            "type": "note", 
                            "channel": 0
                        }
                    ]
                ], 
                [
                    7320, 
                    [
                        {
                            "pitch": 55, 
                            "t0": 7320, 
                            "v": 100, 
                            "dur": 120, 
                            "type": "note", 
                            "channel": 0
                        }
                    ]
                ], 
                [
                    7440, 
                    [
                        {
                            "pitch": 59, 
                            "t0": 7440, 
                            "v": 100, 
                            "dur": 120, 
                            "type": "note", 
                            "channel": 0
                        }
                    ]
                ], 
                [
                    7560, 
                    [
                        {
                            "pitch": 54, 
                            "t0": 7560, 
                            "v": 100, 
                            "dur": 120, 
                            "type": "note", 
                            "channel": 0
                        }
                    ]
                ], 
                [
                    7680, 
                    [
                        {
                            "pitch": 43, 
                            "t0": 7680, 
                            "v": 100, 
                            "dur": 120, 
                            "type": "note", 
                            "channel": 0
                        }
                    ]
                ], 
                [
                    7800, 
                    [
                        {
                            "pitch": 52, 
                            "t0": 7800, 
                            "v": 100, 
                            "dur": 120, 
                            "type": "note", 
                            "channel": 0
                        }
                    ]
                ], 
                [
                    7920, 
                    [
                        {
                            "pitch": 59, 
                            "t0": 7920, 
                            "v": 100, 
                            "dur": 120, 
                            "type": "note", 
                            "channel": 0
                        }
                    ]
                ], 
                [
                    8040, 
                    [
                        {
                            "pitch": 57, 
                            "t0": 8040, 
                            "v": 100, 
                            "dur": 120, 
                            "type": "note", 
                            "channel": 0
                        }
                    ]
                ], 
                [
                    8160, 
                    [
                        {
                            "pitch": 59, 
                            "t0": 8160, 
                            "v": 100, 
                            "dur": 120, 
                            "type": "note", 
                            "channel": 0
                        }
                    ]
                ], 
                [
                    8280, 
                    [
                        {
                            "pitch": 55, 
                            "t0": 8280, 
                            "v": 100, 
                            "dur": 120, 
                            "type": "note", 
                            "channel": 0
                        }
                    ]
                ], 
                [
                    8400, 
                    [
                        {
                            "pitch": 54, 
                            "t0": 8400, 
                            "v": 100, 
                            "dur": 120, 
                            "type": "note", 
                            "channel": 0
                        }
                    ]
                ], 
                [
                    8520, 
                    [
                        {
                            "pitch": 55, 
                            "t0": 8520, 
                            "v": 100, 
                            "dur": 120, 
                            "type": "note", 
                            "channel": 0
                        }
                    ]
                ], 
                [
                    8640, 
                    [
                        {
                            "pitch": 52, 
                            "t0": 8640, 
                            "v": 100, 
                            "dur": 120, 
                            "type": "note", 
                            "channel": 0
                        }
                    ]
                ], 
                [
                    8760, 
                    [
                        {
                            "pitch": 55, 
                            "t0": 8760, 
                            "v": 100, 
                            "dur": 120, 
                            "type": "note", 
                            "channel": 0
                        }
                    ]
                ], 
                [
                    8880, 
                    [
                        {
                            "pitch": 54, 
                            "t0": 8880, 
                            "v": 100, 
                            "dur": 120, 
                            "type": "note", 
                            "channel": 0
                        }
                    ]
                ], 
                [
                    9000, 
                    [
                        {
                            "pitch": 55, 
                            "t0": 9000, 
                            "v": 100, 
                            "dur": 120, 
                            "type": "note", 
                            "channel": 0
                        }
                    ]
                ], 
                [
                    9120, 
                    [
                        {
                            "pitch": 47, 
                            "t0": 9120, 
                            "v": 100, 
                            "dur": 120, 
                            "type": "note", 
                            "channel": 0
                        }
                    ]
                ], 
                [
                    9240, 
                    [
                        {
                            "pitch": 50, 
                            "t0": 9240, 
                            "v": 100, 
                            "dur": 120, 
                            "type": "note", 
                            "channel": 0
                        }
                    ]
                ], 
                [
                    9360, 
                    [
                        {
                            "pitch": 49, 
                            "t0": 9360, 
                            "v": 100, 
                            "dur": 120, 
                            "type": "note", 
                            "channel": 0
                        }
                    ]
                ], 
                [
                    9480, 
                    [
                        {
                            "pitch": 47, 
                            "t0": 9480, 
                            "v": 100, 
                            "dur": 120, 
                            "type": "note", 
                            "channel": 0
                        }
                    ]
                ], 
                [
                    9600, 
                    [
                        {
                            "pitch": 49, 
                            "t0": 9600, 
                            "v": 100, 
                            "dur": 120, 
                            "type": "note", 
                            "channel": 0
                        }
                    ]
                ], 
                [
                    9720, 
                    [
                        {
                            "pitch": 55, 
                            "t0": 9720, 
                            "v": 100, 
                            "dur": 120, 
                            "type": "note", 
                            "channel": 0
                        }
                    ]
                ], 
                [
                    9840, 
                    [
                        {
                            "pitch": 57, 
                            "t0": 9840, 
                            "v": 100, 
                            "dur": 120, 
                            "type": "note", 
                            "channel": 0
                        }
                    ]
                ], 
                [
                    9960, 
                    [
                        {
                            "pitch": 55, 
                            "t0": 9960, 
                            "v": 100, 
                            "dur": 120, 
                            "type": "note", 
                            "channel": 0
                        }
                    ]
                ], 
                [
                    10080, 
                    [
                        {
                            "pitch": 57, 
                            "t0": 10080, 
                            "v": 100, 
                            "dur": 120, 
                            "type": "note", 
                            "channel": 0
                        }
                    ]
                ], 
                [
                    10200, 
                    [
                        {
                            "pitch": 55, 
                            "t0": 10200, 
                            "v": 100, 
                            "dur": 120, 
                            "type": "note", 
                            "channel": 0
                        }
                    ]
                ], 
                [
                    10320, 
                    [
                        {
                            "pitch": 57, 
                            "t0": 10320, 
                            "v": 100, 
                            "dur": 120, 
                            "type": "note", 
                            "channel": 0
                        }
                    ]
                ], 
                [
                    10440, 
                    [
                        {
                            "pitch": 55, 
                            "t0": 10440, 
                            "v": 100, 
                            "dur": 120, 
                            "type": "note", 
                            "channel": 0
                        }
                    ]
                ], 
                [
                    10560, 
                    [
                        {
                            "pitch": 49, 
                            "t0": 10560, 
                            "v": 100, 
                            "dur": 120, 
                            "type": "note", 
                            "channel": 0
                        }
                    ]
                ], 
                [
                    10680, 
                    [
                        {
                            "pitch": 55, 
                            "t0": 10680, 
                            "v": 100, 
                            "dur": 120, 
                            "type": "note", 
                            "channel": 0
                        }
                    ]
                ], 
                [
                    10800, 
                    [
                        {
                            "pitch": 57, 
                            "t0": 10800, 
                            "v": 100, 
                            "dur": 120, 
                            "type": "note", 
                            "channel": 0
                        }
                    ]
                ], 
                [
                    10920, 
                    [
                        {
                            "pitch": 55, 
                            "t0": 10920, 
                            "v": 100, 
                            "dur": 120, 
                            "type": "note", 
                            "channel": 0
                        }
                    ]
                ], 
                [
                    11040, 
                    [
                        {
                            "pitch": 57, 
                            "t0": 11040, 
                            "v": 100, 
                            "dur": 120, 
                            "type": "note", 
                            "channel": 0
                        }
                    ]
                ], 
                [
                    11160, 
                    [
                        {
                            "pitch": 55, 
                            "t0": 11160, 
                            "v": 100, 
                            "dur": 120, 
                            "type": "note", 
                            "channel": 0
                        }
                    ]
                ], 
                [
                    11280, 
                    [
                        {
                            "pitch": 57, 
                            "t0": 11280, 
                            "v": 100, 
                            "dur": 120, 
                            "type": "note", 
                            "channel": 0
                        }
                    ]
                ], 
                [
                    11400, 
                    [
                        {
                            "pitch": 55, 
                            "t0": 11400, 
                            "v": 100, 
                            "dur": 120, 
                            "type": "note", 
                            "channel": 0
                        }
                    ]
                ], 
                [
                    11520, 
                    [
                        {
                            "pitch": 54, 
                            "t0": 11520, 
                            "v": 100, 
                            "dur": 120, 
                            "type": "note", 
                            "channel": 0
                        }
                    ]
                ], 
                [
                    11640, 
                    [
                        {
                            "pitch": 57, 
                            "t0": 11640, 
                            "v": 100, 
                            "dur": 120, 
                            "type": "note", 
                            "channel": 0
                        }
                    ]
                ], 
                [
                    11760, 
                    [
                        {
                            "pitch": 62, 
                            "t0": 11760, 
                            "v": 100, 
                            "dur": 120, 
                            "type": "note", 
                            "channel": 0
                        }
                    ]
                ], 
                [
                    11880, 
                    [
                        {
                            "pitch": 61, 
                            "t0": 11880, 
                            "v": 100, 
                            "dur": 120, 
                            "type": "note", 
                            "channel": 0
                        }
                    ]
                ], 
                [
                    12000, 
                    [
                        {
                            "pitch": 62, 
                            "t0": 12000, 
                            "v": 100, 
                            "dur": 120, 
                            "type": "note", 
                            "channel": 0
                        }
                    ]
                ], 
                [
                    12120, 
                    [
                        {
                            "pitch": 57, 
                            "t0": 12120, 
                            "v": 100, 
                            "dur": 120, 
                            "type": "note", 
                            "channel": 0
                        }
                    ]
                ], 
                [
                    12240, 
                    [
                        {
                            "pitch": 55, 
                            "t0": 12240, 
                            "v": 100, 
                            "dur": 120, 
                            "type": "note", 
                            "channel": 0
                        }
                    ]
                ], 
                [
                    12360, 
                    [
                        {
                            "pitch": 57, 
                            "t0": 12360, 
                            "v": 100, 
                            "dur": 120, 
                            "type": "note", 
                            "channel": 0
                        }
                    ]
                ], 
                [
                    12480, 
                    [
                        {
                            "pitch": 54, 
                            "t0": 12480, 
                            "v": 100, 
                            "dur": 120, 
                            "type": "note", 
                            "channel": 0
                        }
                    ]
                ], 
                [
                    12600, 
                    [
                        {
                            "pitch": 57, 
                            "t0": 12600, 
                            "v": 100, 
                            "dur": 120, 
                            "type": "note", 
                            "channel": 0
                        }
                    ]
                ], 
                [
                    12720, 
                    [
                        {
                            "pitch": 55, 
                            "t0": 12720, 
                            "v": 100, 
                            "dur": 120, 
                            "type": "note", 
                            "channel": 0
                        }
                    ]
                ], 
                [
                    12840, 
                    [
                        {
                            "pitch": 57, 
                            "t0": 12840, 
                            "v": 100, 
                            "dur": 120, 
                            "type": "note", 
                            "channel": 0
                        }
                    ]
                ], 
                [
                    12960, 
                    [
                        {
                            "pitch": 50, 
                            "t0": 12960, 
                            "v": 100, 
                            "dur": 120, 
                            "type": "note", 
                            "channel": 0
                        }
                    ]
                ], 
                [
                    13080, 
                    [
                        {
                            "pitch": 54, 
                            "t0": 13080, 
                            "v": 100, 
                            "dur": 120, 
                            "type": "note", 
                            "channel": 0
                        }
                    ]
                ], 
                [
                    13200, 
                    [
                        {
                            "pitch": 52, 
                            "t0": 13200, 
                            "v": 100, 
                            "dur": 120, 
                            "type": "note", 
                            "channel": 0
                        }
                    ]
                ], 
                [
                    13320, 
                    [
                        {
                            "pitch": 50, 
                            "t0": 13320, 
                            "v": 100, 
                            "dur": 120, 
                            "type": "note", 
                            "channel": 0
                        }
                    ]
                ], 
                [
                    13440, 
                    [
                        {
                            "pitch": 40, 
                            "t0": 13440, 
                            "v": 100, 
                            "dur": 120, 
                            "type": "note", 
                            "channel": 0
                        }
                    ]
                ], 
                [
                    13560, 
                    [
                        {
                            "pitch": 47, 
                            "t0": 13560, 
                            "v": 100, 
                            "dur": 120, 
                            "type": "note", 
                            "channel": 0
                        }
                    ]
                ], 
                [
                    13680, 
                    [
                        {
                            "pitch": 55, 
                            "t0": 13680, 
                            "v": 100, 
                            "dur": 120, 
                            "type": "note", 
                            "channel": 0
                        }
                    ]
                ], 
                [
                    13800, 
                    [
                        {
                            "pitch": 54, 
                            "t0": 13800, 
                            "v": 100, 
                            "dur": 120, 
                            "type": "note", 
                            "channel": 0
                        }
                    ]
                ], 
                [
                    13920, 
                    [
                        {
                            "pitch": 55, 
                            "t0": 13920, 
                            "v": 100, 
                            "dur": 120, 
                            "type": "note", 
                            "channel": 0
                        }
                    ]
                ], 
                [
                    14040, 
                    [
                        {
                            "pitch": 47, 
                            "t0": 14040, 
                            "v": 100, 
                            "dur": 120, 
                            "type": "note", 
                            "channel": 0
                        }
                    ]
                ], 
                [
                    14160, 
                    [
                        {
                            "pitch": 55, 
                            "t0": 14160, 
                            "v": 100, 
                            "dur": 120, 
                            "type": "note", 
                            "channel": 0
                        }
                    ]
                ], 
                [
                    14280, 
                    [
                        {
                            "pitch": 47, 
                            "t0": 14280, 
                            "v": 100, 
                            "dur": 120, 
                            "type": "note", 
                            "channel": 0
                        }
                    ]
                ], 
                [
                    14400, 
                    [
                        {
                            "pitch": 40, 
                            "t0": 14400, 
                            "v": 100, 
                            "dur": 120, 
                            "type": "note", 
                            "channel": 0
                        }
                    ]
                ], 
                [
                    14520, 
                    [
                        {
                            "pitch": 47, 
                            "t0": 14520, 
                            "v": 100, 
                            "dur": 120, 
                            "type": "note", 
                            "channel": 0
                        }
                    ]
                ], 
                [
                    14640, 
                    [
                        {
                            "pitch": 55, 
                            "t0": 14640, 
                            "v": 100, 
                            "dur": 120, 
                            "type": "note", 
                            "channel": 0
                        }
                    ]
                ], 
                [
                    14760, 
                    [
                        {
                            "pitch": 54, 
                            "t0": 14760, 
                            "v": 100, 
                            "dur": 120, 
                            "type": "note", 
                            "channel": 0
                        }
                    ]
                ], 
                [
                    14880, 
                    [
                        {
                            "pitch": 55, 
                            "t0": 14880, 
                            "v": 100, 
                            "dur": 120, 
                            "type": "note", 
                            "channel": 0
                        }
                    ]
                ], 
                [
                    15000, 
                    [
                        {
                            "pitch": 47, 
                            "t0": 15000, 
                            "v": 100, 
                            "dur": 120, 
                            "type": "note", 
                            "channel": 0
                        }
                    ]
                ], 
                [
                    15120, 
                    [
                        {
                            "pitch": 55, 
                            "t0": 15120, 
                            "v": 100, 
                            "dur": 120, 
                            "type": "note", 
                            "channel": 0
                        }
                    ]
                ], 
                [
                    15240, 
                    [
                        {
                            "pitch": 47, 
                            "t0": 15240, 
                            "v": 100, 
                            "dur": 120, 
                            "type": "note", 
                            "channel": 0
                        }
                    ]
                ], 
                [
                    15360, 
                    [
                        {
                            "pitch": 40, 
                            "t0": 15360, 
                            "v": 100, 
                            "dur": 120, 
                            "type": "note", 
                            "channel": 0
                        }
                    ]
                ], 
                [
                    15480, 
                    [
                        {
                            "pitch": 49, 
                            "t0": 15480, 
                            "v": 100, 
                            "dur": 120, 
                            "type": "note", 
                            "channel": 0
                        }
                    ]
                ], 
                [
                    15600, 
                    [
                        {
                            "pitch": 50, 
                            "t0": 15600, 
                            "v": 100, 
                            "dur": 120, 
                            "type": "note", 
                            "channel": 0
                        }
                    ]
                ], 
                [
                    15720, 
                    [
                        {
                            "pitch": 52, 
                            "t0": 15720, 
                            "v": 100, 
                            "dur": 120, 
                            "type": "note", 
                            "channel": 0
                        }
                    ]
                ], 
                [
                    15840, 
                    [
                        {
                            "pitch": 50, 
                            "t0": 15840, 
                            "v": 100, 
                            "dur": 120, 
                            "type": "note", 
                            "channel": 0
                        }
                    ]
                ], 
                [
                    15960, 
                    [
                        {
                            "pitch": 49, 
                            "t0": 15960, 
                            "v": 100, 
                            "dur": 120, 
                            "type": "note", 
                            "channel": 0
                        }
                    ]
                ], 
                [
                    16080, 
                    [
                        {
                            "pitch": 47, 
                            "t0": 16080, 
                            "v": 100, 
                            "dur": 120, 
                            "type": "note", 
                            "channel": 0
                        }
                    ]
                ], 
                [
                    16200, 
                    [
                        {
                            "pitch": 45, 
                            "t0": 16200, 
                            "v": 100, 
                            "dur": 120, 
                            "type": "note", 
                            "channel": 0
                        }
                    ]
                ], 
                [
                    16320, 
                    [
                        {
                            "pitch": 55, 
                            "t0": 16320, 
                            "v": 100, 
                            "dur": 120, 
                            "type": "note", 
                            "channel": 0
                        }
                    ]
                ], 
                [
                    16440, 
                    [
                        {
                            "pitch": 54, 
                            "t0": 16440, 
                            "v": 100, 
                            "dur": 120, 
                            "type": "note", 
                            "channel": 0
                        }
                    ]
                ], 
                [
                    16560, 
                    [
                        {
                            "pitch": 52, 
                            "t0": 16560, 
                            "v": 100, 
                            "dur": 120, 
                            "type": "note", 
                            "channel": 0
                        }
                    ]
                ], 
                [
                    16680, 
                    [
                        {
                            "pitch": 62, 
                            "t0": 16680, 
                            "v": 100, 
                            "dur": 120, 
                            "type": "note", 
                            "channel": 0
                        }
                    ]
                ], 
                [
                    16800, 
                    [
                        {
                            "pitch": 61, 
                            "t0": 16800, 
                            "v": 100, 
                            "dur": 120, 
                            "type": "note", 
                            "channel": 0
                        }
                    ]
                ], 
                [
                    16920, 
                    [
                        {
                            "pitch": 59, 
                            "t0": 16920, 
                            "v": 100, 
                            "dur": 120, 
                            "type": "note", 
                            "channel": 0
                        }
                    ]
                ], 
                [
                    17040, 
                    [
                        {
                            "pitch": 57, 
                            "t0": 17040, 
                            "v": 100, 
                            "dur": 120, 
                            "type": "note", 
                            "channel": 0
                        }
                    ]
                ], 
                [
                    17160, 
                    [
                        {
                            "pitch": 55, 
                            "t0": 17160, 
                            "v": 100, 
                            "dur": 120, 
                            "type": "note", 
                            "channel": 0
                        }
                    ]
                ], 
                [
                    17280, 
                    [
                        {
                            "pitch": 54, 
                            "t0": 17280, 
                            "v": 100, 
                            "dur": 120, 
                            "type": "note", 
                            "channel": 0
                        }
                    ]
                ], 
                [
                    17400, 
                    [
                        {
                            "pitch": 52, 
                            "t0": 17400, 
                            "v": 100, 
                            "dur": 120, 
                            "type": "note", 
                            "channel": 0
                        }
                    ]
                ], 
                [
                    17520, 
                    [
                        {
                            "pitch": 50, 
                            "t0": 17520, 
                            "v": 100, 
                            "dur": 120, 
                            "type": "note", 
                            "channel": 0
                        }
                    ]
                ], 
                [
                    17640, 
                    [
                        {
                            "pitch": 62, 
                            "t0": 17640, 
                            "v": 100, 
                            "dur": 120, 
                            "type": "note", 
                            "channel": 0
                        }
                    ]
                ], 
                [
                    17760, 
                    [
                        {
                            "pitch": 57, 
                            "t0": 17760, 
                            "v": 100, 
                            "dur": 120, 
                            "type": "note", 
                            "channel": 0
                        }
                    ]
                ], 
                [
                    17880, 
                    [
                        {
                            "pitch": 62, 
                            "t0": 17880, 
                            "v": 100, 
                            "dur": 120, 
                            "type": "note", 
                            "channel": 0
                        }
                    ]
                ], 
                [
                    18000, 
                    [
                        {
                            "pitch": 54, 
                            "t0": 18000, 
                            "v": 100, 
                            "dur": 120, 
                            "type": "note", 
                            "channel": 0
                        }
                    ]
                ], 
                [
                    18120, 
                    [
                        {
                            "pitch": 57, 
                            "t0": 18120, 
                            "v": 100, 
                            "dur": 120, 
                            "type": "note", 
                            "channel": 0
                        }
                    ]
                ], 
                [
                    18240, 
                    [
                        {
                            "pitch": 50, 
                            "t0": 18240, 
                            "v": 100, 
                            "dur": 120, 
                            "type": "note", 
                            "channel": 0
                        }
                    ]
                ], 
                [
                    18360, 
                    [
                        {
                            "pitch": 52, 
                            "t0": 18360, 
                            "v": 100, 
                            "dur": 120, 
                            "type": "note", 
                            "channel": 0
                        }
                    ]
                ], 
                [
                    18480, 
                    [
                        {
                            "pitch": 54, 
                            "t0": 18480, 
                            "v": 100, 
                            "dur": 120, 
                            "type": "note", 
                            "channel": 0
                        }
                    ]
                ], 
                [
                    18600, 
                    [
                        {
                            "pitch": 57, 
                            "t0": 18600, 
                            "v": 100, 
                            "dur": 120, 
                            "type": "note", 
                            "channel": 0
                        }
                    ]
                ], 
                [
                    18720, 
                    [
                        {
                            "pitch": 55, 
                            "t0": 18720, 
                            "v": 100, 
                            "dur": 120, 
                            "type": "note", 
                            "channel": 0
                        }
                    ]
                ], 
                [
                    18840, 
                    [
                        {
                            "pitch": 54, 
                            "t0": 18840, 
                            "v": 100, 
                            "dur": 120, 
                            "type": "note", 
                            "channel": 0
                        }
                    ]
                ], 
                [
                    18960, 
                    [
                        {
                            "pitch": 52, 
                            "t0": 18960, 
                            "v": 100, 
                            "dur": 120, 
                            "type": "note", 
                            "channel": 0
                        }
                    ]
                ], 
                [
                    19080, 
                    [
                        {
                            "pitch": 50, 
                            "t0": 19080, 
                            "v": 100, 
                            "dur": 120, 
                            "type": "note", 
                            "channel": 0
                        }
                    ]
                ], 
                [
                    19200, 
                    [
                        {
                            "pitch": 56, 
                            "t0": 19200, 
                            "v": 100, 
                            "dur": 120, 
                            "type": "note", 
                            "channel": 0
                        }
                    ]
                ], 
                [
                    19320, 
                    [
                        {
                            "pitch": 50, 
                            "t0": 19320, 
                            "v": 100, 
                            "dur": 120, 
                            "type": "note", 
                            "channel": 0
                        }
                    ]
                ], 
                [
                    19440, 
                    [
                        {
                            "pitch": 53, 
                            "t0": 19440, 
                            "v": 100, 
                            "dur": 120, 
                            "type": "note", 
                            "channel": 0
                        }
                    ]
                ], 
                [
                    19560, 
                    [
                        {
                            "pitch": 52, 
                            "t0": 19560, 
                            "v": 100, 
                            "dur": 120, 
                            "type": "note", 
                            "channel": 0
                        }
                    ]
                ], 
                [
                    19680, 
                    [
                        {
                            "pitch": 53, 
                            "t0": 19680, 
                            "v": 100, 
                            "dur": 120, 
                            "type": "note", 
                            "channel": 0
                        }
                    ]
                ], 
                [
                    19800, 
                    [
                        {
                            "pitch": 50, 
                            "t0": 19800, 
                            "v": 100, 
                            "dur": 120, 
                            "type": "note", 
                            "channel": 0
                        }
                    ]
                ], 
                [
                    19920, 
                    [
                        {
                            "pitch": 56, 
                            "t0": 19920, 
                            "v": 100, 
                            "dur": 120, 
                            "type": "note", 
                            "channel": 0
                        }
                    ]
                ], 
                [
                    20040, 
                    [
                        {
                            "pitch": 50, 
                            "t0": 20040, 
                            "v": 100, 
                            "dur": 120, 
                            "type": "note", 
                            "channel": 0
                        }
                    ]
                ], 
                [
                    20160, 
                    [
                        {
                            "pitch": 59, 
                            "t0": 20160, 
                            "v": 100, 
                            "dur": 120, 
                            "type": "note", 
                            "channel": 0
                        }
                    ]
                ], 
                [
                    20280, 
                    [
                        {
                            "pitch": 50, 
                            "t0": 20280, 
                            "v": 100, 
                            "dur": 120, 
                            "type": "note", 
                            "channel": 0
                        }
                    ]
                ], 
                [
                    20400, 
                    [
                        {
                            "pitch": 53, 
                            "t0": 20400, 
                            "v": 100, 
                            "dur": 120, 
                            "type": "note", 
                            "channel": 0
                        }
                    ]
                ], 
                [
                    20520, 
                    [
                        {
                            "pitch": 52, 
                            "t0": 20520, 
                            "v": 100, 
                            "dur": 120, 
                            "type": "note", 
                            "channel": 0
                        }
                    ]
                ], 
                [
                    20640, 
                    [
                        {
                            "pitch": 53, 
                            "t0": 20640, 
                            "v": 100, 
                            "dur": 120, 
                            "type": "note", 
                            "channel": 0
                        }
                    ]
                ], 
                [
                    20760, 
                    [
                        {
                            "pitch": 50, 
                            "t0": 20760, 
                            "v": 100, 
                            "dur": 120, 
                            "type": "note", 
                            "channel": 0
                        }
                    ]
                ], 
                [
                    20880, 
                    [
                        {
                            "pitch": 56, 
                            "t0": 20880, 
                            "v": 100, 
                            "dur": 120, 
                            "type": "note", 
                            "channel": 0
                        }
                    ]
                ], 
                [
                    21000, 
                    [
                        {
                            "pitch": 50, 
                            "t0": 21000, 
                            "v": 100, 
                            "dur": 120, 
                            "type": "note", 
                            "channel": 0
                        }
                    ]
                ], 
                [
                    21120, 
                    [
                        {
                            "pitch": 48, 
                            "t0": 21120, 
                            "v": 100, 
                            "dur": 120, 
                            "type": "note", 
                            "channel": 0
                        }
                    ]
                ], 
                [
                    21240, 
                    [
                        {
                            "pitch": 52, 
                            "t0": 21240, 
                            "v": 100, 
                            "dur": 120, 
                            "type": "note", 
                            "channel": 0
                        }
                    ]
                ], 
                [
                    21360, 
                    [
                        {
                            "pitch": 57, 
                            "t0": 21360, 
                            "v": 100, 
                            "dur": 120, 
                            "type": "note", 
                            "channel": 0
                        }
                    ]
                ], 
                [
                    21480, 
                    [
                        {
                            "pitch": 59, 
                            "t0": 21480, 
                            "v": 100, 
                            "dur": 120, 
                            "type": "note", 
                            "channel": 0
                        }
                    ]
                ], 
                [
                    21600, 
                    [
                        {
                            "pitch": 60, 
                            "t0": 21600, 
                            "v": 100, 
                            "dur": 120, 
                            "type": "note", 
                            "channel": 0
                        }
                    ]
                ], 
                [
                    21720, 
                    [
                        {
                            "pitch": 57, 
                            "t0": 21720, 
                            "v": 100, 
                            "dur": 120, 
                            "type": "note", 
                            "channel": 0
                        }
                    ]
                ], 
                [
                    21840, 
                    [
                        {
                            "pitch": 52, 
                            "t0": 21840, 
                            "v": 100, 
                            "dur": 120, 
                            "type": "note", 
                            "channel": 0
                        }
                    ]
                ], 
                [
                    21960, 
                    [
                        {
                            "pitch": 50, 
                            "t0": 21960, 
                            "v": 100, 
                            "dur": 120, 
                            "type": "note", 
                            "channel": 0
                        }
                    ]
                ], 
                [
                    22080, 
                    [
                        {
                            "pitch": 48, 
                            "t0": 22080, 
                            "v": 100, 
                            "dur": 120, 
                            "type": "note", 
                            "channel": 0
                        }
                    ]
                ], 
                [
                    22200, 
                    [
                        {
                            "pitch": 52, 
                            "t0": 22200, 
                            "v": 100, 
                            "dur": 120, 
                            "type": "note", 
                            "channel": 0
                        }
                    ]
                ], 
                [
                    22320, 
                    [
                        {
                            "pitch": 57, 
                            "t0": 22320, 
                            "v": 100, 
                            "dur": 120, 
                            "type": "note", 
                            "channel": 0
                        }
                    ]
                ], 
                [
                    22440, 
                    [
                        {
                            "pitch": 59, 
                            "t0": 22440, 
                            "v": 100, 
                            "dur": 120, 
                            "type": "note", 
                            "channel": 0
                        }
                    ]
                ], 
                [
                    22560, 
                    [
                        {
                            "pitch": 60, 
                            "t0": 22560, 
                            "v": 100, 
                            "dur": 120, 
                            "type": "note", 
                            "channel": 0
                        }
                    ]
                ], 
                [
                    22680, 
                    [
                        {
                            "pitch": 57, 
                            "t0": 22680, 
                            "v": 100, 
                            "dur": 120, 
                            "type": "note", 
                            "channel": 0
                        }
                    ]
                ], 
                [
                    22800, 
                    [
                        {
                            "pitch": 54, 
                            "t0": 22800, 
                            "v": 100, 
                            "dur": 120, 
                            "type": "note", 
                            "channel": 0
                        }
                    ]
                ], 
                [
                    22920, 
                    [
                        {
                            "pitch": 52, 
                            "t0": 22920, 
                            "v": 100, 
                            "dur": 120, 
                            "type": "note", 
                            "channel": 0
                        }
                    ]
                ], 
                [
                    23040, 
                    [
                        {
                            "pitch": 51, 
                            "t0": 23040, 
                            "v": 100, 
                            "dur": 120, 
                            "type": "note", 
                            "channel": 0
                        }
                    ]
                ], 
                [
                    23160, 
                    [
                        {
                            "pitch": 54, 
                            "t0": 23160, 
                            "v": 100, 
                            "dur": 120, 
                            "type": "note", 
                            "channel": 0
                        }
                    ]
                ], 
                [
                    23280, 
                    [
                        {
                            "pitch": 51, 
                            "t0": 23280, 
                            "v": 100, 
                            "dur": 120, 
                            "type": "note", 
                            "channel": 0
                        }
                    ]
                ], 
                [
                    23400, 
                    [
                        {
                            "pitch": 54, 
                            "t0": 23400, 
                            "v": 100, 
                            "dur": 120, 
                            "type": "note", 
                            "channel": 0
                        }
                    ]
                ], 
                [
                    23520, 
                    [
                        {
                            "pitch": 57, 
                            "t0": 23520, 
                            "v": 100, 
                            "dur": 120, 
                            "type": "note", 
                            "channel": 0
                        }
                    ]
                ], 
                [
                    23640, 
                    [
                        {
                            "pitch": 54, 
                            "t0": 23640, 
                            "v": 100, 
                            "dur": 120, 
                            "type": "note", 
                            "channel": 0
                        }
                    ]
                ], 
                [
                    23760, 
                    [
                        {
                            "pitch": 57, 
                            "t0": 23760, 
                            "v": 100, 
                            "dur": 120, 
                            "type": "note", 
                            "channel": 0
                        }
                    ]
                ], 
                [
                    23880, 
                    [
                        {
                            "pitch": 54, 
                            "t0": 23880, 
                            "v": 100, 
                            "dur": 120, 
                            "type": "note", 
                            "channel": 0
                        }
                    ]
                ], 
                [
                    24000, 
                    [
                        {
                            "pitch": 51, 
                            "t0": 24000, 
                            "v": 100, 
                            "dur": 120, 
                            "type": "note", 
                            "channel": 0
                        }
                    ]
                ], 
                [
                    24120, 
                    [
                        {
                            "pitch": 54, 
                            "t0": 24120, 
                            "v": 100, 
                            "dur": 120, 
                            "type": "note", 
                            "channel": 0
                        }
                    ]
                ], 
                [
                    24240, 
                    [
                        {
                            "pitch": 51, 
                            "t0": 24240, 
                            "v": 100, 
                            "dur": 120, 
                            "type": "note", 
                            "channel": 0
                        }
                    ]
                ], 
                [
                    24360, 
                    [
                        {
                            "pitch": 54, 
                            "t0": 24360, 
                            "v": 100, 
                            "dur": 120, 
                            "type": "note", 
                            "channel": 0
                        }
                    ]
                ], 
                [
                    24480, 
                    [
                        {
                            "pitch": 57, 
                            "t0": 24480, 
                            "v": 100, 
                            "dur": 120, 
                            "type": "note", 
                            "channel": 0
                        }
                    ]
                ], 
                [
                    24600, 
                    [
                        {
                            "pitch": 54, 
                            "t0": 24600, 
                            "v": 100, 
                            "dur": 120, 
                            "type": "note", 
                            "channel": 0
                        }
                    ]
                ], 
                [
                    24720, 
                    [
                        {
                            "pitch": 57, 
                            "t0": 24720, 
                            "v": 100, 
                            "dur": 120, 
                            "type": "note", 
                            "channel": 0
                        }
                    ]
                ], 
                [
                    24840, 
                    [
                        {
                            "pitch": 54, 
                            "t0": 24840, 
                            "v": 100, 
                            "dur": 120, 
                            "type": "note", 
                            "channel": 0
                        }
                    ]
                ], 
                [
                    24960, 
                    [
                        {
                            "pitch": 55, 
                            "t0": 24960, 
                            "v": 100, 
                            "dur": 120, 
                            "type": "note", 
                            "channel": 0
                        }
                    ]
                ], 
                [
                    25080, 
                    [
                        {
                            "pitch": 54, 
                            "t0": 25080, 
                            "v": 100, 
                            "dur": 120, 
                            "type": "note", 
                            "channel": 0
                        }
                    ]
                ], 
                [
                    25200, 
                    [
                        {
                            "pitch": 52, 
                            "t0": 25200, 
                            "v": 100, 
                            "dur": 120, 
                            "type": "note", 
                            "channel": 0
                        }
                    ]
                ], 
                [
                    25320, 
                    [
                        {
                            "pitch": 55, 
                            "t0": 25320, 
                            "v": 100, 
                            "dur": 120, 
                            "type": "note", 
                            "channel": 0
                        }
                    ]
                ], 
                [
                    25440, 
                    [
                        {
                            "pitch": 54, 
                            "t0": 25440, 
                            "v": 100, 
                            "dur": 120, 
                            "type": "note", 
                            "channel": 0
                        }
                    ]
                ], 
                [
                    25560, 
                    [
                        {
                            "pitch": 55, 
                            "t0": 25560, 
                            "v": 100, 
                            "dur": 120, 
                            "type": "note", 
                            "channel": 0
                        }
                    ]
                ], 
                [
                    25680, 
                    [
                        {
                            "pitch": 57, 
                            "t0": 25680, 
                            "v": 100, 
                            "dur": 120, 
                            "type": "note", 
                            "channel": 0
                        }
                    ]
                ], 
                [
                    25800, 
                    [
                        {
                            "pitch": 54, 
                            "t0": 25800, 
                            "v": 100, 
                            "dur": 120, 
                            "type": "note", 
                            "channel": 0
                        }
                    ]
                ], 
                [
                    25920, 
                    [
                        {
                            "pitch": 55, 
                            "t0": 25920, 
                            "v": 100, 
                            "dur": 120, 
                            "type": "note", 
                            "channel": 0
                        }
                    ]
                ], 
                [
                    26040, 
                    [
                        {
                            "pitch": 54, 
                            "t0": 26040, 
                            "v": 100, 
                            "dur": 120, 
                            "type": "note", 
                            "channel": 0
                        }
                    ]
                ], 
                [
                    26160, 
                    [
                        {
                            "pitch": 52, 
                            "t0": 26160, 
                            "v": 100, 
                            "dur": 120, 
                            "type": "note", 
                            "channel": 0
                        }
                    ]
                ], 
                [
                    26280, 
                    [
                        {
                            "pitch": 50, 
                            "t0": 26280, 
                            "v": 100, 
                            "dur": 120, 
                            "type": "note", 
                            "channel": 0
                        }
                    ]
                ], 
                [
                    26400, 
                    [
                        {
                            "pitch": 48, 
                            "t0": 26400, 
                            "v": 100, 
                            "dur": 120, 
                            "type": "note", 
                            "channel": 0
                        }
                    ]
                ], 
                [
                    26520, 
                    [
                        {
                            "pitch": 47, 
                            "t0": 26520, 
                            "v": 100, 
                            "dur": 120, 
                            "type": "note", 
                            "channel": 0
                        }
                    ]
                ], 
                [
                    26640, 
                    [
                        {
                            "pitch": 45, 
                            "t0": 26640, 
                            "v": 100, 
                            "dur": 120, 
                            "type": "note", 
                            "channel": 0
                        }
                    ]
                ], 
                [
                    26760, 
                    [
                        {
                            "pitch": 43, 
                            "t0": 26760, 
                            "v": 100, 
                            "dur": 120, 
                            "type": "note", 
                            "channel": 0
                        }
                    ]
                ], 
                [
                    26880, 
                    [
                        {
                            "pitch": 42, 
                            "t0": 26880, 
                            "v": 100, 
                            "dur": 120, 
                            "type": "note", 
                            "channel": 0
                        }
                    ]
                ], 
                [
                    27000, 
                    [
                        {
                            "pitch": 48, 
                            "t0": 27000, 
                            "v": 100, 
                            "dur": 120, 
                            "type": "note", 
                            "channel": 0
                        }
                    ]
                ], 
                [
                    27120, 
                    [
                        {
                            "pitch": 50, 
                            "t0": 27120, 
                            "v": 100, 
                            "dur": 120, 
                            "type": "note", 
                            "channel": 0
                        }
                    ]
                ], 
                [
                    27240, 
                    [
                        {
                            "pitch": 48, 
                            "t0": 27240, 
                            "v": 100, 
                            "dur": 120, 
                            "type": "note", 
                            "channel": 0
                        }
                    ]
                ], 
                [
                    27360, 
                    [
                        {
                            "pitch": 50, 
                            "t0": 27360, 
                            "v": 100, 
                            "dur": 120, 
                            "type": "note", 
                            "channel": 0
                        }
                    ]
                ], 
                [
                    27480, 
                    [
                        {
                            "pitch": 48, 
                            "t0": 27480, 
                            "v": 100, 
                            "dur": 120, 
                            "type": "note", 
                            "channel": 0
                        }
                    ]
                ], 
                [
                    27600, 
                    [
                        {
                            "pitch": 50, 
                            "t0": 27600, 
                            "v": 100, 
                            "dur": 120, 
                            "type": "note", 
                            "channel": 0
                        }
                    ]
                ], 
                [
                    27720, 
                    [
                        {
                            "pitch": 48, 
                            "t0": 27720, 
                            "v": 100, 
                            "dur": 120, 
                            "type": "note", 
                            "channel": 0
                        }
                    ]
                ], 
                [
                    27840, 
                    [
                        {
                            "pitch": 42, 
                            "t0": 27840, 
                            "v": 100, 
                            "dur": 120, 
                            "type": "note", 
                            "channel": 0
                        }
                    ]
                ], 
                [
                    27960, 
                    [
                        {
                            "pitch": 48, 
                            "t0": 27960, 
                            "v": 100, 
                            "dur": 120, 
                            "type": "note", 
                            "channel": 0
                        }
                    ]
                ], 
                [
                    28080, 
                    [
                        {
                            "pitch": 50, 
                            "t0": 28080, 
                            "v": 100, 
                            "dur": 120, 
                            "type": "note", 
                            "channel": 0
                        }
                    ]
                ], 
                [
                    28200, 
                    [
                        {
                            "pitch": 48, 
                            "t0": 28200, 
                            "v": 100, 
                            "dur": 120, 
                            "type": "note", 
                            "channel": 0
                        }
                    ]
                ], 
                [
                    28320, 
                    [
                        {
                            "pitch": 50, 
                            "t0": 28320, 
                            "v": 100, 
                            "dur": 120, 
                            "type": "note", 
                            "channel": 0
                        }
                    ]
                ], 
                [
                    28440, 
                    [
                        {
                            "pitch": 48, 
                            "t0": 28440, 
                            "v": 100, 
                            "dur": 120, 
                            "type": "note", 
                            "channel": 0
                        }
                    ]
                ], 
                [
                    28560, 
                    [
                        {
                            "pitch": 50, 
                            "t0": 28560, 
                            "v": 100, 
                            "dur": 120, 
                            "type": "note", 
                            "channel": 0
                        }
                    ]
                ], 
                [
                    28680, 
                    [
                        {
                            "pitch": 48, 
                            "t0": 28680, 
                            "v": 100, 
                            "dur": 120, 
                            "type": "note", 
                            "channel": 0
                        }
                    ]
                ], 
                [
                    28800, 
                    [
                        {
                            "pitch": 43, 
                            "t0": 28800, 
                            "v": 100, 
                            "dur": 120, 
                            "type": "note", 
                            "channel": 0
                        }
                    ]
                ], 
                [
                    28920, 
                    [
                        {
                            "pitch": 47, 
                            "t0": 28920, 
                            "v": 100, 
                            "dur": 120, 
                            "type": "note", 
                            "channel": 0
                        }
                    ]
                ], 
                [
                    29040, 
                    [
                        {
                            "pitch": 53, 
                            "t0": 29040, 
                            "v": 100, 
                            "dur": 120, 
                            "type": "note", 
                            "channel": 0
                        }
                    ]
                ], 
                [
                    29160, 
                    [
                        {
                            "pitch": 52, 
                            "t0": 29160, 
                            "v": 100, 
                            "dur": 120, 
                            "type": "note", 
                            "channel": 0
                        }
                    ]
                ], 
                [
                    29280, 
                    [
                        {
                            "pitch": 53, 
                            "t0": 29280, 
                            "v": 100, 
                            "dur": 120, 
                            "type": "note", 
                            "channel": 0
                        }
                    ]
                ], 
                [
                    29400, 
                    [
                        {
                            "pitch": 47, 
                            "t0": 29400, 
                            "v": 100, 
                            "dur": 120, 
                            "type": "note", 
                            "channel": 0
                        }
                    ]
                ], 
                [
                    29520, 
                    [
                        {
                            "pitch": 53, 
                            "t0": 29520, 
                            "v": 100, 
                            "dur": 120, 
                            "type": "note", 
                            "channel": 0
                        }
                    ]
                ], 
                [
                    29640, 
                    [
                        {
                            "pitch": 47, 
                            "t0": 29640, 
                            "v": 100, 
                            "dur": 120, 
                            "type": "note", 
                            "channel": 0
                        }
                    ]
                ], 
                [
                    29760, 
                    [
                        {
                            "pitch": 43, 
                            "t0": 29760, 
                            "v": 100, 
                            "dur": 120, 
                            "type": "note", 
                            "channel": 0
                        }
                    ]
                ], 
                [
                    29880, 
                    [
                        {
                            "pitch": 47, 
                            "t0": 29880, 
                            "v": 100, 
                            "dur": 120, 
                            "type": "note", 
                            "channel": 0
                        }
                    ]
                ], 
                [
                    30000, 
                    [
                        {
                            "pitch": 53, 
                            "t0": 30000, 
                            "v": 100, 
                            "dur": 120, 
                            "type": "note", 
                            "channel": 0
                        }
                    ]
                ], 
                [
                    30120, 
                    [
                        {
                            "pitch": 52, 
                            "t0": 30120, 
                            "v": 100, 
                            "dur": 120, 
                            "type": "note", 
                            "channel": 0
                        }
                    ]
                ], 
                [
                    30240, 
                    [
                        {
                            "pitch": 53, 
                            "t0": 30240, 
                            "v": 100, 
                            "dur": 120, 
                            "type": "note", 
                            "channel": 0
                        }
                    ]
                ], 
                [
                    30360, 
                    [
                        {
                            "pitch": 47, 
                            "t0": 30360, 
                            "v": 100, 
                            "dur": 120, 
                            "type": "note", 
                            "channel": 0
                        }
                    ]
                ], 
                [
                    30480, 
                    [
                        {
                            "pitch": 53, 
                            "t0": 30480, 
                            "v": 100, 
                            "dur": 120, 
                            "type": "note", 
                            "channel": 0
                        }
                    ]
                ], 
                [
                    30600, 
                    [
                        {
                            "pitch": 47, 
                            "t0": 30600, 
                            "v": 100, 
                            "dur": 120, 
                            "type": "note", 
                            "channel": 0
                        }
                    ]
                ], 
                [
                    30720, 
                    [
                        {
                            "pitch": 43, 
                            "t0": 30720, 
                            "v": 100, 
                            "dur": 120, 
                            "type": "note", 
                            "channel": 0
                        }
                    ]
                ], 
                [
                    30840, 
                    [
                        {
                            "pitch": 48, 
                            "t0": 30840, 
                            "v": 100, 
                            "dur": 120, 
                            "type": "note", 
                            "channel": 0
                        }
                    ]
                ], 
                [
                    30960, 
                    [
                        {
                            "pitch": 52, 
                            "t0": 30960, 
                            "v": 100, 
                            "dur": 120, 
                            "type": "note", 
                            "channel": 0
                        }
                    ]
                ], 
                [
                    31080, 
                    [
                        {
                            "pitch": 50, 
                            "t0": 31080, 
                            "v": 100, 
                            "dur": 120, 
                            "type": "note", 
                            "channel": 0
                        }
                    ]
                ], 
                [
                    31200, 
                    [
                        {
                            "pitch": 52, 
                            "t0": 31200, 
                            "v": 100, 
                            "dur": 120, 
                            "type": "note", 
                            "channel": 0
                        }
                    ]
                ], 
                [
                    31320, 
                    [
                        {
                            "pitch": 48, 
                            "t0": 31320, 
                            "v": 100, 
                            "dur": 120, 
                            "type": "note", 
                            "channel": 0
                        }
                    ]
                ], 
                [
                    31440, 
                    [
                        {
                            "pitch": 52, 
                            "t0": 31440, 
                            "v": 100, 
                            "dur": 120, 
                            "type": "note", 
                            "channel": 0
                        }
                    ]
                ], 
                [
                    31560, 
                    [
                        {
                            "pitch": 48, 
                            "t0": 31560, 
                            "v": 100, 
                            "dur": 120, 
                            "type": "note", 
                            "channel": 0
                        }
                    ]
                ], 
                [
                    31680, 
                    [
                        {
                            "pitch": 43, 
                            "t0": 31680, 
                            "v": 100, 
                            "dur": 120, 
                            "type": "note", 
                            "channel": 0
                        }
                    ]
                ], 
                [
                    31800, 
                    [
                        {
                            "pitch": 48, 
                            "t0": 31800, 
                            "v": 100, 
                            "dur": 120, 
                            "type": "note", 
                            "channel": 0
                        }
                    ]
                ], 
                [
                    31920, 
                    [
                        {
                            "pitch": 52, 
                            "t0": 31920, 
                            "v": 100, 
                            "dur": 120, 
                            "type": "note", 
                            "channel": 0
                        }
                    ]
                ], 
                [
                    32040, 
                    [
                        {
                            "pitch": 50, 
                            "t0": 32040, 
                            "v": 100, 
                            "dur": 120, 
                            "type": "note", 
                            "channel": 0
                        }
                    ]
                ], 
                [
                    32160, 
                    [
                        {
                            "pitch": 52, 
                            "t0": 32160, 
                            "v": 100, 
                            "dur": 120, 
                            "type": "note", 
                            "channel": 0
                        }
                    ]
                ], 
                [
                    32280, 
                    [
                        {
                            "pitch": 48, 
                            "t0": 32280, 
                            "v": 100, 
                            "dur": 120, 
                            "type": "note", 
                            "channel": 0
                        }
                    ]
                ], 
                [
                    32400, 
                    [
                        {
                            "pitch": 52, 
                            "t0": 32400, 
                            "v": 100, 
                            "dur": 120, 
                            "type": "note", 
                            "channel": 0
                        }
                    ]
                ], 
                [
                    32520, 
                    [
                        {
                            "pitch": 48, 
                            "t0": 32520, 
                            "v": 100, 
                            "dur": 120, 
                            "type": "note", 
                            "channel": 0
                        }
                    ]
                ], 
                [
                    32640, 
                    [
                        {
                            "pitch": 43, 
                            "t0": 32640, 
                            "v": 100, 
                            "dur": 120, 
                            "type": "note", 
                            "channel": 0
                        }
                    ]
                ], 
                [
                    32760, 
                    [
                        {
                            "pitch": 54, 
                            "t0": 32760, 
                            "v": 100, 
                            "dur": 120, 
                            "type": "note", 
                            "channel": 0
                        }
                    ]
                ], 
                [
                    32880, 
                    [
                        {
                            "pitch": 60, 
                            "t0": 32880, 
                            "v": 100, 
                            "dur": 120, 
                            "type": "note", 
                            "channel": 0
                        }
                    ]
                ], 
                [
                    33000, 
                    [
                        {
                            "pitch": 59, 
                            "t0": 33000, 
                            "v": 100, 
                            "dur": 120, 
                            "type": "note", 
                            "channel": 0
                        }
                    ]
                ], 
                [
                    33120, 
                    [
                        {
                            "pitch": 60, 
                            "t0": 33120, 
                            "v": 100, 
                            "dur": 120, 
                            "type": "note", 
                            "channel": 0
                        }
                    ]
                ], 
                [
                    33240, 
                    [
                        {
                            "pitch": 54, 
                            "t0": 33240, 
                            "v": 100, 
                            "dur": 120, 
                            "type": "note", 
                            "channel": 0
                        }
                    ]
                ], 
                [
                    33360, 
                    [
                        {
                            "pitch": 60, 
                            "t0": 33360, 
                            "v": 100, 
                            "dur": 120, 
                            "type": "note", 
                            "channel": 0
                        }
                    ]
                ], 
                [
                    33480, 
                    [
                        {
                            "pitch": 54, 
                            "t0": 33480, 
                            "v": 100, 
                            "dur": 120, 
                            "type": "note", 
                            "channel": 0
                        }
                    ]
                ], 
                [
                    33600, 
                    [
                        {
                            "pitch": 43, 
                            "t0": 33600, 
                            "v": 100, 
                            "dur": 120, 
                            "type": "note", 
                            "channel": 0
                        }
                    ]
                ], 
                [
                    33720, 
                    [
                        {
                            "pitch": 54, 
                            "t0": 33720, 
                            "v": 100, 
                            "dur": 120, 
                            "type": "note", 
                            "channel": 0
                        }
                    ]
                ], 
                [
                    33840, 
                    [
                        {
                            "pitch": 60, 
                            "t0": 33840, 
                            "v": 100, 
                            "dur": 120, 
                            "type": "note", 
                            "channel": 0
                        }
                    ]
                ], 
                [
                    33960, 
                    [
                        {
                            "pitch": 59, 
                            "t0": 33960, 
                            "v": 100, 
                            "dur": 120, 
                            "type": "note", 
                            "channel": 0
                        }
                    ]
                ], 
                [
                    34080, 
                    [
                        {
                            "pitch": 60, 
                            "t0": 34080, 
                            "v": 100, 
                            "dur": 120, 
                            "type": "note", 
                            "channel": 0
                        }
                    ]
                ], 
                [
                    34200, 
                    [
                        {
                            "pitch": 54, 
                            "t0": 34200, 
                            "v": 100, 
                            "dur": 120, 
                            "type": "note", 
                            "channel": 0
                        }
                    ]
                ], 
                [
                    34320, 
                    [
                        {
                            "pitch": 60, 
                            "t0": 34320, 
                            "v": 100, 
                            "dur": 120, 
                            "type": "note", 
                            "channel": 0
                        }
                    ]
                ], 
                [
                    34440, 
                    [
                        {
                            "pitch": 54, 
                            "t0": 34440, 
                            "v": 100, 
                            "dur": 120, 
                            "type": "note", 
                            "channel": 0
                        }
                    ]
                ], 
                [
                    34560, 
                    [
                        {
                            "pitch": 43, 
                            "t0": 34560, 
                            "v": 100, 
                            "dur": 120, 
                            "type": "note", 
                            "channel": 0
                        }
                    ]
                ], 
                [
                    34680, 
                    [
                        {
                            "pitch": 50, 
                            "t0": 34680, 
                            "v": 100, 
                            "dur": 120, 
                            "type": "note", 
                            "channel": 0
                        }
                    ]
                ], 
                [
                    34800, 
                    [
                        {
                            "pitch": 59, 
                            "t0": 34800, 
                            "v": 100, 
                            "dur": 120, 
                            "type": "note", 
                            "channel": 0
                        }
                    ]
                ], 
                [
                    34920, 
                    [
                        {
                            "pitch": 57, 
                            "t0": 34920, 
                            "v": 100, 
                            "dur": 120, 
                            "type": "note", 
                            "channel": 0
                        }
                    ]
                ], 
                [
                    35040, 
                    [
                        {
                            "pitch": 59, 
                            "t0": 35040, 
                            "v": 100, 
                            "dur": 120, 
                            "type": "note", 
                            "channel": 0
                        }
                    ]
                ], 
                [
                    35160, 
                    [
                        {
                            "pitch": 55, 
                            "t0": 35160, 
                            "v": 100, 
                            "dur": 120, 
                            "type": "note", 
                            "channel": 0
                        }
                    ]
                ], 
                [
                    35280, 
                    [
                        {
                            "pitch": 54, 
                            "t0": 35280, 
                            "v": 100, 
                            "dur": 120, 
                            "type": "note", 
                            "channel": 0
                        }
                    ]
                ], 
                [
                    35400, 
                    [
                        {
                            "pitch": 52, 
                            "t0": 35400, 
                            "v": 100, 
                            "dur": 120, 
                            "type": "note", 
                            "channel": 0
                        }
                    ]
                ], 
                [
                    35520, 
                    [
                        {
                            "pitch": 50, 
                            "t0": 35520, 
                            "v": 100, 
                            "dur": 120, 
                            "type": "note", 
                            "channel": 0
                        }
                    ]
                ], 
                [
                    35640, 
                    [
                        {
                            "pitch": 48, 
                            "t0": 35640, 
                            "v": 100, 
                            "dur": 120, 
                            "type": "note", 
                            "channel": 0
                        }
                    ]
                ], 
                [
                    35760, 
                    [
                        {
                            "pitch": 47, 
                            "t0": 35760, 
                            "v": 100, 
                            "dur": 120, 
                            "type": "note", 
                            "channel": 0
                        }
                    ]
                ], 
                [
                    35880, 
                    [
                        {
                            "pitch": 45, 
                            "t0": 35880, 
                            "v": 100, 
                            "dur": 120, 
                            "type": "note", 
                            "channel": 0
                        }
                    ]
                ], 
                [
                    36000, 
                    [
                        {
                            "pitch": 43, 
                            "t0": 36000, 
                            "v": 100, 
                            "dur": 120, 
                            "type": "note", 
                            "channel": 0
                        }
                    ]
                ], 
                [
                    36120, 
                    [
                        {
                            "pitch": 42, 
                            "t0": 36120, 
                            "v": 100, 
                            "dur": 120, 
                            "type": "note", 
                            "channel": 0
                        }
                    ]
                ], 
                [
                    36240, 
                    [
                        {
                            "pitch": 40, 
                            "t0": 36240, 
                            "v": 100, 
                            "dur": 120, 
                            "type": "note", 
                            "channel": 0
                        }
                    ]
                ], 
                [
                    36360, 
                    [
                        {
                            "pitch": 38, 
                            "t0": 36360, 
                            "v": 100, 
                            "dur": 120, 
                            "type": "note", 
                            "channel": 0
                        }
                    ]
                ], 
                [
                    36480, 
                    [
                        {
                            "pitch": 37, 
                            "t0": 36480, 
                            "v": 100, 
                            "dur": 120, 
                            "type": "note", 
                            "channel": 0
                        }
                    ]
                ], 
                [
                    36600, 
                    [
                        {
                            "pitch": 45, 
                            "t0": 36600, 
                            "v": 100, 
                            "dur": 120, 
                            "type": "note", 
                            "channel": 0
                        }
                    ]
                ], 
                [
                    36720, 
                    [
                        {
                            "pitch": 52, 
                            "t0": 36720, 
                            "v": 100, 
                            "dur": 120, 
                            "type": "note", 
                            "channel": 0
                        }
                    ]
                ], 
                [
                    36840, 
                    [
                        {
                            "pitch": 54, 
                            "t0": 36840, 
                            "v": 100, 
                            "dur": 120, 
                            "type": "note", 
                            "channel": 0
                        }
                    ]
                ], 
                [
                    36960, 
                    [
                        {
                            "pitch": 55, 
                            "t0": 36960, 
                            "v": 100, 
                            "dur": 120, 
                            "type": "note", 
                            "channel": 0
                        }
                    ]
                ], 
                [
                    37080, 
                    [
                        {
                            "pitch": 52, 
                            "t0": 37080, 
                            "v": 100, 
                            "dur": 120, 
                            "type": "note", 
                            "channel": 0
                        }
                    ]
                ], 
                [
                    37200, 
                    [
                        {
                            "pitch": 54, 
                            "t0": 37200, 
                            "v": 100, 
                            "dur": 120, 
                            "type": "note", 
                            "channel": 0
                        }
                    ]
                ], 
                [
                    37320, 
                    [
                        {
                            "pitch": 55, 
                            "t0": 37320, 
                            "v": 100, 
                            "dur": 120, 
                            "type": "note", 
                            "channel": 0
                        }
                    ]
                ], 
                [
                    37440, 
                    [
                        {
                            "pitch": 37, 
                            "t0": 37440, 
                            "v": 100, 
                            "dur": 120, 
                            "type": "note", 
                            "channel": 0
                        }
                    ]
                ], 
                [
                    37560, 
                    [
                        {
                            "pitch": 45, 
                            "t0": 37560, 
                            "v": 100, 
                            "dur": 120, 
                            "type": "note", 
                            "channel": 0
                        }
                    ]
                ], 
                [
                    37680, 
                    [
                        {
                            "pitch": 52, 
                            "t0": 37680, 
                            "v": 100, 
                            "dur": 120, 
                            "type": "note", 
                            "channel": 0
                        }
                    ]
                ], 
                [
                    37800, 
                    [
                        {
                            "pitch": 54, 
                            "t0": 37800, 
                            "v": 100, 
                            "dur": 120, 
                            "type": "note", 
                            "channel": 0
                        }
                    ]
                ], 
                [
                    37920, 
                    [
                        {
                            "pitch": 55, 
                            "t0": 37920, 
                            "v": 100, 
                            "dur": 120, 
                            "type": "note", 
                            "channel": 0
                        }
                    ]
                ], 
                [
                    38040, 
                    [
                        {
                            "pitch": 52, 
                            "t0": 38040, 
                            "v": 100, 
                            "dur": 120, 
                            "type": "note", 
                            "channel": 0
                        }
                    ]
                ], 
                [
                    38160, 
                    [
                        {
                            "pitch": 54, 
                            "t0": 38160, 
                            "v": 100, 
                            "dur": 120, 
                            "type": "note", 
                            "channel": 0
                        }
                    ]
                ], 
                [
                    38280, 
                    [
                        {
                            "pitch": 55, 
                            "t0": 38280, 
                            "v": 100, 
                            "dur": 120, 
                            "type": "note", 
                            "channel": 0
                        }
                    ]
                ], 
                [
                    38400, 
                    [
                        {
                            "pitch": 36, 
                            "t0": 38400, 
                            "v": 100, 
                            "dur": 120, 
                            "type": "note", 
                            "channel": 0
                        }
                    ]
                ], 
                [
                    38520, 
                    [
                        {
                            "pitch": 45, 
                            "t0": 38520, 
                            "v": 100, 
                            "dur": 120, 
                            "type": "note", 
                            "channel": 0
                        }
                    ]
                ], 
                [
                    38640, 
                    [
                        {
                            "pitch": 50, 
                            "t0": 38640, 
                            "v": 100, 
                            "dur": 120, 
                            "type": "note", 
                            "channel": 0
                        }
                    ]
                ], 
                [
                    38760, 
                    [
                        {
                            "pitch": 52, 
                            "t0": 38760, 
                            "v": 100, 
                            "dur": 120, 
                            "type": "note", 
                            "channel": 0
                        }
                    ]
                ], 
                [
                    38880, 
                    [
                        {
                            "pitch": 54, 
                            "t0": 38880, 
                            "v": 100, 
                            "dur": 120, 
                            "type": "note", 
                            "channel": 0
                        }
                    ]
                ], 
                [
                    39000, 
                    [
                        {
                            "pitch": 50, 
                            "t0": 39000, 
                            "v": 100, 
                            "dur": 120, 
                            "type": "note", 
                            "channel": 0
                        }
                    ]
                ], 
                [
                    39120, 
                    [
                        {
                            "pitch": 52, 
                            "t0": 39120, 
                            "v": 100, 
                            "dur": 120, 
                            "type": "note", 
                            "channel": 0
                        }
                    ]
                ], 
                [
                    39240, 
                    [
                        {
                            "pitch": 54, 
                            "t0": 39240, 
                            "v": 100, 
                            "dur": 120, 
                            "type": "note", 
                            "channel": 0
                        }
                    ]
                ], 
                [
                    39360, 
                    [
                        {
                            "pitch": 36, 
                            "t0": 39360, 
                            "v": 100, 
                            "dur": 120, 
                            "type": "note", 
                            "channel": 0
                        }
                    ]
                ], 
                [
                    39480, 
                    [
                        {
                            "pitch": 45, 
                            "t0": 39480, 
                            "v": 100, 
                            "dur": 120, 
                            "type": "note", 
                            "channel": 0
                        }
                    ]
                ], 
                [
                    39600, 
                    [
                        {
                            "pitch": 50, 
                            "t0": 39600, 
                            "v": 100, 
                            "dur": 120, 
                            "type": "note", 
                            "channel": 0
                        }
                    ]
                ], 
                [
                    39720, 
                    [
                        {
                            "pitch": 52, 
                            "t0": 39720, 
                            "v": 100, 
                            "dur": 120, 
                            "type": "note", 
                            "channel": 0
                        }
                    ]
                ], 
                [
                    39840, 
                    [
                        {
                            "pitch": 54, 
                            "t0": 39840, 
                            "v": 100, 
                            "dur": 120, 
                            "type": "note", 
                            "channel": 0
                        }
                    ]
                ], 
                [
                    39960, 
                    [
                        {
                            "pitch": 50, 
                            "t0": 39960, 
                            "v": 100, 
                            "dur": 120, 
                            "type": "note", 
                            "channel": 0
                        }
                    ]
                ], 
                [
                    40080, 
                    [
                        {
                            "pitch": 52, 
                            "t0": 40080, 
                            "v": 100, 
                            "dur": 120, 
                            "type": "note", 
                            "channel": 0
                        }
                    ]
                ], 
                [
                    40200, 
                    [
                        {
                            "pitch": 54, 
                            "t0": 40200, 
                            "v": 100, 
                            "dur": 120, 
                            "type": "note", 
                            "channel": 0
                        }
                    ]
                ], 
                [
                    40320, 
                    [
                        {
                            "pitch": 36, 
                            "t0": 40320, 
                            "v": 100, 
                            "dur": 120, 
                            "type": "note", 
                            "channel": 0
                        }
                    ]
                ], 
                [
                    40440, 
                    [
                        {
                            "pitch": 45, 
                            "t0": 40440, 
                            "v": 100, 
                            "dur": 120, 
                            "type": "note", 
                            "channel": 0
                        }
                    ]
                ], 
                [
                    40560, 
                    [
                        {
                            "pitch": 50, 
                            "t0": 40560, 
                            "v": 100, 
                            "dur": 120, 
                            "type": "note", 
                            "channel": 0
                        }
                    ]
                ], 
                [
                    40680, 
                    [
                        {
                            "pitch": 54, 
                            "t0": 40680, 
                            "v": 100, 
                            "dur": 120, 
                            "type": "note", 
                            "channel": 0
                        }
                    ]
                ], 
                [
                    40800, 
                    [
                        {
                            "pitch": 57, 
                            "t0": 40800, 
                            "v": 100, 
                            "dur": 120, 
                            "type": "note", 
                            "channel": 0
                        }
                    ]
                ], 
                [
                    40920, 
                    [
                        {
                            "pitch": 61, 
                            "t0": 40920, 
                            "v": 100, 
                            "dur": 120, 
                            "type": "note", 
                            "channel": 0
                        }
                    ]
                ], 
                [
                    41040, 
                    [
                        {
                            "pitch": 62, 
                            "t0": 41040, 
                            "v": 100, 
                            "dur": 360, 
                            "type": "note", 
                            "channel": 0
                        }
                    ]
                ], 
                [
                    41400, 
                    [
                        {
                            "pitch": 45, 
                            "t0": 41400, 
                            "v": 100, 
                            "dur": 120, 
                            "type": "note", 
                            "channel": 0
                        }
                    ]
                ], 
                [
                    41520, 
                    [
                        {
                            "pitch": 47, 
                            "t0": 41520, 
                            "v": 100, 
                            "dur": 120, 
                            "type": "note", 
                            "channel": 0
                        }
                    ]
                ], 
                [
                    41640, 
                    [
                        {
                            "pitch": 48, 
                            "t0": 41640, 
                            "v": 100, 
                            "dur": 120, 
                            "type": "note", 
                            "channel": 0
                        }
                    ]
                ], 
                [
                    41760, 
                    [
                        {
                            "pitch": 50, 
                            "t0": 41760, 
                            "v": 100, 
                            "dur": 120, 
                            "type": "note", 
                            "channel": 0
                        }
                    ]
                ], 
                [
                    41880, 
                    [
                        {
                            "pitch": 52, 
                            "t0": 41880, 
                            "v": 100, 
                            "dur": 120, 
                            "type": "note", 
                            "channel": 0
                        }
                    ]
                ], 
                [
                    42000, 
                    [
                        {
                            "pitch": 54, 
                            "t0": 42000, 
                            "v": 100, 
                            "dur": 120, 
                            "type": "note", 
                            "channel": 0
                        }
                    ]
                ], 
                [
                    42120, 
                    [
                        {
                            "pitch": 55, 
                            "t0": 42120, 
                            "v": 100, 
                            "dur": 120, 
                            "type": "note", 
                            "channel": 0
                        }
                    ]
                ], 
                [
                    42240, 
                    [
                        {
                            "pitch": 57, 
                            "t0": 42240, 
                            "v": 100, 
                            "dur": 120, 
                            "type": "note", 
                            "channel": 0
                        }
                    ]
                ], 
                [
                    42360, 
                    [
                        {
                            "pitch": 54, 
                            "t0": 42360, 
                            "v": 100, 
                            "dur": 120, 
                            "type": "note", 
                            "channel": 0
                        }
                    ]
                ], 
                [
                    42480, 
                    [
                        {
                            "pitch": 50, 
                            "t0": 42480, 
                            "v": 100, 
                            "dur": 120, 
                            "type": "note", 
                            "channel": 0
                        }
                    ]
                ], 
                [
                    42600, 
                    [
                        {
                            "pitch": 52, 
                            "t0": 42600, 
                            "v": 100, 
                            "dur": 120, 
                            "type": "note", 
                            "channel": 0
                        }
                    ]
                ], 
                [
                    42720, 
                    [
                        {
                            "pitch": 54, 
                            "t0": 42720, 
                            "v": 100, 
                            "dur": 120, 
                            "type": "note", 
                            "channel": 0
                        }
                    ]
                ], 
                [
                    42840, 
                    [
                        {
                            "pitch": 55, 
                            "t0": 42840, 
                            "v": 100, 
                            "dur": 120, 
                            "type": "note", 
                            "channel": 0
                        }
                    ]
                ], 
                [
                    42960, 
                    [
                        {
                            "pitch": 57, 
                            "t0": 42960, 
                            "v": 100, 
                            "dur": 120, 
                            "type": "note", 
                            "channel": 0
                        }
                    ]
                ], 
                [
                    43080, 
                    [
                        {
                            "pitch": 59, 
                            "t0": 43080, 
                            "v": 100, 
                            "dur": 120, 
                            "type": "note", 
                            "channel": 0
                        }
                    ]
                ], 
                [
                    43200, 
                    [
                        {
                            "pitch": 60, 
                            "t0": 43200, 
                            "v": 100, 
                            "dur": 120, 
                            "type": "note", 
                            "channel": 0
                        }
                    ]
                ], 
                [
                    43320, 
                    [
                        {
                            "pitch": 57, 
                            "t0": 43320, 
                            "v": 100, 
                            "dur": 120, 
                            "type": "note", 
                            "channel": 0
                        }
                    ]
                ], 
                [
                    43440, 
                    [
                        {
                            "pitch": 54, 
                            "t0": 43440, 
                            "v": 100, 
                            "dur": 120, 
                            "type": "note", 
                            "channel": 0
                        }
                    ]
                ], 
                [
                    43560, 
                    [
                        {
                            "pitch": 55, 
                            "t0": 43560, 
                            "v": 100, 
                            "dur": 120, 
                            "type": "note", 
                            "channel": 0
                        }
                    ]
                ], 
                [
                    43680, 
                    [
                        {
                            "pitch": 57, 
                            "t0": 43680, 
                            "v": 100, 
                            "dur": 120, 
                            "type": "note", 
                            "channel": 0
                        }
                    ]
                ], 
                [
                    43800, 
                    [
                        {
                            "pitch": 59, 
                            "t0": 43800, 
                            "v": 100, 
                            "dur": 120, 
                            "type": "note", 
                            "channel": 0
                        }
                    ]
                ], 
                [
                    43920, 
                    [
                        {
                            "pitch": 60, 
                            "t0": 43920, 
                            "v": 100, 
                            "dur": 120, 
                            "type": "note", 
                            "channel": 0
                        }
                    ]
                ], 
                [
                    44040, 
                    [
                        {
                            "pitch": 62, 
                            "t0": 44040, 
                            "v": 100, 
                            "dur": 120, 
                            "type": "note", 
                            "channel": 0
                        }
                    ]
                ], 
                [
                    44160, 
                    [
                        {
                            "pitch": 63, 
                            "t0": 44160, 
                            "v": 100, 
                            "dur": 120, 
                            "type": "note", 
                            "channel": 0
                        }
                    ]
                ], 
                [
                    44280, 
                    [
                        {
                            "pitch": 62, 
                            "t0": 44280, 
                            "v": 100, 
                            "dur": 120, 
                            "type": "note", 
                            "channel": 0
                        }
                    ]
                ], 
                [
                    44400, 
                    [
                        {
                            "pitch": 61, 
                            "t0": 44400, 
                            "v": 100, 
                            "dur": 120, 
                            "type": "note", 
                            "channel": 0
                        }
                    ]
                ], 
                [
                    44520, 
                    [
                        {
                            "pitch": 62, 
                            "t0": 44520, 
                            "v": 100, 
                            "dur": 120, 
                            "type": "note", 
                            "channel": 0
                        }
                    ]
                ], 
                [
                    44640, 
                    [
                        {
                            "pitch": 62, 
                            "t0": 44640, 
                            "v": 100, 
                            "dur": 120, 
                            "type": "note", 
                            "channel": 0
                        }
                    ]
                ], 
                [
                    44760, 
                    [
                        {
                            "pitch": 60, 
                            "t0": 44760, 
                            "v": 100, 
                            "dur": 120, 
                            "type": "note", 
                            "channel": 0
                        }
                    ]
                ], 
                [
                    44880, 
                    [
                        {
                            "pitch": 59, 
                            "t0": 44880, 
                            "v": 100, 
                            "dur": 120, 
                            "type": "note", 
                            "channel": 0
                        }
                    ]
                ], 
                [
                    45000, 
                    [
                        {
                            "pitch": 60, 
                            "t0": 45000, 
                            "v": 100, 
                            "dur": 120, 
                            "type": "note", 
                            "channel": 0
                        }
                    ]
                ], 
                [
                    45120, 
                    [
                        {
                            "pitch": 60, 
                            "t0": 45120, 
                            "v": 100, 
                            "dur": 120, 
                            "type": "note", 
                            "channel": 0
                        }
                    ]
                ], 
                [
                    45240, 
                    [
                        {
                            "pitch": 57, 
                            "t0": 45240, 
                            "v": 100, 
                            "dur": 120, 
                            "type": "note", 
                            "channel": 0
                        }
                    ]
                ], 
                [
                    45360, 
                    [
                        {
                            "pitch": 54, 
                            "t0": 45360, 
                            "v": 100, 
                            "dur": 120, 
                            "type": "note", 
                            "channel": 0
                        }
                    ]
                ], 
                [
                    45480, 
                    [
                        {
                            "pitch": 52, 
                            "t0": 45480, 
                            "v": 100, 
                            "dur": 120, 
                            "type": "note", 
                            "channel": 0
                        }
                    ]
                ], 
                [
                    45600, 
                    [
                        {
                            "pitch": 50, 
                            "t0": 45600, 
                            "v": 100, 
                            "dur": 120, 
                            "type": "note", 
                            "channel": 0
                        }
                    ]
                ], 
                [
                    45720, 
                    [
                        {
                            "pitch": 45, 
                            "t0": 45720, 
                            "v": 100, 
                            "dur": 120, 
                            "type": "note", 
                            "channel": 0
                        }
                    ]
                ], 
                [
                    45840, 
                    [
                        {
                            "pitch": 47, 
                            "t0": 45840, 
                            "v": 100, 
                            "dur": 120, 
                            "type": "note", 
                            "channel": 0
                        }
                    ]
                ], 
                [
                    45960, 
                    [
                        {
                            "pitch": 48, 
                            "t0": 45960, 
                            "v": 100, 
                            "dur": 120, 
                            "type": "note", 
                            "channel": 0
                        }
                    ]
                ], 
                [
                    46080, 
                    [
                        {
                            "pitch": 38, 
                            "t0": 46080, 
                            "v": 100, 
                            "dur": 120, 
                            "type": "note", 
                            "channel": 0
                        }
                    ]
                ], 
                [
                    46200, 
                    [
                        {
                            "pitch": 45, 
                            "t0": 46200, 
                            "v": 100, 
                            "dur": 120, 
                            "type": "note", 
                            "channel": 0
                        }
                    ]
                ], 
                [
                    46320, 
                    [
                        {
                            "pitch": 50, 
                            "t0": 46320, 
                            "v": 100, 
                            "dur": 120, 
                            "type": "note", 
                            "channel": 0
                        }
                    ]
                ], 
                [
                    46440, 
                    [
                        {
                            "pitch": 54, 
                            "t0": 46440, 
                            "v": 100, 
                            "dur": 120, 
                            "type": "note", 
                            "channel": 0
                        }
                    ]
                ], 
                [
                    46560, 
                    [
                        {
                            "pitch": 57, 
                            "t0": 46560, 
                            "v": 100, 
                            "dur": 120, 
                            "type": "note", 
                            "channel": 0
                        }
                    ]
                ], 
                [
                    46680, 
                    [
                        {
                            "pitch": 59, 
                            "t0": 46680, 
                            "v": 100, 
                            "dur": 120, 
                            "type": "note", 
                            "channel": 0
                        }
                    ]
                ], 
                [
                    46800, 
                    [
                        {
                            "pitch": 60, 
                            "t0": 46800, 
                            "v": 100, 
                            "dur": 120, 
                            "type": "note", 
                            "channel": 0
                        }
                    ]
                ], 
                [
                    46920, 
                    [
                        {
                            "pitch": 57, 
                            "t0": 46920, 
                            "v": 100, 
                            "dur": 120, 
                            "type": "note", 
                            "channel": 0
                        }
                    ]
                ], 
                [
                    47040, 
                    [
                        {
                            "pitch": 59, 
                            "t0": 47040, 
                            "v": 100, 
                            "dur": 120, 
                            "type": "note", 
                            "channel": 0
                        }
                    ]
                ], 
                [
                    47160, 
                    [
                        {
                            "pitch": 55, 
                            "t0": 47160, 
                            "v": 100, 
                            "dur": 120, 
                            "type": "note", 
                            "channel": 0
                        }
                    ]
                ], 
                [
                    47280, 
                    [
                        {
                            "pitch": 50, 
                            "t0": 47280, 
                            "v": 100, 
                            "dur": 120, 
                            "type": "note", 
                            "channel": 0
                        }
                    ]
                ], 
                [
                    47400, 
                    [
                        {
                            "pitch": 48, 
                            "t0": 47400, 
                            "v": 100, 
                            "dur": 120, 
                            "type": "note", 
                            "channel": 0
                        }
                    ]
                ], 
                [
                    47520, 
                    [
                        {
                            "pitch": 47, 
                            "t0": 47520, 
                            "v": 100, 
                            "dur": 120, 
                            "type": "note", 
                            "channel": 0
                        }
                    ]
                ], 
                [
                    47640, 
                    [
                        {
                            "pitch": 43, 
                            "t0": 47640, 
                            "v": 100, 
                            "dur": 120, 
                            "type": "note", 
                            "channel": 0
                        }
                    ]
                ], 
                [
                    47760, 
                    [
                        {
                            "pitch": 45, 
                            "t0": 47760, 
                            "v": 100, 
                            "dur": 120, 
                            "type": "note", 
                            "channel": 0
                        }
                    ]
                ], 
                [
                    47880, 
                    [
                        {
                            "pitch": 47, 
                            "t0": 47880, 
                            "v": 100, 
                            "dur": 120, 
                            "type": "note", 
                            "channel": 0
                        }
                    ]
                ], 
                [
                    48000, 
                    [
                        {
                            "pitch": 38, 
                            "t0": 48000, 
                            "v": 100, 
                            "dur": 120, 
                            "type": "note", 
                            "channel": 0
                        }
                    ]
                ], 
                [
                    48120, 
                    [
                        {
                            "pitch": 43, 
                            "t0": 48120, 
                            "v": 100, 
                            "dur": 120, 
                            "type": "note", 
                            "channel": 0
                        }
                    ]
                ], 
                [
                    48240, 
                    [
                        {
                            "pitch": 47, 
                            "t0": 48240, 
                            "v": 100, 
                            "dur": 120, 
                            "type": "note", 
                            "channel": 0
                        }
                    ]
                ], 
                [
                    48360, 
                    [
                        {
                            "pitch": 50, 
                            "t0": 48360, 
                            "v": 100, 
                            "dur": 120, 
                            "type": "note", 
                            "channel": 0
                        }
                    ]
                ], 
                [
                    48480, 
                    [
                        {
                            "pitch": 55, 
                            "t0": 48480, 
                            "v": 100, 
                            "dur": 120, 
                            "type": "note", 
                            "channel": 0
                        }
                    ]
                ], 
                [
                    48600, 
                    [
                        {
                            "pitch": 57, 
                            "t0": 48600, 
                            "v": 100, 
                            "dur": 120, 
                            "type": "note", 
                            "channel": 0
                        }
                    ]
                ], 
                [
                    48720, 
                    [
                        {
                            "pitch": 59, 
                            "t0": 48720, 
                            "v": 100, 
                            "dur": 120, 
                            "type": "note", 
                            "channel": 0
                        }
                    ]
                ], 
                [
                    48840, 
                    [
                        {
                            "pitch": 55, 
                            "t0": 48840, 
                            "v": 100, 
                            "dur": 120, 
                            "type": "note", 
                            "channel": 0
                        }
                    ]
                ], 
                [
                    48960, 
                    [
                        {
                            "pitch": 61, 
                            "t0": 48960, 
                            "v": 100, 
                            "dur": 120, 
                            "type": "note", 
                            "channel": 0
                        }
                    ]
                ], 
                [
                    49080, 
                    [
                        {
                            "pitch": 59, 
                            "t0": 49080, 
                            "v": 100, 
                            "dur": 120, 
                            "type": "note", 
                            "channel": 0
                        }
                    ]
                ], 
                [
                    49200, 
                    [
                        {
                            "pitch": 57, 
                            "t0": 49200, 
                            "v": 100, 
                            "dur": 120, 
                            "type": "note", 
                            "channel": 0
                        }
                    ]
                ], 
                [
                    49320, 
                    [
                        {
                            "pitch": 58, 
                            "t0": 49320, 
                            "v": 100, 
                            "dur": 120, 
                            "type": "note", 
                            "channel": 0
                        }
                    ]
                ], 
                [
                    49440, 
                    [
                        {
                            "pitch": 58, 
                            "t0": 49440, 
                            "v": 100, 
                            "dur": 120, 
                            "type": "note", 
                            "channel": 0
                        }
                    ]
                ], 
                [
                    49560, 
                    [
                        {
                            "pitch": 57, 
                            "t0": 49560, 
                            "v": 100, 
                            "dur": 120, 
                            "type": "note", 
                            "channel": 0
                        }
                    ]
                ], 
                [
                    49680, 
                    [
                        {
                            "pitch": 56, 
                            "t0": 49680, 
                            "v": 100, 
                            "dur": 120, 
                            "type": "note", 
                            "channel": 0
                        }
                    ]
                ], 
                [
                    49800, 
                    [
                        {
                            "pitch": 57, 
                            "t0": 49800, 
                            "v": 100, 
                            "dur": 120, 
                            "type": "note", 
                            "channel": 0
                        }
                    ]
                ], 
                [
                    49920, 
                    [
                        {
                            "pitch": 57, 
                            "t0": 49920, 
                            "v": 100, 
                            "dur": 120, 
                            "type": "note", 
                            "channel": 0
                        }
                    ]
                ], 
                [
                    50040, 
                    [
                        {
                            "pitch": 55, 
                            "t0": 50040, 
                            "v": 100, 
                            "dur": 120, 
                            "type": "note", 
                            "channel": 0
                        }
                    ]
                ], 
                [
                    50160, 
                    [
                        {
                            "pitch": 54, 
                            "t0": 50160, 
                            "v": 100, 
                            "dur": 120, 
                            "type": "note", 
                            "channel": 0
                        }
                    ]
                ], 
                [
                    50280, 
                    [
                        {
                            "pitch": 55, 
                            "t0": 50280, 
                            "v": 100, 
                            "dur": 120, 
                            "type": "note", 
                            "channel": 0
                        }
                    ]
                ], 
                [
                    50400, 
                    [
                        {
                            "pitch": 55, 
                            "t0": 50400, 
                            "v": 100, 
                            "dur": 120, 
                            "type": "note", 
                            "channel": 0
                        }
                    ]
                ], 
                [
                    50520, 
                    [
                        {
                            "pitch": 52, 
                            "t0": 50520, 
                            "v": 100, 
                            "dur": 120, 
                            "type": "note", 
                            "channel": 0
                        }
                    ]
                ], 
                [
                    50640, 
                    [
                        {
                            "pitch": 49, 
                            "t0": 50640, 
                            "v": 100, 
                            "dur": 120, 
                            "type": "note", 
                            "channel": 0
                        }
                    ]
                ], 
                [
                    50760, 
                    [
                        {
                            "pitch": 47, 
                            "t0": 50760, 
                            "v": 100, 
                            "dur": 120, 
                            "type": "note", 
                            "channel": 0
                        }
                    ]
                ], 
                [
                    50880, 
                    [
                        {
                            "pitch": 45, 
                            "t0": 50880, 
                            "v": 100, 
                            "dur": 120, 
                            "type": "note", 
                            "channel": 0
                        }
                    ]
                ], 
                [
                    51000, 
                    [
                        {
                            "pitch": 49, 
                            "t0": 51000, 
                            "v": 100, 
                            "dur": 120, 
                            "type": "note", 
                            "channel": 0
                        }
                    ]
                ], 
                [
                    51120, 
                    [
                        {
                            "pitch": 52, 
                            "t0": 51120, 
                            "v": 100, 
                            "dur": 120, 
                            "type": "note", 
                            "channel": 0
                        }
                    ]
                ], 
                [
                    51240, 
                    [
                        {
                            "pitch": 55, 
                            "t0": 51240, 
                            "v": 100, 
                            "dur": 120, 
                            "type": "note", 
                            "channel": 0
                        }
                    ]
                ], 
                [
                    51360, 
                    [
                        {
                            "pitch": 57, 
                            "t0": 51360, 
                            "v": 100, 
                            "dur": 120, 
                            "type": "note", 
                            "channel": 0
                        }
                    ]
                ], 
                [
                    51480, 
                    [
                        {
                            "pitch": 61, 
                            "t0": 51480, 
                            "v": 100, 
                            "dur": 120, 
                            "type": "note", 
                            "channel": 0
                        }
                    ]
                ], 
                [
                    51600, 
                    [
                        {
                            "pitch": 62, 
                            "t0": 51600, 
                            "v": 100, 
                            "dur": 120, 
                            "type": "note", 
                            "channel": 0
                        }
                    ]
                ], 
                [
                    51720, 
                    [
                        {
                            "pitch": 61, 
                            "t0": 51720, 
                            "v": 100, 
                            "dur": 120, 
                            "type": "note", 
                            "channel": 0
                        }
                    ]
                ], 
                [
                    51840, 
                    [
                        {
                            "pitch": 62, 
                            "t0": 51840, 
                            "v": 100, 
                            "dur": 120, 
                            "type": "note", 
                            "channel": 0
                        }
                    ]
                ], 
                [
                    51960, 
                    [
                        {
                            "pitch": 57, 
                            "t0": 51960, 
                            "v": 100, 
                            "dur": 120, 
                            "type": "note", 
                            "channel": 0
                        }
                    ]
                ], 
                [
                    52080, 
                    [
                        {
                            "pitch": 54, 
                            "t0": 52080, 
                            "v": 100, 
                            "dur": 120, 
                            "type": "note", 
                            "channel": 0
                        }
                    ]
                ], 
                [
                    52200, 
                    [
                        {
                            "pitch": 52, 
                            "t0": 52200, 
                            "v": 100, 
                            "dur": 120, 
                            "type": "note", 
                            "channel": 0
                        }
                    ]
                ], 
                [
                    52320, 
                    [
                        {
                            "pitch": 54, 
                            "t0": 52320, 
                            "v": 100, 
                            "dur": 120, 
                            "type": "note", 
                            "channel": 0
                        }
                    ]
                ], 
                [
                    52440, 
                    [
                        {
                            "pitch": 57, 
                            "t0": 52440, 
                            "v": 100, 
                            "dur": 120, 
                            "type": "note", 
                            "channel": 0
                        }
                    ]
                ], 
                [
                    52560, 
                    [
                        {
                            "pitch": 50, 
                            "t0": 52560, 
                            "v": 100, 
                            "dur": 120, 
                            "type": "note", 
                            "channel": 0
                        }
                    ]
                ], 
                [
                    52680, 
                    [
                        {
                            "pitch": 54, 
                            "t0": 52680, 
                            "v": 100, 
                            "dur": 120, 
                            "type": "note", 
                            "channel": 0
                        }
                    ]
                ], 
                [
                    52800, 
                    [
                        {
                            "pitch": 45, 
                            "t0": 52800, 
                            "v": 100, 
                            "dur": 120, 
                            "type": "note", 
                            "channel": 0
                        }
                    ]
                ], 
                [
                    52920, 
                    [
                        {
                            "pitch": 50, 
                            "t0": 52920, 
                            "v": 100, 
                            "dur": 120, 
                            "type": "note", 
                            "channel": 0
                        }
                    ]
                ], 
                [
                    53040, 
                    [
                        {
                            "pitch": 49, 
                            "t0": 53040, 
                            "v": 100, 
                            "dur": 120, 
                            "type": "note", 
                            "channel": 0
                        }
                    ]
                ], 
                [
                    53160, 
                    [
                        {
                            "pitch": 47, 
                            "t0": 53160, 
                            "v": 100, 
                            "dur": 120, 
                            "type": "note", 
                            "channel": 0
                        }
                    ]
                ], 
                [
                    53280, 
                    [
                        {
                            "pitch": 45, 
                            "t0": 53280, 
                            "v": 100, 
                            "dur": 120, 
                            "type": "note", 
                            "channel": 0
                        }
                    ]
                ], 
                [
                    53400, 
                    [
                        {
                            "pitch": 43, 
                            "t0": 53400, 
                            "v": 100, 
                            "dur": 120, 
                            "type": "note", 
                            "channel": 0
                        }
                    ]
                ], 
                [
                    53520, 
                    [
                        {
                            "pitch": 42, 
                            "t0": 53520, 
                            "v": 100, 
                            "dur": 120, 
                            "type": "note", 
                            "channel": 0
                        }
                    ]
                ], 
                [
                    53640, 
                    [
                        {
                            "pitch": 40, 
                            "t0": 53640, 
                            "v": 100, 
                            "dur": 120, 
                            "type": "note", 
                            "channel": 0
                        }
                    ]
                ], 
                [
                    53760, 
                    [
                        {
                            "pitch": 38, 
                            "t0": 53760, 
                            "v": 100, 
                            "dur": 240, 
                            "type": "note", 
                            "channel": 0
                        }
                    ]
                ], 
                [
                    54000, 
                    [
                        {
                            "pitch": 60, 
                            "t0": 54000, 
                            "v": 100, 
                            "dur": 120, 
                            "type": "note", 
                            "channel": 0
                        }
                    ]
                ], 
                [
                    54120, 
                    [
                        {
                            "pitch": 59, 
                            "t0": 54120, 
                            "v": 100, 
                            "dur": 120, 
                            "type": "note", 
                            "channel": 0
                        }
                    ]
                ], 
                [
                    54240, 
                    [
                        {
                            "pitch": 57, 
                            "t0": 54240, 
                            "v": 100, 
                            "dur": 120, 
                            "type": "note", 
                            "channel": 0
                        }
                    ]
                ], 
                [
                    54360, 
                    [
                        {
                            "pitch": 55, 
                            "t0": 54360, 
                            "v": 100, 
                            "dur": 120, 
                            "type": "note", 
                            "channel": 0
                        }
                    ]
                ], 
                [
                    54480, 
                    [
                        {
                            "pitch": 54, 
                            "t0": 54480, 
                            "v": 100, 
                            "dur": 120, 
                            "type": "note", 
                            "channel": 0
                        }
                    ]
                ], 
                [
                    54600, 
                    [
                        {
                            "pitch": 52, 
                            "t0": 54600, 
                            "v": 100, 
                            "dur": 120, 
                            "type": "note", 
                            "channel": 0
                        }
                    ]
                ], 
                [
                    54720, 
                    [
                        {
                            "pitch": 50, 
                            "t0": 54720, 
                            "v": 100, 
                            "dur": 120, 
                            "type": "note", 
                            "channel": 0
                        }
                    ]
                ], 
                [
                    54840, 
                    [
                        {
                            "pitch": 60, 
                            "t0": 54840, 
                            "v": 100, 
                            "dur": 120, 
                            "type": "note", 
                            "channel": 0
                        }
                    ]
                ], 
                [
                    54960, 
                    [
                        {
                            "pitch": 59, 
                            "t0": 54960, 
                            "v": 100, 
                            "dur": 120, 
                            "type": "note", 
                            "channel": 0
                        }
                    ]
                ], 
                [
                    55080, 
                    [
                        {
                            "pitch": 57, 
                            "t0": 55080, 
                            "v": 100, 
                            "dur": 120, 
                            "type": "note", 
                            "channel": 0
                        }
                    ]
                ], 
                [
                    55200, 
                    [
                        {
                            "pitch": 55, 
                            "t0": 55200, 
                            "v": 100, 
                            "dur": 120, 
                            "type": "note", 
                            "channel": 0
                        }
                    ]
                ], 
                [
                    55320, 
                    [
                        {
                            "pitch": 54, 
                            "t0": 55320, 
                            "v": 100, 
                            "dur": 120, 
                            "type": "note", 
                            "channel": 0
                        }
                    ]
                ], 
                [
                    55440, 
                    [
                        {
                            "pitch": 52, 
                            "t0": 55440, 
                            "v": 100, 
                            "dur": 120, 
                            "type": "note", 
                            "channel": 0
                        }
                    ]
                ], 
                [
                    55560, 
                    [
                        {
                            "pitch": 50, 
                            "t0": 55560, 
                            "v": 100, 
                            "dur": 120, 
                            "type": "note", 
                            "channel": 0
                        }
                    ]
                ], 
                [
                    55680, 
                    [
                        {
                            "pitch": 48, 
                            "t0": 55680, 
                            "v": 100, 
                            "dur": 120, 
                            "type": "note", 
                            "channel": 0
                        }
                    ]
                ], 
                [
                    55800, 
                    [
                        {
                            "pitch": 59, 
                            "t0": 55800, 
                            "v": 100, 
                            "dur": 120, 
                            "type": "note", 
                            "channel": 0
                        }
                    ]
                ], 
                [
                    55920, 
                    [
                        {
                            "pitch": 57, 
                            "t0": 55920, 
                            "v": 100, 
                            "dur": 120, 
                            "type": "note", 
                            "channel": 0
                        }
                    ]
                ], 
                [
                    56040, 
                    [
                        {
                            "pitch": 55, 
                            "t0": 56040, 
                            "v": 100, 
                            "dur": 120, 
                            "type": "note", 
                            "channel": 0
                        }
                    ]
                ], 
                [
                    56160, 
                    [
                        {
                            "pitch": 54, 
                            "t0": 56160, 
                            "v": 100, 
                            "dur": 120, 
                            "type": "note", 
                            "channel": 0
                        }
                    ]
                ], 
                [
                    56280, 
                    [
                        {
                            "pitch": 52, 
                            "t0": 56280, 
                            "v": 100, 
                            "dur": 120, 
                            "type": "note", 
                            "channel": 0
                        }
                    ]
                ], 
                [
                    56400, 
                    [
                        {
                            "pitch": 50, 
                            "t0": 56400, 
                            "v": 100, 
                            "dur": 120, 
                            "type": "note", 
                            "channel": 0
                        }
                    ]
                ], 
                [
                    56520, 
                    [
                        {
                            "pitch": 48, 
                            "t0": 56520, 
                            "v": 100, 
                            "dur": 120, 
                            "type": "note", 
                            "channel": 0
                        }
                    ]
                ], 
                [
                    56640, 
                    [
                        {
                            "pitch": 47, 
                            "t0": 56640, 
                            "v": 100, 
                            "dur": 120, 
                            "type": "note", 
                            "channel": 0
                        }
                    ]
                ], 
                [
                    56760, 
                    [
                        {
                            "pitch": 57, 
                            "t0": 56760, 
                            "v": 100, 
                            "dur": 120, 
                            "type": "note", 
                            "channel": 0
                        }
                    ]
                ], 
                [
                    56880, 
                    [
                        {
                            "pitch": 55, 
                            "t0": 56880, 
                            "v": 100, 
                            "dur": 120, 
                            "type": "note", 
                            "channel": 0
                        }
                    ]
                ], 
                [
                    57000, 
                    [
                        {
                            "pitch": 54, 
                            "t0": 57000, 
                            "v": 100, 
                            "dur": 120, 
                            "type": "note", 
                            "channel": 0
                        }
                    ]
                ], 
                [
                    57120, 
                    [
                        {
                            "pitch": 52, 
                            "t0": 57120, 
                            "v": 100, 
                            "dur": 120, 
                            "type": "note", 
                            "channel": 0
                        }
                    ]
                ], 
                [
                    57240, 
                    [
                        {
                            "pitch": 50, 
                            "t0": 57240, 
                            "v": 100, 
                            "dur": 120, 
                            "type": "note", 
                            "channel": 0
                        }
                    ]
                ], 
                [
                    57360, 
                    [
                        {
                            "pitch": 48, 
                            "t0": 57360, 
                            "v": 100, 
                            "dur": 120, 
                            "type": "note", 
                            "channel": 0
                        }
                    ]
                ], 
                [
                    57480, 
                    [
                        {
                            "pitch": 47, 
                            "t0": 57480, 
                            "v": 100, 
                            "dur": 120, 
                            "type": "note", 
                            "channel": 0
                        }
                    ]
                ], 
                [
                    57600, 
                    [
                        {
                            "pitch": 45, 
                            "t0": 57600, 
                            "v": 100, 
                            "dur": 120, 
                            "type": "note", 
                            "channel": 0
                        }
                    ]
                ], 
                [
                    57720, 
                    [
                        {
                            "pitch": 55, 
                            "t0": 57720, 
                            "v": 100, 
                            "dur": 120, 
                            "type": "note", 
                            "channel": 0
                        }
                    ]
                ], 
                [
                    57840, 
                    [
                        {
                            "pitch": 54, 
                            "t0": 57840, 
                            "v": 100, 
                            "dur": 120, 
                            "type": "note", 
                            "channel": 0
                        }
                    ]
                ], 
                [
                    57960, 
                    [
                        {
                            "pitch": 52, 
                            "t0": 57960, 
                            "v": 100, 
                            "dur": 120, 
                            "type": "note", 
                            "channel": 0
                        }
                    ]
                ], 
                [
                    58080, 
                    [
                        {
                            "pitch": 54, 
                            "t0": 58080, 
                            "v": 100, 
                            "dur": 120, 
                            "type": "note", 
                            "channel": 0
                        }
                    ]
                ], 
                [
                    58320, 
                    [
                        {
                            "pitch": 50, 
                            "t0": 58320, 
                            "v": 100, 
                            "dur": 120, 
                            "type": "note", 
                            "channel": 0
                        }
                    ]
                ], 
                [
                    58560, 
                    [
                        {
                            "pitch": 52, 
                            "t0": 58560, 
                            "v": 100, 
                            "dur": 120, 
                            "type": "note", 
                            "channel": 0
                        }
                    ]
                ], 
                [
                    58800, 
                    [
                        {
                            "pitch": 54, 
                            "t0": 58800, 
                            "v": 100, 
                            "dur": 120, 
                            "type": "note", 
                            "channel": 0
                        }
                    ]
                ], 
                [
                    59040, 
                    [
                        {
                            "pitch": 55, 
                            "t0": 59040, 
                            "v": 100, 
                            "dur": 120, 
                            "type": "note", 
                            "channel": 0
                        }
                    ]
                ], 
                [
                    59280, 
                    [
                        {
                            "pitch": 52, 
                            "t0": 59280, 
                            "v": 100, 
                            "dur": 120, 
                            "type": "note", 
                            "channel": 0
                        }
                    ]
                ], 
                [
                    59520, 
                    [
                        {
                            "pitch": 54, 
                            "t0": 59520, 
                            "v": 100, 
                            "dur": 120, 
                            "type": "note", 
                            "channel": 0
                        }
                    ]
                ], 
                [
                    59760, 
                    [
                        {
                            "pitch": 50, 
                            "t0": 59760, 
                            "v": 100, 
                            "dur": 120, 
                            "type": "note", 
                            "channel": 0
                        }
                    ]
                ], 
                [
                    60000, 
                    [
                        {
                            "pitch": 55, 
                            "t0": 60000, 
                            "v": 100, 
                            "dur": 120, 
                            "type": "note", 
                            "channel": 0
                        }
                    ]
                ], 
                [
                    60240, 
                    [
                        {
                            "pitch": 52, 
                            "t0": 60240, 
                            "v": 100, 
                            "dur": 120, 
                            "type": "note", 
                            "channel": 0
                        }
                    ]
                ], 
                [
                    60480, 
                    [
                        {
                            "pitch": 54, 
                            "t0": 60480, 
                            "v": 100, 
                            "dur": 120, 
                            "type": "note", 
                            "channel": 0
                        }
                    ]
                ], 
                [
                    60720, 
                    [
                        {
                            "pitch": 50, 
                            "t0": 60720, 
                            "v": 100, 
                            "dur": 120, 
                            "type": "note", 
                            "channel": 0
                        }
                    ]
                ], 
                [
                    60960, 
                    [
                        {
                            "pitch": 55, 
                            "t0": 60960, 
                            "v": 100, 
                            "dur": 120, 
                            "type": "note", 
                            "channel": 0
                        }
                    ]
                ], 
                [
                    61200, 
                    [
                        {
                            "pitch": 52, 
                            "t0": 61200, 
                            "v": 100, 
                            "dur": 120, 
                            "type": "note", 
                            "channel": 0
                        }
                    ]
                ], 
                [
                    61440, 
                    [
                        {
                            "pitch": 54, 
                            "t0": 61440, 
                            "v": 100, 
                            "dur": 120, 
                            "type": "note", 
                            "channel": 0
                        }
                    ]
                ], 
                [
                    61680, 
                    [
                        {
                            "pitch": 50, 
                            "t0": 61680, 
                            "v": 100, 
                            "dur": 120, 
                            "type": "note", 
                            "channel": 0
                        }
                    ]
                ], 
                [
                    61920, 
                    [
                        {
                            "pitch": 52, 
                            "t0": 61920, 
                            "v": 100, 
                            "dur": 120, 
                            "type": "note", 
                            "channel": 0
                        }
                    ]
                ], 
                [
                    62160, 
                    [
                        {
                            "pitch": 54, 
                            "t0": 62160, 
                            "v": 100, 
                            "dur": 120, 
                            "type": "note", 
                            "channel": 0
                        }
                    ]
                ], 
                [
                    62400, 
                    [
                        {
                            "pitch": 55, 
                            "t0": 62400, 
                            "v": 100, 
                            "dur": 120, 
                            "type": "note", 
                            "channel": 0
                        }
                    ]
                ], 
                [
                    62640, 
                    [
                        {
                            "pitch": 57, 
                            "t0": 62640, 
                            "v": 100, 
                            "dur": 120, 
                            "type": "note", 
                            "channel": 0
                        }
                    ]
                ], 
                [
                    62880, 
                    [
                        {
                            "pitch": 59, 
                            "t0": 62880, 
                            "v": 100, 
                            "dur": 120, 
                            "type": "note", 
                            "channel": 0
                        }
                    ]
                ], 
                [
                    63120, 
                    [
                        {
                            "pitch": 50, 
                            "t0": 63120, 
                            "v": 100, 
                            "dur": 120, 
                            "type": "note", 
                            "channel": 0
                        }
                    ]
                ], 
                [
                    63360, 
                    [
                        {
                            "pitch": 57, 
                            "t0": 63360, 
                            "v": 100, 
                            "dur": 120, 
                            "type": "note", 
                            "channel": 0
                        }
                    ]
                ], 
                [
                    63600, 
                    [
                        {
                            "pitch": 59, 
                            "t0": 63600, 
                            "v": 100, 
                            "dur": 120, 
                            "type": "note", 
                            "channel": 0
                        }
                    ]
                ], 
                [
                    63840, 
                    [
                        {
                            "pitch": 60, 
                            "t0": 63840, 
                            "v": 100, 
                            "dur": 120, 
                            "type": "note", 
                            "channel": 0
                        }
                    ]
                ], 
                [
                    64080, 
                    [
                        {
                            "pitch": 50, 
                            "t0": 64080, 
                            "v": 100, 
                            "dur": 120, 
                            "type": "note", 
                            "channel": 0
                        }
                    ]
                ], 
                [
                    64320, 
                    [
                        {
                            "pitch": 59, 
                            "t0": 64320, 
                            "v": 100, 
                            "dur": 120, 
                            "type": "note", 
                            "channel": 0
                        }
                    ]
                ], 
                [
                    64560, 
                    [
                        {
                            "pitch": 60, 
                            "t0": 64560, 
                            "v": 100, 
                            "dur": 120, 
                            "type": "note", 
                            "channel": 0
                        }
                    ]
                ], 
                [
                    64800, 
                    [
                        {
                            "pitch": 62, 
                            "t0": 64800, 
                            "v": 100, 
                            "dur": 120, 
                            "type": "note", 
                            "channel": 0
                        }
                    ]
                ], 
                [
                    65040, 
                    [
                        {
                            "pitch": 59, 
                            "t0": 65040, 
                            "v": 100, 
                            "dur": 120, 
                            "type": "note", 
                            "channel": 0
                        }
                    ]
                ], 
                [
                    65280, 
                    [
                        {
                            "pitch": 60, 
                            "t0": 65280, 
                            "v": 100, 
                            "dur": 120, 
                            "type": "note", 
                            "channel": 0
                        }
                    ]
                ], 
                [
                    65520, 
                    [
                        {
                            "pitch": 59, 
                            "t0": 65520, 
                            "v": 100, 
                            "dur": 120, 
                            "type": "note", 
                            "channel": 0
                        }
                    ]
                ], 
                [
                    65760, 
                    [
                        {
                            "pitch": 60, 
                            "t0": 65760, 
                            "v": 100, 
                            "dur": 120, 
                            "type": "note", 
                            "channel": 0
                        }
                    ]
                ], 
                [
                    66000, 
                    [
                        {
                            "pitch": 57, 
                            "t0": 66000, 
                            "v": 100, 
                            "dur": 120, 
                            "type": "note", 
                            "channel": 0
                        }
                    ]
                ], 
                [
                    66240, 
                    [
                        {
                            "pitch": 59, 
                            "t0": 66240, 
                            "v": 100, 
                            "dur": 120, 
                            "type": "note", 
                            "channel": 0
                        }
                    ]
                ], 
                [
                    66480, 
                    [
                        {
                            "pitch": 57, 
                            "t0": 66480, 
                            "v": 100, 
                            "dur": 120, 
                            "type": "note", 
                            "channel": 0
                        }
                    ]
                ], 
                [
                    66720, 
                    [
                        {
                            "pitch": 59, 
                            "t0": 66720, 
                            "v": 100, 
                            "dur": 120, 
                            "type": "note", 
                            "channel": 0
                        }
                    ]
                ], 
                [
                    66960, 
                    [
                        {
                            "pitch": 55, 
                            "t0": 66960, 
                            "v": 100, 
                            "dur": 120, 
                            "type": "note", 
                            "channel": 0
                        }
                    ]
                ], 
                [
                    67200, 
                    [
                        {
                            "pitch": 57, 
                            "t0": 67200, 
                            "v": 100, 
                            "dur": 120, 
                            "type": "note", 
                            "channel": 0
                        }
                    ]
                ], 
                [
                    67440, 
                    [
                        {
                            "pitch": 55, 
                            "t0": 67440, 
                            "v": 100, 
                            "dur": 120, 
                            "type": "note", 
                            "channel": 0
                        }
                    ]
                ], 
                [
                    67680, 
                    [
                        {
                            "pitch": 57, 
                            "t0": 67680, 
                            "v": 100, 
                            "dur": 120, 
                            "type": "note", 
                            "channel": 0
                        }
                    ]
                ], 
                [
                    67920, 
                    [
                        {
                            "pitch": 54, 
                            "t0": 67920, 
                            "v": 100, 
                            "dur": 120, 
                            "type": "note", 
                            "channel": 0
                        }
                    ]
                ], 
                [
                    68160, 
                    [
                        {
                            "pitch": 55, 
                            "t0": 68160, 
                            "v": 100, 
                            "dur": 120, 
                            "type": "note", 
                            "channel": 0
                        }
                    ]
                ], 
                [
                    68400, 
                    [
                        {
                            "pitch": 54, 
                            "t0": 68400, 
                            "v": 100, 
                            "dur": 120, 
                            "type": "note", 
                            "channel": 0
                        }
                    ]
                ], 
                [
                    68640, 
                    [
                        {
                            "pitch": 55, 
                            "t0": 68640, 
                            "v": 100, 
                            "dur": 120, 
                            "type": "note", 
                            "channel": 0
                        }
                    ]
                ], 
                [
                    68880, 
                    [
                        {
                            "pitch": 52, 
                            "t0": 68880, 
                            "v": 100, 
                            "dur": 120, 
                            "type": "note", 
                            "channel": 0
                        }
                    ]
                ], 
                [
                    69120, 
                    [
                        {
                            "pitch": 54, 
                            "t0": 69120, 
                            "v": 100, 
                            "dur": 120, 
                            "type": "note", 
                            "channel": 0
                        }
                    ]
                ], 
                [
                    69360, 
                    [
                        {
                            "pitch": 50, 
                            "t0": 69360, 
                            "v": 100, 
                            "dur": 120, 
                            "type": "note", 
                            "channel": 0
                        }
                    ]
                ], 
                [
                    69480, 
                    [
                        {
                            "pitch": 52, 
                            "t0": 69480, 
                            "v": 100, 
                            "dur": 120, 
                            "type": "note", 
                            "channel": 0
                        }
                    ]
                ], 
                [
                    69600, 
                    [
                        {
                            "pitch": 53, 
                            "t0": 69600, 
                            "v": 100, 
                            "dur": 120, 
                            "type": "note", 
                            "channel": 0
                        }
                    ]
                ], 
                [
                    69840, 
                    [
                        {
                            "pitch": 54, 
                            "t0": 69840, 
                            "v": 100, 
                            "dur": 120, 
                            "type": "note", 
                            "channel": 0
                        }
                    ]
                ], 
                [
                    70080, 
                    [
                        {
                            "pitch": 55, 
                            "t0": 70080, 
                            "v": 100, 
                            "dur": 120, 
                            "type": "note", 
                            "channel": 0
                        }
                    ]
                ], 
                [
                    70320, 
                    [
                        {
                            "pitch": 56, 
                            "t0": 70320, 
                            "v": 100, 
                            "dur": 120, 
                            "type": "note", 
                            "channel": 0
                        }
                    ]
                ], 
                [
                    70560, 
                    [
                        {
                            "pitch": 57, 
                            "t0": 70560, 
                            "v": 100, 
                            "dur": 120, 
                            "type": "note", 
                            "channel": 0
                        }
                    ]
                ], 
                [
                    70800, 
                    [
                        {
                            "pitch": 58, 
                            "t0": 70800, 
                            "v": 100, 
                            "dur": 120, 
                            "type": "note", 
                            "channel": 0
                        }
                    ]
                ], 
                [
                    71040, 
                    [
                        {
                            "pitch": 59, 
                            "t0": 71040, 
                            "v": 100, 
                            "dur": 120, 
                            "type": "note", 
                            "channel": 0
                        }
                    ]
                ], 
                [
                    71280, 
                    [
                        {
                            "pitch": 60, 
                            "t0": 71280, 
                            "v": 100, 
                            "dur": 120, 
                            "type": "note", 
                            "channel": 0
                        }
                    ]
                ], 
                [
                    71520, 
                    [
                        {
                            "pitch": 61, 
                            "t0": 71520, 
                            "v": 100, 
                            "dur": 120, 
                            "type": "note", 
                            "channel": 0
                        }
                    ]
                ], 
                [
                    71760, 
                    [
                        {
                            "pitch": 62, 
                            "t0": 71760, 
                            "v": 100, 
                            "dur": 120, 
                            "type": "note", 
                            "channel": 0
                        }
                    ]
                ], 
                [
                    72000, 
                    [
                        {
                            "pitch": 63, 
                            "t0": 72000, 
                            "v": 100, 
                            "dur": 120, 
                            "type": "note", 
                            "channel": 0
                        }
                    ]
                ], 
                [
                    72240, 
                    [
                        {
                            "pitch": 64, 
                            "t0": 72240, 
                            "v": 100, 
                            "dur": 120, 
                            "type": "note", 
                            "channel": 0
                        }
                    ]
                ], 
                [
                    72480, 
                    [
                        {
                            "pitch": 65, 
                            "t0": 72480, 
                            "v": 100, 
                            "dur": 120, 
                            "type": "note", 
                            "channel": 0
                        }
                    ]
                ], 
                [
                    72720, 
                    [
                        {
                            "pitch": 66, 
                            "t0": 72720, 
                            "v": 100, 
                            "dur": 120, 
                            "type": "note", 
                            "channel": 0
                        }
                    ]
                ], 
                [
                    72960, 
                    [
                        {
                            "pitch": 67, 
                            "t0": 72960, 
                            "v": 100, 
                            "dur": 120, 
                            "type": "note", 
                            "channel": 0
                        }
                    ]
                ], 
                [
                    73080, 
                    [
                        {
                            "pitch": 59, 
                            "t0": 73080, 
                            "v": 100, 
                            "dur": 120, 
                            "type": "note", 
                            "channel": 0
                        }
                    ]
                ], 
                [
                    73200, 
                    [
                        {
                            "pitch": 50, 
                            "t0": 73200, 
                            "v": 100, 
                            "dur": 120, 
                            "type": "note", 
                            "channel": 0
                        }
                    ]
                ], 
                [
                    73320, 
                    [
                        {
                            "pitch": 59, 
                            "t0": 73320, 
                            "v": 100, 
                            "dur": 120, 
                            "type": "note", 
                            "channel": 0
                        }
                    ]
                ], 
                [
                    73440, 
                    [
                        {
                            "pitch": 67, 
                            "t0": 73440, 
                            "v": 100, 
                            "dur": 120, 
                            "type": "note", 
                            "channel": 0
                        }
                    ]
                ], 
                [
                    73560, 
                    [
                        {
                            "pitch": 59, 
                            "t0": 73560, 
                            "v": 100, 
                            "dur": 120, 
                            "type": "note", 
                            "channel": 0
                        }
                    ]
                ], 
                [
                    73680, 
                    [
                        {
                            "pitch": 67, 
                            "t0": 73680, 
                            "v": 100, 
                            "dur": 120, 
                            "type": "note", 
                            "channel": 0
                        }
                    ]
                ], 
                [
                    73800, 
                    [
                        {
                            "pitch": 59, 
                            "t0": 73800, 
                            "v": 100, 
                            "dur": 120, 
                            "type": "note", 
                            "channel": 0
                        }
                    ]
                ], 
                [
                    73920, 
                    [
                        {
                            "pitch": 67, 
                            "t0": 73920, 
                            "v": 100, 
                            "dur": 120, 
                            "type": "note", 
                            "channel": 0
                        }
                    ]
                ], 
                [
                    74040, 
                    [
                        {
                            "pitch": 59, 
                            "t0": 74040, 
                            "v": 100, 
                            "dur": 120, 
                            "type": "note", 
                            "channel": 0
                        }
                    ]
                ], 
                [
                    74160, 
                    [
                        {
                            "pitch": 50, 
                            "t0": 74160, 
                            "v": 100, 
                            "dur": 120, 
                            "type": "note", 
                            "channel": 0
                        }
                    ]
                ], 
                [
                    74280, 
                    [
                        {
                            "pitch": 59, 
                            "t0": 74280, 
                            "v": 100, 
                            "dur": 120, 
                            "type": "note", 
                            "channel": 0
                        }
                    ]
                ], 
                [
                    74400, 
                    [
                        {
                            "pitch": 67, 
                            "t0": 74400, 
                            "v": 100, 
                            "dur": 120, 
                            "type": "note", 
                            "channel": 0
                        }
                    ]
                ], 
                [
                    74520, 
                    [
                        {
                            "pitch": 59, 
                            "t0": 74520, 
                            "v": 100, 
                            "dur": 120, 
                            "type": "note", 
                            "channel": 0
                        }
                    ]
                ], 
                [
                    74640, 
                    [
                        {
                            "pitch": 67, 
                            "t0": 74640, 
                            "v": 100, 
                            "dur": 120, 
                            "type": "note", 
                            "channel": 0
                        }
                    ]
                ], 
                [
                    74760, 
                    [
                        {
                            "pitch": 59, 
                            "t0": 74760, 
                            "v": 100, 
                            "dur": 120, 
                            "type": "note", 
                            "channel": 0
                        }
                    ]
                ], 
                [
                    74880, 
                    [
                        {
                            "pitch": 67, 
                            "t0": 74880, 
                            "v": 100, 
                            "dur": 120, 
                            "type": "note", 
                            "channel": 0
                        }
                    ]
                ], 
                [
                    75000, 
                    [
                        {
                            "pitch": 57, 
                            "t0": 75000, 
                            "v": 100, 
                            "dur": 120, 
                            "type": "note", 
                            "channel": 0
                        }
                    ]
                ], 
                [
                    75120, 
                    [
                        {
                            "pitch": 50, 
                            "t0": 75120, 
                            "v": 100, 
                            "dur": 120, 
                            "type": "note", 
                            "channel": 0
                        }
                    ]
                ], 
                [
                    75240, 
                    [
                        {
                            "pitch": 57, 
                            "t0": 75240, 
                            "v": 100, 
                            "dur": 120, 
                            "type": "note", 
                            "channel": 0
                        }
                    ]
                ], 
                [
                    75360, 
                    [
                        {
                            "pitch": 67, 
                            "t0": 75360, 
                            "v": 100, 
                            "dur": 120, 
                            "type": "note", 
                            "channel": 0
                        }
                    ]
                ], 
                [
                    75480, 
                    [
                        {
                            "pitch": 57, 
                            "t0": 75480, 
                            "v": 100, 
                            "dur": 120, 
                            "type": "note", 
                            "channel": 0
                        }
                    ]
                ], 
                [
                    75600, 
                    [
                        {
                            "pitch": 67, 
                            "t0": 75600, 
                            "v": 100, 
                            "dur": 120, 
                            "type": "note", 
                            "channel": 0
                        }
                    ]
                ], 
                [
                    75720, 
                    [
                        {
                            "pitch": 57, 
                            "t0": 75720, 
                            "v": 100, 
                            "dur": 120, 
                            "type": "note", 
                            "channel": 0
                        }
                    ]
                ], 
                [
                    75840, 
                    [
                        {
                            "pitch": 67, 
                            "t0": 75840, 
                            "v": 100, 
                            "dur": 120, 
                            "type": "note", 
                            "channel": 0
                        }
                    ]
                ], 
                [
                    75960, 
                    [
                        {
                            "pitch": 57, 
                            "t0": 75960, 
                            "v": 100, 
                            "dur": 120, 
                            "type": "note", 
                            "channel": 0
                        }
                    ]
                ], 
                [
                    76080, 
                    [
                        {
                            "pitch": 50, 
                            "t0": 76080, 
                            "v": 100, 
                            "dur": 120, 
                            "type": "note", 
                            "channel": 0
                        }
                    ]
                ], 
                [
                    76200, 
                    [
                        {
                            "pitch": 57, 
                            "t0": 76200, 
                            "v": 100, 
                            "dur": 120, 
                            "type": "note", 
                            "channel": 0
                        }
                    ]
                ], 
                [
                    76320, 
                    [
                        {
                            "pitch": 67, 
                            "t0": 76320, 
                            "v": 100, 
                            "dur": 120, 
                            "type": "note", 
                            "channel": 0
                        }
                    ]
                ], 
                [
                    76440, 
                    [
                        {
                            "pitch": 57, 
                            "t0": 76440, 
                            "v": 100, 
                            "dur": 120, 
                            "type": "note", 
                            "channel": 0
                        }
                    ]
                ], 
                [
                    76560, 
                    [
                        {
                            "pitch": 67, 
                            "t0": 76560, 
                            "v": 100, 
                            "dur": 120, 
                            "type": "note", 
                            "channel": 0
                        }
                    ]
                ], 
                [
                    76680, 
                    [
                        {
                            "pitch": 57, 
                            "t0": 76680, 
                            "v": 100, 
                            "dur": 120, 
                            "type": "note", 
                            "channel": 0
                        }
                    ]
                ], 
                [
                    76800, 
                    [
                        {
                            "pitch": 66, 
                            "t0": 76800, 
                            "v": 100, 
                            "dur": 120, 
                            "type": "note", 
                            "channel": 0
                        }
                    ]
                ], 
                [
                    76920, 
                    [
                        {
                            "pitch": 60, 
                            "t0": 76920, 
                            "v": 100, 
                            "dur": 120, 
                            "type": "note", 
                            "channel": 0
                        }
                    ]
                ], 
                [
                    77040, 
                    [
                        {
                            "pitch": 50, 
                            "t0": 77040, 
                            "v": 100, 
                            "dur": 120, 
                            "type": "note", 
                            "channel": 0
                        }
                    ]
                ], 
                [
                    77160, 
                    [
                        {
                            "pitch": 60, 
                            "t0": 77160, 
                            "v": 100, 
                            "dur": 120, 
                            "type": "note", 
                            "channel": 0
                        }
                    ]
                ], 
                [
                    77280, 
                    [
                        {
                            "pitch": 66, 
                            "t0": 77280, 
                            "v": 100, 
                            "dur": 120, 
                            "type": "note", 
                            "channel": 0
                        }
                    ]
                ], 
                [
                    77400, 
                    [
                        {
                            "pitch": 60, 
                            "t0": 77400, 
                            "v": 100, 
                            "dur": 120, 
                            "type": "note", 
                            "channel": 0
                        }
                    ]
                ], 
                [
                    77520, 
                    [
                        {
                            "pitch": 66, 
                            "t0": 77520, 
                            "v": 100, 
                            "dur": 120, 
                            "type": "note", 
                            "channel": 0
                        }
                    ]
                ], 
                [
                    77640, 
                    [
                        {
                            "pitch": 60, 
                            "t0": 77640, 
                            "v": 100, 
                            "dur": 120, 
                            "type": "note", 
                            "channel": 0
                        }
                    ]
                ], 
                [
                    77760, 
                    [
                        {
                            "pitch": 66, 
                            "t0": 77760, 
                            "v": 100, 
                            "dur": 120, 
                            "type": "note", 
                            "channel": 0
                        }
                    ]
                ], 
                [
                    77880, 
                    [
                        {
                            "pitch": 60, 
                            "t0": 77880, 
                            "v": 100, 
                            "dur": 120, 
                            "type": "note", 
                            "channel": 0
                        }
                    ]
                ], 
                [
                    78000, 
                    [
                        {
                            "pitch": 50, 
                            "t0": 78000, 
                            "v": 100, 
                            "dur": 120, 
                            "type": "note", 
                            "channel": 0
                        }
                    ]
                ], 
                [
                    78120, 
                    [
                        {
                            "pitch": 60, 
                            "t0": 78120, 
                            "v": 100, 
                            "dur": 120, 
                            "type": "note", 
                            "channel": 0
                        }
                    ]
                ], 
                [
                    78240, 
                    [
                        {
                            "pitch": 66, 
                            "t0": 78240, 
                            "v": 100, 
                            "dur": 120, 
                            "type": "note", 
                            "channel": 0
                        }
                    ]
                ], 
                [
                    78360, 
                    [
                        {
                            "pitch": 60, 
                            "t0": 78360, 
                            "v": 100, 
                            "dur": 120, 
                            "type": "note", 
                            "channel": 0
                        }
                    ]
                ], 
                [
                    78480, 
                    [
                        {
                            "pitch": 66, 
                            "t0": 78480, 
                            "v": 100, 
                            "dur": 120, 
                            "type": "note", 
                            "channel": 0
                        }
                    ]
                ], 
                [
                    78600, 
                    [
                        {
                            "pitch": 60, 
                            "t0": 78600, 
                            "v": 100, 
                            "dur": 120, 
                            "type": "note", 
                            "channel": 0
                        }
                    ]
                ], 
                [
                    78720, 
                    [
                        {
                            "pitch": 67, 
                            "t0": 78720, 
                            "v": 100, 
                            "dur": 1920, 
                            "type": "note", 
                            "channel": 0
                        }
                    ]
                ]
            ], 
            "instruments": [
                42
            ], 
            "tMax": 80640, 
            "channels": [
                0
            ], 
            "instrument": 42, 
            "numNotes": 593, 
            "type": "TrackObj"
        }, 
        {
            "trackName": "--------------------------------------", 
            "seq": [
                [
                    0, 
                    [
                        {
                            "instrument": 42, 
                            "type": "programChange", 
                            "t0": 0, 
                            "channel": 1
                        }
                    ]
                ], 
                [
                    58200, 
                    [
                        {
                            "pitch": 57, 
                            "t0": 58200, 
                            "v": 85, 
                            "dur": 120, 
                            "type": "note", 
                            "channel": 1
                        }
                    ]
                ], 
                [
                    58440, 
                    [
                        {
                            "pitch": 57, 
                            "t0": 58440, 
                            "v": 85, 
                            "dur": 120, 
                            "type": "note", 
                            "channel": 1
                        }
                    ]
                ], 
                [
                    58680, 
                    [
                        {
                            "pitch": 57, 
                            "t0": 58680, 
                            "v": 85, 
                            "dur": 120, 
                            "type": "note", 
                            "channel": 1
                        }
                    ]
                ], 
                [
                    58920, 
                    [
                        {
                            "pitch": 57, 
                            "t0": 58920, 
                            "v": 85, 
                            "dur": 120, 
                            "type": "note", 
                            "channel": 1
                        }
                    ]
                ], 
                [
                    59160, 
                    [
                        {
                            "pitch": 57, 
                            "t0": 59160, 
                            "v": 85, 
                            "dur": 120, 
                            "type": "note", 
                            "channel": 1
                        }
                    ]
                ], 
                [
                    59400, 
                    [
                        {
                            "pitch": 57, 
                            "t0": 59400, 
                            "v": 85, 
                            "dur": 120, 
                            "type": "note", 
                            "channel": 1
                        }
                    ]
                ], 
                [
                    59640, 
                    [
                        {
                            "pitch": 57, 
                            "t0": 59640, 
                            "v": 85, 
                            "dur": 120, 
                            "type": "note", 
                            "channel": 1
                        }
                    ]
                ], 
                [
                    59880, 
                    [
                        {
                            "pitch": 57, 
                            "t0": 59880, 
                            "v": 85, 
                            "dur": 120, 
                            "type": "note", 
                            "channel": 1
                        }
                    ]
                ], 
                [
                    60120, 
                    [
                        {
                            "pitch": 57, 
                            "t0": 60120, 
                            "v": 85, 
                            "dur": 120, 
                            "type": "note", 
                            "channel": 1
                        }
                    ]
                ], 
                [
                    60360, 
                    [
                        {
                            "pitch": 57, 
                            "t0": 60360, 
                            "v": 85, 
                            "dur": 120, 
                            "type": "note", 
                            "channel": 1
                        }
                    ]
                ], 
                [
                    60600, 
                    [
                        {
                            "pitch": 57, 
                            "t0": 60600, 
                            "v": 85, 
                            "dur": 120, 
                            "type": "note", 
                            "channel": 1
                        }
                    ]
                ], 
                [
                    60840, 
                    [
                        {
                            "pitch": 57, 
                            "t0": 60840, 
                            "v": 85, 
                            "dur": 120, 
                            "type": "note", 
                            "channel": 1
                        }
                    ]
                ], 
                [
                    61080, 
                    [
                        {
                            "pitch": 57, 
                            "t0": 61080, 
                            "v": 85, 
                            "dur": 120, 
                            "type": "note", 
                            "channel": 1
                        }
                    ]
                ], 
                [
                    61320, 
                    [
                        {
                            "pitch": 57, 
                            "t0": 61320, 
                            "v": 85, 
                            "dur": 120, 
                            "type": "note", 
                            "channel": 1
                        }
                    ]
                ], 
                [
                    61560, 
                    [
                        {
                            "pitch": 57, 
                            "t0": 61560, 
                            "v": 85, 
                            "dur": 120, 
                            "type": "note", 
                            "channel": 1
                        }
                    ]
                ], 
                [
                    61800, 
                    [
                        {
                            "pitch": 57, 
                            "t0": 61800, 
                            "v": 85, 
                            "dur": 120, 
                            "type": "note", 
                            "channel": 1
                        }
                    ]
                ], 
                [
                    62040, 
                    [
                        {
                            "pitch": 57, 
                            "t0": 62040, 
                            "v": 85, 
                            "dur": 120, 
                            "type": "note", 
                            "channel": 1
                        }
                    ]
                ], 
                [
                    62280, 
                    [
                        {
                            "pitch": 57, 
                            "t0": 62280, 
                            "v": 85, 
                            "dur": 120, 
                            "type": "note", 
                            "channel": 1
                        }
                    ]
                ], 
                [
                    62520, 
                    [
                        {
                            "pitch": 57, 
                            "t0": 62520, 
                            "v": 85, 
                            "dur": 120, 
                            "type": "note", 
                            "channel": 1
                        }
                    ]
                ], 
                [
                    62760, 
                    [
                        {
                            "pitch": 57, 
                            "t0": 62760, 
                            "v": 85, 
                            "dur": 120, 
                            "type": "note", 
                            "channel": 1
                        }
                    ]
                ], 
                [
                    63000, 
                    [
                        {
                            "pitch": 57, 
                            "t0": 63000, 
                            "v": 85, 
                            "dur": 120, 
                            "type": "note", 
                            "channel": 1
                        }
                    ]
                ], 
                [
                    63240, 
                    [
                        {
                            "pitch": 57, 
                            "t0": 63240, 
                            "v": 85, 
                            "dur": 120, 
                            "type": "note", 
                            "channel": 1
                        }
                    ]
                ], 
                [
                    63480, 
                    [
                        {
                            "pitch": 57, 
                            "t0": 63480, 
                            "v": 85, 
                            "dur": 120, 
                            "type": "note", 
                            "channel": 1
                        }
                    ]
                ], 
                [
                    63720, 
                    [
                        {
                            "pitch": 57, 
                            "t0": 63720, 
                            "v": 85, 
                            "dur": 120, 
                            "type": "note", 
                            "channel": 1
                        }
                    ]
                ], 
                [
                    63960, 
                    [
                        {
                            "pitch": 57, 
                            "t0": 63960, 
                            "v": 85, 
                            "dur": 120, 
                            "type": "note", 
                            "channel": 1
                        }
                    ]
                ], 
                [
                    64200, 
                    [
                        {
                            "pitch": 57, 
                            "t0": 64200, 
                            "v": 85, 
                            "dur": 120, 
                            "type": "note", 
                            "channel": 1
                        }
                    ]
                ], 
                [
                    64440, 
                    [
                        {
                            "pitch": 57, 
                            "t0": 64440, 
                            "v": 85, 
                            "dur": 120, 
                            "type": "note", 
                            "channel": 1
                        }
                    ]
                ], 
                [
                    64680, 
                    [
                        {
                            "pitch": 57, 
                            "t0": 64680, 
                            "v": 85, 
                            "dur": 120, 
                            "type": "note", 
                            "channel": 1
                        }
                    ]
                ], 
                [
                    64920, 
                    [
                        {
                            "pitch": 57, 
                            "t0": 64920, 
                            "v": 85, 
                            "dur": 120, 
                            "type": "note", 
                            "channel": 1
                        }
                    ]
                ], 
                [
                    65160, 
                    [
                        {
                            "pitch": 57, 
                            "t0": 65160, 
                            "v": 85, 
                            "dur": 120, 
                            "type": "note", 
                            "channel": 1
                        }
                    ]
                ], 
                [
                    65400, 
                    [
                        {
                            "pitch": 57, 
                            "t0": 65400, 
                            "v": 85, 
                            "dur": 120, 
                            "type": "note", 
                            "channel": 1
                        }
                    ]
                ], 
                [
                    65640, 
                    [
                        {
                            "pitch": 57, 
                            "t0": 65640, 
                            "v": 85, 
                            "dur": 120, 
                            "type": "note", 
                            "channel": 1
                        }
                    ]
                ], 
                [
                    65880, 
                    [
                        {
                            "pitch": 57, 
                            "t0": 65880, 
                            "v": 85, 
                            "dur": 120, 
                            "type": "note", 
                            "channel": 1
                        }
                    ]
                ], 
                [
                    66120, 
                    [
                        {
                            "pitch": 57, 
                            "t0": 66120, 
                            "v": 85, 
                            "dur": 120, 
                            "type": "note", 
                            "channel": 1
                        }
                    ]
                ], 
                [
                    66360, 
                    [
                        {
                            "pitch": 57, 
                            "t0": 66360, 
                            "v": 85, 
                            "dur": 120, 
                            "type": "note", 
                            "channel": 1
                        }
                    ]
                ], 
                [
                    66600, 
                    [
                        {
                            "pitch": 57, 
                            "t0": 66600, 
                            "v": 85, 
                            "dur": 120, 
                            "type": "note", 
                            "channel": 1
                        }
                    ]
                ], 
                [
                    66840, 
                    [
                        {
                            "pitch": 57, 
                            "t0": 66840, 
                            "v": 85, 
                            "dur": 120, 
                            "type": "note", 
                            "channel": 1
                        }
                    ]
                ], 
                [
                    67080, 
                    [
                        {
                            "pitch": 57, 
                            "t0": 67080, 
                            "v": 85, 
                            "dur": 120, 
                            "type": "note", 
                            "channel": 1
                        }
                    ]
                ], 
                [
                    67320, 
                    [
                        {
                            "pitch": 57, 
                            "t0": 67320, 
                            "v": 85, 
                            "dur": 120, 
                            "type": "note", 
                            "channel": 1
                        }
                    ]
                ], 
                [
                    67560, 
                    [
                        {
                            "pitch": 57, 
                            "t0": 67560, 
                            "v": 85, 
                            "dur": 120, 
                            "type": "note", 
                            "channel": 1
                        }
                    ]
                ], 
                [
                    67800, 
                    [
                        {
                            "pitch": 57, 
                            "t0": 67800, 
                            "v": 85, 
                            "dur": 120, 
                            "type": "note", 
                            "channel": 1
                        }
                    ]
                ], 
                [
                    68040, 
                    [
                        {
                            "pitch": 57, 
                            "t0": 68040, 
                            "v": 85, 
                            "dur": 120, 
                            "type": "note", 
                            "channel": 1
                        }
                    ]
                ], 
                [
                    68280, 
                    [
                        {
                            "pitch": 57, 
                            "t0": 68280, 
                            "v": 85, 
                            "dur": 120, 
                            "type": "note", 
                            "channel": 1
                        }
                    ]
                ], 
                [
                    68520, 
                    [
                        {
                            "pitch": 57, 
                            "t0": 68520, 
                            "v": 85, 
                            "dur": 120, 
                            "type": "note", 
                            "channel": 1
                        }
                    ]
                ], 
                [
                    68760, 
                    [
                        {
                            "pitch": 57, 
                            "t0": 68760, 
                            "v": 85, 
                            "dur": 120, 
                            "type": "note", 
                            "channel": 1
                        }
                    ]
                ], 
                [
                    69000, 
                    [
                        {
                            "pitch": 57, 
                            "t0": 69000, 
                            "v": 85, 
                            "dur": 120, 
                            "type": "note", 
                            "channel": 1
                        }
                    ]
                ], 
                [
                    69240, 
                    [
                        {
                            "pitch": 57, 
                            "t0": 69240, 
                            "v": 85, 
                            "dur": 120, 
                            "type": "note", 
                            "channel": 1
                        }
                    ]
                ], 
                [
                    69720, 
                    [
                        {
                            "pitch": 50, 
                            "t0": 69720, 
                            "v": 100, 
                            "dur": 120, 
                            "type": "note", 
                            "channel": 1
                        }
                    ]
                ], 
                [
                    69960, 
                    [
                        {
                            "pitch": 50, 
                            "t0": 69960, 
                            "v": 100, 
                            "dur": 120, 
                            "type": "note", 
                            "channel": 1
                        }
                    ]
                ], 
                [
                    70200, 
                    [
                        {
                            "pitch": 50, 
                            "t0": 70200, 
                            "v": 100, 
                            "dur": 120, 
                            "type": "note", 
                            "channel": 1
                        }
                    ]
                ], 
                [
                    70440, 
                    [
                        {
                            "pitch": 50, 
                            "t0": 70440, 
                            "v": 100, 
                            "dur": 120, 
                            "type": "note", 
                            "channel": 1
                        }
                    ]
                ], 
                [
                    70680, 
                    [
                        {
                            "pitch": 50, 
                            "t0": 70680, 
                            "v": 100, 
                            "dur": 120, 
                            "type": "note", 
                            "channel": 1
                        }
                    ]
                ], 
                [
                    70920, 
                    [
                        {
                            "pitch": 50, 
                            "t0": 70920, 
                            "v": 100, 
                            "dur": 120, 
                            "type": "note", 
                            "channel": 1
                        }
                    ]
                ], 
                [
                    71160, 
                    [
                        {
                            "pitch": 50, 
                            "t0": 71160, 
                            "v": 100, 
                            "dur": 120, 
                            "type": "note", 
                            "channel": 1
                        }
                    ]
                ], 
                [
                    71400, 
                    [
                        {
                            "pitch": 50, 
                            "t0": 71400, 
                            "v": 100, 
                            "dur": 120, 
                            "type": "note", 
                            "channel": 1
                        }
                    ]
                ], 
                [
                    71640, 
                    [
                        {
                            "pitch": 50, 
                            "t0": 71640, 
                            "v": 100, 
                            "dur": 120, 
                            "type": "note", 
                            "channel": 1
                        }
                    ]
                ], 
                [
                    71880, 
                    [
                        {
                            "pitch": 50, 
                            "t0": 71880, 
                            "v": 100, 
                            "dur": 120, 
                            "type": "note", 
                            "channel": 1
                        }
                    ]
                ], 
                [
                    72120, 
                    [
                        {
                            "pitch": 50, 
                            "t0": 72120, 
                            "v": 100, 
                            "dur": 120, 
                            "type": "note", 
                            "channel": 1
                        }
                    ]
                ], 
                [
                    72360, 
                    [
                        {
                            "pitch": 50, 
                            "t0": 72360, 
                            "v": 100, 
                            "dur": 120, 
                            "type": "note", 
                            "channel": 1
                        }
                    ]
                ], 
                [
                    72600, 
                    [
                        {
                            "pitch": 50, 
                            "t0": 72600, 
                            "v": 100, 
                            "dur": 120, 
                            "type": "note", 
                            "channel": 1
                        }
                    ]
                ], 
                [
                    72840, 
                    [
                        {
                            "pitch": 50, 
                            "t0": 72840, 
                            "v": 100, 
                            "dur": 120, 
                            "type": "note", 
                            "channel": 1
                        }
                    ]
                ], 
                [
                    78720, 
                    [
                        {
                            "pitch": 59, 
                            "t0": 78720, 
                            "v": 100, 
                            "dur": 1920, 
                            "type": "note", 
                            "channel": 1
                        }
                    ]
                ]
            ], 
            "instruments": [
                42
            ], 
            "tMax": 80640, 
            "channels": [
                1
            ], 
            "instrument": 42, 
            "numNotes": 62, 
            "type": "TrackObj"
        }, 
        {
            "trackName": "Johann Sebastian Bach  (1685-1750)", 
            "seq": [
                [
                    0, 
                    [
                        {
                            "instrument": 42, 
                            "type": "programChange", 
                            "t0": 0, 
                            "channel": 2
                        }
                    ]
                ], 
                [
                    78720, 
                    [
                        {
                            "pitch": 43, 
                            "t0": 78720, 
                            "v": 100, 
                            "dur": 1920, 
                            "type": "note", 
                            "channel": 2
                        }
                    ]
                ]
            ], 
            "instruments": [
                42
            ], 
            "tMax": 80640, 
            "channels": [
                2
            ], 
            "instrument": 42, 
            "numNotes": 1, 
            "type": "TrackObj"
        }, 
        {
            "trackName": "Six Suites for Solo Cello", 
            "seq": [], 
            "instruments": [], 
            "channels": [], 
            "numNotes": 0, 
            "type": "TrackObj"
        }, 
        {
            "trackName": "--------------------------------------", 
            "seq": [], 
            "instruments": [], 
            "channels": [], 
            "numNotes": 0, 
            "type": "TrackObj"
        }, 
        {
            "trackName": "Suite No. 1 in G major - BWV 1007", 
            "seq": [], 
            "instruments": [], 
            "channels": [], 
            "numNotes": 0, 
            "type": "TrackObj"
        }, 
        {
            "trackName": "1st Movement: Prelude", 
            "seq": [], 
            "instruments": [], 
            "channels": [], 
            "numNotes": 0, 
            "type": "TrackObj"
        }, 
        {
            "trackName": "--------------------------------------", 
            "seq": [], 
            "instruments": [], 
            "channels": [], 
            "numNotes": 0, 
            "type": "TrackObj"
        }, 
        {
            "trackName": "Sequenced with Cakewalk Pro Audio by", 
            "seq": [], 
            "instruments": [], 
            "channels": [], 
            "numNotes": 0, 
            "type": "TrackObj"
        }, 
        {
            "trackName": "David J. Grossman - dave@unpronounceable.com", 
            "seq": [], 
            "instruments": [], 
            "channels": [], 
            "numNotes": 0, 
            "type": "TrackObj"
        }, 
        {
            "trackName": "This and other Bach MIDI files can be found at:", 
            "seq": [], 
            "instruments": [], 
            "channels": [], 
            "numNotes": 0, 
            "type": "TrackObj"
        }, 
        {
            "trackName": "Dave's J.S. Bach Page", 
            "seq": [], 
            "instruments": [], 
            "channels": [], 
            "numNotes": 0, 
            "type": "TrackObj"
        }, 
        {
            "trackName": "http://www.unpronounceable.com/bach", 
            "seq": [], 
            "instruments": [], 
            "channels": [], 
            "numNotes": 0, 
            "type": "TrackObj"
        }, 
        {
            "trackName": "--------------------------------------", 
            "seq": [], 
            "instruments": [], 
            "channels": [], 
            "numNotes": 0, 
            "type": "TrackObj"
        }, 
        {
            "trackName": "Original Filename: cs1-1pre.mid", 
            "seq": [], 
            "instruments": [], 
            "channels": [], 
            "numNotes": 0, 
            "type": "TrackObj"
        }, 
        {
            "trackName": "Last Modified: February 22, 1997", 
            "seq": [], 
            "instruments": [], 
            "channels": [], 
            "numNotes": 0, 
            "type": "TrackObj"
        }
    ], 
    "type": "MidiObj"
}