{
    "format": 1, 
    "instruments": [
        42
    ], 
    "resolution": 1000, 
    "channels": [
        0, 
        1, 
        2
    ], 
    "tracks": [
        {
            "trackName": "Track1", 
            "seq": [
                [
                    0, 
                    [
                        {
                            "bpm": 120.0, 
                            "type": "tempo", 
                            "mpqn": 500000, 
                            "t0": 0
                        }
                    ]
                ]
            ], 
            "instruments": [], 
            "tMax": 0, 
            "channels": [], 
            "numNotes": 0, 
            "type": "TrackObj"
        }, 
        {
            "trackName": "Instrument Track", 
            "seq": [
                [
                    0, 
                    [
                        {
                            "instrument": 42, 
                            "type": "programChange", 
                            "t0": 0, 
                            "channel": 0
                        }, 
                        {
                            "pitch": 43, 
                            "t0": 0, 
                            "v": 100, 
                            "dur": 250, 
                            "type": "note", 
                            "channel": 0
                        }
                    ]
                ], 
                [
                    250, 
                    [
                        {
                            "pitch": 50, 
                            "t0": 250, 
                            "v": 100, 
                            "dur": 250, 
                            "type": "note", 
                            "channel": 0
                        }
                    ]
                ], 
                [
                    500, 
                    [
                        {
                            "pitch": 59, 
                            "t0": 500, 
                            "v": 100, 
                            "dur": 250, 
                            "type": "note", 
                            "channel": 0
                        }
                    ]
                ], 
                [
                    750, 
                    [
                        {
                            "pitch": 57, 
                            "t0": 750, 
                            "v": 100, 
                            "dur": 250, 
                            "type": "note", 
                            "channel": 0
                        }
                    ]
                ], 
                [
                    1000, 
                    [
                        {
                            "pitch": 59, 
                            "t0": 1000, 
                            "v": 100, 
                            "dur": 250, 
                            "type": "note", 
                            "channel": 0
                        }
                    ]
                ], 
                [
                    1250, 
                    [
                        {
                            "pitch": 50, 
                            "t0": 1250, 
                            "v": 100, 
                            "dur": 250, 
                            "type": "note", 
                            "channel": 0
                        }
                    ]
                ], 
                [
                    1500, 
                    [
                        {
                            "pitch": 59, 
                            "t0": 1500, 
                            "v": 100, 
                            "dur": 250, 
                            "type": "note", 
                            "channel": 0
                        }
                    ]
                ], 
                [
                    1750, 
                    [
                        {
                            "pitch": 50, 
                            "t0": 1750, 
                            "v": 100, 
                            "dur": 250, 
                            "type": "note", 
                            "channel": 0
                        }
                    ]
                ], 
                [
                    2000, 
                    [
                        {
                            "pitch": 43, 
                            "t0": 2000, 
                            "v": 100, 
                            "dur": 250, 
                            "type": "note", 
                            "channel": 0
                        }
                    ]
                ], 
                [
                    2250, 
                    [
                        {
                            "pitch": 50, 
                            "t0": 2250, 
                            "v": 100, 
                            "dur": 250, 
                            "type": "note", 
                            "channel": 0
                        }
                    ]
                ], 
                [
                    2500, 
                    [
                        {
                            "pitch": 59, 
                            "t0": 2500, 
                            "v": 100, 
                            "dur": 250, 
                            "type": "note", 
                            "channel": 0
                        }
                    ]
                ], 
                [
                    2750, 
                    [
                        {
                            "pitch": 57, 
                            "t0": 2750, 
                            "v": 100, 
                            "dur": 250, 
                            "type": "note", 
                            "channel": 0
                        }
                    ]
                ], 
                [
                    3000, 
                    [
                        {
                            "pitch": 59, 
                            "t0": 3000, 
                            "v": 100, 
                            "dur": 250, 
                            "type": "note", 
                            "channel": 0
                        }
                    ]
                ], 
                [
                    3250, 
                    [
                        {
                            "pitch": 50, 
                            "t0": 3250, 
                            "v": 100, 
                            "dur": 250, 
                            "type": "note", 
                            "channel": 0
                        }
                    ]
                ], 
                [
                    3500, 
                    [
                        {
                            "pitch": 59, 
                            "t0": 3500, 
                            "v": 100, 
                            "dur": 250, 
                            "type": "note", 
                            "channel": 0
                        }
                    ]
                ], 
                [
                    3750, 
                    [
                        {
                            "pitch": 50, 
                            "t0": 3750, 
                            "v": 100, 
                            "dur": 250, 
                            "type": "note", 
                            "channel": 0
                        }
                    ]
                ], 
                [
                    4000, 
                    [
                        {
                            "pitch": 43, 
                            "t0": 4000, 
                            "v": 100, 
                            "dur": 250, 
                            "type": "note", 
                            "channel": 0
                        }
                    ]
                ], 
                [
                    4250, 
                    [
                        {
                            "pitch": 52, 
                            "t0": 4250, 
                            "v": 100, 
                            "dur": 250, 
                            "type": "note", 
                            "channel": 0
                        }
                    ]
                ], 
                [
                    4500, 
                    [
                        {
                            "pitch": 60, 
                            "t0": 4500, 
                            "v": 100, 
                            "dur": 250, 
                            "type": "note", 
                            "channel": 0
                        }
                    ]
                ], 
                [
                    4750, 
                    [
                        {
                            "pitch": 59, 
                            "t0": 4750, 
                            "v": 100, 
                            "dur": 250, 
                            "type": "note", 
                            "channel": 0
                        }
                    ]
                ], 
                [
                    5000, 
                    [
                        {
                            "pitch": 60, 
                            "t0": 5000, 
                            "v": 100, 
                            "dur": 250, 
                            "type": "note", 
                            "channel": 0
                        }
                    ]
                ], 
                [
                    5250, 
                    [
                        {
                            "pitch": 52, 
                            "t0": 5250, 
                            "v": 100, 
                            "dur": 250, 
                            "type": "note", 
                            "channel": 0
                        }
                    ]
                ], 
                [
                    5500, 
                    [
                        {
                            "pitch": 60, 
                            "t0": 5500, 
                            "v": 100, 
                            "dur": 250, 
                            "type": "note", 
                            "channel": 0
                        }
                    ]
                ], 
                [
                    5750, 
                    [
                        {
                            "pitch": 52, 
                            "t0": 5750, 
                            "v": 100, 
                            "dur": 250, 
                            "type": "note", 
                            "channel": 0
                        }
                    ]
                ], 
                [
                    6000, 
                    [
                        {
                            "pitch": 43, 
                            "t0": 6000, 
                            "v": 100, 
                            "dur": 250, 
                            "type": "note", 
                            "channel": 0
                        }
                    ]
                ], 
                [
                    6250, 
                    [
                        {
                            "pitch": 52, 
                            "t0": 6250, 
                            "v": 100, 
                            "dur": 250, 
                            "type": "note", 
                            "channel": 0
                        }
                    ]
                ], 
                [
                    6500, 
                    [
                        {
                            "pitch": 60, 
                            "t0": 6500, 
                            "v": 100, 
                            "dur": 250, 
                            "type": "note", 
                            "channel": 0
                        }
                    ]
                ], 
                [
                    6750, 
                    [
                        {
                            "pitch": 59, 
                            "t0": 6750, 
                            "v": 100, 
                            "dur": 250, 
                            "type": "note", 
                            "channel": 0
                        }
                    ]
                ], 
                [
                    7000, 
                    [
                        {
                            "pitch": 60, 
                            "t0": 7000, 
                            "v": 100, 
                            "dur": 250, 
                            "type": "note", 
                            "channel": 0
                        }
                    ]
                ], 
                [
                    7250, 
                    [
                        {
                            "pitch": 52, 
                            "t0": 7250, 
                            "v": 100, 
                            "dur": 250, 
                            "type": "note", 
                            "channel": 0
                        }
                    ]
                ], 
                [
                    7500, 
                    [
                        {
                            "pitch": 60, 
                            "t0": 7500, 
                            "v": 100, 
                            "dur": 250, 
                            "type": "note", 
                            "channel": 0
                        }
                    ]
                ], 
                [
                    7750, 
                    [
                        {
                            "pitch": 52, 
                            "t0": 7750, 
                            "v": 100, 
                            "dur": 250, 
                            "type": "note", 
                            "channel": 0
                        }
                    ]
                ], 
                [
                    8000, 
                    [
                        {
                            "pitch": 43, 
                            "t0": 8000, 
                            "v": 100, 
                            "dur": 250, 
                            "type": "note", 
                            "channel": 0
                        }
                    ]
                ], 
                [
                    8250, 
                    [
                        {
                            "pitch": 54, 
                            "t0": 8250, 
                            "v": 100, 
                            "dur": 250, 
                            "type": "note", 
                            "channel": 0
                        }
                    ]
                ], 
                [
                    8500, 
                    [
                        {
                            "pitch": 60, 
                            "t0": 8500, 
                            "v": 100, 
                            "dur": 250, 
                            "type": "note", 
                            "channel": 0
                        }
                    ]
                ], 
                [
                    8750, 
                    [
                        {
                            "pitch": 59, 
                            "t0": 8750, 
                            "v": 100, 
                            "dur": 250, 
                            "type": "note", 
                            "channel": 0
                        }
                    ]
                ], 
                [
                    9000, 
                    [
                        {
                            "pitch": 60, 
                            "t0": 9000, 
                            "v": 100, 
                            "dur": 250, 
                            "type": "note", 
                            "channel": 0
                        }
                    ]
                ], 
                [
                    9250, 
                    [
                        {
                            "pitch": 54, 
                            "t0": 9250, 
                            "v": 100, 
                            "dur": 250, 
                            "type": "note", 
                            "channel": 0
                        }
                    ]
                ], 
                [
                    9500, 
                    [
                        {
                            "pitch": 60, 
                            "t0": 9500, 
                            "v": 100, 
                            "dur": 250, 
                            "type": "note", 
                            "channel": 0
                        }
                    ]
                ], 
                [
                    9750, 
                    [
                        {
                            "pitch": 54, 
                            "t0": 9750, 
                            "v": 100, 
                            "dur": 250, 
                            "type": "note", 
                            "channel": 0
                        }
                    ]
                ], 
                [
                    10000, 
                    [
                        {
                            "pitch": 43, 
                            "t0": 10000, 
                            "v": 100, 
                            "dur": 250, 
                            "type": "note", 
                            "channel": 0
                        }
                    ]
                ], 
                [
                    10250, 
                    [
                        {
                            "pitch": 54, 
                            "t0": 10250, 
                            "v": 100, 
                            "dur": 250, 
                            "type": "note", 
                            "channel": 0
                        }
                    ]
                ], 
                [
                    10500, 
                    [
                        {
                            "pitch": 60, 
                            "t0": 10500, 
                            "v": 100, 
                            "dur": 250, 
                            "type": "note", 
                            "channel": 0
                        }
                    ]
                ], 
                [
                    10750, 
                    [
                        {
                            "pitch": 59, 
                            "t0": 10750, 
                            "v": 100, 
                            "dur": 250, 
                            "type": "note", 
                            "channel": 0
                        }
                    ]
                ], 
                [
                    11000, 
                    [
                        {
                            "pitch": 60, 
                            "t0": 11000, 
                            "v": 100, 
                            "dur": 250, 
                            "type": "note", 
                            "channel": 0
                        }
                    ]
                ], 
                [
                    11250, 
                    [
                        {
                            "pitch": 54, 
                            "t0": 11250, 
                            "v": 100, 
                            "dur": 250, 
                            "type": "note", 
                            "channel": 0
                        }
                    ]
                ], 
                [
                    11500, 
                    [
                        {
                            "pitch": 60, 
                            "t0": 11500, 
                            "v": 100, 
                            "dur": 250, 
                            "type": "note", 
                            "channel": 0
                        }
                    ]
                ], 
                [
                    11750, 
                    [
                        {
                            "pitch": 54, 
                            "t0": 11750, 
                            "v": 100, 
                            "dur": 250, 
                            "type": "note", 
                            "channel": 0
                        }
                    ]
                ], 
                [
                    12000, 
                    [
                        {
                            "pitch": 43, 
                            "t0": 12000, 
                            "v": 100, 
                            "dur": 250, 
                            "type": "note", 
                            "channel": 0
                        }
                    ]
                ], 
                [
                    12250, 
                    [
                        {
                            "pitch": 55, 
                            "t0": 12250, 
                            "v": 100, 
                            "dur": 250, 
                            "type": "note", 
                            "channel": 0
                        }
                    ]
                ], 
                [
                    12500, 
                    [
                        {
                            "pitch": 59, 
                            "t0": 12500, 
                            "v": 100, 
                            "dur": 250, 
                            "type": "note", 
                            "channel": 0
                        }
                    ]
                ], 
                [
                    12750, 
                    [
                        {
                            "pitch": 57, 
                            "t0": 12750, 
                            "v": 100, 
                            "dur": 250, 
                            "type": "note", 
                            "channel": 0
                        }
                    ]
                ], 
                [
                    13000, 
                    [
                        {
                            "pitch": 59, 
                            "t0": 13000, 
                            "v": 100, 
                            "dur": 250, 
                            "type": "note", 
                            "channel": 0
                        }
                    ]
                ], 
                [
                    13250, 
                    [
                        {
                            "pitch": 55, 
                            "t0": 13250, 
                            "v": 100, 
                            "dur": 250, 
                            "type": "note", 
                            "channel": 0
                        }
                    ]
                ], 
                [
                    13500, 
                    [
                        {
                            "pitch": 59, 
                            "t0": 13500, 
                            "v": 100, 
                            "dur": 250, 
                            "type": "note", 
                            "channel": 0
                        }
                    ]
                ], 
                [
                    13750, 
                    [
                        {
                            "pitch": 55, 
                            "t0": 13750, 
                            "v": 100, 
                            "dur": 250, 
                            "type": "note", 
                            "channel": 0
                        }
                    ]
                ], 
                [
                    14000, 
                    [
                        {
                            "pitch": 43, 
                            "t0": 14000, 
                            "v": 100, 
                            "dur": 250, 
                            "type": "note", 
                            "channel": 0
                        }
                    ]
                ], 
                [
                    14250, 
                    [
                        {
                            "pitch": 55, 
                            "t0": 14250, 
                            "v": 100, 
                            "dur": 250, 
                            "type": "note", 
                            "channel": 0
                        }
                    ]
                ], 
                [
                    14500, 
                    [
                        {
                            "pitch": 59, 
                            "t0": 14500, 
                            "v": 100, 
                            "dur": 250, 
                            "type": "note", 
                            "channel": 0
                        }
                    ]
                ], 
                [
                    14750, 
                    [
                        {
                            "pitch": 57, 
                            "t0": 14750, 
                            "v": 100, 
                            "dur": 250, 
                            "type": "note", 
                            "channel": 0
                        }
                    ]
                ], 
                [
                    15000, 
                    [
                        {
                            "pitch": 59, 
                            "t0": 15000, 
                            "v": 100, 
                            "dur": 250, 
                            "type": "note", 
                            "channel": 0
                        }
                    ]
                ], 
                [
                    15250, 
                    [
                        {
                            "pitch": 55, 
                            "t0": 15250, 
                            "v": 100, 
                            "dur": 250, 
                            "type": "note", 
                            "channel": 0
                        }
                    ]
                ], 
                [
                    15500, 
                    [
                        {
                            "pitch": 59, 
                            "t0": 15500, 
                            "v": 100, 
                            "dur": 250, 
                            "type": "note", 
                            "channel": 0
                        }
                    ]
                ], 
                [
                    15750, 
                    [
                        {
                            "pitch": 54, 
                            "t0": 15750, 
                            "v": 100, 
                            "dur": 250, 
                            "type": "note", 
                            "channel": 0
                        }
                    ]
                ], 
                [
                    16000, 
                    [
                        {
                            "pitch": 43, 
                            "t0": 16000, 
                            "v": 100, 
                            "dur": 250, 
                            "type": "note", 
                            "channel": 0
                        }
                    ]
                ], 
                [
                    16250, 
                    [
                        {
                            "pitch": 52, 
                            "t0": 16250, 
                            "v": 100, 
                            "dur": 250, 
                            "type": "note", 
                            "channel": 0
                        }
                    ]
                ], 
                [
                    16500, 
                    [
                        {
                            "pitch": 59, 
                            "t0": 16500, 
                            "v": 100, 
                            "dur": 250, 
                            "type": "note", 
                            "channel": 0
                        }
                    ]
                ], 
                [
                    16750, 
                    [
                        {
                            "pitch": 57, 
                            "t0": 16750, 
                            "v": 100, 
                            "dur": 250, 
                            "type": "note", 
                            "channel": 0
                        }
                    ]
                ], 
                [
                    17000, 
                    [
                        {
                            "pitch": 59, 
                            "t0": 17000, 
                            "v": 100, 
                            "dur": 250, 
                            "type": "note", 
                            "channel": 0
                        }
                    ]
                ], 
                [
                    17250, 
                    [
                        {
                            "pitch": 55, 
                            "t0": 17250, 
                            "v": 100, 
                            "dur": 250, 
                            "type": "note", 
                            "channel": 0
                        }
                    ]
                ], 
                [
                    17500, 
                    [
                        {
                            "pitch": 54, 
                            "t0": 17500, 
                            "v": 100, 
                            "dur": 250, 
                            "type": "note", 
                            "channel": 0
                        }
                    ]
                ], 
                [
                    17750, 
                    [
                        {
                            "pitch": 55, 
                            "t0": 17750, 
                            "v": 100, 
                            "dur": 250, 
                            "type": "note", 
                            "channel": 0
                        }
                    ]
                ], 
                [
                    18000, 
                    [
                        {
                            "pitch": 52, 
                            "t0": 18000, 
                            "v": 100, 
                            "dur": 250, 
                            "type": "note", 
                            "channel": 0
                        }
                    ]
                ], 
                [
                    18250, 
                    [
                        {
                            "pitch": 55, 
                            "t0": 18250, 
                            "v": 100, 
                            "dur": 250, 
                            "type": "note", 
                            "channel": 0
                        }
                    ]
                ], 
                [
                    18500, 
                    [
                        {
                            "pitch": 54, 
                            "t0": 18500, 
                            "v": 100, 
                            "dur": 250, 
                            "type": "note", 
                            "channel": 0
                        }
                    ]
                ], 
                [
                    18750, 
                    [
                        {
                            "pitch": 55, 
                            "t0": 18750, 
                            "v": 100, 
                            "dur": 250, 
                            "type": "note", 
                            "channel": 0
                        }
                    ]
                ], 
                [
                    19000, 
                    [
                        {
                            "pitch": 47, 
                            "t0": 19000, 
                            "v": 100, 
                            "dur": 250, 
                            "type": "note", 
                            "channel": 0
                        }
                    ]
                ], 
                [
                    19250, 
                    [
                        {
                            "pitch": 50, 
                            "t0": 19250, 
                            "v": 100, 
                            "dur": 250, 
                            "type": "note", 
                            "channel": 0
                        }
                    ]
                ], 
                [
                    19500, 
                    [
                        {
                            "pitch": 49, 
                            "t0": 19500, 
                            "v": 100, 
                            "dur": 250, 
                            "type": "note", 
                            "channel": 0
                        }
                    ]
                ], 
                [
                    19750, 
                    [
                        {
                            "pitch": 47, 
                            "t0": 19750, 
                            "v": 100, 
                            "dur": 250, 
                            "type": "note", 
                            "channel": 0
                        }
                    ]
                ], 
                [
                    20000, 
                    [
                        {
                            "pitch": 49, 
                            "t0": 20000, 
                            "v": 100, 
                            "dur": 250, 
                            "type": "note", 
                            "channel": 0
                        }
                    ]
                ], 
                [
                    20250, 
                    [
                        {
                            "pitch": 55, 
                            "t0": 20250, 
                            "v": 100, 
                            "dur": 250, 
                            "type": "note", 
                            "channel": 0
                        }
                    ]
                ], 
                [
                    20500, 
                    [
                        {
                            "pitch": 57, 
                            "t0": 20500, 
                            "v": 100, 
                            "dur": 250, 
                            "type": "note", 
                            "channel": 0
                        }
                    ]
                ], 
                [
                    20750, 
                    [
                        {
                            "pitch": 55, 
                            "t0": 20750, 
                            "v": 100, 
                            "dur": 250, 
                            "type": "note", 
                            "channel": 0
                        }
                    ]
                ], 
                [
                    21000, 
                    [
                        {
                            "pitch": 57, 
                            "t0": 21000, 
                            "v": 100, 
                            "dur": 250, 
                            "type": "note", 
                            "channel": 0
                        }
                    ]
                ], 
                [
                    21250, 
                    [
                        {
                            "pitch": 55, 
                            "t0": 21250, 
                            "v": 100, 
                            "dur": 250, 
                            "type": "note", 
                            "channel": 0
                        }
                    ]
                ], 
                [
                    21500, 
                    [
                        {
                            "pitch": 57, 
                            "t0": 21500, 
                            "v": 100, 
                            "dur": 250, 
                            "type": "note", 
                            "channel": 0
                        }
                    ]
                ], 
                [
                    21750, 
                    [
                        {
                            "pitch": 55, 
                            "t0": 21750, 
                            "v": 100, 
                            "dur": 250, 
                            "type": "note", 
                            "channel": 0
                        }
                    ]
                ], 
                [
                    22000, 
                    [
                        {
                            "pitch": 49, 
                            "t0": 22000, 
                            "v": 100, 
                            "dur": 250, 
                            "type": "note", 
                            "channel": 0
                        }
                    ]
                ], 
                [
                    22250, 
                    [
                        {
                            "pitch": 55, 
                            "t0": 22250, 
                            "v": 100, 
                            "dur": 250, 
                            "type": "note", 
                            "channel": 0
                        }
                    ]
                ], 
                [
                    22500, 
                    [
                        {
                            "pitch": 57, 
                            "t0": 22500, 
                            "v": 100, 
                            "dur": 250, 
                            "type": "note", 
                            "channel": 0
                        }
                    ]
                ], 
                [
                    22750, 
                    [
                        {
                            "pitch": 55, 
                            "t0": 22750, 
                            "v": 100, 
                            "dur": 250, 
                            "type": "note", 
                            "channel": 0
                        }
                    ]
                ], 
                [
                    23000, 
                    [
                        {
                            "pitch": 57, 
                            "t0": 23000, 
                            "v": 100, 
                            "dur": 250, 
                            "type": "note", 
                            "channel": 0
                        }
                    ]
                ], 
                [
                    23250, 
                    [
                        {
                            "pitch": 55, 
                            "t0": 23250, 
                            "v": 100, 
                            "dur": 250, 
                            "type": "note", 
                            "channel": 0
                        }
                    ]
                ], 
                [
                    23500, 
                    [
                        {
                            "pitch": 57, 
                            "t0": 23500, 
                            "v": 100, 
                            "dur": 250, 
                            "type": "note", 
                            "channel": 0
                        }
                    ]
                ], 
                [
                    23750, 
                    [
                        {
                            "pitch": 55, 
                            "t0": 23750, 
                            "v": 100, 
                            "dur": 250, 
                            "type": "note", 
                            "channel": 0
                        }
                    ]
                ], 
                [
                    24000, 
                    [
                        {
                            "pitch": 54, 
                            "t0": 24000, 
                            "v": 100, 
                            "dur": 250, 
                            "type": "note", 
                            "channel": 0
                        }
                    ]
                ], 
                [
                    24250, 
                    [
                        {
                            "pitch": 57, 
                            "t0": 24250, 
                            "v": 100, 
                            "dur": 250, 
                            "type": "note", 
                            "channel": 0
                        }
                    ]
                ], 
                [
                    24500, 
                    [
                        {
                            "pitch": 62, 
                            "t0": 24500, 
                            "v": 100, 
                            "dur": 250, 
                            "type": "note", 
                            "channel": 0
                        }
                    ]
                ], 
                [
                    24750, 
                    [
                        {
                            "pitch": 61, 
                            "t0": 24750, 
                            "v": 100, 
                            "dur": 250, 
                            "type": "note", 
                            "channel": 0
                        }
                    ]
                ], 
                [
                    25000, 
                    [
                        {
                            "pitch": 62, 
                            "t0": 25000, 
                            "v": 100, 
                            "dur": 250, 
                            "type": "note", 
                            "channel": 0
                        }
                    ]
                ], 
                [
                    25250, 
                    [
                        {
                            "pitch": 57, 
                            "t0": 25250, 
                            "v": 100, 
                            "dur": 250, 
                            "type": "note", 
                            "channel": 0
                        }
                    ]
                ], 
                [
                    25500, 
                    [
                        {
                            "pitch": 55, 
                            "t0": 25500, 
                            "v": 100, 
                            "dur": 250, 
                            "type": "note", 
                            "channel": 0
                        }
                    ]
                ], 
                [
                    25750, 
                    [
                        {
                            "pitch": 57, 
                            "t0": 25750, 
                            "v": 100, 
                            "dur": 250, 
                            "type": "note", 
                            "channel": 0
                        }
                    ]
                ], 
                [
                    26000, 
                    [
                        {
                            "pitch": 54, 
                            "t0": 26000, 
                            "v": 100, 
                            "dur": 250, 
                            "type": "note", 
                            "channel": 0
                        }
                    ]
                ], 
                [
                    26250, 
                    [
                        {
                            "pitch": 57, 
                            "t0": 26250, 
                            "v": 100, 
                            "dur": 250, 
                            "type": "note", 
                            "channel": 0
                        }
                    ]
                ], 
                [
                    26500, 
                    [
                        {
                            "pitch": 55, 
                            "t0": 26500, 
                            "v": 100, 
                            "dur": 250, 
                            "type": "note", 
                            "channel": 0
                        }
                    ]
                ], 
                [
                    26750, 
                    [
                        {
                            "pitch": 57, 
                            "t0": 26750, 
                            "v": 100, 
                            "dur": 250, 
                            "type": "note", 
                            "channel": 0
                        }
                    ]
                ], 
                [
                    27000, 
                    [
                        {
                            "pitch": 50, 
                            "t0": 27000, 
                            "v": 100, 
                            "dur": 250, 
                            "type": "note", 
                            "channel": 0
                        }
                    ]
                ], 
                [
                    27250, 
                    [
                        {
                            "pitch": 54, 
                            "t0": 27250, 
                            "v": 100, 
                            "dur": 250, 
                            "type": "note", 
                            "channel": 0
                        }
                    ]
                ], 
                [
                    27500, 
                    [
                        {
                            "pitch": 52, 
                            "t0": 27500, 
                            "v": 100, 
                            "dur": 250, 
                            "type": "note", 
                            "channel": 0
                        }
                    ]
                ], 
                [
                    27750, 
                    [
                        {
                            "pitch": 50, 
                            "t0": 27750, 
                            "v": 100, 
                            "dur": 250, 
                            "type": "note", 
                            "channel": 0
                        }
                    ]
                ], 
                [
                    28000, 
                    [
                        {
                            "pitch": 40, 
                            "t0": 28000, 
                            "v": 100, 
                            "dur": 250, 
                            "type": "note", 
                            "channel": 0
                        }
                    ]
                ], 
                [
                    28250, 
                    [
                        {
                            "pitch": 47, 
                            "t0": 28250, 
                            "v": 100, 
                            "dur": 250, 
                            "type": "note", 
                            "channel": 0
                        }
                    ]
                ], 
                [
                    28500, 
                    [
                        {
                            "pitch": 55, 
                            "t0": 28500, 
                            "v": 100, 
                            "dur": 250, 
                            "type": "note", 
                            "channel": 0
                        }
                    ]
                ], 
                [
                    28750, 
                    [
                        {
                            "pitch": 54, 
                            "t0": 28750, 
                            "v": 100, 
                            "dur": 250, 
                            "type": "note", 
                            "channel": 0
                        }
                    ]
                ], 
                [
                    29000, 
                    [
                        {
                            "pitch": 55, 
                            "t0": 29000, 
                            "v": 100, 
                            "dur": 250, 
                            "type": "note", 
                            "channel": 0
                        }
                    ]
                ], 
                [
                    29250, 
                    [
                        {
                            "pitch": 47, 
                            "t0": 29250, 
                            "v": 100, 
                            "dur": 250, 
                            "type": "note", 
                            "channel": 0
                        }
                    ]
                ], 
                [
                    29500, 
                    [
                        {
                            "pitch": 55, 
                            "t0": 29500, 
                            "v": 100, 
                            "dur": 250, 
                            "type": "note", 
                            "channel": 0
                        }
                    ]
                ], 
                [
                    29750, 
                    [
                        {
                            "pitch": 47, 
                            "t0": 29750, 
                            "v": 100, 
                            "dur": 250, 
                            "type": "note", 
                            "channel": 0
                        }
                    ]
                ], 
                [
                    30000, 
                    [
                        {
                            "pitch": 40, 
                            "t0": 30000, 
                            "v": 100, 
                            "dur": 250, 
                            "type": "note", 
                            "channel": 0
                        }
                    ]
                ], 
                [
                    30250, 
                    [
                        {
                            "pitch": 47, 
                            "t0": 30250, 
                            "v": 100, 
                            "dur": 250, 
                            "type": "note", 
                            "channel": 0
                        }
                    ]
                ], 
                [
                    30500, 
                    [
                        {
                            "pitch": 55, 
                            "t0": 30500, 
                            "v": 100, 
                            "dur": 250, 
                            "type": "note", 
                            "channel": 0
                        }
                    ]
                ], 
                [
                    30750, 
                    [
                        {
                            "pitch": 54, 
                            "t0": 30750, 
                            "v": 100, 
                            "dur": 250, 
                            "type": "note", 
                            "channel": 0
                        }
                    ]
                ], 
                [
                    31000, 
                    [
                        {
                            "pitch": 55, 
                            "t0": 31000, 
                            "v": 100, 
                            "dur": 250, 
                            "type": "note", 
                            "channel": 0
                        }
                    ]
                ], 
                [
                    31250, 
                    [
                        {
                            "pitch": 47, 
                            "t0": 31250, 
                            "v": 100, 
                            "dur": 250, 
                            "type": "note", 
                            "channel": 0
                        }
                    ]
                ], 
                [
                    31500, 
                    [
                        {
                            "pitch": 55, 
                            "t0": 31500, 
                            "v": 100, 
                            "dur": 250, 
                            "type": "note", 
                            "channel": 0
                        }
                    ]
                ], 
                [
                    31750, 
                    [
                        {
                            "pitch": 47, 
                            "t0": 31750, 
                            "v": 100, 
                            "dur": 250, 
                            "type": "note", 
                            "channel": 0
                        }
                    ]
                ], 
                [
                    32000, 
                    [
                        {
                            "pitch": 40, 
                            "t0": 32000, 
                            "v": 100, 
                            "dur": 250, 
                            "type": "note", 
                            "channel": 0
                        }
                    ]
                ], 
                [
                    32250, 
                    [
                        {
                            "pitch": 49, 
                            "t0": 32250, 
                            "v": 100, 
                            "dur": 250, 
                            "type": "note", 
                            "channel": 0
                        }
                    ]
                ], 
                [
                    32500, 
                    [
                        {
                            "pitch": 50, 
                            "t0": 32500, 
                            "v": 100, 
                            "dur": 250, 
                            "type": "note", 
                            "channel": 0
                        }
                    ]
                ], 
                [
                    32750, 
                    [
                        {
                            "pitch": 52, 
                            "t0": 32750, 
                            "v": 100, 
                            "dur": 250, 
                            "type": "note", 
                            "channel": 0
                        }
                    ]
                ], 
                [
                    33000, 
                    [
                        {
                            "pitch": 50, 
                            "t0": 33000, 
                            "v": 100, 
                            "dur": 250, 
                            "type": "note", 
                            "channel": 0
                        }
                    ]
                ], 
                [
                    33250, 
                    [
                        {
                            "pitch": 49, 
                            "t0": 33250, 
                            "v": 100, 
                            "dur": 250, 
                            "type": "note", 
                            "channel": 0
                        }
                    ]
                ], 
                [
                    33500, 
                    [
                        {
                            "pitch": 47, 
                            "t0": 33500, 
                            "v": 100, 
                            "dur": 250, 
                            "type": "note", 
                            "channel": 0
                        }
                    ]
                ], 
                [
                    33750, 
                    [
                        {
                            "pitch": 45, 
                            "t0": 33750, 
                            "v": 100, 
                            "dur": 250, 
                            "type": "note", 
                            "channel": 0
                        }
                    ]
                ], 
                [
                    34000, 
                    [
                        {
                            "pitch": 55, 
                            "t0": 34000, 
                            "v": 100, 
                            "dur": 250, 
                            "type": "note", 
                            "channel": 0
                        }
                    ]
                ], 
                [
                    34250, 
                    [
                        {
                            "pitch": 54, 
                            "t0": 34250, 
                            "v": 100, 
                            "dur": 250, 
                            "type": "note", 
                            "channel": 0
                        }
                    ]
                ], 
                [
                    34500, 
                    [
                        {
                            "pitch": 52, 
                            "t0": 34500, 
                            "v": 100, 
                            "dur": 250, 
                            "type": "note", 
                            "channel": 0
                        }
                    ]
                ], 
                [
                    34750, 
                    [
                        {
                            "pitch": 62, 
                            "t0": 34750, 
                            "v": 100, 
                            "dur": 250, 
                            "type": "note", 
                            "channel": 0
                        }
                    ]
                ], 
                [
                    35000, 
                    [
                        {
                            "pitch": 61, 
                            "t0": 35000, 
                            "v": 100, 
                            "dur": 250, 
                            "type": "note", 
                            "channel": 0
                        }
                    ]
                ], 
                [
                    35250, 
                    [
                        {
                            "pitch": 59, 
                            "t0": 35250, 
                            "v": 100, 
                            "dur": 250, 
                            "type": "note", 
                            "channel": 0
                        }
                    ]
                ], 
                [
                    35500, 
                    [
                        {
                            "pitch": 57, 
                            "t0": 35500, 
                            "v": 100, 
                            "dur": 250, 
                            "type": "note", 
                            "channel": 0
                        }
                    ]
                ], 
                [
                    35750, 
                    [
                        {
                            "pitch": 55, 
                            "t0": 35750, 
                            "v": 100, 
                            "dur": 250, 
                            "type": "note", 
                            "channel": 0
                        }
                    ]
                ], 
                [
                    36000, 
                    [
                        {
                            "pitch": 54, 
                            "t0": 36000, 
                            "v": 100, 
                            "dur": 250, 
                            "type": "note", 
                            "channel": 0
                        }
                    ]
                ], 
                [
                    36250, 
                    [
                        {
                            "pitch": 52, 
                            "t0": 36250, 
                            "v": 100, 
                            "dur": 250, 
                            "type": "note", 
                            "channel": 0
                        }
                    ]
                ], 
                [
                    36500, 
                    [
                        {
                            "pitch": 50, 
                            "t0": 36500, 
                            "v": 100, 
                            "dur": 250, 
                            "type": "note", 
                            "channel": 0
                        }
                    ]
                ], 
                [
                    36750, 
                    [
                        {
                            "pitch": 62, 
                            "t0": 36750, 
                            "v": 100, 
                            "dur": 250, 
                            "type": "note", 
                            "channel": 0
                        }
                    ]
                ], 
                [
                    37000, 
                    [
                        {
                            "pitch": 57, 
                            "t0": 37000, 
                            "v": 100, 
                            "dur": 250, 
                            "type": "note", 
                            "channel": 0
                        }
                    ]
                ], 
                [
                    37250, 
                    [
                        {
                            "pitch": 62, 
                            "t0": 37250, 
                            "v": 100, 
                            "dur": 250, 
                            "type": "note", 
                            "channel": 0
                        }
                    ]
                ], 
                [
                    37500, 
                    [
                        {
                            "pitch": 54, 
                            "t0": 37500, 
                            "v": 100, 
                            "dur": 250, 
                            "type": "note", 
                            "channel": 0
                        }
                    ]
                ], 
                [
                    37750, 
                    [
                        {
                            "pitch": 57, 
                            "t0": 37750, 
                            "v": 100, 
                            "dur": 250, 
                            "type": "note", 
                            "channel": 0
                        }
                    ]
                ], 
                [
                    38000, 
                    [
                        {
                            "pitch": 50, 
                            "t0": 38000, 
                            "v": 100, 
                            "dur": 250, 
                            "type": "note", 
                            "channel": 0
                        }
                    ]
                ], 
                [
                    38250, 
                    [
                        {
                            "pitch": 52, 
                            "t0": 38250, 
                            "v": 100, 
                            "dur": 250, 
                            "type": "note", 
                            "channel": 0
                        }
                    ]
                ], 
                [
                    38500, 
                    [
                        {
                            "pitch": 54, 
                            "t0": 38500, 
                            "v": 100, 
                            "dur": 250, 
                            "type": "note", 
                            "channel": 0
                        }
                    ]
                ], 
                [
                    38750, 
                    [
                        {
                            "pitch": 57, 
                            "t0": 38750, 
                            "v": 100, 
                            "dur": 250, 
                            "type": "note", 
                            "channel": 0
                        }
                    ]
                ], 
                [
                    39000, 
                    [
                        {
                            "pitch": 55, 
                            "t0": 39000, 
                            "v": 100, 
                            "dur": 250, 
                            "type": "note", 
                            "channel": 0
                        }
                    ]
                ], 
                [
                    39250, 
                    [
                        {
                            "pitch": 54, 
                            "t0": 39250, 
                            "v": 100, 
                            "dur": 250, 
                            "type": "note", 
                            "channel": 0
                        }
                    ]
                ], 
                [
                    39500, 
                    [
                        {
                            "pitch": 52, 
                            "t0": 39500, 
                            "v": 100, 
                            "dur": 250, 
                            "type": "note", 
                            "channel": 0
                        }
                    ]
                ], 
                [
                    39750, 
                    [
                        {
                            "pitch": 50, 
                            "t0": 39750, 
                            "v": 100, 
                            "dur": 250, 
                            "type": "note", 
                            "channel": 0
                        }
                    ]
                ], 
                [
                    40000, 
                    [
                        {
                            "pitch": 56, 
                            "t0": 40000, 
                            "v": 100, 
                            "dur": 250, 
                            "type": "note", 
                            "channel": 0
                        }
                    ]
                ], 
                [
                    40250, 
                    [
                        {
                            "pitch": 50, 
                            "t0": 40250, 
                            "v": 100, 
                            "dur": 250, 
                            "type": "note", 
                            "channel": 0
                        }
                    ]
                ], 
                [
                    40500, 
                    [
                        {
                            "pitch": 53, 
                            "t0": 40500, 
                            "v": 100, 
                            "dur": 250, 
                            "type": "note", 
                            "channel": 0
                        }
                    ]
                ], 
                [
                    40750, 
                    [
                        {
                            "pitch": 52, 
                            "t0": 40750, 
                            "v": 100, 
                            "dur": 250, 
                            "type": "note", 
                            "channel": 0
                        }
                    ]
                ], 
                [
                    41000, 
                    [
                        {
                            "pitch": 53, 
                            "t0": 41000, 
                            "v": 100, 
                            "dur": 250, 
                            "type": "note", 
                            "channel": 0
                        }
                    ]
                ], 
                [
                    41250, 
                    [
                        {
                            "pitch": 50, 
                            "t0": 41250, 
                            "v": 100, 
                            "dur": 250, 
                            "type": "note", 
                            "channel": 0
                        }
                    ]
                ], 
                [
                    41500, 
                    [
                        {
                            "pitch": 56, 
                            "t0": 41500, 
                            "v": 100, 
                            "dur": 250, 
                            "type": "note", 
                            "channel": 0
                        }
                    ]
                ], 
                [
                    41750, 
                    [
                        {
                            "pitch": 50, 
                            "t0": 41750, 
                            "v": 100, 
                            "dur": 250, 
                            "type": "note", 
                            "channel": 0
                        }
                    ]
                ], 
                [
                    42000, 
                    [
                        {
                            "pitch": 59, 
                            "t0": 42000, 
                            "v": 100, 
                            "dur": 250, 
                            "type": "note", 
                            "channel": 0
                        }
                    ]
                ], 
                [
                    42250, 
                    [
                        {
                            "pitch": 50, 
                            "t0": 42250, 
                            "v": 100, 
                            "dur": 250, 
                            "type": "note", 
                            "channel": 0
                        }
                    ]
                ], 
                [
                    42500, 
                    [
                        {
                            "pitch": 53, 
                            "t0": 42500, 
                            "v": 100, 
                            "dur": 250, 
                            "type": "note", 
                            "channel": 0
                        }
                    ]
                ], 
                [
                    42750, 
                    [
                        {
                            "pitch": 52, 
                            "t0": 42750, 
                            "v": 100, 
                            "dur": 250, 
                            "type": "note", 
                            "channel": 0
                        }
                    ]
                ], 
                [
                    43000, 
                    [
                        {
                            "pitch": 53, 
                            "t0": 43000, 
                            "v": 100, 
                            "dur": 250, 
                            "type": "note", 
                            "channel": 0
                        }
                    ]
                ], 
                [
                    43250, 
                    [
                        {
                            "pitch": 50, 
                            "t0": 43250, 
                            "v": 100, 
                            "dur": 250, 
                            "type": "note", 
                            "channel": 0
                        }
                    ]
                ], 
                [
                    43500, 
                    [
                        {
                            "pitch": 56, 
                            "t0": 43500, 
                            "v": 100, 
                            "dur": 250, 
                            "type": "note", 
                            "channel": 0
                        }
                    ]
                ], 
                [
                    43750, 
                    [
                        {
                            "pitch": 50, 
                            "t0": 43750, 
                            "v": 100, 
                            "dur": 250, 
                            "type": "note", 
                            "channel": 0
                        }
                    ]
                ], 
                [
                    44000, 
                    [
                        {
                            "pitch": 48, 
                            "t0": 44000, 
                            "v": 100, 
                            "dur": 250, 
                            "type": "note", 
                            "channel": 0
                        }
                    ]
                ], 
                [
                    44250, 
                    [
                        {
                            "pitch": 52, 
                            "t0": 44250, 
                            "v": 100, 
                            "dur": 250, 
                            "type": "note", 
                            "channel": 0
                        }
                    ]
                ], 
                [
                    44500, 
                    [
                        {
                            "pitch": 57, 
                            "t0": 44500, 
                            "v": 100, 
                            "dur": 250, 
                            "type": "note", 
                            "channel": 0
                        }
                    ]
                ], 
                [
                    44750, 
                    [
                        {
                            "pitch": 59, 
                            "t0": 44750, 
                            "v": 100, 
                            "dur": 250, 
                            "type": "note", 
                            "channel": 0
                        }
                    ]
                ], 
                [
                    45000, 
                    [
                        {
                            "pitch": 60, 
                            "t0": 45000, 
                            "v": 100, 
                            "dur": 250, 
                            "type": "note", 
                            "channel": 0
                        }
                    ]
                ], 
                [
                    45250, 
                    [
                        {
                            "pitch": 57, 
                            "t0": 45250, 
                            "v": 100, 
                            "dur": 250, 
                            "type": "note", 
                            "channel": 0
                        }
                    ]
                ], 
                [
                    45500, 
                    [
                        {
                            "pitch": 52, 
                            "t0": 45500, 
                            "v": 100, 
                            "dur": 250, 
                            "type": "note", 
                            "channel": 0
                        }
                    ]
                ], 
                [
                    45750, 
                    [
                        {
                            "pitch": 50, 
                            "t0": 45750, 
                            "v": 100, 
                            "dur": 250, 
                            "type": "note", 
                            "channel": 0
                        }
                    ]
                ], 
                [
                    46000, 
                    [
                        {
                            "pitch": 48, 
                            "t0": 46000, 
                            "v": 100, 
                            "dur": 250, 
                            "type": "note", 
                            "channel": 0
                        }
                    ]
                ], 
                [
                    46250, 
                    [
                        {
                            "pitch": 52, 
                            "t0": 46250, 
                            "v": 100, 
                            "dur": 250, 
                            "type": "note", 
                            "channel": 0
                        }
                    ]
                ], 
                [
                    46500, 
                    [
                        {
                            "pitch": 57, 
                            "t0": 46500, 
                            "v": 100, 
                            "dur": 250, 
                            "type": "note", 
                            "channel": 0
                        }
                    ]
                ], 
                [
                    46750, 
                    [
                        {
                            "pitch": 59, 
                            "t0": 46750, 
                            "v": 100, 
                            "dur": 250, 
                            "type": "note", 
                            "channel": 0
                        }
                    ]
                ], 
                [
                    47000, 
                    [
                        {
                            "pitch": 60, 
                            "t0": 47000, 
                            "v": 100, 
                            "dur": 250, 
                            "type": "note", 
                            "channel": 0
                        }
                    ]
                ], 
                [
                    47250, 
                    [
                        {
                            "pitch": 57, 
                            "t0": 47250, 
                            "v": 100, 
                            "dur": 250, 
                            "type": "note", 
                            "channel": 0
                        }
                    ]
                ], 
                [
                    47500, 
                    [
                        {
                            "pitch": 54, 
                            "t0": 47500, 
                            "v": 100, 
                            "dur": 250, 
                            "type": "note", 
                            "channel": 0
                        }
                    ]
                ], 
                [
                    47750, 
                    [
                        {
                            "pitch": 52, 
                            "t0": 47750, 
                            "v": 100, 
                            "dur": 250, 
                            "type": "note", 
                            "channel": 0
                        }
                    ]
                ], 
                [
                    48000, 
                    [
                        {
                            "pitch": 51, 
                            "t0": 48000, 
                            "v": 100, 
                            "dur": 250, 
                            "type": "note", 
                            "channel": 0
                        }
                    ]
                ], 
                [
                    48250, 
                    [
                        {
                            "pitch": 54, 
                            "t0": 48250, 
                            "v": 100, 
                            "dur": 250, 
                            "type": "note", 
                            "channel": 0
                        }
                    ]
                ], 
                [
                    48500, 
                    [
                        {
                            "pitch": 51, 
                            "t0": 48500, 
                            "v": 100, 
                            "dur": 250, 
                            "type": "note", 
                            "channel": 0
                        }
                    ]
                ], 
                [
                    48750, 
                    [
                        {
                            "pitch": 54, 
                            "t0": 48750, 
                            "v": 100, 
                            "dur": 250, 
                            "type": "note", 
                            "channel": 0
                        }
                    ]
                ], 
                [
                    49000, 
                    [
                        {
                            "pitch": 57, 
                            "t0": 49000, 
                            "v": 100, 
                            "dur": 250, 
                            "type": "note", 
                            "channel": 0
                        }
                    ]
                ], 
                [
                    49250, 
                    [
                        {
                            "pitch": 54, 
                            "t0": 49250, 
                            "v": 100, 
                            "dur": 250, 
                            "type": "note", 
                            "channel": 0
                        }
                    ]
                ], 
                [
                    49500, 
                    [
                        {
                            "pitch": 57, 
                            "t0": 49500, 
                            "v": 100, 
                            "dur": 250, 
                            "type": "note", 
                            "channel": 0
                        }
                    ]
                ], 
                [
                    49750, 
                    [
                        {
                            "pitch": 54, 
                            "t0": 49750, 
                            "v": 100, 
                            "dur": 250, 
                            "type": "note", 
                            "channel": 0
                        }
                    ]
                ], 
                [
                    50000, 
                    [
                        {
                            "pitch": 51, 
                            "t0": 50000, 
                            "v": 100, 
                            "dur": 250, 
                            "type": "note", 
                            "channel": 0
                        }
                    ]
                ], 
                [
                    50250, 
                    [
                        {
                            "pitch": 54, 
                            "t0": 50250, 
                            "v": 100, 
                            "dur": 250, 
                            "type": "note", 
                            "channel": 0
                        }
                    ]
                ], 
                [
                    50500, 
                    [
                        {
                            "pitch": 51, 
                            "t0": 50500, 
                            "v": 100, 
                            "dur": 250, 
                            "type": "note", 
                            "channel": 0
                        }
                    ]
                ], 
                [
                    50750, 
                    [
                        {
                            "pitch": 54, 
                            "t0": 50750, 
                            "v": 100, 
                            "dur": 250, 
                            "type": "note", 
                            "channel": 0
                        }
                    ]
                ], 
                [
                    51000, 
                    [
                        {
                            "pitch": 57, 
                            "t0": 51000, 
                            "v": 100, 
                            "dur": 250, 
                            "type": "note", 
                            "channel": 0
                        }
                    ]
                ], 
                [
                    51250, 
                    [
                        {
                            "pitch": 54, 
                            "t0": 51250, 
                            "v": 100, 
                            "dur": 250, 
                            "type": "note", 
                            "channel": 0
                        }
                    ]
                ], 
                [
                    51500, 
                    [
                        {
                            "pitch": 57, 
                            "t0": 51500, 
                            "v": 100, 
                            "dur": 250, 
                            "type": "note", 
                            "channel": 0
                        }
                    ]
                ], 
                [
                    51750, 
                    [
                        {
                            "pitch": 54, 
                            "t0": 51750, 
                            "v": 100, 
                            "dur": 250, 
                            "type": "note", 
                            "channel": 0
                        }
                    ]
                ], 
                [
                    52000, 
                    [
                        {
                            "pitch": 55, 
                            "t0": 52000, 
                            "v": 100, 
                            "dur": 250, 
                            "type": "note", 
                            "channel": 0
                        }
                    ]
                ], 
                [
                    52250, 
                    [
                        {
                            "pitch": 54, 
                            "t0": 52250, 
                            "v": 100, 
                            "dur": 250, 
                            "type": "note", 
                            "channel": 0
                        }
                    ]
                ], 
                [
                    52500, 
                    [
                        {
                            "pitch": 52, 
                            "t0": 52500, 
                            "v": 100, 
                            "dur": 250, 
                            "type": "note", 
                            "channel": 0
                        }
                    ]
                ], 
                [
                    52750, 
                    [
                        {
                            "pitch": 55, 
                            "t0": 52750, 
                            "v": 100, 
                            "dur": 250, 
                            "type": "note", 
                            "channel": 0
                        }
                    ]
                ], 
                [
                    53000, 
                    [
                        {
                            "pitch": 54, 
                            "t0": 53000, 
                            "v": 100, 
                            "dur": 250, 
                            "type": "note", 
                            "channel": 0
                        }
                    ]
                ], 
                [
                    53250, 
                    [
                        {
                            "pitch": 55, 
                            "t0": 53250, 
                            "v": 100, 
                            "dur": 250, 
                            "type": "note", 
                            "channel": 0
                        }
                    ]
                ], 
                [
                    53500, 
                    [
                        {
                            "pitch": 57, 
                            "t0": 53500, 
                            "v": 100, 
                            "dur": 250, 
                            "type": "note", 
                            "channel": 0
                        }
                    ]
                ], 
                [
                    53750, 
                    [
                        {
                            "pitch": 54, 
                            "t0": 53750, 
                            "v": 100, 
                            "dur": 250, 
                            "type": "note", 
                            "channel": 0
                        }
                    ]
                ], 
                [
                    54000, 
                    [
                        {
                            "pitch": 55, 
                            "t0": 54000, 
                            "v": 100, 
                            "dur": 250, 
                            "type": "note", 
                            "channel": 0
                        }
                    ]
                ], 
                [
                    54250, 
                    [
                        {
                            "pitch": 54, 
                            "t0": 54250, 
                            "v": 100, 
                            "dur": 250, 
                            "type": "note", 
                            "channel": 0
                        }
                    ]
                ], 
                [
                    54500, 
                    [
                        {
                            "pitch": 52, 
                            "t0": 54500, 
                            "v": 100, 
                            "dur": 250, 
                            "type": "note", 
                            "channel": 0
                        }
                    ]
                ], 
                [
                    54750, 
                    [
                        {
                            "pitch": 50, 
                            "t0": 54750, 
                            "v": 100, 
                            "dur": 250, 
                            "type": "note", 
                            "channel": 0
                        }
                    ]
                ], 
                [
                    55000, 
                    [
                        {
                            "pitch": 48, 
                            "t0": 55000, 
                            "v": 100, 
                            "dur": 250, 
                            "type": "note", 
                            "channel": 0
                        }
                    ]
                ], 
                [
                    55250, 
                    [
                        {
                            "pitch": 47, 
                            "t0": 55250, 
                            "v": 100, 
                            "dur": 250, 
                            "type": "note", 
                            "channel": 0
                        }
                    ]
                ], 
                [
                    55500, 
                    [
                        {
                            "pitch": 45, 
                            "t0": 55500, 
                            "v": 100, 
                            "dur": 250, 
                            "type": "note", 
                            "channel": 0
                        }
                    ]
                ], 
                [
                    55750, 
                    [
                        {
                            "pitch": 43, 
                            "t0": 55750, 
                            "v": 100, 
                            "dur": 250, 
                            "type": "note", 
                            "channel": 0
                        }
                    ]
                ], 
                [
                    56000, 
                    [
                        {
                            "pitch": 42, 
                            "t0": 56000, 
                            "v": 100, 
                            "dur": 250, 
                            "type": "note", 
                            "channel": 0
                        }
                    ]
                ], 
                [
                    56250, 
                    [
                        {
                            "pitch": 48, 
                            "t0": 56250, 
                            "v": 100, 
                            "dur": 250, 
                            "type": "note", 
                            "channel": 0
                        }
                    ]
                ], 
                [
                    56500, 
                    [
                        {
                            "pitch": 50, 
                            "t0": 56500, 
                            "v": 100, 
                            "dur": 250, 
                            "type": "note", 
                            "channel": 0
                        }
                    ]
                ], 
                [
                    56750, 
                    [
                        {
                            "pitch": 48, 
                            "t0": 56750, 
                            "v": 100, 
                            "dur": 250, 
                            "type": "note", 
                            "channel": 0
                        }
                    ]
                ], 
                [
                    57000, 
                    [
                        {
                            "pitch": 50, 
                            "t0": 57000, 
                            "v": 100, 
                            "dur": 250, 
                            "type": "note", 
                            "channel": 0
                        }
                    ]
                ], 
                [
                    57250, 
                    [
                        {
                            "pitch": 48, 
                            "t0": 57250, 
                            "v": 100, 
                            "dur": 250, 
                            "type": "note", 
                            "channel": 0
                        }
                    ]
                ], 
                [
                    57500, 
                    [
                        {
                            "pitch": 50, 
                            "t0": 57500, 
                            "v": 100, 
                            "dur": 250, 
                            "type": "note", 
                            "channel": 0
                        }
                    ]
                ], 
                [
                    57750, 
                    [
                        {
                            "pitch": 48, 
                            "t0": 57750, 
                            "v": 100, 
                            "dur": 250, 
                            "type": "note", 
                            "channel": 0
                        }
                    ]
                ], 
                [
                    58000, 
                    [
                        {
                            "pitch": 42, 
                            "t0": 58000, 
                            "v": 100, 
                            "dur": 250, 
                            "type": "note", 
                            "channel": 0
                        }
                    ]
                ], 
                [
                    58250, 
                    [
                        {
                            "pitch": 48, 
                            "t0": 58250, 
                            "v": 100, 
                            "dur": 250, 
                            "type": "note", 
                            "channel": 0
                        }
                    ]
                ], 
                [
                    58500, 
                    [
                        {
                            "pitch": 50, 
                            "t0": 58500, 
                            "v": 100, 
                            "dur": 250, 
                            "type": "note", 
                            "channel": 0
                        }
                    ]
                ], 
                [
                    58750, 
                    [
                        {
                            "pitch": 48, 
                            "t0": 58750, 
                            "v": 100, 
                            "dur": 250, 
                            "type": "note", 
                            "channel": 0
                        }
                    ]
                ], 
                [
                    59000, 
                    [
                        {
                            "pitch": 50, 
                            "t0": 59000, 
                            "v": 100, 
                            "dur": 250, 
                            "type": "note", 
                            "channel": 0
                        }
                    ]
                ], 
                [
                    59250, 
                    [
                        {
                            "pitch": 48, 
                            "t0": 59250, 
                            "v": 100, 
                            "dur": 250, 
                            "type": "note", 
                            "channel": 0
                        }
                    ]
                ], 
                [
                    59500, 
                    [
                        {
                            "pitch": 50, 
                            "t0": 59500, 
                            "v": 100, 
                            "dur": 250, 
                            "type": "note", 
                            "channel": 0
                        }
                    ]
                ], 
                [
                    59750, 
                    [
                        {
                            "pitch": 48, 
                            "t0": 59750, 
                            "v": 100, 
                            "dur": 250, 
                            "type": "note", 
                            "channel": 0
                        }
                    ]
                ], 
                [
                    60000, 
                    [
                        {
                            "pitch": 43, 
                            "t0": 60000, 
                            "v": 100, 
                            "dur": 250, 
                            "type": "note", 
                            "channel": 0
                        }
                    ]
                ], 
                [
                    60250, 
                    [
                        {
                            "pitch": 47, 
                            "t0": 60250, 
                            "v": 100, 
                            "dur": 250, 
                            "type": "note", 
                            "channel": 0
                        }
                    ]
                ], 
                [
                    60500, 
                    [
                        {
                            "pitch": 53, 
                            "t0": 60500, 
                            "v": 100, 
                            "dur": 250, 
                            "type": "note", 
                            "channel": 0
                        }
                    ]
                ], 
                [
                    60750, 
                    [
                        {
                            "pitch": 52, 
                            "t0": 60750, 
                            "v": 100, 
                            "dur": 250, 
                            "type": "note", 
                            "channel": 0
                        }
                    ]
                ], 
                [
                    61000, 
                    [
                        {
                            "pitch": 53, 
                            "t0": 61000, 
                            "v": 100, 
                            "dur": 250, 
                            "type": "note", 
                            "channel": 0
                        }
                    ]
                ], 
                [
                    61250, 
                    [
                        {
                            "pitch": 47, 
                            "t0": 61250, 
                            "v": 100, 
                            "dur": 250, 
                            "type": "note", 
                            "channel": 0
                        }
                    ]
                ], 
                [
                    61500, 
                    [
                        {
                            "pitch": 53, 
                            "t0": 61500, 
                            "v": 100, 
                            "dur": 250, 
                            "type": "note", 
                            "channel": 0
                        }
                    ]
                ], 
                [
                    61750, 
                    [
                        {
                            "pitch": 47, 
                            "t0": 61750, 
                            "v": 100, 
                            "dur": 250, 
                            "type": "note", 
                            "channel": 0
                        }
                    ]
                ], 
                [
                    62000, 
                    [
                        {
                            "pitch": 43, 
                            "t0": 62000, 
                            "v": 100, 
                            "dur": 250, 
                            "type": "note", 
                            "channel": 0
                        }
                    ]
                ], 
                [
                    62250, 
                    [
                        {
                            "pitch": 47, 
                            "t0": 62250, 
                            "v": 100, 
                            "dur": 250, 
                            "type": "note", 
                            "channel": 0
                        }
                    ]
                ], 
                [
                    62500, 
                    [
                        {
                            "pitch": 53, 
                            "t0": 62500, 
                            "v": 100, 
                            "dur": 250, 
                            "type": "note", 
                            "channel": 0
                        }
                    ]
                ], 
                [
                    62750, 
                    [
                        {
                            "pitch": 52, 
                            "t0": 62750, 
                            "v": 100, 
                            "dur": 250, 
                            "type": "note", 
                            "channel": 0
                        }
                    ]
                ], 
                [
                    63000, 
                    [
                        {
                            "pitch": 53, 
                            "t0": 63000, 
                            "v": 100, 
                            "dur": 250, 
                            "type": "note", 
                            "channel": 0
                        }
                    ]
                ], 
                [
                    63250, 
                    [
                        {
                            "pitch": 47, 
                            "t0": 63250, 
                            "v": 100, 
                            "dur": 250, 
                            "type": "note", 
                            "channel": 0
                        }
                    ]
                ], 
                [
                    63500, 
                    [
                        {
                            "pitch": 53, 
                            "t0": 63500, 
                            "v": 100, 
                            "dur": 250, 
                            "type": "note", 
                            "channel": 0
                        }
                    ]
                ], 
                [
                    63750, 
                    [
                        {
                            "pitch": 47, 
                            "t0": 63750, 
                            "v": 100, 
                            "dur": 250, 
                            "type": "note", 
                            "channel": 0
                        }
                    ]
                ], 
                [
                    64000, 
                    [
                        {
                            "pitch": 43, 
                            "t0": 64000, 
                            "v": 100, 
                            "dur": 250, 
                            "type": "note", 
                            "channel": 0
                        }
                    ]
                ], 
                [
                    64250, 
                    [
                        {
                            "pitch": 48, 
                            "t0": 64250, 
                            "v": 100, 
                            "dur": 250, 
                            "type": "note", 
                            "channel": 0
                        }
                    ]
                ], 
                [
                    64500, 
                    [
                        {
                            "pitch": 52, 
                            "t0": 64500, 
                            "v": 100, 
                            "dur": 250, 
                            "type": "note", 
                            "channel": 0
                        }
                    ]
                ], 
                [
                    64750, 
                    [
                        {
                            "pitch": 50, 
                            "t0": 64750, 
                            "v": 100, 
                            "dur": 250, 
                            "type": "note", 
                            "channel": 0
                        }
                    ]
                ], 
                [
                    65000, 
                    [
                        {
                            "pitch": 52, 
                            "t0": 65000, 
                            "v": 100, 
                            "dur": 250, 
                            "type": "note", 
                            "channel": 0
                        }
                    ]
                ], 
                [
                    65250, 
                    [
                        {
                            "pitch": 48, 
                            "t0": 65250, 
                            "v": 100, 
                            "dur": 250, 
                            "type": "note", 
                            "channel": 0
                        }
                    ]
                ], 
                [
                    65500, 
                    [
                        {
                            "pitch": 52, 
                            "t0": 65500, 
                            "v": 100, 
                            "dur": 250, 
                            "type": "note", 
                            "channel": 0
                        }
                    ]
                ], 
                [
                    65750, 
                    [
                        {
                            "pitch": 48, 
                            "t0": 65750, 
                            "v": 100, 
                            "dur": 250, 
                            "type": "note", 
                            "channel": 0
                        }
                    ]
                ], 
                [
                    66000, 
                    [
                        {
                            "pitch": 43, 
                            "t0": 66000, 
                            "v": 100, 
                            "dur": 250, 
                            "type": "note", 
                            "channel": 0
                        }
                    ]
                ], 
                [
                    66250, 
                    [
                        {
                            "pitch": 48, 
                            "t0": 66250, 
                            "v": 100, 
                            "dur": 250, 
                            "type": "note", 
                            "channel": 0
                        }
                    ]
                ], 
                [
                    66500, 
                    [
                        {
                            "pitch": 52, 
                            "t0": 66500, 
                            "v": 100, 
                            "dur": 250, 
                            "type": "note", 
                            "channel": 0
                        }
                    ]
                ], 
                [
                    66750, 
                    [
                        {
                            "pitch": 50, 
                            "t0": 66750, 
                            "v": 100, 
                            "dur": 250, 
                            "type": "note", 
                            "channel": 0
                        }
                    ]
                ], 
                [
                    67000, 
                    [
                        {
                            "pitch": 52, 
                            "t0": 67000, 
                            "v": 100, 
                            "dur": 250, 
                            "type": "note", 
                            "channel": 0
                        }
                    ]
                ], 
                [
                    67250, 
                    [
                        {
                            "pitch": 48, 
                            "t0": 67250, 
                            "v": 100, 
                            "dur": 250, 
                            "type": "note", 
                            "channel": 0
                        }
                    ]
                ], 
                [
                    67500, 
                    [
                        {
                            "pitch": 52, 
                            "t0": 67500, 
                            "v": 100, 
                            "dur": 250, 
                            "type": "note", 
                            "channel": 0
                        }
                    ]
                ], 
                [
                    67750, 
                    [
                        {
                            "pitch": 48, 
                            "t0": 67750, 
                            "v": 100, 
                            "dur": 250, 
                            "type": "note", 
                            "channel": 0
                        }
                    ]
                ], 
                [
                    68000, 
                    [
                        {
                            "pitch": 43, 
                            "t0": 68000, 
                            "v": 100, 
                            "dur": 250, 
                            "type": "note", 
                            "channel": 0
                        }
                    ]
                ], 
                [
                    68250, 
                    [
                        {
                            "pitch": 54, 
                            "t0": 68250, 
                            "v": 100, 
                            "dur": 250, 
                            "type": "note", 
                            "channel": 0
                        }
                    ]
                ], 
                [
                    68500, 
                    [
                        {
                            "pitch": 60, 
                            "t0": 68500, 
                            "v": 100, 
                            "dur": 250, 
                            "type": "note", 
                            "channel": 0
                        }
                    ]
                ], 
                [
                    68750, 
                    [
                        {
                            "pitch": 59, 
                            "t0": 68750, 
                            "v": 100, 
                            "dur": 250, 
                            "type": "note", 
                            "channel": 0
                        }
                    ]
                ], 
                [
                    69000, 
                    [
                        {
                            "pitch": 60, 
                            "t0": 69000, 
                            "v": 100, 
                            "dur": 250, 
                            "type": "note", 
                            "channel": 0
                        }
                    ]
                ], 
                [
                    69250, 
                    [
                        {
                            "pitch": 54, 
                            "t0": 69250, 
                            "v": 100, 
                            "dur": 250, 
                            "type": "note", 
                            "channel": 0
                        }
                    ]
                ], 
                [
                    69500, 
                    [
                        {
                            "pitch": 60, 
                            "t0": 69500, 
                            "v": 100, 
                            "dur": 250, 
                            "type": "note", 
                            "channel": 0
                        }
                    ]
                ], 
                [
                    69750, 
                    [
                        {
                            "pitch": 54, 
                            "t0": 69750, 
                            "v": 100, 
                            "dur": 250, 
                            "type": "note", 
                            "channel": 0
                        }
                    ]
                ], 
                [
                    70000, 
                    [
                        {
                            "pitch": 43, 
                            "t0": 70000, 
                            "v": 100, 
                            "dur": 250, 
                            "type": "note", 
                            "channel": 0
                        }
                    ]
                ], 
                [
                    70250, 
                    [
                        {
                            "pitch": 54, 
                            "t0": 70250, 
                            "v": 100, 
                            "dur": 250, 
                            "type": "note", 
                            "channel": 0
                        }
                    ]
                ], 
                [
                    70500, 
                    [
                        {
                            "pitch": 60, 
                            "t0": 70500, 
                            "v": 100, 
                            "dur": 250, 
                            "type": "note", 
                            "channel": 0
                        }
                    ]
                ], 
                [
                    70750, 
                    [
                        {
                            "pitch": 59, 
                            "t0": 70750, 
                            "v": 100, 
                            "dur": 250, 
                            "type": "note", 
                            "channel": 0
                        }
                    ]
                ], 
                [
                    71000, 
                    [
                        {
                            "pitch": 60, 
                            "t0": 71000, 
                            "v": 100, 
                            "dur": 250, 
                            "type": "note", 
                            "channel": 0
                        }
                    ]
                ], 
                [
                    71250, 
                    [
                        {
                            "pitch": 54, 
                            "t0": 71250, 
                            "v": 100, 
                            "dur": 250, 
                            "type": "note", 
                            "channel": 0
                        }
                    ]
                ], 
                [
                    71500, 
                    [
                        {
                            "pitch": 60, 
                            "t0": 71500, 
                            "v": 100, 
                            "dur": 250, 
                            "type": "note", 
                            "channel": 0
                        }
                    ]
                ], 
                [
                    71750, 
                    [
                        {
                            "pitch": 54, 
                            "t0": 71750, 
                            "v": 100, 
                            "dur": 250, 
                            "type": "note", 
                            "channel": 0
                        }
                    ]
                ], 
                [
                    72000, 
                    [
                        {
                            "pitch": 43, 
                            "t0": 72000, 
                            "v": 100, 
                            "dur": 250, 
                            "type": "note", 
                            "channel": 0
                        }
                    ]
                ], 
                [
                    72250, 
                    [
                        {
                            "pitch": 50, 
                            "t0": 72250, 
                            "v": 100, 
                            "dur": 250, 
                            "type": "note", 
                            "channel": 0
                        }
                    ]
                ], 
                [
                    72500, 
                    [
                        {
                            "pitch": 59, 
                            "t0": 72500, 
                            "v": 100, 
                            "dur": 250, 
                            "type": "note", 
                            "channel": 0
                        }
                    ]
                ], 
                [
                    72750, 
                    [
                        {
                            "pitch": 57, 
                            "t0": 72750, 
                            "v": 100, 
                            "dur": 250, 
                            "type": "note", 
                            "channel": 0
                        }
                    ]
                ], 
                [
                    73000, 
                    [
                        {
                            "pitch": 59, 
                            "t0": 73000, 
                            "v": 100, 
                            "dur": 250, 
                            "type": "note", 
                            "channel": 0
                        }
                    ]
                ], 
                [
                    73250, 
                    [
                        {
                            "pitch": 55, 
                            "t0": 73250, 
                            "v": 100, 
                            "dur": 250, 
                            "type": "note", 
                            "channel": 0
                        }
                    ]
                ], 
                [
                    73500, 
                    [
                        {
                            "pitch": 54, 
                            "t0": 73500, 
                            "v": 100, 
                            "dur": 250, 
                            "type": "note", 
                            "channel": 0
                        }
                    ]
                ], 
                [
                    73750, 
                    [
                        {
                            "pitch": 52, 
                            "t0": 73750, 
                            "v": 100, 
                            "dur": 250, 
                            "type": "note", 
                            "channel": 0
                        }
                    ]
                ], 
                [
                    74000, 
                    [
                        {
                            "pitch": 50, 
                            "t0": 74000, 
                            "v": 100, 
                            "dur": 250, 
                            "type": "note", 
                            "channel": 0
                        }
                    ]
                ], 
                [
                    74250, 
                    [
                        {
                            "pitch": 48, 
                            "t0": 74250, 
                            "v": 100, 
                            "dur": 250, 
                            "type": "note", 
                            "channel": 0
                        }
                    ]
                ], 
                [
                    74500, 
                    [
                        {
                            "pitch": 47, 
                            "t0": 74500, 
                            "v": 100, 
                            "dur": 250, 
                            "type": "note", 
                            "channel": 0
                        }
                    ]
                ], 
                [
                    74750, 
                    [
                        {
                            "pitch": 45, 
                            "t0": 74750, 
                            "v": 100, 
                            "dur": 250, 
                            "type": "note", 
                            "channel": 0
                        }
                    ]
                ], 
                [
                    75000, 
                    [
                        {
                            "pitch": 43, 
                            "t0": 75000, 
                            "v": 100, 
                            "dur": 250, 
                            "type": "note", 
                            "channel": 0
                        }
                    ]
                ], 
                [
                    75250, 
                    [
                        {
                            "pitch": 42, 
                            "t0": 75250, 
                            "v": 100, 
                            "dur": 250, 
                            "type": "note", 
                            "channel": 0
                        }
                    ]
                ], 
                [
                    75500, 
                    [
                        {
                            "pitch": 40, 
                            "t0": 75500, 
                            "v": 100, 
                            "dur": 250, 
                            "type": "note", 
                            "channel": 0
                        }
                    ]
                ], 
                [
                    75750, 
                    [
                        {
                            "pitch": 38, 
                            "t0": 75750, 
                            "v": 100, 
                            "dur": 250, 
                            "type": "note", 
                            "channel": 0
                        }
                    ]
                ], 
                [
                    76000, 
                    [
                        {
                            "pitch": 37, 
                            "t0": 76000, 
                            "v": 100, 
                            "dur": 250, 
                            "type": "note", 
                            "channel": 0
                        }
                    ]
                ], 
                [
                    76250, 
                    [
                        {
                            "pitch": 45, 
                            "t0": 76250, 
                            "v": 100, 
                            "dur": 250, 
                            "type": "note", 
                            "channel": 0
                        }
                    ]
                ], 
                [
                    76500, 
                    [
                        {
                            "pitch": 52, 
                            "t0": 76500, 
                            "v": 100, 
                            "dur": 250, 
                            "type": "note", 
                            "channel": 0
                        }
                    ]
                ], 
                [
                    76750, 
                    [
                        {
                            "pitch": 54, 
                            "t0": 76750, 
                            "v": 100, 
                            "dur": 250, 
                            "type": "note", 
                            "channel": 0
                        }
                    ]
                ], 
                [
                    77000, 
                    [
                        {
                            "pitch": 55, 
                            "t0": 77000, 
                            "v": 100, 
                            "dur": 250, 
                            "type": "note", 
                            "channel": 0
                        }
                    ]
                ], 
                [
                    77250, 
                    [
                        {
                            "pitch": 52, 
                            "t0": 77250, 
                            "v": 100, 
                            "dur": 250, 
                            "type": "note", 
                            "channel": 0
                        }
                    ]
                ], 
                [
                    77500, 
                    [
                        {
                            "pitch": 54, 
                            "t0": 77500, 
                            "v": 100, 
                            "dur": 250, 
                            "type": "note", 
                            "channel": 0
                        }
                    ]
                ], 
                [
                    77750, 
                    [
                        {
                            "pitch": 55, 
                            "t0": 77750, 
                            "v": 100, 
                            "dur": 250, 
                            "type": "note", 
                            "channel": 0
                        }
                    ]
                ], 
                [
                    78000, 
                    [
                        {
                            "pitch": 37, 
                            "t0": 78000, 
                            "v": 100, 
                            "dur": 250, 
                            "type": "note", 
                            "channel": 0
                        }
                    ]
                ], 
                [
                    78250, 
                    [
                        {
                            "pitch": 45, 
                            "t0": 78250, 
                            "v": 100, 
                            "dur": 250, 
                            "type": "note", 
                            "channel": 0
                        }
                    ]
                ], 
                [
                    78500, 
                    [
                        {
                            "pitch": 52, 
                            "t0": 78500, 
                            "v": 100, 
                            "dur": 250, 
                            "type": "note", 
                            "channel": 0
                        }
                    ]
                ], 
                [
                    78750, 
                    [
                        {
                            "pitch": 54, 
                            "t0": 78750, 
                            "v": 100, 
                            "dur": 250, 
                            "type": "note", 
                            "channel": 0
                        }
                    ]
                ], 
                [
                    79000, 
                    [
                        {
                            "pitch": 55, 
                            "t0": 79000, 
                            "v": 100, 
                            "dur": 250, 
                            "type": "note", 
                            "channel": 0
                        }
                    ]
                ], 
                [
                    79250, 
                    [
                        {
                            "pitch": 52, 
                            "t0": 79250, 
                            "v": 100, 
                            "dur": 250, 
                            "type": "note", 
                            "channel": 0
                        }
                    ]
                ], 
                [
                    79500, 
                    [
                        {
                            "pitch": 54, 
                            "t0": 79500, 
                            "v": 100, 
                            "dur": 250, 
                            "type": "note", 
                            "channel": 0
                        }
                    ]
                ], 
                [
                    79750, 
                    [
                        {
                            "pitch": 55, 
                            "t0": 79750, 
                            "v": 100, 
                            "dur": 250, 
                            "type": "note", 
                            "channel": 0
                        }
                    ]
                ], 
                [
                    80000, 
                    [
                        {
                            "pitch": 36, 
                            "t0": 80000, 
                            "v": 100, 
                            "dur": 250, 
                            "type": "note", 
                            "channel": 0
                        }
                    ]
                ], 
                [
                    80250, 
                    [
                        {
                            "pitch": 45, 
                            "t0": 80250, 
                            "v": 100, 
                            "dur": 250, 
                            "type": "note", 
                            "channel": 0
                        }
                    ]
                ], 
                [
                    80500, 
                    [
                        {
                            "pitch": 50, 
                            "t0": 80500, 
                            "v": 100, 
                            "dur": 250, 
                            "type": "note", 
                            "channel": 0
                        }
                    ]
                ], 
                [
                    80750, 
                    [
                        {
                            "pitch": 52, 
                            "t0": 80750, 
                            "v": 100, 
                            "dur": 250, 
                            "type": "note", 
                            "channel": 0
                        }
                    ]
                ], 
                [
                    81000, 
                    [
                        {
                            "pitch": 54, 
                            "t0": 81000, 
                            "v": 100, 
                            "dur": 250, 
                            "type": "note", 
                            "channel": 0
                        }
                    ]
                ], 
                [
                    81250, 
                    [
                        {
                            "pitch": 50, 
                            "t0": 81250, 
                            "v": 100, 
                            "dur": 250, 
                            "type": "note", 
                            "channel": 0
                        }
                    ]
                ], 
                [
                    81500, 
                    [
                        {
                            "pitch": 52, 
                            "t0": 81500, 
                            "v": 100, 
                            "dur": 250, 
                            "type": "note", 
                            "channel": 0
                        }
                    ]
                ], 
                [
                    81750, 
                    [
                        {
                            "pitch": 54, 
                            "t0": 81750, 
                            "v": 100, 
                            "dur": 250, 
                            "type": "note", 
                            "channel": 0
                        }
                    ]
                ], 
                [
                    82000, 
                    [
                        {
                            "pitch": 36, 
                            "t0": 82000, 
                            "v": 100, 
                            "dur": 250, 
                            "type": "note", 
                            "channel": 0
                        }
                    ]
                ], 
                [
                    82250, 
                    [
                        {
                            "pitch": 45, 
                            "t0": 82250, 
                            "v": 100, 
                            "dur": 250, 
                            "type": "note", 
                            "channel": 0
                        }
                    ]
                ], 
                [
                    82500, 
                    [
                        {
                            "pitch": 50, 
                            "t0": 82500, 
                            "v": 100, 
                            "dur": 250, 
                            "type": "note", 
                            "channel": 0
                        }
                    ]
                ], 
                [
                    82750, 
                    [
                        {
                            "pitch": 52, 
                            "t0": 82750, 
                            "v": 100, 
                            "dur": 250, 
                            "type": "note", 
                            "channel": 0
                        }
                    ]
                ], 
                [
                    83000, 
                    [
                        {
                            "pitch": 54, 
                            "t0": 83000, 
                            "v": 100, 
                            "dur": 250, 
                            "type": "note", 
                            "channel": 0
                        }
                    ]
                ], 
                [
                    83250, 
                    [
                        {
                            "pitch": 50, 
                            "t0": 83250, 
                            "v": 100, 
                            "dur": 250, 
                            "type": "note", 
                            "channel": 0
                        }
                    ]
                ], 
                [
                    83500, 
                    [
                        {
                            "pitch": 52, 
                            "t0": 83500, 
                            "v": 100, 
                            "dur": 250, 
                            "type": "note", 
                            "channel": 0
                        }
                    ]
                ], 
                [
                    83750, 
                    [
                        {
                            "pitch": 54, 
                            "t0": 83750, 
                            "v": 100, 
                            "dur": 250, 
                            "type": "note", 
                            "channel": 0
                        }
                    ]
                ], 
                [
                    84000, 
                    [
                        {
                            "pitch": 36, 
                            "t0": 84000, 
                            "v": 100, 
                            "dur": 250, 
                            "type": "note", 
                            "channel": 0
                        }
                    ]
                ], 
                [
                    84250, 
                    [
                        {
                            "pitch": 45, 
                            "t0": 84250, 
                            "v": 100, 
                            "dur": 250, 
                            "type": "note", 
                            "channel": 0
                        }
                    ]
                ], 
                [
                    84500, 
                    [
                        {
                            "pitch": 50, 
                            "t0": 84500, 
                            "v": 100, 
                            "dur": 250, 
                            "type": "note", 
                            "channel": 0
                        }
                    ]
                ], 
                [
                    84750, 
                    [
                        {
                            "pitch": 54, 
                            "t0": 84750, 
                            "v": 100, 
                            "dur": 250, 
                            "type": "note", 
                            "channel": 0
                        }
                    ]
                ], 
                [
                    85000, 
                    [
                        {
                            "pitch": 57, 
                            "t0": 85000, 
                            "v": 100, 
                            "dur": 250, 
                            "type": "note", 
                            "channel": 0
                        }
                    ]
                ], 
                [
                    85250, 
                    [
                        {
                            "pitch": 61, 
                            "t0": 85250, 
                            "v": 100, 
                            "dur": 250, 
                            "type": "note", 
                            "channel": 0
                        }
                    ]
                ], 
                [
                    85500, 
                    [
                        {
                            "pitch": 62, 
                            "t0": 85500, 
                            "v": 100, 
                            "dur": 750, 
                            "type": "note", 
                            "channel": 0
                        }
                    ]
                ], 
                [
                    86250, 
                    [
                        {
                            "pitch": 45, 
                            "t0": 86250, 
                            "v": 100, 
                            "dur": 250, 
                            "type": "note", 
                            "channel": 0
                        }
                    ]
                ], 
                [
                    86500, 
                    [
                        {
                            "pitch": 47, 
                            "t0": 86500, 
                            "v": 100, 
                            "dur": 250, 
                            "type": "note", 
                            "channel": 0
                        }
                    ]
                ], 
                [
                    86750, 
                    [
                        {
                            "pitch": 48, 
                            "t0": 86750, 
                            "v": 100, 
                            "dur": 250, 
                            "type": "note", 
                            "channel": 0
                        }
                    ]
                ], 
                [
                    87000, 
                    [
                        {
                            "pitch": 50, 
                            "t0": 87000, 
                            "v": 100, 
                            "dur": 250, 
                            "type": "note", 
                            "channel": 0
                        }
                    ]
                ], 
                [
                    87250, 
                    [
                        {
                            "pitch": 52, 
                            "t0": 87250, 
                            "v": 100, 
                            "dur": 250, 
                            "type": "note", 
                            "channel": 0
                        }
                    ]
                ], 
                [
                    87500, 
                    [
                        {
                            "pitch": 54, 
                            "t0": 87500, 
                            "v": 100, 
                            "dur": 250, 
                            "type": "note", 
                            "channel": 0
                        }
                    ]
                ], 
                [
                    87750, 
                    [
                        {
                            "pitch": 55, 
                            "t0": 87750, 
                            "v": 100, 
                            "dur": 250, 
                            "type": "note", 
                            "channel": 0
                        }
                    ]
                ], 
                [
                    88000, 
                    [
                        {
                            "pitch": 57, 
                            "t0": 88000, 
                            "v": 100, 
                            "dur": 250, 
                            "type": "note", 
                            "channel": 0
                        }
                    ]
                ], 
                [
                    88250, 
                    [
                        {
                            "pitch": 54, 
                            "t0": 88250, 
                            "v": 100, 
                            "dur": 250, 
                            "type": "note", 
                            "channel": 0
                        }
                    ]
                ], 
                [
                    88500, 
                    [
                        {
                            "pitch": 50, 
                            "t0": 88500, 
                            "v": 100, 
                            "dur": 250, 
                            "type": "note", 
                            "channel": 0
                        }
                    ]
                ], 
                [
                    88750, 
                    [
                        {
                            "pitch": 52, 
                            "t0": 88750, 
                            "v": 100, 
                            "dur": 250, 
                            "type": "note", 
                            "channel": 0
                        }
                    ]
                ], 
                [
                    89000, 
                    [
                        {
                            "pitch": 54, 
                            "t0": 89000, 
                            "v": 100, 
                            "dur": 250, 
                            "type": "note", 
                            "channel": 0
                        }
                    ]
                ], 
                [
                    89250, 
                    [
                        {
                            "pitch": 55, 
                            "t0": 89250, 
                            "v": 100, 
                            "dur": 250, 
                            "type": "note", 
                            "channel": 0
                        }
                    ]
                ], 
                [
                    89500, 
                    [
                        {
                            "pitch": 57, 
                            "t0": 89500, 
                            "v": 100, 
                            "dur": 250, 
                            "type": "note", 
                            "channel": 0
                        }
                    ]
                ], 
                [
                    89750, 
                    [
                        {
                            "pitch": 59, 
                            "t0": 89750, 
                            "v": 100, 
                            "dur": 250, 
                            "type": "note", 
                            "channel": 0
                        }
                    ]
                ], 
                [
                    90000, 
                    [
                        {
                            "pitch": 60, 
                            "t0": 90000, 
                            "v": 100, 
                            "dur": 250, 
                            "type": "note", 
                            "channel": 0
                        }
                    ]
                ], 
                [
                    90250, 
                    [
                        {
                            "pitch": 57, 
                            "t0": 90250, 
                            "v": 100, 
                            "dur": 250, 
                            "type": "note", 
                            "channel": 0
                        }
                    ]
                ], 
                [
                    90500, 
                    [
                        {
                            "pitch": 54, 
                            "t0": 90500, 
                            "v": 100, 
                            "dur": 250, 
                            "type": "note", 
                            "channel": 0
                        }
                    ]
                ], 
                [
                    90750, 
                    [
                        {
                            "pitch": 55, 
                            "t0": 90750, 
                            "v": 100, 
                            "dur": 250, 
                            "type": "note", 
                            "channel": 0
                        }
                    ]
                ], 
                [
                    91000, 
                    [
                        {
                            "pitch": 57, 
                            "t0": 91000, 
                            "v": 100, 
                            "dur": 250, 
                            "type": "note", 
                            "channel": 0
                        }
                    ]
                ], 
                [
                    91250, 
                    [
                        {
                            "pitch": 59, 
                            "t0": 91250, 
                            "v": 100, 
                            "dur": 250, 
                            "type": "note", 
                            "channel": 0
                        }
                    ]
                ], 
                [
                    91500, 
                    [
                        {
                            "pitch": 60, 
                            "t0": 91500, 
                            "v": 100, 
                            "dur": 250, 
                            "type": "note", 
                            "channel": 0
                        }
                    ]
                ], 
                [
                    91750, 
                    [
                        {
                            "pitch": 62, 
                            "t0": 91750, 
                            "v": 100, 
                            "dur": 250, 
                            "type": "note", 
                            "channel": 0
                        }
                    ]
                ], 
                [
                    92000, 
                    [
                        {
                            "pitch": 63, 
                            "t0": 92000, 
                            "v": 100, 
                            "dur": 250, 
                            "type": "note", 
                            "channel": 0
                        }
                    ]
                ], 
                [
                    92250, 
                    [
                        {
                            "pitch": 62, 
                            "t0": 92250, 
                            "v": 100, 
                            "dur": 250, 
                            "type": "note", 
                            "channel": 0
                        }
                    ]
                ], 
                [
                    92500, 
                    [
                        {
                            "pitch": 61, 
                            "t0": 92500, 
                            "v": 100, 
                            "dur": 250, 
                            "type": "note", 
                            "channel": 0
                        }
                    ]
                ], 
                [
                    92750, 
                    [
                        {
                            "pitch": 62, 
                            "t0": 92750, 
                            "v": 100, 
                            "dur": 250, 
                            "type": "note", 
                            "channel": 0
                        }
                    ]
                ], 
                [
                    93000, 
                    [
                        {
                            "pitch": 62, 
                            "t0": 93000, 
                            "v": 100, 
                            "dur": 250, 
                            "type": "note", 
                            "channel": 0
                        }
                    ]
                ], 
                [
                    93250, 
                    [
                        {
                            "pitch": 60, 
                            "t0": 93250, 
                            "v": 100, 
                            "dur": 250, 
                            "type": "note", 
                            "channel": 0
                        }
                    ]
                ], 
                [
                    93500, 
                    [
                        {
                            "pitch": 59, 
                            "t0": 93500, 
                            "v": 100, 
                            "dur": 250, 
                            "type": "note", 
                            "channel": 0
                        }
                    ]
                ], 
                [
                    93750, 
                    [
                        {
                            "pitch": 60, 
                            "t0": 93750, 
                            "v": 100, 
                            "dur": 250, 
                            "type": "note", 
                            "channel": 0
                        }
                    ]
                ], 
                [
                    94000, 
                    [
                        {
                            "pitch": 60, 
                            "t0": 94000, 
                            "v": 100, 
                            "dur": 250, 
                            "type": "note", 
                            "channel": 0
                        }
                    ]
                ], 
                [
                    94250, 
                    [
                        {
                            "pitch": 57, 
                            "t0": 94250, 
                            "v": 100, 
                            "dur": 250, 
                            "type": "note", 
                            "channel": 0
                        }
                    ]
                ], 
                [
                    94500, 
                    [
                        {
                            "pitch": 54, 
                            "t0": 94500, 
                            "v": 100, 
                            "dur": 250, 
                            "type": "note", 
                            "channel": 0
                        }
                    ]
                ], 
                [
                    94750, 
                    [
                        {
                            "pitch": 52, 
                            "t0": 94750, 
                            "v": 100, 
                            "dur": 250, 
                            "type": "note", 
                            "channel": 0
                        }
                    ]
                ], 
                [
                    95000, 
                    [
                        {
                            "pitch": 50, 
                            "t0": 95000, 
                            "v": 100, 
                            "dur": 250, 
                            "type": "note", 
                            "channel": 0
                        }
                    ]
                ], 
                [
                    95250, 
                    [
                        {
                            "pitch": 45, 
                            "t0": 95250, 
                            "v": 100, 
                            "dur": 250, 
                            "type": "note", 
                            "channel": 0
                        }
                    ]
                ], 
                [
                    95500, 
                    [
                        {
                            "pitch": 47, 
                            "t0": 95500, 
                            "v": 100, 
                            "dur": 250, 
                            "type": "note", 
                            "channel": 0
                        }
                    ]
                ], 
                [
                    95750, 
                    [
                        {
                            "pitch": 48, 
                            "t0": 95750, 
                            "v": 100, 
                            "dur": 250, 
                            "type": "note", 
                            "channel": 0
                        }
                    ]
                ], 
                [
                    96000, 
                    [
                        {
                            "pitch": 38, 
                            "t0": 96000, 
                            "v": 100, 
                            "dur": 250, 
                            "type": "note", 
                            "channel": 0
                        }
                    ]
                ], 
                [
                    96250, 
                    [
                        {
                            "pitch": 45, 
                            "t0": 96250, 
                            "v": 100, 
                            "dur": 250, 
                            "type": "note", 
                            "channel": 0
                        }
                    ]
                ], 
                [
                    96500, 
                    [
                        {
                            "pitch": 50, 
                            "t0": 96500, 
                            "v": 100, 
                            "dur": 250, 
                            "type": "note", 
                            "channel": 0
                        }
                    ]
                ], 
                [
                    96750, 
                    [
                        {
                            "pitch": 54, 
                            "t0": 96750, 
                            "v": 100, 
                            "dur": 250, 
                            "type": "note", 
                            "channel": 0
                        }
                    ]
                ], 
                [
                    97000, 
                    [
                        {
                            "pitch": 57, 
                            "t0": 97000, 
                            "v": 100, 
                            "dur": 250, 
                            "type": "note", 
                            "channel": 0
                        }
                    ]
                ], 
                [
                    97250, 
                    [
                        {
                            "pitch": 59, 
                            "t0": 97250, 
                            "v": 100, 
                            "dur": 250, 
                            "type": "note", 
                            "channel": 0
                        }
                    ]
                ], 
                [
                    97500, 
                    [
                        {
                            "pitch": 60, 
                            "t0": 97500, 
                            "v": 100, 
                            "dur": 250, 
                            "type": "note", 
                            "channel": 0
                        }
                    ]
                ], 
                [
                    97750, 
                    [
                        {
                            "pitch": 57, 
                            "t0": 97750, 
                            "v": 100, 
                            "dur": 250, 
                            "type": "note", 
                            "channel": 0
                        }
                    ]
                ], 
                [
                    98000, 
                    [
                        {
                            "pitch": 59, 
                            "t0": 98000, 
                            "v": 100, 
                            "dur": 250, 
                            "type": "note", 
                            "channel": 0
                        }
                    ]
                ], 
                [
                    98250, 
                    [
                        {
                            "pitch": 55, 
                            "t0": 98250, 
                            "v": 100, 
                            "dur": 250, 
                            "type": "note", 
                            "channel": 0
                        }
                    ]
                ], 
                [
                    98500, 
                    [
                        {
                            "pitch": 50, 
                            "t0": 98500, 
                            "v": 100, 
                            "dur": 250, 
                            "type": "note", 
                            "channel": 0
                        }
                    ]
                ], 
                [
                    98750, 
                    [
                        {
                            "pitch": 48, 
                            "t0": 98750, 
                            "v": 100, 
                            "dur": 250, 
                            "type": "note", 
                            "channel": 0
                        }
                    ]
                ], 
                [
                    99000, 
                    [
                        {
                            "pitch": 47, 
                            "t0": 99000, 
                            "v": 100, 
                            "dur": 250, 
                            "type": "note", 
                            "channel": 0
                        }
                    ]
                ], 
                [
                    99250, 
                    [
                        {
                            "pitch": 43, 
                            "t0": 99250, 
                            "v": 100, 
                            "dur": 250, 
                            "type": "note", 
                            "channel": 0
                        }
                    ]
                ], 
                [
                    99500, 
                    [
                        {
                            "pitch": 45, 
                            "t0": 99500, 
                            "v": 100, 
                            "dur": 250, 
                            "type": "note", 
                            "channel": 0
                        }
                    ]
                ], 
                [
                    99750, 
                    [
                        {
                            "pitch": 47, 
                            "t0": 99750, 
                            "v": 100, 
                            "dur": 250, 
                            "type": "note", 
                            "channel": 0
                        }
                    ]
                ], 
                [
                    100000, 
                    [
                        {
                            "pitch": 38, 
                            "t0": 100000, 
                            "v": 100, 
                            "dur": 250, 
                            "type": "note", 
                            "channel": 0
                        }
                    ]
                ], 
                [
                    100250, 
                    [
                        {
                            "pitch": 43, 
                            "t0": 100250, 
                            "v": 100, 
                            "dur": 250, 
                            "type": "note", 
                            "channel": 0
                        }
                    ]
                ], 
                [
                    100500, 
                    [
                        {
                            "pitch": 47, 
                            "t0": 100500, 
                            "v": 100, 
                            "dur": 250, 
                            "type": "note", 
                            "channel": 0
                        }
                    ]
                ], 
                [
                    100750, 
                    [
                        {
                            "pitch": 50, 
                            "t0": 100750, 
                            "v": 100, 
                            "dur": 250, 
                            "type": "note", 
                            "channel": 0
                        }
                    ]
                ], 
                [
                    101000, 
                    [
                        {
                            "pitch": 55, 
                            "t0": 101000, 
                            "v": 100, 
                            "dur": 250, 
                            "type": "note", 
                            "channel": 0
                        }
                    ]
                ], 
                [
                    101250, 
                    [
                        {
                            "pitch": 57, 
                            "t0": 101250, 
                            "v": 100, 
                            "dur": 250, 
                            "type": "note", 
                            "channel": 0
                        }
                    ]
                ], 
                [
                    101500, 
                    [
                        {
                            "pitch": 59, 
                            "t0": 101500, 
                            "v": 100, 
                            "dur": 250, 
                            "type": "note", 
                            "channel": 0
                        }
                    ]
                ], 
                [
                    101750, 
                    [
                        {
                            "pitch": 55, 
                            "t0": 101750, 
                            "v": 100, 
                            "dur": 250, 
                            "type": "note", 
                            "channel": 0
                        }
                    ]
                ], 
                [
                    102000, 
                    [
                        {
                            "pitch": 61, 
                            "t0": 102000, 
                            "v": 100, 
                            "dur": 250, 
                            "type": "note", 
                            "channel": 0
                        }
                    ]
                ], 
                [
                    102250, 
                    [
                        {
                            "pitch": 59, 
                            "t0": 102250, 
                            "v": 100, 
                            "dur": 250, 
                            "type": "note", 
                            "channel": 0
                        }
                    ]
                ], 
                [
                    102500, 
                    [
                        {
                            "pitch": 57, 
                            "t0": 102500, 
                            "v": 100, 
                            "dur": 250, 
                            "type": "note", 
                            "channel": 0
                        }
                    ]
                ], 
                [
                    102750, 
                    [
                        {
                            "pitch": 58, 
                            "t0": 102750, 
                            "v": 100, 
                            "dur": 250, 
                            "type": "note", 
                            "channel": 0
                        }
                    ]
                ], 
                [
                    103000, 
                    [
                        {
                            "pitch": 58, 
                            "t0": 103000, 
                            "v": 100, 
                            "dur": 250, 
                            "type": "note", 
                            "channel": 0
                        }
                    ]
                ], 
                [
                    103250, 
                    [
                        {
                            "pitch": 57, 
                            "t0": 103250, 
                            "v": 100, 
                            "dur": 250, 
                            "type": "note", 
                            "channel": 0
                        }
                    ]
                ], 
                [
                    103500, 
                    [
                        {
                            "pitch": 56, 
                            "t0": 103500, 
                            "v": 100, 
                            "dur": 250, 
                            "type": "note", 
                            "channel": 0
                        }
                    ]
                ], 
                [
                    103750, 
                    [
                        {
                            "pitch": 57, 
                            "t0": 103750, 
                            "v": 100, 
                            "dur": 250, 
                            "type": "note", 
                            "channel": 0
                        }
                    ]
                ], 
                [
                    104000, 
                    [
                        {
                            "pitch": 57, 
                            "t0": 104000, 
                            "v": 100, 
                            "dur": 250, 
                            "type": "note", 
                            "channel": 0
                        }
                    ]
                ], 
                [
                    104250, 
                    [
                        {
                            "pitch": 55, 
                            "t0": 104250, 
                            "v": 100, 
                            "dur": 250, 
                            "type": "note", 
                            "channel": 0
                        }
                    ]
                ], 
                [
                    104500, 
                    [
                        {
                            "pitch": 54, 
                            "t0": 104500, 
                            "v": 100, 
                            "dur": 250, 
                            "type": "note", 
                            "channel": 0
                        }
                    ]
                ], 
                [
                    104750, 
                    [
                        {
                            "pitch": 55, 
                            "t0": 104750, 
                            "v": 100, 
                            "dur": 250, 
                            "type": "note", 
                            "channel": 0
                        }
                    ]
                ], 
                [
                    105000, 
                    [
                        {
                            "pitch": 55, 
                            "t0": 105000, 
                            "v": 100, 
                            "dur": 250, 
                            "type": "note", 
                            "channel": 0
                        }
                    ]
                ], 
                [
                    105250, 
                    [
                        {
                            "pitch": 52, 
                            "t0": 105250, 
                            "v": 100, 
                            "dur": 250, 
                            "type": "note", 
                            "channel": 0
                        }
                    ]
                ], 
                [
                    105500, 
                    [
                        {
                            "pitch": 49, 
                            "t0": 105500, 
                            "v": 100, 
                            "dur": 250, 
                            "type": "note", 
                            "channel": 0
                        }
                    ]
                ], 
                [
                    105750, 
                    [
                        {
                            "pitch": 47, 
                            "t0": 105750, 
                            "v": 100, 
                            "dur": 250, 
                            "type": "note", 
                            "channel": 0
                        }
                    ]
                ], 
                [
                    106000, 
                    [
                        {
                            "pitch": 45, 
                            "t0": 106000, 
                            "v": 100, 
                            "dur": 250, 
                            "type": "note", 
                            "channel": 0
                        }
                    ]
                ], 
                [
                    106250, 
                    [
                        {
                            "pitch": 49, 
                            "t0": 106250, 
                            "v": 100, 
                            "dur": 250, 
                            "type": "note", 
                            "channel": 0
                        }
                    ]
                ], 
                [
                    106500, 
                    [
                        {
                            "pitch": 52, 
                            "t0": 106500, 
                            "v": 100, 
                            "dur": 250, 
                            "type": "note", 
                            "channel": 0
                        }
                    ]
                ], 
                [
                    106750, 
                    [
                        {
                            "pitch": 55, 
                            "t0": 106750, 
                            "v": 100, 
                            "dur": 250, 
                            "type": "note", 
                            "channel": 0
                        }
                    ]
                ], 
                [
                    107000, 
                    [
                        {
                            "pitch": 57, 
                            "t0": 107000, 
                            "v": 100, 
                            "dur": 250, 
                            "type": "note", 
                            "channel": 0
                        }
                    ]
                ], 
                [
                    107250, 
                    [
                        {
                            "pitch": 61, 
                            "t0": 107250, 
                            "v": 100, 
                            "dur": 250, 
                            "type": "note", 
                            "channel": 0
                        }
                    ]
                ], 
                [
                    107500, 
                    [
                        {
                            "pitch": 62, 
                            "t0": 107500, 
                            "v": 100, 
                            "dur": 250, 
                            "type": "note", 
                            "channel": 0
                        }
                    ]
                ], 
                [
                    107750, 
                    [
                        {
                            "pitch": 61, 
                            "t0": 107750, 
                            "v": 100, 
                            "dur": 250, 
                            "type": "note", 
                            "channel": 0
                        }
                    ]
                ], 
                [
                    108000, 
                    [
                        {
                            "pitch": 62, 
                            "t0": 108000, 
                            "v": 100, 
                            "dur": 250, 
                            "type": "note", 
                            "channel": 0
                        }
                    ]
                ], 
                [
                    108250, 
                    [
                        {
                            "pitch": 57, 
                            "t0": 108250, 
                            "v": 100, 
                            "dur": 250, 
                            "type": "note", 
                            "channel": 0
                        }
                    ]
                ], 
                [
                    108500, 
                    [
                        {
                            "pitch": 54, 
                            "t0": 108500, 
                            "v": 100, 
                            "dur": 250, 
                            "type": "note", 
                            "channel": 0
                        }
                    ]
                ], 
                [
                    108750, 
                    [
                        {
                            "pitch": 52, 
                            "t0": 108750, 
                            "v": 100, 
                            "dur": 250, 
                            "type": "note", 
                            "channel": 0
                        }
                    ]
                ], 
                [
                    109000, 
                    [
                        {
                            "pitch": 54, 
                            "t0": 109000, 
                            "v": 100, 
                            "dur": 250, 
                            "type": "note", 
                            "channel": 0
                        }
                    ]
                ], 
                [
                    109250, 
                    [
                        {
                            "pitch": 57, 
                            "t0": 109250, 
                            "v": 100, 
                            "dur": 250, 
                            "type": "note", 
                            "channel": 0
                        }
                    ]
                ], 
                [
                    109500, 
                    [
                        {
                            "pitch": 50, 
                            "t0": 109500, 
                            "v": 100, 
                            "dur": 250, 
                            "type": "note", 
                            "channel": 0
                        }
                    ]
                ], 
                [
                    109750, 
                    [
                        {
                            "pitch": 54, 
                            "t0": 109750, 
                            "v": 100, 
                            "dur": 250, 
                            "type": "note", 
                            "channel": 0
                        }
                    ]
                ], 
                [
                    110000, 
                    [
                        {
                            "pitch": 45, 
                            "t0": 110000, 
                            "v": 100, 
                            "dur": 250, 
                            "type": "note", 
                            "channel": 0
                        }
                    ]
                ], 
                [
                    110250, 
                    [
                        {
                            "pitch": 50, 
                            "t0": 110250, 
                            "v": 100, 
                            "dur": 250, 
                            "type": "note", 
                            "channel": 0
                        }
                    ]
                ], 
                [
                    110500, 
                    [
                        {
                            "pitch": 49, 
                            "t0": 110500, 
                            "v": 100, 
                            "dur": 250, 
                            "type": "note", 
                            "channel": 0
                        }
                    ]
                ], 
                [
                    110750, 
                    [
                        {
                            "pitch": 47, 
                            "t0": 110750, 
                            "v": 100, 
                            "dur": 250, 
                            "type": "note", 
                            "channel": 0
                        }
                    ]
                ], 
                [
                    111000, 
                    [
                        {
                            "pitch": 45, 
                            "t0": 111000, 
                            "v": 100, 
                            "dur": 250, 
                            "type": "note", 
                            "channel": 0
                        }
                    ]
                ], 
                [
                    111250, 
                    [
                        {
                            "pitch": 43, 
                            "t0": 111250, 
                            "v": 100, 
                            "dur": 250, 
                            "type": "note", 
                            "channel": 0
                        }
                    ]
                ], 
                [
                    111500, 
                    [
                        {
                            "pitch": 42, 
                            "t0": 111500, 
                            "v": 100, 
                            "dur": 250, 
                            "type": "note", 
                            "channel": 0
                        }
                    ]
                ], 
                [
                    111750, 
                    [
                        {
                            "pitch": 40, 
                            "t0": 111750, 
                            "v": 100, 
                            "dur": 250, 
                            "type": "note", 
                            "channel": 0
                        }
                    ]
                ], 
                [
                    112000, 
                    [
                        {
                            "pitch": 38, 
                            "t0": 112000, 
                            "v": 100, 
                            "dur": 500, 
                            "type": "note", 
                            "channel": 0
                        }
                    ]
                ], 
                [
                    112500, 
                    [
                        {
                            "pitch": 60, 
                            "t0": 112500, 
                            "v": 100, 
                            "dur": 250, 
                            "type": "note", 
                            "channel": 0
                        }
                    ]
                ], 
                [
                    112750, 
                    [
                        {
                            "pitch": 59, 
                            "t0": 112750, 
                            "v": 100, 
                            "dur": 250, 
                            "type": "note", 
                            "channel": 0
                        }
                    ]
                ], 
                [
                    113000, 
                    [
                        {
                            "pitch": 57, 
                            "t0": 113000, 
                            "v": 100, 
                            "dur": 250, 
                            "type": "note", 
                            "channel": 0
                        }
                    ]
                ], 
                [
                    113250, 
                    [
                        {
                            "pitch": 55, 
                            "t0": 113250, 
                            "v": 100, 
                            "dur": 250, 
                            "type": "note", 
                            "channel": 0
                        }
                    ]
                ], 
                [
                    113500, 
                    [
                        {
                            "pitch": 54, 
                            "t0": 113500, 
                            "v": 100, 
                            "dur": 250, 
                            "type": "note", 
                            "channel": 0
                        }
                    ]
                ], 
                [
                    113750, 
                    [
                        {
                            "pitch": 52, 
                            "t0": 113750, 
                            "v": 100, 
                            "dur": 250, 
                            "type": "note", 
                            "channel": 0
                        }
                    ]
                ], 
                [
                    114000, 
                    [
                        {
                            "pitch": 50, 
                            "t0": 114000, 
                            "v": 100, 
                            "dur": 250, 
                            "type": "note", 
                            "channel": 0
                        }
                    ]
                ], 
                [
                    114250, 
                    [
                        {
                            "pitch": 60, 
                            "t0": 114250, 
                            "v": 100, 
                            "dur": 250, 
                            "type": "note", 
                            "channel": 0
                        }
                    ]
                ], 
                [
                    114500, 
                    [
                        {
                            "pitch": 59, 
                            "t0": 114500, 
                            "v": 100, 
                            "dur": 250, 
                            "type": "note", 
                            "channel": 0
                        }
                    ]
                ], 
                [
                    114750, 
                    [
                        {
                            "pitch": 57, 
                            "t0": 114750, 
                            "v": 100, 
                            "dur": 250, 
                            "type": "note", 
                            "channel": 0
                        }
                    ]
                ], 
                [
                    115000, 
                    [
                        {
                            "pitch": 55, 
                            "t0": 115000, 
                            "v": 100, 
                            "dur": 250, 
                            "type": "note", 
                            "channel": 0
                        }
                    ]
                ], 
                [
                    115250, 
                    [
                        {
                            "pitch": 54, 
                            "t0": 115250, 
                            "v": 100, 
                            "dur": 250, 
                            "type": "note", 
                            "channel": 0
                        }
                    ]
                ], 
                [
                    115500, 
                    [
                        {
                            "pitch": 52, 
                            "t0": 115500, 
                            "v": 100, 
                            "dur": 250, 
                            "type": "note", 
                            "channel": 0
                        }
                    ]
                ], 
                [
                    115750, 
                    [
                        {
                            "pitch": 50, 
                            "t0": 115750, 
                            "v": 100, 
                            "dur": 250, 
                            "type": "note", 
                            "channel": 0
                        }
                    ]
                ], 
                [
                    116000, 
                    [
                        {
                            "pitch": 48, 
                            "t0": 116000, 
                            "v": 100, 
                            "dur": 250, 
                            "type": "note", 
                            "channel": 0
                        }
                    ]
                ], 
                [
                    116250, 
                    [
                        {
                            "pitch": 59, 
                            "t0": 116250, 
                            "v": 100, 
                            "dur": 250, 
                            "type": "note", 
                            "channel": 0
                        }
                    ]
                ], 
                [
                    116500, 
                    [
                        {
                            "pitch": 57, 
                            "t0": 116500, 
                            "v": 100, 
                            "dur": 250, 
                            "type": "note", 
                            "channel": 0
                        }
                    ]
                ], 
                [
                    116750, 
                    [
                        {
                            "pitch": 55, 
                            "t0": 116750, 
                            "v": 100, 
                            "dur": 250, 
                            "type": "note", 
                            "channel": 0
                        }
                    ]
                ], 
                [
                    117000, 
                    [
                        {
                            "pitch": 54, 
                            "t0": 117000, 
                            "v": 100, 
                            "dur": 250, 
                            "type": "note", 
                            "channel": 0
                        }
                    ]
                ], 
                [
                    117250, 
                    [
                        {
                            "pitch": 52, 
                            "t0": 117250, 
                            "v": 100, 
                            "dur": 250, 
                            "type": "note", 
                            "channel": 0
                        }
                    ]
                ], 
                [
                    117500, 
                    [
                        {
                            "pitch": 50, 
                            "t0": 117500, 
                            "v": 100, 
                            "dur": 250, 
                            "type": "note", 
                            "channel": 0
                        }
                    ]
                ], 
                [
                    117750, 
                    [
                        {
                            "pitch": 48, 
                            "t0": 117750, 
                            "v": 100, 
                            "dur": 250, 
                            "type": "note", 
                            "channel": 0
                        }
                    ]
                ], 
                [
                    118000, 
                    [
                        {
                            "pitch": 47, 
                            "t0": 118000, 
                            "v": 100, 
                            "dur": 250, 
                            "type": "note", 
                            "channel": 0
                        }
                    ]
                ], 
                [
                    118250, 
                    [
                        {
                            "pitch": 57, 
                            "t0": 118250, 
                            "v": 100, 
                            "dur": 250, 
                            "type": "note", 
                            "channel": 0
                        }
                    ]
                ], 
                [
                    118500, 
                    [
                        {
                            "pitch": 55, 
                            "t0": 118500, 
                            "v": 100, 
                            "dur": 250, 
                            "type": "note", 
                            "channel": 0
                        }
                    ]
                ], 
                [
                    118750, 
                    [
                        {
                            "pitch": 54, 
                            "t0": 118750, 
                            "v": 100, 
                            "dur": 250, 
                            "type": "note", 
                            "channel": 0
                        }
                    ]
                ], 
                [
                    119000, 
                    [
                        {
                            "pitch": 52, 
                            "t0": 119000, 
                            "v": 100, 
                            "dur": 250, 
                            "type": "note", 
                            "channel": 0
                        }
                    ]
                ], 
                [
                    119250, 
                    [
                        {
                            "pitch": 50, 
                            "t0": 119250, 
                            "v": 100, 
                            "dur": 250, 
                            "type": "note", 
                            "channel": 0
                        }
                    ]
                ], 
                [
                    119500, 
                    [
                        {
                            "pitch": 48, 
                            "t0": 119500, 
                            "v": 100, 
                            "dur": 250, 
                            "type": "note", 
                            "channel": 0
                        }
                    ]
                ], 
                [
                    119750, 
                    [
                        {
                            "pitch": 47, 
                            "t0": 119750, 
                            "v": 100, 
                            "dur": 250, 
                            "type": "note", 
                            "channel": 0
                        }
                    ]
                ], 
                [
                    120000, 
                    [
                        {
                            "pitch": 45, 
                            "t0": 120000, 
                            "v": 100, 
                            "dur": 250, 
                            "type": "note", 
                            "channel": 0
                        }
                    ]
                ], 
                [
                    120250, 
                    [
                        {
                            "pitch": 55, 
                            "t0": 120250, 
                            "v": 100, 
                            "dur": 250, 
                            "type": "note", 
                            "channel": 0
                        }
                    ]
                ], 
                [
                    120500, 
                    [
                        {
                            "pitch": 54, 
                            "t0": 120500, 
                            "v": 100, 
                            "dur": 250, 
                            "type": "note", 
                            "channel": 0
                        }
                    ]
                ], 
                [
                    120750, 
                    [
                        {
                            "pitch": 52, 
                            "t0": 120750, 
                            "v": 100, 
                            "dur": 250, 
                            "type": "note", 
                            "channel": 0
                        }
                    ]
                ], 
                [
                    121000, 
                    [
                        {
                            "pitch": 54, 
                            "t0": 121000, 
                            "v": 100, 
                            "dur": 250, 
                            "type": "note", 
                            "channel": 0
                        }
                    ]
                ], 
                [
                    121500, 
                    [
                        {
                            "pitch": 50, 
                            "t0": 121500, 
                            "v": 100, 
                            "dur": 250, 
                            "type": "note", 
                            "channel": 0
                        }
                    ]
                ], 
                [
                    122000, 
                    [
                        {
                            "pitch": 52, 
                            "t0": 122000, 
                            "v": 100, 
                            "dur": 250, 
                            "type": "note", 
                            "channel": 0
                        }
                    ]
                ], 
                [
                    122500, 
                    [
                        {
                            "pitch": 54, 
                            "t0": 122500, 
                            "v": 100, 
                            "dur": 250, 
                            "type": "note", 
                            "channel": 0
                        }
                    ]
                ], 
                [
                    123000, 
                    [
                        {
                            "pitch": 55, 
                            "t0": 123000, 
                            "v": 100, 
                            "dur": 250, 
                            "type": "note", 
                            "channel": 0
                        }
                    ]
                ], 
                [
                    123500, 
                    [
                        {
                            "pitch": 52, 
                            "t0": 123500, 
                            "v": 100, 
                            "dur": 250, 
                            "type": "note", 
                            "channel": 0
                        }
                    ]
                ], 
                [
                    124000, 
                    [
                        {
                            "pitch": 54, 
                            "t0": 124000, 
                            "v": 100, 
                            "dur": 250, 
                            "type": "note", 
                            "channel": 0
                        }
                    ]
                ], 
                [
                    124500, 
                    [
                        {
                            "pitch": 50, 
                            "t0": 124500, 
                            "v": 100, 
                            "dur": 250, 
                            "type": "note", 
                            "channel": 0
                        }
                    ]
                ], 
                [
                    125000, 
                    [
                        {
                            "pitch": 55, 
                            "t0": 125000, 
                            "v": 100, 
                            "dur": 250, 
                            "type": "note", 
                            "channel": 0
                        }
                    ]
                ], 
                [
                    125500, 
                    [
                        {
                            "pitch": 52, 
                            "t0": 125500, 
                            "v": 100, 
                            "dur": 250, 
                            "type": "note", 
                            "channel": 0
                        }
                    ]
                ], 
                [
                    126000, 
                    [
                        {
                            "pitch": 54, 
                            "t0": 126000, 
                            "v": 100, 
                            "dur": 250, 
                            "type": "note", 
                            "channel": 0
                        }
                    ]
                ], 
                [
                    126500, 
                    [
                        {
                            "pitch": 50, 
                            "t0": 126500, 
                            "v": 100, 
                            "dur": 250, 
                            "type": "note", 
                            "channel": 0
                        }
                    ]
                ], 
                [
                    127000, 
                    [
                        {
                            "pitch": 55, 
                            "t0": 127000, 
                            "v": 100, 
                            "dur": 250, 
                            "type": "note", 
                            "channel": 0
                        }
                    ]
                ], 
                [
                    127500, 
                    [
                        {
                            "pitch": 52, 
                            "t0": 127500, 
                            "v": 100, 
                            "dur": 250, 
                            "type": "note", 
                            "channel": 0
                        }
                    ]
                ], 
                [
                    128000, 
                    [
                        {
                            "pitch": 54, 
                            "t0": 128000, 
                            "v": 100, 
                            "dur": 250, 
                            "type": "note", 
                            "channel": 0
                        }
                    ]
                ], 
                [
                    128500, 
                    [
                        {
                            "pitch": 50, 
                            "t0": 128500, 
                            "v": 100, 
                            "dur": 250, 
                            "type": "note", 
                            "channel": 0
                        }
                    ]
                ], 
                [
                    129000, 
                    [
                        {
                            "pitch": 52, 
                            "t0": 129000, 
                            "v": 100, 
                            "dur": 250, 
                            "type": "note", 
                            "channel": 0
                        }
                    ]
                ], 
                [
                    129500, 
                    [
                        {
                            "pitch": 54, 
                            "t0": 129500, 
                            "v": 100, 
                            "dur": 250, 
                            "type": "note", 
                            "channel": 0
                        }
                    ]
                ], 
                [
                    130000, 
                    [
                        {
                            "pitch": 55, 
                            "t0": 130000, 
                            "v": 100, 
                            "dur": 250, 
                            "type": "note", 
                            "channel": 0
                        }
                    ]
                ], 
                [
                    130500, 
                    [
                        {
                            "pitch": 57, 
                            "t0": 130500, 
                            "v": 100, 
                            "dur": 250, 
                            "type": "note", 
                            "channel": 0
                        }
                    ]
                ], 
                [
                    131000, 
                    [
                        {
                            "pitch": 59, 
                            "t0": 131000, 
                            "v": 100, 
                            "dur": 250, 
                            "type": "note", 
                            "channel": 0
                        }
                    ]
                ], 
                [
                    131500, 
                    [
                        {
                            "pitch": 50, 
                            "t0": 131500, 
                            "v": 100, 
                            "dur": 250, 
                            "type": "note", 
                            "channel": 0
                        }
                    ]
                ], 
                [
                    132000, 
                    [
                        {
                            "pitch": 57, 
                            "t0": 132000, 
                            "v": 100, 
                            "dur": 250, 
                            "type": "note", 
                            "channel": 0
                        }
                    ]
                ], 
                [
                    132500, 
                    [
                        {
                            "pitch": 59, 
                            "t0": 132500, 
                            "v": 100, 
                            "dur": 250, 
                            "type": "note", 
                            "channel": 0
                        }
                    ]
                ], 
                [
                    133000, 
                    [
                        {
                            "pitch": 60, 
                            "t0": 133000, 
                            "v": 100, 
                            "dur": 250, 
                            "type": "note", 
                            "channel": 0
                        }
                    ]
                ], 
                [
                    133500, 
                    [
                        {
                            "pitch": 50, 
                            "t0": 133500, 
                            "v": 100, 
                            "dur": 250, 
                            "type": "note", 
                            "channel": 0
                        }
                    ]
                ], 
                [
                    134000, 
                    [
                        {
                            "pitch": 59, 
                            "t0": 134000, 
                            "v": 100, 
                            "dur": 250, 
                            "type": "note", 
                            "channel": 0
                        }
                    ]
                ], 
                [
                    134500, 
                    [
                        {
                            "pitch": 60, 
                            "t0": 134500, 
                            "v": 100, 
                            "dur": 250, 
                            "type": "note", 
                            "channel": 0
                        }
                    ]
                ], 
                [
                    135000, 
                    [
                        {
                            "pitch": 62, 
                            "t0": 135000, 
                            "v": 100, 
                            "dur": 250, 
                            "type": "note", 
                            "channel": 0
                        }
                    ]
                ], 
                [
                    135500, 
                    [
                        {
                            "pitch": 59, 
                            "t0": 135500, 
                            "v": 100, 
                            "dur": 250, 
                            "type": "note", 
                            "channel": 0
                        }
                    ]
                ], 
                [
                    136000, 
                    [
                        {
                            "pitch": 60, 
                            "t0": 136000, 
                            "v": 100, 
                            "dur": 250, 
                            "type": "note", 
                            "channel": 0
                        }
                    ]
                ], 
                [
                    136500, 
                    [
                        {
                            "pitch": 59, 
                            "t0": 136500, 
                            "v": 100, 
                            "dur": 250, 
                            "type": "note", 
                            "channel": 0
                        }
                    ]
                ], 
                [
                    137000, 
                    [
                        {
                            "pitch": 60, 
                            "t0": 137000, 
                            "v": 100, 
                            "dur": 250, 
                            "type": "note", 
                            "channel": 0
                        }
                    ]
                ], 
                [
                    137500, 
                    [
                        {
                            "pitch": 57, 
                            "t0": 137500, 
                            "v": 100, 
                            "dur": 250, 
                            "type": "note", 
                            "channel": 0
                        }
                    ]
                ], 
                [
                    138000, 
                    [
                        {
                            "pitch": 59, 
                            "t0": 138000, 
                            "v": 100, 
                            "dur": 250, 
                            "type": "note", 
                            "channel": 0
                        }
                    ]
                ], 
                [
                    138500, 
                    [
                        {
                            "pitch": 57, 
                            "t0": 138500, 
                            "v": 100, 
                            "dur": 250, 
                            "type": "note", 
                            "channel": 0
                        }
                    ]
                ], 
                [
                    139000, 
                    [
                        {
                            "pitch": 59, 
                            "t0": 139000, 
                            "v": 100, 
                            "dur": 250, 
                            "type": "note", 
                            "channel": 0
                        }
                    ]
                ], 
                [
                    139500, 
                    [
                        {
                            "pitch": 55, 
                            "t0": 139500, 
                            "v": 100, 
                            "dur": 250, 
                            "type": "note", 
                            "channel": 0
                        }
                    ]
                ], 
                [
                    140000, 
                    [
                        {
                            "pitch": 57, 
                            "t0": 140000, 
                            "v": 100, 
                            "dur": 250, 
                            "type": "note", 
                            "channel": 0
                        }
                    ]
                ], 
                [
                    140500, 
                    [
                        {
                            "pitch": 55, 
                            "t0": 140500, 
                            "v": 100, 
                            "dur": 250, 
                            "type": "note", 
                            "channel": 0
                        }
                    ]
                ], 
                [
                    141000, 
                    [
                        {
                            "pitch": 57, 
                            "t0": 141000, 
                            "v": 100, 
                            "dur": 250, 
                            "type": "note", 
                            "channel": 0
                        }
                    ]
                ], 
                [
                    141500, 
                    [
                        {
                            "pitch": 54, 
                            "t0": 141500, 
                            "v": 100, 
                            "dur": 250, 
                            "type": "note", 
                            "channel": 0
                        }
                    ]
                ], 
                [
                    142000, 
                    [
                        {
                            "pitch": 55, 
                            "t0": 142000, 
                            "v": 100, 
                            "dur": 250, 
                            "type": "note", 
                            "channel": 0
                        }
                    ]
                ], 
                [
                    142500, 
                    [
                        {
                            "pitch": 54, 
                            "t0": 142500, 
                            "v": 100, 
                            "dur": 250, 
                            "type": "note", 
                            "channel": 0
                        }
                    ]
                ], 
                [
                    143000, 
                    [
                        {
                            "pitch": 55, 
                            "t0": 143000, 
                            "v": 100, 
                            "dur": 250, 
                            "type": "note", 
                            "channel": 0
                        }
                    ]
                ], 
                [
                    143500, 
                    [
                        {
                            "pitch": 52, 
                            "t0": 143500, 
                            "v": 100, 
                            "dur": 250, 
                            "type": "note", 
                            "channel": 0
                        }
                    ]
                ], 
                [
                    144000, 
                    [
                        {
                            "pitch": 54, 
                            "t0": 144000, 
                            "v": 100, 
                            "dur": 250, 
                            "type": "note", 
                            "channel": 0
                        }
                    ]
                ], 
                [
                    144500, 
                    [
                        {
                            "pitch": 50, 
                            "t0": 144500, 
                            "v": 100, 
                            "dur": 250, 
                            "type": "note", 
                            "channel": 0
                        }
                    ]
                ], 
                [
                    144750, 
                    [
                        {
                            "pitch": 52, 
                            "t0": 144750, 
                            "v": 100, 
                            "dur": 250, 
                            "type": "note", 
                            "channel": 0
                        }
                    ]
                ], 
                [
                    145000, 
                    [
                        {
                            "pitch": 53, 
                            "t0": 145000, 
                            "v": 100, 
                            "dur": 250, 
                            "type": "note", 
                            "channel": 0
                        }
                    ]
                ], 
                [
                    145500, 
                    [
                        {
                            "pitch": 54, 
                            "t0": 145500, 
                            "v": 100, 
                            "dur": 250, 
                            "type": "note", 
                            "channel": 0
                        }
                    ]
                ], 
                [
                    146000, 
                    [
                        {
                            "pitch": 55, 
                            "t0": 146000, 
                            "v": 100, 
                            "dur": 250, 
                            "type": "note", 
                            "channel": 0
                        }
                    ]
                ], 
                [
                    146500, 
                    [
                        {
                            "pitch": 56, 
                            "t0": 146500, 
                            "v": 100, 
                            "dur": 250, 
                            "type": "note", 
                            "channel": 0
                        }
                    ]
                ], 
                [
                    147000, 
                    [
                        {
                            "pitch": 57, 
                            "t0": 147000, 
                            "v": 100, 
                            "dur": 250, 
                            "type": "note", 
                            "channel": 0
                        }
                    ]
                ], 
                [
                    147500, 
                    [
                        {
                            "pitch": 58, 
                            "t0": 147500, 
                            "v": 100, 
                            "dur": 250, 
                            "type": "note", 
                            "channel": 0
                        }
                    ]
                ], 
                [
                    148000, 
                    [
                        {
                            "pitch": 59, 
                            "t0": 148000, 
                            "v": 100, 
                            "dur": 250, 
                            "type": "note", 
                            "channel": 0
                        }
                    ]
                ], 
                [
                    148500, 
                    [
                        {
                            "pitch": 60, 
                            "t0": 148500, 
                            "v": 100, 
                            "dur": 250, 
                            "type": "note", 
                            "channel": 0
                        }
                    ]
                ], 
                [
                    149000, 
                    [
                        {
                            "pitch": 61, 
                            "t0": 149000, 
                            "v": 100, 
                            "dur": 250, 
                            "type": "note", 
                            "channel": 0
                        }
                    ]
                ], 
                [
                    149500, 
                    [
                        {
                            "pitch": 62, 
                            "t0": 149500, 
                            "v": 100, 
                            "dur": 250, 
                            "type": "note", 
                            "channel": 0
                        }
                    ]
                ], 
                [
                    150000, 
                    [
                        {
                            "pitch": 63, 
                            "t0": 150000, 
                            "v": 100, 
                            "dur": 250, 
                            "type": "note", 
                            "channel": 0
                        }
                    ]
                ], 
                [
                    150500, 
                    [
                        {
                            "pitch": 64, 
                            "t0": 150500, 
                            "v": 100, 
                            "dur": 250, 
                            "type": "note", 
                            "channel": 0
                        }
                    ]
                ], 
                [
                    151000, 
                    [
                        {
                            "pitch": 65, 
                            "t0": 151000, 
                            "v": 100, 
                            "dur": 250, 
                            "type": "note", 
                            "channel": 0
                        }
                    ]
                ], 
                [
                    151500, 
                    [
                        {
                            "pitch": 66, 
                            "t0": 151500, 
                            "v": 100, 
                            "dur": 250, 
                            "type": "note", 
                            "channel": 0
                        }
                    ]
                ], 
                [
                    152000, 
                    [
                        {
                            "pitch": 67, 
                            "t0": 152000, 
                            "v": 100, 
                            "dur": 250, 
                            "type": "note", 
                            "channel": 0
                        }
                    ]
                ], 
                [
                    152250, 
                    [
                        {
                            "pitch": 59, 
                            "t0": 152250, 
                            "v": 100, 
                            "dur": 250, 
                            "type": "note", 
                            "channel": 0
                        }
                    ]
                ], 
                [
                    152500, 
                    [
                        {
                            "pitch": 50, 
                            "t0": 152500, 
                            "v": 100, 
                            "dur": 250, 
                            "type": "note", 
                            "channel": 0
                        }
                    ]
                ], 
                [
                    152750, 
                    [
                        {
                            "pitch": 59, 
                            "t0": 152750, 
                            "v": 100, 
                            "dur": 250, 
                            "type": "note", 
                            "channel": 0
                        }
                    ]
                ], 
                [
                    153000, 
                    [
                        {
                            "pitch": 67, 
                            "t0": 153000, 
                            "v": 100, 
                            "dur": 250, 
                            "type": "note", 
                            "channel": 0
                        }
                    ]
                ], 
                [
                    153250, 
                    [
                        {
                            "pitch": 59, 
                            "t0": 153250, 
                            "v": 100, 
                            "dur": 250, 
                            "type": "note", 
                            "channel": 0
                        }
                    ]
                ], 
                [
                    153500, 
                    [
                        {
                            "pitch": 67, 
                            "t0": 153500, 
                            "v": 100, 
                            "dur": 250, 
                            "type": "note", 
                            "channel": 0
                        }
                    ]
                ], 
                [
                    153750, 
                    [
                        {
                            "pitch": 59, 
                            "t0": 153750, 
                            "v": 100, 
                            "dur": 250, 
                            "type": "note", 
                            "channel": 0
                        }
                    ]
                ], 
                [
                    154000, 
                    [
                        {
                            "pitch": 67, 
                            "t0": 154000, 
                            "v": 100, 
                            "dur": 250, 
                            "type": "note", 
                            "channel": 0
                        }
                    ]
                ], 
                [
                    154250, 
                    [
                        {
                            "pitch": 59, 
                            "t0": 154250, 
                            "v": 100, 
                            "dur": 250, 
                            "type": "note", 
                            "channel": 0
                        }
                    ]
                ], 
                [
                    154500, 
                    [
                        {
                            "pitch": 50, 
                            "t0": 154500, 
                            "v": 100, 
                            "dur": 250, 
                            "type": "note", 
                            "channel": 0
                        }
                    ]
                ], 
                [
                    154750, 
                    [
                        {
                            "pitch": 59, 
                            "t0": 154750, 
                            "v": 100, 
                            "dur": 250, 
                            "type": "note", 
                            "channel": 0
                        }
                    ]
                ], 
                [
                    155000, 
                    [
                        {
                            "pitch": 67, 
                            "t0": 155000, 
                            "v": 100, 
                            "dur": 250, 
                            "type": "note", 
                            "channel": 0
                        }
                    ]
                ], 
                [
                    155250, 
                    [
                        {
                            "pitch": 59, 
                            "t0": 155250, 
                            "v": 100, 
                            "dur": 250, 
                            "type": "note", 
                            "channel": 0
                        }
                    ]
                ], 
                [
                    155500, 
                    [
                        {
                            "pitch": 67, 
                            "t0": 155500, 
                            "v": 100, 
                            "dur": 250, 
                            "type": "note", 
                            "channel": 0
                        }
                    ]
                ], 
                [
                    155750, 
                    [
                        {
                            "pitch": 59, 
                            "t0": 155750, 
                            "v": 100, 
                            "dur": 250, 
                            "type": "note", 
                            "channel": 0
                        }
                    ]
                ], 
                [
                    156000, 
                    [
                        {
                            "pitch": 67, 
                            "t0": 156000, 
                            "v": 100, 
                            "dur": 250, 
                            "type": "note", 
                            "channel": 0
                        }
                    ]
                ], 
                [
                    156250, 
                    [
                        {
                            "pitch": 57, 
                            "t0": 156250, 
                            "v": 100, 
                            "dur": 250, 
                            "type": "note", 
                            "channel": 0
                        }
                    ]
                ], 
                [
                    156500, 
                    [
                        {
                            "pitch": 50, 
                            "t0": 156500, 
                            "v": 100, 
                            "dur": 250, 
                            "type": "note", 
                            "channel": 0
                        }
                    ]
                ], 
                [
                    156750, 
                    [
                        {
                            "pitch": 57, 
                            "t0": 156750, 
                            "v": 100, 
                            "dur": 250, 
                            "type": "note", 
                            "channel": 0
                        }
                    ]
                ], 
                [
                    157000, 
                    [
                        {
                            "pitch": 67, 
                            "t0": 157000, 
                            "v": 100, 
                            "dur": 250, 
                            "type": "note", 
                            "channel": 0
                        }
                    ]
                ], 
                [
                    157250, 
                    [
                        {
                            "pitch": 57, 
                            "t0": 157250, 
                            "v": 100, 
                            "dur": 250, 
                            "type": "note", 
                            "channel": 0
                        }
                    ]
                ], 
                [
                    157500, 
                    [
                        {
                            "pitch": 67, 
                            "t0": 157500, 
                            "v": 100, 
                            "dur": 250, 
                            "type": "note", 
                            "channel": 0
                        }
                    ]
                ], 
                [
                    157750, 
                    [
                        {
                            "pitch": 57, 
                            "t0": 157750, 
                            "v": 100, 
                            "dur": 250, 
                            "type": "note", 
                            "channel": 0
                        }
                    ]
                ], 
                [
                    158000, 
                    [
                        {
                            "pitch": 67, 
                            "t0": 158000, 
                            "v": 100, 
                            "dur": 250, 
                            "type": "note", 
                            "channel": 0
                        }
                    ]
                ], 
                [
                    158250, 
                    [
                        {
                            "pitch": 57, 
                            "t0": 158250, 
                            "v": 100, 
                            "dur": 250, 
                            "type": "note", 
                            "channel": 0
                        }
                    ]
                ], 
                [
                    158500, 
                    [
                        {
                            "pitch": 50, 
                            "t0": 158500, 
                            "v": 100, 
                            "dur": 250, 
                            "type": "note", 
                            "channel": 0
                        }
                    ]
                ], 
                [
                    158750, 
                    [
                        {
                            "pitch": 57, 
                            "t0": 158750, 
                            "v": 100, 
                            "dur": 250, 
                            "type": "note", 
                            "channel": 0
                        }
                    ]
                ], 
                [
                    159000, 
                    [
                        {
                            "pitch": 67, 
                            "t0": 159000, 
                            "v": 100, 
                            "dur": 250, 
                            "type": "note", 
                            "channel": 0
                        }
                    ]
                ], 
                [
                    159250, 
                    [
                        {
                            "pitch": 57, 
                            "t0": 159250, 
                            "v": 100, 
                            "dur": 250, 
                            "type": "note", 
                            "channel": 0
                        }
                    ]
                ], 
                [
                    159500, 
                    [
                        {
                            "pitch": 67, 
                            "t0": 159500, 
                            "v": 100, 
                            "dur": 250, 
                            "type": "note", 
                            "channel": 0
                        }
                    ]
                ], 
                [
                    159750, 
                    [
                        {
                            "pitch": 57, 
                            "t0": 159750, 
                            "v": 100, 
                            "dur": 250, 
                            "type": "note", 
                            "channel": 0
                        }
                    ]
                ], 
                [
                    160000, 
                    [
                        {
                            "pitch": 66, 
                            "t0": 160000, 
                            "v": 100, 
                            "dur": 250, 
                            "type": "note", 
                            "channel": 0
                        }
                    ]
                ], 
                [
                    160250, 
                    [
                        {
                            "pitch": 60, 
                            "t0": 160250, 
                            "v": 100, 
                            "dur": 250, 
                            "type": "note", 
                            "channel": 0
                        }
                    ]
                ], 
                [
                    160500, 
                    [
                        {
                            "pitch": 50, 
                            "t0": 160500, 
                            "v": 100, 
                            "dur": 250, 
                            "type": "note", 
                            "channel": 0
                        }
                    ]
                ], 
                [
                    160750, 
                    [
                        {
                            "pitch": 60, 
                            "t0": 160750, 
                            "v": 100, 
                            "dur": 250, 
                            "type": "note", 
                            "channel": 0
                        }
                    ]
                ], 
                [
                    161000, 
                    [
                        {
                            "pitch": 66, 
                            "t0": 161000, 
                            "v": 100, 
                            "dur": 250, 
                            "type": "note", 
                            "channel": 0
                        }
                    ]
                ], 
                [
                    161250, 
                    [
                        {
                            "pitch": 60, 
                            "t0": 161250, 
                            "v": 100, 
                            "dur": 250, 
                            "type": "note", 
                            "channel": 0
                        }
                    ]
                ], 
                [
                    161500, 
                    [
                        {
                            "pitch": 66, 
                            "t0": 161500, 
                            "v": 100, 
                            "dur": 250, 
                            "type": "note", 
                            "channel": 0
                        }
                    ]
                ], 
                [
                    161750, 
                    [
                        {
                            "pitch": 60, 
                            "t0": 161750, 
                            "v": 100, 
                            "dur": 250, 
                            "type": "note", 
                            "channel": 0
                        }
                    ]
                ], 
                [
                    162000, 
                    [
                        {
                            "pitch": 66, 
                            "t0": 162000, 
                            "v": 100, 
                            "dur": 250, 
                            "type": "note", 
                            "channel": 0
                        }
                    ]
                ], 
                [
                    162250, 
                    [
                        {
                            "pitch": 60, 
                            "t0": 162250, 
                            "v": 100, 
                            "dur": 250, 
                            "type": "note", 
                            "channel": 0
                        }
                    ]
                ], 
                [
                    162500, 
                    [
                        {
                            "pitch": 50, 
                            "t0": 162500, 
                            "v": 100, 
                            "dur": 250, 
                            "type": "note", 
                            "channel": 0
                        }
                    ]
                ], 
                [
                    162750, 
                    [
                        {
                            "pitch": 60, 
                            "t0": 162750, 
                            "v": 100, 
                            "dur": 250, 
                            "type": "note", 
                            "channel": 0
                        }
                    ]
                ], 
                [
                    163000, 
                    [
                        {
                            "pitch": 66, 
                            "t0": 163000, 
                            "v": 100, 
                            "dur": 250, 
                            "type": "note", 
                            "channel": 0
                        }
                    ]
                ], 
                [
                    163250, 
                    [
                        {
                            "pitch": 60, 
                            "t0": 163250, 
                            "v": 100, 
                            "dur": 250, 
                            "type": "note", 
                            "channel": 0
                        }
                    ]
                ], 
                [
                    163500, 
                    [
                        {
                            "pitch": 66, 
                            "t0": 163500, 
                            "v": 100, 
                            "dur": 250, 
                            "type": "note", 
                            "channel": 0
                        }
                    ]
                ], 
                [
                    163750, 
                    [
                        {
                            "pitch": 60, 
                            "t0": 163750, 
                            "v": 100, 
                            "dur": 250, 
                            "type": "note", 
                            "channel": 0
                        }
                    ]
                ], 
                [
                    164000, 
                    [
                        {
                            "pitch": 67, 
                            "t0": 164000, 
                            "v": 100, 
                            "dur": 4000, 
                            "type": "note", 
                            "channel": 0
                        }
                    ]
                ]
            ], 
            "instruments": [
                42
            ], 
            "tMax": 164000, 
            "channels": [
                0
            ], 
            "instrument": 42, 
            "numNotes": 593, 
            "type": "TrackObj"
        }, 
        {
            "trackName": "Instrument Track", 
            "seq": [
                [
                    0, 
                    [
                        {
                            "instrument": 42, 
                            "type": "programChange", 
                            "t0": 0, 
                            "channel": 1
                        }
                    ]
                ], 
                [
                    121250, 
                    [
                        {
                            "pitch": 57, 
                            "t0": 121250, 
                            "v": 85, 
                            "dur": 250, 
                            "type": "note", 
                            "channel": 1
                        }
                    ]
                ], 
                [
                    121750, 
                    [
                        {
                            "pitch": 57, 
                            "t0": 121750, 
                            "v": 85, 
                            "dur": 250, 
                            "type": "note", 
                            "channel": 1
                        }
                    ]
                ], 
                [
                    122250, 
                    [
                        {
                            "pitch": 57, 
                            "t0": 122250, 
                            "v": 85, 
                            "dur": 250, 
                            "type": "note", 
                            "channel": 1
                        }
                    ]
                ], 
                [
                    122750, 
                    [
                        {
                            "pitch": 57, 
                            "t0": 122750, 
                            "v": 85, 
                            "dur": 250, 
                            "type": "note", 
                            "channel": 1
                        }
                    ]
                ], 
                [
                    123250, 
                    [
                        {
                            "pitch": 57, 
                            "t0": 123250, 
                            "v": 85, 
                            "dur": 250, 
                            "type": "note", 
                            "channel": 1
                        }
                    ]
                ], 
                [
                    123750, 
                    [
                        {
                            "pitch": 57, 
                            "t0": 123750, 
                            "v": 85, 
                            "dur": 250, 
                            "type": "note", 
                            "channel": 1
                        }
                    ]
                ], 
                [
                    124250, 
                    [
                        {
                            "pitch": 57, 
                            "t0": 124250, 
                            "v": 85, 
                            "dur": 250, 
                            "type": "note", 
                            "channel": 1
                        }
                    ]
                ], 
                [
                    124750, 
                    [
                        {
                            "pitch": 57, 
                            "t0": 124750, 
                            "v": 85, 
                            "dur": 250, 
                            "type": "note", 
                            "channel": 1
                        }
                    ]
                ], 
                [
                    125250, 
                    [
                        {
                            "pitch": 57, 
                            "t0": 125250, 
                            "v": 85, 
                            "dur": 250, 
                            "type": "note", 
                            "channel": 1
                        }
                    ]
                ], 
                [
                    125750, 
                    [
                        {
                            "pitch": 57, 
                            "t0": 125750, 
                            "v": 85, 
                            "dur": 250, 
                            "type": "note", 
                            "channel": 1
                        }
                    ]
                ], 
                [
                    126250, 
                    [
                        {
                            "pitch": 57, 
                            "t0": 126250, 
                            "v": 85, 
                            "dur": 250, 
                            "type": "note", 
                            "channel": 1
                        }
                    ]
                ], 
                [
                    126750, 
                    [
                        {
                            "pitch": 57, 
                            "t0": 126750, 
                            "v": 85, 
                            "dur": 250, 
                            "type": "note", 
                            "channel": 1
                        }
                    ]
                ], 
                [
                    127250, 
                    [
                        {
                            "pitch": 57, 
                            "t0": 127250, 
                            "v": 85, 
                            "dur": 250, 
                            "type": "note", 
                            "channel": 1
                        }
                    ]
                ], 
                [
                    127750, 
                    [
                        {
                            "pitch": 57, 
                            "t0": 127750, 
                            "v": 85, 
                            "dur": 250, 
                            "type": "note", 
                            "channel": 1
                        }
                    ]
                ], 
                [
                    128250, 
                    [
                        {
                            "pitch": 57, 
                            "t0": 128250, 
                            "v": 85, 
                            "dur": 250, 
                            "type": "note", 
                            "channel": 1
                        }
                    ]
                ], 
                [
                    128750, 
                    [
                        {
                            "pitch": 57, 
                            "t0": 128750, 
                            "v": 85, 
                            "dur": 250, 
                            "type": "note", 
                            "channel": 1
                        }
                    ]
                ], 
                [
                    129250, 
                    [
                        {
                            "pitch": 57, 
                            "t0": 129250, 
                            "v": 85, 
                            "dur": 250, 
                            "type": "note", 
                            "channel": 1
                        }
                    ]
                ], 
                [
                    129750, 
                    [
                        {
                            "pitch": 57, 
                            "t0": 129750, 
                            "v": 85, 
                            "dur": 250, 
                            "type": "note", 
                            "channel": 1
                        }
                    ]
                ], 
                [
                    130250, 
                    [
                        {
                            "pitch": 57, 
                            "t0": 130250, 
                            "v": 85, 
                            "dur": 250, 
                            "type": "note", 
                            "channel": 1
                        }
                    ]
                ], 
                [
                    130750, 
                    [
                        {
                            "pitch": 57, 
                            "t0": 130750, 
                            "v": 85, 
                            "dur": 250, 
                            "type": "note", 
                            "channel": 1
                        }
                    ]
                ], 
                [
                    131250, 
                    [
                        {
                            "pitch": 57, 
                            "t0": 131250, 
                            "v": 85, 
                            "dur": 250, 
                            "type": "note", 
                            "channel": 1
                        }
                    ]
                ], 
                [
                    131750, 
                    [
                        {
                            "pitch": 57, 
                            "t0": 131750, 
                            "v": 85, 
                            "dur": 250, 
                            "type": "note", 
                            "channel": 1
                        }
                    ]
                ], 
                [
                    132250, 
                    [
                        {
                            "pitch": 57, 
                            "t0": 132250, 
                            "v": 85, 
                            "dur": 250, 
                            "type": "note", 
                            "channel": 1
                        }
                    ]
                ], 
                [
                    132750, 
                    [
                        {
                            "pitch": 57, 
                            "t0": 132750, 
                            "v": 85, 
                            "dur": 250, 
                            "type": "note", 
                            "channel": 1
                        }
                    ]
                ], 
                [
                    133250, 
                    [
                        {
                            "pitch": 57, 
                            "t0": 133250, 
                            "v": 85, 
                            "dur": 250, 
                            "type": "note", 
                            "channel": 1
                        }
                    ]
                ], 
                [
                    133750, 
                    [
                        {
                            "pitch": 57, 
                            "t0": 133750, 
                            "v": 85, 
                            "dur": 250, 
                            "type": "note", 
                            "channel": 1
                        }
                    ]
                ], 
                [
                    134250, 
                    [
                        {
                            "pitch": 57, 
                            "t0": 134250, 
                            "v": 85, 
                            "dur": 250, 
                            "type": "note", 
                            "channel": 1
                        }
                    ]
                ], 
                [
                    134750, 
                    [
                        {
                            "pitch": 57, 
                            "t0": 134750, 
                            "v": 85, 
                            "dur": 250, 
                            "type": "note", 
                            "channel": 1
                        }
                    ]
                ], 
                [
                    135250, 
                    [
                        {
                            "pitch": 57, 
                            "t0": 135250, 
                            "v": 85, 
                            "dur": 250, 
                            "type": "note", 
                            "channel": 1
                        }
                    ]
                ], 
                [
                    135750, 
                    [
                        {
                            "pitch": 57, 
                            "t0": 135750, 
                            "v": 85, 
                            "dur": 250, 
                            "type": "note", 
                            "channel": 1
                        }
                    ]
                ], 
                [
                    136250, 
                    [
                        {
                            "pitch": 57, 
                            "t0": 136250, 
                            "v": 85, 
                            "dur": 250, 
                            "type": "note", 
                            "channel": 1
                        }
                    ]
                ], 
                [
                    136750, 
                    [
                        {
                            "pitch": 57, 
                            "t0": 136750, 
                            "v": 85, 
                            "dur": 250, 
                            "type": "note", 
                            "channel": 1
                        }
                    ]
                ], 
                [
                    137250, 
                    [
                        {
                            "pitch": 57, 
                            "t0": 137250, 
                            "v": 85, 
                            "dur": 250, 
                            "type": "note", 
                            "channel": 1
                        }
                    ]
                ], 
                [
                    137750, 
                    [
                        {
                            "pitch": 57, 
                            "t0": 137750, 
                            "v": 85, 
                            "dur": 250, 
                            "type": "note", 
                            "channel": 1
                        }
                    ]
                ], 
                [
                    138250, 
                    [
                        {
                            "pitch": 57, 
                            "t0": 138250, 
                            "v": 85, 
                            "dur": 250, 
                            "type": "note", 
                            "channel": 1
                        }
                    ]
                ], 
                [
                    138750, 
                    [
                        {
                            "pitch": 57, 
                            "t0": 138750, 
                            "v": 85, 
                            "dur": 250, 
                            "type": "note", 
                            "channel": 1
                        }
                    ]
                ], 
                [
                    139250, 
                    [
                        {
                            "pitch": 57, 
                            "t0": 139250, 
                            "v": 85, 
                            "dur": 250, 
                            "type": "note", 
                            "channel": 1
                        }
                    ]
                ], 
                [
                    139750, 
                    [
                        {
                            "pitch": 57, 
                            "t0": 139750, 
                            "v": 85, 
                            "dur": 250, 
                            "type": "note", 
                            "channel": 1
                        }
                    ]
                ], 
                [
                    140250, 
                    [
                        {
                            "pitch": 57, 
                            "t0": 140250, 
                            "v": 85, 
                            "dur": 250, 
                            "type": "note", 
                            "channel": 1
                        }
                    ]
                ], 
                [
                    140750, 
                    [
                        {
                            "pitch": 57, 
                            "t0": 140750, 
                            "v": 85, 
                            "dur": 250, 
                            "type": "note", 
                            "channel": 1
                        }
                    ]
                ], 
                [
                    141250, 
                    [
                        {
                            "pitch": 57, 
                            "t0": 141250, 
                            "v": 85, 
                            "dur": 250, 
                            "type": "note", 
                            "channel": 1
                        }
                    ]
                ], 
                [
                    141750, 
                    [
                        {
                            "pitch": 57, 
                            "t0": 141750, 
                            "v": 85, 
                            "dur": 250, 
                            "type": "note", 
                            "channel": 1
                        }
                    ]
                ], 
                [
                    142250, 
                    [
                        {
                            "pitch": 57, 
                            "t0": 142250, 
                            "v": 85, 
                            "dur": 250, 
                            "type": "note", 
                            "channel": 1
                        }
                    ]
                ], 
                [
                    142750, 
                    [
                        {
                            "pitch": 57, 
                            "t0": 142750, 
                            "v": 85, 
                            "dur": 250, 
                            "type": "note", 
                            "channel": 1
                        }
                    ]
                ], 
                [
                    143250, 
                    [
                        {
                            "pitch": 57, 
                            "t0": 143250, 
                            "v": 85, 
                            "dur": 250, 
                            "type": "note", 
                            "channel": 1
                        }
                    ]
                ], 
                [
                    143750, 
                    [
                        {
                            "pitch": 57, 
                            "t0": 143750, 
                            "v": 85, 
                            "dur": 250, 
                            "type": "note", 
                            "channel": 1
                        }
                    ]
                ], 
                [
                    144250, 
                    [
                        {
                            "pitch": 57, 
                            "t0": 144250, 
                            "v": 85, 
                            "dur": 250, 
                            "type": "note", 
                            "channel": 1
                        }
                    ]
                ], 
                [
                    145250, 
                    [
                        {
                            "pitch": 50, 
                            "t0": 145250, 
                            "v": 100, 
                            "dur": 250, 
                            "type": "note", 
                            "channel": 1
                        }
                    ]
                ], 
                [
                    145750, 
                    [
                        {
                            "pitch": 50, 
                            "t0": 145750, 
                            "v": 100, 
                            "dur": 250, 
                            "type": "note", 
                            "channel": 1
                        }
                    ]
                ], 
                [
                    146250, 
                    [
                        {
                            "pitch": 50, 
                            "t0": 146250, 
                            "v": 100, 
                            "dur": 250, 
                            "type": "note", 
                            "channel": 1
                        }
                    ]
                ], 
                [
                    146750, 
                    [
                        {
                            "pitch": 50, 
                            "t0": 146750, 
                            "v": 100, 
                            "dur": 250, 
                            "type": "note", 
                            "channel": 1
                        }
                    ]
                ], 
                [
                    147250, 
                    [
                        {
                            "pitch": 50, 
                            "t0": 147250, 
                            "v": 100, 
                            "dur": 250, 
                            "type": "note", 
                            "channel": 1
                        }
                    ]
                ], 
                [
                    147750, 
                    [
                        {
                            "pitch": 50, 
                            "t0": 147750, 
                            "v": 100, 
                            "dur": 250, 
                            "type": "note", 
                            "channel": 1
                        }
                    ]
                ], 
                [
                    148250, 
                    [
                        {
                            "pitch": 50, 
                            "t0": 148250, 
                            "v": 100, 
                            "dur": 250, 
                            "type": "note", 
                            "channel": 1
                        }
                    ]
                ], 
                [
                    148750, 
                    [
                        {
                            "pitch": 50, 
                            "t0": 148750, 
                            "v": 100, 
                            "dur": 250, 
                            "type": "note", 
                            "channel": 1
                        }
                    ]
                ], 
                [
                    149250, 
                    [
                        {
                            "pitch": 50, 
                            "t0": 149250, 
                            "v": 100, 
                            "dur": 250, 
                            "type": "note", 
                            "channel": 1
                        }
                    ]
                ], 
                [
                    149750, 
                    [
                        {
                            "pitch": 50, 
                            "t0": 149750, 
                            "v": 100, 
                            "dur": 250, 
                            "type": "note", 
                            "channel": 1
                        }
                    ]
                ], 
                [
                    150250, 
                    [
                        {
                            "pitch": 50, 
                            "t0": 150250, 
                            "v": 100, 
                            "dur": 250, 
                            "type": "note", 
                            "channel": 1
                        }
                    ]
                ], 
                [
                    150750, 
                    [
                        {
                            "pitch": 50, 
                            "t0": 150750, 
                            "v": 100, 
                            "dur": 250, 
                            "type": "note", 
                            "channel": 1
                        }
                    ]
                ], 
                [
                    151250, 
                    [
                        {
                            "pitch": 50, 
                            "t0": 151250, 
                            "v": 100, 
                            "dur": 250, 
                            "type": "note", 
                            "channel": 1
                        }
                    ]
                ], 
                [
                    151750, 
                    [
                        {
                            "pitch": 50, 
                            "t0": 151750, 
                            "v": 100, 
                            "dur": 250, 
                            "type": "note", 
                            "channel": 1
                        }
                    ]
                ], 
                [
                    164000, 
                    [
                        {
                            "pitch": 59, 
                            "t0": 164000, 
                            "v": 100, 
                            "dur": 4000, 
                            "type": "note", 
                            "channel": 1
                        }
                    ]
                ]
            ], 
            "instruments": [
                42
            ], 
            "tMax": 164000, 
            "channels": [
                1
            ], 
            "instrument": 42, 
            "numNotes": 62, 
            "type": "TrackObj"
        }, 
        {
            "trackName": "Instrument Track", 
            "seq": [
                [
                    0, 
                    [
                        {
                            "instrument": 42, 
                            "type": "programChange", 
                            "t0": 0, 
                            "channel": 2
                        }
                    ]
                ], 
                [
                    164000, 
                    [
                        {
                            "pitch": 43, 
                            "t0": 164000, 
                            "v": 100, 
                            "dur": 4000, 
                            "type": "note", 
                            "channel": 2
                        }
                    ]
                ]
            ], 
            "instruments": [
                42
            ], 
            "tMax": 164000, 
            "channels": [
                2
            ], 
            "instrument": 42, 
            "numNotes": 1, 
            "type": "TrackObj"
        }
    ], 
    "type": "MidiObj"
}