{
    "format": 0, 
    "instruments": [], 
    "resolution": 384, 
    "channels": [
        0
    ], 
    "tracks": [
        {
            "seq": [
                [
                    0, 
                    [
                        {
                            "bpm": 117.000117000117, 
                            "type": "tempo", 
                            "mpqn": 512820, 
                            "t0": 0
                        }, 
                        {
                            "pitch": 65, 
                            "t0": 0, 
                            "v": 36, 
                            "dur": 273, 
                            "type": "note", 
                            "channel": 0
                        }
                    ]
                ], 
                [
                    245, 
                    [
                        {
                            "pitch": 67, 
                            "t0": 245, 
                            "v": 57, 
                            "dur": 297, 
                            "type": "note", 
                            "channel": 0
                        }
                    ]
                ], 
                [
                    515, 
                    [
                        {
                            "pitch": 65, 
                            "t0": 515, 
                            "v": 62, 
                            "dur": 278, 
                            "type": "note", 
                            "channel": 0
                        }
                    ]
                ], 
                [
                    782, 
                    [
                        {
                            "pitch": 70, 
                            "t0": 782, 
                            "v": 40, 
                            "dur": 262, 
                            "type": "note", 
                            "channel": 0
                        }
                    ]
                ], 
                [
                    1050, 
                    [
                        {
                            "pitch": 62, 
                            "t0": 1050, 
                            "v": 41, 
                            "dur": 262, 
                            "type": "note", 
                            "channel": 0
                        }
                    ]
                ], 
                [
                    1315, 
                    [
                        {
                            "pitch": 60, 
                            "t0": 1315, 
                            "v": 42, 
                            "dur": 181, 
                            "type": "note", 
                            "channel": 0
                        }
                    ]
                ], 
                [
                    1574, 
                    [
                        {
                            "pitch": 69, 
                            "t0": 1574, 
                            "v": 55, 
                            "dur": 120, 
                            "type": "note", 
                            "channel": 0
                        }
                    ]
                ], 
                [
                    1698, 
                    [
                        {
                            "pitch": 67, 
                            "t0": 1698, 
                            "v": 65, 
                            "dur": 124, 
                            "type": "note", 
                            "channel": 0
                        }
                    ]
                ], 
                [
                    1811, 
                    [
                        {
                            "pitch": 70, 
                            "t0": 1811, 
                            "v": 71, 
                            "dur": 139, 
                            "type": "note", 
                            "channel": 0
                        }
                    ]
                ], 
                [
                    1924, 
                    [
                        {
                            "pitch": 69, 
                            "t0": 1924, 
                            "v": 66, 
                            "dur": 140, 
                            "type": "note", 
                            "channel": 0
                        }
                    ]
                ], 
                [
                    2058, 
                    [
                        {
                            "pitch": 67, 
                            "t0": 2058, 
                            "v": 66, 
                            "dur": 120, 
                            "type": "note", 
                            "channel": 0
                        }
                    ]
                ], 
                [
                    2170, 
                    [
                        {
                            "pitch": 65, 
                            "t0": 2170, 
                            "v": 59, 
                            "dur": 111, 
                            "type": "note", 
                            "channel": 0
                        }
                    ]
                ], 
                [
                    2315, 
                    [
                        {
                            "pitch": 72, 
                            "t0": 2315, 
                            "v": 54, 
                            "dur": 262, 
                            "type": "note", 
                            "channel": 0
                        }
                    ]
                ], 
                [
                    2582, 
                    [
                        {
                            "pitch": 63, 
                            "t0": 2582, 
                            "v": 57, 
                            "dur": 275, 
                            "type": "note", 
                            "channel": 0
                        }
                    ]
                ], 
                [
                    2869, 
                    [
                        {
                            "pitch": 62, 
                            "t0": 2869, 
                            "v": 44, 
                            "dur": 242, 
                            "type": "note", 
                            "channel": 0
                        }
                    ]
                ], 
                [
                    3144, 
                    [
                        {
                            "pitch": 70, 
                            "t0": 3144, 
                            "v": 47, 
                            "dur": 146, 
                            "type": "note", 
                            "channel": 0
                        }
                    ]
                ], 
                [
                    3272, 
                    [
                        {
                            "pitch": 72, 
                            "t0": 3272, 
                            "v": 63, 
                            "dur": 135, 
                            "type": "note", 
                            "channel": 0
                        }
                    ]
                ], 
                [
                    3390, 
                    [
                        {
                            "pitch": 69, 
                            "t0": 3390, 
                            "v": 65, 
                            "dur": 141, 
                            "type": "note", 
                            "channel": 0
                        }
                    ]
                ], 
                [
                    3513, 
                    [
                        {
                            "pitch": 70, 
                            "t0": 3513, 
                            "v": 66, 
                            "dur": 138, 
                            "type": "note", 
                            "channel": 0
                        }
                    ]
                ], 
                [
                    3637, 
                    [
                        {
                            "pitch": 72, 
                            "t0": 3637, 
                            "v": 72, 
                            "dur": 143, 
                            "type": "note", 
                            "channel": 0
                        }
                    ]
                ], 
                [
                    3757, 
                    [
                        {
                            "pitch": 74, 
                            "t0": 3757, 
                            "v": 78, 
                            "dur": 134, 
                            "type": "note", 
                            "channel": 0
                        }
                    ]
                ], 
                [
                    3885, 
                    [
                        {
                            "pitch": 75, 
                            "t0": 3885, 
                            "v": 71, 
                            "dur": 145, 
                            "type": "note", 
                            "channel": 0
                        }
                    ]
                ], 
                [
                    4013, 
                    [
                        {
                            "pitch": 74, 
                            "t0": 4013, 
                            "v": 75, 
                            "dur": 129, 
                            "type": "note", 
                            "channel": 0
                        }
                    ]
                ], 
                [
                    4130, 
                    [
                        {
                            "pitch": 72, 
                            "t0": 4130, 
                            "v": 66, 
                            "dur": 128, 
                            "type": "note", 
                            "channel": 0
                        }
                    ]
                ], 
                [
                    4247, 
                    [
                        {
                            "pitch": 75, 
                            "t0": 4247, 
                            "v": 70, 
                            "dur": 149, 
                            "type": "note", 
                            "channel": 0
                        }
                    ]
                ], 
                [
                    4385, 
                    [
                        {
                            "pitch": 74, 
                            "t0": 4385, 
                            "v": 73, 
                            "dur": 114, 
                            "type": "note", 
                            "channel": 0
                        }
                    ]
                ], 
                [
                    4504, 
                    [
                        {
                            "pitch": 72, 
                            "t0": 4504, 
                            "v": 57, 
                            "dur": 153, 
                            "type": "note", 
                            "channel": 0
                        }
                    ]
                ], 
                [
                    4632, 
                    [
                        {
                            "pitch": 70, 
                            "t0": 4632, 
                            "v": 55, 
                            "dur": 137, 
                            "type": "note", 
                            "channel": 0
                        }
                    ]
                ], 
                [
                    4769, 
                    [
                        {
                            "pitch": 72, 
                            "t0": 4769, 
                            "v": 57, 
                            "dur": 117, 
                            "type": "note", 
                            "channel": 0
                        }
                    ]
                ], 
                [
                    4897, 
                    [
                        {
                            "pitch": 69, 
                            "t0": 4897, 
                            "v": 48, 
                            "dur": 130, 
                            "type": "note", 
                            "channel": 0
                        }
                    ]
                ], 
                [
                    5027, 
                    [
                        {
                            "pitch": 70, 
                            "t0": 5027, 
                            "v": 46, 
                            "dur": 129, 
                            "type": "note", 
                            "channel": 0
                        }
                    ]
                ], 
                [
                    5161, 
                    [
                        {
                            "pitch": 72, 
                            "t0": 5161, 
                            "v": 50, 
                            "dur": 115, 
                            "type": "note", 
                            "channel": 0
                        }
                    ]
                ], 
                [
                    5289, 
                    [
                        {
                            "pitch": 74, 
                            "t0": 5289, 
                            "v": 50, 
                            "dur": 109, 
                            "type": "note", 
                            "channel": 0
                        }
                    ]
                ], 
                [
                    5417, 
                    [
                        {
                            "pitch": 75, 
                            "t0": 5417, 
                            "v": 48, 
                            "dur": 126, 
                            "type": "note", 
                            "channel": 0
                        }
                    ]
                ], 
                [
                    5543, 
                    [
                        {
                            "pitch": 74, 
                            "t0": 5543, 
                            "v": 53, 
                            "dur": 117, 
                            "type": "note", 
                            "channel": 0
                        }
                    ]
                ], 
                [
                    5669, 
                    [
                        {
                            "pitch": 72, 
                            "t0": 5669, 
                            "v": 43, 
                            "dur": 72, 
                            "type": "note", 
                            "channel": 0
                        }
                    ]
                ], 
                [
                    5786, 
                    [
                        {
                            "pitch": 75, 
                            "t0": 5786, 
                            "v": 32, 
                            "dur": 145, 
                            "type": "note", 
                            "channel": 0
                        }
                    ]
                ], 
                [
                    5931, 
                    [
                        {
                            "pitch": 74, 
                            "t0": 5931, 
                            "v": 55, 
                            "dur": 409, 
                            "type": "note", 
                            "channel": 0
                        }
                    ]
                ], 
                [
                    6231, 
                    [
                        {
                            "pitch": 58, 
                            "t0": 6231, 
                            "v": 41, 
                            "dur": 248, 
                            "type": "note", 
                            "channel": 0
                        }
                    ]
                ], 
                [
                    6348, 
                    [
                        {
                            "pitch": 72, 
                            "t0": 6348, 
                            "v": 41, 
                            "dur": 131, 
                            "type": "note", 
                            "channel": 0
                        }
                    ]
                ], 
                [
                    6479, 
                    [
                        {
                            "pitch": 70, 
                            "t0": 6479, 
                            "v": 43, 
                            "dur": 123, 
                            "type": "note", 
                            "channel": 0
                        }, 
                        {
                            "pitch": 62, 
                            "t0": 6479, 
                            "v": 57, 
                            "dur": 256, 
                            "type": "note", 
                            "channel": 0
                        }
                    ]
                ], 
                [
                    6607, 
                    [
                        {
                            "pitch": 69, 
                            "t0": 6607, 
                            "v": 46, 
                            "dur": 128, 
                            "type": "note", 
                            "channel": 0
                        }
                    ]
                ], 
                [
                    6729, 
                    [
                        {
                            "pitch": 70, 
                            "t0": 6729, 
                            "v": 54, 
                            "dur": 128, 
                            "type": "note", 
                            "channel": 0
                        }
                    ]
                ], 
                [
                    6735, 
                    [
                        {
                            "pitch": 58, 
                            "t0": 6735, 
                            "v": 53, 
                            "dur": 234, 
                            "type": "note", 
                            "channel": 0
                        }
                    ]
                ], 
                [
                    6850, 
                    [
                        {
                            "pitch": 72, 
                            "t0": 6850, 
                            "v": 69, 
                            "dur": 144, 
                            "type": "note", 
                            "channel": 0
                        }
                    ]
                ], 
                [
                    6989, 
                    [
                        {
                            "pitch": 74, 
                            "t0": 6989, 
                            "v": 75, 
                            "dur": 126, 
                            "type": "note", 
                            "channel": 0
                        }
                    ]
                ], 
                [
                    7000, 
                    [
                        {
                            "pitch": 65, 
                            "t0": 7000, 
                            "v": 47, 
                            "dur": 187, 
                            "type": "note", 
                            "channel": 0
                        }
                    ]
                ], 
                [
                    7251, 
                    [
                        {
                            "pitch": 77, 
                            "t0": 7251, 
                            "v": 70, 
                            "dur": 631, 
                            "type": "note", 
                            "channel": 0
                        }
                    ]
                ], 
                [
                    7262, 
                    [
                        {
                            "pitch": 57, 
                            "t0": 7262, 
                            "v": 36, 
                            "dur": 268, 
                            "type": "note", 
                            "channel": 0
                        }
                    ]
                ], 
                [
                    7548, 
                    [
                        {
                            "pitch": 55, 
                            "t0": 7548, 
                            "v": 51, 
                            "dur": 156, 
                            "type": "note", 
                            "channel": 0
                        }
                    ]
                ], 
                [
                    7800, 
                    [
                        {
                            "pitch": 70, 
                            "t0": 7800, 
                            "v": 55, 
                            "dur": 275, 
                            "type": "note", 
                            "channel": 0
                        }
                    ]
                ], 
                [
                    7816, 
                    [
                        {
                            "pitch": 64, 
                            "t0": 7816, 
                            "v": 56, 
                            "dur": 95, 
                            "type": "note", 
                            "channel": 0
                        }
                    ]
                ], 
                [
                    7927, 
                    [
                        {
                            "pitch": 62, 
                            "t0": 7927, 
                            "v": 63, 
                            "dur": 109, 
                            "type": "note", 
                            "channel": 0
                        }
                    ]
                ], 
                [
                    8053, 
                    [
                        {
                            "pitch": 69, 
                            "t0": 8053, 
                            "v": 63, 
                            "dur": 265, 
                            "type": "note", 
                            "channel": 0
                        }
                    ]
                ], 
                [
                    8059, 
                    [
                        {
                            "pitch": 65, 
                            "t0": 8059, 
                            "v": 69, 
                            "dur": 119, 
                            "type": "note", 
                            "channel": 0
                        }
                    ]
                ], 
                [
                    8184, 
                    [
                        {
                            "pitch": 64, 
                            "t0": 8184, 
                            "v": 72, 
                            "dur": 101, 
                            "type": "note", 
                            "channel": 0
                        }
                    ]
                ], 
                [
                    8295, 
                    [
                        {
                            "pitch": 70, 
                            "t0": 8295, 
                            "v": 67, 
                            "dur": 249, 
                            "type": "note", 
                            "channel": 0
                        }
                    ]
                ], 
                [
                    8306, 
                    [
                        {
                            "pitch": 62, 
                            "t0": 8306, 
                            "v": 68, 
                            "dur": 89, 
                            "type": "note", 
                            "channel": 0
                        }
                    ]
                ], 
                [
                    8421, 
                    [
                        {
                            "pitch": 60, 
                            "t0": 8421, 
                            "v": 60, 
                            "dur": 100, 
                            "type": "note", 
                            "channel": 0
                        }
                    ]
                ], 
                [
                    8551, 
                    [
                        {
                            "pitch": 76, 
                            "t0": 8551, 
                            "v": 60, 
                            "dur": 157, 
                            "type": "note", 
                            "channel": 0
                        }
                    ]
                ], 
                [
                    8557, 
                    [
                        {
                            "pitch": 67, 
                            "t0": 8557, 
                            "v": 51, 
                            "dur": 162, 
                            "type": "note", 
                            "channel": 0
                        }
                    ]
                ], 
                [
                    8813, 
                    [
                        {
                            "pitch": 79, 
                            "t0": 8813, 
                            "v": 77, 
                            "dur": 544, 
                            "type": "note", 
                            "channel": 0
                        }
                    ]
                ], 
                [
                    8824, 
                    [
                        {
                            "pitch": 58, 
                            "t0": 8824, 
                            "v": 39, 
                            "dur": 266, 
                            "type": "note", 
                            "channel": 0
                        }
                    ]
                ], 
                [
                    9122, 
                    [
                        {
                            "pitch": 57, 
                            "t0": 9122, 
                            "v": 33, 
                            "dur": 238, 
                            "type": "note", 
                            "channel": 0
                        }
                    ]
                ], 
                [
                    9371, 
                    [
                        {
                            "pitch": 69, 
                            "t0": 9371, 
                            "v": 44, 
                            "dur": 128, 
                            "type": "note", 
                            "channel": 0
                        }
                    ]
                ], 
                [
                    9390, 
                    [
                        {
                            "pitch": 65, 
                            "t0": 9390, 
                            "v": 38, 
                            "dur": 55, 
                            "type": "note", 
                            "channel": 0
                        }
                    ]
                ], 
                [
                    9482, 
                    [
                        {
                            "pitch": 70, 
                            "t0": 9482, 
                            "v": 52, 
                            "dur": 101, 
                            "type": "note", 
                            "channel": 0
                        }
                    ]
                ], 
                [
                    9507, 
                    [
                        {
                            "pitch": 67, 
                            "t0": 9507, 
                            "v": 38, 
                            "dur": 62, 
                            "type": "note", 
                            "channel": 0
                        }
                    ]
                ], 
                [
                    9611, 
                    [
                        {
                            "pitch": 72, 
                            "t0": 9611, 
                            "v": 59, 
                            "dur": 49, 
                            "type": "note", 
                            "channel": 0
                        }
                    ]
                ], 
                [
                    9624, 
                    [
                        {
                            "pitch": 64, 
                            "t0": 9624, 
                            "v": 50, 
                            "dur": 72, 
                            "type": "note", 
                            "channel": 0
                        }
                    ]
                ], 
                [
                    9764, 
                    [
                        {
                            "pitch": 65, 
                            "t0": 9764, 
                            "v": 20, 
                            "dur": 72, 
                            "type": "note", 
                            "channel": 0
                        }
                    ]
                ], 
                [
                    9864, 
                    [
                        {
                            "pitch": 72, 
                            "t0": 9864, 
                            "v": 60, 
                            "dur": 44, 
                            "type": "note", 
                            "channel": 0
                        }
                    ]
                ], 
                [
                    9867, 
                    [
                        {
                            "pitch": 67, 
                            "t0": 9867, 
                            "v": 46, 
                            "dur": 53, 
                            "type": "note", 
                            "channel": 0
                        }
                    ]
                ], 
                [
                    9983, 
                    [
                        {
                            "pitch": 69, 
                            "t0": 9983, 
                            "v": 37, 
                            "dur": 131, 
                            "type": "note", 
                            "channel": 0
                        }
                    ]
                ], 
                [
                    10104, 
                    [
                        {
                            "pitch": 72, 
                            "t0": 10104, 
                            "v": 66, 
                            "dur": 50, 
                            "type": "note", 
                            "channel": 0
                        }
                    ]
                ], 
                [
                    10114, 
                    [
                        {
                            "pitch": 70, 
                            "t0": 10114, 
                            "v": 49, 
                            "dur": 104, 
                            "type": "note", 
                            "channel": 0
                        }
                    ]
                ], 
                [
                    10237, 
                    [
                        {
                            "pitch": 69, 
                            "t0": 10237, 
                            "v": 42, 
                            "dur": 87, 
                            "type": "note", 
                            "channel": 0
                        }
                    ]
                ], 
                [
                    10352, 
                    [
                        {
                            "pitch": 72, 
                            "t0": 10352, 
                            "v": 64, 
                            "dur": 41, 
                            "type": "note", 
                            "channel": 0
                        }
                    ]
                ], 
                [
                    10357, 
                    [
                        {
                            "pitch": 67, 
                            "t0": 10357, 
                            "v": 56, 
                            "dur": 86, 
                            "type": "note", 
                            "channel": 0
                        }
                    ]
                ], 
                [
                    10466, 
                    [
                        {
                            "pitch": 70, 
                            "t0": 10466, 
                            "v": 60, 
                            "dur": 117, 
                            "type": "note", 
                            "channel": 0
                        }
                    ]
                ], 
                [
                    10593, 
                    [
                        {
                            "pitch": 72, 
                            "t0": 10593, 
                            "v": 75, 
                            "dur": 149, 
                            "type": "note", 
                            "channel": 0
                        }
                    ]
                ], 
                [
                    10604, 
                    [
                        {
                            "pitch": 69, 
                            "t0": 10604, 
                            "v": 61, 
                            "dur": 107, 
                            "type": "note", 
                            "channel": 0
                        }
                    ]
                ], 
                [
                    10708, 
                    [
                        {
                            "pitch": 70, 
                            "t0": 10708, 
                            "v": 61, 
                            "dur": 120, 
                            "type": "note", 
                            "channel": 0
                        }
                    ]
                ], 
                [
                    10722, 
                    [
                        {
                            "pitch": 67, 
                            "t0": 10722, 
                            "v": 71, 
                            "dur": 72, 
                            "type": "note", 
                            "channel": 0
                        }
                    ]
                ], 
                [
                    10828, 
                    [
                        {
                            "pitch": 69, 
                            "t0": 10828, 
                            "v": 70, 
                            "dur": 145, 
                            "type": "note", 
                            "channel": 0
                        }
                    ]
                ], 
                [
                    10841, 
                    [
                        {
                            "pitch": 65, 
                            "t0": 10841, 
                            "v": 60, 
                            "dur": 115, 
                            "type": "note", 
                            "channel": 0
                        }
                    ]
                ], 
                [
                    10945, 
                    [
                        {
                            "pitch": 70, 
                            "t0": 10945, 
                            "v": 72, 
                            "dur": 144, 
                            "type": "note", 
                            "channel": 0
                        }
                    ]
                ], 
                [
                    10956, 
                    [
                        {
                            "pitch": 67, 
                            "t0": 10956, 
                            "v": 74, 
                            "dur": 94, 
                            "type": "note", 
                            "channel": 0
                        }
                    ]
                ], 
                [
                    11075, 
                    [
                        {
                            "pitch": 72, 
                            "t0": 11075, 
                            "v": 73, 
                            "dur": 50, 
                            "type": "note", 
                            "channel": 0
                        }, 
                        {
                            "pitch": 64, 
                            "t0": 11075, 
                            "v": 78, 
                            "dur": 128, 
                            "type": "note", 
                            "channel": 0
                        }
                    ]
                ], 
                [
                    11203, 
                    [
                        {
                            "pitch": 65, 
                            "t0": 11203, 
                            "v": 66, 
                            "dur": 126, 
                            "type": "note", 
                            "channel": 0
                        }
                    ]
                ], 
                [
                    11324, 
                    [
                        {
                            "pitch": 72, 
                            "t0": 11324, 
                            "v": 64, 
                            "dur": 42, 
                            "type": "note", 
                            "channel": 0
                        }
                    ]
                ], 
                [
                    11329, 
                    [
                        {
                            "pitch": 67, 
                            "t0": 11329, 
                            "v": 69, 
                            "dur": 105, 
                            "type": "note", 
                            "channel": 0
                        }
                    ]
                ], 
                [
                    11444, 
                    [
                        {
                            "pitch": 69, 
                            "t0": 11444, 
                            "v": 48, 
                            "dur": 128, 
                            "type": "note", 
                            "channel": 0
                        }
                    ]
                ], 
                [
                    11561, 
                    [
                        {
                            "pitch": 72, 
                            "t0": 11561, 
                            "v": 60, 
                            "dur": 46, 
                            "type": "note", 
                            "channel": 0
                        }
                    ]
                ], 
                [
                    11577, 
                    [
                        {
                            "pitch": 70, 
                            "t0": 11577, 
                            "v": 57, 
                            "dur": 114, 
                            "type": "note", 
                            "channel": 0
                        }
                    ]
                ], 
                [
                    11707, 
                    [
                        {
                            "pitch": 69, 
                            "t0": 11707, 
                            "v": 35, 
                            "dur": 68, 
                            "type": "note", 
                            "channel": 0
                        }
                    ]
                ], 
                [
                    11819, 
                    [
                        {
                            "pitch": 72, 
                            "t0": 11819, 
                            "v": 51, 
                            "dur": 40, 
                            "type": "note", 
                            "channel": 0
                        }, 
                        {
                            "pitch": 67, 
                            "t0": 11819, 
                            "v": 47, 
                            "dur": 69, 
                            "type": "note", 
                            "channel": 0
                        }
                    ]
                ], 
                [
                    11930, 
                    [
                        {
                            "pitch": 70, 
                            "t0": 11930, 
                            "v": 48, 
                            "dur": 46, 
                            "type": "note", 
                            "channel": 0
                        }
                    ]
                ], 
                [
                    12067, 
                    [
                        {
                            "pitch": 72, 
                            "t0": 12067, 
                            "v": 53, 
                            "dur": 911, 
                            "type": "note", 
                            "channel": 0
                        }
                    ]
                ], 
                [
                    12070, 
                    [
                        {
                            "pitch": 69, 
                            "t0": 12070, 
                            "v": 36, 
                            "dur": 399, 
                            "type": "note", 
                            "channel": 0
                        }
                    ]
                ], 
                [
                    12352, 
                    [
                        {
                            "pitch": 53, 
                            "t0": 12352, 
                            "v": 76, 
                            "dur": 233, 
                            "type": "note", 
                            "channel": 0
                        }
                    ]
                ], 
                [
                    12465, 
                    [
                        {
                            "pitch": 67, 
                            "t0": 12465, 
                            "v": 52, 
                            "dur": 120, 
                            "type": "note", 
                            "channel": 0
                        }
                    ]
                ], 
                [
                    12594, 
                    [
                        {
                            "pitch": 65, 
                            "t0": 12594, 
                            "v": 53, 
                            "dur": 128, 
                            "type": "note", 
                            "channel": 0
                        }
                    ]
                ], 
                [
                    12599, 
                    [
                        {
                            "pitch": 55, 
                            "t0": 12599, 
                            "v": 75, 
                            "dur": 249, 
                            "type": "note", 
                            "channel": 0
                        }
                    ]
                ], 
                [
                    12711, 
                    [
                        {
                            "pitch": 63, 
                            "t0": 12711, 
                            "v": 64, 
                            "dur": 130, 
                            "type": "note", 
                            "channel": 0
                        }
                    ]
                ], 
                [
                    12853, 
                    [
                        {
                            "pitch": 53, 
                            "t0": 12853, 
                            "v": 87, 
                            "dur": 250, 
                            "type": "note", 
                            "channel": 0
                        }
                    ]
                ], 
                [
                    12859, 
                    [
                        {
                            "pitch": 62, 
                            "t0": 12859, 
                            "v": 62, 
                            "dur": 94, 
                            "type": "note", 
                            "channel": 0
                        }
                    ]
                ], 
                [
                    12965, 
                    [
                        {
                            "pitch": 63, 
                            "t0": 12965, 
                            "v": 71, 
                            "dur": 146, 
                            "type": "note", 
                            "channel": 0
                        }
                    ]
                ], 
                [
                    13111, 
                    [
                        {
                            "pitch": 58, 
                            "t0": 13111, 
                            "v": 52, 
                            "dur": 101, 
                            "type": "note", 
                            "channel": 0
                        }
                    ]
                ], 
                [
                    13115, 
                    [
                        {
                            "pitch": 65, 
                            "t0": 13115, 
                            "v": 64, 
                            "dur": 166, 
                            "type": "note", 
                            "channel": 0
                        }
                    ]
                ], 
                [
                    13238, 
                    [
                        {
                            "pitch": 74, 
                            "t0": 13238, 
                            "v": 66, 
                            "dur": 113, 
                            "type": "note", 
                            "channel": 0
                        }
                    ]
                ], 
                [
                    13357, 
                    [
                        {
                            "pitch": 70, 
                            "t0": 13357, 
                            "v": 59, 
                            "dur": 379, 
                            "type": "note", 
                            "channel": 0
                        }
                    ]
                ], 
                [
                    13376, 
                    [
                        {
                            "pitch": 50, 
                            "t0": 13376, 
                            "v": 62, 
                            "dur": 226, 
                            "type": "note", 
                            "channel": 0
                        }
                    ]
                ], 
                [
                    13471, 
                    [
                        {
                            "pitch": 74, 
                            "t0": 13471, 
                            "v": 78, 
                            "dur": 118, 
                            "type": "note", 
                            "channel": 0
                        }
                    ]
                ], 
                [
                    13625, 
                    [
                        {
                            "pitch": 75, 
                            "t0": 13625, 
                            "v": 63, 
                            "dur": 256, 
                            "type": "note", 
                            "channel": 0
                        }
                    ]
                ], 
                [
                    13635, 
                    [
                        {
                            "pitch": 48, 
                            "t0": 13635, 
                            "v": 36, 
                            "dur": 204, 
                            "type": "note", 
                            "channel": 0
                        }
                    ]
                ], 
                [
                    13867, 
                    [
                        {
                            "pitch": 63, 
                            "t0": 13867, 
                            "v": 59, 
                            "dur": 233, 
                            "type": "note", 
                            "channel": 0
                        }
                    ]
                ], 
                [
                    13881, 
                    [
                        {
                            "pitch": 57, 
                            "t0": 13881, 
                            "v": 44, 
                            "dur": 122, 
                            "type": "note", 
                            "channel": 0
                        }
                    ]
                ], 
                [
                    13984, 
                    [
                        {
                            "pitch": 55, 
                            "t0": 13984, 
                            "v": 67, 
                            "dur": 116, 
                            "type": "note", 
                            "channel": 0
                        }
                    ]
                ], 
                [
                    14106, 
                    [
                        {
                            "pitch": 58, 
                            "t0": 14106, 
                            "v": 60, 
                            "dur": 143, 
                            "type": "note", 
                            "channel": 0
                        }, 
                        {
                            "pitch": 62, 
                            "t0": 14106, 
                            "v": 69, 
                            "dur": 192, 
                            "type": "note", 
                            "channel": 0
                        }
                    ]
                ], 
                [
                    14238, 
                    [
                        {
                            "pitch": 57, 
                            "t0": 14238, 
                            "v": 72, 
                            "dur": 142, 
                            "type": "note", 
                            "channel": 0
                        }
                    ]
                ], 
                [
                    14346, 
                    [
                        {
                            "pitch": 63, 
                            "t0": 14346, 
                            "v": 66, 
                            "dur": 130, 
                            "type": "note", 
                            "channel": 0
                        }
                    ]
                ], 
                [
                    14365, 
                    [
                        {
                            "pitch": 55, 
                            "t0": 14365, 
                            "v": 76, 
                            "dur": 111, 
                            "type": "note", 
                            "channel": 0
                        }
                    ]
                ], 
                [
                    14466, 
                    [
                        {
                            "pitch": 53, 
                            "t0": 14466, 
                            "v": 92, 
                            "dur": 127, 
                            "type": "note", 
                            "channel": 0
                        }
                    ]
                ], 
                [
                    14607, 
                    [
                        {
                            "pitch": 60, 
                            "t0": 14607, 
                            "v": 67, 
                            "dur": 92, 
                            "type": "note", 
                            "channel": 0
                        }
                    ]
                ], 
                [
                    14611, 
                    [
                        {
                            "pitch": 69, 
                            "t0": 14611, 
                            "v": 56, 
                            "dur": 133, 
                            "type": "note", 
                            "channel": 0
                        }
                    ]
                ], 
                [
                    14719, 
                    [
                        {
                            "pitch": 75, 
                            "t0": 14719, 
                            "v": 59, 
                            "dur": 120, 
                            "type": "note", 
                            "channel": 0
                        }
                    ]
                ], 
                [
                    14848, 
                    [
                        {
                            "pitch": 72, 
                            "t0": 14848, 
                            "v": 67, 
                            "dur": 392, 
                            "type": "note", 
                            "channel": 0
                        }
                    ]
                ], 
                [
                    14851, 
                    [
                        {
                            "pitch": 51, 
                            "t0": 14851, 
                            "v": 63, 
                            "dur": 241, 
                            "type": "note", 
                            "channel": 0
                        }
                    ]
                ], 
                [
                    14961, 
                    [
                        {
                            "pitch": 75, 
                            "t0": 14961, 
                            "v": 67, 
                            "dur": 98, 
                            "type": "note", 
                            "channel": 0
                        }
                    ]
                ], 
                [
                    15107, 
                    [
                        {
                            "pitch": 77, 
                            "t0": 15107, 
                            "v": 63, 
                            "dur": 125, 
                            "type": "note", 
                            "channel": 0
                        }
                    ]
                ], 
                [
                    15114, 
                    [
                        {
                            "pitch": 50, 
                            "t0": 15114, 
                            "v": 56, 
                            "dur": 156, 
                            "type": "note", 
                            "channel": 0
                        }
                    ]
                ], 
                [
                    15348, 
                    [
                        {
                            "pitch": 62, 
                            "t0": 15348, 
                            "v": 57, 
                            "dur": 60, 
                            "type": "note", 
                            "channel": 0
                        }
                    ]
                ], 
                [
                    15357, 
                    [
                        {
                            "pitch": 58, 
                            "t0": 15357, 
                            "v": 46, 
                            "dur": 47, 
                            "type": "note", 
                            "channel": 0
                        }
                    ]
                ], 
                [
                    15446, 
                    [
                        {
                            "pitch": 63, 
                            "t0": 15446, 
                            "v": 65, 
                            "dur": 115, 
                            "type": "note", 
                            "channel": 0
                        }
                    ]
                ], 
                [
                    15471, 
                    [
                        {
                            "pitch": 60, 
                            "t0": 15471, 
                            "v": 52, 
                            "dur": 50, 
                            "type": "note", 
                            "channel": 0
                        }
                    ]
                ], 
                [
                    15566, 
                    [
                        {
                            "pitch": 57, 
                            "t0": 15566, 
                            "v": 64, 
                            "dur": 120, 
                            "type": "note", 
                            "channel": 0
                        }
                    ]
                ], 
                [
                    15580, 
                    [
                        {
                            "pitch": 65, 
                            "t0": 15580, 
                            "v": 66, 
                            "dur": 83, 
                            "type": "note", 
                            "channel": 0
                        }
                    ]
                ], 
                [
                    15677, 
                    [
                        {
                            "pitch": 58, 
                            "t0": 15677, 
                            "v": 53, 
                            "dur": 120, 
                            "type": "note", 
                            "channel": 0
                        }
                    ]
                ], 
                [
                    15806, 
                    [
                        {
                            "pitch": 60, 
                            "t0": 15806, 
                            "v": 55, 
                            "dur": 72, 
                            "type": "note", 
                            "channel": 0
                        }
                    ]
                ], 
                [
                    15812, 
                    [
                        {
                            "pitch": 65, 
                            "t0": 15812, 
                            "v": 55, 
                            "dur": 71, 
                            "type": "note", 
                            "channel": 0
                        }, 
                        {
                            "pitch": 69, 
                            "t0": 15812, 
                            "v": 53, 
                            "dur": 94, 
                            "type": "note", 
                            "channel": 0
                        }
                    ]
                ], 
                [
                    15925, 
                    [
                        {
                            "pitch": 62, 
                            "t0": 15925, 
                            "v": 50, 
                            "dur": 56, 
                            "type": "note", 
                            "channel": 0
                        }, 
                        {
                            "pitch": 70, 
                            "t0": 15925, 
                            "v": 52, 
                            "dur": 106, 
                            "type": "note", 
                            "channel": 0
                        }
                    ]
                ], 
                [
                    16057, 
                    [
                        {
                            "pitch": 63, 
                            "t0": 16057, 
                            "v": 64, 
                            "dur": 47, 
                            "type": "note", 
                            "channel": 0
                        }, 
                        {
                            "pitch": 65, 
                            "t0": 16057, 
                            "v": 66, 
                            "dur": 55, 
                            "type": "note", 
                            "channel": 0
                        }, 
                        {
                            "pitch": 72, 
                            "t0": 16057, 
                            "v": 63, 
                            "dur": 60, 
                            "type": "note", 
                            "channel": 0
                        }
                    ]
                ], 
                [
                    16167, 
                    [
                        {
                            "pitch": 70, 
                            "t0": 16167, 
                            "v": 51, 
                            "dur": 87, 
                            "type": "note", 
                            "channel": 0
                        }
                    ]
                ], 
                [
                    16195, 
                    [
                        {
                            "pitch": 62, 
                            "t0": 16195, 
                            "v": 34, 
                            "dur": 53, 
                            "type": "note", 
                            "channel": 0
                        }
                    ]
                ], 
                [
                    16290, 
                    [
                        {
                            "pitch": 65, 
                            "t0": 16290, 
                            "v": 51, 
                            "dur": 59, 
                            "type": "note", 
                            "channel": 0
                        }
                    ]
                ], 
                [
                    16294, 
                    [
                        {
                            "pitch": 60, 
                            "t0": 16294, 
                            "v": 38, 
                            "dur": 66, 
                            "type": "note", 
                            "channel": 0
                        }, 
                        {
                            "pitch": 69, 
                            "t0": 16294, 
                            "v": 42, 
                            "dur": 77, 
                            "type": "note", 
                            "channel": 0
                        }
                    ]
                ], 
                [
                    16405, 
                    [
                        {
                            "pitch": 63, 
                            "t0": 16405, 
                            "v": 51, 
                            "dur": 49, 
                            "type": "note", 
                            "channel": 0
                        }, 
                        {
                            "pitch": 72, 
                            "t0": 16405, 
                            "v": 52, 
                            "dur": 61, 
                            "type": "note", 
                            "channel": 0
                        }
                    ]
                ], 
                [
                    16533, 
                    [
                        {
                            "pitch": 62, 
                            "t0": 16533, 
                            "v": 50, 
                            "dur": 56, 
                            "type": "note", 
                            "channel": 0
                        }
                    ]
                ], 
                [
                    16538, 
                    [
                        {
                            "pitch": 65, 
                            "t0": 16538, 
                            "v": 59, 
                            "dur": 93, 
                            "type": "note", 
                            "channel": 0
                        }, 
                        {
                            "pitch": 70, 
                            "t0": 16538, 
                            "v": 55, 
                            "dur": 444, 
                            "type": "note", 
                            "channel": 0
                        }
                    ]
                ], 
                [
                    16647, 
                    [
                        {
                            "pitch": 63, 
                            "t0": 16647, 
                            "v": 60, 
                            "dur": 106, 
                            "type": "note", 
                            "channel": 0
                        }
                    ]
                ], 
                [
                    16661, 
                    [
                        {
                            "pitch": 60, 
                            "t0": 16661, 
                            "v": 31, 
                            "dur": 72, 
                            "type": "note", 
                            "channel": 0
                        }
                    ]
                ], 
                [
                    16753, 
                    [
                        {
                            "pitch": 58, 
                            "t0": 16753, 
                            "v": 50, 
                            "dur": 117, 
                            "type": "note", 
                            "channel": 0
                        }
                    ]
                ], 
                [
                    16770, 
                    [
                        {
                            "pitch": 62, 
                            "t0": 16770, 
                            "v": 65, 
                            "dur": 88, 
                            "type": "note", 
                            "channel": 0
                        }
                    ]
                ], 
                [
                    16875, 
                    [
                        {
                            "pitch": 63, 
                            "t0": 16875, 
                            "v": 72, 
                            "dur": 110, 
                            "type": "note", 
                            "channel": 0
                        }
                    ]
                ], 
                [
                    16890, 
                    [
                        {
                            "pitch": 60, 
                            "t0": 16890, 
                            "v": 57, 
                            "dur": 52, 
                            "type": "note", 
                            "channel": 0
                        }
                    ]
                ], 
                [
                    17004, 
                    [
                        {
                            "pitch": 57, 
                            "t0": 17004, 
                            "v": 60, 
                            "dur": 122, 
                            "type": "note", 
                            "channel": 0
                        }, 
                        {
                            "pitch": 65, 
                            "t0": 17004, 
                            "v": 76, 
                            "dur": 125, 
                            "type": "note", 
                            "channel": 0
                        }
                    ]
                ], 
                [
                    17112, 
                    [
                        {
                            "pitch": 58, 
                            "t0": 17112, 
                            "v": 55, 
                            "dur": 111, 
                            "type": "note", 
                            "channel": 0
                        }
                    ]
                ], 
                [
                    17237, 
                    [
                        {
                            "pitch": 69, 
                            "t0": 17237, 
                            "v": 55, 
                            "dur": 81, 
                            "type": "note", 
                            "channel": 0
                        }
                    ]
                ], 
                [
                    17248, 
                    [
                        {
                            "pitch": 65, 
                            "t0": 17248, 
                            "v": 54, 
                            "dur": 50, 
                            "type": "note", 
                            "channel": 0
                        }, 
                        {
                            "pitch": 60, 
                            "t0": 17248, 
                            "v": 54, 
                            "dur": 50, 
                            "type": "note", 
                            "channel": 0
                        }
                    ]
                ], 
                [
                    17344, 
                    [
                        {
                            "pitch": 70, 
                            "t0": 17344, 
                            "v": 56, 
                            "dur": 92, 
                            "type": "note", 
                            "channel": 0
                        }
                    ]
                ], 
                [
                    17355, 
                    [
                        {
                            "pitch": 62, 
                            "t0": 17355, 
                            "v": 41, 
                            "dur": 58, 
                            "type": "note", 
                            "channel": 0
                        }
                    ]
                ], 
                [
                    17468, 
                    [
                        {
                            "pitch": 63, 
                            "t0": 17468, 
                            "v": 57, 
                            "dur": 50, 
                            "type": "note", 
                            "channel": 0
                        }
                    ]
                ], 
                [
                    17475, 
                    [
                        {
                            "pitch": 65, 
                            "t0": 17475, 
                            "v": 59, 
                            "dur": 52, 
                            "type": "note", 
                            "channel": 0
                        }, 
                        {
                            "pitch": 72, 
                            "t0": 17475, 
                            "v": 59, 
                            "dur": 67, 
                            "type": "note", 
                            "channel": 0
                        }
                    ]
                ], 
                [
                    17578, 
                    [
                        {
                            "pitch": 70, 
                            "t0": 17578, 
                            "v": 43, 
                            "dur": 116, 
                            "type": "note", 
                            "channel": 0
                        }
                    ]
                ], 
                [
                    17597, 
                    [
                        {
                            "pitch": 62, 
                            "t0": 17597, 
                            "v": 30, 
                            "dur": 53, 
                            "type": "note", 
                            "channel": 0
                        }
                    ]
                ], 
                [
                    17703, 
                    [
                        {
                            "pitch": 65, 
                            "t0": 17703, 
                            "v": 42, 
                            "dur": 64, 
                            "type": "note", 
                            "channel": 0
                        }, 
                        {
                            "pitch": 69, 
                            "t0": 17703, 
                            "v": 40, 
                            "dur": 97, 
                            "type": "note", 
                            "channel": 0
                        }
                    ]
                ], 
                [
                    17708, 
                    [
                        {
                            "pitch": 60, 
                            "t0": 17708, 
                            "v": 41, 
                            "dur": 59, 
                            "type": "note", 
                            "channel": 0
                        }
                    ]
                ], 
                [
                    17817, 
                    [
                        {
                            "pitch": 63, 
                            "t0": 17817, 
                            "v": 46, 
                            "dur": 48, 
                            "type": "note", 
                            "channel": 0
                        }, 
                        {
                            "pitch": 72, 
                            "t0": 17817, 
                            "v": 51, 
                            "dur": 69, 
                            "type": "note", 
                            "channel": 0
                        }
                    ]
                ], 
                [
                    17950, 
                    [
                        {
                            "pitch": 70, 
                            "t0": 17950, 
                            "v": 44, 
                            "dur": 129, 
                            "type": "note", 
                            "channel": 0
                        }
                    ]
                ], 
                [
                    17956, 
                    [
                        {
                            "pitch": 65, 
                            "t0": 17956, 
                            "v": 34, 
                            "dur": 315, 
                            "type": "note", 
                            "channel": 0
                        }
                    ]
                ], 
                [
                    17967, 
                    [
                        {
                            "pitch": 62, 
                            "t0": 17967, 
                            "v": 45, 
                            "dur": 40, 
                            "type": "note", 
                            "channel": 0
                        }
                    ]
                ], 
                [
                    18191, 
                    [
                        {
                            "pitch": 70, 
                            "t0": 18191, 
                            "v": 56, 
                            "dur": 227, 
                            "type": "note", 
                            "channel": 0
                        }
                    ]
                ], 
                [
                    18195, 
                    [
                        {
                            "pitch": 50, 
                            "t0": 18195, 
                            "v": 57, 
                            "dur": 49, 
                            "type": "note", 
                            "channel": 0
                        }
                    ]
                ], 
                [
                    18318, 
                    [
                        {
                            "pitch": 48, 
                            "t0": 18318, 
                            "v": 44, 
                            "dur": 90, 
                            "type": "note", 
                            "channel": 0
                        }
                    ]
                ], 
                [
                    18427, 
                    [
                        {
                            "pitch": 46, 
                            "t0": 18427, 
                            "v": 47, 
                            "dur": 105, 
                            "type": "note", 
                            "channel": 0
                        }
                    ]
                ], 
                [
                    18446, 
                    [
                        {
                            "pitch": 74, 
                            "t0": 18446, 
                            "v": 63, 
                            "dur": 228, 
                            "type": "note", 
                            "channel": 0
                        }
                    ]
                ], 
                [
                    18555, 
                    [
                        {
                            "pitch": 45, 
                            "t0": 18555, 
                            "v": 57, 
                            "dur": 136, 
                            "type": "note", 
                            "channel": 0
                        }
                    ]
                ], 
                [
                    18669, 
                    [
                        {
                            "pitch": 70, 
                            "t0": 18669, 
                            "v": 58, 
                            "dur": 240, 
                            "type": "note", 
                            "channel": 0
                        }
                    ]
                ], 
                [
                    18674, 
                    [
                        {
                            "pitch": 46, 
                            "t0": 18674, 
                            "v": 66, 
                            "dur": 99, 
                            "type": "note", 
                            "channel": 0
                        }
                    ]
                ], 
                [
                    18795, 
                    [
                        {
                            "pitch": 48, 
                            "t0": 18795, 
                            "v": 62, 
                            "dur": 94, 
                            "type": "note", 
                            "channel": 0
                        }
                    ]
                ], 
                [
                    18917, 
                    [
                        {
                            "pitch": 50, 
                            "t0": 18917, 
                            "v": 65, 
                            "dur": 76, 
                            "type": "note", 
                            "channel": 0
                        }
                    ]
                ], 
                [
                    18922, 
                    [
                        {
                            "pitch": 77, 
                            "t0": 18922, 
                            "v": 71, 
                            "dur": 117, 
                            "type": "note", 
                            "channel": 0
                        }
                    ]
                ], 
                [
                    19032, 
                    [
                        {
                            "pitch": 57, 
                            "t0": 19032, 
                            "v": 48, 
                            "dur": 119, 
                            "type": "note", 
                            "channel": 0
                        }
                    ]
                ], 
                [
                    19163, 
                    [
                        {
                            "pitch": 69, 
                            "t0": 19163, 
                            "v": 51, 
                            "dur": 241, 
                            "type": "note", 
                            "channel": 0
                        }
                    ]
                ], 
                [
                    19166, 
                    [
                        {
                            "pitch": 53, 
                            "t0": 19166, 
                            "v": 76, 
                            "dur": 348, 
                            "type": "note", 
                            "channel": 0
                        }
                    ]
                ], 
                [
                    19307, 
                    [
                        {
                            "pitch": 57, 
                            "t0": 19307, 
                            "v": 48, 
                            "dur": 53, 
                            "type": "note", 
                            "channel": 0
                        }
                    ]
                ], 
                [
                    19416, 
                    [
                        {
                            "pitch": 67, 
                            "t0": 19416, 
                            "v": 79, 
                            "dur": 273, 
                            "type": "note", 
                            "channel": 0
                        }
                    ]
                ], 
                [
                    19429, 
                    [
                        {
                            "pitch": 58, 
                            "t0": 19429, 
                            "v": 56, 
                            "dur": 148, 
                            "type": "note", 
                            "channel": 0
                        }
                    ]
                ], 
                [
                    19675, 
                    [
                        {
                            "pitch": 76, 
                            "t0": 19675, 
                            "v": 76, 
                            "dur": 147, 
                            "type": "note", 
                            "channel": 0
                        }
                    ]
                ], 
                [
                    19681, 
                    [
                        {
                            "pitch": 46, 
                            "t0": 19681, 
                            "v": 53, 
                            "dur": 245, 
                            "type": "note", 
                            "channel": 0
                        }
                    ]
                ], 
                [
                    19786, 
                    [
                        {
                            "pitch": 74, 
                            "t0": 19786, 
                            "v": 80, 
                            "dur": 146, 
                            "type": "note", 
                            "channel": 0
                        }
                    ]
                ], 
                [
                    19920, 
                    [
                        {
                            "pitch": 77, 
                            "t0": 19920, 
                            "v": 84, 
                            "dur": 153, 
                            "type": "note", 
                            "channel": 0
                        }, 
                        {
                            "pitch": 45, 
                            "t0": 19920, 
                            "v": 59, 
                            "dur": 235, 
                            "type": "note", 
                            "channel": 0
                        }
                    ]
                ], 
                [
                    20043, 
                    [
                        {
                            "pitch": 76, 
                            "t0": 20043, 
                            "v": 71, 
                            "dur": 130, 
                            "type": "note", 
                            "channel": 0
                        }
                    ]
                ], 
                [
                    20155, 
                    [
                        {
                            "pitch": 74, 
                            "t0": 20155, 
                            "v": 78, 
                            "dur": 94, 
                            "type": "note", 
                            "channel": 0
                        }
                    ]
                ], 
                [
                    20159, 
                    [
                        {
                            "pitch": 46, 
                            "t0": 20159, 
                            "v": 55, 
                            "dur": 204, 
                            "type": "note", 
                            "channel": 0
                        }
                    ]
                ], 
                [
                    20257, 
                    [
                        {
                            "pitch": 72, 
                            "t0": 20257, 
                            "v": 71, 
                            "dur": 111, 
                            "type": "note", 
                            "channel": 0
                        }
                    ]
                ], 
                [
                    20388, 
                    [
                        {
                            "pitch": 52, 
                            "t0": 20388, 
                            "v": 76, 
                            "dur": 34, 
                            "type": "note", 
                            "channel": 0
                        }
                    ]
                ], 
                [
                    20394, 
                    [
                        {
                            "pitch": 79, 
                            "t0": 20394, 
                            "v": 83, 
                            "dur": 109, 
                            "type": "note", 
                            "channel": 0
                        }
                    ]
                ], 
                [
                    20496, 
                    [
                        {
                            "pitch": 58, 
                            "t0": 20496, 
                            "v": 55, 
                            "dur": 112, 
                            "type": "note", 
                            "channel": 0
                        }
                    ]
                ], 
                [
                    20623, 
                    [
                        {
                            "pitch": 70, 
                            "t0": 20623, 
                            "v": 62, 
                            "dur": 281, 
                            "type": "note", 
                            "channel": 0
                        }
                    ]
                ], 
                [
                    20626, 
                    [
                        {
                            "pitch": 55, 
                            "t0": 20626, 
                            "v": 74, 
                            "dur": 302, 
                            "type": "note", 
                            "channel": 0
                        }
                    ]
                ], 
                [
                    20747, 
                    [
                        {
                            "pitch": 58, 
                            "t0": 20747, 
                            "v": 53, 
                            "dur": 48, 
                            "type": "note", 
                            "channel": 0
                        }
                    ]
                ], 
                [
                    20889, 
                    [
                        {
                            "pitch": 69, 
                            "t0": 20889, 
                            "v": 63, 
                            "dur": 237, 
                            "type": "note", 
                            "channel": 0
                        }
                    ]
                ], 
                [
                    20900, 
                    [
                        {
                            "pitch": 60, 
                            "t0": 20900, 
                            "v": 67, 
                            "dur": 42, 
                            "type": "note", 
                            "channel": 0
                        }
                    ]
                ], 
                [
                    21141, 
                    [
                        {
                            "pitch": 77, 
                            "t0": 21141, 
                            "v": 72, 
                            "dur": 124, 
                            "type": "note", 
                            "channel": 0
                        }
                    ]
                ], 
                [
                    21149, 
                    [
                        {
                            "pitch": 45, 
                            "t0": 21149, 
                            "v": 63, 
                            "dur": 108, 
                            "type": "note", 
                            "channel": 0
                        }
                    ]
                ], 
                [
                    21249, 
                    [
                        {
                            "pitch": 79, 
                            "t0": 21249, 
                            "v": 84, 
                            "dur": 119, 
                            "type": "note", 
                            "channel": 0
                        }
                    ]
                ], 
                [
                    21257, 
                    [
                        {
                            "pitch": 46, 
                            "t0": 21257, 
                            "v": 62, 
                            "dur": 111, 
                            "type": "note", 
                            "channel": 0
                        }
                    ]
                ], 
                [
                    21379, 
                    [
                        {
                            "pitch": 48, 
                            "t0": 21379, 
                            "v": 70, 
                            "dur": 84, 
                            "type": "note", 
                            "channel": 0
                        }
                    ]
                ], 
                [
                    21385, 
                    [
                        {
                            "pitch": 76, 
                            "t0": 21385, 
                            "v": 66, 
                            "dur": 121, 
                            "type": "note", 
                            "channel": 0
                        }
                    ]
                ], 
                [
                    21502, 
                    [
                        {
                            "pitch": 77, 
                            "t0": 21502, 
                            "v": 74, 
                            "dur": 120, 
                            "type": "note", 
                            "channel": 0
                        }
                    ]
                ], 
                [
                    21603, 
                    [
                        {
                            "pitch": 48, 
                            "t0": 21603, 
                            "v": 53, 
                            "dur": 91, 
                            "type": "note", 
                            "channel": 0
                        }
                    ]
                ], 
                [
                    21619, 
                    [
                        {
                            "pitch": 52, 
                            "t0": 21619, 
                            "v": 67, 
                            "dur": 72, 
                            "type": "note", 
                            "channel": 0
                        }
                    ]
                ], 
                [
                    21627, 
                    [
                        {
                            "pitch": 79, 
                            "t0": 21627, 
                            "v": 81, 
                            "dur": 89, 
                            "type": "note", 
                            "channel": 0
                        }
                    ]
                ], 
                [
                    21731, 
                    [
                        {
                            "pitch": 53, 
                            "t0": 21731, 
                            "v": 81, 
                            "dur": 45, 
                            "type": "note", 
                            "channel": 0
                        }
                    ]
                ], 
                [
                    21745, 
                    [
                        {
                            "pitch": 81, 
                            "t0": 21745, 
                            "v": 67, 
                            "dur": 114, 
                            "type": "note", 
                            "channel": 0
                        }
                    ]
                ], 
                [
                    21853, 
                    [
                        {
                            "pitch": 55, 
                            "t0": 21853, 
                            "v": 73, 
                            "dur": 107, 
                            "type": "note", 
                            "channel": 0
                        }
                    ]
                ], 
                [
                    21859, 
                    [
                        {
                            "pitch": 82, 
                            "t0": 21859, 
                            "v": 69, 
                            "dur": 133, 
                            "type": "note", 
                            "channel": 0
                        }
                    ]
                ], 
                [
                    21862, 
                    [
                        {
                            "pitch": 48, 
                            "t0": 21862, 
                            "v": 61, 
                            "dur": 111, 
                            "type": "note", 
                            "channel": 0
                        }
                    ]
                ], 
                [
                    21956, 
                    [
                        {
                            "pitch": 53, 
                            "t0": 21956, 
                            "v": 84, 
                            "dur": 54, 
                            "type": "note", 
                            "channel": 0
                        }
                    ]
                ], 
                [
                    21973, 
                    [
                        {
                            "pitch": 81, 
                            "t0": 21973, 
                            "v": 67, 
                            "dur": 64, 
                            "type": "note", 
                            "channel": 0
                        }
                    ]
                ], 
                [
                    22087, 
                    [
                        {
                            "pitch": 79, 
                            "t0": 22087, 
                            "v": 80, 
                            "dur": 109, 
                            "type": "note", 
                            "channel": 0
                        }
                    ]
                ], 
                [
                    22091, 
                    [
                        {
                            "pitch": 48, 
                            "t0": 22091, 
                            "v": 55, 
                            "dur": 125, 
                            "type": "note", 
                            "channel": 0
                        }
                    ]
                ], 
                [
                    22096, 
                    [
                        {
                            "pitch": 52, 
                            "t0": 22096, 
                            "v": 67, 
                            "dur": 52, 
                            "type": "note", 
                            "channel": 0
                        }
                    ]
                ], 
                [
                    22190, 
                    [
                        {
                            "pitch": 82, 
                            "t0": 22190, 
                            "v": 67, 
                            "dur": 135, 
                            "type": "note", 
                            "channel": 0
                        }
                    ]
                ], 
                [
                    22196, 
                    [
                        {
                            "pitch": 55, 
                            "t0": 22196, 
                            "v": 73, 
                            "dur": 31, 
                            "type": "note", 
                            "channel": 0
                        }
                    ]
                ], 
                [
                    22313, 
                    [
                        {
                            "pitch": 81, 
                            "t0": 22313, 
                            "v": 79, 
                            "dur": 139, 
                            "type": "note", 
                            "channel": 0
                        }
                    ]
                ], 
                [
                    22321, 
                    [
                        {
                            "pitch": 53, 
                            "t0": 22321, 
                            "v": 98, 
                            "dur": 357, 
                            "type": "note", 
                            "channel": 0
                        }
                    ]
                ], 
                [
                    22325, 
                    [
                        {
                            "pitch": 48, 
                            "t0": 22325, 
                            "v": 80, 
                            "dur": 83, 
                            "type": "note", 
                            "channel": 0
                        }
                    ]
                ], 
                [
                    22422, 
                    [
                        {
                            "pitch": 46, 
                            "t0": 22422, 
                            "v": 65, 
                            "dur": 103, 
                            "type": "note", 
                            "channel": 0
                        }
                    ]
                ], 
                [
                    22435, 
                    [
                        {
                            "pitch": 79, 
                            "t0": 22435, 
                            "v": 78, 
                            "dur": 117, 
                            "type": "note", 
                            "channel": 0
                        }
                    ]
                ], 
                [
                    22549, 
                    [
                        {
                            "pitch": 45, 
                            "t0": 22549, 
                            "v": 62, 
                            "dur": 93, 
                            "type": "note", 
                            "channel": 0
                        }
                    ]
                ], 
                [
                    22558, 
                    [
                        {
                            "pitch": 77, 
                            "t0": 22558, 
                            "v": 75, 
                            "dur": 111, 
                            "type": "note", 
                            "channel": 0
                        }
                    ]
                ], 
                [
                    22653, 
                    [
                        {
                            "pitch": 46, 
                            "t0": 22653, 
                            "v": 63, 
                            "dur": 106, 
                            "type": "note", 
                            "channel": 0
                        }
                    ]
                ], 
                [
                    22659, 
                    [
                        {
                            "pitch": 79, 
                            "t0": 22659, 
                            "v": 89, 
                            "dur": 114, 
                            "type": "note", 
                            "channel": 0
                        }
                    ]
                ], 
                [
                    22790, 
                    [
                        {
                            "pitch": 48, 
                            "t0": 22790, 
                            "v": 78, 
                            "dur": 81, 
                            "type": "note", 
                            "channel": 0
                        }
                    ]
                ], 
                [
                    22793, 
                    [
                        {
                            "pitch": 76, 
                            "t0": 22793, 
                            "v": 56, 
                            "dur": 111, 
                            "type": "note", 
                            "channel": 0
                        }
                    ]
                ], 
                [
                    22822, 
                    [
                        {
                            "pitch": 77, 
                            "t0": 22822, 
                            "v": 22, 
                            "dur": 39, 
                            "type": "note", 
                            "channel": 0
                        }
                    ]
                ], 
                [
                    22910, 
                    [
                        {
                            "pitch": 77, 
                            "t0": 22910, 
                            "v": 90, 
                            "dur": 117, 
                            "type": "note", 
                            "channel": 0
                        }
                    ]
                ], 
                [
                    23031, 
                    [
                        {
                            "pitch": 48, 
                            "t0": 23031, 
                            "v": 59, 
                            "dur": 84, 
                            "type": "note", 
                            "channel": 0
                        }, 
                        {
                            "pitch": 79, 
                            "t0": 23031, 
                            "v": 91, 
                            "dur": 121, 
                            "type": "note", 
                            "channel": 0
                        }
                    ]
                ], 
                [
                    23046, 
                    [
                        {
                            "pitch": 52, 
                            "t0": 23046, 
                            "v": 50, 
                            "dur": 75, 
                            "type": "note", 
                            "channel": 0
                        }
                    ]
                ], 
                [
                    23140, 
                    [
                        {
                            "pitch": 53, 
                            "t0": 23140, 
                            "v": 86, 
                            "dur": 67, 
                            "type": "note", 
                            "channel": 0
                        }
                    ]
                ], 
                [
                    23146, 
                    [
                        {
                            "pitch": 81, 
                            "t0": 23146, 
                            "v": 81, 
                            "dur": 123, 
                            "type": "note", 
                            "channel": 0
                        }
                    ]
                ], 
                [
                    23263, 
                    [
                        {
                            "pitch": 82, 
                            "t0": 23263, 
                            "v": 73, 
                            "dur": 133, 
                            "type": "note", 
                            "channel": 0
                        }
                    ]
                ], 
                [
                    23269, 
                    [
                        {
                            "pitch": 48, 
                            "t0": 23269, 
                            "v": 62, 
                            "dur": 75, 
                            "type": "note", 
                            "channel": 0
                        }
                    ]
                ], 
                [
                    23272, 
                    [
                        {
                            "pitch": 55, 
                            "t0": 23272, 
                            "v": 63, 
                            "dur": 72, 
                            "type": "note", 
                            "channel": 0
                        }
                    ]
                ], 
                [
                    23377, 
                    [
                        {
                            "pitch": 53, 
                            "t0": 23377, 
                            "v": 85, 
                            "dur": 40, 
                            "type": "note", 
                            "channel": 0
                        }, 
                        {
                            "pitch": 81, 
                            "t0": 23377, 
                            "v": 75, 
                            "dur": 97, 
                            "type": "note", 
                            "channel": 0
                        }
                    ]
                ], 
                [
                    23492, 
                    [
                        {
                            "pitch": 79, 
                            "t0": 23492, 
                            "v": 81, 
                            "dur": 105, 
                            "type": "note", 
                            "channel": 0
                        }
                    ]
                ], 
                [
                    23495, 
                    [
                        {
                            "pitch": 52, 
                            "t0": 23495, 
                            "v": 68, 
                            "dur": 47, 
                            "type": "note", 
                            "channel": 0
                        }, 
                        {
                            "pitch": 48, 
                            "t0": 23495, 
                            "v": 43, 
                            "dur": 114, 
                            "type": "note", 
                            "channel": 0
                        }
                    ]
                ], 
                [
                    23589, 
                    [
                        {
                            "pitch": 82, 
                            "t0": 23589, 
                            "v": 71, 
                            "dur": 106, 
                            "type": "note", 
                            "channel": 0
                        }
                    ]
                ], 
                [
                    23708, 
                    [
                        {
                            "pitch": 53, 
                            "t0": 23708, 
                            "v": 106, 
                            "dur": 31, 
                            "type": "note", 
                            "channel": 0
                        }
                    ]
                ], 
                [
                    23712, 
                    [
                        {
                            "pitch": 41, 
                            "t0": 23712, 
                            "v": 91, 
                            "dur": 27, 
                            "type": "note", 
                            "channel": 0
                        }
                    ]
                ], 
                [
                    23720, 
                    [
                        {
                            "pitch": 81, 
                            "t0": 23720, 
                            "v": 75, 
                            "dur": 148, 
                            "type": "note", 
                            "channel": 0
                        }
                    ]
                ], 
                [
                    23836, 
                    [
                        {
                            "pitch": 57, 
                            "t0": 23836, 
                            "v": 83, 
                            "dur": 124, 
                            "type": "note", 
                            "channel": 0
                        }
                    ]
                ], 
                [
                    23839, 
                    [
                        {
                            "pitch": 82, 
                            "t0": 23839, 
                            "v": 69, 
                            "dur": 137, 
                            "type": "note", 
                            "channel": 0
                        }
                    ]
                ], 
                [
                    23939, 
                    [
                        {
                            "pitch": 58, 
                            "t0": 23939, 
                            "v": 69, 
                            "dur": 131, 
                            "type": "note", 
                            "channel": 0
                        }
                    ]
                ], 
                [
                    23945, 
                    [
                        {
                            "pitch": 81, 
                            "t0": 23945, 
                            "v": 54, 
                            "dur": 112, 
                            "type": "note", 
                            "channel": 0
                        }
                    ]
                ], 
                [
                    24052, 
                    [
                        {
                            "pitch": 60, 
                            "t0": 24052, 
                            "v": 72, 
                            "dur": 117, 
                            "type": "note", 
                            "channel": 0
                        }, 
                        {
                            "pitch": 79, 
                            "t0": 24052, 
                            "v": 86, 
                            "dur": 128, 
                            "type": "note", 
                            "channel": 0
                        }
                    ]
                ], 
                [
                    24177, 
                    [
                        {
                            "pitch": 78, 
                            "t0": 24177, 
                            "v": 81, 
                            "dur": 139, 
                            "type": "note", 
                            "channel": 0
                        }
                    ]
                ], 
                [
                    24180, 
                    [
                        {
                            "pitch": 62, 
                            "t0": 24180, 
                            "v": 86, 
                            "dur": 92, 
                            "type": "note", 
                            "channel": 0
                        }
                    ]
                ], 
                [
                    24297, 
                    [
                        {
                            "pitch": 79, 
                            "t0": 24297, 
                            "v": 88, 
                            "dur": 155, 
                            "type": "note", 
                            "channel": 0
                        }
                    ]
                ], 
                [
                    24428, 
                    [
                        {
                            "pitch": 54, 
                            "t0": 24428, 
                            "v": 67, 
                            "dur": 41, 
                            "type": "note", 
                            "channel": 0
                        }
                    ]
                ], 
                [
                    24433, 
                    [
                        {
                            "pitch": 62, 
                            "t0": 24433, 
                            "v": 62, 
                            "dur": 62, 
                            "type": "note", 
                            "channel": 0
                        }, 
                        {
                            "pitch": 81, 
                            "t0": 24433, 
                            "v": 71, 
                            "dur": 125, 
                            "type": "note", 
                            "channel": 0
                        }
                    ]
                ], 
                [
                    24536, 
                    [
                        {
                            "pitch": 55, 
                            "t0": 24536, 
                            "v": 47, 
                            "dur": 50, 
                            "type": "note", 
                            "channel": 0
                        }, 
                        {
                            "pitch": 82, 
                            "t0": 24536, 
                            "v": 69, 
                            "dur": 136, 
                            "type": "note", 
                            "channel": 0
                        }
                    ]
                ], 
                [
                    24665, 
                    [
                        {
                            "pitch": 84, 
                            "t0": 24665, 
                            "v": 76, 
                            "dur": 124, 
                            "type": "note", 
                            "channel": 0
                        }
                    ]
                ], 
                [
                    24681, 
                    [
                        {
                            "pitch": 62, 
                            "t0": 24681, 
                            "v": 53, 
                            "dur": 64, 
                            "type": "note", 
                            "channel": 0
                        }
                    ]
                ], 
                [
                    24694, 
                    [
                        {
                            "pitch": 57, 
                            "t0": 24694, 
                            "v": 39, 
                            "dur": 51, 
                            "type": "note", 
                            "channel": 0
                        }
                    ]
                ], 
                [
                    24767, 
                    [
                        {
                            "pitch": 55, 
                            "t0": 24767, 
                            "v": 47, 
                            "dur": 54, 
                            "type": "note", 
                            "channel": 0
                        }
                    ]
                ], 
                [
                    24778, 
                    [
                        {
                            "pitch": 82, 
                            "t0": 24778, 
                            "v": 62, 
                            "dur": 107, 
                            "type": "note", 
                            "channel": 0
                        }
                    ]
                ], 
                [
                    24885, 
                    [
                        {
                            "pitch": 54, 
                            "t0": 24885, 
                            "v": 61, 
                            "dur": 80, 
                            "type": "note", 
                            "channel": 0
                        }
                    ]
                ], 
                [
                    24895, 
                    [
                        {
                            "pitch": 62, 
                            "t0": 24895, 
                            "v": 52, 
                            "dur": 95, 
                            "type": "note", 
                            "channel": 0
                        }, 
                        {
                            "pitch": 81, 
                            "t0": 24895, 
                            "v": 73, 
                            "dur": 111, 
                            "type": "note", 
                            "channel": 0
                        }
                    ]
                ], 
                [
                    25006, 
                    [
                        {
                            "pitch": 57, 
                            "t0": 25006, 
                            "v": 46, 
                            "dur": 48, 
                            "type": "note", 
                            "channel": 0
                        }
                    ]
                ], 
                [
                    25013, 
                    [
                        {
                            "pitch": 84, 
                            "t0": 25013, 
                            "v": 74, 
                            "dur": 113, 
                            "type": "note", 
                            "channel": 0
                        }
                    ]
                ], 
                [
                    25121, 
                    [
                        {
                            "pitch": 82, 
                            "t0": 25121, 
                            "v": 71, 
                            "dur": 134, 
                            "type": "note", 
                            "channel": 0
                        }
                    ]
                ], 
                [
                    25126, 
                    [
                        {
                            "pitch": 62, 
                            "t0": 25126, 
                            "v": 66, 
                            "dur": 118, 
                            "type": "note", 
                            "channel": 0
                        }, 
                        {
                            "pitch": 55, 
                            "t0": 25126, 
                            "v": 67, 
                            "dur": 167, 
                            "type": "note", 
                            "channel": 0
                        }
                    ]
                ], 
                [
                    25238, 
                    [
                        {
                            "pitch": 81, 
                            "t0": 25238, 
                            "v": 68, 
                            "dur": 108, 
                            "type": "note", 
                            "channel": 0
                        }
                    ]
                ], 
                [
                    25244, 
                    [
                        {
                            "pitch": 60, 
                            "t0": 25244, 
                            "v": 74, 
                            "dur": 106, 
                            "type": "note", 
                            "channel": 0
                        }
                    ]
                ], 
                [
                    25350, 
                    [
                        {
                            "pitch": 79, 
                            "t0": 25350, 
                            "v": 78, 
                            "dur": 114, 
                            "type": "note", 
                            "channel": 0
                        }, 
                        {
                            "pitch": 58, 
                            "t0": 25350, 
                            "v": 69, 
                            "dur": 128, 
                            "type": "note", 
                            "channel": 0
                        }
                    ]
                ], 
                [
                    25460, 
                    [
                        {
                            "pitch": 81, 
                            "t0": 25460, 
                            "v": 77, 
                            "dur": 132, 
                            "type": "note", 
                            "channel": 0
                        }
                    ]
                ], 
                [
                    25464, 
                    [
                        {
                            "pitch": 60, 
                            "t0": 25464, 
                            "v": 78, 
                            "dur": 83, 
                            "type": "note", 
                            "channel": 0
                        }
                    ]
                ], 
                [
                    25583, 
                    [
                        {
                            "pitch": 62, 
                            "t0": 25583, 
                            "v": 83, 
                            "dur": 73, 
                            "type": "note", 
                            "channel": 0
                        }
                    ]
                ], 
                [
                    25586, 
                    [
                        {
                            "pitch": 78, 
                            "t0": 25586, 
                            "v": 78, 
                            "dur": 112, 
                            "type": "note", 
                            "channel": 0
                        }
                    ]
                ], 
                [
                    25690, 
                    [
                        {
                            "pitch": 79, 
                            "t0": 25690, 
                            "v": 89, 
                            "dur": 142, 
                            "type": "note", 
                            "channel": 0
                        }
                    ]
                ], 
                [
                    25815, 
                    [
                        {
                            "pitch": 54, 
                            "t0": 25815, 
                            "v": 74, 
                            "dur": 49, 
                            "type": "note", 
                            "channel": 0
                        }, 
                        {
                            "pitch": 62, 
                            "t0": 25815, 
                            "v": 71, 
                            "dur": 59, 
                            "type": "note", 
                            "channel": 0
                        }
                    ]
                ], 
                [
                    25823, 
                    [
                        {
                            "pitch": 81, 
                            "t0": 25823, 
                            "v": 78, 
                            "dur": 128, 
                            "type": "note", 
                            "channel": 0
                        }
                    ]
                ], 
                [
                    25920, 
                    [
                        {
                            "pitch": 55, 
                            "t0": 25920, 
                            "v": 67, 
                            "dur": 53, 
                            "type": "note", 
                            "channel": 0
                        }
                    ]
                ], 
                [
                    25938, 
                    [
                        {
                            "pitch": 82, 
                            "t0": 25938, 
                            "v": 62, 
                            "dur": 131, 
                            "type": "note", 
                            "channel": 0
                        }
                    ]
                ], 
                [
                    26055, 
                    [
                        {
                            "pitch": 57, 
                            "t0": 26055, 
                            "v": 64, 
                            "dur": 100, 
                            "type": "note", 
                            "channel": 0
                        }, 
                        {
                            "pitch": 84, 
                            "t0": 26055, 
                            "v": 83, 
                            "dur": 128, 
                            "type": "note", 
                            "channel": 0
                        }
                    ]
                ], 
                [
                    26058, 
                    [
                        {
                            "pitch": 62, 
                            "t0": 26058, 
                            "v": 72, 
                            "dur": 85, 
                            "type": "note", 
                            "channel": 0
                        }
                    ]
                ], 
                [
                    26143, 
                    [
                        {
                            "pitch": 55, 
                            "t0": 26143, 
                            "v": 66, 
                            "dur": 107, 
                            "type": "note", 
                            "channel": 0
                        }
                    ]
                ], 
                [
                    26168, 
                    [
                        {
                            "pitch": 82, 
                            "t0": 26168, 
                            "v": 53, 
                            "dur": 103, 
                            "type": "note", 
                            "channel": 0
                        }
                    ]
                ], 
                [
                    26275, 
                    [
                        {
                            "pitch": 62, 
                            "t0": 26275, 
                            "v": 64, 
                            "dur": 55, 
                            "type": "note", 
                            "channel": 0
                        }, 
                        {
                            "pitch": 54, 
                            "t0": 26275, 
                            "v": 68, 
                            "dur": 60, 
                            "type": "note", 
                            "channel": 0
                        }
                    ]
                ], 
                [
                    26280, 
                    [
                        {
                            "pitch": 81, 
                            "t0": 26280, 
                            "v": 69, 
                            "dur": 89, 
                            "type": "note", 
                            "channel": 0
                        }
                    ]
                ], 
                [
                    26385, 
                    [
                        {
                            "pitch": 84, 
                            "t0": 26385, 
                            "v": 67, 
                            "dur": 85, 
                            "type": "note", 
                            "channel": 0
                        }
                    ]
                ], 
                [
                    26394, 
                    [
                        {
                            "pitch": 57, 
                            "t0": 26394, 
                            "v": 46, 
                            "dur": 50, 
                            "type": "note", 
                            "channel": 0
                        }
                    ]
                ], 
                [
                    26506, 
                    [
                        {
                            "pitch": 82, 
                            "t0": 26506, 
                            "v": 59, 
                            "dur": 124, 
                            "type": "note", 
                            "channel": 0
                        }
                    ]
                ], 
                [
                    26514, 
                    [
                        {
                            "pitch": 62, 
                            "t0": 26514, 
                            "v": 58, 
                            "dur": 37, 
                            "type": "note", 
                            "channel": 0
                        }
                    ]
                ], 
                [
                    26522, 
                    [
                        {
                            "pitch": 55, 
                            "t0": 26522, 
                            "v": 62, 
                            "dur": 37, 
                            "type": "note", 
                            "channel": 0
                        }
                    ]
                ], 
                [
                    26614, 
                    [
                        {
                            "pitch": 81, 
                            "t0": 26614, 
                            "v": 58, 
                            "dur": 118, 
                            "type": "note", 
                            "channel": 0
                        }
                    ]
                ], 
                [
                    26739, 
                    [
                        {
                            "pitch": 79, 
                            "t0": 26739, 
                            "v": 64, 
                            "dur": 135, 
                            "type": "note", 
                            "channel": 0
                        }
                    ]
                ], 
                [
                    26745, 
                    [
                        {
                            "pitch": 50, 
                            "t0": 26745, 
                            "v": 67, 
                            "dur": 198, 
                            "type": "note", 
                            "channel": 0
                        }
                    ]
                ], 
                [
                    26860, 
                    [
                        {
                            "pitch": 77, 
                            "t0": 26860, 
                            "v": 53, 
                            "dur": 99, 
                            "type": "note", 
                            "channel": 0
                        }
                    ]
                ], 
                [
                    26973, 
                    [
                        {
                            "pitch": 48, 
                            "t0": 26973, 
                            "v": 56, 
                            "dur": 207, 
                            "type": "note", 
                            "channel": 0
                        }
                    ]
                ], 
                [
                    26982, 
                    [
                        {
                            "pitch": 75, 
                            "t0": 26982, 
                            "v": 59, 
                            "dur": 111, 
                            "type": "note", 
                            "channel": 0
                        }
                    ]
                ], 
                [
                    27093, 
                    [
                        {
                            "pitch": 77, 
                            "t0": 27093, 
                            "v": 66, 
                            "dur": 107, 
                            "type": "note", 
                            "channel": 0
                        }
                    ]
                ], 
                [
                    27221, 
                    [
                        {
                            "pitch": 79, 
                            "t0": 27221, 
                            "v": 75, 
                            "dur": 67, 
                            "type": "note", 
                            "channel": 0
                        }, 
                        {
                            "pitch": 50, 
                            "t0": 27221, 
                            "v": 54, 
                            "dur": 162, 
                            "type": "note", 
                            "channel": 0
                        }
                    ]
                ], 
                [
                    27344, 
                    [
                        {
                            "pitch": 81, 
                            "t0": 27344, 
                            "v": 63, 
                            "dur": 123, 
                            "type": "note", 
                            "channel": 0
                        }
                    ]
                ], 
                [
                    27456, 
                    [
                        {
                            "pitch": 43, 
                            "t0": 27456, 
                            "v": 44, 
                            "dur": 183, 
                            "type": "note", 
                            "channel": 0
                        }
                    ]
                ], 
                [
                    27463, 
                    [
                        {
                            "pitch": 82, 
                            "t0": 27463, 
                            "v": 57, 
                            "dur": 118, 
                            "type": "note", 
                            "channel": 0
                        }
                    ]
                ], 
                [
                    27590, 
                    [
                        {
                            "pitch": 81, 
                            "t0": 27590, 
                            "v": 57, 
                            "dur": 49, 
                            "type": "note", 
                            "channel": 0
                        }
                    ]
                ], 
                [
                    27693, 
                    [
                        {
                            "pitch": 51, 
                            "t0": 27693, 
                            "v": 54, 
                            "dur": 202, 
                            "type": "note", 
                            "channel": 0
                        }
                    ]
                ], 
                [
                    27698, 
                    [
                        {
                            "pitch": 79, 
                            "t0": 27698, 
                            "v": 63, 
                            "dur": 67, 
                            "type": "note", 
                            "channel": 0
                        }
                    ]
                ], 
                [
                    27806, 
                    [
                        {
                            "pitch": 82, 
                            "t0": 27806, 
                            "v": 52, 
                            "dur": 123, 
                            "type": "note", 
                            "channel": 0
                        }
                    ]
                ], 
                [
                    27924, 
                    [
                        {
                            "pitch": 53, 
                            "t0": 27924, 
                            "v": 84, 
                            "dur": 116, 
                            "type": "note", 
                            "channel": 0
                        }
                    ]
                ], 
                [
                    27934, 
                    [
                        {
                            "pitch": 81, 
                            "t0": 27934, 
                            "v": 57, 
                            "dur": 106, 
                            "type": "note", 
                            "channel": 0
                        }
                    ]
                ], 
                [
                    28048, 
                    [
                        {
                            "pitch": 79, 
                            "t0": 28048, 
                            "v": 72, 
                            "dur": 113, 
                            "type": "note", 
                            "channel": 0
                        }
                    ]
                ], 
                [
                    28161, 
                    [
                        {
                            "pitch": 77, 
                            "t0": 28161, 
                            "v": 63, 
                            "dur": 133, 
                            "type": "note", 
                            "channel": 0
                        }, 
                        {
                            "pitch": 48, 
                            "t0": 28161, 
                            "v": 57, 
                            "dur": 230, 
                            "type": "note", 
                            "channel": 0
                        }
                    ]
                ], 
                [
                    28269, 
                    [
                        {
                            "pitch": 75, 
                            "t0": 28269, 
                            "v": 64, 
                            "dur": 128, 
                            "type": "note", 
                            "channel": 0
                        }
                    ]
                ], 
                [
                    28394, 
                    [
                        {
                            "pitch": 46, 
                            "t0": 28394, 
                            "v": 61, 
                            "dur": 239, 
                            "type": "note", 
                            "channel": 0
                        }
                    ]
                ], 
                [
                    28400, 
                    [
                        {
                            "pitch": 74, 
                            "t0": 28400, 
                            "v": 79, 
                            "dur": 108, 
                            "type": "note", 
                            "channel": 0
                        }
                    ]
                ], 
                [
                    28517, 
                    [
                        {
                            "pitch": 75, 
                            "t0": 28517, 
                            "v": 68, 
                            "dur": 116, 
                            "type": "note", 
                            "channel": 0
                        }
                    ]
                ], 
                [
                    28633, 
                    [
                        {
                            "pitch": 77, 
                            "t0": 28633, 
                            "v": 76, 
                            "dur": 110, 
                            "type": "note", 
                            "channel": 0
                        }
                    ]
                ], 
                [
                    28640, 
                    [
                        {
                            "pitch": 48, 
                            "t0": 28640, 
                            "v": 55, 
                            "dur": 247, 
                            "type": "note", 
                            "channel": 0
                        }
                    ]
                ], 
                [
                    28746, 
                    [
                        {
                            "pitch": 79, 
                            "t0": 28746, 
                            "v": 87, 
                            "dur": 127, 
                            "type": "note", 
                            "channel": 0
                        }
                    ]
                ], 
                [
                    28873, 
                    [
                        {
                            "pitch": 81, 
                            "t0": 28873, 
                            "v": 73, 
                            "dur": 126, 
                            "type": "note", 
                            "channel": 0
                        }
                    ]
                ], 
                [
                    28887, 
                    [
                        {
                            "pitch": 41, 
                            "t0": 28887, 
                            "v": 65, 
                            "dur": 140, 
                            "type": "note", 
                            "channel": 0
                        }
                    ]
                ], 
                [
                    28988, 
                    [
                        {
                            "pitch": 79, 
                            "t0": 28988, 
                            "v": 78, 
                            "dur": 122, 
                            "type": "note", 
                            "channel": 0
                        }
                    ]
                ], 
                [
                    29116, 
                    [
                        {
                            "pitch": 77, 
                            "t0": 29116, 
                            "v": 53, 
                            "dur": 97, 
                            "type": "note", 
                            "channel": 0
                        }
                    ]
                ], 
                [
                    29122, 
                    [
                        {
                            "pitch": 50, 
                            "t0": 29122, 
                            "v": 56, 
                            "dur": 211, 
                            "type": "note", 
                            "channel": 0
                        }
                    ]
                ], 
                [
                    29230, 
                    [
                        {
                            "pitch": 81, 
                            "t0": 29230, 
                            "v": 50, 
                            "dur": 92, 
                            "type": "note", 
                            "channel": 0
                        }
                    ]
                ], 
                [
                    29350, 
                    [
                        {
                            "pitch": 51, 
                            "t0": 29350, 
                            "v": 57, 
                            "dur": 155, 
                            "type": "note", 
                            "channel": 0
                        }
                    ]
                ], 
                [
                    29358, 
                    [
                        {
                            "pitch": 79, 
                            "t0": 29358, 
                            "v": 61, 
                            "dur": 65, 
                            "type": "note", 
                            "channel": 0
                        }
                    ]
                ], 
                [
                    29469, 
                    [
                        {
                            "pitch": 77, 
                            "t0": 29469, 
                            "v": 41, 
                            "dur": 112, 
                            "type": "note", 
                            "channel": 0
                        }
                    ]
                ], 
                [
                    29573, 
                    [
                        {
                            "pitch": 75, 
                            "t0": 29573, 
                            "v": 50, 
                            "dur": 114, 
                            "type": "note", 
                            "channel": 0
                        }
                    ]
                ], 
                [
                    29581, 
                    [
                        {
                            "pitch": 46, 
                            "t0": 29581, 
                            "v": 45, 
                            "dur": 212, 
                            "type": "note", 
                            "channel": 0
                        }
                    ]
                ], 
                [
                    29687, 
                    [
                        {
                            "pitch": 74, 
                            "t0": 29687, 
                            "v": 56, 
                            "dur": 119, 
                            "type": "note", 
                            "channel": 0
                        }
                    ]
                ], 
                [
                    29806, 
                    [
                        {
                            "pitch": 45, 
                            "t0": 29806, 
                            "v": 44, 
                            "dur": 260, 
                            "type": "note", 
                            "channel": 0
                        }
                    ]
                ], 
                [
                    29809, 
                    [
                        {
                            "pitch": 72, 
                            "t0": 29809, 
                            "v": 52, 
                            "dur": 76, 
                            "type": "note", 
                            "channel": 0
                        }
                    ]
                ], 
                [
                    29934, 
                    [
                        {
                            "pitch": 74, 
                            "t0": 29934, 
                            "v": 56, 
                            "dur": 54, 
                            "type": "note", 
                            "channel": 0
                        }
                    ]
                ], 
                [
                    30055, 
                    [
                        {
                            "pitch": 75, 
                            "t0": 30055, 
                            "v": 53, 
                            "dur": 67, 
                            "type": "note", 
                            "channel": 0
                        }
                    ]
                ], 
                [
                    30061, 
                    [
                        {
                            "pitch": 46, 
                            "t0": 30061, 
                            "v": 40, 
                            "dur": 192, 
                            "type": "note", 
                            "channel": 0
                        }
                    ]
                ], 
                [
                    30174, 
                    [
                        {
                            "pitch": 77, 
                            "t0": 30174, 
                            "v": 51, 
                            "dur": 90, 
                            "type": "note", 
                            "channel": 0
                        }
                    ]
                ], 
                [
                    30288, 
                    [
                        {
                            "pitch": 79, 
                            "t0": 30288, 
                            "v": 55, 
                            "dur": 140, 
                            "type": "note", 
                            "channel": 0
                        }
                    ]
                ], 
                [
                    30292, 
                    [
                        {
                            "pitch": 39, 
                            "t0": 30292, 
                            "v": 42, 
                            "dur": 149, 
                            "type": "note", 
                            "channel": 0
                        }
                    ]
                ], 
                [
                    30398, 
                    [
                        {
                            "pitch": 78, 
                            "t0": 30398, 
                            "v": 54, 
                            "dur": 91, 
                            "type": "note", 
                            "channel": 0
                        }
                    ]
                ], 
                [
                    30515, 
                    [
                        {
                            "pitch": 76, 
                            "t0": 30515, 
                            "v": 47, 
                            "dur": 103, 
                            "type": "note", 
                            "channel": 0
                        }
                    ]
                ], 
                [
                    30528, 
                    [
                        {
                            "pitch": 48, 
                            "t0": 30528, 
                            "v": 39, 
                            "dur": 103, 
                            "type": "note", 
                            "channel": 0
                        }
                    ]
                ], 
                [
                    30631, 
                    [
                        {
                            "pitch": 79, 
                            "t0": 30631, 
                            "v": 54, 
                            "dur": 61, 
                            "type": "note", 
                            "channel": 0
                        }
                    ]
                ], 
                [
                    30756, 
                    [
                        {
                            "pitch": 78, 
                            "t0": 30756, 
                            "v": 50, 
                            "dur": 117, 
                            "type": "note", 
                            "channel": 0
                        }
                    ]
                ], 
                [
                    30770, 
                    [
                        {
                            "pitch": 50, 
                            "t0": 30770, 
                            "v": 50, 
                            "dur": 40, 
                            "type": "note", 
                            "channel": 0
                        }
                    ]
                ], 
                [
                    30877, 
                    [
                        {
                            "pitch": 76, 
                            "t0": 30877, 
                            "v": 36, 
                            "dur": 110, 
                            "type": "note", 
                            "channel": 0
                        }
                    ]
                ], 
                [
                    31024, 
                    [
                        {
                            "pitch": 74, 
                            "t0": 31024, 
                            "v": 39, 
                            "dur": 78, 
                            "type": "note", 
                            "channel": 0
                        }
                    ]
                ], 
                [
                    31033, 
                    [
                        {
                            "pitch": 62, 
                            "t0": 31033, 
                            "v": 64, 
                            "dur": 244, 
                            "type": "note", 
                            "channel": 0
                        }
                    ]
                ], 
                [
                    31147, 
                    [
                        {
                            "pitch": 72, 
                            "t0": 31147, 
                            "v": 44, 
                            "dur": 113, 
                            "type": "note", 
                            "channel": 0
                        }
                    ]
                ], 
                [
                    31269, 
                    [
                        {
                            "pitch": 70, 
                            "t0": 31269, 
                            "v": 32, 
                            "dur": 125, 
                            "type": "note", 
                            "channel": 0
                        }
                    ]
                ], 
                [
                    31277, 
                    [
                        {
                            "pitch": 63, 
                            "t0": 31277, 
                            "v": 66, 
                            "dur": 226, 
                            "type": "note", 
                            "channel": 0
                        }
                    ]
                ], 
                [
                    31394, 
                    [
                        {
                            "pitch": 69, 
                            "t0": 31394, 
                            "v": 43, 
                            "dur": 109, 
                            "type": "note", 
                            "channel": 0
                        }
                    ]
                ], 
                [
                    31526, 
                    [
                        {
                            "pitch": 70, 
                            "t0": 31526, 
                            "v": 50, 
                            "dur": 141, 
                            "type": "note", 
                            "channel": 0
                        }
                    ]
                ], 
                [
                    31533, 
                    [
                        {
                            "pitch": 62, 
                            "t0": 31533, 
                            "v": 42, 
                            "dur": 92, 
                            "type": "note", 
                            "channel": 0
                        }
                    ]
                ], 
                [
                    31662, 
                    [
                        {
                            "pitch": 72, 
                            "t0": 31662, 
                            "v": 44, 
                            "dur": 119, 
                            "type": "note", 
                            "channel": 0
                        }
                    ]
                ], 
                [
                    31781, 
                    [
                        {
                            "pitch": 67, 
                            "t0": 31781, 
                            "v": 54, 
                            "dur": 190, 
                            "type": "note", 
                            "channel": 0
                        }
                    ]
                ], 
                [
                    31793, 
                    [
                        {
                            "pitch": 74, 
                            "t0": 31793, 
                            "v": 46, 
                            "dur": 48, 
                            "type": "note", 
                            "channel": 0
                        }
                    ]
                ], 
                [
                    31923, 
                    [
                        {
                            "pitch": 55, 
                            "t0": 31923, 
                            "v": 45, 
                            "dur": 54, 
                            "type": "note", 
                            "channel": 0
                        }
                    ]
                ], 
                [
                    32022, 
                    [
                        {
                            "pitch": 79, 
                            "t0": 32022, 
                            "v": 81, 
                            "dur": 495, 
                            "type": "note", 
                            "channel": 0
                        }
                    ]
                ], 
                [
                    32038, 
                    [
                        {
                            "pitch": 51, 
                            "t0": 32038, 
                            "v": 55, 
                            "dur": 147, 
                            "type": "note", 
                            "channel": 0
                        }, 
                        {
                            "pitch": 58, 
                            "t0": 32038, 
                            "v": 43, 
                            "dur": 178, 
                            "type": "note", 
                            "channel": 0
                        }
                    ]
                ], 
                [
                    32161, 
                    [
                        {
                            "pitch": 55, 
                            "t0": 32161, 
                            "v": 57, 
                            "dur": 52, 
                            "type": "note", 
                            "channel": 0
                        }
                    ]
                ], 
                [
                    32292, 
                    [
                        {
                            "pitch": 57, 
                            "t0": 32292, 
                            "v": 64, 
                            "dur": 144, 
                            "type": "note", 
                            "channel": 0
                        }
                    ]
                ], 
                [
                    32300, 
                    [
                        {
                            "pitch": 48, 
                            "t0": 32300, 
                            "v": 48, 
                            "dur": 111, 
                            "type": "note", 
                            "channel": 0
                        }
                    ]
                ], 
                [
                    32547, 
                    [
                        {
                            "pitch": 72, 
                            "t0": 32547, 
                            "v": 71, 
                            "dur": 148, 
                            "type": "note", 
                            "channel": 0
                        }
                    ]
                ], 
                [
                    32551, 
                    [
                        {
                            "pitch": 66, 
                            "t0": 32551, 
                            "v": 61, 
                            "dur": 88, 
                            "type": "note", 
                            "channel": 0
                        }
                    ]
                ], 
                [
                    32662, 
                    [
                        {
                            "pitch": 64, 
                            "t0": 32662, 
                            "v": 69, 
                            "dur": 97, 
                            "type": "note", 
                            "channel": 0
                        }
                    ]
                ], 
                [
                    32774, 
                    [
                        {
                            "pitch": 70, 
                            "t0": 32774, 
                            "v": 57, 
                            "dur": 220, 
                            "type": "note", 
                            "channel": 0
                        }
                    ]
                ], 
                [
                    32779, 
                    [
                        {
                            "pitch": 67, 
                            "t0": 32779, 
                            "v": 70, 
                            "dur": 111, 
                            "type": "note", 
                            "channel": 0
                        }
                    ]
                ], 
                [
                    32890, 
                    [
                        {
                            "pitch": 66, 
                            "t0": 32890, 
                            "v": 59, 
                            "dur": 114, 
                            "type": "note", 
                            "channel": 0
                        }
                    ]
                ], 
                [
                    33022, 
                    [
                        {
                            "pitch": 72, 
                            "t0": 33022, 
                            "v": 69, 
                            "dur": 39, 
                            "type": "note", 
                            "channel": 0
                        }
                    ]
                ], 
                [
                    33025, 
                    [
                        {
                            "pitch": 64, 
                            "t0": 33025, 
                            "v": 62, 
                            "dur": 52, 
                            "type": "note", 
                            "channel": 0
                        }
                    ]
                ], 
                [
                    33147, 
                    [
                        {
                            "pitch": 62, 
                            "t0": 33147, 
                            "v": 62, 
                            "dur": 78, 
                            "type": "note", 
                            "channel": 0
                        }
                    ]
                ], 
                [
                    33255, 
                    [
                        {
                            "pitch": 78, 
                            "t0": 33255, 
                            "v": 56, 
                            "dur": 100, 
                            "type": "note", 
                            "channel": 0
                        }
                    ]
                ], 
                [
                    33263, 
                    [
                        {
                            "pitch": 69, 
                            "t0": 33263, 
                            "v": 45, 
                            "dur": 79, 
                            "type": "note", 
                            "channel": 0
                        }
                    ]
                ], 
                [
                    33367, 
                    [
                        {
                            "pitch": 57, 
                            "t0": 33367, 
                            "v": 50, 
                            "dur": 73, 
                            "type": "note", 
                            "channel": 0
                        }
                    ]
                ], 
                [
                    33490, 
                    [
                        {
                            "pitch": 54, 
                            "t0": 33490, 
                            "v": 47, 
                            "dur": 92, 
                            "type": "note", 
                            "channel": 0
                        }
                    ]
                ], 
                [
                    33503, 
                    [
                        {
                            "pitch": 81, 
                            "t0": 33503, 
                            "v": 59, 
                            "dur": 242, 
                            "type": "note", 
                            "channel": 0
                        }
                    ]
                ], 
                [
                    33512, 
                    [
                        {
                            "pitch": 60, 
                            "t0": 33512, 
                            "v": 42, 
                            "dur": 139, 
                            "type": "note", 
                            "channel": 0
                        }
                    ]
                ], 
                [
                    33645, 
                    [
                        {
                            "pitch": 57, 
                            "t0": 33645, 
                            "v": 46, 
                            "dur": 59, 
                            "type": "note", 
                            "channel": 0
                        }
                    ]
                ], 
                [
                    33767, 
                    [
                        {
                            "pitch": 58, 
                            "t0": 33767, 
                            "v": 46, 
                            "dur": 262, 
                            "type": "note", 
                            "channel": 0
                        }
                    ]
                ], 
                [
                    33784, 
                    [
                        {
                            "pitch": 50, 
                            "t0": 33784, 
                            "v": 42, 
                            "dur": 223, 
                            "type": "note", 
                            "channel": 0
                        }
                    ]
                ], 
                [
                    34007, 
                    [
                        {
                            "pitch": 70, 
                            "t0": 34007, 
                            "v": 53, 
                            "dur": 120, 
                            "type": "note", 
                            "channel": 0
                        }
                    ]
                ], 
                [
                    34013, 
                    [
                        {
                            "pitch": 67, 
                            "t0": 34013, 
                            "v": 53, 
                            "dur": 59, 
                            "type": "note", 
                            "channel": 0
                        }
                    ]
                ], 
                [
                    34121, 
                    [
                        {
                            "pitch": 72, 
                            "t0": 34121, 
                            "v": 58, 
                            "dur": 93, 
                            "type": "note", 
                            "channel": 0
                        }
                    ]
                ], 
                [
                    34127, 
                    [
                        {
                            "pitch": 69, 
                            "t0": 34127, 
                            "v": 46, 
                            "dur": 59, 
                            "type": "note", 
                            "channel": 0
                        }
                    ]
                ], 
                [
                    34245, 
                    [
                        {
                            "pitch": 66, 
                            "t0": 34245, 
                            "v": 60, 
                            "dur": 60, 
                            "type": "note", 
                            "channel": 0
                        }
                    ]
                ], 
                [
                    34248, 
                    [
                        {
                            "pitch": 74, 
                            "t0": 34248, 
                            "v": 77, 
                            "dur": 105, 
                            "type": "note", 
                            "channel": 0
                        }
                    ]
                ], 
                [
                    34369, 
                    [
                        {
                            "pitch": 67, 
                            "t0": 34369, 
                            "v": 54, 
                            "dur": 54, 
                            "type": "note", 
                            "channel": 0
                        }
                    ]
                ], 
                [
                    34475, 
                    [
                        {
                            "pitch": 42, 
                            "t0": 34475, 
                            "v": 55, 
                            "dur": 48, 
                            "type": "note", 
                            "channel": 0
                        }
                    ]
                ], 
                [
                    34479, 
                    [
                        {
                            "pitch": 69, 
                            "t0": 34479, 
                            "v": 58, 
                            "dur": 57, 
                            "type": "note", 
                            "channel": 0
                        }
                    ]
                ], 
                [
                    34482, 
                    [
                        {
                            "pitch": 74, 
                            "t0": 34482, 
                            "v": 63, 
                            "dur": 82, 
                            "type": "note", 
                            "channel": 0
                        }
                    ]
                ], 
                [
                    34590, 
                    [
                        {
                            "pitch": 70, 
                            "t0": 34590, 
                            "v": 60, 
                            "dur": 66, 
                            "type": "note", 
                            "channel": 0
                        }
                    ]
                ], 
                [
                    34610, 
                    [
                        {
                            "pitch": 43, 
                            "t0": 34610, 
                            "v": 43, 
                            "dur": 46, 
                            "type": "note", 
                            "channel": 0
                        }
                    ]
                ], 
                [
                    34704, 
                    [
                        {
                            "pitch": 74, 
                            "t0": 34704, 
                            "v": 60, 
                            "dur": 111, 
                            "type": "note", 
                            "channel": 0
                        }, 
                        {
                            "pitch": 72, 
                            "t0": 34704, 
                            "v": 64, 
                            "dur": 147, 
                            "type": "note", 
                            "channel": 0
                        }
                    ]
                ], 
                [
                    34710, 
                    [
                        {
                            "pitch": 45, 
                            "t0": 34710, 
                            "v": 51, 
                            "dur": 70, 
                            "type": "note", 
                            "channel": 0
                        }
                    ]
                ], 
                [
                    34824, 
                    [
                        {
                            "pitch": 43, 
                            "t0": 34824, 
                            "v": 54, 
                            "dur": 56, 
                            "type": "note", 
                            "channel": 0
                        }, 
                        {
                            "pitch": 70, 
                            "t0": 34824, 
                            "v": 57, 
                            "dur": 97, 
                            "type": "note", 
                            "channel": 0
                        }
                    ]
                ], 
                [
                    34943, 
                    [
                        {
                            "pitch": 69, 
                            "t0": 34943, 
                            "v": 52, 
                            "dur": 53, 
                            "type": "note", 
                            "channel": 0
                        }, 
                        {
                            "pitch": 42, 
                            "t0": 34943, 
                            "v": 52, 
                            "dur": 53, 
                            "type": "note", 
                            "channel": 0
                        }
                    ]
                ], 
                [
                    34947, 
                    [
                        {
                            "pitch": 74, 
                            "t0": 34947, 
                            "v": 51, 
                            "dur": 92, 
                            "type": "note", 
                            "channel": 0
                        }
                    ]
                ], 
                [
                    35044, 
                    [
                        {
                            "pitch": 72, 
                            "t0": 35044, 
                            "v": 61, 
                            "dur": 44, 
                            "type": "note", 
                            "channel": 0
                        }
                    ]
                ], 
                [
                    35052, 
                    [
                        {
                            "pitch": 45, 
                            "t0": 35052, 
                            "v": 53, 
                            "dur": 51, 
                            "type": "note", 
                            "channel": 0
                        }
                    ]
                ], 
                [
                    35166, 
                    [
                        {
                            "pitch": 70, 
                            "t0": 35166, 
                            "v": 59, 
                            "dur": 75, 
                            "type": "note", 
                            "channel": 0
                        }
                    ]
                ], 
                [
                    35171, 
                    [
                        {
                            "pitch": 74, 
                            "t0": 35171, 
                            "v": 64, 
                            "dur": 127, 
                            "type": "note", 
                            "channel": 0
                        }
                    ]
                ], 
                [
                    35180, 
                    [
                        {
                            "pitch": 43, 
                            "t0": 35180, 
                            "v": 74, 
                            "dur": 320, 
                            "type": "note", 
                            "channel": 0
                        }
                    ]
                ], 
                [
                    35289, 
                    [
                        {
                            "pitch": 69, 
                            "t0": 35289, 
                            "v": 47, 
                            "dur": 81, 
                            "type": "note", 
                            "channel": 0
                        }, 
                        {
                            "pitch": 72, 
                            "t0": 35289, 
                            "v": 63, 
                            "dur": 100, 
                            "type": "note", 
                            "channel": 0
                        }
                    ]
                ], 
                [
                    35412, 
                    [
                        {
                            "pitch": 70, 
                            "t0": 35412, 
                            "v": 55, 
                            "dur": 108, 
                            "type": "note", 
                            "channel": 0
                        }
                    ]
                ], 
                [
                    35417, 
                    [
                        {
                            "pitch": 67, 
                            "t0": 35417, 
                            "v": 48, 
                            "dur": 61, 
                            "type": "note", 
                            "channel": 0
                        }
                    ]
                ], 
                [
                    35515, 
                    [
                        {
                            "pitch": 72, 
                            "t0": 35515, 
                            "v": 58, 
                            "dur": 125, 
                            "type": "note", 
                            "channel": 0
                        }
                    ]
                ], 
                [
                    35526, 
                    [
                        {
                            "pitch": 69, 
                            "t0": 35526, 
                            "v": 39, 
                            "dur": 63, 
                            "type": "note", 
                            "channel": 0
                        }
                    ]
                ], 
                [
                    35648, 
                    [
                        {
                            "pitch": 66, 
                            "t0": 35648, 
                            "v": 60, 
                            "dur": 64, 
                            "type": "note", 
                            "channel": 0
                        }, 
                        {
                            "pitch": 74, 
                            "t0": 35648, 
                            "v": 74, 
                            "dur": 92, 
                            "type": "note", 
                            "channel": 0
                        }
                    ]
                ], 
                [
                    35776, 
                    [
                        {
                            "pitch": 67, 
                            "t0": 35776, 
                            "v": 53, 
                            "dur": 53, 
                            "type": "note", 
                            "channel": 0
                        }
                    ]
                ], 
                [
                    35877, 
                    [
                        {
                            "pitch": 42, 
                            "t0": 35877, 
                            "v": 68, 
                            "dur": 81, 
                            "type": "note", 
                            "channel": 0
                        }
                    ]
                ], 
                [
                    35888, 
                    [
                        {
                            "pitch": 69, 
                            "t0": 35888, 
                            "v": 50, 
                            "dur": 52, 
                            "type": "note", 
                            "channel": 0
                        }
                    ]
                ], 
                [
                    35894, 
                    [
                        {
                            "pitch": 74, 
                            "t0": 35894, 
                            "v": 60, 
                            "dur": 46, 
                            "type": "note", 
                            "channel": 0
                        }
                    ]
                ], 
                [
                    35990, 
                    [
                        {
                            "pitch": 70, 
                            "t0": 35990, 
                            "v": 55, 
                            "dur": 60, 
                            "type": "note", 
                            "channel": 0
                        }
                    ]
                ], 
                [
                    35996, 
                    [
                        {
                            "pitch": 43, 
                            "t0": 35996, 
                            "v": 63, 
                            "dur": 70, 
                            "type": "note", 
                            "channel": 0
                        }
                    ]
                ], 
                [
                    36107, 
                    [
                        {
                            "pitch": 45, 
                            "t0": 36107, 
                            "v": 65, 
                            "dur": 90, 
                            "type": "note", 
                            "channel": 0
                        }
                    ]
                ], 
                [
                    36110, 
                    [
                        {
                            "pitch": 72, 
                            "t0": 36110, 
                            "v": 63, 
                            "dur": 107, 
                            "type": "note", 
                            "channel": 0
                        }, 
                        {
                            "pitch": 74, 
                            "t0": 36110, 
                            "v": 71, 
                            "dur": 115, 
                            "type": "note", 
                            "channel": 0
                        }
                    ]
                ], 
                [
                    36220, 
                    [
                        {
                            "pitch": 70, 
                            "t0": 36220, 
                            "v": 60, 
                            "dur": 94, 
                            "type": "note", 
                            "channel": 0
                        }
                    ]
                ], 
                [
                    36225, 
                    [
                        {
                            "pitch": 43, 
                            "t0": 36225, 
                            "v": 61, 
                            "dur": 64, 
                            "type": "note", 
                            "channel": 0
                        }
                    ]
                ], 
                [
                    36341, 
                    [
                        {
                            "pitch": 42, 
                            "t0": 36341, 
                            "v": 66, 
                            "dur": 48, 
                            "type": "note", 
                            "channel": 0
                        }
                    ]
                ], 
                [
                    36347, 
                    [
                        {
                            "pitch": 69, 
                            "t0": 36347, 
                            "v": 49, 
                            "dur": 56, 
                            "type": "note", 
                            "channel": 0
                        }
                    ]
                ], 
                [
                    36351, 
                    [
                        {
                            "pitch": 74, 
                            "t0": 36351, 
                            "v": 70, 
                            "dur": 49, 
                            "type": "note", 
                            "channel": 0
                        }
                    ]
                ], 
                [
                    36448, 
                    [
                        {
                            "pitch": 72, 
                            "t0": 36448, 
                            "v": 69, 
                            "dur": 58, 
                            "type": "note", 
                            "channel": 0
                        }
                    ]
                ], 
                [
                    36453, 
                    [
                        {
                            "pitch": 45, 
                            "t0": 36453, 
                            "v": 58, 
                            "dur": 42, 
                            "type": "note", 
                            "channel": 0
                        }
                    ]
                ], 
                [
                    36582, 
                    [
                        {
                            "pitch": 70, 
                            "t0": 36582, 
                            "v": 65, 
                            "dur": 89, 
                            "type": "note", 
                            "channel": 0
                        }
                    ]
                ], 
                [
                    36585, 
                    [
                        {
                            "pitch": 43, 
                            "t0": 36585, 
                            "v": 78, 
                            "dur": 36, 
                            "type": "note", 
                            "channel": 0
                        }, 
                        {
                            "pitch": 74, 
                            "t0": 36585, 
                            "v": 72, 
                            "dur": 103, 
                            "type": "note", 
                            "channel": 0
                        }
                    ]
                ], 
                [
                    36695, 
                    [
                        {
                            "pitch": 72, 
                            "t0": 36695, 
                            "v": 74, 
                            "dur": 134, 
                            "type": "note", 
                            "channel": 0
                        }
                    ]
                ], 
                [
                    36823, 
                    [
                        {
                            "pitch": 74, 
                            "t0": 36823, 
                            "v": 62, 
                            "dur": 123, 
                            "type": "note", 
                            "channel": 0
                        }
                    ]
                ], 
                [
                    36837, 
                    [
                        {
                            "pitch": 55, 
                            "t0": 36837, 
                            "v": 66, 
                            "dur": 215, 
                            "type": "note", 
                            "channel": 0
                        }
                    ]
                ], 
                [
                    36952, 
                    [
                        {
                            "pitch": 75, 
                            "t0": 36952, 
                            "v": 52, 
                            "dur": 139, 
                            "type": "note", 
                            "channel": 0
                        }
                    ]
                ], 
                [
                    37081, 
                    [
                        {
                            "pitch": 58, 
                            "t0": 37081, 
                            "v": 55, 
                            "dur": 267, 
                            "type": "note", 
                            "channel": 0
                        }
                    ]
                ], 
                [
                    37088, 
                    [
                        {
                            "pitch": 74, 
                            "t0": 37088, 
                            "v": 52, 
                            "dur": 103, 
                            "type": "note", 
                            "channel": 0
                        }
                    ]
                ], 
                [
                    37208, 
                    [
                        {
                            "pitch": 72, 
                            "t0": 37208, 
                            "v": 42, 
                            "dur": 125, 
                            "type": "note", 
                            "channel": 0
                        }
                    ]
                ], 
                [
                    37325, 
                    [
                        {
                            "pitch": 70, 
                            "t0": 37325, 
                            "v": 46, 
                            "dur": 132, 
                            "type": "note", 
                            "channel": 0
                        }
                    ]
                ], 
                [
                    37333, 
                    [
                        {
                            "pitch": 55, 
                            "t0": 37333, 
                            "v": 68, 
                            "dur": 226, 
                            "type": "note", 
                            "channel": 0
                        }
                    ]
                ], 
                [
                    37440, 
                    [
                        {
                            "pitch": 68, 
                            "t0": 37440, 
                            "v": 47, 
                            "dur": 128, 
                            "type": "note", 
                            "channel": 0
                        }
                    ]
                ], 
                [
                    37574, 
                    [
                        {
                            "pitch": 67, 
                            "t0": 37574, 
                            "v": 58, 
                            "dur": 133, 
                            "type": "note", 
                            "channel": 0
                        }
                    ]
                ], 
                [
                    37584, 
                    [
                        {
                            "pitch": 60, 
                            "t0": 37584, 
                            "v": 55, 
                            "dur": 118, 
                            "type": "note", 
                            "channel": 0
                        }
                    ]
                ], 
                [
                    37693, 
                    [
                        {
                            "pitch": 75, 
                            "t0": 37693, 
                            "v": 50, 
                            "dur": 78, 
                            "type": "note", 
                            "channel": 0
                        }
                    ]
                ], 
                [
                    37821, 
                    [
                        {
                            "pitch": 51, 
                            "t0": 37821, 
                            "v": 62, 
                            "dur": 243, 
                            "type": "note", 
                            "channel": 0
                        }
                    ]
                ], 
                [
                    37824, 
                    [
                        {
                            "pitch": 72, 
                            "t0": 37824, 
                            "v": 57, 
                            "dur": 482, 
                            "type": "note", 
                            "channel": 0
                        }
                    ]
                ], 
                [
                    37933, 
                    [
                        {
                            "pitch": 75, 
                            "t0": 37933, 
                            "v": 67, 
                            "dur": 102, 
                            "type": "note", 
                            "channel": 0
                        }
                    ]
                ], 
                [
                    38077, 
                    [
                        {
                            "pitch": 77, 
                            "t0": 38077, 
                            "v": 73, 
                            "dur": 223, 
                            "type": "note", 
                            "channel": 0
                        }
                    ]
                ], 
                [
                    38091, 
                    [
                        {
                            "pitch": 50, 
                            "t0": 38091, 
                            "v": 55, 
                            "dur": 118, 
                            "type": "note", 
                            "channel": 0
                        }
                    ]
                ], 
                [
                    38333, 
                    [
                        {
                            "pitch": 65, 
                            "t0": 38333, 
                            "v": 61, 
                            "dur": 206, 
                            "type": "note", 
                            "channel": 0
                        }
                    ]
                ], 
                [
                    38344, 
                    [
                        {
                            "pitch": 59, 
                            "t0": 38344, 
                            "v": 50, 
                            "dur": 74, 
                            "type": "note", 
                            "channel": 0
                        }
                    ]
                ], 
                [
                    38454, 
                    [
                        {
                            "pitch": 57, 
                            "t0": 38454, 
                            "v": 54, 
                            "dur": 97, 
                            "type": "note", 
                            "channel": 0
                        }
                    ]
                ], 
                [
                    38562, 
                    [
                        {
                            "pitch": 63, 
                            "t0": 38562, 
                            "v": 61, 
                            "dur": 190, 
                            "type": "note", 
                            "channel": 0
                        }
                    ]
                ], 
                [
                    38565, 
                    [
                        {
                            "pitch": 60, 
                            "t0": 38565, 
                            "v": 68, 
                            "dur": 119, 
                            "type": "note", 
                            "channel": 0
                        }
                    ]
                ], 
                [
                    38693, 
                    [
                        {
                            "pitch": 59, 
                            "t0": 38693, 
                            "v": 71, 
                            "dur": 111, 
                            "type": "note", 
                            "channel": 0
                        }
                    ]
                ], 
                [
                    38804, 
                    [
                        {
                            "pitch": 65, 
                            "t0": 38804, 
                            "v": 50, 
                            "dur": 125, 
                            "type": "note", 
                            "channel": 0
                        }
                    ]
                ], 
                [
                    38808, 
                    [
                        {
                            "pitch": 57, 
                            "t0": 38808, 
                            "v": 70, 
                            "dur": 108, 
                            "type": "note", 
                            "channel": 0
                        }
                    ]
                ], 
                [
                    38919, 
                    [
                        {
                            "pitch": 55, 
                            "t0": 38919, 
                            "v": 76, 
                            "dur": 136, 
                            "type": "note", 
                            "channel": 0
                        }
                    ]
                ], 
                [
                    39055, 
                    [
                        {
                            "pitch": 71, 
                            "t0": 39055, 
                            "v": 68, 
                            "dur": 145, 
                            "type": "note", 
                            "channel": 0
                        }
                    ]
                ], 
                [
                    39060, 
                    [
                        {
                            "pitch": 62, 
                            "t0": 39060, 
                            "v": 58, 
                            "dur": 151, 
                            "type": "note", 
                            "channel": 0
                        }
                    ]
                ], 
                [
                    39184, 
                    [
                        {
                            "pitch": 77, 
                            "t0": 39184, 
                            "v": 65, 
                            "dur": 91, 
                            "type": "note", 
                            "channel": 0
                        }
                    ]
                ], 
                [
                    39301, 
                    [
                        {
                            "pitch": 74, 
                            "t0": 39301, 
                            "v": 63, 
                            "dur": 180, 
                            "type": "note", 
                            "channel": 0
                        }, 
                        {
                            "pitch": 53, 
                            "t0": 39301, 
                            "v": 73, 
                            "dur": 206, 
                            "type": "note", 
                            "channel": 0
                        }
                    ]
                ], 
                [
                    39426, 
                    [
                        {
                            "pitch": 77, 
                            "t0": 39426, 
                            "v": 59, 
                            "dur": 105, 
                            "type": "note", 
                            "channel": 0
                        }
                    ]
                ], 
                [
                    39560, 
                    [
                        {
                            "pitch": 79, 
                            "t0": 39560, 
                            "v": 80, 
                            "dur": 108, 
                            "type": "note", 
                            "channel": 0
                        }
                    ]
                ], 
                [
                    39577, 
                    [
                        {
                            "pitch": 51, 
                            "t0": 39577, 
                            "v": 55, 
                            "dur": 105, 
                            "type": "note", 
                            "channel": 0
                        }
                    ]
                ], 
                [
                    39816, 
                    [
                        {
                            "pitch": 63, 
                            "t0": 39816, 
                            "v": 66, 
                            "dur": 102, 
                            "type": "note", 
                            "channel": 0
                        }
                    ]
                ], 
                [
                    39839, 
                    [
                        {
                            "pitch": 60, 
                            "t0": 39839, 
                            "v": 42, 
                            "dur": 49, 
                            "type": "note", 
                            "channel": 0
                        }
                    ]
                ], 
                [
                    39930, 
                    [
                        {
                            "pitch": 65, 
                            "t0": 39930, 
                            "v": 68, 
                            "dur": 109, 
                            "type": "note", 
                            "channel": 0
                        }
                    ]
                ], 
                [
                    39949, 
                    [
                        {
                            "pitch": 62, 
                            "t0": 39949, 
                            "v": 50, 
                            "dur": 47, 
                            "type": "note", 
                            "channel": 0
                        }
                    ]
                ], 
                [
                    40050, 
                    [
                        {
                            "pitch": 67, 
                            "t0": 40050, 
                            "v": 78, 
                            "dur": 64, 
                            "type": "note", 
                            "channel": 0
                        }
                    ]
                ], 
                [
                    40066, 
                    [
                        {
                            "pitch": 59, 
                            "t0": 40066, 
                            "v": 46, 
                            "dur": 117, 
                            "type": "note", 
                            "channel": 0
                        }
                    ]
                ], 
                [
                    40192, 
                    [
                        {
                            "pitch": 60, 
                            "t0": 40192, 
                            "v": 42, 
                            "dur": 86, 
                            "type": "note", 
                            "channel": 0
                        }
                    ]
                ], 
                [
                    40284, 
                    [
                        {
                            "pitch": 67, 
                            "t0": 40284, 
                            "v": 68, 
                            "dur": 58, 
                            "type": "note", 
                            "channel": 0
                        }
                    ]
                ], 
                [
                    40292, 
                    [
                        {
                            "pitch": 71, 
                            "t0": 40292, 
                            "v": 64, 
                            "dur": 50, 
                            "type": "note", 
                            "channel": 0
                        }
                    ]
                ], 
                [
                    40306, 
                    [
                        {
                            "pitch": 62, 
                            "t0": 40306, 
                            "v": 57, 
                            "dur": 45, 
                            "type": "note", 
                            "channel": 0
                        }
                    ]
                ], 
                [
                    40403, 
                    [
                        {
                            "pitch": 72, 
                            "t0": 40403, 
                            "v": 52, 
                            "dur": 50, 
                            "type": "note", 
                            "channel": 0
                        }
                    ]
                ], 
                [
                    40417, 
                    [
                        {
                            "pitch": 63, 
                            "t0": 40417, 
                            "v": 47, 
                            "dur": 72, 
                            "type": "note", 
                            "channel": 0
                        }
                    ]
                ], 
                [
                    40538, 
                    [
                        {
                            "pitch": 67, 
                            "t0": 40538, 
                            "v": 69, 
                            "dur": 66, 
                            "type": "note", 
                            "channel": 0
                        }
                    ]
                ], 
                [
                    40541, 
                    [
                        {
                            "pitch": 74, 
                            "t0": 40541, 
                            "v": 69, 
                            "dur": 54, 
                            "type": "note", 
                            "channel": 0
                        }
                    ]
                ], 
                [
                    40548, 
                    [
                        {
                            "pitch": 65, 
                            "t0": 40548, 
                            "v": 51, 
                            "dur": 61, 
                            "type": "note", 
                            "channel": 0
                        }
                    ]
                ], 
                [
                    40652, 
                    [
                        {
                            "pitch": 63, 
                            "t0": 40652, 
                            "v": 53, 
                            "dur": 80, 
                            "type": "note", 
                            "channel": 0
                        }
                    ]
                ], 
                [
                    40659, 
                    [
                        {
                            "pitch": 72, 
                            "t0": 40659, 
                            "v": 53, 
                            "dur": 57, 
                            "type": "note", 
                            "channel": 0
                        }
                    ]
                ], 
                [
                    40777, 
                    [
                        {
                            "pitch": 71, 
                            "t0": 40777, 
                            "v": 64, 
                            "dur": 55, 
                            "type": "note", 
                            "channel": 0
                        }
                    ]
                ], 
                [
                    40780, 
                    [
                        {
                            "pitch": 67, 
                            "t0": 40780, 
                            "v": 43, 
                            "dur": 64, 
                            "type": "note", 
                            "channel": 0
                        }
                    ]
                ], 
                [
                    40794, 
                    [
                        {
                            "pitch": 62, 
                            "t0": 40794, 
                            "v": 31, 
                            "dur": 47, 
                            "type": "note", 
                            "channel": 0
                        }
                    ]
                ], 
                [
                    40880, 
                    [
                        {
                            "pitch": 74, 
                            "t0": 40880, 
                            "v": 63, 
                            "dur": 33, 
                            "type": "note", 
                            "channel": 0
                        }
                    ]
                ], 
                [
                    40896, 
                    [
                        {
                            "pitch": 65, 
                            "t0": 40896, 
                            "v": 41, 
                            "dur": 46, 
                            "type": "note", 
                            "channel": 0
                        }
                    ]
                ], 
                [
                    41000, 
                    [
                        {
                            "pitch": 72, 
                            "t0": 41000, 
                            "v": 67, 
                            "dur": 375, 
                            "type": "note", 
                            "channel": 0
                        }
                    ]
                ], 
                [
                    41006, 
                    [
                        {
                            "pitch": 67, 
                            "t0": 41006, 
                            "v": 63, 
                            "dur": 96, 
                            "type": "note", 
                            "channel": 0
                        }
                    ]
                ], 
                [
                    41013, 
                    [
                        {
                            "pitch": 63, 
                            "t0": 41013, 
                            "v": 57, 
                            "dur": 79, 
                            "type": "note", 
                            "channel": 0
                        }
                    ]
                ], 
                [
                    41120, 
                    [
                        {
                            "pitch": 65, 
                            "t0": 41120, 
                            "v": 51, 
                            "dur": 106, 
                            "type": "note", 
                            "channel": 0
                        }
                    ]
                ], 
                [
                    41141, 
                    [
                        {
                            "pitch": 62, 
                            "t0": 41141, 
                            "v": 34, 
                            "dur": 56, 
                            "type": "note", 
                            "channel": 0
                        }
                    ]
                ], 
                [
                    41226, 
                    [
                        {
                            "pitch": 63, 
                            "t0": 41226, 
                            "v": 69, 
                            "dur": 99, 
                            "type": "note", 
                            "channel": 0
                        }
                    ]
                ], 
                [
                    41242, 
                    [
                        {
                            "pitch": 60, 
                            "t0": 41242, 
                            "v": 50, 
                            "dur": 55, 
                            "type": "note", 
                            "channel": 0
                        }
                    ]
                ], 
                [
                    41348, 
                    [
                        {
                            "pitch": 65, 
                            "t0": 41348, 
                            "v": 63, 
                            "dur": 117, 
                            "type": "note", 
                            "channel": 0
                        }
                    ]
                ], 
                [
                    41357, 
                    [
                        {
                            "pitch": 62, 
                            "t0": 41357, 
                            "v": 64, 
                            "dur": 61, 
                            "type": "note", 
                            "channel": 0
                        }
                    ]
                ], 
                [
                    41478, 
                    [
                        {
                            "pitch": 67, 
                            "t0": 41478, 
                            "v": 70, 
                            "dur": 93, 
                            "type": "note", 
                            "channel": 0
                        }
                    ]
                ], 
                [
                    41492, 
                    [
                        {
                            "pitch": 59, 
                            "t0": 41492, 
                            "v": 48, 
                            "dur": 87, 
                            "type": "note", 
                            "channel": 0
                        }
                    ]
                ], 
                [
                    41616, 
                    [
                        {
                            "pitch": 60, 
                            "t0": 41616, 
                            "v": 50, 
                            "dur": 49, 
                            "type": "note", 
                            "channel": 0
                        }
                    ]
                ], 
                [
                    41713, 
                    [
                        {
                            "pitch": 67, 
                            "t0": 41713, 
                            "v": 48, 
                            "dur": 55, 
                            "type": "note", 
                            "channel": 0
                        }
                    ]
                ], 
                [
                    41718, 
                    [
                        {
                            "pitch": 62, 
                            "t0": 41718, 
                            "v": 47, 
                            "dur": 50, 
                            "type": "note", 
                            "channel": 0
                        }, 
                        {
                            "pitch": 71, 
                            "t0": 41718, 
                            "v": 59, 
                            "dur": 54, 
                            "type": "note", 
                            "channel": 0
                        }
                    ]
                ], 
                [
                    41819, 
                    [
                        {
                            "pitch": 63, 
                            "t0": 41819, 
                            "v": 48, 
                            "dur": 58, 
                            "type": "note", 
                            "channel": 0
                        }
                    ]
                ], 
                [
                    41840, 
                    [
                        {
                            "pitch": 72, 
                            "t0": 41840, 
                            "v": 39, 
                            "dur": 63, 
                            "type": "note", 
                            "channel": 0
                        }
                    ]
                ], 
                [
                    41953, 
                    [
                        {
                            "pitch": 65, 
                            "t0": 41953, 
                            "v": 44, 
                            "dur": 55, 
                            "type": "note", 
                            "channel": 0
                        }
                    ]
                ], 
                [
                    41961, 
                    [
                        {
                            "pitch": 67, 
                            "t0": 41961, 
                            "v": 41, 
                            "dur": 58, 
                            "type": "note", 
                            "channel": 0
                        }
                    ]
                ], 
                [
                    41964, 
                    [
                        {
                            "pitch": 74, 
                            "t0": 41964, 
                            "v": 43, 
                            "dur": 49, 
                            "type": "note", 
                            "channel": 0
                        }
                    ]
                ], 
                [
                    42058, 
                    [
                        {
                            "pitch": 72, 
                            "t0": 42058, 
                            "v": 46, 
                            "dur": 59, 
                            "type": "note", 
                            "channel": 0
                        }
                    ]
                ], 
                [
                    42070, 
                    [
                        {
                            "pitch": 63, 
                            "t0": 42070, 
                            "v": 47, 
                            "dur": 50, 
                            "type": "note", 
                            "channel": 0
                        }
                    ]
                ], 
                [
                    42187, 
                    [
                        {
                            "pitch": 67, 
                            "t0": 42187, 
                            "v": 38, 
                            "dur": 64, 
                            "type": "note", 
                            "channel": 0
                        }
                    ]
                ], 
                [
                    42194, 
                    [
                        {
                            "pitch": 71, 
                            "t0": 42194, 
                            "v": 45, 
                            "dur": 60, 
                            "type": "note", 
                            "channel": 0
                        }
                    ]
                ], 
                [
                    42203, 
                    [
                        {
                            "pitch": 62, 
                            "t0": 42203, 
                            "v": 24, 
                            "dur": 51, 
                            "type": "note", 
                            "channel": 0
                        }
                    ]
                ], 
                [
                    42290, 
                    [
                        {
                            "pitch": 65, 
                            "t0": 42290, 
                            "v": 33, 
                            "dur": 55, 
                            "type": "note", 
                            "channel": 0
                        }
                    ]
                ], 
                [
                    42293, 
                    [
                        {
                            "pitch": 74, 
                            "t0": 42293, 
                            "v": 44, 
                            "dur": 41, 
                            "type": "note", 
                            "channel": 0
                        }
                    ]
                ], 
                [
                    42412, 
                    [
                        {
                            "pitch": 67, 
                            "t0": 42412, 
                            "v": 41, 
                            "dur": 195, 
                            "type": "note", 
                            "channel": 0
                        }
                    ]
                ], 
                [
                    42418, 
                    [
                        {
                            "pitch": 63, 
                            "t0": 42418, 
                            "v": 45, 
                            "dur": 53, 
                            "type": "note", 
                            "channel": 0
                        }, 
                        {
                            "pitch": 72, 
                            "t0": 42418, 
                            "v": 45, 
                            "dur": 144, 
                            "type": "note", 
                            "channel": 0
                        }
                    ]
                ], 
                [
                    42537, 
                    [
                        {
                            "pitch": 62, 
                            "t0": 42537, 
                            "v": 42, 
                            "dur": 86, 
                            "type": "note", 
                            "channel": 0
                        }
                    ]
                ], 
                [
                    42638, 
                    [
                        {
                            "pitch": 75, 
                            "t0": 42638, 
                            "v": 61, 
                            "dur": 267, 
                            "type": "note", 
                            "channel": 0
                        }
                    ]
                ], 
                [
                    42663, 
                    [
                        {
                            "pitch": 60, 
                            "t0": 42663, 
                            "v": 42, 
                            "dur": 91, 
                            "type": "note", 
                            "channel": 0
                        }
                    ]
                ], 
                [
                    42765, 
                    [
                        {
                            "pitch": 58, 
                            "t0": 42765, 
                            "v": 49, 
                            "dur": 90, 
                            "type": "note", 
                            "channel": 0
                        }
                    ]
                ], 
                [
                    42889, 
                    [
                        {
                            "pitch": 74, 
                            "t0": 42889, 
                            "v": 77, 
                            "dur": 261, 
                            "type": "note", 
                            "channel": 0
                        }
                    ]
                ], 
                [
                    42896, 
                    [
                        {
                            "pitch": 57, 
                            "t0": 42896, 
                            "v": 48, 
                            "dur": 123, 
                            "type": "note", 
                            "channel": 0
                        }
                    ]
                ], 
                [
                    43011, 
                    [
                        {
                            "pitch": 58, 
                            "t0": 43011, 
                            "v": 53, 
                            "dur": 120, 
                            "type": "note", 
                            "channel": 0
                        }
                    ]
                ], 
                [
                    43125, 
                    [
                        {
                            "pitch": 75, 
                            "t0": 43125, 
                            "v": 70, 
                            "dur": 223, 
                            "type": "note", 
                            "channel": 0
                        }
                    ]
                ], 
                [
                    43136, 
                    [
                        {
                            "pitch": 60, 
                            "t0": 43136, 
                            "v": 59, 
                            "dur": 54, 
                            "type": "note", 
                            "channel": 0
                        }
                    ]
                ], 
                [
                    43237, 
                    [
                        {
                            "pitch": 62, 
                            "t0": 43237, 
                            "v": 57, 
                            "dur": 83, 
                            "type": "note", 
                            "channel": 0
                        }
                    ]
                ], 
                [
                    43353, 
                    [
                        {
                            "pitch": 63, 
                            "t0": 43353, 
                            "v": 70, 
                            "dur": 73, 
                            "type": "note", 
                            "channel": 0
                        }, 
                        {
                            "pitch": 72, 
                            "t0": 43353, 
                            "v": 74, 
                            "dur": 165, 
                            "type": "note", 
                            "channel": 0
                        }
                    ]
                ], 
                [
                    43470, 
                    [
                        {
                            "pitch": 62, 
                            "t0": 43470, 
                            "v": 48, 
                            "dur": 54, 
                            "type": "note", 
                            "channel": 0
                        }
                    ]
                ], 
                [
                    43588, 
                    [
                        {
                            "pitch": 75, 
                            "t0": 43588, 
                            "v": 62, 
                            "dur": 136, 
                            "type": "note", 
                            "channel": 0
                        }
                    ]
                ], 
                [
                    43593, 
                    [
                        {
                            "pitch": 60, 
                            "t0": 43593, 
                            "v": 38, 
                            "dur": 73, 
                            "type": "note", 
                            "channel": 0
                        }, 
                        {
                            "pitch": 81, 
                            "t0": 43593, 
                            "v": 73, 
                            "dur": 167, 
                            "type": "note", 
                            "channel": 0
                        }
                    ]
                ], 
                [
                    43699, 
                    [
                        {
                            "pitch": 63, 
                            "t0": 43699, 
                            "v": 54, 
                            "dur": 69, 
                            "type": "note", 
                            "channel": 0
                        }
                    ]
                ], 
                [
                    43833, 
                    [
                        {
                            "pitch": 62, 
                            "t0": 43833, 
                            "v": 36, 
                            "dur": 78, 
                            "type": "note", 
                            "channel": 0
                        }
                    ]
                ], 
                [
                    43836, 
                    [
                        {
                            "pitch": 82, 
                            "t0": 43836, 
                            "v": 48, 
                            "dur": 195, 
                            "type": "note", 
                            "channel": 0
                        }
                    ]
                ], 
                [
                    43846, 
                    [
                        {
                            "pitch": 77, 
                            "t0": 43846, 
                            "v": 47, 
                            "dur": 95, 
                            "type": "note", 
                            "channel": 0
                        }
                    ]
                ], 
                [
                    43969, 
                    [
                        {
                            "pitch": 60, 
                            "t0": 43969, 
                            "v": 34, 
                            "dur": 62, 
                            "type": "note", 
                            "channel": 0
                        }
                    ]
                ], 
                [
                    44063, 
                    [
                        {
                            "pitch": 58, 
                            "t0": 44063, 
                            "v": 41, 
                            "dur": 117, 
                            "type": "note", 
                            "channel": 0
                        }
                    ]
                ], 
                [
                    44073, 
                    [
                        {
                            "pitch": 74, 
                            "t0": 44073, 
                            "v": 56, 
                            "dur": 224, 
                            "type": "note", 
                            "channel": 0
                        }
                    ]
                ], 
                [
                    44184, 
                    [
                        {
                            "pitch": 57, 
                            "t0": 44184, 
                            "v": 44, 
                            "dur": 113, 
                            "type": "note", 
                            "channel": 0
                        }
                    ]
                ], 
                [
                    44301, 
                    [
                        {
                            "pitch": 72, 
                            "t0": 44301, 
                            "v": 67, 
                            "dur": 293, 
                            "type": "note", 
                            "channel": 0
                        }
                    ]
                ], 
                [
                    44309, 
                    [
                        {
                            "pitch": 55, 
                            "t0": 44309, 
                            "v": 67, 
                            "dur": 137, 
                            "type": "note", 
                            "channel": 0
                        }
                    ]
                ], 
                [
                    44424, 
                    [
                        {
                            "pitch": 57, 
                            "t0": 44424, 
                            "v": 56, 
                            "dur": 122, 
                            "type": "note", 
                            "channel": 0
                        }
                    ]
                ], 
                [
                    44529, 
                    [
                        {
                            "pitch": 58, 
                            "t0": 44529, 
                            "v": 65, 
                            "dur": 114, 
                            "type": "note", 
                            "channel": 0
                        }
                    ]
                ], 
                [
                    44538, 
                    [
                        {
                            "pitch": 74, 
                            "t0": 44538, 
                            "v": 76, 
                            "dur": 211, 
                            "type": "note", 
                            "channel": 0
                        }
                    ]
                ], 
                [
                    44654, 
                    [
                        {
                            "pitch": 60, 
                            "t0": 44654, 
                            "v": 60, 
                            "dur": 95, 
                            "type": "note", 
                            "channel": 0
                        }
                    ]
                ], 
                [
                    44760, 
                    [
                        {
                            "pitch": 70, 
                            "t0": 44760, 
                            "v": 61, 
                            "dur": 195, 
                            "type": "note", 
                            "channel": 0
                        }
                    ]
                ], 
                [
                    44765, 
                    [
                        {
                            "pitch": 62, 
                            "t0": 44765, 
                            "v": 70, 
                            "dur": 67, 
                            "type": "note", 
                            "channel": 0
                        }
                    ]
                ], 
                [
                    44874, 
                    [
                        {
                            "pitch": 60, 
                            "t0": 44874, 
                            "v": 59, 
                            "dur": 98, 
                            "type": "note", 
                            "channel": 0
                        }
                    ]
                ], 
                [
                    44994, 
                    [
                        {
                            "pitch": 58, 
                            "t0": 44994, 
                            "v": 49, 
                            "dur": 95, 
                            "type": "note", 
                            "channel": 0
                        }, 
                        {
                            "pitch": 79, 
                            "t0": 44994, 
                            "v": 70, 
                            "dur": 239, 
                            "type": "note", 
                            "channel": 0
                        }
                    ]
                ], 
                [
                    44999, 
                    [
                        {
                            "pitch": 74, 
                            "t0": 44999, 
                            "v": 58, 
                            "dur": 45, 
                            "type": "note", 
                            "channel": 0
                        }
                    ]
                ], 
                [
                    45108, 
                    [
                        {
                            "pitch": 62, 
                            "t0": 45108, 
                            "v": 50, 
                            "dur": 79, 
                            "type": "note", 
                            "channel": 0
                        }
                    ]
                ], 
                [
                    45233, 
                    [
                        {
                            "pitch": 60, 
                            "t0": 45233, 
                            "v": 49, 
                            "dur": 59, 
                            "type": "note", 
                            "channel": 0
                        }
                    ]
                ], 
                [
                    45245, 
                    [
                        {
                            "pitch": 75, 
                            "t0": 45245, 
                            "v": 38, 
                            "dur": 75, 
                            "type": "note", 
                            "channel": 0
                        }, 
                        {
                            "pitch": 81, 
                            "t0": 45245, 
                            "v": 49, 
                            "dur": 178, 
                            "type": "note", 
                            "channel": 0
                        }
                    ]
                ], 
                [
                    45350, 
                    [
                        {
                            "pitch": 58, 
                            "t0": 45350, 
                            "v": 42, 
                            "dur": 90, 
                            "type": "note", 
                            "channel": 0
                        }
                    ]
                ], 
                [
                    45476, 
                    [
                        {
                            "pitch": 57, 
                            "t0": 45476, 
                            "v": 52, 
                            "dur": 103, 
                            "type": "note", 
                            "channel": 0
                        }, 
                        {
                            "pitch": 72, 
                            "t0": 45476, 
                            "v": 59, 
                            "dur": 234, 
                            "type": "note", 
                            "channel": 0
                        }
                    ]
                ], 
                [
                    45593, 
                    [
                        {
                            "pitch": 55, 
                            "t0": 45593, 
                            "v": 49, 
                            "dur": 73, 
                            "type": "note", 
                            "channel": 0
                        }
                    ]
                ], 
                [
                    45705, 
                    [
                        {
                            "pitch": 54, 
                            "t0": 45705, 
                            "v": 56, 
                            "dur": 136, 
                            "type": "note", 
                            "channel": 0
                        }, 
                        {
                            "pitch": 70, 
                            "t0": 45705, 
                            "v": 55, 
                            "dur": 253, 
                            "type": "note", 
                            "channel": 0
                        }
                    ]
                ], 
                [
                    45833, 
                    [
                        {
                            "pitch": 55, 
                            "t0": 45833, 
                            "v": 59, 
                            "dur": 72, 
                            "type": "note", 
                            "channel": 0
                        }
                    ]
                ], 
                [
                    45941, 
                    [
                        {
                            "pitch": 57, 
                            "t0": 45941, 
                            "v": 47, 
                            "dur": 100, 
                            "type": "note", 
                            "channel": 0
                        }, 
                        {
                            "pitch": 72, 
                            "t0": 45941, 
                            "v": 57, 
                            "dur": 204, 
                            "type": "note", 
                            "channel": 0
                        }
                    ]
                ], 
                [
                    46027, 
                    [
                        {
                            "pitch": 58, 
                            "t0": 46027, 
                            "v": 59, 
                            "dur": 118, 
                            "type": "note", 
                            "channel": 0
                        }
                    ]
                ], 
                [
                    46159, 
                    [
                        {
                            "pitch": 60, 
                            "t0": 46159, 
                            "v": 63, 
                            "dur": 63, 
                            "type": "note", 
                            "channel": 0
                        }, 
                        {
                            "pitch": 69, 
                            "t0": 46159, 
                            "v": 55, 
                            "dur": 204, 
                            "type": "note", 
                            "channel": 0
                        }
                    ]
                ], 
                [
                    46262, 
                    [
                        {
                            "pitch": 58, 
                            "t0": 46262, 
                            "v": 48, 
                            "dur": 111, 
                            "type": "note", 
                            "channel": 0
                        }
                    ]
                ], 
                [
                    46379, 
                    [
                        {
                            "pitch": 78, 
                            "t0": 46379, 
                            "v": 58, 
                            "dur": 251, 
                            "type": "note", 
                            "channel": 0
                        }
                    ]
                ], 
                [
                    46393, 
                    [
                        {
                            "pitch": 72, 
                            "t0": 46393, 
                            "v": 50, 
                            "dur": 75, 
                            "type": "note", 
                            "channel": 0
                        }
                    ]
                ], 
                [
                    46398, 
                    [
                        {
                            "pitch": 57, 
                            "t0": 46398, 
                            "v": 34, 
                            "dur": 81, 
                            "type": "note", 
                            "channel": 0
                        }
                    ]
                ], 
                [
                    46510, 
                    [
                        {
                            "pitch": 60, 
                            "t0": 46510, 
                            "v": 34, 
                            "dur": 128, 
                            "type": "note", 
                            "channel": 0
                        }
                    ]
                ], 
                [
                    46622, 
                    [
                        {
                            "pitch": 79, 
                            "t0": 46622, 
                            "v": 58, 
                            "dur": 135, 
                            "type": "note", 
                            "channel": 0
                        }
                    ]
                ], 
                [
                    46638, 
                    [
                        {
                            "pitch": 74, 
                            "t0": 46638, 
                            "v": 41, 
                            "dur": 70, 
                            "type": "note", 
                            "channel": 0
                        }
                    ]
                ], 
                [
                    46646, 
                    [
                        {
                            "pitch": 58, 
                            "t0": 46646, 
                            "v": 37, 
                            "dur": 72, 
                            "type": "note", 
                            "channel": 0
                        }
                    ]
                ], 
                [
                    46749, 
                    [
                        {
                            "pitch": 77, 
                            "t0": 46749, 
                            "v": 52, 
                            "dur": 123, 
                            "type": "note", 
                            "channel": 0
                        }
                    ]
                ], 
                [
                    46858, 
                    [
                        {
                            "pitch": 58, 
                            "t0": 46858, 
                            "v": 40, 
                            "dur": 193, 
                            "type": "note", 
                            "channel": 0
                        }
                    ]
                ], 
                [
                    46872, 
                    [
                        {
                            "pitch": 76, 
                            "t0": 46872, 
                            "v": 49, 
                            "dur": 108, 
                            "type": "note", 
                            "channel": 0
                        }
                    ]
                ], 
                [
                    46881, 
                    [
                        {
                            "pitch": 55, 
                            "t0": 46881, 
                            "v": 45, 
                            "dur": 214, 
                            "type": "note", 
                            "channel": 0
                        }
                    ]
                ], 
                [
                    46988, 
                    [
                        {
                            "pitch": 74, 
                            "t0": 46988, 
                            "v": 54, 
                            "dur": 107, 
                            "type": "note", 
                            "channel": 0
                        }
                    ]
                ], 
                [
                    47095, 
                    [
                        {
                            "pitch": 73, 
                            "t0": 47095, 
                            "v": 59, 
                            "dur": 125, 
                            "type": "note", 
                            "channel": 0
                        }
                    ]
                ], 
                [
                    47103, 
                    [
                        {
                            "pitch": 57, 
                            "t0": 47103, 
                            "v": 61, 
                            "dur": 184, 
                            "type": "note", 
                            "channel": 0
                        }
                    ]
                ], 
                [
                    47126, 
                    [
                        {
                            "pitch": 53, 
                            "t0": 47126, 
                            "v": 74, 
                            "dur": 211, 
                            "type": "note", 
                            "channel": 0
                        }
                    ]
                ], 
                [
                    47220, 
                    [
                        {
                            "pitch": 74, 
                            "t0": 47220, 
                            "v": 74, 
                            "dur": 100, 
                            "type": "note", 
                            "channel": 0
                        }
                    ]
                ], 
                [
                    47337, 
                    [
                        {
                            "pitch": 76, 
                            "t0": 47337, 
                            "v": 66, 
                            "dur": 109, 
                            "type": "note", 
                            "channel": 0
                        }
                    ]
                ], 
                [
                    47345, 
                    [
                        {
                            "pitch": 58, 
                            "t0": 47345, 
                            "v": 57, 
                            "dur": 228, 
                            "type": "note", 
                            "channel": 0
                        }
                    ]
                ], 
                [
                    47351, 
                    [
                        {
                            "pitch": 55, 
                            "t0": 47351, 
                            "v": 56, 
                            "dur": 58, 
                            "type": "note", 
                            "channel": 0
                        }
                    ]
                ], 
                [
                    47460, 
                    [
                        {
                            "pitch": 77, 
                            "t0": 47460, 
                            "v": 70, 
                            "dur": 117, 
                            "type": "note", 
                            "channel": 0
                        }
                    ]
                ], 
                [
                    47577, 
                    [
                        {
                            "pitch": 55, 
                            "t0": 47577, 
                            "v": 74, 
                            "dur": 172, 
                            "type": "note", 
                            "channel": 0
                        }
                    ]
                ], 
                [
                    47588, 
                    [
                        {
                            "pitch": 79, 
                            "t0": 47588, 
                            "v": 73, 
                            "dur": 106, 
                            "type": "note", 
                            "channel": 0
                        }
                    ]
                ], 
                [
                    47594, 
                    [
                        {
                            "pitch": 52, 
                            "t0": 47594, 
                            "v": 67, 
                            "dur": 423, 
                            "type": "note", 
                            "channel": 0
                        }
                    ]
                ], 
                [
                    47697, 
                    [
                        {
                            "pitch": 77, 
                            "t0": 47697, 
                            "v": 66, 
                            "dur": 100, 
                            "type": "note", 
                            "channel": 0
                        }
                    ]
                ], 
                [
                    47819, 
                    [
                        {
                            "pitch": 76, 
                            "t0": 47819, 
                            "v": 61, 
                            "dur": 92, 
                            "type": "note", 
                            "channel": 0
                        }
                    ]
                ], 
                [
                    47825, 
                    [
                        {
                            "pitch": 61, 
                            "t0": 47825, 
                            "v": 77, 
                            "dur": 198, 
                            "type": "note", 
                            "channel": 0
                        }
                    ]
                ], 
                [
                    47945, 
                    [
                        {
                            "pitch": 79, 
                            "t0": 47945, 
                            "v": 69, 
                            "dur": 138, 
                            "type": "note", 
                            "channel": 0
                        }
                    ]
                ], 
                [
                    48070, 
                    [
                        {
                            "pitch": 62, 
                            "t0": 48070, 
                            "v": 70, 
                            "dur": 117, 
                            "type": "note", 
                            "channel": 0
                        }
                    ]
                ], 
                [
                    48075, 
                    [
                        {
                            "pitch": 77, 
                            "t0": 48075, 
                            "v": 60, 
                            "dur": 115, 
                            "type": "note", 
                            "channel": 0
                        }, 
                        {
                            "pitch": 50, 
                            "t0": 48075, 
                            "v": 59, 
                            "dur": 125, 
                            "type": "note", 
                            "channel": 0
                        }
                    ]
                ], 
                [
                    48195, 
                    [
                        {
                            "pitch": 75, 
                            "t0": 48195, 
                            "v": 52, 
                            "dur": 122, 
                            "type": "note", 
                            "channel": 0
                        }
                    ]
                ], 
                [
                    48306, 
                    [
                        {
                            "pitch": 56, 
                            "t0": 48306, 
                            "v": 51, 
                            "dur": 193, 
                            "type": "note", 
                            "channel": 0
                        }
                    ]
                ], 
                [
                    48313, 
                    [
                        {
                            "pitch": 74, 
                            "t0": 48313, 
                            "v": 56, 
                            "dur": 97, 
                            "type": "note", 
                            "channel": 0
                        }
                    ]
                ], 
                [
                    48331, 
                    [
                        {
                            "pitch": 53, 
                            "t0": 48331, 
                            "v": 57, 
                            "dur": 182, 
                            "type": "note", 
                            "channel": 0
                        }
                    ]
                ], 
                [
                    48429, 
                    [
                        {
                            "pitch": 72, 
                            "t0": 48429, 
                            "v": 44, 
                            "dur": 114, 
                            "type": "note", 
                            "channel": 0
                        }
                    ]
                ], 
                [
                    48540, 
                    [
                        {
                            "pitch": 55, 
                            "t0": 48540, 
                            "v": 54, 
                            "dur": 240, 
                            "type": "note", 
                            "channel": 0
                        }
                    ]
                ], 
                [
                    48543, 
                    [
                        {
                            "pitch": 71, 
                            "t0": 48543, 
                            "v": 62, 
                            "dur": 115, 
                            "type": "note", 
                            "channel": 0
                        }
                    ]
                ], 
                [
                    48560, 
                    [
                        {
                            "pitch": 51, 
                            "t0": 48560, 
                            "v": 27, 
                            "dur": 265, 
                            "type": "note", 
                            "channel": 0
                        }
                    ]
                ], 
                [
                    48668, 
                    [
                        {
                            "pitch": 72, 
                            "t0": 48668, 
                            "v": 55, 
                            "dur": 65, 
                            "type": "note", 
                            "channel": 0
                        }
                    ]
                ], 
                [
                    48792, 
                    [
                        {
                            "pitch": 74, 
                            "t0": 48792, 
                            "v": 59, 
                            "dur": 58, 
                            "type": "note", 
                            "channel": 0
                        }
                    ]
                ], 
                [
                    48795, 
                    [
                        {
                            "pitch": 56, 
                            "t0": 48795, 
                            "v": 48, 
                            "dur": 235, 
                            "type": "note", 
                            "channel": 0
                        }
                    ]
                ], 
                [
                    48811, 
                    [
                        {
                            "pitch": 53, 
                            "t0": 48811, 
                            "v": 53, 
                            "dur": 49, 
                            "type": "note", 
                            "channel": 0
                        }
                    ]
                ], 
                [
                    48914, 
                    [
                        {
                            "pitch": 75, 
                            "t0": 48914, 
                            "v": 52, 
                            "dur": 94, 
                            "type": "note", 
                            "channel": 0
                        }
                    ]
                ], 
                [
                    49030, 
                    [
                        {
                            "pitch": 53, 
                            "t0": 49030, 
                            "v": 54, 
                            "dur": 185, 
                            "type": "note", 
                            "channel": 0
                        }
                    ]
                ], 
                [
                    49039, 
                    [
                        {
                            "pitch": 77, 
                            "t0": 49039, 
                            "v": 50, 
                            "dur": 72, 
                            "type": "note", 
                            "channel": 0
                        }
                    ]
                ], 
                [
                    49044, 
                    [
                        {
                            "pitch": 50, 
                            "t0": 49044, 
                            "v": 41, 
                            "dur": 458, 
                            "type": "note", 
                            "channel": 0
                        }
                    ]
                ], 
                [
                    49151, 
                    [
                        {
                            "pitch": 75, 
                            "t0": 49151, 
                            "v": 51, 
                            "dur": 80, 
                            "type": "note", 
                            "channel": 0
                        }
                    ]
                ], 
                [
                    49265, 
                    [
                        {
                            "pitch": 59, 
                            "t0": 49265, 
                            "v": 45, 
                            "dur": 128, 
                            "type": "note", 
                            "channel": 0
                        }
                    ]
                ], 
                [
                    49276, 
                    [
                        {
                            "pitch": 74, 
                            "t0": 49276, 
                            "v": 56, 
                            "dur": 56, 
                            "type": "note", 
                            "channel": 0
                        }
                    ]
                ], 
                [
                    49393, 
                    [
                        {
                            "pitch": 77, 
                            "t0": 49393, 
                            "v": 48, 
                            "dur": 86, 
                            "type": "note", 
                            "channel": 0
                        }
                    ]
                ], 
                [
                    49519, 
                    [
                        {
                            "pitch": 75, 
                            "t0": 49519, 
                            "v": 46, 
                            "dur": 96, 
                            "type": "note", 
                            "channel": 0
                        }, 
                        {
                            "pitch": 48, 
                            "t0": 49519, 
                            "v": 34, 
                            "dur": 111, 
                            "type": "note", 
                            "channel": 0
                        }
                    ]
                ], 
                [
                    49522, 
                    [
                        {
                            "pitch": 60, 
                            "t0": 49522, 
                            "v": 46, 
                            "dur": 150, 
                            "type": "note", 
                            "channel": 0
                        }
                    ]
                ], 
                [
                    49647, 
                    [
                        {
                            "pitch": 72, 
                            "t0": 49647, 
                            "v": 48, 
                            "dur": 133, 
                            "type": "note", 
                            "channel": 0
                        }
                    ]
                ], 
                [
                    49775, 
                    [
                        {
                            "pitch": 60, 
                            "t0": 49775, 
                            "v": 65, 
                            "dur": 283, 
                            "type": "note", 
                            "channel": 0
                        }
                    ]
                ], 
                [
                    49780, 
                    [
                        {
                            "pitch": 71, 
                            "t0": 49780, 
                            "v": 64, 
                            "dur": 123, 
                            "type": "note", 
                            "channel": 0
                        }
                    ]
                ], 
                [
                    49923, 
                    [
                        {
                            "pitch": 69, 
                            "t0": 49923, 
                            "v": 30, 
                            "dur": 100, 
                            "type": "note", 
                            "channel": 0
                        }
                    ]
                ], 
                [
                    50030, 
                    [
                        {
                            "pitch": 63, 
                            "t0": 50030, 
                            "v": 83, 
                            "dur": 237, 
                            "type": "note", 
                            "channel": 0
                        }
                    ]
                ], 
                [
                    50040, 
                    [
                        {
                            "pitch": 67, 
                            "t0": 50040, 
                            "v": 45, 
                            "dur": 122, 
                            "type": "note", 
                            "channel": 0
                        }
                    ]
                ], 
                [
                    50168, 
                    [
                        {
                            "pitch": 65, 
                            "t0": 50168, 
                            "v": 47, 
                            "dur": 130, 
                            "type": "note", 
                            "channel": 0
                        }
                    ]
                ], 
                [
                    50274, 
                    [
                        {
                            "pitch": 60, 
                            "t0": 50274, 
                            "v": 73, 
                            "dur": 150, 
                            "type": "note", 
                            "channel": 0
                        }
                    ]
                ], 
                [
                    50288, 
                    [
                        {
                            "pitch": 67, 
                            "t0": 50288, 
                            "v": 59, 
                            "dur": 142, 
                            "type": "note", 
                            "channel": 0
                        }
                    ]
                ], 
                [
                    50415, 
                    [
                        {
                            "pitch": 72, 
                            "t0": 50415, 
                            "v": 46, 
                            "dur": 157, 
                            "type": "note", 
                            "channel": 0
                        }
                    ]
                ], 
                [
                    50552, 
                    [
                        {
                            "pitch": 67, 
                            "t0": 50552, 
                            "v": 72, 
                            "dur": 272, 
                            "type": "note", 
                            "channel": 0
                        }
                    ]
                ], 
                [
                    50558, 
                    [
                        {
                            "pitch": 75, 
                            "t0": 50558, 
                            "v": 69, 
                            "dur": 821, 
                            "type": "note", 
                            "channel": 0
                        }
                    ]
                ], 
                [
                    50672, 
                    [
                        {
                            "pitch": 48, 
                            "t0": 50672, 
                            "v": 42, 
                            "dur": 120, 
                            "type": "note", 
                            "channel": 0
                        }
                    ]
                ], 
                [
                    50795, 
                    [
                        {
                            "pitch": 58, 
                            "t0": 50795, 
                            "v": 62, 
                            "dur": 188, 
                            "type": "note", 
                            "channel": 0
                        }
                    ]
                ], 
                [
                    50806, 
                    [
                        {
                            "pitch": 51, 
                            "t0": 50806, 
                            "v": 55, 
                            "dur": 97, 
                            "type": "note", 
                            "channel": 0
                        }
                    ]
                ], 
                [
                    50922, 
                    [
                        {
                            "pitch": 48, 
                            "t0": 50922, 
                            "v": 56, 
                            "dur": 101, 
                            "type": "note", 
                            "channel": 0
                        }
                    ]
                ], 
                [
                    51050, 
                    [
                        {
                            "pitch": 56, 
                            "t0": 51050, 
                            "v": 66, 
                            "dur": 227, 
                            "type": "note", 
                            "channel": 0
                        }
                    ]
                ], 
                [
                    51075, 
                    [
                        {
                            "pitch": 53, 
                            "t0": 51075, 
                            "v": 78, 
                            "dur": 140, 
                            "type": "note", 
                            "channel": 0
                        }
                    ]
                ], 
                [
                    51296, 
                    [
                        {
                            "pitch": 62, 
                            "t0": 51296, 
                            "v": 63, 
                            "dur": 106, 
                            "type": "note", 
                            "channel": 0
                        }
                    ]
                ], 
                [
                    51301, 
                    [
                        {
                            "pitch": 68, 
                            "t0": 51301, 
                            "v": 58, 
                            "dur": 257, 
                            "type": "note", 
                            "channel": 0
                        }
                    ]
                ], 
                [
                    51405, 
                    [
                        {
                            "pitch": 60, 
                            "t0": 51405, 
                            "v": 70, 
                            "dur": 114, 
                            "type": "note", 
                            "channel": 0
                        }
                    ]
                ], 
                [
                    51541, 
                    [
                        {
                            "pitch": 63, 
                            "t0": 51541, 
                            "v": 79, 
                            "dur": 122, 
                            "type": "note", 
                            "channel": 0
                        }
                    ]
                ], 
                [
                    51546, 
                    [
                        {
                            "pitch": 67, 
                            "t0": 51546, 
                            "v": 72, 
                            "dur": 217, 
                            "type": "note", 
                            "channel": 0
                        }
                    ]
                ], 
                [
                    51671, 
                    [
                        {
                            "pitch": 62, 
                            "t0": 51671, 
                            "v": 63, 
                            "dur": 106, 
                            "type": "note", 
                            "channel": 0
                        }
                    ]
                ], 
                [
                    51783, 
                    [
                        {
                            "pitch": 68, 
                            "t0": 51783, 
                            "v": 67, 
                            "dur": 259, 
                            "type": "note", 
                            "channel": 0
                        }
                    ]
                ], 
                [
                    51789, 
                    [
                        {
                            "pitch": 60, 
                            "t0": 51789, 
                            "v": 42, 
                            "dur": 114, 
                            "type": "note", 
                            "channel": 0
                        }
                    ]
                ], 
                [
                    51887, 
                    [
                        {
                            "pitch": 58, 
                            "t0": 51887, 
                            "v": 55, 
                            "dur": 49, 
                            "type": "note", 
                            "channel": 0
                        }
                    ]
                ], 
                [
                    52023, 
                    [
                        {
                            "pitch": 65, 
                            "t0": 52023, 
                            "v": 62, 
                            "dur": 83, 
                            "type": "note", 
                            "channel": 0
                        }
                    ]
                ], 
                [
                    52027, 
                    [
                        {
                            "pitch": 74, 
                            "t0": 52027, 
                            "v": 68, 
                            "dur": 191, 
                            "type": "note", 
                            "channel": 0
                        }
                    ]
                ], 
                [
                    52132, 
                    [
                        {
                            "pitch": 46, 
                            "t0": 52132, 
                            "v": 51, 
                            "dur": 121, 
                            "type": "note", 
                            "channel": 0
                        }
                    ]
                ], 
                [
                    52274, 
                    [
                        {
                            "pitch": 77, 
                            "t0": 52274, 
                            "v": 66, 
                            "dur": 506, 
                            "type": "note", 
                            "channel": 0
                        }
                    ]
                ], 
                [
                    52285, 
                    [
                        {
                            "pitch": 56, 
                            "t0": 52285, 
                            "v": 37, 
                            "dur": 152, 
                            "type": "note", 
                            "channel": 0
                        }
                    ]
                ], 
                [
                    52379, 
                    [
                        {
                            "pitch": 46, 
                            "t0": 52379, 
                            "v": 37, 
                            "dur": 101, 
                            "type": "note", 
                            "channel": 0
                        }
                    ]
                ], 
                [
                    52510, 
                    [
                        {
                            "pitch": 55, 
                            "t0": 52510, 
                            "v": 65, 
                            "dur": 78, 
                            "type": "note", 
                            "channel": 0
                        }
                    ]
                ], 
                [
                    52513, 
                    [
                        {
                            "pitch": 51, 
                            "t0": 52513, 
                            "v": 51, 
                            "dur": 39, 
                            "type": "note", 
                            "channel": 0
                        }
                    ]
                ], 
                [
                    52635, 
                    [
                        {
                            "pitch": 58, 
                            "t0": 52635, 
                            "v": 34, 
                            "dur": 129, 
                            "type": "note", 
                            "channel": 0
                        }
                    ]
                ], 
                [
                    52755, 
                    [
                        {
                            "pitch": 60, 
                            "t0": 52755, 
                            "v": 67, 
                            "dur": 72, 
                            "type": "note", 
                            "channel": 0
                        }, 
                        {
                            "pitch": 70, 
                            "t0": 52755, 
                            "v": 57, 
                            "dur": 245, 
                            "type": "note", 
                            "channel": 0
                        }
                    ]
                ], 
                [
                    52862, 
                    [
                        {
                            "pitch": 62, 
                            "t0": 52862, 
                            "v": 57, 
                            "dur": 113, 
                            "type": "note", 
                            "channel": 0
                        }
                    ]
                ], 
                [
                    52987, 
                    [
                        {
                            "pitch": 63, 
                            "t0": 52987, 
                            "v": 69, 
                            "dur": 80, 
                            "type": "note", 
                            "channel": 0
                        }
                    ]
                ], 
                [
                    52995, 
                    [
                        {
                            "pitch": 72, 
                            "t0": 52995, 
                            "v": 69, 
                            "dur": 239, 
                            "type": "note", 
                            "channel": 0
                        }
                    ]
                ], 
                [
                    53109, 
                    [
                        {
                            "pitch": 62, 
                            "t0": 53109, 
                            "v": 54, 
                            "dur": 128, 
                            "type": "note", 
                            "channel": 0
                        }
                    ]
                ], 
                [
                    53226, 
                    [
                        {
                            "pitch": 63, 
                            "t0": 53226, 
                            "v": 64, 
                            "dur": 86, 
                            "type": "note", 
                            "channel": 0
                        }, 
                        {
                            "pitch": 70, 
                            "t0": 53226, 
                            "v": 60, 
                            "dur": 264, 
                            "type": "note", 
                            "channel": 0
                        }
                    ]
                ], 
                [
                    53348, 
                    [
                        {
                            "pitch": 65, 
                            "t0": 53348, 
                            "v": 55, 
                            "dur": 32, 
                            "type": "note", 
                            "channel": 0
                        }
                    ]
                ], 
                [
                    53466, 
                    [
                        {
                            "pitch": 75, 
                            "t0": 53466, 
                            "v": 57, 
                            "dur": 164, 
                            "type": "note", 
                            "channel": 0
                        }
                    ]
                ], 
                [
                    53474, 
                    [
                        {
                            "pitch": 67, 
                            "t0": 53474, 
                            "v": 49, 
                            "dur": 56, 
                            "type": "note", 
                            "channel": 0
                        }
                    ]
                ], 
                [
                    53577, 
                    [
                        {
                            "pitch": 51, 
                            "t0": 53577, 
                            "v": 50, 
                            "dur": 122, 
                            "type": "note", 
                            "channel": 0
                        }
                    ]
                ], 
                [
                    53703, 
                    [
                        {
                            "pitch": 63, 
                            "t0": 53703, 
                            "v": 48, 
                            "dur": 200, 
                            "type": "note", 
                            "channel": 0
                        }
                    ]
                ], 
                [
                    53711, 
                    [
                        {
                            "pitch": 67, 
                            "t0": 53711, 
                            "v": 57, 
                            "dur": 278, 
                            "type": "note", 
                            "channel": 0
                        }
                    ]
                ], 
                [
                    53719, 
                    [
                        {
                            "pitch": 55, 
                            "t0": 53719, 
                            "v": 53, 
                            "dur": 73, 
                            "type": "note", 
                            "channel": 0
                        }
                    ]
                ], 
                [
                    53828, 
                    [
                        {
                            "pitch": 51, 
                            "t0": 53828, 
                            "v": 55, 
                            "dur": 112, 
                            "type": "note", 
                            "channel": 0
                        }
                    ]
                ], 
                [
                    53964, 
                    [
                        {
                            "pitch": 65, 
                            "t0": 53964, 
                            "v": 57, 
                            "dur": 279, 
                            "type": "note", 
                            "channel": 0
                        }
                    ]
                ], 
                [
                    53975, 
                    [
                        {
                            "pitch": 58, 
                            "t0": 53975, 
                            "v": 40, 
                            "dur": 240, 
                            "type": "note", 
                            "channel": 0
                        }
                    ]
                ], 
                [
                    54231, 
                    [
                        {
                            "pitch": 74, 
                            "t0": 54231, 
                            "v": 74, 
                            "dur": 104, 
                            "type": "note", 
                            "channel": 0
                        }, 
                        {
                            "pitch": 56, 
                            "t0": 54231, 
                            "v": 50, 
                            "dur": 220, 
                            "type": "note", 
                            "channel": 0
                        }
                    ]
                ], 
                [
                    54335, 
                    [
                        {
                            "pitch": 72, 
                            "t0": 54335, 
                            "v": 66, 
                            "dur": 116, 
                            "type": "note", 
                            "channel": 0
                        }
                    ]
                ], 
                [
                    54463, 
                    [
                        {
                            "pitch": 75, 
                            "t0": 54463, 
                            "v": 70, 
                            "dur": 131, 
                            "type": "note", 
                            "channel": 0
                        }
                    ]
                ], 
                [
                    54474, 
                    [
                        {
                            "pitch": 55, 
                            "t0": 54474, 
                            "v": 45, 
                            "dur": 189, 
                            "type": "note", 
                            "channel": 0
                        }
                    ]
                ], 
                [
                    54574, 
                    [
                        {
                            "pitch": 74, 
                            "t0": 54574, 
                            "v": 80, 
                            "dur": 129, 
                            "type": "note", 
                            "channel": 0
                        }
                    ]
                ], 
                [
                    54691, 
                    [
                        {
                            "pitch": 56, 
                            "t0": 54691, 
                            "v": 52, 
                            "dur": 199, 
                            "type": "note", 
                            "channel": 0
                        }
                    ]
                ], 
                [
                    54697, 
                    [
                        {
                            "pitch": 72, 
                            "t0": 54697, 
                            "v": 75, 
                            "dur": 115, 
                            "type": "note", 
                            "channel": 0
                        }
                    ]
                ], 
                [
                    54803, 
                    [
                        {
                            "pitch": 70, 
                            "t0": 54803, 
                            "v": 70, 
                            "dur": 154, 
                            "type": "note", 
                            "channel": 0
                        }
                    ]
                ], 
                [
                    54942, 
                    [
                        {
                            "pitch": 77, 
                            "t0": 54942, 
                            "v": 72, 
                            "dur": 98, 
                            "type": "note", 
                            "channel": 0
                        }
                    ]
                ], 
                [
                    54954, 
                    [
                        {
                            "pitch": 62, 
                            "t0": 54954, 
                            "v": 45, 
                            "dur": 61, 
                            "type": "note", 
                            "channel": 0
                        }
                    ]
                ], 
                [
                    55057, 
                    [
                        {
                            "pitch": 58, 
                            "t0": 55057, 
                            "v": 44, 
                            "dur": 114, 
                            "type": "note", 
                            "channel": 0
                        }
                    ]
                ], 
                [
                    55171, 
                    [
                        {
                            "pitch": 68, 
                            "t0": 55171, 
                            "v": 59, 
                            "dur": 286, 
                            "type": "note", 
                            "channel": 0
                        }
                    ]
                ], 
                [
                    55182, 
                    [
                        {
                            "pitch": 65, 
                            "t0": 55182, 
                            "v": 41, 
                            "dur": 147, 
                            "type": "note", 
                            "channel": 0
                        }
                    ]
                ], 
                [
                    55190, 
                    [
                        {
                            "pitch": 62, 
                            "t0": 55190, 
                            "v": 60, 
                            "dur": 61, 
                            "type": "note", 
                            "channel": 0
                        }
                    ]
                ], 
                [
                    55318, 
                    [
                        {
                            "pitch": 58, 
                            "t0": 55318, 
                            "v": 39, 
                            "dur": 86, 
                            "type": "note", 
                            "channel": 0
                        }
                    ]
                ], 
                [
                    55430, 
                    [
                        {
                            "pitch": 67, 
                            "t0": 55430, 
                            "v": 59, 
                            "dur": 216, 
                            "type": "note", 
                            "channel": 0
                        }
                    ]
                ], 
                [
                    55457, 
                    [
                        {
                            "pitch": 63, 
                            "t0": 55457, 
                            "v": 30, 
                            "dur": 196, 
                            "type": "note", 
                            "channel": 0
                        }
                    ]
                ], 
                [
                    55681, 
                    [
                        {
                            "pitch": 75, 
                            "t0": 55681, 
                            "v": 56, 
                            "dur": 117, 
                            "type": "note", 
                            "channel": 0
                        }
                    ]
                ], 
                [
                    55705, 
                    [
                        {
                            "pitch": 55, 
                            "t0": 55705, 
                            "v": 33, 
                            "dur": 70, 
                            "type": "note", 
                            "channel": 0
                        }
                    ]
                ], 
                [
                    55798, 
                    [
                        {
                            "pitch": 56, 
                            "t0": 55798, 
                            "v": 48, 
                            "dur": 64, 
                            "type": "note", 
                            "channel": 0
                        }
                    ]
                ], 
                [
                    55803, 
                    [
                        {
                            "pitch": 77, 
                            "t0": 55803, 
                            "v": 55, 
                            "dur": 72, 
                            "type": "note", 
                            "channel": 0
                        }
                    ]
                ], 
                [
                    55925, 
                    [
                        {
                            "pitch": 58, 
                            "t0": 55925, 
                            "v": 44, 
                            "dur": 103, 
                            "type": "note", 
                            "channel": 0
                        }
                    ]
                ], 
                [
                    55929, 
                    [
                        {
                            "pitch": 74, 
                            "t0": 55929, 
                            "v": 66, 
                            "dur": 94, 
                            "type": "note", 
                            "channel": 0
                        }
                    ]
                ], 
                [
                    56045, 
                    [
                        {
                            "pitch": 75, 
                            "t0": 56045, 
                            "v": 66, 
                            "dur": 107, 
                            "type": "note", 
                            "channel": 0
                        }
                    ]
                ], 
                [
                    56152, 
                    [
                        {
                            "pitch": 58, 
                            "t0": 56152, 
                            "v": 53, 
                            "dur": 83, 
                            "type": "note", 
                            "channel": 0
                        }
                    ]
                ], 
                [
                    56156, 
                    [
                        {
                            "pitch": 50, 
                            "t0": 56156, 
                            "v": 75, 
                            "dur": 104, 
                            "type": "note", 
                            "channel": 0
                        }
                    ]
                ], 
                [
                    56162, 
                    [
                        {
                            "pitch": 77, 
                            "t0": 56162, 
                            "v": 70, 
                            "dur": 122, 
                            "type": "note", 
                            "channel": 0
                        }
                    ]
                ], 
                [
                    56260, 
                    [
                        {
                            "pitch": 51, 
                            "t0": 56260, 
                            "v": 65, 
                            "dur": 102, 
                            "type": "note", 
                            "channel": 0
                        }
                    ]
                ], 
                [
                    56274, 
                    [
                        {
                            "pitch": 79, 
                            "t0": 56274, 
                            "v": 69, 
                            "dur": 56, 
                            "type": "note", 
                            "channel": 0
                        }
                    ]
                ], 
                [
                    56399, 
                    [
                        {
                            "pitch": 80, 
                            "t0": 56399, 
                            "v": 70, 
                            "dur": 117, 
                            "type": "note", 
                            "channel": 0
                        }
                    ]
                ], 
                [
                    56404, 
                    [
                        {
                            "pitch": 58, 
                            "t0": 56404, 
                            "v": 58, 
                            "dur": 112, 
                            "type": "note", 
                            "channel": 0
                        }
                    ]
                ], 
                [
                    56408, 
                    [
                        {
                            "pitch": 53, 
                            "t0": 56408, 
                            "v": 96, 
                            "dur": 85, 
                            "type": "note", 
                            "channel": 0
                        }
                    ]
                ], 
                [
                    56486, 
                    [
                        {
                            "pitch": 51, 
                            "t0": 56486, 
                            "v": 62, 
                            "dur": 124, 
                            "type": "note", 
                            "channel": 0
                        }
                    ]
                ], 
                [
                    56516, 
                    [
                        {
                            "pitch": 79, 
                            "t0": 56516, 
                            "v": 70, 
                            "dur": 62, 
                            "type": "note", 
                            "channel": 0
                        }
                    ]
                ], 
                [
                    56635, 
                    [
                        {
                            "pitch": 58, 
                            "t0": 56635, 
                            "v": 54, 
                            "dur": 56, 
                            "type": "note", 
                            "channel": 0
                        }, 
                        {
                            "pitch": 77, 
                            "t0": 56635, 
                            "v": 61, 
                            "dur": 81, 
                            "type": "note", 
                            "channel": 0
                        }, 
                        {
                            "pitch": 50, 
                            "t0": 56635, 
                            "v": 69, 
                            "dur": 93, 
                            "type": "note", 
                            "channel": 0
                        }
                    ]
                ], 
                [
                    56741, 
                    [
                        {
                            "pitch": 80, 
                            "t0": 56741, 
                            "v": 72, 
                            "dur": 117, 
                            "type": "note", 
                            "channel": 0
                        }
                    ]
                ], 
                [
                    56767, 
                    [
                        {
                            "pitch": 53, 
                            "t0": 56767, 
                            "v": 50, 
                            "dur": 47, 
                            "type": "note", 
                            "channel": 0
                        }
                    ]
                ], 
                [
                    56873, 
                    [
                        {
                            "pitch": 58, 
                            "t0": 56873, 
                            "v": 50, 
                            "dur": 119, 
                            "type": "note", 
                            "channel": 0
                        }
                    ]
                ], 
                [
                    56876, 
                    [
                        {
                            "pitch": 79, 
                            "t0": 56876, 
                            "v": 82, 
                            "dur": 106, 
                            "type": "note", 
                            "channel": 0
                        }, 
                        {
                            "pitch": 51, 
                            "t0": 56876, 
                            "v": 59, 
                            "dur": 214, 
                            "type": "note", 
                            "channel": 0
                        }
                    ]
                ], 
                [
                    56992, 
                    [
                        {
                            "pitch": 77, 
                            "t0": 56992, 
                            "v": 56, 
                            "dur": 142, 
                            "type": "note", 
                            "channel": 0
                        }
                    ]
                ], 
                [
                    57000, 
                    [
                        {
                            "pitch": 56, 
                            "t0": 57000, 
                            "v": 56, 
                            "dur": 73, 
                            "type": "note", 
                            "channel": 0
                        }
                    ]
                ], 
                [
                    57109, 
                    [
                        {
                            "pitch": 75, 
                            "t0": 57109, 
                            "v": 75, 
                            "dur": 128, 
                            "type": "note", 
                            "channel": 0
                        }
                    ]
                ], 
                [
                    57118, 
                    [
                        {
                            "pitch": 55, 
                            "t0": 57118, 
                            "v": 56, 
                            "dur": 119, 
                            "type": "note", 
                            "channel": 0
                        }
                    ]
                ], 
                [
                    57227, 
                    [
                        {
                            "pitch": 77, 
                            "t0": 57227, 
                            "v": 63, 
                            "dur": 113, 
                            "type": "note", 
                            "channel": 0
                        }
                    ]
                ], 
                [
                    57237, 
                    [
                        {
                            "pitch": 56, 
                            "t0": 57237, 
                            "v": 66, 
                            "dur": 98, 
                            "type": "note", 
                            "channel": 0
                        }
                    ]
                ], 
                [
                    57357, 
                    [
                        {
                            "pitch": 58, 
                            "t0": 57357, 
                            "v": 66, 
                            "dur": 76, 
                            "type": "note", 
                            "channel": 0
                        }, 
                        {
                            "pitch": 74, 
                            "t0": 57357, 
                            "v": 74, 
                            "dur": 112, 
                            "type": "note", 
                            "channel": 0
                        }
                    ]
                ], 
                [
                    57469, 
                    [
                        {
                            "pitch": 75, 
                            "t0": 57469, 
                            "v": 69, 
                            "dur": 112, 
                            "type": "note", 
                            "channel": 0
                        }
                    ]
                ], 
                [
                    57594, 
                    [
                        {
                            "pitch": 50, 
                            "t0": 57594, 
                            "v": 64, 
                            "dur": 45, 
                            "type": "note", 
                            "channel": 0
                        }, 
                        {
                            "pitch": 58, 
                            "t0": 57594, 
                            "v": 48, 
                            "dur": 55, 
                            "type": "note", 
                            "channel": 0
                        }, 
                        {
                            "pitch": 77, 
                            "t0": 57594, 
                            "v": 71, 
                            "dur": 95, 
                            "type": "note", 
                            "channel": 0
                        }
                    ]
                ], 
                [
                    57700, 
                    [
                        {
                            "pitch": 51, 
                            "t0": 57700, 
                            "v": 56, 
                            "dur": 59, 
                            "type": "note", 
                            "channel": 0
                        }
                    ]
                ], 
                [
                    57709, 
                    [
                        {
                            "pitch": 79, 
                            "t0": 57709, 
                            "v": 70, 
                            "dur": 47, 
                            "type": "note", 
                            "channel": 0
                        }
                    ]
                ], 
                [
                    57829, 
                    [
                        {
                            "pitch": 58, 
                            "t0": 57829, 
                            "v": 54, 
                            "dur": 103, 
                            "type": "note", 
                            "channel": 0
                        }, 
                        {
                            "pitch": 80, 
                            "t0": 57829, 
                            "v": 73, 
                            "dur": 110, 
                            "type": "note", 
                            "channel": 0
                        }
                    ]
                ], 
                [
                    57842, 
                    [
                        {
                            "pitch": 53, 
                            "t0": 57842, 
                            "v": 84, 
                            "dur": 53, 
                            "type": "note", 
                            "channel": 0
                        }
                    ]
                ], 
                [
                    57932, 
                    [
                        {
                            "pitch": 51, 
                            "t0": 57932, 
                            "v": 54, 
                            "dur": 127, 
                            "type": "note", 
                            "channel": 0
                        }
                    ]
                ], 
                [
                    57945, 
                    [
                        {
                            "pitch": 79, 
                            "t0": 57945, 
                            "v": 76, 
                            "dur": 50, 
                            "type": "note", 
                            "channel": 0
                        }
                    ]
                ], 
                [
                    58059, 
                    [
                        {
                            "pitch": 77, 
                            "t0": 58059, 
                            "v": 68, 
                            "dur": 73, 
                            "type": "note", 
                            "channel": 0
                        }
                    ]
                ], 
                [
                    58063, 
                    [
                        {
                            "pitch": 50, 
                            "t0": 58063, 
                            "v": 62, 
                            "dur": 69, 
                            "type": "note", 
                            "channel": 0
                        }
                    ]
                ], 
                [
                    58088, 
                    [
                        {
                            "pitch": 58, 
                            "t0": 58088, 
                            "v": 35, 
                            "dur": 53, 
                            "type": "note", 
                            "channel": 0
                        }
                    ]
                ], 
                [
                    58163, 
                    [
                        {
                            "pitch": 53, 
                            "t0": 58163, 
                            "v": 84, 
                            "dur": 55, 
                            "type": "note", 
                            "channel": 0
                        }, 
                        {
                            "pitch": 80, 
                            "t0": 58163, 
                            "v": 76, 
                            "dur": 106, 
                            "type": "note", 
                            "channel": 0
                        }
                    ]
                ], 
                [
                    58310, 
                    [
                        {
                            "pitch": 51, 
                            "t0": 58310, 
                            "v": 55, 
                            "dur": 45, 
                            "type": "note", 
                            "channel": 0
                        }, 
                        {
                            "pitch": 58, 
                            "t0": 58310, 
                            "v": 47, 
                            "dur": 51, 
                            "type": "note", 
                            "channel": 0
                        }, 
                        {
                            "pitch": 79, 
                            "t0": 58310, 
                            "v": 84, 
                            "dur": 371, 
                            "type": "note", 
                            "channel": 0
                        }
                    ]
                ], 
                [
                    58549, 
                    [
                        {
                            "pitch": 63, 
                            "t0": 58549, 
                            "v": 52, 
                            "dur": 209, 
                            "type": "note", 
                            "channel": 0
                        }
                    ]
                ], 
                [
                    58669, 
                    [
                        {
                            "pitch": 77, 
                            "t0": 58669, 
                            "v": 61, 
                            "dur": 78, 
                            "type": "note", 
                            "channel": 0
                        }
                    ]
                ], 
                [
                    58798, 
                    [
                        {
                            "pitch": 75, 
                            "t0": 58798, 
                            "v": 54, 
                            "dur": 111, 
                            "type": "note", 
                            "channel": 0
                        }
                    ]
                ], 
                [
                    58805, 
                    [
                        {
                            "pitch": 67, 
                            "t0": 58805, 
                            "v": 70, 
                            "dur": 240, 
                            "type": "note", 
                            "channel": 0
                        }
                    ]
                ], 
                [
                    58923, 
                    [
                        {
                            "pitch": 74, 
                            "t0": 58923, 
                            "v": 58, 
                            "dur": 106, 
                            "type": "note", 
                            "channel": 0
                        }
                    ]
                ], 
                [
                    59032, 
                    [
                        {
                            "pitch": 75, 
                            "t0": 59032, 
                            "v": 58, 
                            "dur": 137, 
                            "type": "note", 
                            "channel": 0
                        }
                    ]
                ], 
                [
                    59051, 
                    [
                        {
                            "pitch": 63, 
                            "t0": 59051, 
                            "v": 55, 
                            "dur": 94, 
                            "type": "note", 
                            "channel": 0
                        }
                    ]
                ], 
                [
                    59166, 
                    [
                        {
                            "pitch": 77, 
                            "t0": 59166, 
                            "v": 64, 
                            "dur": 125, 
                            "type": "note", 
                            "channel": 0
                        }
                    ]
                ], 
                [
                    59286, 
                    [
                        {
                            "pitch": 70, 
                            "t0": 59286, 
                            "v": 52, 
                            "dur": 208, 
                            "type": "note", 
                            "channel": 0
                        }
                    ]
                ], 
                [
                    59301, 
                    [
                        {
                            "pitch": 79, 
                            "t0": 59301, 
                            "v": 65, 
                            "dur": 106, 
                            "type": "note", 
                            "channel": 0
                        }
                    ]
                ], 
                [
                    59407, 
                    [
                        {
                            "pitch": 51, 
                            "t0": 59407, 
                            "v": 41, 
                            "dur": 68, 
                            "type": "note", 
                            "channel": 0
                        }
                    ]
                ], 
                [
                    59530, 
                    [
                        {
                            "pitch": 82, 
                            "t0": 59530, 
                            "v": 69, 
                            "dur": 552, 
                            "type": "note", 
                            "channel": 0
                        }
                    ]
                ], 
                [
                    59541, 
                    [
                        {
                            "pitch": 62, 
                            "t0": 59541, 
                            "v": 54, 
                            "dur": 111, 
                            "type": "note", 
                            "channel": 0
                        }
                    ]
                ], 
                [
                    59553, 
                    [
                        {
                            "pitch": 55, 
                            "t0": 59553, 
                            "v": 45, 
                            "dur": 86, 
                            "type": "note", 
                            "channel": 0
                        }
                    ]
                ], 
                [
                    59662, 
                    [
                        {
                            "pitch": 51, 
                            "t0": 59662, 
                            "v": 51, 
                            "dur": 57, 
                            "type": "note", 
                            "channel": 0
                        }
                    ]
                ], 
                [
                    59789, 
                    [
                        {
                            "pitch": 60, 
                            "t0": 59789, 
                            "v": 52, 
                            "dur": 134, 
                            "type": "note", 
                            "channel": 0
                        }
                    ]
                ], 
                [
                    59794, 
                    [
                        {
                            "pitch": 53, 
                            "t0": 59794, 
                            "v": 74, 
                            "dur": 82, 
                            "type": "note", 
                            "channel": 0
                        }
                    ]
                ], 
                [
                    60038, 
                    [
                        {
                            "pitch": 75, 
                            "t0": 60038, 
                            "v": 62, 
                            "dur": 205, 
                            "type": "note", 
                            "channel": 0
                        }
                    ]
                ], 
                [
                    60041, 
                    [
                        {
                            "pitch": 69, 
                            "t0": 60041, 
                            "v": 65, 
                            "dur": 65, 
                            "type": "note", 
                            "channel": 0
                        }
                    ]
                ], 
                [
                    60149, 
                    [
                        {
                            "pitch": 67, 
                            "t0": 60149, 
                            "v": 72, 
                            "dur": 116, 
                            "type": "note", 
                            "channel": 0
                        }
                    ]
                ], 
                [
                    60272, 
                    [
                        {
                            "pitch": 70, 
                            "t0": 60272, 
                            "v": 74, 
                            "dur": 155, 
                            "type": "note", 
                            "channel": 0
                        }, 
                        {
                            "pitch": 74, 
                            "t0": 60272, 
                            "v": 79, 
                            "dur": 205, 
                            "type": "note", 
                            "channel": 0
                        }
                    ]
                ], 
                [
                    60399, 
                    [
                        {
                            "pitch": 69, 
                            "t0": 60399, 
                            "v": 54, 
                            "dur": 117, 
                            "type": "note", 
                            "channel": 0
                        }
                    ]
                ], 
                [
                    60508, 
                    [
                        {
                            "pitch": 67, 
                            "t0": 60508, 
                            "v": 65, 
                            "dur": 117, 
                            "type": "note", 
                            "channel": 0
                        }
                    ]
                ], 
                [
                    60516, 
                    [
                        {
                            "pitch": 75, 
                            "t0": 60516, 
                            "v": 65, 
                            "dur": 226, 
                            "type": "note", 
                            "channel": 0
                        }
                    ]
                ], 
                [
                    60625, 
                    [
                        {
                            "pitch": 65, 
                            "t0": 60625, 
                            "v": 57, 
                            "dur": 33, 
                            "type": "note", 
                            "channel": 0
                        }
                    ]
                ], 
                [
                    60745, 
                    [
                        {
                            "pitch": 72, 
                            "t0": 60745, 
                            "v": 59, 
                            "dur": 187, 
                            "type": "note", 
                            "channel": 0
                        }
                    ]
                ], 
                [
                    60751, 
                    [
                        {
                            "pitch": 81, 
                            "t0": 60751, 
                            "v": 62, 
                            "dur": 128, 
                            "type": "note", 
                            "channel": 0
                        }
                    ]
                ], 
                [
                    60865, 
                    [
                        {
                            "pitch": 53, 
                            "t0": 60865, 
                            "v": 57, 
                            "dur": 88, 
                            "type": "note", 
                            "channel": 0
                        }
                    ]
                ], 
                [
                    60990, 
                    [
                        {
                            "pitch": 84, 
                            "t0": 60990, 
                            "v": 71, 
                            "dur": 248, 
                            "type": "note", 
                            "channel": 0
                        }
                    ]
                ], 
                [
                    61003, 
                    [
                        {
                            "pitch": 63, 
                            "t0": 61003, 
                            "v": 47, 
                            "dur": 126, 
                            "type": "note", 
                            "channel": 0
                        }
                    ]
                ], 
                [
                    61007, 
                    [
                        {
                            "pitch": 57, 
                            "t0": 61007, 
                            "v": 31, 
                            "dur": 59, 
                            "type": "note", 
                            "channel": 0
                        }
                    ]
                ], 
                [
                    61099, 
                    [
                        {
                            "pitch": 53, 
                            "t0": 61099, 
                            "v": 73, 
                            "dur": 70, 
                            "type": "note", 
                            "channel": 0
                        }
                    ]
                ], 
                [
                    61238, 
                    [
                        {
                            "pitch": 58, 
                            "t0": 61238, 
                            "v": 57, 
                            "dur": 206, 
                            "type": "note", 
                            "channel": 0
                        }
                    ]
                ], 
                [
                    61241, 
                    [
                        {
                            "pitch": 62, 
                            "t0": 61241, 
                            "v": 67, 
                            "dur": 219, 
                            "type": "note", 
                            "channel": 0
                        }
                    ]
                ], 
                [
                    61480, 
                    [
                        {
                            "pitch": 70, 
                            "t0": 61480, 
                            "v": 54, 
                            "dur": 112, 
                            "type": "note", 
                            "channel": 0
                        }
                    ]
                ], 
                [
                    61485, 
                    [
                        {
                            "pitch": 74, 
                            "t0": 61485, 
                            "v": 71, 
                            "dur": 59, 
                            "type": "note", 
                            "channel": 0
                        }
                    ]
                ], 
                [
                    61592, 
                    [
                        {
                            "pitch": 75, 
                            "t0": 61592, 
                            "v": 63, 
                            "dur": 128, 
                            "type": "note", 
                            "channel": 0
                        }
                    ]
                ], 
                [
                    61595, 
                    [
                        {
                            "pitch": 72, 
                            "t0": 61595, 
                            "v": 57, 
                            "dur": 50, 
                            "type": "note", 
                            "channel": 0
                        }
                    ]
                ], 
                [
                    61715, 
                    [
                        {
                            "pitch": 69, 
                            "t0": 61715, 
                            "v": 63, 
                            "dur": 57, 
                            "type": "note", 
                            "channel": 0
                        }, 
                        {
                            "pitch": 77, 
                            "t0": 61715, 
                            "v": 83, 
                            "dur": 116, 
                            "type": "note", 
                            "channel": 0
                        }
                    ]
                ], 
                [
                    61818, 
                    [
                        {
                            "pitch": 70, 
                            "t0": 61818, 
                            "v": 65, 
                            "dur": 105, 
                            "type": "note", 
                            "channel": 0
                        }
                    ]
                ], 
                [
                    61942, 
                    [
                        {
                            "pitch": 57, 
                            "t0": 61942, 
                            "v": 61, 
                            "dur": 57, 
                            "type": "note", 
                            "channel": 0
                        }
                    ]
                ], 
                [
                    61946, 
                    [
                        {
                            "pitch": 72, 
                            "t0": 61946, 
                            "v": 63, 
                            "dur": 44, 
                            "type": "note", 
                            "channel": 0
                        }, 
                        {
                            "pitch": 77, 
                            "t0": 61946, 
                            "v": 79, 
                            "dur": 88, 
                            "type": "note", 
                            "channel": 0
                        }
                    ]
                ], 
                [
                    62040, 
                    [
                        {
                            "pitch": 74, 
                            "t0": 62040, 
                            "v": 69, 
                            "dur": 48, 
                            "type": "note", 
                            "channel": 0
                        }
                    ]
                ], 
                [
                    62054, 
                    [
                        {
                            "pitch": 58, 
                            "t0": 62054, 
                            "v": 51, 
                            "dur": 58, 
                            "type": "note", 
                            "channel": 0
                        }
                    ]
                ], 
                [
                    62166, 
                    [
                        {
                            "pitch": 75, 
                            "t0": 62166, 
                            "v": 68, 
                            "dur": 108, 
                            "type": "note", 
                            "channel": 0
                        }
                    ]
                ], 
                [
                    62176, 
                    [
                        {
                            "pitch": 60, 
                            "t0": 62176, 
                            "v": 68, 
                            "dur": 70, 
                            "type": "note", 
                            "channel": 0
                        }
                    ]
                ], 
                [
                    62179, 
                    [
                        {
                            "pitch": 77, 
                            "t0": 62179, 
                            "v": 80, 
                            "dur": 104, 
                            "type": "note", 
                            "channel": 0
                        }
                    ]
                ], 
                [
                    62279, 
                    [
                        {
                            "pitch": 58, 
                            "t0": 62279, 
                            "v": 47, 
                            "dur": 50, 
                            "type": "note", 
                            "channel": 0
                        }
                    ]
                ], 
                [
                    62283, 
                    [
                        {
                            "pitch": 74, 
                            "t0": 62283, 
                            "v": 73, 
                            "dur": 42, 
                            "type": "note", 
                            "channel": 0
                        }
                    ]
                ], 
                [
                    62394, 
                    [
                        {
                            "pitch": 72, 
                            "t0": 62394, 
                            "v": 65, 
                            "dur": 44, 
                            "type": "note", 
                            "channel": 0
                        }
                    ]
                ], 
                [
                    62399, 
                    [
                        {
                            "pitch": 57, 
                            "t0": 62399, 
                            "v": 51, 
                            "dur": 42, 
                            "type": "note", 
                            "channel": 0
                        }
                    ]
                ], 
                [
                    62405, 
                    [
                        {
                            "pitch": 77, 
                            "t0": 62405, 
                            "v": 74, 
                            "dur": 89, 
                            "type": "note", 
                            "channel": 0
                        }
                    ]
                ], 
                [
                    62502, 
                    [
                        {
                            "pitch": 75, 
                            "t0": 62502, 
                            "v": 72, 
                            "dur": 45, 
                            "type": "note", 
                            "channel": 0
                        }, 
                        {
                            "pitch": 60, 
                            "t0": 62502, 
                            "v": 49, 
                            "dur": 57, 
                            "type": "note", 
                            "channel": 0
                        }
                    ]
                ], 
                [
                    62625, 
                    [
                        {
                            "pitch": 74, 
                            "t0": 62625, 
                            "v": 79, 
                            "dur": 70, 
                            "type": "note", 
                            "channel": 0
                        }, 
                        {
                            "pitch": 77, 
                            "t0": 62625, 
                            "v": 83, 
                            "dur": 140, 
                            "type": "note", 
                            "channel": 0
                        }
                    ]
                ], 
                [
                    62634, 
                    [
                        {
                            "pitch": 58, 
                            "t0": 62634, 
                            "v": 47, 
                            "dur": 222, 
                            "type": "note", 
                            "channel": 0
                        }
                    ]
                ], 
                [
                    62740, 
                    [
                        {
                            "pitch": 75, 
                            "t0": 62740, 
                            "v": 73, 
                            "dur": 113, 
                            "type": "note", 
                            "channel": 0
                        }
                    ]
                ], 
                [
                    62743, 
                    [
                        {
                            "pitch": 72, 
                            "t0": 62743, 
                            "v": 68, 
                            "dur": 93, 
                            "type": "note", 
                            "channel": 0
                        }
                    ]
                ], 
                [
                    62856, 
                    [
                        {
                            "pitch": 70, 
                            "t0": 62856, 
                            "v": 56, 
                            "dur": 93, 
                            "type": "note", 
                            "channel": 0
                        }
                    ]
                ], 
                [
                    62871, 
                    [
                        {
                            "pitch": 74, 
                            "t0": 62871, 
                            "v": 69, 
                            "dur": 94, 
                            "type": "note", 
                            "channel": 0
                        }
                    ]
                ], 
                [
                    62959, 
                    [
                        {
                            "pitch": 75, 
                            "t0": 62959, 
                            "v": 62, 
                            "dur": 107, 
                            "type": "note", 
                            "channel": 0
                        }
                    ]
                ], 
                [
                    62971, 
                    [
                        {
                            "pitch": 72, 
                            "t0": 62971, 
                            "v": 51, 
                            "dur": 50, 
                            "type": "note", 
                            "channel": 0
                        }
                    ]
                ], 
                [
                    63095, 
                    [
                        {
                            "pitch": 69, 
                            "t0": 63095, 
                            "v": 55, 
                            "dur": 56, 
                            "type": "note", 
                            "channel": 0
                        }, 
                        {
                            "pitch": 77, 
                            "t0": 63095, 
                            "v": 75, 
                            "dur": 113, 
                            "type": "note", 
                            "channel": 0
                        }
                    ]
                ], 
                [
                    63191, 
                    [
                        {
                            "pitch": 70, 
                            "t0": 63191, 
                            "v": 61, 
                            "dur": 105, 
                            "type": "note", 
                            "channel": 0
                        }
                    ]
                ], 
                [
                    63319, 
                    [
                        {
                            "pitch": 72, 
                            "t0": 63319, 
                            "v": 60, 
                            "dur": 45, 
                            "type": "note", 
                            "channel": 0
                        }, 
                        {
                            "pitch": 77, 
                            "t0": 63319, 
                            "v": 64, 
                            "dur": 77, 
                            "type": "note", 
                            "channel": 0
                        }
                    ]
                ], 
                [
                    63327, 
                    [
                        {
                            "pitch": 57, 
                            "t0": 63327, 
                            "v": 48, 
                            "dur": 69, 
                            "type": "note", 
                            "channel": 0
                        }
                    ]
                ], 
                [
                    63427, 
                    [
                        {
                            "pitch": 74, 
                            "t0": 63427, 
                            "v": 69, 
                            "dur": 39, 
                            "type": "note", 
                            "channel": 0
                        }
                    ]
                ], 
                [
                    63436, 
                    [
                        {
                            "pitch": 58, 
                            "t0": 63436, 
                            "v": 42, 
                            "dur": 58, 
                            "type": "note", 
                            "channel": 0
                        }
                    ]
                ], 
                [
                    63547, 
                    [
                        {
                            "pitch": 75, 
                            "t0": 63547, 
                            "v": 61, 
                            "dur": 58, 
                            "type": "note", 
                            "channel": 0
                        }, 
                        {
                            "pitch": 60, 
                            "t0": 63547, 
                            "v": 62, 
                            "dur": 70, 
                            "type": "note", 
                            "channel": 0
                        }
                    ]
                ], 
                [
                    63553, 
                    [
                        {
                            "pitch": 77, 
                            "t0": 63553, 
                            "v": 72, 
                            "dur": 111, 
                            "type": "note", 
                            "channel": 0
                        }
                    ]
                ], 
                [
                    63653, 
                    [
                        {
                            "pitch": 74, 
                            "t0": 63653, 
                            "v": 73, 
                            "dur": 48, 
                            "type": "note", 
                            "channel": 0
                        }
                    ]
                ], 
                [
                    63670, 
                    [
                        {
                            "pitch": 58, 
                            "t0": 63670, 
                            "v": 45, 
                            "dur": 61, 
                            "type": "note", 
                            "channel": 0
                        }
                    ]
                ], 
                [
                    63779, 
                    [
                        {
                            "pitch": 72, 
                            "t0": 63779, 
                            "v": 63, 
                            "dur": 42, 
                            "type": "note", 
                            "channel": 0
                        }, 
                        {
                            "pitch": 77, 
                            "t0": 63779, 
                            "v": 72, 
                            "dur": 78, 
                            "type": "note", 
                            "channel": 0
                        }
                    ]
                ], 
                [
                    63786, 
                    [
                        {
                            "pitch": 57, 
                            "t0": 63786, 
                            "v": 40, 
                            "dur": 56, 
                            "type": "note", 
                            "channel": 0
                        }
                    ]
                ], 
                [
                    63882, 
                    [
                        {
                            "pitch": 75, 
                            "t0": 63882, 
                            "v": 67, 
                            "dur": 44, 
                            "type": "note", 
                            "channel": 0
                        }
                    ]
                ], 
                [
                    63907, 
                    [
                        {
                            "pitch": 60, 
                            "t0": 63907, 
                            "v": 33, 
                            "dur": 58, 
                            "type": "note", 
                            "channel": 0
                        }
                    ]
                ], 
                [
                    64009, 
                    [
                        {
                            "pitch": 74, 
                            "t0": 64009, 
                            "v": 70, 
                            "dur": 31, 
                            "type": "note", 
                            "channel": 0
                        }, 
                        {
                            "pitch": 77, 
                            "t0": 64009, 
                            "v": 81, 
                            "dur": 36, 
                            "type": "note", 
                            "channel": 0
                        }
                    ]
                ], 
                [
                    64020, 
                    [
                        {
                            "pitch": 58, 
                            "t0": 64020, 
                            "v": 60, 
                            "dur": 40, 
                            "type": "note", 
                            "channel": 0
                        }
                    ]
                ], 
                [
                    64155, 
                    [
                        {
                            "pitch": 53, 
                            "t0": 64155, 
                            "v": 60, 
                            "dur": 39, 
                            "type": "note", 
                            "channel": 0
                        }
                    ]
                ], 
                [
                    64279, 
                    [
                        {
                            "pitch": 53, 
                            "t0": 64279, 
                            "v": 71, 
                            "dur": 87, 
                            "type": "note", 
                            "channel": 0
                        }
                    ]
                ], 
                [
                    64289, 
                    [
                        {
                            "pitch": 50, 
                            "t0": 64289, 
                            "v": 47, 
                            "dur": 77, 
                            "type": "note", 
                            "channel": 0
                        }
                    ]
                ], 
                [
                    64378, 
                    [
                        {
                            "pitch": 51, 
                            "t0": 64378, 
                            "v": 63, 
                            "dur": 128, 
                            "type": "note", 
                            "channel": 0
                        }
                    ]
                ], 
                [
                    64392, 
                    [
                        {
                            "pitch": 55, 
                            "t0": 64392, 
                            "v": 81, 
                            "dur": 57, 
                            "type": "note", 
                            "channel": 0
                        }
                    ]
                ], 
                [
                    64509, 
                    [
                        {
                            "pitch": 57, 
                            "t0": 64509, 
                            "v": 80, 
                            "dur": 35, 
                            "type": "note", 
                            "channel": 0
                        }
                    ]
                ], 
                [
                    64523, 
                    [
                        {
                            "pitch": 53, 
                            "t0": 64523, 
                            "v": 89, 
                            "dur": 47, 
                            "type": "note", 
                            "channel": 0
                        }
                    ]
                ], 
                [
                    64620, 
                    [
                        {
                            "pitch": 58, 
                            "t0": 64620, 
                            "v": 54, 
                            "dur": 55, 
                            "type": "note", 
                            "channel": 0
                        }
                    ]
                ], 
                [
                    64751, 
                    [
                        {
                            "pitch": 60, 
                            "t0": 64751, 
                            "v": 62, 
                            "dur": 95, 
                            "type": "note", 
                            "channel": 0
                        }, 
                        {
                            "pitch": 69, 
                            "t0": 64751, 
                            "v": 66, 
                            "dur": 105, 
                            "type": "note", 
                            "channel": 0
                        }, 
                        {
                            "pitch": 53, 
                            "t0": 64751, 
                            "v": 77, 
                            "dur": 117, 
                            "type": "note", 
                            "channel": 0
                        }
                    ]
                ], 
                [
                    64856, 
                    [
                        {
                            "pitch": 70, 
                            "t0": 64856, 
                            "v": 68, 
                            "dur": 120, 
                            "type": "note", 
                            "channel": 0
                        }
                    ]
                ], 
                [
                    64868, 
                    [
                        {
                            "pitch": 62, 
                            "t0": 64868, 
                            "v": 68, 
                            "dur": 45, 
                            "type": "note", 
                            "channel": 0
                        }
                    ]
                ], 
                [
                    64985, 
                    [
                        {
                            "pitch": 63, 
                            "t0": 64985, 
                            "v": 72, 
                            "dur": 61, 
                            "type": "note", 
                            "channel": 0
                        }
                    ]
                ], 
                [
                    64988, 
                    [
                        {
                            "pitch": 72, 
                            "t0": 64988, 
                            "v": 61, 
                            "dur": 125, 
                            "type": "note", 
                            "channel": 0
                        }
                    ]
                ], 
                [
                    65006, 
                    [
                        {
                            "pitch": 53, 
                            "t0": 65006, 
                            "v": 85, 
                            "dur": 99, 
                            "type": "note", 
                            "channel": 0
                        }
                    ]
                ], 
                [
                    65090, 
                    [
                        {
                            "pitch": 70, 
                            "t0": 65090, 
                            "v": 60, 
                            "dur": 139, 
                            "type": "note", 
                            "channel": 0
                        }
                    ]
                ], 
                [
                    65098, 
                    [
                        {
                            "pitch": 62, 
                            "t0": 65098, 
                            "v": 52, 
                            "dur": 45, 
                            "type": "note", 
                            "channel": 0
                        }
                    ]
                ], 
                [
                    65213, 
                    [
                        {
                            "pitch": 69, 
                            "t0": 65213, 
                            "v": 60, 
                            "dur": 133, 
                            "type": "note", 
                            "channel": 0
                        }
                    ]
                ], 
                [
                    65229, 
                    [
                        {
                            "pitch": 53, 
                            "t0": 65229, 
                            "v": 63, 
                            "dur": 85, 
                            "type": "note", 
                            "channel": 0
                        }
                    ]
                ], 
                [
                    65235, 
                    [
                        {
                            "pitch": 60, 
                            "t0": 65235, 
                            "v": 64, 
                            "dur": 36, 
                            "type": "note", 
                            "channel": 0
                        }
                    ]
                ], 
                [
                    65322, 
                    [
                        {
                            "pitch": 63, 
                            "t0": 65322, 
                            "v": 70, 
                            "dur": 56, 
                            "type": "note", 
                            "channel": 0
                        }, 
                        {
                            "pitch": 72, 
                            "t0": 65322, 
                            "v": 61, 
                            "dur": 59, 
                            "type": "note", 
                            "channel": 0
                        }
                    ]
                ], 
                [
                    65439, 
                    [
                        {
                            "pitch": 70, 
                            "t0": 65439, 
                            "v": 55, 
                            "dur": 36, 
                            "type": "note", 
                            "channel": 0
                        }, 
                        {
                            "pitch": 53, 
                            "t0": 65439, 
                            "v": 97, 
                            "dur": 55, 
                            "type": "note", 
                            "channel": 0
                        }
                    ]
                ], 
                [
                    65453, 
                    [
                        {
                            "pitch": 62, 
                            "t0": 65453, 
                            "v": 80, 
                            "dur": 80, 
                            "type": "note", 
                            "channel": 0
                        }
                    ]
                ], 
                [
                    65570, 
                    [
                        {
                            "pitch": 51, 
                            "t0": 65570, 
                            "v": 64, 
                            "dur": 103, 
                            "type": "note", 
                            "channel": 0
                        }
                    ]
                ], 
                [
                    65581, 
                    [
                        {
                            "pitch": 60, 
                            "t0": 65581, 
                            "v": 52, 
                            "dur": 50, 
                            "type": "note", 
                            "channel": 0
                        }
                    ]
                ], 
                [
                    65679, 
                    [
                        {
                            "pitch": 58, 
                            "t0": 65679, 
                            "v": 59, 
                            "dur": 103, 
                            "type": "note", 
                            "channel": 0
                        }
                    ]
                ], 
                [
                    65686, 
                    [
                        {
                            "pitch": 50, 
                            "t0": 65686, 
                            "v": 51, 
                            "dur": 112, 
                            "type": "note", 
                            "channel": 0
                        }
                    ]
                ], 
                [
                    65782, 
                    [
                        {
                            "pitch": 51, 
                            "t0": 65782, 
                            "v": 73, 
                            "dur": 135, 
                            "type": "note", 
                            "channel": 0
                        }
                    ]
                ], 
                [
                    65787, 
                    [
                        {
                            "pitch": 60, 
                            "t0": 65787, 
                            "v": 67, 
                            "dur": 105, 
                            "type": "note", 
                            "channel": 0
                        }
                    ]
                ], 
                [
                    65904, 
                    [
                        {
                            "pitch": 57, 
                            "t0": 65904, 
                            "v": 83, 
                            "dur": 56, 
                            "type": "note", 
                            "channel": 0
                        }
                    ]
                ], 
                [
                    65924, 
                    [
                        {
                            "pitch": 53, 
                            "t0": 65924, 
                            "v": 98, 
                            "dur": 67, 
                            "type": "note", 
                            "channel": 0
                        }
                    ]
                ], 
                [
                    66021, 
                    [
                        {
                            "pitch": 58, 
                            "t0": 66021, 
                            "v": 65, 
                            "dur": 73, 
                            "type": "note", 
                            "channel": 0
                        }
                    ]
                ], 
                [
                    66146, 
                    [
                        {
                            "pitch": 60, 
                            "t0": 66146, 
                            "v": 77, 
                            "dur": 107, 
                            "type": "note", 
                            "channel": 0
                        }, 
                        {
                            "pitch": 69, 
                            "t0": 66146, 
                            "v": 70, 
                            "dur": 128, 
                            "type": "note", 
                            "channel": 0
                        }
                    ]
                ], 
                [
                    66163, 
                    [
                        {
                            "pitch": 53, 
                            "t0": 66163, 
                            "v": 78, 
                            "dur": 115, 
                            "type": "note", 
                            "channel": 0
                        }
                    ]
                ], 
                [
                    66253, 
                    [
                        {
                            "pitch": 70, 
                            "t0": 66253, 
                            "v": 71, 
                            "dur": 128, 
                            "type": "note", 
                            "channel": 0
                        }
                    ]
                ], 
                [
                    66268, 
                    [
                        {
                            "pitch": 62, 
                            "t0": 66268, 
                            "v": 72, 
                            "dur": 67, 
                            "type": "note", 
                            "channel": 0
                        }
                    ]
                ], 
                [
                    66384, 
                    [
                        {
                            "pitch": 63, 
                            "t0": 66384, 
                            "v": 76, 
                            "dur": 63, 
                            "type": "note", 
                            "channel": 0
                        }
                    ]
                ], 
                [
                    66391, 
                    [
                        {
                            "pitch": 72, 
                            "t0": 66391, 
                            "v": 70, 
                            "dur": 128, 
                            "type": "note", 
                            "channel": 0
                        }
                    ]
                ], 
                [
                    66399, 
                    [
                        {
                            "pitch": 53, 
                            "t0": 66399, 
                            "v": 100, 
                            "dur": 101, 
                            "type": "note", 
                            "channel": 0
                        }
                    ]
                ], 
                [
                    66492, 
                    [
                        {
                            "pitch": 62, 
                            "t0": 66492, 
                            "v": 74, 
                            "dur": 52, 
                            "type": "note", 
                            "channel": 0
                        }
                    ]
                ], 
                [
                    66495, 
                    [
                        {
                            "pitch": 70, 
                            "t0": 66495, 
                            "v": 60, 
                            "dur": 139, 
                            "type": "note", 
                            "channel": 0
                        }
                    ]
                ], 
                [
                    66620, 
                    [
                        {
                            "pitch": 69, 
                            "t0": 66620, 
                            "v": 68, 
                            "dur": 131, 
                            "type": "note", 
                            "channel": 0
                        }
                    ]
                ], 
                [
                    66628, 
                    [
                        {
                            "pitch": 53, 
                            "t0": 66628, 
                            "v": 95, 
                            "dur": 92, 
                            "type": "note", 
                            "channel": 0
                        }
                    ]
                ], 
                [
                    66634, 
                    [
                        {
                            "pitch": 60, 
                            "t0": 66634, 
                            "v": 75, 
                            "dur": 42, 
                            "type": "note", 
                            "channel": 0
                        }
                    ]
                ], 
                [
                    66734, 
                    [
                        {
                            "pitch": 63, 
                            "t0": 66734, 
                            "v": 79, 
                            "dur": 81, 
                            "type": "note", 
                            "channel": 0
                        }, 
                        {
                            "pitch": 72, 
                            "t0": 66734, 
                            "v": 75, 
                            "dur": 100, 
                            "type": "note", 
                            "channel": 0
                        }
                    ]
                ], 
                [
                    66860, 
                    [
                        {
                            "pitch": 70, 
                            "t0": 66860, 
                            "v": 78, 
                            "dur": 86, 
                            "type": "note", 
                            "channel": 0
                        }, 
                        {
                            "pitch": 62, 
                            "t0": 66860, 
                            "v": 94, 
                            "dur": 86, 
                            "type": "note", 
                            "channel": 0
                        }
                    ]
                ], 
                [
                    66870, 
                    [
                        {
                            "pitch": 53, 
                            "t0": 66870, 
                            "v": 95, 
                            "dur": 125, 
                            "type": "note", 
                            "channel": 0
                        }
                    ]
                ], 
                [
                    66982, 
                    [
                        {
                            "pitch": 51, 
                            "t0": 66982, 
                            "v": 82, 
                            "dur": 108, 
                            "type": "note", 
                            "channel": 0
                        }
                    ]
                ], 
                [
                    67105, 
                    [
                        {
                            "pitch": 70, 
                            "t0": 67105, 
                            "v": 76, 
                            "dur": 175, 
                            "type": "note", 
                            "channel": 0
                        }
                    ]
                ], 
                [
                    67108, 
                    [
                        {
                            "pitch": 79, 
                            "t0": 67108, 
                            "v": 100, 
                            "dur": 131, 
                            "type": "note", 
                            "channel": 0
                        }, 
                        {
                            "pitch": 50, 
                            "t0": 67108, 
                            "v": 85, 
                            "dur": 139, 
                            "type": "note", 
                            "channel": 0
                        }
                    ]
                ], 
                [
                    67233, 
                    [
                        {
                            "pitch": 51, 
                            "t0": 67233, 
                            "v": 80, 
                            "dur": 122, 
                            "type": "note", 
                            "channel": 0
                        }
                    ]
                ], 
                [
                    67367, 
                    [
                        {
                            "pitch": 70, 
                            "t0": 67367, 
                            "v": 80, 
                            "dur": 545, 
                            "type": "note", 
                            "channel": 0
                        }, 
                        {
                            "pitch": 74, 
                            "t0": 67367, 
                            "v": 98, 
                            "dur": 610, 
                            "type": "note", 
                            "channel": 0
                        }
                    ]
                ], 
                [
                    67381, 
                    [
                        {
                            "pitch": 53, 
                            "t0": 67381, 
                            "v": 96, 
                            "dur": 114, 
                            "type": "note", 
                            "channel": 0
                        }
                    ]
                ], 
                [
                    67640, 
                    [
                        {
                            "pitch": 51, 
                            "t0": 67640, 
                            "v": 85, 
                            "dur": 211, 
                            "type": "note", 
                            "channel": 0
                        }
                    ]
                ], 
                [
                    67926, 
                    [
                        {
                            "pitch": 69, 
                            "t0": 67926, 
                            "v": 69, 
                            "dur": 396, 
                            "type": "note", 
                            "channel": 0
                        }, 
                        {
                            "pitch": 72, 
                            "t0": 67926, 
                            "v": 89, 
                            "dur": 950, 
                            "type": "note", 
                            "channel": 0
                        }
                    ]
                ], 
                [
                    67931, 
                    [
                        {
                            "pitch": 53, 
                            "t0": 67931, 
                            "v": 96, 
                            "dur": 262, 
                            "type": "note", 
                            "channel": 0
                        }
                    ]
                ], 
                [
                    68263, 
                    [
                        {
                            "pitch": 63, 
                            "t0": 68263, 
                            "v": 89, 
                            "dur": 530, 
                            "type": "note", 
                            "channel": 0
                        }
                    ]
                ], 
                [
                    68267, 
                    [
                        {
                            "pitch": 41, 
                            "t0": 68267, 
                            "v": 83, 
                            "dur": 555, 
                            "type": "note", 
                            "channel": 0
                        }
                    ]
                ], 
                [
                    68813, 
                    [
                        {
                            "pitch": 62, 
                            "t0": 68813, 
                            "v": 76, 
                            "dur": 2074, 
                            "type": "note", 
                            "channel": 0
                        }, 
                        {
                            "pitch": 70, 
                            "t0": 68813, 
                            "v": 74, 
                            "dur": 2103, 
                            "type": "note", 
                            "channel": 0
                        }
                    ]
                ], 
                [
                    68817, 
                    [
                        {
                            "pitch": 46, 
                            "t0": 68817, 
                            "v": 62, 
                            "dur": 2090, 
                            "type": "note", 
                            "channel": 0
                        }
                    ]
                ]
            ], 
            "instruments": [], 
            "tMax": 68817, 
            "channels": [
                0
            ], 
            "numNotes": 945, 
            "type": "TrackObj"
        }
    ], 
    "type": "MidiObj"
}